Track 1: size = 9
@0 Other Message: class javax.sound.midi.MetaMessage

@0 Other Message: class javax.sound.midi.MetaMessage

@0 Other Message: class javax.sound.midi.MetaMessage

@0 Other Message: class javax.sound.midi.MetaMessage

@53760 Other Message: class javax.sound.midi.MetaMessage

@78720 Other Message: class javax.sound.midi.MetaMessage

@121440 Other Message: class javax.sound.midi.MetaMessage

@122040 Other Message: class javax.sound.midi.MetaMessage

@122040 Other Message: class javax.sound.midi.Track$ImmutableEndOfTrack

Track 2: size = 617
@0 Other Message: class javax.sound.midi.MetaMessage

@0 Other Message: class javax.sound.midi.MetaMessage

@0 Channel: 0 Command: 176

@0 Channel: 0 Command: 192

@11941 Channel: 0 Note on, E5 key =  76 ; velocity: 127
@12001 Channel: 0 Note on, E5 key =  76 ; velocity: 0
@12001 Channel: 0 Note on, E5 key =  76 ; velocity: 127
@12061 Channel: 0 Note on, E5 key =  76 ; velocity: 0
@19681 Channel: 0 Note on, E5 key =  76 ; velocity: 127
@19741 Channel: 0 Note on, E5 key =  76 ; velocity: 0
@19741 Channel: 0 Note on, E5 key =  76 ; velocity: 127
@19801 Channel: 0 Note on, E5 key =  76 ; velocity: 0
@19801 Channel: 0 Note on, E5 key =  76 ; velocity: 127
@19861 Channel: 0 Note on, E5 key =  76 ; velocity: 0
@19861 Channel: 0 Note on, E5 key =  76 ; velocity: 127
@20041 Channel: 0 Note on, E5 key =  76 ; velocity: 0
@20041 Channel: 0 Note on, E5 key =  76 ; velocity: 127
@20101 Channel: 0 Note on, E5 key =  76 ; velocity: 0
@20101 Channel: 0 Note on, D5 key =  74 ; velocity: 127
@20161 Channel: 0 Note on, D5 key =  74 ; velocity: 0
@20161 Channel: 0 Note on, E5 key =  76 ; velocity: 127
@20221 Channel: 0 Note on, E5 key =  76 ; velocity: 0
@20221 Channel: 0 Note on, E5 key =  76 ; velocity: 127
@20281 Channel: 0 Note on, E5 key =  76 ; velocity: 0
@20281 Channel: 0 Note on, G5 key =  79 ; velocity: 127
@20341 Channel: 0 Note on, G5 key =  79 ; velocity: 0
@20341 Channel: 0 Note on, E5 key =  76 ; velocity: 127
@20401 Channel: 0 Note on, E5 key =  76 ; velocity: 0
@20581 Channel: 0 Note on, D5 key =  74 ; velocity: 127
@20641 Channel: 0 Note on, D5 key =  74 ; velocity: 0
@20641 Channel: 0 Note on, E5 key =  76 ; velocity: 127
@20701 Channel: 0 Note on, E5 key =  76 ; velocity: 0
@20701 Channel: 0 Note on, E5 key =  76 ; velocity: 127
@20761 Channel: 0 Note on, E5 key =  76 ; velocity: 0
@20761 Channel: 0 Note on, D5 key =  74 ; velocity: 127
@20821 Channel: 0 Note on, D5 key =  74 ; velocity: 0
@20821 Channel: 0 Note on, E5 key =  76 ; velocity: 127
@21061 Channel: 0 Note on, E5 key =  76 ; velocity: 0
@21061 Channel: 0 Note on, D5 key =  74 ; velocity: 127
@21121 Channel: 0 Note on, D5 key =  74 ; velocity: 0
@21121 Channel: 0 Note on, E5 key =  76 ; velocity: 127
@21181 Channel: 0 Note on, E5 key =  76 ; velocity: 0
@21181 Channel: 0 Note on, E5 key =  76 ; velocity: 127
@21241 Channel: 0 Note on, E5 key =  76 ; velocity: 0
@21241 Channel: 0 Note on, E5 key =  76 ; velocity: 127
@21301 Channel: 0 Note on, E5 key =  76 ; velocity: 0
@21301 Channel: 0 Note on, E5 key =  76 ; velocity: 127
@21361 Channel: 0 Note on, E5 key =  76 ; velocity: 0
@21721 Channel: 0 Note on, E5 key =  76 ; velocity: 127
@21781 Channel: 0 Note on, E5 key =  76 ; velocity: 0
@21781 Channel: 0 Note on, D5 key =  74 ; velocity: 127
@21841 Channel: 0 Note on, D5 key =  74 ; velocity: 0
@21841 Channel: 0 Note on, E5 key =  76 ; velocity: 127
@21901 Channel: 0 Note on, E5 key =  76 ; velocity: 0
@21901 Channel: 0 Note on, D5 key =  74 ; velocity: 127
@21961 Channel: 0 Note on, D5 key =  74 ; velocity: 0
@21961 Channel: 0 Note on, E5 key =  76 ; velocity: 127
@22021 Channel: 0 Note on, E5 key =  76 ; velocity: 0
@22021 Channel: 0 Note on, D5 key =  74 ; velocity: 127
@22081 Channel: 0 Note on, D5 key =  74 ; velocity: 0
@22081 Channel: 0 Note on, E5 key =  76 ; velocity: 127
@22141 Channel: 0 Note on, E5 key =  76 ; velocity: 0
@22141 Channel: 0 Note on, F#5 key =  78 ; velocity: 127
@22201 Channel: 0 Note on, F#5 key =  78 ; velocity: 0
@22201 Channel: 0 Note on, G5 key =  79 ; velocity: 127
@22261 Channel: 0 Note on, G5 key =  79 ; velocity: 0
@22261 Channel: 0 Note on, E5 key =  76 ; velocity: 127
@22321 Channel: 0 Note on, E5 key =  76 ; velocity: 0
@22321 Channel: 0 Note on, D5 key =  74 ; velocity: 127
@22441 Channel: 0 Note on, D5 key =  74 ; velocity: 0
@22441 Channel: 0 Note on, D5 key =  74 ; velocity: 127
@22501 Channel: 0 Note on, D5 key =  74 ; velocity: 0
@22501 Channel: 0 Note on, D5 key =  74 ; velocity: 127
@22561 Channel: 0 Note on, D5 key =  74 ; velocity: 0
@22561 Channel: 0 Note on, E5 key =  76 ; velocity: 127
@22621 Channel: 0 Note on, E5 key =  76 ; velocity: 0
@22621 Channel: 0 Note on, E5 key =  76 ; velocity: 127
@22741 Channel: 0 Note on, E5 key =  76 ; velocity: 0
@22741 Channel: 0 Note on, E5 key =  76 ; velocity: 127
@22801 Channel: 0 Note on, E5 key =  76 ; velocity: 0
@22861 Channel: 0 Note on, E5 key =  76 ; velocity: 127
@22921 Channel: 0 Note on, E5 key =  76 ; velocity: 0
@22921 Channel: 0 Note on, E5 key =  76 ; velocity: 127
@22981 Channel: 0 Note on, E5 key =  76 ; velocity: 0
@22981 Channel: 0 Note on, E5 key =  76 ; velocity: 127
@23041 Channel: 0 Note on, E5 key =  76 ; velocity: 0
@23041 Channel: 0 Note on, E5 key =  76 ; velocity: 127
@23101 Channel: 0 Note on, E5 key =  76 ; velocity: 0
@23101 Channel: 0 Note on, E5 key =  76 ; velocity: 127
@23161 Channel: 0 Note on, E5 key =  76 ; velocity: 0
@23161 Channel: 0 Note on, E5 key =  76 ; velocity: 127
@23221 Channel: 0 Note on, E5 key =  76 ; velocity: 0
@23221 Channel: 0 Note on, E5 key =  76 ; velocity: 127
@23341 Channel: 0 Note on, E5 key =  76 ; velocity: 0
@23521 Channel: 0 Note on, E5 key =  76 ; velocity: 127
@23581 Channel: 0 Note on, E5 key =  76 ; velocity: 0
@23581 Channel: 0 Note on, E5 key =  76 ; velocity: 127
@23641 Channel: 0 Note on, E5 key =  76 ; velocity: 0
@23761 Channel: 0 Note on, E5 key =  76 ; velocity: 127
@23821 Channel: 0 Note on, E5 key =  76 ; velocity: 0
@23821 Channel: 0 Note on, E5 key =  76 ; velocity: 127
@23881 Channel: 0 Note on, E5 key =  76 ; velocity: 0
@23881 Channel: 0 Note on, E5 key =  76 ; velocity: 127
@24001 Channel: 0 Note on, E5 key =  76 ; velocity: 0
@24001 Channel: 0 Note on, E5 key =  76 ; velocity: 127
@24061 Channel: 0 Note on, E5 key =  76 ; velocity: 0
@24061 Channel: 0 Note on, E5 key =  76 ; velocity: 127
@24121 Channel: 0 Note on, E5 key =  76 ; velocity: 0
@24241 Channel: 0 Note on, E5 key =  76 ; velocity: 127
@24301 Channel: 0 Note on, E5 key =  76 ; velocity: 0
@24301 Channel: 0 Note on, E5 key =  76 ; velocity: 127
@24361 Channel: 0 Note on, E5 key =  76 ; velocity: 0
@24361 Channel: 0 Note on, E5 key =  76 ; velocity: 127
@24481 Channel: 0 Note on, E5 key =  76 ; velocity: 0
@24481 Channel: 0 Note on, E5 key =  76 ; velocity: 127
@24541 Channel: 0 Note on, E5 key =  76 ; velocity: 0
@24541 Channel: 0 Note on, A4 key =  69 ; velocity: 127
@24601 Channel: 0 Note on, A4 key =  69 ; velocity: 0
@24661 Channel: 0 Note on, E5 key =  76 ; velocity: 127
@24721 Channel: 0 Note on, E5 key =  76 ; velocity: 0
@24721 Channel: 0 Note on, E5 key =  76 ; velocity: 127
@24781 Channel: 0 Note on, E5 key =  76 ; velocity: 0
@24781 Channel: 0 Note on, E5 key =  76 ; velocity: 127
@24841 Channel: 0 Note on, E5 key =  76 ; velocity: 0
@24841 Channel: 0 Note on, E5 key =  76 ; velocity: 127
@24961 Channel: 0 Note on, E5 key =  76 ; velocity: 0
@25441 Channel: 0 Note on, E5 key =  76 ; velocity: 127
@25501 Channel: 0 Note on, E5 key =  76 ; velocity: 0
@25501 Channel: 0 Note on, E5 key =  76 ; velocity: 127
@25561 Channel: 0 Note on, E5 key =  76 ; velocity: 0
@25681 Channel: 0 Note on, E5 key =  76 ; velocity: 127
@25741 Channel: 0 Note on, E5 key =  76 ; velocity: 0
@25741 Channel: 0 Note on, E5 key =  76 ; velocity: 127
@25801 Channel: 0 Note on, E5 key =  76 ; velocity: 0
@25801 Channel: 0 Note on, E5 key =  76 ; velocity: 127
@25921 Channel: 0 Note on, E5 key =  76 ; velocity: 0
@25921 Channel: 0 Note on, E5 key =  76 ; velocity: 127
@25981 Channel: 0 Note on, E5 key =  76 ; velocity: 0
@25981 Channel: 0 Note on, E5 key =  76 ; velocity: 127
@26041 Channel: 0 Note on, E5 key =  76 ; velocity: 0
@26161 Channel: 0 Note on, E5 key =  76 ; velocity: 127
@26221 Channel: 0 Note on, E5 key =  76 ; velocity: 0
@26221 Channel: 0 Note on, E5 key =  76 ; velocity: 127
@26281 Channel: 0 Note on, E5 key =  76 ; velocity: 0
@26281 Channel: 0 Note on, E5 key =  76 ; velocity: 127
@26401 Channel: 0 Note on, E5 key =  76 ; velocity: 0
@26401 Channel: 0 Note on, E5 key =  76 ; velocity: 127
@26461 Channel: 0 Note on, E5 key =  76 ; velocity: 0
@26461 Channel: 0 Note on, A4 key =  69 ; velocity: 127
@26521 Channel: 0 Note on, A4 key =  69 ; velocity: 0
@26581 Channel: 0 Note on, E5 key =  76 ; velocity: 127
@26641 Channel: 0 Note on, E5 key =  76 ; velocity: 0
@26641 Channel: 0 Note on, E5 key =  76 ; velocity: 127
@26701 Channel: 0 Note on, E5 key =  76 ; velocity: 0
@26701 Channel: 0 Note on, E5 key =  76 ; velocity: 127
@26761 Channel: 0 Note on, E5 key =  76 ; velocity: 0
@26761 Channel: 0 Note on, E5 key =  76 ; velocity: 127
@26881 Channel: 0 Note on, E5 key =  76 ; velocity: 0
@27841 Channel: 0 Note on, D5 key =  74 ; velocity: 127
@27901 Channel: 0 Note on, D5 key =  74 ; velocity: 0
@27901 Channel: 0 Note on, E5 key =  76 ; velocity: 127
@28441 Channel: 0 Note on, E5 key =  76 ; velocity: 0
@28561 Channel: 0 Note on, F5 key =  77 ; velocity: 127
@28641 Channel: 0 Note on, F5 key =  77 ; velocity: 0
@28641 Channel: 0 Note on, F5 key =  77 ; velocity: 127
@28721 Channel: 0 Note on, F5 key =  77 ; velocity: 0
@28721 Channel: 0 Note on, F5 key =  77 ; velocity: 127
@28801 Channel: 0 Note on, F5 key =  77 ; velocity: 0
@28801 Channel: 0 Note on, E5 key =  76 ; velocity: 127
@28921 Channel: 0 Note on, E5 key =  76 ; velocity: 0
@29761 Channel: 0 Note on, D5 key =  74 ; velocity: 127
@29821 Channel: 0 Note on, D5 key =  74 ; velocity: 0
@29821 Channel: 0 Note on, E5 key =  76 ; velocity: 127
@30361 Channel: 0 Note on, E5 key =  76 ; velocity: 0
@30481 Channel: 0 Note on, F5 key =  77 ; velocity: 127
@30561 Channel: 0 Note on, F5 key =  77 ; velocity: 0
@30561 Channel: 0 Note on, F5 key =  77 ; velocity: 127
@30641 Channel: 0 Note on, F5 key =  77 ; velocity: 0
@30641 Channel: 0 Note on, F5 key =  77 ; velocity: 127
@30721 Channel: 0 Note on, F5 key =  77 ; velocity: 0
@30721 Channel: 0 Note on, B5 key =  83 ; velocity: 127
@30961 Channel: 0 Note on, B5 key =  83 ; velocity: 0
@31681 Channel: 0 Note on, D5 key =  74 ; velocity: 127
@31741 Channel: 0 Note on, D5 key =  74 ; velocity: 0
@31741 Channel: 0 Note on, E5 key =  76 ; velocity: 127
@32281 Channel: 0 Note on, E5 key =  76 ; velocity: 0
@32401 Channel: 0 Note on, F5 key =  77 ; velocity: 127
@32481 Channel: 0 Note on, F5 key =  77 ; velocity: 0
@32481 Channel: 0 Note on, F5 key =  77 ; velocity: 127
@32561 Channel: 0 Note on, F5 key =  77 ; velocity: 0
@32561 Channel: 0 Note on, F5 key =  77 ; velocity: 127
@32641 Channel: 0 Note on, F5 key =  77 ; velocity: 0
@32641 Channel: 0 Note on, E5 key =  76 ; velocity: 127
@32761 Channel: 0 Note on, E5 key =  76 ; velocity: 0
@33601 Channel: 0 Note on, D5 key =  74 ; velocity: 127
@33661 Channel: 0 Note on, D5 key =  74 ; velocity: 0
@33661 Channel: 0 Note on, E5 key =  76 ; velocity: 127
@34201 Channel: 0 Note on, E5 key =  76 ; velocity: 0
@34321 Channel: 0 Note on, F5 key =  77 ; velocity: 127
@34401 Channel: 0 Note on, F5 key =  77 ; velocity: 0
@34401 Channel: 0 Note on, F5 key =  77 ; velocity: 127
@34481 Channel: 0 Note on, F5 key =  77 ; velocity: 0
@34481 Channel: 0 Note on, F5 key =  77 ; velocity: 127
@34561 Channel: 0 Note on, F5 key =  77 ; velocity: 0
@34561 Channel: 0 Note on, E5 key =  76 ; velocity: 127
@34681 Channel: 0 Note on, E5 key =  76 ; velocity: 0
@38281 Channel: 0 Note on, E5 key =  76 ; velocity: 127
@38341 Channel: 0 Note on, E5 key =  76 ; velocity: 0
@38341 Channel: 0 Note on, D5 key =  74 ; velocity: 127
@38401 Channel: 0 Note on, D5 key =  74 ; velocity: 0
@38401 Channel: 0 Note on, E5 key =  76 ; velocity: 127
@38461 Channel: 0 Note on, E5 key =  76 ; velocity: 0
@38461 Channel: 0 Note on, E5 key =  76 ; velocity: 127
@38521 Channel: 0 Note on, E5 key =  76 ; velocity: 0
@38521 Channel: 0 Note on, E5 key =  76 ; velocity: 127
@38581 Channel: 0 Note on, E5 key =  76 ; velocity: 0
@38581 Channel: 0 Note on, E5 key =  76 ; velocity: 127
@38761 Channel: 0 Note on, E5 key =  76 ; velocity: 0
@38761 Channel: 0 Note on, E5 key =  76 ; velocity: 127
@38821 Channel: 0 Note on, E5 key =  76 ; velocity: 0
@38821 Channel: 0 Note on, D5 key =  74 ; velocity: 127
@38881 Channel: 0 Note on, D5 key =  74 ; velocity: 0
@38881 Channel: 0 Note on, E5 key =  76 ; velocity: 127
@38941 Channel: 0 Note on, E5 key =  76 ; velocity: 0
@38941 Channel: 0 Note on, E5 key =  76 ; velocity: 127
@39001 Channel: 0 Note on, E5 key =  76 ; velocity: 0
@39001 Channel: 0 Note on, G5 key =  79 ; velocity: 127
@39061 Channel: 0 Note on, G5 key =  79 ; velocity: 0
@39061 Channel: 0 Note on, E5 key =  76 ; velocity: 127
@39121 Channel: 0 Note on, E5 key =  76 ; velocity: 0
@39301 Channel: 0 Note on, D5 key =  74 ; velocity: 127
@39361 Channel: 0 Note on, D5 key =  74 ; velocity: 0
@39361 Channel: 0 Note on, E5 key =  76 ; velocity: 127
@39421 Channel: 0 Note on, E5 key =  76 ; velocity: 0
@39421 Channel: 0 Note on, E5 key =  76 ; velocity: 127
@39481 Channel: 0 Note on, E5 key =  76 ; velocity: 0
@39481 Channel: 0 Note on, D5 key =  74 ; velocity: 127
@39541 Channel: 0 Note on, D5 key =  74 ; velocity: 0
@39541 Channel: 0 Note on, E5 key =  76 ; velocity: 127
@39781 Channel: 0 Note on, E5 key =  76 ; velocity: 0
@39781 Channel: 0 Note on, D5 key =  74 ; velocity: 127
@39841 Channel: 0 Note on, D5 key =  74 ; velocity: 0
@39841 Channel: 0 Note on, E5 key =  76 ; velocity: 127
@39901 Channel: 0 Note on, E5 key =  76 ; velocity: 0
@39901 Channel: 0 Note on, E5 key =  76 ; velocity: 127
@39961 Channel: 0 Note on, E5 key =  76 ; velocity: 0
@39961 Channel: 0 Note on, E5 key =  76 ; velocity: 127
@40021 Channel: 0 Note on, E5 key =  76 ; velocity: 0
@40021 Channel: 0 Note on, E5 key =  76 ; velocity: 127
@40081 Channel: 0 Note on, E5 key =  76 ; velocity: 0
@40441 Channel: 0 Note on, E5 key =  76 ; velocity: 127
@40501 Channel: 0 Note on, E5 key =  76 ; velocity: 0
@40501 Channel: 0 Note on, D5 key =  74 ; velocity: 127
@40561 Channel: 0 Note on, D5 key =  74 ; velocity: 0
@40561 Channel: 0 Note on, E5 key =  76 ; velocity: 127
@40621 Channel: 0 Note on, E5 key =  76 ; velocity: 0
@40621 Channel: 0 Note on, D5 key =  74 ; velocity: 127
@40681 Channel: 0 Note on, D5 key =  74 ; velocity: 0
@40681 Channel: 0 Note on, E5 key =  76 ; velocity: 127
@40741 Channel: 0 Note on, E5 key =  76 ; velocity: 0
@40741 Channel: 0 Note on, D5 key =  74 ; velocity: 127
@40801 Channel: 0 Note on, D5 key =  74 ; velocity: 0
@40801 Channel: 0 Note on, E5 key =  76 ; velocity: 127
@40861 Channel: 0 Note on, E5 key =  76 ; velocity: 0
@40861 Channel: 0 Note on, F#5 key =  78 ; velocity: 127
@40921 Channel: 0 Note on, F#5 key =  78 ; velocity: 0
@40921 Channel: 0 Note on, G5 key =  79 ; velocity: 127
@40981 Channel: 0 Note on, G5 key =  79 ; velocity: 0
@40981 Channel: 0 Note on, E5 key =  76 ; velocity: 127
@41041 Channel: 0 Note on, E5 key =  76 ; velocity: 0
@41041 Channel: 0 Note on, D5 key =  74 ; velocity: 127
@41161 Channel: 0 Note on, D5 key =  74 ; velocity: 0
@41161 Channel: 0 Note on, D5 key =  74 ; velocity: 127
@41221 Channel: 0 Note on, D5 key =  74 ; velocity: 0
@41221 Channel: 0 Note on, D5 key =  74 ; velocity: 127
@41281 Channel: 0 Note on, D5 key =  74 ; velocity: 0
@41281 Channel: 0 Note on, E5 key =  76 ; velocity: 127
@41341 Channel: 0 Note on, E5 key =  76 ; velocity: 0
@41341 Channel: 0 Note on, E5 key =  76 ; velocity: 127
@41461 Channel: 0 Note on, E5 key =  76 ; velocity: 0
@41461 Channel: 0 Note on, E5 key =  76 ; velocity: 127
@41521 Channel: 0 Note on, E5 key =  76 ; velocity: 0
@41581 Channel: 0 Note on, E5 key =  76 ; velocity: 127
@41641 Channel: 0 Note on, E5 key =  76 ; velocity: 0
@41641 Channel: 0 Note on, E5 key =  76 ; velocity: 127
@41701 Channel: 0 Note on, E5 key =  76 ; velocity: 0
@41701 Channel: 0 Note on, E5 key =  76 ; velocity: 127
@41761 Channel: 0 Note on, E5 key =  76 ; velocity: 0
@41761 Channel: 0 Note on, E5 key =  76 ; velocity: 127
@41821 Channel: 0 Note on, E5 key =  76 ; velocity: 0
@41821 Channel: 0 Note on, E5 key =  76 ; velocity: 127
@41881 Channel: 0 Note on, E5 key =  76 ; velocity: 0
@41881 Channel: 0 Note on, E5 key =  76 ; velocity: 127
@41941 Channel: 0 Note on, E5 key =  76 ; velocity: 0
@41941 Channel: 0 Note on, E5 key =  76 ; velocity: 127
@42061 Channel: 0 Note on, E5 key =  76 ; velocity: 0
@42241 Channel: 0 Note on, E5 key =  76 ; velocity: 127
@42301 Channel: 0 Note on, E5 key =  76 ; velocity: 0
@42301 Channel: 0 Note on, E5 key =  76 ; velocity: 127
@42361 Channel: 0 Note on, E5 key =  76 ; velocity: 0
@42481 Channel: 0 Note on, E5 key =  76 ; velocity: 127
@42541 Channel: 0 Note on, E5 key =  76 ; velocity: 0
@42541 Channel: 0 Note on, E5 key =  76 ; velocity: 127
@42601 Channel: 0 Note on, E5 key =  76 ; velocity: 0
@42601 Channel: 0 Note on, E5 key =  76 ; velocity: 127
@42721 Channel: 0 Note on, E5 key =  76 ; velocity: 0
@42721 Channel: 0 Note on, E5 key =  76 ; velocity: 127
@42781 Channel: 0 Note on, E5 key =  76 ; velocity: 0
@42781 Channel: 0 Note on, E5 key =  76 ; velocity: 127
@42841 Channel: 0 Note on, E5 key =  76 ; velocity: 0
@42961 Channel: 0 Note on, E5 key =  76 ; velocity: 127
@43021 Channel: 0 Note on, E5 key =  76 ; velocity: 0
@43021 Channel: 0 Note on, E5 key =  76 ; velocity: 127
@43081 Channel: 0 Note on, E5 key =  76 ; velocity: 0
@43081 Channel: 0 Note on, E5 key =  76 ; velocity: 127
@43201 Channel: 0 Note on, E5 key =  76 ; velocity: 0
@43201 Channel: 0 Note on, E5 key =  76 ; velocity: 127
@43261 Channel: 0 Note on, E5 key =  76 ; velocity: 0
@43261 Channel: 0 Note on, A4 key =  69 ; velocity: 127
@43321 Channel: 0 Note on, A4 key =  69 ; velocity: 0
@43381 Channel: 0 Note on, E5 key =  76 ; velocity: 127
@43441 Channel: 0 Note on, E5 key =  76 ; velocity: 0
@43441 Channel: 0 Note on, E5 key =  76 ; velocity: 127
@43501 Channel: 0 Note on, E5 key =  76 ; velocity: 0
@43501 Channel: 0 Note on, E5 key =  76 ; velocity: 127
@43561 Channel: 0 Note on, E5 key =  76 ; velocity: 0
@43561 Channel: 0 Note on, E5 key =  76 ; velocity: 127
@43681 Channel: 0 Note on, E5 key =  76 ; velocity: 0
@44161 Channel: 0 Note on, E5 key =  76 ; velocity: 127
@44221 Channel: 0 Note on, E5 key =  76 ; velocity: 0
@44221 Channel: 0 Note on, E5 key =  76 ; velocity: 127
@44281 Channel: 0 Note on, E5 key =  76 ; velocity: 0
@44401 Channel: 0 Note on, E5 key =  76 ; velocity: 127
@44461 Channel: 0 Note on, E5 key =  76 ; velocity: 0
@44461 Channel: 0 Note on, E5 key =  76 ; velocity: 127
@44521 Channel: 0 Note on, E5 key =  76 ; velocity: 0
@44521 Channel: 0 Note on, E5 key =  76 ; velocity: 127
@44641 Channel: 0 Note on, E5 key =  76 ; velocity: 0
@44641 Channel: 0 Note on, E5 key =  76 ; velocity: 127
@44701 Channel: 0 Note on, E5 key =  76 ; velocity: 0
@44701 Channel: 0 Note on, E5 key =  76 ; velocity: 127
@44761 Channel: 0 Note on, E5 key =  76 ; velocity: 0
@44881 Channel: 0 Note on, E5 key =  76 ; velocity: 127
@44941 Channel: 0 Note on, E5 key =  76 ; velocity: 0
@44941 Channel: 0 Note on, E5 key =  76 ; velocity: 127
@45001 Channel: 0 Note on, E5 key =  76 ; velocity: 0
@45001 Channel: 0 Note on, E5 key =  76 ; velocity: 127
@45121 Channel: 0 Note on, E5 key =  76 ; velocity: 0
@45121 Channel: 0 Note on, E5 key =  76 ; velocity: 127
@45181 Channel: 0 Note on, E5 key =  76 ; velocity: 0
@45181 Channel: 0 Note on, A4 key =  69 ; velocity: 127
@45241 Channel: 0 Note on, A4 key =  69 ; velocity: 0
@45301 Channel: 0 Note on, E5 key =  76 ; velocity: 127
@45361 Channel: 0 Note on, E5 key =  76 ; velocity: 0
@45361 Channel: 0 Note on, E5 key =  76 ; velocity: 127
@45421 Channel: 0 Note on, E5 key =  76 ; velocity: 0
@45421 Channel: 0 Note on, E5 key =  76 ; velocity: 127
@45481 Channel: 0 Note on, E5 key =  76 ; velocity: 0
@45481 Channel: 0 Note on, E5 key =  76 ; velocity: 127
@45601 Channel: 0 Note on, E5 key =  76 ; velocity: 0
@46561 Channel: 0 Note on, D5 key =  74 ; velocity: 127
@46621 Channel: 0 Note on, D5 key =  74 ; velocity: 0
@46621 Channel: 0 Note on, E5 key =  76 ; velocity: 127
@47161 Channel: 0 Note on, E5 key =  76 ; velocity: 0
@47281 Channel: 0 Note on, F5 key =  77 ; velocity: 127
@47361 Channel: 0 Note on, F5 key =  77 ; velocity: 0
@47361 Channel: 0 Note on, F5 key =  77 ; velocity: 127
@47441 Channel: 0 Note on, F5 key =  77 ; velocity: 0
@47441 Channel: 0 Note on, F5 key =  77 ; velocity: 127
@47521 Channel: 0 Note on, F5 key =  77 ; velocity: 0
@47521 Channel: 0 Note on, E5 key =  76 ; velocity: 127
@47641 Channel: 0 Note on, E5 key =  76 ; velocity: 0
@48481 Channel: 0 Note on, D5 key =  74 ; velocity: 127
@48541 Channel: 0 Note on, D5 key =  74 ; velocity: 0
@48541 Channel: 0 Note on, E5 key =  76 ; velocity: 127
@49081 Channel: 0 Note on, E5 key =  76 ; velocity: 0
@49201 Channel: 0 Note on, F5 key =  77 ; velocity: 127
@49281 Channel: 0 Note on, F5 key =  77 ; velocity: 0
@49281 Channel: 0 Note on, F5 key =  77 ; velocity: 127
@49361 Channel: 0 Note on, F5 key =  77 ; velocity: 0
@49361 Channel: 0 Note on, F5 key =  77 ; velocity: 127
@49441 Channel: 0 Note on, F5 key =  77 ; velocity: 0
@49441 Channel: 0 Note on, B5 key =  83 ; velocity: 127
@49681 Channel: 0 Note on, B5 key =  83 ; velocity: 0
@50401 Channel: 0 Note on, D5 key =  74 ; velocity: 127
@50461 Channel: 0 Note on, D5 key =  74 ; velocity: 0
@50461 Channel: 0 Note on, E5 key =  76 ; velocity: 127
@51001 Channel: 0 Note on, E5 key =  76 ; velocity: 0
@51121 Channel: 0 Note on, F5 key =  77 ; velocity: 127
@51201 Channel: 0 Note on, F5 key =  77 ; velocity: 0
@51201 Channel: 0 Note on, F5 key =  77 ; velocity: 127
@51281 Channel: 0 Note on, F5 key =  77 ; velocity: 0
@51281 Channel: 0 Note on, F5 key =  77 ; velocity: 127
@51361 Channel: 0 Note on, F5 key =  77 ; velocity: 0
@51361 Channel: 0 Note on, E5 key =  76 ; velocity: 127
@51481 Channel: 0 Note on, E5 key =  76 ; velocity: 0
@52321 Channel: 0 Note on, D5 key =  74 ; velocity: 127
@52381 Channel: 0 Note on, D5 key =  74 ; velocity: 0
@52381 Channel: 0 Note on, E5 key =  76 ; velocity: 127
@52921 Channel: 0 Note on, E5 key =  76 ; velocity: 0
@53041 Channel: 0 Note on, F5 key =  77 ; velocity: 127
@53121 Channel: 0 Note on, F5 key =  77 ; velocity: 0
@53121 Channel: 0 Note on, F5 key =  77 ; velocity: 127
@53201 Channel: 0 Note on, F5 key =  77 ; velocity: 0
@53201 Channel: 0 Note on, F5 key =  77 ; velocity: 127
@53281 Channel: 0 Note on, F5 key =  77 ; velocity: 0
@53281 Channel: 0 Note on, B5 key =  83 ; velocity: 127
@53761 Channel: 0 Note on, B5 key =  83 ; velocity: 0
@90661 Channel: 0 Note on, D5 key =  74 ; velocity: 127
@90721 Channel: 0 Note on, D5 key =  74 ; velocity: 0
@90721 Channel: 0 Note on, E5 key =  76 ; velocity: 127
@90781 Channel: 0 Note on, E5 key =  76 ; velocity: 0
@90781 Channel: 0 Note on, E5 key =  76 ; velocity: 127
@90841 Channel: 0 Note on, E5 key =  76 ; velocity: 0
@90841 Channel: 0 Note on, E5 key =  76 ; velocity: 127
@90901 Channel: 0 Note on, E5 key =  76 ; velocity: 0
@90901 Channel: 0 Note on, E5 key =  76 ; velocity: 127
@91081 Channel: 0 Note on, E5 key =  76 ; velocity: 0
@91081 Channel: 0 Note on, E5 key =  76 ; velocity: 127
@91141 Channel: 0 Note on, E5 key =  76 ; velocity: 0
@91141 Channel: 0 Note on, D5 key =  74 ; velocity: 127
@91201 Channel: 0 Note on, D5 key =  74 ; velocity: 0
@91201 Channel: 0 Note on, E5 key =  76 ; velocity: 127
@91261 Channel: 0 Note on, E5 key =  76 ; velocity: 0
@91261 Channel: 0 Note on, E5 key =  76 ; velocity: 127
@91321 Channel: 0 Note on, E5 key =  76 ; velocity: 0
@91321 Channel: 0 Note on, G5 key =  79 ; velocity: 127
@91381 Channel: 0 Note on, G5 key =  79 ; velocity: 0
@91381 Channel: 0 Note on, E5 key =  76 ; velocity: 127
@91441 Channel: 0 Note on, E5 key =  76 ; velocity: 0
@91621 Channel: 0 Note on, D5 key =  74 ; velocity: 127
@91681 Channel: 0 Note on, D5 key =  74 ; velocity: 0
@91681 Channel: 0 Note on, E5 key =  76 ; velocity: 127
@91741 Channel: 0 Note on, E5 key =  76 ; velocity: 0
@91741 Channel: 0 Note on, E5 key =  76 ; velocity: 127
@91801 Channel: 0 Note on, E5 key =  76 ; velocity: 0
@91801 Channel: 0 Note on, D5 key =  74 ; velocity: 127
@91861 Channel: 0 Note on, D5 key =  74 ; velocity: 0
@91861 Channel: 0 Note on, E5 key =  76 ; velocity: 127
@92101 Channel: 0 Note on, E5 key =  76 ; velocity: 0
@92101 Channel: 0 Note on, D5 key =  74 ; velocity: 127
@92161 Channel: 0 Note on, D5 key =  74 ; velocity: 0
@92161 Channel: 0 Note on, E5 key =  76 ; velocity: 127
@92221 Channel: 0 Note on, E5 key =  76 ; velocity: 0
@92221 Channel: 0 Note on, E5 key =  76 ; velocity: 127
@92281 Channel: 0 Note on, E5 key =  76 ; velocity: 0
@92281 Channel: 0 Note on, E5 key =  76 ; velocity: 127
@92341 Channel: 0 Note on, E5 key =  76 ; velocity: 0
@92341 Channel: 0 Note on, E5 key =  76 ; velocity: 127
@92401 Channel: 0 Note on, E5 key =  76 ; velocity: 0
@92761 Channel: 0 Note on, E5 key =  76 ; velocity: 127
@92821 Channel: 0 Note on, E5 key =  76 ; velocity: 0
@92821 Channel: 0 Note on, D5 key =  74 ; velocity: 127
@92881 Channel: 0 Note on, D5 key =  74 ; velocity: 0
@92881 Channel: 0 Note on, E5 key =  76 ; velocity: 127
@92941 Channel: 0 Note on, E5 key =  76 ; velocity: 0
@92941 Channel: 0 Note on, D5 key =  74 ; velocity: 127
@93001 Channel: 0 Note on, D5 key =  74 ; velocity: 0
@93001 Channel: 0 Note on, E5 key =  76 ; velocity: 127
@93061 Channel: 0 Note on, E5 key =  76 ; velocity: 0
@93061 Channel: 0 Note on, D5 key =  74 ; velocity: 127
@93121 Channel: 0 Note on, D5 key =  74 ; velocity: 0
@93121 Channel: 0 Note on, E5 key =  76 ; velocity: 127
@93181 Channel: 0 Note on, E5 key =  76 ; velocity: 0
@93181 Channel: 0 Note on, F#5 key =  78 ; velocity: 127
@93241 Channel: 0 Note on, F#5 key =  78 ; velocity: 0
@93241 Channel: 0 Note on, G5 key =  79 ; velocity: 127
@93301 Channel: 0 Note on, G5 key =  79 ; velocity: 0
@93301 Channel: 0 Note on, E5 key =  76 ; velocity: 127
@93361 Channel: 0 Note on, E5 key =  76 ; velocity: 0
@93361 Channel: 0 Note on, D5 key =  74 ; velocity: 127
@93481 Channel: 0 Note on, D5 key =  74 ; velocity: 0
@93481 Channel: 0 Note on, D5 key =  74 ; velocity: 127
@93541 Channel: 0 Note on, D5 key =  74 ; velocity: 0
@93541 Channel: 0 Note on, D5 key =  74 ; velocity: 127
@93601 Channel: 0 Note on, D5 key =  74 ; velocity: 0
@93601 Channel: 0 Note on, E5 key =  76 ; velocity: 127
@93661 Channel: 0 Note on, E5 key =  76 ; velocity: 0
@93661 Channel: 0 Note on, E5 key =  76 ; velocity: 127
@93781 Channel: 0 Note on, E5 key =  76 ; velocity: 0
@93781 Channel: 0 Note on, E5 key =  76 ; velocity: 127
@93841 Channel: 0 Note on, E5 key =  76 ; velocity: 0
@93901 Channel: 0 Note on, E5 key =  76 ; velocity: 127
@93961 Channel: 0 Note on, E5 key =  76 ; velocity: 0
@93961 Channel: 0 Note on, E5 key =  76 ; velocity: 127
@94021 Channel: 0 Note on, E5 key =  76 ; velocity: 0
@94021 Channel: 0 Note on, E5 key =  76 ; velocity: 127
@94081 Channel: 0 Note on, E5 key =  76 ; velocity: 0
@94081 Channel: 0 Note on, E5 key =  76 ; velocity: 127
@94141 Channel: 0 Note on, E5 key =  76 ; velocity: 0
@94141 Channel: 0 Note on, E5 key =  76 ; velocity: 127
@94201 Channel: 0 Note on, E5 key =  76 ; velocity: 0
@94201 Channel: 0 Note on, E5 key =  76 ; velocity: 127
@94261 Channel: 0 Note on, E5 key =  76 ; velocity: 0
@94261 Channel: 0 Note on, E5 key =  76 ; velocity: 127
@94381 Channel: 0 Note on, E5 key =  76 ; velocity: 0
@94561 Channel: 0 Note on, E5 key =  76 ; velocity: 127
@94621 Channel: 0 Note on, E5 key =  76 ; velocity: 0
@94621 Channel: 0 Note on, E5 key =  76 ; velocity: 127
@94681 Channel: 0 Note on, E5 key =  76 ; velocity: 0
@94801 Channel: 0 Note on, E5 key =  76 ; velocity: 127
@94861 Channel: 0 Note on, E5 key =  76 ; velocity: 0
@94861 Channel: 0 Note on, E5 key =  76 ; velocity: 127
@94921 Channel: 0 Note on, E5 key =  76 ; velocity: 0
@94921 Channel: 0 Note on, E5 key =  76 ; velocity: 127
@95041 Channel: 0 Note on, E5 key =  76 ; velocity: 0
@95041 Channel: 0 Note on, E5 key =  76 ; velocity: 127
@95101 Channel: 0 Note on, E5 key =  76 ; velocity: 0
@95101 Channel: 0 Note on, E5 key =  76 ; velocity: 127
@95161 Channel: 0 Note on, E5 key =  76 ; velocity: 0
@95281 Channel: 0 Note on, E5 key =  76 ; velocity: 127
@95341 Channel: 0 Note on, E5 key =  76 ; velocity: 0
@95341 Channel: 0 Note on, E5 key =  76 ; velocity: 127
@95401 Channel: 0 Note on, E5 key =  76 ; velocity: 0
@95401 Channel: 0 Note on, E5 key =  76 ; velocity: 127
@95521 Channel: 0 Note on, E5 key =  76 ; velocity: 0
@95521 Channel: 0 Note on, E5 key =  76 ; velocity: 127
@95581 Channel: 0 Note on, E5 key =  76 ; velocity: 0
@95581 Channel: 0 Note on, A4 key =  69 ; velocity: 127
@95641 Channel: 0 Note on, A4 key =  69 ; velocity: 0
@95701 Channel: 0 Note on, E5 key =  76 ; velocity: 127
@95761 Channel: 0 Note on, E5 key =  76 ; velocity: 0
@95761 Channel: 0 Note on, E5 key =  76 ; velocity: 127
@95821 Channel: 0 Note on, E5 key =  76 ; velocity: 0
@95821 Channel: 0 Note on, E5 key =  76 ; velocity: 127
@95881 Channel: 0 Note on, E5 key =  76 ; velocity: 0
@95881 Channel: 0 Note on, E5 key =  76 ; velocity: 127
@96001 Channel: 0 Note on, E5 key =  76 ; velocity: 0
@96481 Channel: 0 Note on, E5 key =  76 ; velocity: 127
@96541 Channel: 0 Note on, E5 key =  76 ; velocity: 0
@96541 Channel: 0 Note on, E5 key =  76 ; velocity: 127
@96601 Channel: 0 Note on, E5 key =  76 ; velocity: 0
@96721 Channel: 0 Note on, E5 key =  76 ; velocity: 127
@96781 Channel: 0 Note on, E5 key =  76 ; velocity: 0
@96781 Channel: 0 Note on, E5 key =  76 ; velocity: 127
@96841 Channel: 0 Note on, E5 key =  76 ; velocity: 0
@96841 Channel: 0 Note on, E5 key =  76 ; velocity: 127
@96961 Channel: 0 Note on, E5 key =  76 ; velocity: 0
@96961 Channel: 0 Note on, E5 key =  76 ; velocity: 127
@97021 Channel: 0 Note on, E5 key =  76 ; velocity: 0
@97021 Channel: 0 Note on, E5 key =  76 ; velocity: 127
@97081 Channel: 0 Note on, E5 key =  76 ; velocity: 0
@97201 Channel: 0 Note on, E5 key =  76 ; velocity: 127
@97261 Channel: 0 Note on, E5 key =  76 ; velocity: 0
@97261 Channel: 0 Note on, E5 key =  76 ; velocity: 127
@97321 Channel: 0 Note on, E5 key =  76 ; velocity: 0
@97321 Channel: 0 Note on, E5 key =  76 ; velocity: 127
@97441 Channel: 0 Note on, E5 key =  76 ; velocity: 0
@97441 Channel: 0 Note on, E5 key =  76 ; velocity: 127
@97501 Channel: 0 Note on, E5 key =  76 ; velocity: 0
@97501 Channel: 0 Note on, A4 key =  69 ; velocity: 127
@97561 Channel: 0 Note on, A4 key =  69 ; velocity: 0
@97621 Channel: 0 Note on, E5 key =  76 ; velocity: 127
@97681 Channel: 0 Note on, E5 key =  76 ; velocity: 0
@97681 Channel: 0 Note on, E5 key =  76 ; velocity: 127
@97741 Channel: 0 Note on, E5 key =  76 ; velocity: 0
@97741 Channel: 0 Note on, E5 key =  76 ; velocity: 127
@97801 Channel: 0 Note on, E5 key =  76 ; velocity: 0
@97801 Channel: 0 Note on, E5 key =  76 ; velocity: 127
@97921 Channel: 0 Note on, E5 key =  76 ; velocity: 0
@98881 Channel: 0 Note on, D5 key =  74 ; velocity: 127
@98941 Channel: 0 Note on, D5 key =  74 ; velocity: 0
@98941 Channel: 0 Note on, E5 key =  76 ; velocity: 127
@99481 Channel: 0 Note on, E5 key =  76 ; velocity: 0
@99601 Channel: 0 Note on, F5 key =  77 ; velocity: 127
@99681 Channel: 0 Note on, F5 key =  77 ; velocity: 0
@99681 Channel: 0 Note on, F5 key =  77 ; velocity: 127
@99761 Channel: 0 Note on, F5 key =  77 ; velocity: 0
@99761 Channel: 0 Note on, F5 key =  77 ; velocity: 127
@99841 Channel: 0 Note on, F5 key =  77 ; velocity: 0
@99841 Channel: 0 Note on, E5 key =  76 ; velocity: 127
@99961 Channel: 0 Note on, E5 key =  76 ; velocity: 0
@100801 Channel: 0 Note on, D5 key =  74 ; velocity: 127
@100861 Channel: 0 Note on, D5 key =  74 ; velocity: 0
@100861 Channel: 0 Note on, E5 key =  76 ; velocity: 127
@101401 Channel: 0 Note on, E5 key =  76 ; velocity: 0
@101521 Channel: 0 Note on, F5 key =  77 ; velocity: 127
@101601 Channel: 0 Note on, F5 key =  77 ; velocity: 0
@101601 Channel: 0 Note on, F5 key =  77 ; velocity: 127
@101681 Channel: 0 Note on, F5 key =  77 ; velocity: 0
@101681 Channel: 0 Note on, F5 key =  77 ; velocity: 127
@101761 Channel: 0 Note on, F5 key =  77 ; velocity: 0
@101761 Channel: 0 Note on, B5 key =  83 ; velocity: 127
@102001 Channel: 0 Note on, B5 key =  83 ; velocity: 0
@102721 Channel: 0 Note on, D5 key =  74 ; velocity: 127
@102781 Channel: 0 Note on, D5 key =  74 ; velocity: 0
@102781 Channel: 0 Note on, E5 key =  76 ; velocity: 127
@103321 Channel: 0 Note on, E5 key =  76 ; velocity: 0
@103441 Channel: 0 Note on, F5 key =  77 ; velocity: 127
@103521 Channel: 0 Note on, F5 key =  77 ; velocity: 0
@103521 Channel: 0 Note on, F5 key =  77 ; velocity: 127
@103601 Channel: 0 Note on, F5 key =  77 ; velocity: 0
@103601 Channel: 0 Note on, F5 key =  77 ; velocity: 127
@103681 Channel: 0 Note on, F5 key =  77 ; velocity: 0
@103681 Channel: 0 Note on, E5 key =  76 ; velocity: 127
@103801 Channel: 0 Note on, E5 key =  76 ; velocity: 0
@104641 Channel: 0 Note on, D5 key =  74 ; velocity: 127
@104701 Channel: 0 Note on, D5 key =  74 ; velocity: 0
@104701 Channel: 0 Note on, E5 key =  76 ; velocity: 127
@105241 Channel: 0 Note on, E5 key =  76 ; velocity: 0
@105361 Channel: 0 Note on, F5 key =  77 ; velocity: 127
@105441 Channel: 0 Note on, F5 key =  77 ; velocity: 0
@105441 Channel: 0 Note on, F5 key =  77 ; velocity: 127
@105521 Channel: 0 Note on, F5 key =  77 ; velocity: 0
@105521 Channel: 0 Note on, F5 key =  77 ; velocity: 127
@105601 Channel: 0 Note on, F5 key =  77 ; velocity: 0
@105601 Channel: 0 Note on, E5 key =  76 ; velocity: 127
@106141 Channel: 0 Note on, E5 key =  76 ; velocity: 0
@106141 Channel: 0 Note on, B4 key =  71 ; velocity: 75
@106201 Channel: 0 Note on, B4 key =  71 ; velocity: 0
@106201 Channel: 0 Note on, B4 key =  71 ; velocity: 75
@106261 Channel: 0 Note on, B4 key =  71 ; velocity: 0
@106261 Channel: 0 Note on, B4 key =  71 ; velocity: 75
@106321 Channel: 0 Note on, B4 key =  71 ; velocity: 0
@106321 Channel: 0 Note on, B4 key =  71 ; velocity: 75
@106441 Channel: 0 Note on, B4 key =  71 ; velocity: 0
@106441 Other Message: class javax.sound.midi.Track$ImmutableEndOfTrack

Track 3: size = 4221
@0 Other Message: class javax.sound.midi.MetaMessage

@0 Other Message: class javax.sound.midi.MetaMessage

@0 Channel: 1 Command: 192

@0 Channel: 1 Command: 176

@0 Channel: 1 Command: 176

@0 Channel: 1 Note on, A2 key =  45 ; velocity: 127
@60 Channel: 1 Note on, A2 key =  45 ; velocity: 0
@60 Channel: 1 Note on, A2 key =  45 ; velocity: 127
@120 Channel: 1 Note on, A2 key =  45 ; velocity: 0
@120 Channel: 1 Note on, D4 key =  62 ; velocity: 127
@150 Channel: 1 Note on, D4 key =  62 ; velocity: 0
@150 Channel: 1 Note on, D#4 key =  63 ; velocity: 127
@180 Channel: 1 Note on, D#4 key =  63 ; velocity: 0
@180 Channel: 1 Note on, D4 key =  62 ; velocity: 127
@300 Channel: 1 Note on, D4 key =  62 ; velocity: 0
@300 Channel: 1 Note on, A2 key =  45 ; velocity: 127
@360 Channel: 1 Note on, A2 key =  45 ; velocity: 0
@360 Channel: 1 Note on, A3 key =  57 ; velocity: 127
@390 Channel: 1 Note on, A3 key =  57 ; velocity: 0
@390 Channel: 1 Note on, A#3 key =  58 ; velocity: 127
@420 Channel: 1 Note on, A#3 key =  58 ; velocity: 0
@420 Channel: 1 Note on, A3 key =  57 ; velocity: 127
@540 Channel: 1 Note on, A3 key =  57 ; velocity: 0
@540 Channel: 1 Note on, A2 key =  45 ; velocity: 127
@600 Channel: 1 Note on, A2 key =  45 ; velocity: 0
@600 Channel: 1 Note on, F3 key =  53 ; velocity: 127
@660 Channel: 1 Note on, F3 key =  53 ; velocity: 0
@660 Channel: 1 Note on, E3 key =  52 ; velocity: 127
@720 Channel: 1 Note on, E3 key =  52 ; velocity: 0
@720 Channel: 1 Note on, G3 key =  55 ; velocity: 127
@780 Channel: 1 Note on, G3 key =  55 ; velocity: 0
@780 Channel: 1 Note on, E3 key =  52 ; velocity: 127
@840 Channel: 1 Note on, E3 key =  52 ; velocity: 0
@840 Channel: 1 Note on, C4 key =  60 ; velocity: 127
@900 Channel: 1 Note on, C4 key =  60 ; velocity: 0
@900 Channel: 1 Note on, A3 key =  57 ; velocity: 127
@960 Channel: 1 Note on, A3 key =  57 ; velocity: 0
@960 Channel: 1 Note on, A2 key =  45 ; velocity: 127
@1020 Channel: 1 Note on, A2 key =  45 ; velocity: 0
@1020 Channel: 1 Note on, A2 key =  45 ; velocity: 127
@1080 Channel: 1 Note on, A2 key =  45 ; velocity: 0
@1080 Channel: 1 Note on, D4 key =  62 ; velocity: 127
@1110 Channel: 1 Note on, D4 key =  62 ; velocity: 0
@1110 Channel: 1 Note on, D#4 key =  63 ; velocity: 127
@1140 Channel: 1 Note on, D#4 key =  63 ; velocity: 0
@1140 Channel: 1 Note on, D4 key =  62 ; velocity: 127
@1260 Channel: 1 Note on, D4 key =  62 ; velocity: 0
@1260 Channel: 1 Note on, A2 key =  45 ; velocity: 127
@1320 Channel: 1 Note on, A2 key =  45 ; velocity: 0
@1320 Channel: 1 Note on, A3 key =  57 ; velocity: 127
@1350 Channel: 1 Note on, A3 key =  57 ; velocity: 0
@1350 Channel: 1 Note on, A#3 key =  58 ; velocity: 127
@1380 Channel: 1 Note on, A#3 key =  58 ; velocity: 0
@1380 Channel: 1 Note on, A3 key =  57 ; velocity: 127
@1500 Channel: 1 Note on, A3 key =  57 ; velocity: 0
@1500 Channel: 1 Note on, A2 key =  45 ; velocity: 127
@1560 Channel: 1 Note on, A2 key =  45 ; velocity: 0
@1560 Channel: 1 Note on, F3 key =  53 ; velocity: 127
@1620 Channel: 1 Note on, F3 key =  53 ; velocity: 0
@1620 Channel: 1 Note on, E3 key =  52 ; velocity: 127
@1680 Channel: 1 Note on, E3 key =  52 ; velocity: 0
@1680 Channel: 1 Note on, G3 key =  55 ; velocity: 127
@1740 Channel: 1 Note on, G3 key =  55 ; velocity: 0
@1740 Channel: 1 Note on, E3 key =  52 ; velocity: 127
@1800 Channel: 1 Note on, E3 key =  52 ; velocity: 0
@1800 Channel: 1 Note on, C4 key =  60 ; velocity: 127
@1860 Channel: 1 Note on, C4 key =  60 ; velocity: 0
@1860 Channel: 1 Note on, A3 key =  57 ; velocity: 127
@1920 Channel: 1 Note on, A3 key =  57 ; velocity: 0
@1920 Channel: 1 Note on, A2 key =  45 ; velocity: 127
@1980 Channel: 1 Note on, A2 key =  45 ; velocity: 0
@1980 Channel: 1 Note on, A2 key =  45 ; velocity: 127
@2040 Channel: 1 Note on, A2 key =  45 ; velocity: 0
@2040 Channel: 1 Note on, D4 key =  62 ; velocity: 127
@2070 Channel: 1 Note on, D4 key =  62 ; velocity: 0
@2070 Channel: 1 Note on, D#4 key =  63 ; velocity: 127
@2100 Channel: 1 Note on, D#4 key =  63 ; velocity: 0
@2100 Channel: 1 Note on, D4 key =  62 ; velocity: 127
@2220 Channel: 1 Note on, D4 key =  62 ; velocity: 0
@2220 Channel: 1 Note on, A2 key =  45 ; velocity: 127
@2280 Channel: 1 Note on, A2 key =  45 ; velocity: 0
@2280 Channel: 1 Note on, A3 key =  57 ; velocity: 127
@2310 Channel: 1 Note on, A3 key =  57 ; velocity: 0
@2310 Channel: 1 Note on, A#3 key =  58 ; velocity: 127
@2340 Channel: 1 Note on, A#3 key =  58 ; velocity: 0
@2340 Channel: 1 Note on, A3 key =  57 ; velocity: 127
@2460 Channel: 1 Note on, A3 key =  57 ; velocity: 0
@2460 Channel: 1 Note on, A2 key =  45 ; velocity: 127
@2520 Channel: 1 Note on, A2 key =  45 ; velocity: 0
@2520 Channel: 1 Note on, F3 key =  53 ; velocity: 127
@2580 Channel: 1 Note on, F3 key =  53 ; velocity: 0
@2580 Channel: 1 Note on, E3 key =  52 ; velocity: 127
@2640 Channel: 1 Note on, E3 key =  52 ; velocity: 0
@2640 Channel: 1 Note on, G3 key =  55 ; velocity: 127
@2700 Channel: 1 Note on, G3 key =  55 ; velocity: 0
@2700 Channel: 1 Note on, E3 key =  52 ; velocity: 127
@2760 Channel: 1 Note on, E3 key =  52 ; velocity: 0
@2760 Channel: 1 Note on, C4 key =  60 ; velocity: 127
@2820 Channel: 1 Note on, C4 key =  60 ; velocity: 0
@2820 Channel: 1 Note on, A3 key =  57 ; velocity: 127
@2880 Channel: 1 Note on, A3 key =  57 ; velocity: 0
@2880 Channel: 1 Note on, A2 key =  45 ; velocity: 127
@2940 Channel: 1 Note on, A2 key =  45 ; velocity: 0
@2940 Channel: 1 Note on, A2 key =  45 ; velocity: 127
@3000 Channel: 1 Note on, A2 key =  45 ; velocity: 0
@3000 Channel: 1 Note on, D4 key =  62 ; velocity: 127
@3030 Channel: 1 Note on, D4 key =  62 ; velocity: 0
@3030 Channel: 1 Note on, D#4 key =  63 ; velocity: 127
@3060 Channel: 1 Note on, D#4 key =  63 ; velocity: 0
@3060 Channel: 1 Note on, D4 key =  62 ; velocity: 127
@3180 Channel: 1 Note on, D4 key =  62 ; velocity: 0
@3180 Channel: 1 Note on, A2 key =  45 ; velocity: 127
@3240 Channel: 1 Note on, A2 key =  45 ; velocity: 0
@3240 Channel: 1 Note on, A3 key =  57 ; velocity: 127
@3270 Channel: 1 Note on, A3 key =  57 ; velocity: 0
@3270 Channel: 1 Note on, A#3 key =  58 ; velocity: 127
@3300 Channel: 1 Note on, A#3 key =  58 ; velocity: 0
@3300 Channel: 1 Note on, A3 key =  57 ; velocity: 127
@3420 Channel: 1 Note on, A3 key =  57 ; velocity: 0
@3420 Channel: 1 Note on, A2 key =  45 ; velocity: 127
@3480 Channel: 1 Note on, A2 key =  45 ; velocity: 0
@3480 Channel: 1 Note on, F3 key =  53 ; velocity: 127
@3540 Channel: 1 Note on, F3 key =  53 ; velocity: 0
@3540 Channel: 1 Note on, E3 key =  52 ; velocity: 127
@3600 Channel: 1 Note on, E3 key =  52 ; velocity: 0
@3600 Channel: 1 Note on, G3 key =  55 ; velocity: 127
@3660 Channel: 1 Note on, G3 key =  55 ; velocity: 0
@3660 Channel: 1 Note on, E3 key =  52 ; velocity: 127
@3720 Channel: 1 Note on, E3 key =  52 ; velocity: 0
@3720 Channel: 1 Note on, C4 key =  60 ; velocity: 127
@3780 Channel: 1 Note on, C4 key =  60 ; velocity: 0
@3780 Channel: 1 Note on, A3 key =  57 ; velocity: 127
@3840 Channel: 1 Note on, A3 key =  57 ; velocity: 0
@3840 Channel: 1 Note on, A2 key =  45 ; velocity: 127
@3900 Channel: 1 Note on, A2 key =  45 ; velocity: 0
@3900 Channel: 1 Note on, A2 key =  45 ; velocity: 127
@3960 Channel: 1 Note on, A2 key =  45 ; velocity: 0
@3960 Channel: 1 Note on, D4 key =  62 ; velocity: 127
@3990 Channel: 1 Note on, D4 key =  62 ; velocity: 0
@3990 Channel: 1 Note on, D#4 key =  63 ; velocity: 127
@4020 Channel: 1 Note on, D#4 key =  63 ; velocity: 0
@4020 Channel: 1 Note on, D4 key =  62 ; velocity: 127
@4140 Channel: 1 Note on, D4 key =  62 ; velocity: 0
@4140 Channel: 1 Note on, A2 key =  45 ; velocity: 127
@4200 Channel: 1 Note on, A2 key =  45 ; velocity: 0
@4200 Channel: 1 Note on, A3 key =  57 ; velocity: 127
@4230 Channel: 1 Note on, A3 key =  57 ; velocity: 0
@4230 Channel: 1 Note on, A#3 key =  58 ; velocity: 127
@4260 Channel: 1 Note on, A#3 key =  58 ; velocity: 0
@4260 Channel: 1 Note on, A3 key =  57 ; velocity: 127
@4380 Channel: 1 Note on, A3 key =  57 ; velocity: 0
@4380 Channel: 1 Note on, A2 key =  45 ; velocity: 127
@4440 Channel: 1 Note on, A2 key =  45 ; velocity: 0
@4440 Channel: 1 Note on, F3 key =  53 ; velocity: 127
@4500 Channel: 1 Note on, F3 key =  53 ; velocity: 0
@4500 Channel: 1 Note on, E3 key =  52 ; velocity: 127
@4560 Channel: 1 Note on, E3 key =  52 ; velocity: 0
@4560 Channel: 1 Note on, G3 key =  55 ; velocity: 127
@4620 Channel: 1 Note on, G3 key =  55 ; velocity: 0
@4620 Channel: 1 Note on, E3 key =  52 ; velocity: 127
@4680 Channel: 1 Note on, E3 key =  52 ; velocity: 0
@4680 Channel: 1 Note on, C4 key =  60 ; velocity: 127
@4740 Channel: 1 Note on, C4 key =  60 ; velocity: 0
@4740 Channel: 1 Note on, A3 key =  57 ; velocity: 127
@4800 Channel: 1 Note on, A3 key =  57 ; velocity: 0
@4800 Channel: 1 Note on, A2 key =  45 ; velocity: 127
@4860 Channel: 1 Note on, A2 key =  45 ; velocity: 0
@4860 Channel: 1 Note on, A2 key =  45 ; velocity: 127
@4920 Channel: 1 Note on, A2 key =  45 ; velocity: 0
@4920 Channel: 1 Note on, D4 key =  62 ; velocity: 127
@4950 Channel: 1 Note on, D4 key =  62 ; velocity: 0
@4950 Channel: 1 Note on, D#4 key =  63 ; velocity: 127
@4980 Channel: 1 Note on, D#4 key =  63 ; velocity: 0
@4980 Channel: 1 Note on, D4 key =  62 ; velocity: 127
@5100 Channel: 1 Note on, D4 key =  62 ; velocity: 0
@5100 Channel: 1 Note on, A2 key =  45 ; velocity: 127
@5160 Channel: 1 Note on, A2 key =  45 ; velocity: 0
@5160 Channel: 1 Note on, A3 key =  57 ; velocity: 127
@5190 Channel: 1 Note on, A3 key =  57 ; velocity: 0
@5190 Channel: 1 Note on, A#3 key =  58 ; velocity: 127
@5220 Channel: 1 Note on, A#3 key =  58 ; velocity: 0
@5220 Channel: 1 Note on, A3 key =  57 ; velocity: 127
@5340 Channel: 1 Note on, A3 key =  57 ; velocity: 0
@5340 Channel: 1 Note on, A2 key =  45 ; velocity: 127
@5400 Channel: 1 Note on, A2 key =  45 ; velocity: 0
@5400 Channel: 1 Note on, F3 key =  53 ; velocity: 127
@5460 Channel: 1 Note on, F3 key =  53 ; velocity: 0
@5460 Channel: 1 Note on, E3 key =  52 ; velocity: 127
@5520 Channel: 1 Note on, E3 key =  52 ; velocity: 0
@5520 Channel: 1 Note on, G3 key =  55 ; velocity: 127
@5580 Channel: 1 Note on, G3 key =  55 ; velocity: 0
@5580 Channel: 1 Note on, E3 key =  52 ; velocity: 127
@5640 Channel: 1 Note on, E3 key =  52 ; velocity: 0
@5640 Channel: 1 Note on, C4 key =  60 ; velocity: 127
@5700 Channel: 1 Note on, C4 key =  60 ; velocity: 0
@5700 Channel: 1 Note on, A3 key =  57 ; velocity: 127
@5760 Channel: 1 Note on, A3 key =  57 ; velocity: 0
@5760 Channel: 1 Note on, A2 key =  45 ; velocity: 127
@5820 Channel: 1 Note on, A2 key =  45 ; velocity: 0
@5820 Channel: 1 Note on, A2 key =  45 ; velocity: 127
@5880 Channel: 1 Note on, A2 key =  45 ; velocity: 0
@5880 Channel: 1 Note on, D4 key =  62 ; velocity: 127
@5910 Channel: 1 Note on, D4 key =  62 ; velocity: 0
@5910 Channel: 1 Note on, D#4 key =  63 ; velocity: 127
@5940 Channel: 1 Note on, D#4 key =  63 ; velocity: 0
@5940 Channel: 1 Note on, D4 key =  62 ; velocity: 127
@6060 Channel: 1 Note on, D4 key =  62 ; velocity: 0
@6060 Channel: 1 Note on, A2 key =  45 ; velocity: 127
@6120 Channel: 1 Note on, A2 key =  45 ; velocity: 0
@6120 Channel: 1 Note on, A3 key =  57 ; velocity: 127
@6150 Channel: 1 Note on, A3 key =  57 ; velocity: 0
@6150 Channel: 1 Note on, A#3 key =  58 ; velocity: 127
@6180 Channel: 1 Note on, A#3 key =  58 ; velocity: 0
@6180 Channel: 1 Note on, A3 key =  57 ; velocity: 127
@6300 Channel: 1 Note on, A3 key =  57 ; velocity: 0
@6300 Channel: 1 Note on, A2 key =  45 ; velocity: 127
@6360 Channel: 1 Note on, A2 key =  45 ; velocity: 0
@6360 Channel: 1 Note on, F3 key =  53 ; velocity: 127
@6420 Channel: 1 Note on, F3 key =  53 ; velocity: 0
@6420 Channel: 1 Note on, E3 key =  52 ; velocity: 127
@6480 Channel: 1 Note on, E3 key =  52 ; velocity: 0
@6480 Channel: 1 Note on, G3 key =  55 ; velocity: 127
@6540 Channel: 1 Note on, G3 key =  55 ; velocity: 0
@6540 Channel: 1 Note on, E3 key =  52 ; velocity: 127
@6600 Channel: 1 Note on, E3 key =  52 ; velocity: 0
@6600 Channel: 1 Note on, C4 key =  60 ; velocity: 127
@6660 Channel: 1 Note on, C4 key =  60 ; velocity: 0
@6660 Channel: 1 Note on, A3 key =  57 ; velocity: 127
@6720 Channel: 1 Note on, A3 key =  57 ; velocity: 0
@6720 Channel: 1 Note on, A2 key =  45 ; velocity: 127
@6780 Channel: 1 Note on, A2 key =  45 ; velocity: 0
@6780 Channel: 1 Note on, A2 key =  45 ; velocity: 127
@6840 Channel: 1 Note on, A2 key =  45 ; velocity: 0
@6840 Channel: 1 Note on, D4 key =  62 ; velocity: 127
@6870 Channel: 1 Note on, D4 key =  62 ; velocity: 0
@6870 Channel: 1 Note on, D#4 key =  63 ; velocity: 127
@6900 Channel: 1 Note on, D#4 key =  63 ; velocity: 0
@6900 Channel: 1 Note on, D4 key =  62 ; velocity: 127
@7020 Channel: 1 Note on, D4 key =  62 ; velocity: 0
@7020 Channel: 1 Note on, A2 key =  45 ; velocity: 127
@7080 Channel: 1 Note on, A2 key =  45 ; velocity: 0
@7080 Channel: 1 Note on, A3 key =  57 ; velocity: 127
@7110 Channel: 1 Note on, A3 key =  57 ; velocity: 0
@7110 Channel: 1 Note on, A#3 key =  58 ; velocity: 127
@7140 Channel: 1 Note on, A#3 key =  58 ; velocity: 0
@7140 Channel: 1 Note on, A3 key =  57 ; velocity: 127
@7260 Channel: 1 Note on, A3 key =  57 ; velocity: 0
@7260 Channel: 1 Note on, A2 key =  45 ; velocity: 127
@7320 Channel: 1 Note on, A2 key =  45 ; velocity: 0
@7320 Channel: 1 Note on, F3 key =  53 ; velocity: 127
@7380 Channel: 1 Note on, F3 key =  53 ; velocity: 0
@7380 Channel: 1 Note on, E3 key =  52 ; velocity: 127
@7440 Channel: 1 Note on, E3 key =  52 ; velocity: 0
@7440 Channel: 1 Note on, G3 key =  55 ; velocity: 127
@7500 Channel: 1 Note on, G3 key =  55 ; velocity: 0
@7500 Channel: 1 Note on, E3 key =  52 ; velocity: 127
@7560 Channel: 1 Note on, E3 key =  52 ; velocity: 0
@7560 Channel: 1 Note on, C4 key =  60 ; velocity: 127
@7620 Channel: 1 Note on, C4 key =  60 ; velocity: 0
@7620 Channel: 1 Note on, A3 key =  57 ; velocity: 127
@7680 Channel: 1 Note on, A3 key =  57 ; velocity: 0
@7680 Channel: 1 Note on, E4 key =  64 ; velocity: 127
@7740 Channel: 1 Note on, E4 key =  64 ; velocity: 0
@7740 Channel: 1 Note on, D4 key =  62 ; velocity: 127
@7800 Channel: 1 Note on, D4 key =  62 ; velocity: 0
@7800 Channel: 1 Note on, B3 key =  59 ; velocity: 127
@7860 Channel: 1 Note on, B3 key =  59 ; velocity: 0
@7860 Channel: 1 Note on, D4 key =  62 ; velocity: 127
@7920 Channel: 1 Note on, D4 key =  62 ; velocity: 0
@7920 Channel: 1 Note on, B3 key =  59 ; velocity: 127
@7980 Channel: 1 Note on, B3 key =  59 ; velocity: 0
@7980 Channel: 1 Note on, A#3 key =  58 ; velocity: 127
@8040 Channel: 1 Note on, A#3 key =  58 ; velocity: 0
@8040 Channel: 1 Note on, A3 key =  57 ; velocity: 127
@8100 Channel: 1 Note on, A3 key =  57 ; velocity: 0
@8100 Channel: 1 Note on, G3 key =  55 ; velocity: 127
@8160 Channel: 1 Note on, G3 key =  55 ; velocity: 0
@8160 Channel: 1 Note on, E2 key =  40 ; velocity: 127
@8220 Channel: 1 Note on, E2 key =  40 ; velocity: 0
@8220 Channel: 1 Note on, E2 key =  40 ; velocity: 127
@8280 Channel: 1 Note on, E2 key =  40 ; velocity: 0
@8280 Channel: 1 Note on, E2 key =  40 ; velocity: 127
@8340 Channel: 1 Note on, E2 key =  40 ; velocity: 0
@8340 Channel: 1 Note on, E2 key =  40 ; velocity: 127
@8400 Channel: 1 Note on, E2 key =  40 ; velocity: 0
@8400 Channel: 1 Note on, G3 key =  55 ; velocity: 127
@8400 Channel: 1 Note on, D3 key =  50 ; velocity: 127
@8460 Channel: 1 Note on, G3 key =  55 ; velocity: 0
@8460 Channel: 1 Note on, D3 key =  50 ; velocity: 0
@8460 Channel: 1 Note on, E3 key =  52 ; velocity: 127
@8460 Channel: 1 Note on, A3 key =  57 ; velocity: 127
@8520 Channel: 1 Note on, E3 key =  52 ; velocity: 0
@8520 Channel: 1 Note on, A3 key =  57 ; velocity: 0
@8520 Channel: 1 Note on, D3 key =  50 ; velocity: 127
@8520 Channel: 1 Note on, G3 key =  55 ; velocity: 127
@8580 Channel: 1 Note on, D3 key =  50 ; velocity: 0
@8580 Channel: 1 Note on, G3 key =  55 ; velocity: 0
@8580 Channel: 1 Note on, A3 key =  57 ; velocity: 127
@8580 Channel: 1 Note on, E3 key =  52 ; velocity: 127
@8640 Channel: 1 Note on, A3 key =  57 ; velocity: 0
@8640 Channel: 1 Note on, E3 key =  52 ; velocity: 0
@8640 Channel: 1 Note on, E2 key =  40 ; velocity: 127
@8700 Channel: 1 Note on, E2 key =  40 ; velocity: 0
@8700 Channel: 1 Note on, E2 key =  40 ; velocity: 127
@8760 Channel: 1 Note on, E2 key =  40 ; velocity: 0
@8760 Channel: 1 Note on, E2 key =  40 ; velocity: 127
@8820 Channel: 1 Note on, E2 key =  40 ; velocity: 0
@8820 Channel: 1 Note on, E2 key =  40 ; velocity: 127
@8880 Channel: 1 Note on, E2 key =  40 ; velocity: 0
@8880 Channel: 1 Note on, E3 key =  52 ; velocity: 127
@8940 Channel: 1 Note on, E3 key =  52 ; velocity: 0
@8940 Channel: 1 Note on, D3 key =  50 ; velocity: 127
@9000 Channel: 1 Note on, D3 key =  50 ; velocity: 0
@9000 Channel: 1 Note on, B2 key =  47 ; velocity: 127
@9060 Channel: 1 Note on, B2 key =  47 ; velocity: 0
@9060 Channel: 1 Note on, A#2 key =  46 ; velocity: 127
@9120 Channel: 1 Note on, A#2 key =  46 ; velocity: 0
@9120 Channel: 1 Note on, E2 key =  40 ; velocity: 127
@9180 Channel: 1 Note on, E2 key =  40 ; velocity: 0
@9180 Channel: 1 Note on, E2 key =  40 ; velocity: 127
@9240 Channel: 1 Note on, E2 key =  40 ; velocity: 0
@9240 Channel: 1 Note on, E2 key =  40 ; velocity: 127
@9300 Channel: 1 Note on, E2 key =  40 ; velocity: 0
@9300 Channel: 1 Note on, E2 key =  40 ; velocity: 127
@9360 Channel: 1 Note on, E2 key =  40 ; velocity: 0
@9360 Channel: 1 Note on, G3 key =  55 ; velocity: 127
@9360 Channel: 1 Note on, D3 key =  50 ; velocity: 127
@9420 Channel: 1 Note on, G3 key =  55 ; velocity: 0
@9420 Channel: 1 Note on, D3 key =  50 ; velocity: 0
@9420 Channel: 1 Note on, E3 key =  52 ; velocity: 127
@9420 Channel: 1 Note on, A3 key =  57 ; velocity: 127
@9480 Channel: 1 Note on, E3 key =  52 ; velocity: 0
@9480 Channel: 1 Note on, A3 key =  57 ; velocity: 0
@9480 Channel: 1 Note on, D3 key =  50 ; velocity: 127
@9480 Channel: 1 Note on, G3 key =  55 ; velocity: 127
@9540 Channel: 1 Note on, D3 key =  50 ; velocity: 0
@9540 Channel: 1 Note on, G3 key =  55 ; velocity: 0
@9540 Channel: 1 Note on, A3 key =  57 ; velocity: 127
@9540 Channel: 1 Note on, E3 key =  52 ; velocity: 127
@9600 Channel: 1 Note on, A3 key =  57 ; velocity: 0
@9600 Channel: 1 Note on, E3 key =  52 ; velocity: 0
@9600 Channel: 1 Note on, E2 key =  40 ; velocity: 127
@9660 Channel: 1 Note on, E2 key =  40 ; velocity: 0
@9660 Channel: 1 Note on, E2 key =  40 ; velocity: 127
@9720 Channel: 1 Note on, E2 key =  40 ; velocity: 0
@9720 Channel: 1 Note on, E2 key =  40 ; velocity: 127
@9780 Channel: 1 Note on, E2 key =  40 ; velocity: 0
@9780 Channel: 1 Note on, E2 key =  40 ; velocity: 127
@9840 Channel: 1 Note on, E2 key =  40 ; velocity: 0
@9840 Channel: 1 Note on, E3 key =  52 ; velocity: 127
@9900 Channel: 1 Note on, E3 key =  52 ; velocity: 0
@9900 Channel: 1 Note on, D3 key =  50 ; velocity: 127
@9960 Channel: 1 Note on, D3 key =  50 ; velocity: 0
@9960 Channel: 1 Note on, B2 key =  47 ; velocity: 127
@10020 Channel: 1 Note on, B2 key =  47 ; velocity: 0
@10020 Channel: 1 Note on, A#2 key =  46 ; velocity: 127
@10080 Channel: 1 Note on, A#2 key =  46 ; velocity: 0
@10080 Channel: 1 Note on, E2 key =  40 ; velocity: 127
@10140 Channel: 1 Note on, E2 key =  40 ; velocity: 0
@10140 Channel: 1 Note on, E2 key =  40 ; velocity: 127
@10200 Channel: 1 Note on, E2 key =  40 ; velocity: 0
@10200 Channel: 1 Note on, E2 key =  40 ; velocity: 127
@10260 Channel: 1 Note on, E2 key =  40 ; velocity: 0
@10260 Channel: 1 Note on, E2 key =  40 ; velocity: 127
@10320 Channel: 1 Note on, E2 key =  40 ; velocity: 0
@10320 Channel: 1 Note on, G3 key =  55 ; velocity: 127
@10320 Channel: 1 Note on, D3 key =  50 ; velocity: 127
@10380 Channel: 1 Note on, G3 key =  55 ; velocity: 0
@10380 Channel: 1 Note on, D3 key =  50 ; velocity: 0
@10380 Channel: 1 Note on, E3 key =  52 ; velocity: 127
@10380 Channel: 1 Note on, A3 key =  57 ; velocity: 127
@10440 Channel: 1 Note on, E3 key =  52 ; velocity: 0
@10440 Channel: 1 Note on, A3 key =  57 ; velocity: 0
@10440 Channel: 1 Note on, D3 key =  50 ; velocity: 127
@10440 Channel: 1 Note on, G3 key =  55 ; velocity: 127
@10500 Channel: 1 Note on, D3 key =  50 ; velocity: 0
@10500 Channel: 1 Note on, G3 key =  55 ; velocity: 0
@10500 Channel: 1 Note on, E3 key =  52 ; velocity: 127
@10500 Channel: 1 Note on, A3 key =  57 ; velocity: 127
@10560 Channel: 1 Note on, E3 key =  52 ; velocity: 0
@10560 Channel: 1 Note on, A3 key =  57 ; velocity: 0
@10560 Channel: 1 Note on, E2 key =  40 ; velocity: 127
@10620 Channel: 1 Note on, E2 key =  40 ; velocity: 0
@10620 Channel: 1 Note on, E2 key =  40 ; velocity: 127
@10680 Channel: 1 Note on, E2 key =  40 ; velocity: 0
@10680 Channel: 1 Note on, E2 key =  40 ; velocity: 127
@10740 Channel: 1 Note on, E2 key =  40 ; velocity: 0
@10740 Channel: 1 Note on, E2 key =  40 ; velocity: 127
@10800 Channel: 1 Note on, E2 key =  40 ; velocity: 0
@10800 Channel: 1 Note on, E3 key =  52 ; velocity: 127
@10860 Channel: 1 Note on, E3 key =  52 ; velocity: 0
@10860 Channel: 1 Note on, D3 key =  50 ; velocity: 127
@10920 Channel: 1 Note on, D3 key =  50 ; velocity: 0
@10920 Channel: 1 Note on, B2 key =  47 ; velocity: 127
@10980 Channel: 1 Note on, B2 key =  47 ; velocity: 0
@10980 Channel: 1 Note on, A#2 key =  46 ; velocity: 127
@11040 Channel: 1 Note on, A#2 key =  46 ; velocity: 0
@11040 Channel: 1 Note on, E2 key =  40 ; velocity: 127
@11100 Channel: 1 Note on, E2 key =  40 ; velocity: 0
@11100 Channel: 1 Note on, E2 key =  40 ; velocity: 127
@11160 Channel: 1 Note on, E2 key =  40 ; velocity: 0
@11160 Channel: 1 Note on, E2 key =  40 ; velocity: 127
@11220 Channel: 1 Note on, E2 key =  40 ; velocity: 0
@11220 Channel: 1 Note on, E2 key =  40 ; velocity: 127
@11280 Channel: 1 Note on, E2 key =  40 ; velocity: 0
@11280 Channel: 1 Note on, G3 key =  55 ; velocity: 127
@11280 Channel: 1 Note on, D3 key =  50 ; velocity: 127
@11340 Channel: 1 Note on, G3 key =  55 ; velocity: 0
@11340 Channel: 1 Note on, D3 key =  50 ; velocity: 0
@11340 Channel: 1 Note on, E3 key =  52 ; velocity: 127
@11340 Channel: 1 Note on, A3 key =  57 ; velocity: 127
@11400 Channel: 1 Note on, E3 key =  52 ; velocity: 0
@11400 Channel: 1 Note on, A3 key =  57 ; velocity: 0
@11400 Channel: 1 Note on, D3 key =  50 ; velocity: 127
@11400 Channel: 1 Note on, G3 key =  55 ; velocity: 127
@11460 Channel: 1 Note on, D3 key =  50 ; velocity: 0
@11460 Channel: 1 Note on, G3 key =  55 ; velocity: 0
@11460 Channel: 1 Note on, A3 key =  57 ; velocity: 127
@11460 Channel: 1 Note on, E3 key =  52 ; velocity: 127
@11520 Channel: 1 Note on, A3 key =  57 ; velocity: 0
@11520 Channel: 1 Note on, E3 key =  52 ; velocity: 0
@11520 Channel: 1 Note on, E2 key =  40 ; velocity: 127
@11580 Channel: 1 Note on, E2 key =  40 ; velocity: 0
@11580 Channel: 1 Note on, E2 key =  40 ; velocity: 127
@11640 Channel: 1 Note on, E2 key =  40 ; velocity: 0
@11640 Channel: 1 Note on, E2 key =  40 ; velocity: 127
@11700 Channel: 1 Note on, E2 key =  40 ; velocity: 0
@11700 Channel: 1 Note on, E2 key =  40 ; velocity: 127
@11760 Channel: 1 Note on, E2 key =  40 ; velocity: 0
@11760 Channel: 1 Note on, E3 key =  52 ; velocity: 127
@11820 Channel: 1 Note on, E3 key =  52 ; velocity: 0
@11820 Channel: 1 Note on, D3 key =  50 ; velocity: 127
@11880 Channel: 1 Note on, D3 key =  50 ; velocity: 0
@11880 Channel: 1 Note on, B2 key =  47 ; velocity: 127
@11940 Channel: 1 Note on, B2 key =  47 ; velocity: 0
@11940 Channel: 1 Note on, A#2 key =  46 ; velocity: 127
@12000 Channel: 1 Note on, A#2 key =  46 ; velocity: 0
@12000 Channel: 1 Note on, E2 key =  40 ; velocity: 127
@12060 Channel: 1 Note on, E2 key =  40 ; velocity: 0
@12060 Channel: 1 Note on, E2 key =  40 ; velocity: 127
@12120 Channel: 1 Note on, E2 key =  40 ; velocity: 0
@12120 Channel: 1 Note on, E2 key =  40 ; velocity: 127
@12180 Channel: 1 Note on, E2 key =  40 ; velocity: 0
@12180 Channel: 1 Note on, E2 key =  40 ; velocity: 127
@12240 Channel: 1 Note on, E2 key =  40 ; velocity: 0
@12240 Channel: 1 Note on, G3 key =  55 ; velocity: 127
@12240 Channel: 1 Note on, D3 key =  50 ; velocity: 127
@12300 Channel: 1 Note on, G3 key =  55 ; velocity: 0
@12300 Channel: 1 Note on, D3 key =  50 ; velocity: 0
@12300 Channel: 1 Note on, E3 key =  52 ; velocity: 127
@12300 Channel: 1 Note on, A3 key =  57 ; velocity: 127
@12360 Channel: 1 Note on, E3 key =  52 ; velocity: 0
@12360 Channel: 1 Note on, A3 key =  57 ; velocity: 0
@12360 Channel: 1 Note on, D3 key =  50 ; velocity: 127
@12360 Channel: 1 Note on, G3 key =  55 ; velocity: 127
@12420 Channel: 1 Note on, D3 key =  50 ; velocity: 0
@12420 Channel: 1 Note on, G3 key =  55 ; velocity: 0
@12420 Channel: 1 Note on, A3 key =  57 ; velocity: 127
@12420 Channel: 1 Note on, E3 key =  52 ; velocity: 127
@12480 Channel: 1 Note on, A3 key =  57 ; velocity: 0
@12480 Channel: 1 Note on, E3 key =  52 ; velocity: 0
@12480 Channel: 1 Note on, E2 key =  40 ; velocity: 127
@12540 Channel: 1 Note on, E2 key =  40 ; velocity: 0
@12540 Channel: 1 Note on, E2 key =  40 ; velocity: 127
@12600 Channel: 1 Note on, E2 key =  40 ; velocity: 0
@12600 Channel: 1 Note on, E2 key =  40 ; velocity: 127
@12660 Channel: 1 Note on, E2 key =  40 ; velocity: 0
@12660 Channel: 1 Note on, E2 key =  40 ; velocity: 127
@12720 Channel: 1 Note on, E2 key =  40 ; velocity: 0
@12720 Channel: 1 Note on, E3 key =  52 ; velocity: 127
@12780 Channel: 1 Note on, E3 key =  52 ; velocity: 0
@12780 Channel: 1 Note on, D3 key =  50 ; velocity: 127
@12840 Channel: 1 Note on, D3 key =  50 ; velocity: 0
@12840 Channel: 1 Note on, B2 key =  47 ; velocity: 127
@12900 Channel: 1 Note on, B2 key =  47 ; velocity: 0
@12900 Channel: 1 Note on, A#2 key =  46 ; velocity: 127
@12960 Channel: 1 Note on, A#2 key =  46 ; velocity: 0
@12960 Channel: 1 Note on, E2 key =  40 ; velocity: 127
@13020 Channel: 1 Note on, E2 key =  40 ; velocity: 0
@13020 Channel: 1 Note on, E2 key =  40 ; velocity: 127
@13080 Channel: 1 Note on, E2 key =  40 ; velocity: 0
@13080 Channel: 1 Note on, E2 key =  40 ; velocity: 127
@13140 Channel: 1 Note on, E2 key =  40 ; velocity: 0
@13140 Channel: 1 Note on, E2 key =  40 ; velocity: 127
@13200 Channel: 1 Note on, E2 key =  40 ; velocity: 0
@13200 Channel: 1 Note on, G3 key =  55 ; velocity: 127
@13200 Channel: 1 Note on, D3 key =  50 ; velocity: 127
@13260 Channel: 1 Note on, G3 key =  55 ; velocity: 0
@13260 Channel: 1 Note on, D3 key =  50 ; velocity: 0
@13260 Channel: 1 Note on, E3 key =  52 ; velocity: 127
@13260 Channel: 1 Note on, A3 key =  57 ; velocity: 127
@13320 Channel: 1 Note on, E3 key =  52 ; velocity: 0
@13320 Channel: 1 Note on, A3 key =  57 ; velocity: 0
@13320 Channel: 1 Note on, D3 key =  50 ; velocity: 127
@13320 Channel: 1 Note on, G3 key =  55 ; velocity: 127
@13380 Channel: 1 Note on, D3 key =  50 ; velocity: 0
@13380 Channel: 1 Note on, G3 key =  55 ; velocity: 0
@13380 Channel: 1 Note on, A3 key =  57 ; velocity: 127
@13380 Channel: 1 Note on, E3 key =  52 ; velocity: 127
@13440 Channel: 1 Note on, A3 key =  57 ; velocity: 0
@13440 Channel: 1 Note on, E3 key =  52 ; velocity: 0
@13440 Channel: 1 Note on, E2 key =  40 ; velocity: 127
@13500 Channel: 1 Note on, E2 key =  40 ; velocity: 0
@13500 Channel: 1 Note on, E2 key =  40 ; velocity: 127
@13560 Channel: 1 Note on, E2 key =  40 ; velocity: 0
@13560 Channel: 1 Note on, E2 key =  40 ; velocity: 127
@13620 Channel: 1 Note on, E2 key =  40 ; velocity: 0
@13620 Channel: 1 Note on, E2 key =  40 ; velocity: 127
@13680 Channel: 1 Note on, E2 key =  40 ; velocity: 0
@13680 Channel: 1 Note on, E3 key =  52 ; velocity: 127
@13740 Channel: 1 Note on, E3 key =  52 ; velocity: 0
@13740 Channel: 1 Note on, D3 key =  50 ; velocity: 127
@13800 Channel: 1 Note on, D3 key =  50 ; velocity: 0
@13800 Channel: 1 Note on, B2 key =  47 ; velocity: 127
@13860 Channel: 1 Note on, B2 key =  47 ; velocity: 0
@13860 Channel: 1 Note on, A#2 key =  46 ; velocity: 127
@13920 Channel: 1 Note on, A#2 key =  46 ; velocity: 0
@13920 Channel: 1 Note on, E2 key =  40 ; velocity: 127
@13980 Channel: 1 Note on, E2 key =  40 ; velocity: 0
@13980 Channel: 1 Note on, E2 key =  40 ; velocity: 127
@14040 Channel: 1 Note on, E2 key =  40 ; velocity: 0
@14040 Channel: 1 Note on, E2 key =  40 ; velocity: 127
@14100 Channel: 1 Note on, E2 key =  40 ; velocity: 0
@14100 Channel: 1 Note on, E2 key =  40 ; velocity: 127
@14160 Channel: 1 Note on, E2 key =  40 ; velocity: 0
@14160 Channel: 1 Note on, G3 key =  55 ; velocity: 127
@14160 Channel: 1 Note on, D3 key =  50 ; velocity: 127
@14220 Channel: 1 Note on, G3 key =  55 ; velocity: 0
@14220 Channel: 1 Note on, D3 key =  50 ; velocity: 0
@14220 Channel: 1 Note on, E3 key =  52 ; velocity: 127
@14220 Channel: 1 Note on, A3 key =  57 ; velocity: 127
@14280 Channel: 1 Note on, E3 key =  52 ; velocity: 0
@14280 Channel: 1 Note on, A3 key =  57 ; velocity: 0
@14280 Channel: 1 Note on, D3 key =  50 ; velocity: 127
@14280 Channel: 1 Note on, G3 key =  55 ; velocity: 127
@14340 Channel: 1 Note on, D3 key =  50 ; velocity: 0
@14340 Channel: 1 Note on, G3 key =  55 ; velocity: 0
@14340 Channel: 1 Note on, A3 key =  57 ; velocity: 127
@14340 Channel: 1 Note on, E3 key =  52 ; velocity: 127
@14400 Channel: 1 Note on, A3 key =  57 ; velocity: 0
@14400 Channel: 1 Note on, E3 key =  52 ; velocity: 0
@14400 Channel: 1 Note on, E2 key =  40 ; velocity: 127
@14460 Channel: 1 Note on, E2 key =  40 ; velocity: 0
@14460 Channel: 1 Note on, E2 key =  40 ; velocity: 127
@14520 Channel: 1 Note on, E2 key =  40 ; velocity: 0
@14520 Channel: 1 Note on, E2 key =  40 ; velocity: 127
@14580 Channel: 1 Note on, E2 key =  40 ; velocity: 0
@14580 Channel: 1 Note on, E2 key =  40 ; velocity: 127
@14640 Channel: 1 Note on, E2 key =  40 ; velocity: 0
@14640 Channel: 1 Note on, E3 key =  52 ; velocity: 127
@14700 Channel: 1 Note on, E3 key =  52 ; velocity: 0
@14700 Channel: 1 Note on, D3 key =  50 ; velocity: 127
@14760 Channel: 1 Note on, D3 key =  50 ; velocity: 0
@14760 Channel: 1 Note on, B2 key =  47 ; velocity: 127
@14820 Channel: 1 Note on, B2 key =  47 ; velocity: 0
@14820 Channel: 1 Note on, A#2 key =  46 ; velocity: 127
@14880 Channel: 1 Note on, A#2 key =  46 ; velocity: 0
@14880 Channel: 1 Note on, E2 key =  40 ; velocity: 127
@14940 Channel: 1 Note on, E2 key =  40 ; velocity: 0
@14940 Channel: 1 Note on, E2 key =  40 ; velocity: 127
@15000 Channel: 1 Note on, E2 key =  40 ; velocity: 0
@15000 Channel: 1 Note on, E2 key =  40 ; velocity: 127
@15060 Channel: 1 Note on, E2 key =  40 ; velocity: 0
@15060 Channel: 1 Note on, E2 key =  40 ; velocity: 127
@15120 Channel: 1 Note on, E2 key =  40 ; velocity: 0
@15120 Channel: 1 Note on, G3 key =  55 ; velocity: 127
@15120 Channel: 1 Note on, D3 key =  50 ; velocity: 127
@15180 Channel: 1 Note on, G3 key =  55 ; velocity: 0
@15180 Channel: 1 Note on, D3 key =  50 ; velocity: 0
@15180 Channel: 1 Note on, E3 key =  52 ; velocity: 127
@15180 Channel: 1 Note on, A3 key =  57 ; velocity: 127
@15240 Channel: 1 Note on, E3 key =  52 ; velocity: 0
@15240 Channel: 1 Note on, A3 key =  57 ; velocity: 0
@15240 Channel: 1 Note on, D3 key =  50 ; velocity: 127
@15240 Channel: 1 Note on, G3 key =  55 ; velocity: 127
@15300 Channel: 1 Note on, D3 key =  50 ; velocity: 0
@15300 Channel: 1 Note on, G3 key =  55 ; velocity: 0
@15300 Channel: 1 Note on, A3 key =  57 ; velocity: 127
@15300 Channel: 1 Note on, E3 key =  52 ; velocity: 127
@15360 Channel: 1 Note on, A3 key =  57 ; velocity: 0
@15360 Channel: 1 Note on, E3 key =  52 ; velocity: 0
@15360 Channel: 1 Note on, E2 key =  40 ; velocity: 127
@15420 Channel: 1 Note on, E2 key =  40 ; velocity: 0
@15420 Channel: 1 Note on, E2 key =  40 ; velocity: 127
@15480 Channel: 1 Note on, E2 key =  40 ; velocity: 0
@15480 Channel: 1 Note on, E2 key =  40 ; velocity: 127
@15540 Channel: 1 Note on, E2 key =  40 ; velocity: 0
@15540 Channel: 1 Note on, E2 key =  40 ; velocity: 127
@15600 Channel: 1 Note on, E2 key =  40 ; velocity: 0
@15600 Channel: 1 Note on, E3 key =  52 ; velocity: 127
@15660 Channel: 1 Note on, E3 key =  52 ; velocity: 0
@15660 Channel: 1 Note on, D3 key =  50 ; velocity: 127
@15720 Channel: 1 Note on, D3 key =  50 ; velocity: 0
@15720 Channel: 1 Note on, B2 key =  47 ; velocity: 127
@15780 Channel: 1 Note on, B2 key =  47 ; velocity: 0
@15780 Channel: 1 Note on, A#2 key =  46 ; velocity: 127
@15840 Channel: 1 Note on, A#2 key =  46 ; velocity: 0
@15840 Channel: 1 Note on, E2 key =  40 ; velocity: 127
@15900 Channel: 1 Note on, E2 key =  40 ; velocity: 0
@15900 Channel: 1 Note on, E2 key =  40 ; velocity: 127
@15960 Channel: 1 Note on, E2 key =  40 ; velocity: 0
@15960 Channel: 1 Note on, E2 key =  40 ; velocity: 127
@16020 Channel: 1 Note on, E2 key =  40 ; velocity: 0
@16020 Channel: 1 Note on, E2 key =  40 ; velocity: 127
@16080 Channel: 1 Note on, E2 key =  40 ; velocity: 0
@16080 Channel: 1 Note on, E2 key =  40 ; velocity: 127
@16140 Channel: 1 Note on, E2 key =  40 ; velocity: 0
@16140 Channel: 1 Note on, E2 key =  40 ; velocity: 127
@16200 Channel: 1 Note on, E2 key =  40 ; velocity: 0
@16200 Channel: 1 Note on, E2 key =  40 ; velocity: 127
@16260 Channel: 1 Note on, E2 key =  40 ; velocity: 0
@16260 Channel: 1 Note on, E2 key =  40 ; velocity: 127
@16320 Channel: 1 Note on, E2 key =  40 ; velocity: 0
@16320 Channel: 1 Note on, E2 key =  40 ; velocity: 127
@16380 Channel: 1 Note on, E2 key =  40 ; velocity: 0
@16380 Channel: 1 Note on, E2 key =  40 ; velocity: 127
@16440 Channel: 1 Note on, E2 key =  40 ; velocity: 0
@16440 Channel: 1 Note on, E2 key =  40 ; velocity: 127
@16500 Channel: 1 Note on, E2 key =  40 ; velocity: 0
@16500 Channel: 1 Note on, E2 key =  40 ; velocity: 127
@16560 Channel: 1 Note on, E2 key =  40 ; velocity: 0
@16560 Channel: 1 Note on, B2 key =  47 ; velocity: 127
@16620 Channel: 1 Note on, B2 key =  47 ; velocity: 0
@16620 Channel: 1 Note on, A#2 key =  46 ; velocity: 127
@16680 Channel: 1 Note on, A#2 key =  46 ; velocity: 0
@16680 Channel: 1 Note on, G3 key =  55 ; velocity: 127
@16740 Channel: 1 Note on, G3 key =  55 ; velocity: 0
@16740 Channel: 1 Note on, E3 key =  52 ; velocity: 127
@16800 Channel: 1 Note on, E3 key =  52 ; velocity: 0
@16800 Channel: 1 Note on, E2 key =  40 ; velocity: 127
@16860 Channel: 1 Note on, E2 key =  40 ; velocity: 0
@16860 Channel: 1 Note on, E2 key =  40 ; velocity: 127
@16920 Channel: 1 Note on, E2 key =  40 ; velocity: 0
@16920 Channel: 1 Note on, E2 key =  40 ; velocity: 127
@16980 Channel: 1 Note on, E2 key =  40 ; velocity: 0
@16980 Channel: 1 Note on, E2 key =  40 ; velocity: 127
@17040 Channel: 1 Note on, E2 key =  40 ; velocity: 0
@17040 Channel: 1 Note on, E2 key =  40 ; velocity: 127
@17100 Channel: 1 Note on, E2 key =  40 ; velocity: 0
@17100 Channel: 1 Note on, E2 key =  40 ; velocity: 127
@17160 Channel: 1 Note on, E2 key =  40 ; velocity: 0
@17160 Channel: 1 Note on, E2 key =  40 ; velocity: 127
@17220 Channel: 1 Note on, E2 key =  40 ; velocity: 0
@17220 Channel: 1 Note on, E2 key =  40 ; velocity: 127
@17280 Channel: 1 Note on, E2 key =  40 ; velocity: 0
@17280 Channel: 1 Note on, E2 key =  40 ; velocity: 127
@17340 Channel: 1 Note on, E2 key =  40 ; velocity: 0
@17340 Channel: 1 Note on, E2 key =  40 ; velocity: 127
@17400 Channel: 1 Note on, E2 key =  40 ; velocity: 0
@17400 Channel: 1 Note on, E2 key =  40 ; velocity: 127
@17460 Channel: 1 Note on, E2 key =  40 ; velocity: 0
@17460 Channel: 1 Note on, E2 key =  40 ; velocity: 127
@17520 Channel: 1 Note on, E2 key =  40 ; velocity: 0
@17520 Channel: 1 Note on, B2 key =  47 ; velocity: 127
@17580 Channel: 1 Note on, B2 key =  47 ; velocity: 0
@17580 Channel: 1 Note on, A#2 key =  46 ; velocity: 127
@17640 Channel: 1 Note on, A#2 key =  46 ; velocity: 0
@17640 Channel: 1 Note on, G3 key =  55 ; velocity: 127
@17700 Channel: 1 Note on, G3 key =  55 ; velocity: 0
@17700 Channel: 1 Note on, E3 key =  52 ; velocity: 127
@17760 Channel: 1 Note on, E3 key =  52 ; velocity: 0
@17760 Channel: 1 Note on, E2 key =  40 ; velocity: 127
@17820 Channel: 1 Note on, E2 key =  40 ; velocity: 0
@17820 Channel: 1 Note on, E2 key =  40 ; velocity: 127
@17880 Channel: 1 Note on, E2 key =  40 ; velocity: 0
@17880 Channel: 1 Note on, E2 key =  40 ; velocity: 127
@17940 Channel: 1 Note on, E2 key =  40 ; velocity: 0
@17940 Channel: 1 Note on, E2 key =  40 ; velocity: 127
@18000 Channel: 1 Note on, E2 key =  40 ; velocity: 0
@18000 Channel: 1 Note on, E2 key =  40 ; velocity: 127
@18060 Channel: 1 Note on, E2 key =  40 ; velocity: 0
@18060 Channel: 1 Note on, E2 key =  40 ; velocity: 127
@18120 Channel: 1 Note on, E2 key =  40 ; velocity: 0
@18120 Channel: 1 Note on, E2 key =  40 ; velocity: 127
@18180 Channel: 1 Note on, E2 key =  40 ; velocity: 0
@18180 Channel: 1 Note on, E2 key =  40 ; velocity: 127
@18240 Channel: 1 Note on, E2 key =  40 ; velocity: 0
@18240 Channel: 1 Note on, E2 key =  40 ; velocity: 127
@18300 Channel: 1 Note on, E2 key =  40 ; velocity: 0
@18300 Channel: 1 Note on, E2 key =  40 ; velocity: 127
@18360 Channel: 1 Note on, E2 key =  40 ; velocity: 0
@18360 Channel: 1 Note on, E2 key =  40 ; velocity: 127
@18420 Channel: 1 Note on, E2 key =  40 ; velocity: 0
@18420 Channel: 1 Note on, E2 key =  40 ; velocity: 127
@18480 Channel: 1 Note on, E2 key =  40 ; velocity: 0
@18480 Channel: 1 Note on, B2 key =  47 ; velocity: 127
@18540 Channel: 1 Note on, B2 key =  47 ; velocity: 0
@18540 Channel: 1 Note on, A#2 key =  46 ; velocity: 127
@18600 Channel: 1 Note on, A#2 key =  46 ; velocity: 0
@18600 Channel: 1 Note on, G3 key =  55 ; velocity: 127
@18660 Channel: 1 Note on, G3 key =  55 ; velocity: 0
@18660 Channel: 1 Note on, E3 key =  52 ; velocity: 127
@18720 Channel: 1 Note on, E3 key =  52 ; velocity: 0
@18720 Channel: 1 Note on, E2 key =  40 ; velocity: 127
@18780 Channel: 1 Note on, E2 key =  40 ; velocity: 0
@18780 Channel: 1 Note on, E2 key =  40 ; velocity: 127
@18840 Channel: 1 Note on, E2 key =  40 ; velocity: 0
@18840 Channel: 1 Note on, E2 key =  40 ; velocity: 127
@18900 Channel: 1 Note on, E2 key =  40 ; velocity: 0
@18900 Channel: 1 Note on, E2 key =  40 ; velocity: 127
@18960 Channel: 1 Note on, E2 key =  40 ; velocity: 0
@18960 Channel: 1 Note on, E2 key =  40 ; velocity: 127
@19020 Channel: 1 Note on, E2 key =  40 ; velocity: 0
@19020 Channel: 1 Note on, E2 key =  40 ; velocity: 127
@19080 Channel: 1 Note on, E2 key =  40 ; velocity: 0
@19080 Channel: 1 Note on, E2 key =  40 ; velocity: 127
@19140 Channel: 1 Note on, E2 key =  40 ; velocity: 0
@19140 Channel: 1 Note on, E2 key =  40 ; velocity: 127
@19200 Channel: 1 Note on, E2 key =  40 ; velocity: 0
@19200 Channel: 1 Note on, E2 key =  40 ; velocity: 127
@19260 Channel: 1 Note on, E2 key =  40 ; velocity: 0
@19260 Channel: 1 Note on, E2 key =  40 ; velocity: 127
@19320 Channel: 1 Note on, E2 key =  40 ; velocity: 0
@19320 Channel: 1 Note on, E2 key =  40 ; velocity: 127
@19380 Channel: 1 Note on, E2 key =  40 ; velocity: 0
@19380 Channel: 1 Note on, E2 key =  40 ; velocity: 127
@19440 Channel: 1 Note on, E2 key =  40 ; velocity: 0
@19440 Channel: 1 Note on, B2 key =  47 ; velocity: 127
@19500 Channel: 1 Note on, B2 key =  47 ; velocity: 0
@19500 Channel: 1 Note on, A#2 key =  46 ; velocity: 127
@19560 Channel: 1 Note on, A#2 key =  46 ; velocity: 0
@19560 Channel: 1 Note on, G3 key =  55 ; velocity: 127
@19620 Channel: 1 Note on, G3 key =  55 ; velocity: 0
@19620 Channel: 1 Note on, E3 key =  52 ; velocity: 127
@19680 Channel: 1 Note on, E3 key =  52 ; velocity: 0
@19680 Channel: 1 Note on, E2 key =  40 ; velocity: 127
@19740 Channel: 1 Note on, E2 key =  40 ; velocity: 0
@19740 Channel: 1 Note on, E2 key =  40 ; velocity: 127
@19800 Channel: 1 Note on, E2 key =  40 ; velocity: 0
@19800 Channel: 1 Note on, E2 key =  40 ; velocity: 127
@19860 Channel: 1 Note on, E2 key =  40 ; velocity: 0
@19860 Channel: 1 Note on, E2 key =  40 ; velocity: 127
@19920 Channel: 1 Note on, E2 key =  40 ; velocity: 0
@19920 Channel: 1 Note on, E2 key =  40 ; velocity: 127
@19980 Channel: 1 Note on, E2 key =  40 ; velocity: 0
@19980 Channel: 1 Note on, E2 key =  40 ; velocity: 127
@20040 Channel: 1 Note on, E2 key =  40 ; velocity: 0
@20040 Channel: 1 Note on, E2 key =  40 ; velocity: 127
@20100 Channel: 1 Note on, E2 key =  40 ; velocity: 0
@20100 Channel: 1 Note on, E2 key =  40 ; velocity: 127
@20160 Channel: 1 Note on, E2 key =  40 ; velocity: 0
@20160 Channel: 1 Note on, E2 key =  40 ; velocity: 127
@20220 Channel: 1 Note on, E2 key =  40 ; velocity: 0
@20220 Channel: 1 Note on, E2 key =  40 ; velocity: 127
@20280 Channel: 1 Note on, E2 key =  40 ; velocity: 0
@20280 Channel: 1 Note on, E2 key =  40 ; velocity: 127
@20340 Channel: 1 Note on, E2 key =  40 ; velocity: 0
@20340 Channel: 1 Note on, E2 key =  40 ; velocity: 127
@20400 Channel: 1 Note on, E2 key =  40 ; velocity: 0
@20400 Channel: 1 Note on, B2 key =  47 ; velocity: 127
@20460 Channel: 1 Note on, B2 key =  47 ; velocity: 0
@20460 Channel: 1 Note on, A#2 key =  46 ; velocity: 127
@20520 Channel: 1 Note on, A#2 key =  46 ; velocity: 0
@20520 Channel: 1 Note on, G3 key =  55 ; velocity: 127
@20580 Channel: 1 Note on, G3 key =  55 ; velocity: 0
@20580 Channel: 1 Note on, E3 key =  52 ; velocity: 127
@20640 Channel: 1 Note on, E3 key =  52 ; velocity: 0
@20640 Channel: 1 Note on, E2 key =  40 ; velocity: 127
@20700 Channel: 1 Note on, E2 key =  40 ; velocity: 0
@20700 Channel: 1 Note on, E2 key =  40 ; velocity: 127
@20760 Channel: 1 Note on, E2 key =  40 ; velocity: 0
@20760 Channel: 1 Note on, E2 key =  40 ; velocity: 127
@20820 Channel: 1 Note on, E2 key =  40 ; velocity: 0
@20820 Channel: 1 Note on, E2 key =  40 ; velocity: 127
@20880 Channel: 1 Note on, E2 key =  40 ; velocity: 0
@20880 Channel: 1 Note on, E2 key =  40 ; velocity: 127
@20940 Channel: 1 Note on, E2 key =  40 ; velocity: 0
@20940 Channel: 1 Note on, E2 key =  40 ; velocity: 127
@21000 Channel: 1 Note on, E2 key =  40 ; velocity: 0
@21000 Channel: 1 Note on, E2 key =  40 ; velocity: 127
@21060 Channel: 1 Note on, E2 key =  40 ; velocity: 0
@21060 Channel: 1 Note on, E2 key =  40 ; velocity: 127
@21120 Channel: 1 Note on, E2 key =  40 ; velocity: 0
@21120 Channel: 1 Note on, E2 key =  40 ; velocity: 127
@21180 Channel: 1 Note on, E2 key =  40 ; velocity: 0
@21180 Channel: 1 Note on, E2 key =  40 ; velocity: 127
@21240 Channel: 1 Note on, E2 key =  40 ; velocity: 0
@21240 Channel: 1 Note on, E2 key =  40 ; velocity: 127
@21300 Channel: 1 Note on, E2 key =  40 ; velocity: 0
@21300 Channel: 1 Note on, E2 key =  40 ; velocity: 127
@21360 Channel: 1 Note on, E2 key =  40 ; velocity: 0
@21360 Channel: 1 Note on, B2 key =  47 ; velocity: 127
@21420 Channel: 1 Note on, B2 key =  47 ; velocity: 0
@21420 Channel: 1 Note on, A#2 key =  46 ; velocity: 127
@21480 Channel: 1 Note on, A#2 key =  46 ; velocity: 0
@21480 Channel: 1 Note on, G3 key =  55 ; velocity: 127
@21540 Channel: 1 Note on, G3 key =  55 ; velocity: 0
@21540 Channel: 1 Note on, E3 key =  52 ; velocity: 127
@21600 Channel: 1 Note on, E3 key =  52 ; velocity: 0
@21600 Channel: 1 Note on, E2 key =  40 ; velocity: 127
@21660 Channel: 1 Note on, E2 key =  40 ; velocity: 0
@21660 Channel: 1 Note on, E2 key =  40 ; velocity: 127
@21720 Channel: 1 Note on, E2 key =  40 ; velocity: 0
@21720 Channel: 1 Note on, E2 key =  40 ; velocity: 127
@21780 Channel: 1 Note on, E2 key =  40 ; velocity: 0
@21780 Channel: 1 Note on, E2 key =  40 ; velocity: 127
@21840 Channel: 1 Note on, E2 key =  40 ; velocity: 0
@21840 Channel: 1 Note on, E2 key =  40 ; velocity: 127
@21900 Channel: 1 Note on, E2 key =  40 ; velocity: 0
@21900 Channel: 1 Note on, E2 key =  40 ; velocity: 127
@21960 Channel: 1 Note on, E2 key =  40 ; velocity: 0
@21960 Channel: 1 Note on, E2 key =  40 ; velocity: 127
@22020 Channel: 1 Note on, E2 key =  40 ; velocity: 0
@22020 Channel: 1 Note on, E2 key =  40 ; velocity: 127
@22080 Channel: 1 Note on, E2 key =  40 ; velocity: 0
@22080 Channel: 1 Note on, E2 key =  40 ; velocity: 127
@22140 Channel: 1 Note on, E2 key =  40 ; velocity: 0
@22140 Channel: 1 Note on, E2 key =  40 ; velocity: 127
@22200 Channel: 1 Note on, E2 key =  40 ; velocity: 0
@22200 Channel: 1 Note on, E2 key =  40 ; velocity: 127
@22260 Channel: 1 Note on, E2 key =  40 ; velocity: 0
@22260 Channel: 1 Note on, E2 key =  40 ; velocity: 127
@22320 Channel: 1 Note on, E2 key =  40 ; velocity: 0
@22320 Channel: 1 Note on, B2 key =  47 ; velocity: 127
@22380 Channel: 1 Note on, B2 key =  47 ; velocity: 0
@22380 Channel: 1 Note on, A#2 key =  46 ; velocity: 127
@22440 Channel: 1 Note on, A#2 key =  46 ; velocity: 0
@22440 Channel: 1 Note on, G3 key =  55 ; velocity: 127
@22500 Channel: 1 Note on, G3 key =  55 ; velocity: 0
@22500 Channel: 1 Note on, E3 key =  52 ; velocity: 127
@22560 Channel: 1 Note on, E3 key =  52 ; velocity: 0
@22560 Channel: 1 Note on, E2 key =  40 ; velocity: 127
@22620 Channel: 1 Note on, E2 key =  40 ; velocity: 0
@22620 Channel: 1 Note on, E2 key =  40 ; velocity: 127
@22680 Channel: 1 Note on, E2 key =  40 ; velocity: 0
@22680 Channel: 1 Note on, E2 key =  40 ; velocity: 127
@22740 Channel: 1 Note on, E2 key =  40 ; velocity: 0
@22740 Channel: 1 Note on, E2 key =  40 ; velocity: 127
@22800 Channel: 1 Note on, E2 key =  40 ; velocity: 0
@22800 Channel: 1 Note on, E2 key =  40 ; velocity: 127
@22860 Channel: 1 Note on, E2 key =  40 ; velocity: 0
@22860 Channel: 1 Note on, E2 key =  40 ; velocity: 127
@22920 Channel: 1 Note on, E2 key =  40 ; velocity: 0
@22920 Channel: 1 Note on, E2 key =  40 ; velocity: 127
@22980 Channel: 1 Note on, E2 key =  40 ; velocity: 0
@22980 Channel: 1 Note on, E2 key =  40 ; velocity: 127
@23040 Channel: 1 Note on, E2 key =  40 ; velocity: 0
@23040 Channel: 1 Note on, E2 key =  40 ; velocity: 127
@23100 Channel: 1 Note on, E2 key =  40 ; velocity: 0
@23100 Channel: 1 Note on, E2 key =  40 ; velocity: 127
@23160 Channel: 1 Note on, E2 key =  40 ; velocity: 0
@23160 Channel: 1 Note on, E2 key =  40 ; velocity: 127
@23220 Channel: 1 Note on, E2 key =  40 ; velocity: 0
@23220 Channel: 1 Note on, E2 key =  40 ; velocity: 127
@23280 Channel: 1 Note on, E2 key =  40 ; velocity: 0
@23280 Channel: 1 Note on, B2 key =  47 ; velocity: 127
@23340 Channel: 1 Note on, B2 key =  47 ; velocity: 0
@23340 Channel: 1 Note on, A#2 key =  46 ; velocity: 127
@23400 Channel: 1 Note on, A#2 key =  46 ; velocity: 0
@23400 Channel: 1 Note on, G3 key =  55 ; velocity: 127
@23460 Channel: 1 Note on, G3 key =  55 ; velocity: 0
@23460 Channel: 1 Note on, E3 key =  52 ; velocity: 127
@23520 Channel: 1 Note on, E3 key =  52 ; velocity: 0
@23520 Channel: 1 Note on, C4 key =  60 ; velocity: 127
@23520 Channel: 1 Note on, G3 key =  55 ; velocity: 127
@23580 Channel: 1 Note on, C4 key =  60 ; velocity: 0
@23580 Channel: 1 Note on, G3 key =  55 ; velocity: 0
@23580 Channel: 1 Note on, E2 key =  40 ; velocity: 127
@23640 Channel: 1 Note on, E2 key =  40 ; velocity: 0
@23640 Channel: 1 Note on, E2 key =  40 ; velocity: 127
@23700 Channel: 1 Note on, E2 key =  40 ; velocity: 0
@23700 Channel: 1 Note on, E2 key =  40 ; velocity: 127
@23760 Channel: 1 Note on, E2 key =  40 ; velocity: 0
@23760 Channel: 1 Note on, G3 key =  55 ; velocity: 127
@23760 Channel: 1 Note on, C4 key =  60 ; velocity: 127
@23820 Channel: 1 Note on, G3 key =  55 ; velocity: 0
@23820 Channel: 1 Note on, C4 key =  60 ; velocity: 0
@23820 Channel: 1 Note on, D4 key =  62 ; velocity: 127
@23820 Channel: 1 Note on, A3 key =  57 ; velocity: 127
@23880 Channel: 1 Note on, D4 key =  62 ; velocity: 0
@23880 Channel: 1 Note on, A3 key =  57 ; velocity: 0
@23880 Channel: 1 Note on, G3 key =  55 ; velocity: 127
@23880 Channel: 1 Note on, C4 key =  60 ; velocity: 127
@24000 Channel: 1 Note on, G3 key =  55 ; velocity: 0
@24000 Channel: 1 Note on, C4 key =  60 ; velocity: 0
@24000 Channel: 1 Note on, C4 key =  60 ; velocity: 127
@24000 Channel: 1 Note on, G3 key =  55 ; velocity: 127
@24060 Channel: 1 Note on, C4 key =  60 ; velocity: 0
@24060 Channel: 1 Note on, G3 key =  55 ; velocity: 0
@24060 Channel: 1 Note on, E2 key =  40 ; velocity: 127
@24120 Channel: 1 Note on, E2 key =  40 ; velocity: 0
@24120 Channel: 1 Note on, E2 key =  40 ; velocity: 127
@24180 Channel: 1 Note on, E2 key =  40 ; velocity: 0
@24180 Channel: 1 Note on, E2 key =  40 ; velocity: 127
@24240 Channel: 1 Note on, E2 key =  40 ; velocity: 0
@24240 Channel: 1 Note on, G3 key =  55 ; velocity: 127
@24240 Channel: 1 Note on, C4 key =  60 ; velocity: 127
@24300 Channel: 1 Note on, G3 key =  55 ; velocity: 0
@24300 Channel: 1 Note on, C4 key =  60 ; velocity: 0
@24300 Channel: 1 Note on, D4 key =  62 ; velocity: 127
@24300 Channel: 1 Note on, A3 key =  57 ; velocity: 127
@24360 Channel: 1 Note on, D4 key =  62 ; velocity: 0
@24360 Channel: 1 Note on, A3 key =  57 ; velocity: 0
@24360 Channel: 1 Note on, G3 key =  55 ; velocity: 127
@24360 Channel: 1 Note on, C4 key =  60 ; velocity: 127
@24480 Channel: 1 Note on, G3 key =  55 ; velocity: 0
@24480 Channel: 1 Note on, C4 key =  60 ; velocity: 0
@24480 Channel: 1 Note on, C4 key =  60 ; velocity: 127
@24480 Channel: 1 Note on, G3 key =  55 ; velocity: 127
@24540 Channel: 1 Note on, C4 key =  60 ; velocity: 0
@24540 Channel: 1 Note on, G3 key =  55 ; velocity: 0
@24540 Channel: 1 Note on, E2 key =  40 ; velocity: 127
@24600 Channel: 1 Note on, E2 key =  40 ; velocity: 0
@24600 Channel: 1 Note on, E2 key =  40 ; velocity: 127
@24660 Channel: 1 Note on, E2 key =  40 ; velocity: 0
@24660 Channel: 1 Note on, E2 key =  40 ; velocity: 127
@24720 Channel: 1 Note on, E2 key =  40 ; velocity: 0
@24720 Channel: 1 Note on, G3 key =  55 ; velocity: 127
@24720 Channel: 1 Note on, C4 key =  60 ; velocity: 127
@24780 Channel: 1 Note on, G3 key =  55 ; velocity: 0
@24780 Channel: 1 Note on, C4 key =  60 ; velocity: 0
@24780 Channel: 1 Note on, D4 key =  62 ; velocity: 127
@24780 Channel: 1 Note on, A3 key =  57 ; velocity: 127
@24840 Channel: 1 Note on, D4 key =  62 ; velocity: 0
@24840 Channel: 1 Note on, A3 key =  57 ; velocity: 0
@24840 Channel: 1 Note on, G3 key =  55 ; velocity: 127
@24840 Channel: 1 Note on, C4 key =  60 ; velocity: 127
@24960 Channel: 1 Note on, G3 key =  55 ; velocity: 0
@24960 Channel: 1 Note on, C4 key =  60 ; velocity: 0
@24960 Channel: 1 Note on, D4 key =  62 ; velocity: 127
@25020 Channel: 1 Note on, D4 key =  62 ; velocity: 0
@25020 Channel: 1 Note on, C4 key =  60 ; velocity: 127
@25080 Channel: 1 Note on, C4 key =  60 ; velocity: 0
@25080 Channel: 1 Note on, A3 key =  57 ; velocity: 127
@25140 Channel: 1 Note on, A3 key =  57 ; velocity: 0
@25140 Channel: 1 Note on, G#3 key =  56 ; velocity: 127
@25200 Channel: 1 Note on, G#3 key =  56 ; velocity: 0
@25200 Channel: 1 Note on, G3 key =  55 ; velocity: 127
@25260 Channel: 1 Note on, G3 key =  55 ; velocity: 0
@25260 Channel: 1 Note on, E3 key =  52 ; velocity: 127
@25320 Channel: 1 Note on, E3 key =  52 ; velocity: 0
@25320 Channel: 1 Note on, D#3 key =  51 ; velocity: 127
@25380 Channel: 1 Note on, D#3 key =  51 ; velocity: 0
@25380 Channel: 1 Note on, D3 key =  50 ; velocity: 127
@25440 Channel: 1 Note on, D3 key =  50 ; velocity: 0
@25440 Channel: 1 Note on, C4 key =  60 ; velocity: 127
@25440 Channel: 1 Note on, G3 key =  55 ; velocity: 127
@25500 Channel: 1 Note on, C4 key =  60 ; velocity: 0
@25500 Channel: 1 Note on, G3 key =  55 ; velocity: 0
@25500 Channel: 1 Note on, E2 key =  40 ; velocity: 127
@25560 Channel: 1 Note on, E2 key =  40 ; velocity: 0
@25560 Channel: 1 Note on, E2 key =  40 ; velocity: 127
@25620 Channel: 1 Note on, E2 key =  40 ; velocity: 0
@25620 Channel: 1 Note on, E2 key =  40 ; velocity: 127
@25680 Channel: 1 Note on, E2 key =  40 ; velocity: 0
@25680 Channel: 1 Note on, G3 key =  55 ; velocity: 127
@25680 Channel: 1 Note on, C4 key =  60 ; velocity: 127
@25740 Channel: 1 Note on, G3 key =  55 ; velocity: 0
@25740 Channel: 1 Note on, C4 key =  60 ; velocity: 0
@25740 Channel: 1 Note on, D4 key =  62 ; velocity: 127
@25740 Channel: 1 Note on, A3 key =  57 ; velocity: 127
@25800 Channel: 1 Note on, D4 key =  62 ; velocity: 0
@25800 Channel: 1 Note on, A3 key =  57 ; velocity: 0
@25800 Channel: 1 Note on, G3 key =  55 ; velocity: 127
@25800 Channel: 1 Note on, C4 key =  60 ; velocity: 127
@25920 Channel: 1 Note on, G3 key =  55 ; velocity: 0
@25920 Channel: 1 Note on, C4 key =  60 ; velocity: 0
@25920 Channel: 1 Note on, C4 key =  60 ; velocity: 127
@25920 Channel: 1 Note on, G3 key =  55 ; velocity: 127
@25980 Channel: 1 Note on, C4 key =  60 ; velocity: 0
@25980 Channel: 1 Note on, G3 key =  55 ; velocity: 0
@25980 Channel: 1 Note on, E2 key =  40 ; velocity: 127
@26040 Channel: 1 Note on, E2 key =  40 ; velocity: 0
@26040 Channel: 1 Note on, E2 key =  40 ; velocity: 127
@26100 Channel: 1 Note on, E2 key =  40 ; velocity: 0
@26100 Channel: 1 Note on, E2 key =  40 ; velocity: 127
@26160 Channel: 1 Note on, E2 key =  40 ; velocity: 0
@26160 Channel: 1 Note on, G3 key =  55 ; velocity: 127
@26160 Channel: 1 Note on, C4 key =  60 ; velocity: 127
@26220 Channel: 1 Note on, G3 key =  55 ; velocity: 0
@26220 Channel: 1 Note on, C4 key =  60 ; velocity: 0
@26220 Channel: 1 Note on, D4 key =  62 ; velocity: 127
@26220 Channel: 1 Note on, A3 key =  57 ; velocity: 127
@26280 Channel: 1 Note on, D4 key =  62 ; velocity: 0
@26280 Channel: 1 Note on, A3 key =  57 ; velocity: 0
@26280 Channel: 1 Note on, G3 key =  55 ; velocity: 127
@26280 Channel: 1 Note on, C4 key =  60 ; velocity: 127
@26400 Channel: 1 Note on, G3 key =  55 ; velocity: 0
@26400 Channel: 1 Note on, C4 key =  60 ; velocity: 0
@26400 Channel: 1 Note on, C4 key =  60 ; velocity: 127
@26400 Channel: 1 Note on, G3 key =  55 ; velocity: 127
@26460 Channel: 1 Note on, C4 key =  60 ; velocity: 0
@26460 Channel: 1 Note on, G3 key =  55 ; velocity: 0
@26460 Channel: 1 Note on, E2 key =  40 ; velocity: 127
@26520 Channel: 1 Note on, E2 key =  40 ; velocity: 0
@26520 Channel: 1 Note on, E2 key =  40 ; velocity: 127
@26580 Channel: 1 Note on, E2 key =  40 ; velocity: 0
@26580 Channel: 1 Note on, E2 key =  40 ; velocity: 127
@26640 Channel: 1 Note on, E2 key =  40 ; velocity: 0
@26640 Channel: 1 Note on, G3 key =  55 ; velocity: 127
@26640 Channel: 1 Note on, C4 key =  60 ; velocity: 127
@26700 Channel: 1 Note on, G3 key =  55 ; velocity: 0
@26700 Channel: 1 Note on, C4 key =  60 ; velocity: 0
@26700 Channel: 1 Note on, D4 key =  62 ; velocity: 127
@26700 Channel: 1 Note on, A3 key =  57 ; velocity: 127
@26760 Channel: 1 Note on, D4 key =  62 ; velocity: 0
@26760 Channel: 1 Note on, A3 key =  57 ; velocity: 0
@26760 Channel: 1 Note on, G3 key =  55 ; velocity: 127
@26760 Channel: 1 Note on, C4 key =  60 ; velocity: 127
@26880 Channel: 1 Note on, G3 key =  55 ; velocity: 0
@26880 Channel: 1 Note on, C4 key =  60 ; velocity: 0
@26880 Channel: 1 Note on, E4 key =  64 ; velocity: 127
@26940 Channel: 1 Note on, E4 key =  64 ; velocity: 0
@26940 Channel: 1 Note on, D4 key =  62 ; velocity: 127
@27000 Channel: 1 Note on, D4 key =  62 ; velocity: 0
@27000 Channel: 1 Note on, B3 key =  59 ; velocity: 127
@27060 Channel: 1 Note on, B3 key =  59 ; velocity: 0
@27060 Channel: 1 Note on, D4 key =  62 ; velocity: 127
@27120 Channel: 1 Note on, D4 key =  62 ; velocity: 0
@27120 Channel: 1 Note on, B3 key =  59 ; velocity: 127
@27180 Channel: 1 Note on, B3 key =  59 ; velocity: 0
@27180 Channel: 1 Note on, A#3 key =  58 ; velocity: 127
@27240 Channel: 1 Note on, A#3 key =  58 ; velocity: 0
@27240 Channel: 1 Note on, A3 key =  57 ; velocity: 127
@27300 Channel: 1 Note on, A3 key =  57 ; velocity: 0
@27300 Channel: 1 Note on, G3 key =  55 ; velocity: 127
@27360 Channel: 1 Note on, G3 key =  55 ; velocity: 0
@27360 Channel: 1 Note on, E4 key =  64 ; velocity: 127
@27420 Channel: 1 Note on, E4 key =  64 ; velocity: 0
@27420 Channel: 1 Note on, D4 key =  62 ; velocity: 127
@27480 Channel: 1 Note on, D4 key =  62 ; velocity: 0
@27480 Channel: 1 Note on, B3 key =  59 ; velocity: 127
@27540 Channel: 1 Note on, B3 key =  59 ; velocity: 0
@27540 Channel: 1 Note on, D4 key =  62 ; velocity: 127
@27600 Channel: 1 Note on, D4 key =  62 ; velocity: 0
@27600 Channel: 1 Note on, B3 key =  59 ; velocity: 127
@27660 Channel: 1 Note on, B3 key =  59 ; velocity: 0
@27660 Channel: 1 Note on, A#3 key =  58 ; velocity: 127
@27720 Channel: 1 Note on, A#3 key =  58 ; velocity: 0
@27720 Channel: 1 Note on, A3 key =  57 ; velocity: 127
@27780 Channel: 1 Note on, A3 key =  57 ; velocity: 0
@27780 Channel: 1 Note on, G3 key =  55 ; velocity: 127
@27840 Channel: 1 Note on, G3 key =  55 ; velocity: 0
@27840 Channel: 1 Note on, D4 key =  62 ; velocity: 127
@27840 Channel: 1 Note on, G3 key =  55 ; velocity: 127
@28320 Channel: 1 Note on, D4 key =  62 ; velocity: 0
@28320 Channel: 1 Note on, G3 key =  55 ; velocity: 0
@28320 Channel: 1 Note on, C#4 key =  61 ; velocity: 127
@28320 Channel: 1 Note on, F#3 key =  54 ; velocity: 127
@28560 Channel: 1 Note on, C#4 key =  61 ; velocity: 0
@28560 Channel: 1 Note on, F#3 key =  54 ; velocity: 0
@28560 Channel: 1 Note on, C4 key =  60 ; velocity: 127
@28560 Channel: 1 Note on, F3 key =  53 ; velocity: 127
@28800 Channel: 1 Note on, C4 key =  60 ; velocity: 0
@28800 Channel: 1 Note on, F3 key =  53 ; velocity: 0
@28800 Channel: 1 Note on, E2 key =  40 ; velocity: 127
@28860 Channel: 1 Note on, E2 key =  40 ; velocity: 0
@28860 Channel: 1 Note on, E2 key =  40 ; velocity: 127
@28920 Channel: 1 Note on, E2 key =  40 ; velocity: 0
@28920 Channel: 1 Note on, E2 key =  40 ; velocity: 127
@28980 Channel: 1 Note on, E2 key =  40 ; velocity: 0
@28980 Channel: 1 Note on, E2 key =  40 ; velocity: 127
@29040 Channel: 1 Note on, E2 key =  40 ; velocity: 0
@29040 Channel: 1 Note on, E2 key =  40 ; velocity: 127
@29100 Channel: 1 Note on, E2 key =  40 ; velocity: 0
@29100 Channel: 1 Note on, E2 key =  40 ; velocity: 127
@29160 Channel: 1 Note on, E2 key =  40 ; velocity: 0
@29160 Channel: 1 Note on, E2 key =  40 ; velocity: 127
@29220 Channel: 1 Note on, E2 key =  40 ; velocity: 0
@29220 Channel: 1 Note on, E2 key =  40 ; velocity: 127
@29280 Channel: 1 Note on, E2 key =  40 ; velocity: 0
@29280 Channel: 1 Note on, E2 key =  40 ; velocity: 127
@29340 Channel: 1 Note on, E2 key =  40 ; velocity: 0
@29340 Channel: 1 Note on, E2 key =  40 ; velocity: 127
@29400 Channel: 1 Note on, E2 key =  40 ; velocity: 0
@29400 Channel: 1 Note on, E2 key =  40 ; velocity: 127
@29460 Channel: 1 Note on, E2 key =  40 ; velocity: 0
@29460 Channel: 1 Note on, E2 key =  40 ; velocity: 127
@29520 Channel: 1 Note on, E2 key =  40 ; velocity: 0
@29520 Channel: 1 Note on, E2 key =  40 ; velocity: 127
@29580 Channel: 1 Note on, E2 key =  40 ; velocity: 0
@29580 Channel: 1 Note on, E2 key =  40 ; velocity: 127
@29640 Channel: 1 Note on, E2 key =  40 ; velocity: 0
@29640 Channel: 1 Note on, E2 key =  40 ; velocity: 127
@29700 Channel: 1 Note on, E2 key =  40 ; velocity: 0
@29700 Channel: 1 Note on, E2 key =  40 ; velocity: 127
@29760 Channel: 1 Note on, E2 key =  40 ; velocity: 0
@29760 Channel: 1 Note on, D4 key =  62 ; velocity: 127
@29760 Channel: 1 Note on, G3 key =  55 ; velocity: 127
@30240 Channel: 1 Note on, D4 key =  62 ; velocity: 0
@30240 Channel: 1 Note on, G3 key =  55 ; velocity: 0
@30240 Channel: 1 Note on, C#4 key =  61 ; velocity: 127
@30240 Channel: 1 Note on, F#3 key =  54 ; velocity: 127
@30480 Channel: 1 Note on, C#4 key =  61 ; velocity: 0
@30480 Channel: 1 Note on, F#3 key =  54 ; velocity: 0
@30480 Channel: 1 Note on, C4 key =  60 ; velocity: 127
@30480 Channel: 1 Note on, F3 key =  53 ; velocity: 127
@30720 Channel: 1 Note on, C4 key =  60 ; velocity: 0
@30720 Channel: 1 Note on, F3 key =  53 ; velocity: 0
@30720 Channel: 1 Note on, E2 key =  40 ; velocity: 127
@30780 Channel: 1 Note on, E2 key =  40 ; velocity: 0
@30780 Channel: 1 Note on, E2 key =  40 ; velocity: 127
@30840 Channel: 1 Note on, E2 key =  40 ; velocity: 0
@30840 Channel: 1 Note on, E2 key =  40 ; velocity: 127
@30900 Channel: 1 Note on, E2 key =  40 ; velocity: 0
@30900 Channel: 1 Note on, E2 key =  40 ; velocity: 127
@30960 Channel: 1 Note on, E2 key =  40 ; velocity: 0
@30960 Channel: 1 Note on, E2 key =  40 ; velocity: 127
@31020 Channel: 1 Note on, E2 key =  40 ; velocity: 0
@31020 Channel: 1 Note on, E2 key =  40 ; velocity: 127
@31080 Channel: 1 Note on, E2 key =  40 ; velocity: 0
@31080 Channel: 1 Note on, E2 key =  40 ; velocity: 127
@31140 Channel: 1 Note on, E2 key =  40 ; velocity: 0
@31140 Channel: 1 Note on, E2 key =  40 ; velocity: 127
@31200 Channel: 1 Note on, E2 key =  40 ; velocity: 0
@31200 Channel: 1 Note on, E2 key =  40 ; velocity: 127
@31260 Channel: 1 Note on, E2 key =  40 ; velocity: 0
@31260 Channel: 1 Note on, E2 key =  40 ; velocity: 127
@31320 Channel: 1 Note on, E2 key =  40 ; velocity: 0
@31320 Channel: 1 Note on, E2 key =  40 ; velocity: 127
@31380 Channel: 1 Note on, E2 key =  40 ; velocity: 0
@31380 Channel: 1 Note on, E2 key =  40 ; velocity: 127
@31440 Channel: 1 Note on, E2 key =  40 ; velocity: 0
@31440 Channel: 1 Note on, E2 key =  40 ; velocity: 127
@31500 Channel: 1 Note on, E2 key =  40 ; velocity: 0
@31500 Channel: 1 Note on, E2 key =  40 ; velocity: 127
@31560 Channel: 1 Note on, E2 key =  40 ; velocity: 0
@31560 Channel: 1 Note on, E2 key =  40 ; velocity: 127
@31620 Channel: 1 Note on, E2 key =  40 ; velocity: 0
@31620 Channel: 1 Note on, E2 key =  40 ; velocity: 127
@31680 Channel: 1 Note on, E2 key =  40 ; velocity: 0
@31680 Channel: 1 Note on, D4 key =  62 ; velocity: 127
@31680 Channel: 1 Note on, G3 key =  55 ; velocity: 127
@32160 Channel: 1 Note on, D4 key =  62 ; velocity: 0
@32160 Channel: 1 Note on, G3 key =  55 ; velocity: 0
@32160 Channel: 1 Note on, C#4 key =  61 ; velocity: 127
@32160 Channel: 1 Note on, F#3 key =  54 ; velocity: 127
@32400 Channel: 1 Note on, C#4 key =  61 ; velocity: 0
@32400 Channel: 1 Note on, F#3 key =  54 ; velocity: 0
@32400 Channel: 1 Note on, C4 key =  60 ; velocity: 127
@32400 Channel: 1 Note on, F3 key =  53 ; velocity: 127
@32640 Channel: 1 Note on, C4 key =  60 ; velocity: 0
@32640 Channel: 1 Note on, F3 key =  53 ; velocity: 0
@32640 Channel: 1 Note on, E2 key =  40 ; velocity: 127
@32700 Channel: 1 Note on, E2 key =  40 ; velocity: 0
@32700 Channel: 1 Note on, E2 key =  40 ; velocity: 127
@32760 Channel: 1 Note on, E2 key =  40 ; velocity: 0
@32760 Channel: 1 Note on, E2 key =  40 ; velocity: 127
@32820 Channel: 1 Note on, E2 key =  40 ; velocity: 0
@32820 Channel: 1 Note on, E2 key =  40 ; velocity: 127
@32880 Channel: 1 Note on, E2 key =  40 ; velocity: 0
@32880 Channel: 1 Note on, E2 key =  40 ; velocity: 127
@32940 Channel: 1 Note on, E2 key =  40 ; velocity: 0
@32940 Channel: 1 Note on, E2 key =  40 ; velocity: 127
@33000 Channel: 1 Note on, E2 key =  40 ; velocity: 0
@33000 Channel: 1 Note on, E2 key =  40 ; velocity: 127
@33060 Channel: 1 Note on, E2 key =  40 ; velocity: 0
@33060 Channel: 1 Note on, E2 key =  40 ; velocity: 127
@33120 Channel: 1 Note on, E2 key =  40 ; velocity: 0
@33120 Channel: 1 Note on, E2 key =  40 ; velocity: 127
@33180 Channel: 1 Note on, E2 key =  40 ; velocity: 0
@33180 Channel: 1 Note on, E2 key =  40 ; velocity: 127
@33240 Channel: 1 Note on, E2 key =  40 ; velocity: 0
@33240 Channel: 1 Note on, E2 key =  40 ; velocity: 127
@33300 Channel: 1 Note on, E2 key =  40 ; velocity: 0
@33300 Channel: 1 Note on, E2 key =  40 ; velocity: 127
@33360 Channel: 1 Note on, E2 key =  40 ; velocity: 0
@33360 Channel: 1 Note on, E2 key =  40 ; velocity: 127
@33420 Channel: 1 Note on, E2 key =  40 ; velocity: 0
@33420 Channel: 1 Note on, E2 key =  40 ; velocity: 127
@33480 Channel: 1 Note on, E2 key =  40 ; velocity: 0
@33480 Channel: 1 Note on, E2 key =  40 ; velocity: 127
@33540 Channel: 1 Note on, E2 key =  40 ; velocity: 0
@33540 Channel: 1 Note on, E2 key =  40 ; velocity: 127
@33600 Channel: 1 Note on, E2 key =  40 ; velocity: 0
@33600 Channel: 1 Note on, D4 key =  62 ; velocity: 127
@33600 Channel: 1 Note on, G3 key =  55 ; velocity: 127
@34080 Channel: 1 Note on, D4 key =  62 ; velocity: 0
@34080 Channel: 1 Note on, G3 key =  55 ; velocity: 0
@34080 Channel: 1 Note on, C#4 key =  61 ; velocity: 127
@34080 Channel: 1 Note on, F#3 key =  54 ; velocity: 127
@34320 Channel: 1 Note on, C#4 key =  61 ; velocity: 0
@34320 Channel: 1 Note on, F#3 key =  54 ; velocity: 0
@34320 Channel: 1 Note on, C4 key =  60 ; velocity: 127
@34320 Channel: 1 Note on, F3 key =  53 ; velocity: 127
@34560 Channel: 1 Note on, C4 key =  60 ; velocity: 0
@34560 Channel: 1 Note on, F3 key =  53 ; velocity: 0
@34560 Channel: 1 Note on, E2 key =  40 ; velocity: 127
@34620 Channel: 1 Note on, E2 key =  40 ; velocity: 0
@34620 Channel: 1 Note on, E2 key =  40 ; velocity: 127
@34680 Channel: 1 Note on, E2 key =  40 ; velocity: 0
@34680 Channel: 1 Note on, E2 key =  40 ; velocity: 127
@34740 Channel: 1 Note on, E2 key =  40 ; velocity: 0
@34740 Channel: 1 Note on, E2 key =  40 ; velocity: 127
@34800 Channel: 1 Note on, E2 key =  40 ; velocity: 0
@34800 Channel: 1 Note on, G3 key =  55 ; velocity: 127
@34800 Channel: 1 Note on, D3 key =  50 ; velocity: 127
@34860 Channel: 1 Note on, G3 key =  55 ; velocity: 0
@34860 Channel: 1 Note on, D3 key =  50 ; velocity: 0
@34860 Channel: 1 Note on, E3 key =  52 ; velocity: 127
@34860 Channel: 1 Note on, A3 key =  57 ; velocity: 127
@34920 Channel: 1 Note on, E3 key =  52 ; velocity: 0
@34920 Channel: 1 Note on, A3 key =  57 ; velocity: 0
@34920 Channel: 1 Note on, D3 key =  50 ; velocity: 127
@34920 Channel: 1 Note on, G3 key =  55 ; velocity: 127
@34980 Channel: 1 Note on, D3 key =  50 ; velocity: 0
@34980 Channel: 1 Note on, G3 key =  55 ; velocity: 0
@34980 Channel: 1 Note on, A3 key =  57 ; velocity: 127
@34980 Channel: 1 Note on, E3 key =  52 ; velocity: 127
@35040 Channel: 1 Note on, A3 key =  57 ; velocity: 0
@35040 Channel: 1 Note on, E3 key =  52 ; velocity: 0
@35040 Channel: 1 Note on, E2 key =  40 ; velocity: 127
@35100 Channel: 1 Note on, E2 key =  40 ; velocity: 0
@35100 Channel: 1 Note on, E2 key =  40 ; velocity: 127
@35160 Channel: 1 Note on, E2 key =  40 ; velocity: 0
@35160 Channel: 1 Note on, E2 key =  40 ; velocity: 127
@35220 Channel: 1 Note on, E2 key =  40 ; velocity: 0
@35220 Channel: 1 Note on, E2 key =  40 ; velocity: 127
@35280 Channel: 1 Note on, E2 key =  40 ; velocity: 0
@35280 Channel: 1 Note on, E3 key =  52 ; velocity: 127
@35340 Channel: 1 Note on, E3 key =  52 ; velocity: 0
@35340 Channel: 1 Note on, D3 key =  50 ; velocity: 127
@35400 Channel: 1 Note on, D3 key =  50 ; velocity: 0
@35400 Channel: 1 Note on, B2 key =  47 ; velocity: 127
@35460 Channel: 1 Note on, B2 key =  47 ; velocity: 0
@35460 Channel: 1 Note on, A#2 key =  46 ; velocity: 127
@35520 Channel: 1 Note on, A#2 key =  46 ; velocity: 0
@35520 Channel: 1 Note on, E2 key =  40 ; velocity: 127
@35580 Channel: 1 Note on, E2 key =  40 ; velocity: 0
@35580 Channel: 1 Note on, E2 key =  40 ; velocity: 127
@35640 Channel: 1 Note on, E2 key =  40 ; velocity: 0
@35640 Channel: 1 Note on, E2 key =  40 ; velocity: 127
@35700 Channel: 1 Note on, E2 key =  40 ; velocity: 0
@35700 Channel: 1 Note on, E2 key =  40 ; velocity: 127
@35760 Channel: 1 Note on, E2 key =  40 ; velocity: 0
@35760 Channel: 1 Note on, G3 key =  55 ; velocity: 127
@35760 Channel: 1 Note on, D3 key =  50 ; velocity: 127
@35820 Channel: 1 Note on, G3 key =  55 ; velocity: 0
@35820 Channel: 1 Note on, D3 key =  50 ; velocity: 0
@35820 Channel: 1 Note on, E3 key =  52 ; velocity: 127
@35820 Channel: 1 Note on, A3 key =  57 ; velocity: 127
@35880 Channel: 1 Note on, E3 key =  52 ; velocity: 0
@35880 Channel: 1 Note on, A3 key =  57 ; velocity: 0
@35880 Channel: 1 Note on, D3 key =  50 ; velocity: 127
@35880 Channel: 1 Note on, G3 key =  55 ; velocity: 127
@35940 Channel: 1 Note on, D3 key =  50 ; velocity: 0
@35940 Channel: 1 Note on, G3 key =  55 ; velocity: 0
@35940 Channel: 1 Note on, A3 key =  57 ; velocity: 127
@35940 Channel: 1 Note on, E3 key =  52 ; velocity: 127
@36000 Channel: 1 Note on, A3 key =  57 ; velocity: 0
@36000 Channel: 1 Note on, E3 key =  52 ; velocity: 0
@36000 Channel: 1 Note on, E2 key =  40 ; velocity: 127
@36060 Channel: 1 Note on, E2 key =  40 ; velocity: 0
@36060 Channel: 1 Note on, E2 key =  40 ; velocity: 127
@36120 Channel: 1 Note on, E2 key =  40 ; velocity: 0
@36120 Channel: 1 Note on, E2 key =  40 ; velocity: 127
@36180 Channel: 1 Note on, E2 key =  40 ; velocity: 0
@36180 Channel: 1 Note on, E2 key =  40 ; velocity: 127
@36240 Channel: 1 Note on, E2 key =  40 ; velocity: 0
@36240 Channel: 1 Note on, E3 key =  52 ; velocity: 127
@36300 Channel: 1 Note on, E3 key =  52 ; velocity: 0
@36300 Channel: 1 Note on, D3 key =  50 ; velocity: 127
@36360 Channel: 1 Note on, D3 key =  50 ; velocity: 0
@36360 Channel: 1 Note on, B2 key =  47 ; velocity: 127
@36420 Channel: 1 Note on, B2 key =  47 ; velocity: 0
@36420 Channel: 1 Note on, A#2 key =  46 ; velocity: 127
@36480 Channel: 1 Note on, A#2 key =  46 ; velocity: 0
@36480 Channel: 1 Note on, E2 key =  40 ; velocity: 127
@36540 Channel: 1 Note on, E2 key =  40 ; velocity: 0
@36540 Channel: 1 Note on, E2 key =  40 ; velocity: 127
@36600 Channel: 1 Note on, E2 key =  40 ; velocity: 0
@36600 Channel: 1 Note on, E2 key =  40 ; velocity: 127
@36660 Channel: 1 Note on, E2 key =  40 ; velocity: 0
@36660 Channel: 1 Note on, E2 key =  40 ; velocity: 127
@36720 Channel: 1 Note on, E2 key =  40 ; velocity: 0
@36720 Channel: 1 Note on, G3 key =  55 ; velocity: 127
@36720 Channel: 1 Note on, D3 key =  50 ; velocity: 127
@36780 Channel: 1 Note on, G3 key =  55 ; velocity: 0
@36780 Channel: 1 Note on, D3 key =  50 ; velocity: 0
@36780 Channel: 1 Note on, E3 key =  52 ; velocity: 127
@36780 Channel: 1 Note on, A3 key =  57 ; velocity: 127
@36840 Channel: 1 Note on, E3 key =  52 ; velocity: 0
@36840 Channel: 1 Note on, A3 key =  57 ; velocity: 0
@36840 Channel: 1 Note on, D3 key =  50 ; velocity: 127
@36840 Channel: 1 Note on, G3 key =  55 ; velocity: 127
@36900 Channel: 1 Note on, D3 key =  50 ; velocity: 0
@36900 Channel: 1 Note on, G3 key =  55 ; velocity: 0
@36900 Channel: 1 Note on, A3 key =  57 ; velocity: 127
@36900 Channel: 1 Note on, E3 key =  52 ; velocity: 127
@36960 Channel: 1 Note on, A3 key =  57 ; velocity: 0
@36960 Channel: 1 Note on, E3 key =  52 ; velocity: 0
@36960 Channel: 1 Note on, E2 key =  40 ; velocity: 127
@37020 Channel: 1 Note on, E2 key =  40 ; velocity: 0
@37020 Channel: 1 Note on, E2 key =  40 ; velocity: 127
@37080 Channel: 1 Note on, E2 key =  40 ; velocity: 0
@37080 Channel: 1 Note on, E2 key =  40 ; velocity: 127
@37140 Channel: 1 Note on, E2 key =  40 ; velocity: 0
@37140 Channel: 1 Note on, E2 key =  40 ; velocity: 127
@37200 Channel: 1 Note on, E2 key =  40 ; velocity: 0
@37200 Channel: 1 Note on, E3 key =  52 ; velocity: 127
@37260 Channel: 1 Note on, E3 key =  52 ; velocity: 0
@37260 Channel: 1 Note on, D3 key =  50 ; velocity: 127
@37320 Channel: 1 Note on, D3 key =  50 ; velocity: 0
@37320 Channel: 1 Note on, B2 key =  47 ; velocity: 127
@37380 Channel: 1 Note on, B2 key =  47 ; velocity: 0
@37380 Channel: 1 Note on, A#2 key =  46 ; velocity: 127
@37440 Channel: 1 Note on, A#2 key =  46 ; velocity: 0
@37440 Channel: 1 Note on, E2 key =  40 ; velocity: 127
@37500 Channel: 1 Note on, E2 key =  40 ; velocity: 0
@37500 Channel: 1 Note on, E2 key =  40 ; velocity: 127
@37560 Channel: 1 Note on, E2 key =  40 ; velocity: 0
@37560 Channel: 1 Note on, E2 key =  40 ; velocity: 127
@37620 Channel: 1 Note on, E2 key =  40 ; velocity: 0
@37620 Channel: 1 Note on, E2 key =  40 ; velocity: 127
@37680 Channel: 1 Note on, E2 key =  40 ; velocity: 0
@37680 Channel: 1 Note on, G3 key =  55 ; velocity: 127
@37680 Channel: 1 Note on, D3 key =  50 ; velocity: 127
@37740 Channel: 1 Note on, G3 key =  55 ; velocity: 0
@37740 Channel: 1 Note on, D3 key =  50 ; velocity: 0
@37740 Channel: 1 Note on, E3 key =  52 ; velocity: 127
@37740 Channel: 1 Note on, A3 key =  57 ; velocity: 127
@37800 Channel: 1 Note on, E3 key =  52 ; velocity: 0
@37800 Channel: 1 Note on, A3 key =  57 ; velocity: 0
@37800 Channel: 1 Note on, D3 key =  50 ; velocity: 127
@37800 Channel: 1 Note on, G3 key =  55 ; velocity: 127
@37860 Channel: 1 Note on, D3 key =  50 ; velocity: 0
@37860 Channel: 1 Note on, G3 key =  55 ; velocity: 0
@37860 Channel: 1 Note on, A3 key =  57 ; velocity: 127
@37860 Channel: 1 Note on, E3 key =  52 ; velocity: 127
@37920 Channel: 1 Note on, A3 key =  57 ; velocity: 0
@37920 Channel: 1 Note on, E3 key =  52 ; velocity: 0
@37920 Channel: 1 Note on, E2 key =  40 ; velocity: 127
@37980 Channel: 1 Note on, E2 key =  40 ; velocity: 0
@37980 Channel: 1 Note on, E2 key =  40 ; velocity: 127
@38040 Channel: 1 Note on, E2 key =  40 ; velocity: 0
@38040 Channel: 1 Note on, E2 key =  40 ; velocity: 127
@38100 Channel: 1 Note on, E2 key =  40 ; velocity: 0
@38100 Channel: 1 Note on, E2 key =  40 ; velocity: 127
@38160 Channel: 1 Note on, E2 key =  40 ; velocity: 0
@38160 Channel: 1 Note on, E3 key =  52 ; velocity: 127
@38220 Channel: 1 Note on, E3 key =  52 ; velocity: 0
@38220 Channel: 1 Note on, D3 key =  50 ; velocity: 127
@38280 Channel: 1 Note on, D3 key =  50 ; velocity: 0
@38280 Channel: 1 Note on, B2 key =  47 ; velocity: 127
@38340 Channel: 1 Note on, B2 key =  47 ; velocity: 0
@38340 Channel: 1 Note on, A#2 key =  46 ; velocity: 127
@38400 Channel: 1 Note on, A#2 key =  46 ; velocity: 0
@38400 Channel: 1 Note on, E2 key =  40 ; velocity: 127
@38460 Channel: 1 Note on, E2 key =  40 ; velocity: 0
@38460 Channel: 1 Note on, E2 key =  40 ; velocity: 127
@38520 Channel: 1 Note on, E2 key =  40 ; velocity: 0
@38520 Channel: 1 Note on, E2 key =  40 ; velocity: 127
@38580 Channel: 1 Note on, E2 key =  40 ; velocity: 0
@38580 Channel: 1 Note on, E2 key =  40 ; velocity: 127
@38640 Channel: 1 Note on, E2 key =  40 ; velocity: 0
@38640 Channel: 1 Note on, E2 key =  40 ; velocity: 127
@38700 Channel: 1 Note on, E2 key =  40 ; velocity: 0
@38700 Channel: 1 Note on, E2 key =  40 ; velocity: 127
@38760 Channel: 1 Note on, E2 key =  40 ; velocity: 0
@38760 Channel: 1 Note on, E2 key =  40 ; velocity: 127
@38820 Channel: 1 Note on, E2 key =  40 ; velocity: 0
@38820 Channel: 1 Note on, E2 key =  40 ; velocity: 127
@38880 Channel: 1 Note on, E2 key =  40 ; velocity: 0
@38880 Channel: 1 Note on, E2 key =  40 ; velocity: 127
@38940 Channel: 1 Note on, E2 key =  40 ; velocity: 0
@38940 Channel: 1 Note on, E2 key =  40 ; velocity: 127
@39000 Channel: 1 Note on, E2 key =  40 ; velocity: 0
@39000 Channel: 1 Note on, E2 key =  40 ; velocity: 127
@39060 Channel: 1 Note on, E2 key =  40 ; velocity: 0
@39060 Channel: 1 Note on, E2 key =  40 ; velocity: 127
@39120 Channel: 1 Note on, E2 key =  40 ; velocity: 0
@39120 Channel: 1 Note on, B2 key =  47 ; velocity: 127
@39180 Channel: 1 Note on, B2 key =  47 ; velocity: 0
@39180 Channel: 1 Note on, A#2 key =  46 ; velocity: 127
@39240 Channel: 1 Note on, A#2 key =  46 ; velocity: 0
@39240 Channel: 1 Note on, G3 key =  55 ; velocity: 127
@39300 Channel: 1 Note on, G3 key =  55 ; velocity: 0
@39300 Channel: 1 Note on, E3 key =  52 ; velocity: 127
@39360 Channel: 1 Note on, E3 key =  52 ; velocity: 0
@39360 Channel: 1 Note on, E2 key =  40 ; velocity: 127
@39420 Channel: 1 Note on, E2 key =  40 ; velocity: 0
@39420 Channel: 1 Note on, E2 key =  40 ; velocity: 127
@39480 Channel: 1 Note on, E2 key =  40 ; velocity: 0
@39480 Channel: 1 Note on, E2 key =  40 ; velocity: 127
@39540 Channel: 1 Note on, E2 key =  40 ; velocity: 0
@39540 Channel: 1 Note on, E2 key =  40 ; velocity: 127
@39600 Channel: 1 Note on, E2 key =  40 ; velocity: 0
@39600 Channel: 1 Note on, E2 key =  40 ; velocity: 127
@39660 Channel: 1 Note on, E2 key =  40 ; velocity: 0
@39660 Channel: 1 Note on, E2 key =  40 ; velocity: 127
@39720 Channel: 1 Note on, E2 key =  40 ; velocity: 0
@39720 Channel: 1 Note on, E2 key =  40 ; velocity: 127
@39780 Channel: 1 Note on, E2 key =  40 ; velocity: 0
@39780 Channel: 1 Note on, E2 key =  40 ; velocity: 127
@39840 Channel: 1 Note on, E2 key =  40 ; velocity: 0
@39840 Channel: 1 Note on, E2 key =  40 ; velocity: 127
@39900 Channel: 1 Note on, E2 key =  40 ; velocity: 0
@39900 Channel: 1 Note on, E2 key =  40 ; velocity: 127
@39960 Channel: 1 Note on, E2 key =  40 ; velocity: 0
@39960 Channel: 1 Note on, E2 key =  40 ; velocity: 127
@40020 Channel: 1 Note on, E2 key =  40 ; velocity: 0
@40020 Channel: 1 Note on, E2 key =  40 ; velocity: 127
@40080 Channel: 1 Note on, E2 key =  40 ; velocity: 0
@40080 Channel: 1 Note on, B2 key =  47 ; velocity: 127
@40140 Channel: 1 Note on, B2 key =  47 ; velocity: 0
@40140 Channel: 1 Note on, A#2 key =  46 ; velocity: 127
@40200 Channel: 1 Note on, A#2 key =  46 ; velocity: 0
@40200 Channel: 1 Note on, G3 key =  55 ; velocity: 127
@40260 Channel: 1 Note on, G3 key =  55 ; velocity: 0
@40260 Channel: 1 Note on, E3 key =  52 ; velocity: 127
@40320 Channel: 1 Note on, E3 key =  52 ; velocity: 0
@40320 Channel: 1 Note on, E2 key =  40 ; velocity: 127
@40380 Channel: 1 Note on, E2 key =  40 ; velocity: 0
@40380 Channel: 1 Note on, E2 key =  40 ; velocity: 127
@40440 Channel: 1 Note on, E2 key =  40 ; velocity: 0
@40440 Channel: 1 Note on, E2 key =  40 ; velocity: 127
@40500 Channel: 1 Note on, E2 key =  40 ; velocity: 0
@40500 Channel: 1 Note on, E2 key =  40 ; velocity: 127
@40560 Channel: 1 Note on, E2 key =  40 ; velocity: 0
@40560 Channel: 1 Note on, E2 key =  40 ; velocity: 127
@40620 Channel: 1 Note on, E2 key =  40 ; velocity: 0
@40620 Channel: 1 Note on, E2 key =  40 ; velocity: 127
@40680 Channel: 1 Note on, E2 key =  40 ; velocity: 0
@40680 Channel: 1 Note on, E2 key =  40 ; velocity: 127
@40740 Channel: 1 Note on, E2 key =  40 ; velocity: 0
@40740 Channel: 1 Note on, E2 key =  40 ; velocity: 127
@40800 Channel: 1 Note on, E2 key =  40 ; velocity: 0
@40800 Channel: 1 Note on, E2 key =  40 ; velocity: 127
@40860 Channel: 1 Note on, E2 key =  40 ; velocity: 0
@40860 Channel: 1 Note on, E2 key =  40 ; velocity: 127
@40920 Channel: 1 Note on, E2 key =  40 ; velocity: 0
@40920 Channel: 1 Note on, E2 key =  40 ; velocity: 127
@40980 Channel: 1 Note on, E2 key =  40 ; velocity: 0
@40980 Channel: 1 Note on, E2 key =  40 ; velocity: 127
@41040 Channel: 1 Note on, E2 key =  40 ; velocity: 0
@41040 Channel: 1 Note on, B2 key =  47 ; velocity: 127
@41100 Channel: 1 Note on, B2 key =  47 ; velocity: 0
@41100 Channel: 1 Note on, A#2 key =  46 ; velocity: 127
@41160 Channel: 1 Note on, A#2 key =  46 ; velocity: 0
@41160 Channel: 1 Note on, G3 key =  55 ; velocity: 127
@41220 Channel: 1 Note on, G3 key =  55 ; velocity: 0
@41220 Channel: 1 Note on, E3 key =  52 ; velocity: 127
@41280 Channel: 1 Note on, E3 key =  52 ; velocity: 0
@41280 Channel: 1 Note on, E2 key =  40 ; velocity: 127
@41340 Channel: 1 Note on, E2 key =  40 ; velocity: 0
@41340 Channel: 1 Note on, E2 key =  40 ; velocity: 127
@41400 Channel: 1 Note on, E2 key =  40 ; velocity: 0
@41400 Channel: 1 Note on, E2 key =  40 ; velocity: 127
@41460 Channel: 1 Note on, E2 key =  40 ; velocity: 0
@41460 Channel: 1 Note on, E2 key =  40 ; velocity: 127
@41520 Channel: 1 Note on, E2 key =  40 ; velocity: 0
@41520 Channel: 1 Note on, E2 key =  40 ; velocity: 127
@41580 Channel: 1 Note on, E2 key =  40 ; velocity: 0
@41580 Channel: 1 Note on, E2 key =  40 ; velocity: 127
@41640 Channel: 1 Note on, E2 key =  40 ; velocity: 0
@41640 Channel: 1 Note on, E2 key =  40 ; velocity: 127
@41700 Channel: 1 Note on, E2 key =  40 ; velocity: 0
@41700 Channel: 1 Note on, E2 key =  40 ; velocity: 127
@41760 Channel: 1 Note on, E2 key =  40 ; velocity: 0
@41760 Channel: 1 Note on, E2 key =  40 ; velocity: 127
@41820 Channel: 1 Note on, E2 key =  40 ; velocity: 0
@41820 Channel: 1 Note on, E2 key =  40 ; velocity: 127
@41880 Channel: 1 Note on, E2 key =  40 ; velocity: 0
@41880 Channel: 1 Note on, E2 key =  40 ; velocity: 127
@41940 Channel: 1 Note on, E2 key =  40 ; velocity: 0
@41940 Channel: 1 Note on, E2 key =  40 ; velocity: 127
@42000 Channel: 1 Note on, E2 key =  40 ; velocity: 0
@42000 Channel: 1 Note on, B2 key =  47 ; velocity: 127
@42060 Channel: 1 Note on, B2 key =  47 ; velocity: 0
@42060 Channel: 1 Note on, A#2 key =  46 ; velocity: 127
@42120 Channel: 1 Note on, A#2 key =  46 ; velocity: 0
@42120 Channel: 1 Note on, G3 key =  55 ; velocity: 127
@42180 Channel: 1 Note on, G3 key =  55 ; velocity: 0
@42180 Channel: 1 Note on, E3 key =  52 ; velocity: 127
@42240 Channel: 1 Note on, E3 key =  52 ; velocity: 0
@42240 Channel: 1 Note on, C4 key =  60 ; velocity: 127
@42240 Channel: 1 Note on, G3 key =  55 ; velocity: 127
@42300 Channel: 1 Note on, C4 key =  60 ; velocity: 0
@42300 Channel: 1 Note on, G3 key =  55 ; velocity: 0
@42300 Channel: 1 Note on, E2 key =  40 ; velocity: 127
@42360 Channel: 1 Note on, E2 key =  40 ; velocity: 0
@42360 Channel: 1 Note on, E2 key =  40 ; velocity: 127
@42420 Channel: 1 Note on, E2 key =  40 ; velocity: 0
@42420 Channel: 1 Note on, E2 key =  40 ; velocity: 127
@42480 Channel: 1 Note on, E2 key =  40 ; velocity: 0
@42480 Channel: 1 Note on, G3 key =  55 ; velocity: 127
@42480 Channel: 1 Note on, C4 key =  60 ; velocity: 127
@42540 Channel: 1 Note on, G3 key =  55 ; velocity: 0
@42540 Channel: 1 Note on, C4 key =  60 ; velocity: 0
@42540 Channel: 1 Note on, D4 key =  62 ; velocity: 127
@42540 Channel: 1 Note on, A3 key =  57 ; velocity: 127
@42600 Channel: 1 Note on, D4 key =  62 ; velocity: 0
@42600 Channel: 1 Note on, A3 key =  57 ; velocity: 0
@42600 Channel: 1 Note on, G3 key =  55 ; velocity: 127
@42600 Channel: 1 Note on, C4 key =  60 ; velocity: 127
@42720 Channel: 1 Note on, G3 key =  55 ; velocity: 0
@42720 Channel: 1 Note on, C4 key =  60 ; velocity: 0
@42720 Channel: 1 Note on, C4 key =  60 ; velocity: 127
@42720 Channel: 1 Note on, G3 key =  55 ; velocity: 127
@42780 Channel: 1 Note on, C4 key =  60 ; velocity: 0
@42780 Channel: 1 Note on, G3 key =  55 ; velocity: 0
@42780 Channel: 1 Note on, E2 key =  40 ; velocity: 127
@42840 Channel: 1 Note on, E2 key =  40 ; velocity: 0
@42840 Channel: 1 Note on, E2 key =  40 ; velocity: 127
@42900 Channel: 1 Note on, E2 key =  40 ; velocity: 0
@42900 Channel: 1 Note on, E2 key =  40 ; velocity: 127
@42960 Channel: 1 Note on, E2 key =  40 ; velocity: 0
@42960 Channel: 1 Note on, G3 key =  55 ; velocity: 127
@42960 Channel: 1 Note on, C4 key =  60 ; velocity: 127
@43020 Channel: 1 Note on, G3 key =  55 ; velocity: 0
@43020 Channel: 1 Note on, C4 key =  60 ; velocity: 0
@43020 Channel: 1 Note on, D4 key =  62 ; velocity: 127
@43020 Channel: 1 Note on, A3 key =  57 ; velocity: 127
@43080 Channel: 1 Note on, D4 key =  62 ; velocity: 0
@43080 Channel: 1 Note on, A3 key =  57 ; velocity: 0
@43080 Channel: 1 Note on, G3 key =  55 ; velocity: 127
@43080 Channel: 1 Note on, C4 key =  60 ; velocity: 127
@43200 Channel: 1 Note on, G3 key =  55 ; velocity: 0
@43200 Channel: 1 Note on, C4 key =  60 ; velocity: 0
@43200 Channel: 1 Note on, C4 key =  60 ; velocity: 127
@43200 Channel: 1 Note on, G3 key =  55 ; velocity: 127
@43260 Channel: 1 Note on, C4 key =  60 ; velocity: 0
@43260 Channel: 1 Note on, G3 key =  55 ; velocity: 0
@43260 Channel: 1 Note on, E2 key =  40 ; velocity: 127
@43320 Channel: 1 Note on, E2 key =  40 ; velocity: 0
@43320 Channel: 1 Note on, E2 key =  40 ; velocity: 127
@43380 Channel: 1 Note on, E2 key =  40 ; velocity: 0
@43380 Channel: 1 Note on, E2 key =  40 ; velocity: 127
@43440 Channel: 1 Note on, E2 key =  40 ; velocity: 0
@43440 Channel: 1 Note on, G3 key =  55 ; velocity: 127
@43440 Channel: 1 Note on, C4 key =  60 ; velocity: 127
@43500 Channel: 1 Note on, G3 key =  55 ; velocity: 0
@43500 Channel: 1 Note on, C4 key =  60 ; velocity: 0
@43500 Channel: 1 Note on, D4 key =  62 ; velocity: 127
@43500 Channel: 1 Note on, A3 key =  57 ; velocity: 127
@43560 Channel: 1 Note on, D4 key =  62 ; velocity: 0
@43560 Channel: 1 Note on, A3 key =  57 ; velocity: 0
@43560 Channel: 1 Note on, G3 key =  55 ; velocity: 127
@43560 Channel: 1 Note on, C4 key =  60 ; velocity: 127
@43680 Channel: 1 Note on, G3 key =  55 ; velocity: 0
@43680 Channel: 1 Note on, C4 key =  60 ; velocity: 0
@43680 Channel: 1 Note on, D4 key =  62 ; velocity: 127
@43740 Channel: 1 Note on, D4 key =  62 ; velocity: 0
@43740 Channel: 1 Note on, C4 key =  60 ; velocity: 127
@43800 Channel: 1 Note on, C4 key =  60 ; velocity: 0
@43800 Channel: 1 Note on, A3 key =  57 ; velocity: 127
@43860 Channel: 1 Note on, A3 key =  57 ; velocity: 0
@43860 Channel: 1 Note on, G#3 key =  56 ; velocity: 127
@43920 Channel: 1 Note on, G#3 key =  56 ; velocity: 0
@43920 Channel: 1 Note on, G3 key =  55 ; velocity: 127
@43980 Channel: 1 Note on, G3 key =  55 ; velocity: 0
@43980 Channel: 1 Note on, E3 key =  52 ; velocity: 127
@44040 Channel: 1 Note on, E3 key =  52 ; velocity: 0
@44040 Channel: 1 Note on, D#3 key =  51 ; velocity: 127
@44100 Channel: 1 Note on, D#3 key =  51 ; velocity: 0
@44100 Channel: 1 Note on, D3 key =  50 ; velocity: 127
@44160 Channel: 1 Note on, D3 key =  50 ; velocity: 0
@44160 Channel: 1 Note on, C4 key =  60 ; velocity: 127
@44160 Channel: 1 Note on, G3 key =  55 ; velocity: 127
@44220 Channel: 1 Note on, C4 key =  60 ; velocity: 0
@44220 Channel: 1 Note on, G3 key =  55 ; velocity: 0
@44220 Channel: 1 Note on, E2 key =  40 ; velocity: 127
@44280 Channel: 1 Note on, E2 key =  40 ; velocity: 0
@44280 Channel: 1 Note on, E2 key =  40 ; velocity: 127
@44340 Channel: 1 Note on, E2 key =  40 ; velocity: 0
@44340 Channel: 1 Note on, E2 key =  40 ; velocity: 127
@44400 Channel: 1 Note on, E2 key =  40 ; velocity: 0
@44400 Channel: 1 Note on, G3 key =  55 ; velocity: 127
@44400 Channel: 1 Note on, C4 key =  60 ; velocity: 127
@44460 Channel: 1 Note on, G3 key =  55 ; velocity: 0
@44460 Channel: 1 Note on, C4 key =  60 ; velocity: 0
@44460 Channel: 1 Note on, D4 key =  62 ; velocity: 127
@44460 Channel: 1 Note on, A3 key =  57 ; velocity: 127
@44520 Channel: 1 Note on, D4 key =  62 ; velocity: 0
@44520 Channel: 1 Note on, A3 key =  57 ; velocity: 0
@44520 Channel: 1 Note on, G3 key =  55 ; velocity: 127
@44520 Channel: 1 Note on, C4 key =  60 ; velocity: 127
@44640 Channel: 1 Note on, G3 key =  55 ; velocity: 0
@44640 Channel: 1 Note on, C4 key =  60 ; velocity: 0
@44640 Channel: 1 Note on, C4 key =  60 ; velocity: 127
@44640 Channel: 1 Note on, G3 key =  55 ; velocity: 127
@44700 Channel: 1 Note on, C4 key =  60 ; velocity: 0
@44700 Channel: 1 Note on, G3 key =  55 ; velocity: 0
@44700 Channel: 1 Note on, E2 key =  40 ; velocity: 127
@44760 Channel: 1 Note on, E2 key =  40 ; velocity: 0
@44760 Channel: 1 Note on, E2 key =  40 ; velocity: 127
@44820 Channel: 1 Note on, E2 key =  40 ; velocity: 0
@44820 Channel: 1 Note on, E2 key =  40 ; velocity: 127
@44880 Channel: 1 Note on, E2 key =  40 ; velocity: 0
@44880 Channel: 1 Note on, G3 key =  55 ; velocity: 127
@44880 Channel: 1 Note on, C4 key =  60 ; velocity: 127
@44940 Channel: 1 Note on, G3 key =  55 ; velocity: 0
@44940 Channel: 1 Note on, C4 key =  60 ; velocity: 0
@44940 Channel: 1 Note on, D4 key =  62 ; velocity: 127
@44940 Channel: 1 Note on, A3 key =  57 ; velocity: 127
@45000 Channel: 1 Note on, D4 key =  62 ; velocity: 0
@45000 Channel: 1 Note on, A3 key =  57 ; velocity: 0
@45000 Channel: 1 Note on, G3 key =  55 ; velocity: 127
@45000 Channel: 1 Note on, C4 key =  60 ; velocity: 127
@45120 Channel: 1 Note on, G3 key =  55 ; velocity: 0
@45120 Channel: 1 Note on, C4 key =  60 ; velocity: 0
@45120 Channel: 1 Note on, C4 key =  60 ; velocity: 127
@45120 Channel: 1 Note on, G3 key =  55 ; velocity: 127
@45180 Channel: 1 Note on, C4 key =  60 ; velocity: 0
@45180 Channel: 1 Note on, G3 key =  55 ; velocity: 0
@45180 Channel: 1 Note on, E2 key =  40 ; velocity: 127
@45240 Channel: 1 Note on, E2 key =  40 ; velocity: 0
@45240 Channel: 1 Note on, E2 key =  40 ; velocity: 127
@45300 Channel: 1 Note on, E2 key =  40 ; velocity: 0
@45300 Channel: 1 Note on, E2 key =  40 ; velocity: 127
@45360 Channel: 1 Note on, E2 key =  40 ; velocity: 0
@45360 Channel: 1 Note on, G3 key =  55 ; velocity: 127
@45360 Channel: 1 Note on, C4 key =  60 ; velocity: 127
@45420 Channel: 1 Note on, G3 key =  55 ; velocity: 0
@45420 Channel: 1 Note on, C4 key =  60 ; velocity: 0
@45420 Channel: 1 Note on, D4 key =  62 ; velocity: 127
@45420 Channel: 1 Note on, A3 key =  57 ; velocity: 127
@45480 Channel: 1 Note on, D4 key =  62 ; velocity: 0
@45480 Channel: 1 Note on, A3 key =  57 ; velocity: 0
@45480 Channel: 1 Note on, G3 key =  55 ; velocity: 127
@45480 Channel: 1 Note on, C4 key =  60 ; velocity: 127
@45600 Channel: 1 Note on, G3 key =  55 ; velocity: 0
@45600 Channel: 1 Note on, C4 key =  60 ; velocity: 0
@45600 Channel: 1 Note on, E4 key =  64 ; velocity: 127
@45660 Channel: 1 Note on, E4 key =  64 ; velocity: 0
@45660 Channel: 1 Note on, D4 key =  62 ; velocity: 127
@45720 Channel: 1 Note on, D4 key =  62 ; velocity: 0
@45720 Channel: 1 Note on, B3 key =  59 ; velocity: 127
@45780 Channel: 1 Note on, B3 key =  59 ; velocity: 0
@45780 Channel: 1 Note on, D4 key =  62 ; velocity: 127
@45840 Channel: 1 Note on, D4 key =  62 ; velocity: 0
@45840 Channel: 1 Note on, B3 key =  59 ; velocity: 127
@45900 Channel: 1 Note on, B3 key =  59 ; velocity: 0
@45900 Channel: 1 Note on, A#3 key =  58 ; velocity: 127
@45960 Channel: 1 Note on, A#3 key =  58 ; velocity: 0
@45960 Channel: 1 Note on, A3 key =  57 ; velocity: 127
@46020 Channel: 1 Note on, A3 key =  57 ; velocity: 0
@46020 Channel: 1 Note on, G3 key =  55 ; velocity: 127
@46080 Channel: 1 Note on, G3 key =  55 ; velocity: 0
@46080 Channel: 1 Note on, E4 key =  64 ; velocity: 127
@46140 Channel: 1 Note on, E4 key =  64 ; velocity: 0
@46140 Channel: 1 Note on, D4 key =  62 ; velocity: 127
@46200 Channel: 1 Note on, D4 key =  62 ; velocity: 0
@46200 Channel: 1 Note on, B3 key =  59 ; velocity: 127
@46260 Channel: 1 Note on, B3 key =  59 ; velocity: 0
@46260 Channel: 1 Note on, D4 key =  62 ; velocity: 127
@46320 Channel: 1 Note on, D4 key =  62 ; velocity: 0
@46320 Channel: 1 Note on, B3 key =  59 ; velocity: 127
@46380 Channel: 1 Note on, B3 key =  59 ; velocity: 0
@46380 Channel: 1 Note on, A#3 key =  58 ; velocity: 127
@46440 Channel: 1 Note on, A#3 key =  58 ; velocity: 0
@46440 Channel: 1 Note on, A3 key =  57 ; velocity: 127
@46500 Channel: 1 Note on, A3 key =  57 ; velocity: 0
@46500 Channel: 1 Note on, G3 key =  55 ; velocity: 127
@46560 Channel: 1 Note on, G3 key =  55 ; velocity: 0
@46560 Channel: 1 Note on, D4 key =  62 ; velocity: 127
@46560 Channel: 1 Note on, G3 key =  55 ; velocity: 127
@47040 Channel: 1 Note on, D4 key =  62 ; velocity: 0
@47040 Channel: 1 Note on, G3 key =  55 ; velocity: 0
@47040 Channel: 1 Note on, C#4 key =  61 ; velocity: 127
@47040 Channel: 1 Note on, F#3 key =  54 ; velocity: 127
@47280 Channel: 1 Note on, C#4 key =  61 ; velocity: 0
@47280 Channel: 1 Note on, F#3 key =  54 ; velocity: 0
@47280 Channel: 1 Note on, C4 key =  60 ; velocity: 127
@47280 Channel: 1 Note on, F3 key =  53 ; velocity: 127
@47520 Channel: 1 Note on, C4 key =  60 ; velocity: 0
@47520 Channel: 1 Note on, F3 key =  53 ; velocity: 0
@47520 Channel: 1 Note on, E2 key =  40 ; velocity: 127
@47580 Channel: 1 Note on, E2 key =  40 ; velocity: 0
@47580 Channel: 1 Note on, E2 key =  40 ; velocity: 127
@47640 Channel: 1 Note on, E2 key =  40 ; velocity: 0
@47640 Channel: 1 Note on, E2 key =  40 ; velocity: 127
@47700 Channel: 1 Note on, E2 key =  40 ; velocity: 0
@47700 Channel: 1 Note on, E2 key =  40 ; velocity: 127
@47760 Channel: 1 Note on, E2 key =  40 ; velocity: 0
@47760 Channel: 1 Note on, E2 key =  40 ; velocity: 127
@47820 Channel: 1 Note on, E2 key =  40 ; velocity: 0
@47820 Channel: 1 Note on, E2 key =  40 ; velocity: 127
@47880 Channel: 1 Note on, E2 key =  40 ; velocity: 0
@47880 Channel: 1 Note on, E2 key =  40 ; velocity: 127
@47940 Channel: 1 Note on, E2 key =  40 ; velocity: 0
@47940 Channel: 1 Note on, E2 key =  40 ; velocity: 127
@48000 Channel: 1 Note on, E2 key =  40 ; velocity: 0
@48000 Channel: 1 Note on, E2 key =  40 ; velocity: 127
@48060 Channel: 1 Note on, E2 key =  40 ; velocity: 0
@48060 Channel: 1 Note on, E2 key =  40 ; velocity: 127
@48120 Channel: 1 Note on, E2 key =  40 ; velocity: 0
@48120 Channel: 1 Note on, E2 key =  40 ; velocity: 127
@48180 Channel: 1 Note on, E2 key =  40 ; velocity: 0
@48180 Channel: 1 Note on, E2 key =  40 ; velocity: 127
@48240 Channel: 1 Note on, E2 key =  40 ; velocity: 0
@48240 Channel: 1 Note on, E2 key =  40 ; velocity: 127
@48300 Channel: 1 Note on, E2 key =  40 ; velocity: 0
@48300 Channel: 1 Note on, E2 key =  40 ; velocity: 127
@48360 Channel: 1 Note on, E2 key =  40 ; velocity: 0
@48360 Channel: 1 Note on, E2 key =  40 ; velocity: 127
@48420 Channel: 1 Note on, E2 key =  40 ; velocity: 0
@48420 Channel: 1 Note on, E2 key =  40 ; velocity: 127
@48480 Channel: 1 Note on, E2 key =  40 ; velocity: 0
@48480 Channel: 1 Note on, D4 key =  62 ; velocity: 127
@48480 Channel: 1 Note on, G3 key =  55 ; velocity: 127
@48960 Channel: 1 Note on, D4 key =  62 ; velocity: 0
@48960 Channel: 1 Note on, G3 key =  55 ; velocity: 0
@48960 Channel: 1 Note on, C#4 key =  61 ; velocity: 127
@48960 Channel: 1 Note on, F#3 key =  54 ; velocity: 127
@49200 Channel: 1 Note on, C#4 key =  61 ; velocity: 0
@49200 Channel: 1 Note on, F#3 key =  54 ; velocity: 0
@49200 Channel: 1 Note on, C4 key =  60 ; velocity: 127
@49200 Channel: 1 Note on, F3 key =  53 ; velocity: 127
@49440 Channel: 1 Note on, C4 key =  60 ; velocity: 0
@49440 Channel: 1 Note on, F3 key =  53 ; velocity: 0
@49440 Channel: 1 Note on, E2 key =  40 ; velocity: 127
@49500 Channel: 1 Note on, E2 key =  40 ; velocity: 0
@49500 Channel: 1 Note on, E2 key =  40 ; velocity: 127
@49560 Channel: 1 Note on, E2 key =  40 ; velocity: 0
@49560 Channel: 1 Note on, E2 key =  40 ; velocity: 127
@49620 Channel: 1 Note on, E2 key =  40 ; velocity: 0
@49620 Channel: 1 Note on, E2 key =  40 ; velocity: 127
@49680 Channel: 1 Note on, E2 key =  40 ; velocity: 0
@49680 Channel: 1 Note on, E2 key =  40 ; velocity: 127
@49740 Channel: 1 Note on, E2 key =  40 ; velocity: 0
@49740 Channel: 1 Note on, E2 key =  40 ; velocity: 127
@49800 Channel: 1 Note on, E2 key =  40 ; velocity: 0
@49800 Channel: 1 Note on, E2 key =  40 ; velocity: 127
@49860 Channel: 1 Note on, E2 key =  40 ; velocity: 0
@49860 Channel: 1 Note on, E2 key =  40 ; velocity: 127
@49920 Channel: 1 Note on, E2 key =  40 ; velocity: 0
@49920 Channel: 1 Note on, E2 key =  40 ; velocity: 127
@49980 Channel: 1 Note on, E2 key =  40 ; velocity: 0
@49980 Channel: 1 Note on, E2 key =  40 ; velocity: 127
@50040 Channel: 1 Note on, E2 key =  40 ; velocity: 0
@50040 Channel: 1 Note on, E2 key =  40 ; velocity: 127
@50100 Channel: 1 Note on, E2 key =  40 ; velocity: 0
@50100 Channel: 1 Note on, E2 key =  40 ; velocity: 127
@50160 Channel: 1 Note on, E2 key =  40 ; velocity: 0
@50160 Channel: 1 Note on, E2 key =  40 ; velocity: 127
@50220 Channel: 1 Note on, E2 key =  40 ; velocity: 0
@50220 Channel: 1 Note on, E2 key =  40 ; velocity: 127
@50280 Channel: 1 Note on, E2 key =  40 ; velocity: 0
@50280 Channel: 1 Note on, E2 key =  40 ; velocity: 127
@50340 Channel: 1 Note on, E2 key =  40 ; velocity: 0
@50340 Channel: 1 Note on, E2 key =  40 ; velocity: 127
@50400 Channel: 1 Note on, E2 key =  40 ; velocity: 0
@50400 Channel: 1 Note on, D4 key =  62 ; velocity: 127
@50400 Channel: 1 Note on, G3 key =  55 ; velocity: 127
@50880 Channel: 1 Note on, D4 key =  62 ; velocity: 0
@50880 Channel: 1 Note on, G3 key =  55 ; velocity: 0
@50880 Channel: 1 Note on, C#4 key =  61 ; velocity: 127
@50880 Channel: 1 Note on, F#3 key =  54 ; velocity: 127
@51120 Channel: 1 Note on, C#4 key =  61 ; velocity: 0
@51120 Channel: 1 Note on, F#3 key =  54 ; velocity: 0
@51120 Channel: 1 Note on, C4 key =  60 ; velocity: 127
@51120 Channel: 1 Note on, F3 key =  53 ; velocity: 127
@51360 Channel: 1 Note on, C4 key =  60 ; velocity: 0
@51360 Channel: 1 Note on, F3 key =  53 ; velocity: 0
@51360 Channel: 1 Note on, E2 key =  40 ; velocity: 127
@51420 Channel: 1 Note on, E2 key =  40 ; velocity: 0
@51420 Channel: 1 Note on, E2 key =  40 ; velocity: 127
@51480 Channel: 1 Note on, E2 key =  40 ; velocity: 0
@51480 Channel: 1 Note on, E2 key =  40 ; velocity: 127
@51540 Channel: 1 Note on, E2 key =  40 ; velocity: 0
@51540 Channel: 1 Note on, E2 key =  40 ; velocity: 127
@51600 Channel: 1 Note on, E2 key =  40 ; velocity: 0
@51600 Channel: 1 Note on, E2 key =  40 ; velocity: 127
@51660 Channel: 1 Note on, E2 key =  40 ; velocity: 0
@51660 Channel: 1 Note on, E2 key =  40 ; velocity: 127
@51720 Channel: 1 Note on, E2 key =  40 ; velocity: 0
@51720 Channel: 1 Note on, E2 key =  40 ; velocity: 127
@51780 Channel: 1 Note on, E2 key =  40 ; velocity: 0
@51780 Channel: 1 Note on, E2 key =  40 ; velocity: 127
@51840 Channel: 1 Note on, E2 key =  40 ; velocity: 0
@51840 Channel: 1 Note on, E2 key =  40 ; velocity: 127
@51900 Channel: 1 Note on, E2 key =  40 ; velocity: 0
@51900 Channel: 1 Note on, E2 key =  40 ; velocity: 127
@51960 Channel: 1 Note on, E2 key =  40 ; velocity: 0
@51960 Channel: 1 Note on, E2 key =  40 ; velocity: 127
@52020 Channel: 1 Note on, E2 key =  40 ; velocity: 0
@52020 Channel: 1 Note on, E2 key =  40 ; velocity: 127
@52080 Channel: 1 Note on, E2 key =  40 ; velocity: 0
@52080 Channel: 1 Note on, E2 key =  40 ; velocity: 127
@52140 Channel: 1 Note on, E2 key =  40 ; velocity: 0
@52140 Channel: 1 Note on, E2 key =  40 ; velocity: 127
@52200 Channel: 1 Note on, E2 key =  40 ; velocity: 0
@52200 Channel: 1 Note on, E2 key =  40 ; velocity: 127
@52260 Channel: 1 Note on, E2 key =  40 ; velocity: 0
@52260 Channel: 1 Note on, E2 key =  40 ; velocity: 127
@52320 Channel: 1 Note on, E2 key =  40 ; velocity: 0
@52320 Channel: 1 Note on, D4 key =  62 ; velocity: 127
@52320 Channel: 1 Note on, G3 key =  55 ; velocity: 127
@52800 Channel: 1 Note on, D4 key =  62 ; velocity: 0
@52800 Channel: 1 Note on, G3 key =  55 ; velocity: 0
@52800 Channel: 1 Note on, C#4 key =  61 ; velocity: 127
@52800 Channel: 1 Note on, F#3 key =  54 ; velocity: 127
@53040 Channel: 1 Note on, C#4 key =  61 ; velocity: 0
@53040 Channel: 1 Note on, F#3 key =  54 ; velocity: 0
@53040 Channel: 1 Note on, C4 key =  60 ; velocity: 127
@53040 Channel: 1 Note on, F3 key =  53 ; velocity: 127
@53280 Channel: 1 Note on, C4 key =  60 ; velocity: 0
@53280 Channel: 1 Note on, F3 key =  53 ; velocity: 0
@53280 Channel: 1 Note on, E4 key =  64 ; velocity: 127
@53280 Channel: 1 Note on, B3 key =  59 ; velocity: 127
@53280 Channel: 1 Note on, E3 key =  52 ; velocity: 127
@53280 Channel: 1 Note on, E2 key =  40 ; velocity: 127
@53760 Channel: 1 Note on, E4 key =  64 ; velocity: 0
@53760 Channel: 1 Note on, B3 key =  59 ; velocity: 0
@53760 Channel: 1 Note on, E3 key =  52 ; velocity: 0
@53760 Channel: 1 Note on, E2 key =  40 ; velocity: 0
@53760 Channel: 1 Note on, G#4 key =  68 ; velocity: 127
@53760 Channel: 1 Note on, E4 key =  64 ; velocity: 127
@53760 Channel: 1 Note on, B3 key =  59 ; velocity: 127
@53760 Channel: 1 Note on, E3 key =  52 ; velocity: 127
@53880 Channel: 1 Note on, G#4 key =  68 ; velocity: 0
@53880 Channel: 1 Note on, E4 key =  64 ; velocity: 0
@53880 Channel: 1 Note on, B3 key =  59 ; velocity: 0
@53880 Channel: 1 Note on, E3 key =  52 ; velocity: 0
@55680 Channel: 1 Note on, A2 key =  45 ; velocity: 127
@55680 Channel: 1 Note on, G3 key =  55 ; velocity: 127
@55740 Channel: 1 Note on, A2 key =  45 ; velocity: 0
@55740 Channel: 1 Note on, G3 key =  55 ; velocity: 0
@55740 Channel: 1 Note on, A3 key =  57 ; velocity: 127
@55740 Channel: 1 Note on, A2 key =  45 ; velocity: 127
@55800 Channel: 1 Note on, A3 key =  57 ; velocity: 0
@55800 Channel: 1 Note on, A2 key =  45 ; velocity: 0
@55800 Channel: 1 Note on, A2 key =  45 ; velocity: 127
@55860 Channel: 1 Note on, A2 key =  45 ; velocity: 0
@55860 Channel: 1 Note on, A3 key =  57 ; velocity: 127
@55920 Channel: 1 Note on, A3 key =  57 ; velocity: 0
@55920 Channel: 1 Note on, A2 key =  45 ; velocity: 127
@55980 Channel: 1 Note on, A2 key =  45 ; velocity: 0
@55980 Channel: 1 Note on, A2 key =  45 ; velocity: 127
@56040 Channel: 1 Note on, A2 key =  45 ; velocity: 0
@56040 Channel: 1 Note on, A3 key =  57 ; velocity: 127
@56100 Channel: 1 Note on, A3 key =  57 ; velocity: 0
@56100 Channel: 1 Note on, A2 key =  45 ; velocity: 127
@56160 Channel: 1 Note on, A2 key =  45 ; velocity: 0
@56160 Channel: 1 Note on, C4 key =  60 ; velocity: 127
@56160 Channel: 1 Note on, G3 key =  55 ; velocity: 127
@56220 Channel: 1 Note on, C4 key =  60 ; velocity: 0
@56220 Channel: 1 Note on, G3 key =  55 ; velocity: 0
@56220 Channel: 1 Note on, A2 key =  45 ; velocity: 127
@56280 Channel: 1 Note on, A2 key =  45 ; velocity: 0
@56280 Channel: 1 Note on, A2 key =  45 ; velocity: 127
@56340 Channel: 1 Note on, A2 key =  45 ; velocity: 0
@56340 Channel: 1 Note on, A3 key =  57 ; velocity: 127
@56400 Channel: 1 Note on, A3 key =  57 ; velocity: 0
@56400 Channel: 1 Note on, A2 key =  45 ; velocity: 127
@56460 Channel: 1 Note on, A2 key =  45 ; velocity: 0
@56460 Channel: 1 Note on, A2 key =  45 ; velocity: 127
@56520 Channel: 1 Note on, A2 key =  45 ; velocity: 0
@56520 Channel: 1 Note on, A3 key =  57 ; velocity: 127
@56580 Channel: 1 Note on, A3 key =  57 ; velocity: 0
@56580 Channel: 1 Note on, A2 key =  45 ; velocity: 127
@56640 Channel: 1 Note on, A2 key =  45 ; velocity: 0
@56640 Channel: 1 Note on, B3 key =  59 ; velocity: 127
@56640 Channel: 1 Note on, F#3 key =  54 ; velocity: 127
@56700 Channel: 1 Note on, B3 key =  59 ; velocity: 0
@56700 Channel: 1 Note on, F#3 key =  54 ; velocity: 0
@56700 Channel: 1 Note on, A2 key =  45 ; velocity: 127
@56760 Channel: 1 Note on, A2 key =  45 ; velocity: 0
@56760 Channel: 1 Note on, A2 key =  45 ; velocity: 127
@56820 Channel: 1 Note on, A2 key =  45 ; velocity: 0
@56820 Channel: 1 Note on, A3 key =  57 ; velocity: 127
@56880 Channel: 1 Note on, A3 key =  57 ; velocity: 0
@56880 Channel: 1 Note on, A2 key =  45 ; velocity: 127
@56940 Channel: 1 Note on, A2 key =  45 ; velocity: 0
@56940 Channel: 1 Note on, A2 key =  45 ; velocity: 127
@57000 Channel: 1 Note on, A2 key =  45 ; velocity: 0
@57000 Channel: 1 Note on, A3 key =  57 ; velocity: 127
@57120 Channel: 1 Note on, A3 key =  57 ; velocity: 0
@57120 Channel: 1 Note on, C3 key =  48 ; velocity: 127
@57180 Channel: 1 Note on, C3 key =  48 ; velocity: 0
@57180 Channel: 1 Note on, B2 key =  47 ; velocity: 127
@57240 Channel: 1 Note on, B2 key =  47 ; velocity: 0
@57240 Channel: 1 Note on, A2 key =  45 ; velocity: 127
@57300 Channel: 1 Note on, A2 key =  45 ; velocity: 0
@57300 Channel: 1 Note on, F3 key =  53 ; velocity: 127
@57360 Channel: 1 Note on, F3 key =  53 ; velocity: 0
@57360 Channel: 1 Note on, E3 key =  52 ; velocity: 127
@57420 Channel: 1 Note on, E3 key =  52 ; velocity: 0
@57420 Channel: 1 Note on, D3 key =  50 ; velocity: 127
@57480 Channel: 1 Note on, D3 key =  50 ; velocity: 0
@57480 Channel: 1 Note on, C3 key =  48 ; velocity: 127
@57540 Channel: 1 Note on, C3 key =  48 ; velocity: 0
@57540 Channel: 1 Note on, A2 key =  45 ; velocity: 127
@57600 Channel: 1 Note on, A2 key =  45 ; velocity: 0
@57600 Channel: 1 Note on, G3 key =  55 ; velocity: 127
@57660 Channel: 1 Note on, G3 key =  55 ; velocity: 0
@57660 Channel: 1 Note on, A2 key =  45 ; velocity: 127
@57720 Channel: 1 Note on, A2 key =  45 ; velocity: 0
@57720 Channel: 1 Note on, A2 key =  45 ; velocity: 127
@57780 Channel: 1 Note on, A2 key =  45 ; velocity: 0
@57780 Channel: 1 Note on, A3 key =  57 ; velocity: 127
@57840 Channel: 1 Note on, A3 key =  57 ; velocity: 0
@57840 Channel: 1 Note on, A2 key =  45 ; velocity: 127
@57900 Channel: 1 Note on, A2 key =  45 ; velocity: 0
@57900 Channel: 1 Note on, A2 key =  45 ; velocity: 127
@57960 Channel: 1 Note on, A2 key =  45 ; velocity: 0
@57960 Channel: 1 Note on, A3 key =  57 ; velocity: 127
@58020 Channel: 1 Note on, A3 key =  57 ; velocity: 0
@58020 Channel: 1 Note on, A2 key =  45 ; velocity: 127
@58080 Channel: 1 Note on, A2 key =  45 ; velocity: 0
@58080 Channel: 1 Note on, C4 key =  60 ; velocity: 127
@58080 Channel: 1 Note on, G3 key =  55 ; velocity: 127
@58140 Channel: 1 Note on, C4 key =  60 ; velocity: 0
@58140 Channel: 1 Note on, G3 key =  55 ; velocity: 0
@58140 Channel: 1 Note on, A2 key =  45 ; velocity: 127
@58200 Channel: 1 Note on, A2 key =  45 ; velocity: 0
@58200 Channel: 1 Note on, A2 key =  45 ; velocity: 127
@58260 Channel: 1 Note on, A2 key =  45 ; velocity: 0
@58260 Channel: 1 Note on, A3 key =  57 ; velocity: 127
@58320 Channel: 1 Note on, A3 key =  57 ; velocity: 0
@58320 Channel: 1 Note on, A2 key =  45 ; velocity: 127
@58380 Channel: 1 Note on, A2 key =  45 ; velocity: 0
@58380 Channel: 1 Note on, A2 key =  45 ; velocity: 127
@58440 Channel: 1 Note on, A2 key =  45 ; velocity: 0
@58440 Channel: 1 Note on, A3 key =  57 ; velocity: 127
@58500 Channel: 1 Note on, A3 key =  57 ; velocity: 0
@58500 Channel: 1 Note on, A2 key =  45 ; velocity: 127
@58560 Channel: 1 Note on, A2 key =  45 ; velocity: 0
@58560 Channel: 1 Note on, B3 key =  59 ; velocity: 127
@58560 Channel: 1 Note on, F#3 key =  54 ; velocity: 127
@58620 Channel: 1 Note on, B3 key =  59 ; velocity: 0
@58620 Channel: 1 Note on, F#3 key =  54 ; velocity: 0
@58620 Channel: 1 Note on, A2 key =  45 ; velocity: 127
@58680 Channel: 1 Note on, A2 key =  45 ; velocity: 0
@58680 Channel: 1 Note on, A2 key =  45 ; velocity: 127
@58740 Channel: 1 Note on, A2 key =  45 ; velocity: 0
@58740 Channel: 1 Note on, A3 key =  57 ; velocity: 127
@58800 Channel: 1 Note on, A3 key =  57 ; velocity: 0
@58800 Channel: 1 Note on, A2 key =  45 ; velocity: 127
@58860 Channel: 1 Note on, A2 key =  45 ; velocity: 0
@58860 Channel: 1 Note on, A2 key =  45 ; velocity: 127
@58920 Channel: 1 Note on, A2 key =  45 ; velocity: 0
@58920 Channel: 1 Note on, A3 key =  57 ; velocity: 127
@59040 Channel: 1 Note on, A3 key =  57 ; velocity: 0
@59040 Channel: 1 Note on, C3 key =  48 ; velocity: 127
@59100 Channel: 1 Note on, C3 key =  48 ; velocity: 0
@59100 Channel: 1 Note on, B2 key =  47 ; velocity: 127
@59160 Channel: 1 Note on, B2 key =  47 ; velocity: 0
@59160 Channel: 1 Note on, A2 key =  45 ; velocity: 127
@59220 Channel: 1 Note on, A2 key =  45 ; velocity: 0
@59220 Channel: 1 Note on, F3 key =  53 ; velocity: 127
@59280 Channel: 1 Note on, F3 key =  53 ; velocity: 0
@59280 Channel: 1 Note on, E3 key =  52 ; velocity: 127
@59340 Channel: 1 Note on, E3 key =  52 ; velocity: 0
@59340 Channel: 1 Note on, D3 key =  50 ; velocity: 127
@59400 Channel: 1 Note on, D3 key =  50 ; velocity: 0
@59400 Channel: 1 Note on, C3 key =  48 ; velocity: 127
@59460 Channel: 1 Note on, C3 key =  48 ; velocity: 0
@59460 Channel: 1 Note on, A2 key =  45 ; velocity: 127
@59520 Channel: 1 Note on, A2 key =  45 ; velocity: 0
@59520 Channel: 1 Note on, G3 key =  55 ; velocity: 127
@59580 Channel: 1 Note on, G3 key =  55 ; velocity: 0
@59580 Channel: 1 Note on, A2 key =  45 ; velocity: 127
@59640 Channel: 1 Note on, A2 key =  45 ; velocity: 0
@59640 Channel: 1 Note on, A2 key =  45 ; velocity: 127
@59700 Channel: 1 Note on, A2 key =  45 ; velocity: 0
@59700 Channel: 1 Note on, A3 key =  57 ; velocity: 127
@59760 Channel: 1 Note on, A3 key =  57 ; velocity: 0
@59760 Channel: 1 Note on, A2 key =  45 ; velocity: 127
@59820 Channel: 1 Note on, A2 key =  45 ; velocity: 0
@59820 Channel: 1 Note on, A2 key =  45 ; velocity: 127
@59880 Channel: 1 Note on, A2 key =  45 ; velocity: 0
@59880 Channel: 1 Note on, A3 key =  57 ; velocity: 127
@59940 Channel: 1 Note on, A3 key =  57 ; velocity: 0
@59940 Channel: 1 Note on, A2 key =  45 ; velocity: 127
@60000 Channel: 1 Note on, A2 key =  45 ; velocity: 0
@60000 Channel: 1 Note on, C4 key =  60 ; velocity: 127
@60000 Channel: 1 Note on, G3 key =  55 ; velocity: 127
@60060 Channel: 1 Note on, C4 key =  60 ; velocity: 0
@60060 Channel: 1 Note on, G3 key =  55 ; velocity: 0
@60060 Channel: 1 Note on, A2 key =  45 ; velocity: 127
@60120 Channel: 1 Note on, A2 key =  45 ; velocity: 0
@60120 Channel: 1 Note on, A2 key =  45 ; velocity: 127
@60180 Channel: 1 Note on, A2 key =  45 ; velocity: 0
@60180 Channel: 1 Note on, A3 key =  57 ; velocity: 127
@60240 Channel: 1 Note on, A3 key =  57 ; velocity: 0
@60240 Channel: 1 Note on, A2 key =  45 ; velocity: 127
@60300 Channel: 1 Note on, A2 key =  45 ; velocity: 0
@60300 Channel: 1 Note on, A2 key =  45 ; velocity: 127
@60360 Channel: 1 Note on, A2 key =  45 ; velocity: 0
@60360 Channel: 1 Note on, A3 key =  57 ; velocity: 127
@60420 Channel: 1 Note on, A3 key =  57 ; velocity: 0
@60420 Channel: 1 Note on, A2 key =  45 ; velocity: 127
@60480 Channel: 1 Note on, A2 key =  45 ; velocity: 0
@60480 Channel: 1 Note on, B3 key =  59 ; velocity: 127
@60480 Channel: 1 Note on, F#3 key =  54 ; velocity: 127
@60540 Channel: 1 Note on, B3 key =  59 ; velocity: 0
@60540 Channel: 1 Note on, F#3 key =  54 ; velocity: 0
@60540 Channel: 1 Note on, A2 key =  45 ; velocity: 127
@60600 Channel: 1 Note on, A2 key =  45 ; velocity: 0
@60600 Channel: 1 Note on, A2 key =  45 ; velocity: 127
@60660 Channel: 1 Note on, A2 key =  45 ; velocity: 0
@60660 Channel: 1 Note on, A3 key =  57 ; velocity: 127
@60720 Channel: 1 Note on, A3 key =  57 ; velocity: 0
@60720 Channel: 1 Note on, A2 key =  45 ; velocity: 127
@60780 Channel: 1 Note on, A2 key =  45 ; velocity: 0
@60780 Channel: 1 Note on, A2 key =  45 ; velocity: 127
@60840 Channel: 1 Note on, A2 key =  45 ; velocity: 0
@60840 Channel: 1 Note on, A3 key =  57 ; velocity: 127
@60960 Channel: 1 Note on, A3 key =  57 ; velocity: 0
@60960 Channel: 1 Note on, C3 key =  48 ; velocity: 127
@61020 Channel: 1 Note on, C3 key =  48 ; velocity: 0
@61020 Channel: 1 Note on, B2 key =  47 ; velocity: 127
@61080 Channel: 1 Note on, B2 key =  47 ; velocity: 0
@61080 Channel: 1 Note on, A2 key =  45 ; velocity: 127
@61140 Channel: 1 Note on, A2 key =  45 ; velocity: 0
@61140 Channel: 1 Note on, F3 key =  53 ; velocity: 127
@61200 Channel: 1 Note on, F3 key =  53 ; velocity: 0
@61200 Channel: 1 Note on, E3 key =  52 ; velocity: 127
@61260 Channel: 1 Note on, E3 key =  52 ; velocity: 0
@61260 Channel: 1 Note on, D3 key =  50 ; velocity: 127
@61320 Channel: 1 Note on, D3 key =  50 ; velocity: 0
@61320 Channel: 1 Note on, C3 key =  48 ; velocity: 127
@61380 Channel: 1 Note on, C3 key =  48 ; velocity: 0
@61380 Channel: 1 Note on, A2 key =  45 ; velocity: 127
@61440 Channel: 1 Note on, A2 key =  45 ; velocity: 0
@61440 Channel: 1 Note on, G3 key =  55 ; velocity: 127
@61500 Channel: 1 Note on, G3 key =  55 ; velocity: 0
@61500 Channel: 1 Note on, A2 key =  45 ; velocity: 127
@61560 Channel: 1 Note on, A2 key =  45 ; velocity: 0
@61560 Channel: 1 Note on, A2 key =  45 ; velocity: 127
@61620 Channel: 1 Note on, A2 key =  45 ; velocity: 0
@61620 Channel: 1 Note on, A3 key =  57 ; velocity: 127
@61680 Channel: 1 Note on, A3 key =  57 ; velocity: 0
@61680 Channel: 1 Note on, A2 key =  45 ; velocity: 127
@61740 Channel: 1 Note on, A2 key =  45 ; velocity: 0
@61740 Channel: 1 Note on, A2 key =  45 ; velocity: 127
@61800 Channel: 1 Note on, A2 key =  45 ; velocity: 0
@61800 Channel: 1 Note on, A3 key =  57 ; velocity: 127
@61860 Channel: 1 Note on, A3 key =  57 ; velocity: 0
@61860 Channel: 1 Note on, A2 key =  45 ; velocity: 127
@61920 Channel: 1 Note on, A2 key =  45 ; velocity: 0
@61920 Channel: 1 Note on, C4 key =  60 ; velocity: 127
@61920 Channel: 1 Note on, G3 key =  55 ; velocity: 127
@61980 Channel: 1 Note on, C4 key =  60 ; velocity: 0
@61980 Channel: 1 Note on, G3 key =  55 ; velocity: 0
@61980 Channel: 1 Note on, A2 key =  45 ; velocity: 127
@62040 Channel: 1 Note on, A2 key =  45 ; velocity: 0
@62040 Channel: 1 Note on, A2 key =  45 ; velocity: 127
@62100 Channel: 1 Note on, A2 key =  45 ; velocity: 0
@62100 Channel: 1 Note on, A3 key =  57 ; velocity: 127
@62160 Channel: 1 Note on, A3 key =  57 ; velocity: 0
@62160 Channel: 1 Note on, A2 key =  45 ; velocity: 127
@62220 Channel: 1 Note on, A2 key =  45 ; velocity: 0
@62220 Channel: 1 Note on, A2 key =  45 ; velocity: 127
@62280 Channel: 1 Note on, A2 key =  45 ; velocity: 0
@62280 Channel: 1 Note on, A3 key =  57 ; velocity: 127
@62340 Channel: 1 Note on, A3 key =  57 ; velocity: 0
@62340 Channel: 1 Note on, A2 key =  45 ; velocity: 127
@62400 Channel: 1 Note on, A2 key =  45 ; velocity: 0
@62400 Channel: 1 Note on, B3 key =  59 ; velocity: 127
@62400 Channel: 1 Note on, F#3 key =  54 ; velocity: 127
@62460 Channel: 1 Note on, B3 key =  59 ; velocity: 0
@62460 Channel: 1 Note on, F#3 key =  54 ; velocity: 0
@62460 Channel: 1 Note on, A2 key =  45 ; velocity: 127
@62520 Channel: 1 Note on, A2 key =  45 ; velocity: 0
@62520 Channel: 1 Note on, A2 key =  45 ; velocity: 127
@62580 Channel: 1 Note on, A2 key =  45 ; velocity: 0
@62580 Channel: 1 Note on, A3 key =  57 ; velocity: 127
@62640 Channel: 1 Note on, A3 key =  57 ; velocity: 0
@62640 Channel: 1 Note on, A2 key =  45 ; velocity: 127
@62700 Channel: 1 Note on, A2 key =  45 ; velocity: 0
@62700 Channel: 1 Note on, A2 key =  45 ; velocity: 127
@62760 Channel: 1 Note on, A2 key =  45 ; velocity: 0
@62760 Channel: 1 Note on, A3 key =  57 ; velocity: 127
@62880 Channel: 1 Note on, A3 key =  57 ; velocity: 0
@62880 Channel: 1 Note on, C3 key =  48 ; velocity: 127
@62940 Channel: 1 Note on, C3 key =  48 ; velocity: 0
@62940 Channel: 1 Note on, B2 key =  47 ; velocity: 127
@63000 Channel: 1 Note on, B2 key =  47 ; velocity: 0
@63000 Channel: 1 Note on, A2 key =  45 ; velocity: 127
@63060 Channel: 1 Note on, A2 key =  45 ; velocity: 0
@63060 Channel: 1 Note on, F3 key =  53 ; velocity: 127
@63120 Channel: 1 Note on, F3 key =  53 ; velocity: 0
@63120 Channel: 1 Note on, E3 key =  52 ; velocity: 127
@63180 Channel: 1 Note on, E3 key =  52 ; velocity: 0
@63180 Channel: 1 Note on, D3 key =  50 ; velocity: 127
@63240 Channel: 1 Note on, D3 key =  50 ; velocity: 0
@63240 Channel: 1 Note on, C3 key =  48 ; velocity: 127
@63300 Channel: 1 Note on, C3 key =  48 ; velocity: 0
@63300 Channel: 1 Note on, A2 key =  45 ; velocity: 127
@63360 Channel: 1 Note on, A2 key =  45 ; velocity: 0
@63360 Channel: 1 Note on, D4 key =  62 ; velocity: 127
@63360 Channel: 1 Note on, G3 key =  55 ; velocity: 127
@63840 Channel: 1 Note on, D4 key =  62 ; velocity: 0
@63840 Channel: 1 Note on, G3 key =  55 ; velocity: 0
@63840 Channel: 1 Note on, C#4 key =  61 ; velocity: 127
@63840 Channel: 1 Note on, F#3 key =  54 ; velocity: 127
@64080 Channel: 1 Note on, C#4 key =  61 ; velocity: 0
@64080 Channel: 1 Note on, F#3 key =  54 ; velocity: 0
@64080 Channel: 1 Note on, C4 key =  60 ; velocity: 127
@64080 Channel: 1 Note on, F3 key =  53 ; velocity: 127
@64320 Channel: 1 Note on, C4 key =  60 ; velocity: 0
@64320 Channel: 1 Note on, F3 key =  53 ; velocity: 0
@64320 Channel: 1 Note on, E2 key =  40 ; velocity: 127
@64380 Channel: 1 Note on, E2 key =  40 ; velocity: 0
@64380 Channel: 1 Note on, E2 key =  40 ; velocity: 127
@64440 Channel: 1 Note on, E2 key =  40 ; velocity: 0
@64440 Channel: 1 Note on, E2 key =  40 ; velocity: 127
@64500 Channel: 1 Note on, E2 key =  40 ; velocity: 0
@64500 Channel: 1 Note on, E2 key =  40 ; velocity: 127
@64560 Channel: 1 Note on, E2 key =  40 ; velocity: 0
@64560 Channel: 1 Note on, E2 key =  40 ; velocity: 127
@64620 Channel: 1 Note on, E2 key =  40 ; velocity: 0
@64620 Channel: 1 Note on, E2 key =  40 ; velocity: 127
@64680 Channel: 1 Note on, E2 key =  40 ; velocity: 0
@64680 Channel: 1 Note on, E2 key =  40 ; velocity: 127
@64740 Channel: 1 Note on, E2 key =  40 ; velocity: 0
@64740 Channel: 1 Note on, E2 key =  40 ; velocity: 127
@64800 Channel: 1 Note on, E2 key =  40 ; velocity: 0
@64800 Channel: 1 Note on, E2 key =  40 ; velocity: 127
@64860 Channel: 1 Note on, E2 key =  40 ; velocity: 0
@64860 Channel: 1 Note on, E2 key =  40 ; velocity: 127
@64920 Channel: 1 Note on, E2 key =  40 ; velocity: 0
@64920 Channel: 1 Note on, E2 key =  40 ; velocity: 127
@64980 Channel: 1 Note on, E2 key =  40 ; velocity: 0
@64980 Channel: 1 Note on, E2 key =  40 ; velocity: 127
@65040 Channel: 1 Note on, E2 key =  40 ; velocity: 0
@65040 Channel: 1 Note on, E2 key =  40 ; velocity: 127
@65100 Channel: 1 Note on, E2 key =  40 ; velocity: 0
@65100 Channel: 1 Note on, E2 key =  40 ; velocity: 127
@65160 Channel: 1 Note on, E2 key =  40 ; velocity: 0
@65160 Channel: 1 Note on, E2 key =  40 ; velocity: 127
@65220 Channel: 1 Note on, E2 key =  40 ; velocity: 0
@65220 Channel: 1 Note on, E2 key =  40 ; velocity: 127
@65280 Channel: 1 Note on, E2 key =  40 ; velocity: 0
@65280 Channel: 1 Note on, D4 key =  62 ; velocity: 127
@65280 Channel: 1 Note on, G3 key =  55 ; velocity: 127
@65760 Channel: 1 Note on, D4 key =  62 ; velocity: 0
@65760 Channel: 1 Note on, G3 key =  55 ; velocity: 0
@65760 Channel: 1 Note on, C#4 key =  61 ; velocity: 127
@65760 Channel: 1 Note on, F#3 key =  54 ; velocity: 127
@66000 Channel: 1 Note on, C#4 key =  61 ; velocity: 0
@66000 Channel: 1 Note on, F#3 key =  54 ; velocity: 0
@66000 Channel: 1 Note on, C4 key =  60 ; velocity: 127
@66000 Channel: 1 Note on, F3 key =  53 ; velocity: 127
@66240 Channel: 1 Note on, C4 key =  60 ; velocity: 0
@66240 Channel: 1 Note on, F3 key =  53 ; velocity: 0
@66240 Channel: 1 Note on, E2 key =  40 ; velocity: 127
@66300 Channel: 1 Note on, E2 key =  40 ; velocity: 0
@66300 Channel: 1 Note on, E2 key =  40 ; velocity: 127
@66360 Channel: 1 Note on, E2 key =  40 ; velocity: 0
@66360 Channel: 1 Note on, E2 key =  40 ; velocity: 127
@66420 Channel: 1 Note on, E2 key =  40 ; velocity: 0
@66420 Channel: 1 Note on, E2 key =  40 ; velocity: 127
@66480 Channel: 1 Note on, E2 key =  40 ; velocity: 0
@66480 Channel: 1 Note on, E2 key =  40 ; velocity: 127
@66540 Channel: 1 Note on, E2 key =  40 ; velocity: 0
@66540 Channel: 1 Note on, E2 key =  40 ; velocity: 127
@66600 Channel: 1 Note on, E2 key =  40 ; velocity: 0
@66600 Channel: 1 Note on, E2 key =  40 ; velocity: 127
@66660 Channel: 1 Note on, E2 key =  40 ; velocity: 0
@66660 Channel: 1 Note on, E2 key =  40 ; velocity: 127
@66720 Channel: 1 Note on, E2 key =  40 ; velocity: 0
@66720 Channel: 1 Note on, E2 key =  40 ; velocity: 127
@66780 Channel: 1 Note on, E2 key =  40 ; velocity: 0
@66780 Channel: 1 Note on, E2 key =  40 ; velocity: 127
@66840 Channel: 1 Note on, E2 key =  40 ; velocity: 0
@66840 Channel: 1 Note on, E2 key =  40 ; velocity: 127
@66900 Channel: 1 Note on, E2 key =  40 ; velocity: 0
@66900 Channel: 1 Note on, E2 key =  40 ; velocity: 127
@66960 Channel: 1 Note on, E2 key =  40 ; velocity: 0
@66960 Channel: 1 Note on, E2 key =  40 ; velocity: 127
@67020 Channel: 1 Note on, E2 key =  40 ; velocity: 0
@67020 Channel: 1 Note on, E2 key =  40 ; velocity: 127
@67080 Channel: 1 Note on, E2 key =  40 ; velocity: 0
@67080 Channel: 1 Note on, E2 key =  40 ; velocity: 127
@67140 Channel: 1 Note on, E2 key =  40 ; velocity: 0
@67140 Channel: 1 Note on, E2 key =  40 ; velocity: 127
@67200 Channel: 1 Note on, E2 key =  40 ; velocity: 0
@67200 Channel: 1 Note on, D4 key =  62 ; velocity: 127
@67200 Channel: 1 Note on, G3 key =  55 ; velocity: 127
@67680 Channel: 1 Note on, D4 key =  62 ; velocity: 0
@67680 Channel: 1 Note on, G3 key =  55 ; velocity: 0
@67680 Channel: 1 Note on, C#4 key =  61 ; velocity: 127
@67680 Channel: 1 Note on, F#3 key =  54 ; velocity: 127
@67920 Channel: 1 Note on, C#4 key =  61 ; velocity: 0
@67920 Channel: 1 Note on, F#3 key =  54 ; velocity: 0
@67920 Channel: 1 Note on, C4 key =  60 ; velocity: 127
@67920 Channel: 1 Note on, F3 key =  53 ; velocity: 127
@68160 Channel: 1 Note on, C4 key =  60 ; velocity: 0
@68160 Channel: 1 Note on, F3 key =  53 ; velocity: 0
@68160 Channel: 1 Note on, E2 key =  40 ; velocity: 127
@68220 Channel: 1 Note on, E2 key =  40 ; velocity: 0
@68220 Channel: 1 Note on, E2 key =  40 ; velocity: 127
@68280 Channel: 1 Note on, E2 key =  40 ; velocity: 0
@68280 Channel: 1 Note on, E2 key =  40 ; velocity: 127
@68340 Channel: 1 Note on, E2 key =  40 ; velocity: 0
@68340 Channel: 1 Note on, E2 key =  40 ; velocity: 127
@68400 Channel: 1 Note on, E2 key =  40 ; velocity: 0
@68400 Channel: 1 Note on, E2 key =  40 ; velocity: 127
@68460 Channel: 1 Note on, E2 key =  40 ; velocity: 0
@68460 Channel: 1 Note on, E2 key =  40 ; velocity: 127
@68520 Channel: 1 Note on, E2 key =  40 ; velocity: 0
@68520 Channel: 1 Note on, E2 key =  40 ; velocity: 127
@68580 Channel: 1 Note on, E2 key =  40 ; velocity: 0
@68580 Channel: 1 Note on, E2 key =  40 ; velocity: 127
@68640 Channel: 1 Note on, E2 key =  40 ; velocity: 0
@68640 Channel: 1 Note on, E2 key =  40 ; velocity: 127
@68700 Channel: 1 Note on, E2 key =  40 ; velocity: 0
@68700 Channel: 1 Note on, E2 key =  40 ; velocity: 127
@68760 Channel: 1 Note on, E2 key =  40 ; velocity: 0
@68760 Channel: 1 Note on, E2 key =  40 ; velocity: 127
@68820 Channel: 1 Note on, E2 key =  40 ; velocity: 0
@68820 Channel: 1 Note on, E2 key =  40 ; velocity: 127
@68880 Channel: 1 Note on, E2 key =  40 ; velocity: 0
@68880 Channel: 1 Note on, E2 key =  40 ; velocity: 127
@68940 Channel: 1 Note on, E2 key =  40 ; velocity: 0
@68940 Channel: 1 Note on, E2 key =  40 ; velocity: 127
@69000 Channel: 1 Note on, E2 key =  40 ; velocity: 0
@69000 Channel: 1 Note on, E2 key =  40 ; velocity: 127
@69060 Channel: 1 Note on, E2 key =  40 ; velocity: 0
@69060 Channel: 1 Note on, E2 key =  40 ; velocity: 127
@69120 Channel: 1 Note on, E2 key =  40 ; velocity: 0
@69120 Channel: 1 Note on, D4 key =  62 ; velocity: 127
@69120 Channel: 1 Note on, G3 key =  55 ; velocity: 127
@69600 Channel: 1 Note on, D4 key =  62 ; velocity: 0
@69600 Channel: 1 Note on, G3 key =  55 ; velocity: 0
@69600 Channel: 1 Note on, C#4 key =  61 ; velocity: 127
@69600 Channel: 1 Note on, F#3 key =  54 ; velocity: 127
@69840 Channel: 1 Note on, C#4 key =  61 ; velocity: 0
@69840 Channel: 1 Note on, F#3 key =  54 ; velocity: 0
@69840 Channel: 1 Note on, C4 key =  60 ; velocity: 127
@69840 Channel: 1 Note on, F3 key =  53 ; velocity: 127
@70080 Channel: 1 Note on, C4 key =  60 ; velocity: 0
@70080 Channel: 1 Note on, F3 key =  53 ; velocity: 0
@70080 Channel: 1 Note on, D3 key =  50 ; velocity: 127
@70140 Channel: 1 Note on, D3 key =  50 ; velocity: 0
@70140 Channel: 1 Note on, E3 key =  52 ; velocity: 127
@70200 Channel: 1 Note on, E3 key =  52 ; velocity: 0
@70200 Channel: 1 Note on, E2 key =  40 ; velocity: 127
@70260 Channel: 1 Note on, E2 key =  40 ; velocity: 0
@70260 Channel: 1 Note on, E3 key =  52 ; velocity: 127
@70320 Channel: 1 Note on, E3 key =  52 ; velocity: 0
@70320 Channel: 1 Note on, E2 key =  40 ; velocity: 127
@70380 Channel: 1 Note on, E2 key =  40 ; velocity: 0
@70380 Channel: 1 Note on, E2 key =  40 ; velocity: 127
@70440 Channel: 1 Note on, E2 key =  40 ; velocity: 0
@70440 Channel: 1 Note on, E3 key =  52 ; velocity: 127
@70500 Channel: 1 Note on, E3 key =  52 ; velocity: 0
@70500 Channel: 1 Note on, E2 key =  40 ; velocity: 127
@70560 Channel: 1 Note on, E2 key =  40 ; velocity: 0
@70560 Channel: 1 Note on, D3 key =  50 ; velocity: 127
@70560 Channel: 1 Note on, G3 key =  55 ; velocity: 127
@70620 Channel: 1 Note on, D3 key =  50 ; velocity: 0
@70620 Channel: 1 Note on, G3 key =  55 ; velocity: 0
@70620 Channel: 1 Note on, E2 key =  40 ; velocity: 127
@70680 Channel: 1 Note on, E2 key =  40 ; velocity: 0
@70680 Channel: 1 Note on, E2 key =  40 ; velocity: 127
@70740 Channel: 1 Note on, E2 key =  40 ; velocity: 0
@70740 Channel: 1 Note on, E3 key =  52 ; velocity: 127
@70800 Channel: 1 Note on, E3 key =  52 ; velocity: 0
@70800 Channel: 1 Note on, E2 key =  40 ; velocity: 127
@70860 Channel: 1 Note on, E2 key =  40 ; velocity: 0
@70860 Channel: 1 Note on, E2 key =  40 ; velocity: 127
@70920 Channel: 1 Note on, E2 key =  40 ; velocity: 0
@70920 Channel: 1 Note on, E3 key =  52 ; velocity: 127
@70980 Channel: 1 Note on, E3 key =  52 ; velocity: 0
@70980 Channel: 1 Note on, E2 key =  40 ; velocity: 127
@71040 Channel: 1 Note on, E2 key =  40 ; velocity: 0
@71040 Channel: 1 Note on, F#3 key =  54 ; velocity: 127
@71040 Channel: 1 Note on, C#3 key =  49 ; velocity: 127
@71100 Channel: 1 Note on, F#3 key =  54 ; velocity: 0
@71100 Channel: 1 Note on, C#3 key =  49 ; velocity: 0
@71100 Channel: 1 Note on, E2 key =  40 ; velocity: 127
@71160 Channel: 1 Note on, E2 key =  40 ; velocity: 0
@71160 Channel: 1 Note on, E2 key =  40 ; velocity: 127
@71220 Channel: 1 Note on, E2 key =  40 ; velocity: 0
@71220 Channel: 1 Note on, E3 key =  52 ; velocity: 127
@71280 Channel: 1 Note on, E3 key =  52 ; velocity: 0
@71280 Channel: 1 Note on, E2 key =  40 ; velocity: 127
@71340 Channel: 1 Note on, E2 key =  40 ; velocity: 0
@71340 Channel: 1 Note on, E2 key =  40 ; velocity: 127
@71400 Channel: 1 Note on, E2 key =  40 ; velocity: 0
@71400 Channel: 1 Note on, E3 key =  52 ; velocity: 127
@71520 Channel: 1 Note on, E3 key =  52 ; velocity: 0
@71520 Channel: 1 Note on, G2 key =  43 ; velocity: 127
@71580 Channel: 1 Note on, G2 key =  43 ; velocity: 0
@71580 Channel: 1 Note on, F#2 key =  42 ; velocity: 127
@71640 Channel: 1 Note on, F#2 key =  42 ; velocity: 0
@71640 Channel: 1 Note on, E2 key =  40 ; velocity: 127
@71700 Channel: 1 Note on, E2 key =  40 ; velocity: 0
@71700 Channel: 1 Note on, C3 key =  48 ; velocity: 127
@71760 Channel: 1 Note on, C3 key =  48 ; velocity: 0
@71760 Channel: 1 Note on, B2 key =  47 ; velocity: 127
@71820 Channel: 1 Note on, B2 key =  47 ; velocity: 0
@71820 Channel: 1 Note on, A2 key =  45 ; velocity: 127
@71880 Channel: 1 Note on, A2 key =  45 ; velocity: 0
@71880 Channel: 1 Note on, G2 key =  43 ; velocity: 127
@71940 Channel: 1 Note on, G2 key =  43 ; velocity: 0
@71940 Channel: 1 Note on, E2 key =  40 ; velocity: 127
@72000 Channel: 1 Note on, E2 key =  40 ; velocity: 0
@72000 Channel: 1 Note on, D3 key =  50 ; velocity: 127
@72060 Channel: 1 Note on, D3 key =  50 ; velocity: 0
@72060 Channel: 1 Note on, E3 key =  52 ; velocity: 127
@72120 Channel: 1 Note on, E3 key =  52 ; velocity: 0
@72120 Channel: 1 Note on, E2 key =  40 ; velocity: 127
@72180 Channel: 1 Note on, E2 key =  40 ; velocity: 0
@72180 Channel: 1 Note on, E3 key =  52 ; velocity: 127
@72240 Channel: 1 Note on, E3 key =  52 ; velocity: 0
@72240 Channel: 1 Note on, E2 key =  40 ; velocity: 127
@72300 Channel: 1 Note on, E2 key =  40 ; velocity: 0
@72300 Channel: 1 Note on, E2 key =  40 ; velocity: 127
@72360 Channel: 1 Note on, E2 key =  40 ; velocity: 0
@72360 Channel: 1 Note on, E3 key =  52 ; velocity: 127
@72420 Channel: 1 Note on, E3 key =  52 ; velocity: 0
@72420 Channel: 1 Note on, E2 key =  40 ; velocity: 127
@72480 Channel: 1 Note on, E2 key =  40 ; velocity: 0
@72480 Channel: 1 Note on, D3 key =  50 ; velocity: 127
@72480 Channel: 1 Note on, G3 key =  55 ; velocity: 127
@72540 Channel: 1 Note on, D3 key =  50 ; velocity: 0
@72540 Channel: 1 Note on, G3 key =  55 ; velocity: 0
@72540 Channel: 1 Note on, E2 key =  40 ; velocity: 127
@72600 Channel: 1 Note on, E2 key =  40 ; velocity: 0
@72600 Channel: 1 Note on, E2 key =  40 ; velocity: 127
@72660 Channel: 1 Note on, E2 key =  40 ; velocity: 0
@72660 Channel: 1 Note on, E3 key =  52 ; velocity: 127
@72720 Channel: 1 Note on, E3 key =  52 ; velocity: 0
@72720 Channel: 1 Note on, E2 key =  40 ; velocity: 127
@72780 Channel: 1 Note on, E2 key =  40 ; velocity: 0
@72780 Channel: 1 Note on, E2 key =  40 ; velocity: 127
@72840 Channel: 1 Note on, E2 key =  40 ; velocity: 0
@72840 Channel: 1 Note on, E3 key =  52 ; velocity: 127
@72900 Channel: 1 Note on, E3 key =  52 ; velocity: 0
@72900 Channel: 1 Note on, E2 key =  40 ; velocity: 127
@72960 Channel: 1 Note on, E2 key =  40 ; velocity: 0
@72960 Channel: 1 Note on, F#3 key =  54 ; velocity: 127
@72960 Channel: 1 Note on, C#3 key =  49 ; velocity: 127
@73020 Channel: 1 Note on, F#3 key =  54 ; velocity: 0
@73020 Channel: 1 Note on, C#3 key =  49 ; velocity: 0
@73020 Channel: 1 Note on, E2 key =  40 ; velocity: 127
@73080 Channel: 1 Note on, E2 key =  40 ; velocity: 0
@73080 Channel: 1 Note on, E2 key =  40 ; velocity: 127
@73140 Channel: 1 Note on, E2 key =  40 ; velocity: 0
@73140 Channel: 1 Note on, E3 key =  52 ; velocity: 127
@73200 Channel: 1 Note on, E3 key =  52 ; velocity: 0
@73200 Channel: 1 Note on, E2 key =  40 ; velocity: 127
@73260 Channel: 1 Note on, E2 key =  40 ; velocity: 0
@73260 Channel: 1 Note on, E2 key =  40 ; velocity: 127
@73320 Channel: 1 Note on, E2 key =  40 ; velocity: 0
@73320 Channel: 1 Note on, E3 key =  52 ; velocity: 127
@73440 Channel: 1 Note on, E3 key =  52 ; velocity: 0
@73440 Channel: 1 Note on, G2 key =  43 ; velocity: 127
@73500 Channel: 1 Note on, G2 key =  43 ; velocity: 0
@73500 Channel: 1 Note on, F#2 key =  42 ; velocity: 127
@73560 Channel: 1 Note on, F#2 key =  42 ; velocity: 0
@73560 Channel: 1 Note on, E2 key =  40 ; velocity: 127
@73620 Channel: 1 Note on, E2 key =  40 ; velocity: 0
@73620 Channel: 1 Note on, C3 key =  48 ; velocity: 127
@73680 Channel: 1 Note on, C3 key =  48 ; velocity: 0
@73680 Channel: 1 Note on, B2 key =  47 ; velocity: 127
@73740 Channel: 1 Note on, B2 key =  47 ; velocity: 0
@73740 Channel: 1 Note on, A2 key =  45 ; velocity: 127
@73800 Channel: 1 Note on, A2 key =  45 ; velocity: 0
@73800 Channel: 1 Note on, G2 key =  43 ; velocity: 127
@73860 Channel: 1 Note on, G2 key =  43 ; velocity: 0
@73860 Channel: 1 Note on, E2 key =  40 ; velocity: 127
@73920 Channel: 1 Note on, E2 key =  40 ; velocity: 0
@73920 Channel: 1 Note on, D3 key =  50 ; velocity: 127
@73980 Channel: 1 Note on, D3 key =  50 ; velocity: 0
@73980 Channel: 1 Note on, E3 key =  52 ; velocity: 127
@74040 Channel: 1 Note on, E3 key =  52 ; velocity: 0
@74040 Channel: 1 Note on, E2 key =  40 ; velocity: 127
@74100 Channel: 1 Note on, E2 key =  40 ; velocity: 0
@74100 Channel: 1 Note on, E3 key =  52 ; velocity: 127
@74160 Channel: 1 Note on, E3 key =  52 ; velocity: 0
@74160 Channel: 1 Note on, E2 key =  40 ; velocity: 127
@74220 Channel: 1 Note on, E2 key =  40 ; velocity: 0
@74220 Channel: 1 Note on, E2 key =  40 ; velocity: 127
@74280 Channel: 1 Note on, E2 key =  40 ; velocity: 0
@74280 Channel: 1 Note on, E3 key =  52 ; velocity: 127
@74340 Channel: 1 Note on, E3 key =  52 ; velocity: 0
@74340 Channel: 1 Note on, E2 key =  40 ; velocity: 127
@74400 Channel: 1 Note on, E2 key =  40 ; velocity: 0
@74400 Channel: 1 Note on, D3 key =  50 ; velocity: 127
@74400 Channel: 1 Note on, G3 key =  55 ; velocity: 127
@74460 Channel: 1 Note on, D3 key =  50 ; velocity: 0
@74460 Channel: 1 Note on, G3 key =  55 ; velocity: 0
@74460 Channel: 1 Note on, E2 key =  40 ; velocity: 127
@74520 Channel: 1 Note on, E2 key =  40 ; velocity: 0
@74520 Channel: 1 Note on, E2 key =  40 ; velocity: 127
@74580 Channel: 1 Note on, E2 key =  40 ; velocity: 0
@74580 Channel: 1 Note on, E3 key =  52 ; velocity: 127
@74640 Channel: 1 Note on, E3 key =  52 ; velocity: 0
@74640 Channel: 1 Note on, E2 key =  40 ; velocity: 127
@74700 Channel: 1 Note on, E2 key =  40 ; velocity: 0
@74700 Channel: 1 Note on, E2 key =  40 ; velocity: 127
@74760 Channel: 1 Note on, E2 key =  40 ; velocity: 0
@74760 Channel: 1 Note on, E3 key =  52 ; velocity: 127
@74820 Channel: 1 Note on, E3 key =  52 ; velocity: 0
@74820 Channel: 1 Note on, E2 key =  40 ; velocity: 127
@74880 Channel: 1 Note on, E2 key =  40 ; velocity: 0
@74880 Channel: 1 Note on, F#3 key =  54 ; velocity: 127
@74880 Channel: 1 Note on, C#3 key =  49 ; velocity: 127
@74940 Channel: 1 Note on, F#3 key =  54 ; velocity: 0
@74940 Channel: 1 Note on, C#3 key =  49 ; velocity: 0
@74940 Channel: 1 Note on, E2 key =  40 ; velocity: 127
@75000 Channel: 1 Note on, E2 key =  40 ; velocity: 0
@75000 Channel: 1 Note on, E2 key =  40 ; velocity: 127
@75060 Channel: 1 Note on, E2 key =  40 ; velocity: 0
@75060 Channel: 1 Note on, E3 key =  52 ; velocity: 127
@75120 Channel: 1 Note on, E3 key =  52 ; velocity: 0
@75120 Channel: 1 Note on, E2 key =  40 ; velocity: 127
@75180 Channel: 1 Note on, E2 key =  40 ; velocity: 0
@75180 Channel: 1 Note on, E2 key =  40 ; velocity: 127
@75240 Channel: 1 Note on, E2 key =  40 ; velocity: 0
@75240 Channel: 1 Note on, E3 key =  52 ; velocity: 127
@75360 Channel: 1 Note on, E3 key =  52 ; velocity: 0
@75360 Channel: 1 Note on, G2 key =  43 ; velocity: 127
@75420 Channel: 1 Note on, G2 key =  43 ; velocity: 0
@75420 Channel: 1 Note on, F#2 key =  42 ; velocity: 127
@75480 Channel: 1 Note on, F#2 key =  42 ; velocity: 0
@75480 Channel: 1 Note on, E2 key =  40 ; velocity: 127
@75540 Channel: 1 Note on, E2 key =  40 ; velocity: 0
@75540 Channel: 1 Note on, C3 key =  48 ; velocity: 127
@75600 Channel: 1 Note on, C3 key =  48 ; velocity: 0
@75600 Channel: 1 Note on, B2 key =  47 ; velocity: 127
@75660 Channel: 1 Note on, B2 key =  47 ; velocity: 0
@75660 Channel: 1 Note on, A2 key =  45 ; velocity: 127
@75720 Channel: 1 Note on, A2 key =  45 ; velocity: 0
@75720 Channel: 1 Note on, G2 key =  43 ; velocity: 127
@75780 Channel: 1 Note on, G2 key =  43 ; velocity: 0
@75780 Channel: 1 Note on, E2 key =  40 ; velocity: 127
@75840 Channel: 1 Note on, E2 key =  40 ; velocity: 0
@75840 Channel: 1 Note on, D3 key =  50 ; velocity: 127
@75900 Channel: 1 Note on, D3 key =  50 ; velocity: 0
@75900 Channel: 1 Note on, E3 key =  52 ; velocity: 127
@75960 Channel: 1 Note on, E3 key =  52 ; velocity: 0
@75960 Channel: 1 Note on, E2 key =  40 ; velocity: 127
@76020 Channel: 1 Note on, E2 key =  40 ; velocity: 0
@76020 Channel: 1 Note on, E3 key =  52 ; velocity: 127
@76080 Channel: 1 Note on, E3 key =  52 ; velocity: 0
@76080 Channel: 1 Note on, E2 key =  40 ; velocity: 127
@76140 Channel: 1 Note on, E2 key =  40 ; velocity: 0
@76140 Channel: 1 Note on, E2 key =  40 ; velocity: 127
@76200 Channel: 1 Note on, E2 key =  40 ; velocity: 0
@76200 Channel: 1 Note on, E3 key =  52 ; velocity: 127
@76260 Channel: 1 Note on, E3 key =  52 ; velocity: 0
@76260 Channel: 1 Note on, E2 key =  40 ; velocity: 127
@76320 Channel: 1 Note on, E2 key =  40 ; velocity: 0
@76320 Channel: 1 Note on, D3 key =  50 ; velocity: 127
@76320 Channel: 1 Note on, G3 key =  55 ; velocity: 127
@76380 Channel: 1 Note on, D3 key =  50 ; velocity: 0
@76380 Channel: 1 Note on, G3 key =  55 ; velocity: 0
@76380 Channel: 1 Note on, E2 key =  40 ; velocity: 127
@76440 Channel: 1 Note on, E2 key =  40 ; velocity: 0
@76440 Channel: 1 Note on, E2 key =  40 ; velocity: 127
@76500 Channel: 1 Note on, E2 key =  40 ; velocity: 0
@76500 Channel: 1 Note on, E3 key =  52 ; velocity: 127
@76560 Channel: 1 Note on, E3 key =  52 ; velocity: 0
@76560 Channel: 1 Note on, E2 key =  40 ; velocity: 127
@76620 Channel: 1 Note on, E2 key =  40 ; velocity: 0
@76620 Channel: 1 Note on, E2 key =  40 ; velocity: 127
@76680 Channel: 1 Note on, E2 key =  40 ; velocity: 0
@76680 Channel: 1 Note on, E3 key =  52 ; velocity: 127
@76740 Channel: 1 Note on, E3 key =  52 ; velocity: 0
@76740 Channel: 1 Note on, E2 key =  40 ; velocity: 127
@76800 Channel: 1 Note on, E2 key =  40 ; velocity: 0
@76800 Channel: 1 Note on, F#3 key =  54 ; velocity: 127
@76800 Channel: 1 Note on, C#3 key =  49 ; velocity: 127
@76860 Channel: 1 Note on, F#3 key =  54 ; velocity: 0
@76860 Channel: 1 Note on, C#3 key =  49 ; velocity: 0
@76860 Channel: 1 Note on, E2 key =  40 ; velocity: 127
@76920 Channel: 1 Note on, E2 key =  40 ; velocity: 0
@76920 Channel: 1 Note on, E2 key =  40 ; velocity: 127
@76980 Channel: 1 Note on, E2 key =  40 ; velocity: 0
@76980 Channel: 1 Note on, E3 key =  52 ; velocity: 127
@77040 Channel: 1 Note on, E3 key =  52 ; velocity: 0
@77040 Channel: 1 Note on, E2 key =  40 ; velocity: 127
@77100 Channel: 1 Note on, E2 key =  40 ; velocity: 0
@77100 Channel: 1 Note on, E2 key =  40 ; velocity: 127
@77160 Channel: 1 Note on, E2 key =  40 ; velocity: 0
@77160 Channel: 1 Note on, E3 key =  52 ; velocity: 127
@77280 Channel: 1 Note on, E3 key =  52 ; velocity: 0
@77280 Channel: 1 Note on, G2 key =  43 ; velocity: 127
@77340 Channel: 1 Note on, G2 key =  43 ; velocity: 0
@77340 Channel: 1 Note on, F#2 key =  42 ; velocity: 127
@77400 Channel: 1 Note on, F#2 key =  42 ; velocity: 0
@77400 Channel: 1 Note on, E2 key =  40 ; velocity: 127
@77460 Channel: 1 Note on, E2 key =  40 ; velocity: 0
@77460 Channel: 1 Note on, C3 key =  48 ; velocity: 127
@77520 Channel: 1 Note on, C3 key =  48 ; velocity: 0
@77520 Channel: 1 Note on, B2 key =  47 ; velocity: 127
@77580 Channel: 1 Note on, B2 key =  47 ; velocity: 0
@77580 Channel: 1 Note on, A2 key =  45 ; velocity: 127
@77640 Channel: 1 Note on, A2 key =  45 ; velocity: 0
@77640 Channel: 1 Note on, G2 key =  43 ; velocity: 127
@77700 Channel: 1 Note on, G2 key =  43 ; velocity: 0
@77700 Channel: 1 Note on, F#2 key =  42 ; velocity: 127
@77760 Channel: 1 Note on, F#2 key =  42 ; velocity: 0
@77760 Channel: 1 Note on, G2 key =  43 ; velocity: 127
@77820 Channel: 1 Note on, G2 key =  43 ; velocity: 0
@77820 Channel: 1 Note on, F#2 key =  42 ; velocity: 127
@77880 Channel: 1 Note on, F#2 key =  42 ; velocity: 0
@77880 Channel: 1 Note on, E2 key =  40 ; velocity: 127
@77940 Channel: 1 Note on, E2 key =  40 ; velocity: 0
@77940 Channel: 1 Note on, C3 key =  48 ; velocity: 127
@78000 Channel: 1 Note on, C3 key =  48 ; velocity: 0
@78000 Channel: 1 Note on, B2 key =  47 ; velocity: 127
@78060 Channel: 1 Note on, B2 key =  47 ; velocity: 0
@78060 Channel: 1 Note on, A2 key =  45 ; velocity: 127
@78120 Channel: 1 Note on, A2 key =  45 ; velocity: 0
@78120 Channel: 1 Note on, G2 key =  43 ; velocity: 127
@78180 Channel: 1 Note on, G2 key =  43 ; velocity: 0
@78180 Channel: 1 Note on, F#2 key =  42 ; velocity: 127
@78240 Channel: 1 Note on, F#2 key =  42 ; velocity: 0
@78240 Channel: 1 Note on, A2 key =  45 ; velocity: 127
@78240 Channel: 1 Note on, E3 key =  52 ; velocity: 127
@78240 Channel: 1 Note on, A3 key =  57 ; velocity: 127
@78720 Channel: 1 Note on, A2 key =  45 ; velocity: 0
@78720 Channel: 1 Note on, E3 key =  52 ; velocity: 0
@78720 Channel: 1 Note on, A3 key =  57 ; velocity: 0
@78720 Channel: 1 Command: 192

@78720 Channel: 1 Command: 176

@78720 Channel: 1 Command: 192

@78720 Channel: 1 Note on, A2 key =  45 ; velocity: 127
@78780 Channel: 1 Note on, A2 key =  45 ; velocity: 0
@78780 Channel: 1 Note on, A2 key =  45 ; velocity: 127
@78840 Channel: 1 Note on, A2 key =  45 ; velocity: 0
@78840 Channel: 1 Note on, D4 key =  62 ; velocity: 127
@78870 Channel: 1 Note on, D4 key =  62 ; velocity: 0
@78870 Channel: 1 Note on, D#4 key =  63 ; velocity: 127
@78900 Channel: 1 Note on, D#4 key =  63 ; velocity: 0
@78900 Channel: 1 Note on, D4 key =  62 ; velocity: 127
@79020 Channel: 1 Note on, D4 key =  62 ; velocity: 0
@79020 Channel: 1 Note on, A2 key =  45 ; velocity: 127
@79080 Channel: 1 Note on, A2 key =  45 ; velocity: 0
@79080 Channel: 1 Note on, A3 key =  57 ; velocity: 127
@79110 Channel: 1 Note on, A3 key =  57 ; velocity: 0
@79110 Channel: 1 Note on, A#3 key =  58 ; velocity: 127
@79140 Channel: 1 Note on, A#3 key =  58 ; velocity: 0
@79140 Channel: 1 Note on, A3 key =  57 ; velocity: 127
@79260 Channel: 1 Note on, A3 key =  57 ; velocity: 0
@79260 Channel: 1 Note on, A2 key =  45 ; velocity: 127
@79320 Channel: 1 Note on, A2 key =  45 ; velocity: 0
@79320 Channel: 1 Note on, F3 key =  53 ; velocity: 127
@79380 Channel: 1 Note on, F3 key =  53 ; velocity: 0
@79380 Channel: 1 Note on, E3 key =  52 ; velocity: 127
@79440 Channel: 1 Note on, E3 key =  52 ; velocity: 0
@79440 Channel: 1 Note on, G3 key =  55 ; velocity: 127
@79500 Channel: 1 Note on, G3 key =  55 ; velocity: 0
@79500 Channel: 1 Note on, E3 key =  52 ; velocity: 127
@79560 Channel: 1 Note on, E3 key =  52 ; velocity: 0
@79560 Channel: 1 Note on, C4 key =  60 ; velocity: 127
@79620 Channel: 1 Note on, C4 key =  60 ; velocity: 0
@79620 Channel: 1 Note on, A3 key =  57 ; velocity: 127
@79680 Channel: 1 Note on, A3 key =  57 ; velocity: 0
@79680 Channel: 1 Command: 192

@79680 Channel: 1 Command: 176

@79680 Channel: 1 Command: 192

@79680 Channel: 1 Note on, A2 key =  45 ; velocity: 127
@79740 Channel: 1 Note on, A2 key =  45 ; velocity: 0
@79740 Channel: 1 Note on, A2 key =  45 ; velocity: 127
@79800 Channel: 1 Note on, A2 key =  45 ; velocity: 0
@79800 Channel: 1 Note on, D4 key =  62 ; velocity: 127
@79830 Channel: 1 Note on, D4 key =  62 ; velocity: 0
@79830 Channel: 1 Note on, D#4 key =  63 ; velocity: 127
@79860 Channel: 1 Note on, D#4 key =  63 ; velocity: 0
@79860 Channel: 1 Note on, D4 key =  62 ; velocity: 127
@79980 Channel: 1 Note on, D4 key =  62 ; velocity: 0
@79980 Channel: 1 Note on, A2 key =  45 ; velocity: 127
@80040 Channel: 1 Note on, A2 key =  45 ; velocity: 0
@80040 Channel: 1 Note on, A3 key =  57 ; velocity: 127
@80070 Channel: 1 Note on, A3 key =  57 ; velocity: 0
@80070 Channel: 1 Note on, A#3 key =  58 ; velocity: 127
@80100 Channel: 1 Note on, A#3 key =  58 ; velocity: 0
@80100 Channel: 1 Note on, A3 key =  57 ; velocity: 127
@80220 Channel: 1 Note on, A3 key =  57 ; velocity: 0
@80220 Channel: 1 Note on, A2 key =  45 ; velocity: 127
@80280 Channel: 1 Note on, A2 key =  45 ; velocity: 0
@80280 Channel: 1 Note on, F3 key =  53 ; velocity: 127
@80340 Channel: 1 Note on, F3 key =  53 ; velocity: 0
@80340 Channel: 1 Note on, E3 key =  52 ; velocity: 127
@80400 Channel: 1 Note on, E3 key =  52 ; velocity: 0
@80400 Channel: 1 Note on, G3 key =  55 ; velocity: 127
@80460 Channel: 1 Note on, G3 key =  55 ; velocity: 0
@80460 Channel: 1 Note on, E3 key =  52 ; velocity: 127
@80520 Channel: 1 Note on, E3 key =  52 ; velocity: 0
@80520 Channel: 1 Note on, C4 key =  60 ; velocity: 127
@80580 Channel: 1 Note on, C4 key =  60 ; velocity: 0
@80580 Channel: 1 Note on, A3 key =  57 ; velocity: 127
@80640 Channel: 1 Note on, A3 key =  57 ; velocity: 0
@80640 Channel: 1 Command: 192

@80640 Channel: 1 Command: 176

@80640 Channel: 1 Command: 192

@80640 Channel: 1 Note on, A2 key =  45 ; velocity: 127
@80700 Channel: 1 Note on, A2 key =  45 ; velocity: 0
@80700 Channel: 1 Note on, A2 key =  45 ; velocity: 127
@80760 Channel: 1 Note on, A2 key =  45 ; velocity: 0
@80760 Channel: 1 Note on, D4 key =  62 ; velocity: 127
@80790 Channel: 1 Note on, D4 key =  62 ; velocity: 0
@80790 Channel: 1 Note on, D#4 key =  63 ; velocity: 127
@80820 Channel: 1 Note on, D#4 key =  63 ; velocity: 0
@80820 Channel: 1 Note on, D4 key =  62 ; velocity: 127
@80940 Channel: 1 Note on, D4 key =  62 ; velocity: 0
@80940 Channel: 1 Note on, A2 key =  45 ; velocity: 127
@81000 Channel: 1 Note on, A2 key =  45 ; velocity: 0
@81000 Channel: 1 Note on, A3 key =  57 ; velocity: 127
@81030 Channel: 1 Note on, A3 key =  57 ; velocity: 0
@81030 Channel: 1 Note on, A#3 key =  58 ; velocity: 127
@81060 Channel: 1 Note on, A#3 key =  58 ; velocity: 0
@81060 Channel: 1 Note on, A3 key =  57 ; velocity: 127
@81180 Channel: 1 Note on, A3 key =  57 ; velocity: 0
@81180 Channel: 1 Note on, A2 key =  45 ; velocity: 127
@81240 Channel: 1 Note on, A2 key =  45 ; velocity: 0
@81240 Channel: 1 Note on, F3 key =  53 ; velocity: 127
@81300 Channel: 1 Note on, F3 key =  53 ; velocity: 0
@81300 Channel: 1 Note on, E3 key =  52 ; velocity: 127
@81360 Channel: 1 Note on, E3 key =  52 ; velocity: 0
@81360 Channel: 1 Note on, G3 key =  55 ; velocity: 127
@81420 Channel: 1 Note on, G3 key =  55 ; velocity: 0
@81420 Channel: 1 Note on, E3 key =  52 ; velocity: 127
@81480 Channel: 1 Note on, E3 key =  52 ; velocity: 0
@81480 Channel: 1 Note on, C4 key =  60 ; velocity: 127
@81540 Channel: 1 Note on, C4 key =  60 ; velocity: 0
@81540 Channel: 1 Note on, A3 key =  57 ; velocity: 127
@81600 Channel: 1 Note on, A3 key =  57 ; velocity: 0
@81600 Channel: 1 Command: 192

@81600 Channel: 1 Command: 176

@81600 Channel: 1 Command: 192

@81600 Channel: 1 Note on, A2 key =  45 ; velocity: 127
@81660 Channel: 1 Note on, A2 key =  45 ; velocity: 0
@81660 Channel: 1 Note on, A2 key =  45 ; velocity: 127
@81720 Channel: 1 Note on, A2 key =  45 ; velocity: 0
@81720 Channel: 1 Note on, D4 key =  62 ; velocity: 127
@81750 Channel: 1 Note on, D4 key =  62 ; velocity: 0
@81750 Channel: 1 Note on, D#4 key =  63 ; velocity: 127
@81780 Channel: 1 Note on, D#4 key =  63 ; velocity: 0
@81780 Channel: 1 Note on, D4 key =  62 ; velocity: 127
@81900 Channel: 1 Note on, D4 key =  62 ; velocity: 0
@81900 Channel: 1 Note on, A2 key =  45 ; velocity: 127
@81960 Channel: 1 Note on, A2 key =  45 ; velocity: 0
@81960 Channel: 1 Note on, A3 key =  57 ; velocity: 127
@81990 Channel: 1 Note on, A3 key =  57 ; velocity: 0
@81990 Channel: 1 Note on, A#3 key =  58 ; velocity: 127
@82020 Channel: 1 Note on, A#3 key =  58 ; velocity: 0
@82020 Channel: 1 Note on, A3 key =  57 ; velocity: 127
@82140 Channel: 1 Note on, A3 key =  57 ; velocity: 0
@82140 Channel: 1 Note on, A2 key =  45 ; velocity: 127
@82200 Channel: 1 Note on, A2 key =  45 ; velocity: 0
@82200 Channel: 1 Note on, F3 key =  53 ; velocity: 127
@82260 Channel: 1 Note on, F3 key =  53 ; velocity: 0
@82260 Channel: 1 Note on, E3 key =  52 ; velocity: 127
@82320 Channel: 1 Note on, E3 key =  52 ; velocity: 0
@82320 Channel: 1 Note on, G3 key =  55 ; velocity: 127
@82380 Channel: 1 Note on, G3 key =  55 ; velocity: 0
@82380 Channel: 1 Note on, E3 key =  52 ; velocity: 127
@82440 Channel: 1 Note on, E3 key =  52 ; velocity: 0
@82440 Channel: 1 Note on, C4 key =  60 ; velocity: 127
@82500 Channel: 1 Note on, C4 key =  60 ; velocity: 0
@82500 Channel: 1 Note on, A3 key =  57 ; velocity: 127
@82560 Channel: 1 Note on, A3 key =  57 ; velocity: 0
@82560 Channel: 1 Command: 192

@82560 Channel: 1 Command: 176

@82560 Channel: 1 Command: 192

@82560 Channel: 1 Note on, A2 key =  45 ; velocity: 127
@82620 Channel: 1 Note on, A2 key =  45 ; velocity: 0
@82620 Channel: 1 Note on, A2 key =  45 ; velocity: 127
@82680 Channel: 1 Note on, A2 key =  45 ; velocity: 0
@82680 Channel: 1 Note on, D4 key =  62 ; velocity: 127
@82710 Channel: 1 Note on, D4 key =  62 ; velocity: 0
@82710 Channel: 1 Note on, D#4 key =  63 ; velocity: 127
@82740 Channel: 1 Note on, D#4 key =  63 ; velocity: 0
@82740 Channel: 1 Note on, D4 key =  62 ; velocity: 127
@82860 Channel: 1 Note on, D4 key =  62 ; velocity: 0
@82860 Channel: 1 Note on, A2 key =  45 ; velocity: 127
@82920 Channel: 1 Note on, A2 key =  45 ; velocity: 0
@82920 Channel: 1 Note on, A3 key =  57 ; velocity: 127
@82950 Channel: 1 Note on, A3 key =  57 ; velocity: 0
@82950 Channel: 1 Note on, A#3 key =  58 ; velocity: 127
@82980 Channel: 1 Note on, A#3 key =  58 ; velocity: 0
@82980 Channel: 1 Note on, A3 key =  57 ; velocity: 127
@83100 Channel: 1 Note on, A3 key =  57 ; velocity: 0
@83100 Channel: 1 Note on, A2 key =  45 ; velocity: 127
@83160 Channel: 1 Note on, A2 key =  45 ; velocity: 0
@83160 Channel: 1 Note on, F3 key =  53 ; velocity: 127
@83220 Channel: 1 Note on, F3 key =  53 ; velocity: 0
@83220 Channel: 1 Note on, E3 key =  52 ; velocity: 127
@83280 Channel: 1 Note on, E3 key =  52 ; velocity: 0
@83280 Channel: 1 Note on, G3 key =  55 ; velocity: 127
@83340 Channel: 1 Note on, G3 key =  55 ; velocity: 0
@83340 Channel: 1 Note on, E3 key =  52 ; velocity: 127
@83400 Channel: 1 Note on, E3 key =  52 ; velocity: 0
@83400 Channel: 1 Note on, C4 key =  60 ; velocity: 127
@83460 Channel: 1 Note on, C4 key =  60 ; velocity: 0
@83460 Channel: 1 Note on, A3 key =  57 ; velocity: 127
@83520 Channel: 1 Note on, A3 key =  57 ; velocity: 0
@83520 Channel: 1 Command: 192

@83520 Channel: 1 Command: 176

@83520 Channel: 1 Command: 192

@83520 Channel: 1 Note on, A2 key =  45 ; velocity: 127
@83580 Channel: 1 Note on, A2 key =  45 ; velocity: 0
@83580 Channel: 1 Note on, A2 key =  45 ; velocity: 127
@83640 Channel: 1 Note on, A2 key =  45 ; velocity: 0
@83640 Channel: 1 Note on, D4 key =  62 ; velocity: 127
@83670 Channel: 1 Note on, D4 key =  62 ; velocity: 0
@83670 Channel: 1 Note on, D#4 key =  63 ; velocity: 127
@83700 Channel: 1 Note on, D#4 key =  63 ; velocity: 0
@83700 Channel: 1 Note on, D4 key =  62 ; velocity: 127
@83820 Channel: 1 Note on, D4 key =  62 ; velocity: 0
@83820 Channel: 1 Note on, A2 key =  45 ; velocity: 127
@83880 Channel: 1 Note on, A2 key =  45 ; velocity: 0
@83880 Channel: 1 Note on, A3 key =  57 ; velocity: 127
@83910 Channel: 1 Note on, A3 key =  57 ; velocity: 0
@83910 Channel: 1 Note on, A#3 key =  58 ; velocity: 127
@83940 Channel: 1 Note on, A#3 key =  58 ; velocity: 0
@83940 Channel: 1 Note on, A3 key =  57 ; velocity: 127
@84060 Channel: 1 Note on, A3 key =  57 ; velocity: 0
@84060 Channel: 1 Note on, A2 key =  45 ; velocity: 127
@84120 Channel: 1 Note on, A2 key =  45 ; velocity: 0
@84120 Channel: 1 Note on, F3 key =  53 ; velocity: 127
@84180 Channel: 1 Note on, F3 key =  53 ; velocity: 0
@84180 Channel: 1 Note on, E3 key =  52 ; velocity: 127
@84240 Channel: 1 Note on, E3 key =  52 ; velocity: 0
@84240 Channel: 1 Note on, G3 key =  55 ; velocity: 127
@84300 Channel: 1 Note on, G3 key =  55 ; velocity: 0
@84300 Channel: 1 Note on, E3 key =  52 ; velocity: 127
@84360 Channel: 1 Note on, E3 key =  52 ; velocity: 0
@84360 Channel: 1 Note on, C4 key =  60 ; velocity: 127
@84420 Channel: 1 Note on, C4 key =  60 ; velocity: 0
@84420 Channel: 1 Note on, A3 key =  57 ; velocity: 127
@84480 Channel: 1 Note on, A3 key =  57 ; velocity: 0
@84480 Channel: 1 Command: 192

@84480 Channel: 1 Command: 176

@84480 Channel: 1 Command: 192

@84480 Channel: 1 Note on, A2 key =  45 ; velocity: 127
@84540 Channel: 1 Note on, A2 key =  45 ; velocity: 0
@84540 Channel: 1 Note on, A2 key =  45 ; velocity: 127
@84600 Channel: 1 Note on, A2 key =  45 ; velocity: 0
@84600 Channel: 1 Note on, D4 key =  62 ; velocity: 127
@84630 Channel: 1 Note on, D4 key =  62 ; velocity: 0
@84630 Channel: 1 Note on, D#4 key =  63 ; velocity: 127
@84660 Channel: 1 Note on, D#4 key =  63 ; velocity: 0
@84660 Channel: 1 Note on, D4 key =  62 ; velocity: 127
@84780 Channel: 1 Note on, D4 key =  62 ; velocity: 0
@84780 Channel: 1 Note on, A2 key =  45 ; velocity: 127
@84840 Channel: 1 Note on, A2 key =  45 ; velocity: 0
@84840 Channel: 1 Note on, A3 key =  57 ; velocity: 127
@84870 Channel: 1 Note on, A3 key =  57 ; velocity: 0
@84870 Channel: 1 Note on, A#3 key =  58 ; velocity: 127
@84900 Channel: 1 Note on, A#3 key =  58 ; velocity: 0
@84900 Channel: 1 Note on, A3 key =  57 ; velocity: 127
@85020 Channel: 1 Note on, A3 key =  57 ; velocity: 0
@85020 Channel: 1 Note on, A2 key =  45 ; velocity: 127
@85080 Channel: 1 Note on, A2 key =  45 ; velocity: 0
@85080 Channel: 1 Note on, F3 key =  53 ; velocity: 127
@85140 Channel: 1 Note on, F3 key =  53 ; velocity: 0
@85140 Channel: 1 Note on, E3 key =  52 ; velocity: 127
@85200 Channel: 1 Note on, E3 key =  52 ; velocity: 0
@85200 Channel: 1 Note on, G3 key =  55 ; velocity: 127
@85260 Channel: 1 Note on, G3 key =  55 ; velocity: 0
@85260 Channel: 1 Note on, E3 key =  52 ; velocity: 127
@85320 Channel: 1 Note on, E3 key =  52 ; velocity: 0
@85320 Channel: 1 Note on, C4 key =  60 ; velocity: 127
@85380 Channel: 1 Note on, C4 key =  60 ; velocity: 0
@85380 Channel: 1 Note on, A3 key =  57 ; velocity: 127
@85440 Channel: 1 Note on, A3 key =  57 ; velocity: 0
@85440 Channel: 1 Command: 192

@85440 Channel: 1 Command: 176

@85440 Channel: 1 Command: 192

@85440 Channel: 1 Note on, A2 key =  45 ; velocity: 127
@85500 Channel: 1 Note on, A2 key =  45 ; velocity: 0
@85500 Channel: 1 Note on, A2 key =  45 ; velocity: 127
@85560 Channel: 1 Note on, A2 key =  45 ; velocity: 0
@85560 Channel: 1 Note on, D4 key =  62 ; velocity: 127
@85590 Channel: 1 Note on, D4 key =  62 ; velocity: 0
@85590 Channel: 1 Note on, D#4 key =  63 ; velocity: 127
@85620 Channel: 1 Note on, D#4 key =  63 ; velocity: 0
@85620 Channel: 1 Note on, D4 key =  62 ; velocity: 127
@85740 Channel: 1 Note on, D4 key =  62 ; velocity: 0
@85740 Channel: 1 Note on, A2 key =  45 ; velocity: 127
@85800 Channel: 1 Note on, A2 key =  45 ; velocity: 0
@85800 Channel: 1 Note on, A3 key =  57 ; velocity: 127
@85830 Channel: 1 Note on, A3 key =  57 ; velocity: 0
@85830 Channel: 1 Note on, A#3 key =  58 ; velocity: 127
@85860 Channel: 1 Note on, A#3 key =  58 ; velocity: 0
@85860 Channel: 1 Note on, A3 key =  57 ; velocity: 127
@85980 Channel: 1 Note on, A3 key =  57 ; velocity: 0
@85980 Channel: 1 Note on, A2 key =  45 ; velocity: 127
@86040 Channel: 1 Note on, A2 key =  45 ; velocity: 0
@86040 Channel: 1 Note on, F3 key =  53 ; velocity: 127
@86100 Channel: 1 Note on, F3 key =  53 ; velocity: 0
@86100 Channel: 1 Note on, E3 key =  52 ; velocity: 127
@86160 Channel: 1 Note on, E3 key =  52 ; velocity: 0
@86160 Channel: 1 Note on, G3 key =  55 ; velocity: 127
@86220 Channel: 1 Note on, G3 key =  55 ; velocity: 0
@86220 Channel: 1 Note on, E3 key =  52 ; velocity: 127
@86280 Channel: 1 Note on, E3 key =  52 ; velocity: 0
@86280 Channel: 1 Note on, C4 key =  60 ; velocity: 127
@86340 Channel: 1 Note on, C4 key =  60 ; velocity: 0
@86340 Channel: 1 Note on, A3 key =  57 ; velocity: 127
@86400 Channel: 1 Note on, A3 key =  57 ; velocity: 0
@86400 Channel: 1 Note on, E4 key =  64 ; velocity: 127
@86460 Channel: 1 Note on, E4 key =  64 ; velocity: 0
@86460 Channel: 1 Note on, D4 key =  62 ; velocity: 127
@86520 Channel: 1 Note on, D4 key =  62 ; velocity: 0
@86520 Channel: 1 Note on, B3 key =  59 ; velocity: 127
@86580 Channel: 1 Note on, B3 key =  59 ; velocity: 0
@86580 Channel: 1 Note on, D4 key =  62 ; velocity: 127
@86640 Channel: 1 Note on, D4 key =  62 ; velocity: 0
@86640 Channel: 1 Note on, B3 key =  59 ; velocity: 127
@86700 Channel: 1 Note on, B3 key =  59 ; velocity: 0
@86700 Channel: 1 Note on, A#3 key =  58 ; velocity: 127
@86760 Channel: 1 Note on, A#3 key =  58 ; velocity: 0
@86760 Channel: 1 Note on, A3 key =  57 ; velocity: 127
@86820 Channel: 1 Note on, A3 key =  57 ; velocity: 0
@86820 Channel: 1 Note on, G3 key =  55 ; velocity: 127
@86880 Channel: 1 Note on, G3 key =  55 ; velocity: 0
@86880 Channel: 1 Note on, E2 key =  40 ; velocity: 127
@86940 Channel: 1 Note on, E2 key =  40 ; velocity: 0
@86940 Channel: 1 Note on, E2 key =  40 ; velocity: 127
@87000 Channel: 1 Note on, E2 key =  40 ; velocity: 0
@87000 Channel: 1 Note on, E2 key =  40 ; velocity: 127
@87060 Channel: 1 Note on, E2 key =  40 ; velocity: 0
@87060 Channel: 1 Note on, E2 key =  40 ; velocity: 127
@87120 Channel: 1 Note on, E2 key =  40 ; velocity: 0
@87120 Channel: 1 Note on, G3 key =  55 ; velocity: 127
@87120 Channel: 1 Note on, D3 key =  50 ; velocity: 127
@87180 Channel: 1 Note on, G3 key =  55 ; velocity: 0
@87180 Channel: 1 Note on, D3 key =  50 ; velocity: 0
@87180 Channel: 1 Note on, E3 key =  52 ; velocity: 127
@87180 Channel: 1 Note on, A3 key =  57 ; velocity: 127
@87240 Channel: 1 Note on, E3 key =  52 ; velocity: 0
@87240 Channel: 1 Note on, A3 key =  57 ; velocity: 0
@87240 Channel: 1 Note on, D3 key =  50 ; velocity: 127
@87240 Channel: 1 Note on, G3 key =  55 ; velocity: 127
@87300 Channel: 1 Note on, D3 key =  50 ; velocity: 0
@87300 Channel: 1 Note on, G3 key =  55 ; velocity: 0
@87300 Channel: 1 Note on, A3 key =  57 ; velocity: 127
@87300 Channel: 1 Note on, E3 key =  52 ; velocity: 127
@87360 Channel: 1 Note on, A3 key =  57 ; velocity: 0
@87360 Channel: 1 Note on, E3 key =  52 ; velocity: 0
@87360 Channel: 1 Note on, E2 key =  40 ; velocity: 127
@87420 Channel: 1 Note on, E2 key =  40 ; velocity: 0
@87420 Channel: 1 Note on, E2 key =  40 ; velocity: 127
@87480 Channel: 1 Note on, E2 key =  40 ; velocity: 0
@87480 Channel: 1 Note on, E2 key =  40 ; velocity: 127
@87540 Channel: 1 Note on, E2 key =  40 ; velocity: 0
@87540 Channel: 1 Note on, E2 key =  40 ; velocity: 127
@87600 Channel: 1 Note on, E2 key =  40 ; velocity: 0
@87600 Channel: 1 Note on, E3 key =  52 ; velocity: 127
@87660 Channel: 1 Note on, E3 key =  52 ; velocity: 0
@87660 Channel: 1 Note on, D3 key =  50 ; velocity: 127
@87720 Channel: 1 Note on, D3 key =  50 ; velocity: 0
@87720 Channel: 1 Note on, B2 key =  47 ; velocity: 127
@87780 Channel: 1 Note on, B2 key =  47 ; velocity: 0
@87780 Channel: 1 Note on, A#2 key =  46 ; velocity: 127
@87840 Channel: 1 Note on, A#2 key =  46 ; velocity: 0
@87840 Channel: 1 Note on, E2 key =  40 ; velocity: 127
@87900 Channel: 1 Note on, E2 key =  40 ; velocity: 0
@87900 Channel: 1 Note on, E2 key =  40 ; velocity: 127
@87960 Channel: 1 Note on, E2 key =  40 ; velocity: 0
@87960 Channel: 1 Note on, E2 key =  40 ; velocity: 127
@88020 Channel: 1 Note on, E2 key =  40 ; velocity: 0
@88020 Channel: 1 Note on, E2 key =  40 ; velocity: 127
@88080 Channel: 1 Note on, E2 key =  40 ; velocity: 0
@88080 Channel: 1 Note on, G3 key =  55 ; velocity: 127
@88080 Channel: 1 Note on, D3 key =  50 ; velocity: 127
@88140 Channel: 1 Note on, G3 key =  55 ; velocity: 0
@88140 Channel: 1 Note on, D3 key =  50 ; velocity: 0
@88140 Channel: 1 Note on, E3 key =  52 ; velocity: 127
@88140 Channel: 1 Note on, A3 key =  57 ; velocity: 127
@88200 Channel: 1 Note on, E3 key =  52 ; velocity: 0
@88200 Channel: 1 Note on, A3 key =  57 ; velocity: 0
@88200 Channel: 1 Note on, D3 key =  50 ; velocity: 127
@88200 Channel: 1 Note on, G3 key =  55 ; velocity: 127
@88260 Channel: 1 Note on, D3 key =  50 ; velocity: 0
@88260 Channel: 1 Note on, G3 key =  55 ; velocity: 0
@88260 Channel: 1 Note on, A3 key =  57 ; velocity: 127
@88260 Channel: 1 Note on, E3 key =  52 ; velocity: 127
@88320 Channel: 1 Note on, A3 key =  57 ; velocity: 0
@88320 Channel: 1 Note on, E3 key =  52 ; velocity: 0
@88320 Channel: 1 Note on, E2 key =  40 ; velocity: 127
@88380 Channel: 1 Note on, E2 key =  40 ; velocity: 0
@88380 Channel: 1 Note on, E2 key =  40 ; velocity: 127
@88440 Channel: 1 Note on, E2 key =  40 ; velocity: 0
@88440 Channel: 1 Note on, E2 key =  40 ; velocity: 127
@88500 Channel: 1 Note on, E2 key =  40 ; velocity: 0
@88500 Channel: 1 Note on, E2 key =  40 ; velocity: 127
@88560 Channel: 1 Note on, E2 key =  40 ; velocity: 0
@88560 Channel: 1 Note on, E3 key =  52 ; velocity: 127
@88620 Channel: 1 Note on, E3 key =  52 ; velocity: 0
@88620 Channel: 1 Note on, D3 key =  50 ; velocity: 127
@88680 Channel: 1 Note on, D3 key =  50 ; velocity: 0
@88680 Channel: 1 Note on, B2 key =  47 ; velocity: 127
@88740 Channel: 1 Note on, B2 key =  47 ; velocity: 0
@88740 Channel: 1 Note on, A#2 key =  46 ; velocity: 127
@88800 Channel: 1 Note on, A#2 key =  46 ; velocity: 0
@88800 Channel: 1 Note on, E2 key =  40 ; velocity: 127
@88860 Channel: 1 Note on, E2 key =  40 ; velocity: 0
@88860 Channel: 1 Note on, E2 key =  40 ; velocity: 127
@88920 Channel: 1 Note on, E2 key =  40 ; velocity: 0
@88920 Channel: 1 Note on, E2 key =  40 ; velocity: 127
@88980 Channel: 1 Note on, E2 key =  40 ; velocity: 0
@88980 Channel: 1 Note on, E2 key =  40 ; velocity: 127
@89040 Channel: 1 Note on, E2 key =  40 ; velocity: 0
@89040 Channel: 1 Note on, G3 key =  55 ; velocity: 127
@89040 Channel: 1 Note on, D3 key =  50 ; velocity: 127
@89100 Channel: 1 Note on, G3 key =  55 ; velocity: 0
@89100 Channel: 1 Note on, D3 key =  50 ; velocity: 0
@89100 Channel: 1 Note on, E3 key =  52 ; velocity: 127
@89100 Channel: 1 Note on, A3 key =  57 ; velocity: 127
@89160 Channel: 1 Note on, E3 key =  52 ; velocity: 0
@89160 Channel: 1 Note on, A3 key =  57 ; velocity: 0
@89160 Channel: 1 Note on, D3 key =  50 ; velocity: 127
@89160 Channel: 1 Note on, G3 key =  55 ; velocity: 127
@89220 Channel: 1 Note on, D3 key =  50 ; velocity: 0
@89220 Channel: 1 Note on, G3 key =  55 ; velocity: 0
@89220 Channel: 1 Note on, A3 key =  57 ; velocity: 127
@89220 Channel: 1 Note on, E3 key =  52 ; velocity: 127
@89280 Channel: 1 Note on, A3 key =  57 ; velocity: 0
@89280 Channel: 1 Note on, E3 key =  52 ; velocity: 0
@89280 Channel: 1 Note on, E2 key =  40 ; velocity: 127
@89340 Channel: 1 Note on, E2 key =  40 ; velocity: 0
@89340 Channel: 1 Note on, E2 key =  40 ; velocity: 127
@89400 Channel: 1 Note on, E2 key =  40 ; velocity: 0
@89400 Channel: 1 Note on, E2 key =  40 ; velocity: 127
@89460 Channel: 1 Note on, E2 key =  40 ; velocity: 0
@89460 Channel: 1 Note on, E2 key =  40 ; velocity: 127
@89520 Channel: 1 Note on, E2 key =  40 ; velocity: 0
@89520 Channel: 1 Note on, E3 key =  52 ; velocity: 127
@89580 Channel: 1 Note on, E3 key =  52 ; velocity: 0
@89580 Channel: 1 Note on, D3 key =  50 ; velocity: 127
@89640 Channel: 1 Note on, D3 key =  50 ; velocity: 0
@89640 Channel: 1 Note on, B2 key =  47 ; velocity: 127
@89700 Channel: 1 Note on, B2 key =  47 ; velocity: 0
@89700 Channel: 1 Note on, A#2 key =  46 ; velocity: 127
@89760 Channel: 1 Note on, A#2 key =  46 ; velocity: 0
@89760 Channel: 1 Note on, E2 key =  40 ; velocity: 127
@89820 Channel: 1 Note on, E2 key =  40 ; velocity: 0
@89820 Channel: 1 Note on, E2 key =  40 ; velocity: 127
@89880 Channel: 1 Note on, E2 key =  40 ; velocity: 0
@89880 Channel: 1 Note on, E2 key =  40 ; velocity: 127
@89940 Channel: 1 Note on, E2 key =  40 ; velocity: 0
@89940 Channel: 1 Note on, E2 key =  40 ; velocity: 127
@90000 Channel: 1 Note on, E2 key =  40 ; velocity: 0
@90000 Channel: 1 Note on, G3 key =  55 ; velocity: 127
@90000 Channel: 1 Note on, D3 key =  50 ; velocity: 127
@90060 Channel: 1 Note on, G3 key =  55 ; velocity: 0
@90060 Channel: 1 Note on, D3 key =  50 ; velocity: 0
@90060 Channel: 1 Note on, E3 key =  52 ; velocity: 127
@90060 Channel: 1 Note on, A3 key =  57 ; velocity: 127
@90120 Channel: 1 Note on, E3 key =  52 ; velocity: 0
@90120 Channel: 1 Note on, A3 key =  57 ; velocity: 0
@90120 Channel: 1 Note on, D3 key =  50 ; velocity: 127
@90120 Channel: 1 Note on, G3 key =  55 ; velocity: 127
@90180 Channel: 1 Note on, D3 key =  50 ; velocity: 0
@90180 Channel: 1 Note on, G3 key =  55 ; velocity: 0
@90180 Channel: 1 Note on, A3 key =  57 ; velocity: 127
@90180 Channel: 1 Note on, E3 key =  52 ; velocity: 127
@90240 Channel: 1 Note on, A3 key =  57 ; velocity: 0
@90240 Channel: 1 Note on, E3 key =  52 ; velocity: 0
@90240 Channel: 1 Note on, E2 key =  40 ; velocity: 127
@90300 Channel: 1 Note on, E2 key =  40 ; velocity: 0
@90300 Channel: 1 Note on, E2 key =  40 ; velocity: 127
@90360 Channel: 1 Note on, E2 key =  40 ; velocity: 0
@90360 Channel: 1 Note on, E2 key =  40 ; velocity: 127
@90420 Channel: 1 Note on, E2 key =  40 ; velocity: 0
@90420 Channel: 1 Note on, E2 key =  40 ; velocity: 127
@90480 Channel: 1 Note on, E2 key =  40 ; velocity: 0
@90480 Channel: 1 Note on, E3 key =  52 ; velocity: 127
@90540 Channel: 1 Note on, E3 key =  52 ; velocity: 0
@90540 Channel: 1 Note on, D3 key =  50 ; velocity: 127
@90600 Channel: 1 Note on, D3 key =  50 ; velocity: 0
@90600 Channel: 1 Note on, B2 key =  47 ; velocity: 127
@90660 Channel: 1 Note on, B2 key =  47 ; velocity: 0
@90660 Channel: 1 Note on, A#2 key =  46 ; velocity: 127
@90720 Channel: 1 Note on, A#2 key =  46 ; velocity: 0
@90720 Channel: 1 Note on, E2 key =  40 ; velocity: 127
@90780 Channel: 1 Note on, E2 key =  40 ; velocity: 0
@90780 Channel: 1 Note on, E2 key =  40 ; velocity: 127
@90840 Channel: 1 Note on, E2 key =  40 ; velocity: 0
@90840 Channel: 1 Note on, E2 key =  40 ; velocity: 127
@90900 Channel: 1 Note on, E2 key =  40 ; velocity: 0
@90900 Channel: 1 Note on, E2 key =  40 ; velocity: 127
@90960 Channel: 1 Note on, E2 key =  40 ; velocity: 0
@90960 Channel: 1 Note on, E2 key =  40 ; velocity: 127
@91020 Channel: 1 Note on, E2 key =  40 ; velocity: 0
@91020 Channel: 1 Note on, E2 key =  40 ; velocity: 127
@91080 Channel: 1 Note on, E2 key =  40 ; velocity: 0
@91080 Channel: 1 Note on, E2 key =  40 ; velocity: 127
@91140 Channel: 1 Note on, E2 key =  40 ; velocity: 0
@91140 Channel: 1 Note on, E2 key =  40 ; velocity: 127
@91200 Channel: 1 Note on, E2 key =  40 ; velocity: 0
@91200 Channel: 1 Note on, E2 key =  40 ; velocity: 127
@91260 Channel: 1 Note on, E2 key =  40 ; velocity: 0
@91260 Channel: 1 Note on, E2 key =  40 ; velocity: 127
@91320 Channel: 1 Note on, E2 key =  40 ; velocity: 0
@91320 Channel: 1 Note on, E2 key =  40 ; velocity: 127
@91380 Channel: 1 Note on, E2 key =  40 ; velocity: 0
@91380 Channel: 1 Note on, E2 key =  40 ; velocity: 127
@91440 Channel: 1 Note on, E2 key =  40 ; velocity: 0
@91440 Channel: 1 Note on, B2 key =  47 ; velocity: 127
@91500 Channel: 1 Note on, B2 key =  47 ; velocity: 0
@91500 Channel: 1 Note on, A#2 key =  46 ; velocity: 127
@91560 Channel: 1 Note on, A#2 key =  46 ; velocity: 0
@91560 Channel: 1 Note on, G3 key =  55 ; velocity: 127
@91620 Channel: 1 Note on, G3 key =  55 ; velocity: 0
@91620 Channel: 1 Note on, E3 key =  52 ; velocity: 127
@91680 Channel: 1 Note on, E3 key =  52 ; velocity: 0
@91680 Channel: 1 Note on, E2 key =  40 ; velocity: 127
@91740 Channel: 1 Note on, E2 key =  40 ; velocity: 0
@91740 Channel: 1 Note on, E2 key =  40 ; velocity: 127
@91800 Channel: 1 Note on, E2 key =  40 ; velocity: 0
@91800 Channel: 1 Note on, E2 key =  40 ; velocity: 127
@91860 Channel: 1 Note on, E2 key =  40 ; velocity: 0
@91860 Channel: 1 Note on, E2 key =  40 ; velocity: 127
@91920 Channel: 1 Note on, E2 key =  40 ; velocity: 0
@91920 Channel: 1 Note on, E2 key =  40 ; velocity: 127
@91980 Channel: 1 Note on, E2 key =  40 ; velocity: 0
@91980 Channel: 1 Note on, E2 key =  40 ; velocity: 127
@92040 Channel: 1 Note on, E2 key =  40 ; velocity: 0
@92040 Channel: 1 Note on, E2 key =  40 ; velocity: 127
@92100 Channel: 1 Note on, E2 key =  40 ; velocity: 0
@92100 Channel: 1 Note on, E2 key =  40 ; velocity: 127
@92160 Channel: 1 Note on, E2 key =  40 ; velocity: 0
@92160 Channel: 1 Note on, E2 key =  40 ; velocity: 127
@92220 Channel: 1 Note on, E2 key =  40 ; velocity: 0
@92220 Channel: 1 Note on, E2 key =  40 ; velocity: 127
@92280 Channel: 1 Note on, E2 key =  40 ; velocity: 0
@92280 Channel: 1 Note on, E2 key =  40 ; velocity: 127
@92340 Channel: 1 Note on, E2 key =  40 ; velocity: 0
@92340 Channel: 1 Note on, E2 key =  40 ; velocity: 127
@92400 Channel: 1 Note on, E2 key =  40 ; velocity: 0
@92400 Channel: 1 Note on, B2 key =  47 ; velocity: 127
@92460 Channel: 1 Note on, B2 key =  47 ; velocity: 0
@92460 Channel: 1 Note on, A#2 key =  46 ; velocity: 127
@92520 Channel: 1 Note on, A#2 key =  46 ; velocity: 0
@92520 Channel: 1 Note on, G3 key =  55 ; velocity: 127
@92580 Channel: 1 Note on, G3 key =  55 ; velocity: 0
@92580 Channel: 1 Note on, E3 key =  52 ; velocity: 127
@92640 Channel: 1 Note on, E3 key =  52 ; velocity: 0
@92640 Channel: 1 Note on, E2 key =  40 ; velocity: 127
@92700 Channel: 1 Note on, E2 key =  40 ; velocity: 0
@92700 Channel: 1 Note on, E2 key =  40 ; velocity: 127
@92760 Channel: 1 Note on, E2 key =  40 ; velocity: 0
@92760 Channel: 1 Note on, E2 key =  40 ; velocity: 127
@92820 Channel: 1 Note on, E2 key =  40 ; velocity: 0
@92820 Channel: 1 Note on, E2 key =  40 ; velocity: 127
@92880 Channel: 1 Note on, E2 key =  40 ; velocity: 0
@92880 Channel: 1 Note on, E2 key =  40 ; velocity: 127
@92940 Channel: 1 Note on, E2 key =  40 ; velocity: 0
@92940 Channel: 1 Note on, E2 key =  40 ; velocity: 127
@93000 Channel: 1 Note on, E2 key =  40 ; velocity: 0
@93000 Channel: 1 Note on, E2 key =  40 ; velocity: 127
@93060 Channel: 1 Note on, E2 key =  40 ; velocity: 0
@93060 Channel: 1 Note on, E2 key =  40 ; velocity: 127
@93120 Channel: 1 Note on, E2 key =  40 ; velocity: 0
@93120 Channel: 1 Note on, E2 key =  40 ; velocity: 127
@93180 Channel: 1 Note on, E2 key =  40 ; velocity: 0
@93180 Channel: 1 Note on, E2 key =  40 ; velocity: 127
@93240 Channel: 1 Note on, E2 key =  40 ; velocity: 0
@93240 Channel: 1 Note on, E2 key =  40 ; velocity: 127
@93300 Channel: 1 Note on, E2 key =  40 ; velocity: 0
@93300 Channel: 1 Note on, E2 key =  40 ; velocity: 127
@93360 Channel: 1 Note on, E2 key =  40 ; velocity: 0
@93360 Channel: 1 Note on, B2 key =  47 ; velocity: 127
@93420 Channel: 1 Note on, B2 key =  47 ; velocity: 0
@93420 Channel: 1 Note on, A#2 key =  46 ; velocity: 127
@93480 Channel: 1 Note on, A#2 key =  46 ; velocity: 0
@93480 Channel: 1 Note on, G3 key =  55 ; velocity: 127
@93540 Channel: 1 Note on, G3 key =  55 ; velocity: 0
@93540 Channel: 1 Note on, E3 key =  52 ; velocity: 127
@93600 Channel: 1 Note on, E3 key =  52 ; velocity: 0
@93600 Channel: 1 Note on, E2 key =  40 ; velocity: 127
@93660 Channel: 1 Note on, E2 key =  40 ; velocity: 0
@93660 Channel: 1 Note on, E2 key =  40 ; velocity: 127
@93720 Channel: 1 Note on, E2 key =  40 ; velocity: 0
@93720 Channel: 1 Note on, E2 key =  40 ; velocity: 127
@93780 Channel: 1 Note on, E2 key =  40 ; velocity: 0
@93780 Channel: 1 Note on, E2 key =  40 ; velocity: 127
@93840 Channel: 1 Note on, E2 key =  40 ; velocity: 0
@93840 Channel: 1 Note on, E2 key =  40 ; velocity: 127
@93900 Channel: 1 Note on, E2 key =  40 ; velocity: 0
@93900 Channel: 1 Note on, E2 key =  40 ; velocity: 127
@93960 Channel: 1 Note on, E2 key =  40 ; velocity: 0
@93960 Channel: 1 Note on, E2 key =  40 ; velocity: 127
@94020 Channel: 1 Note on, E2 key =  40 ; velocity: 0
@94020 Channel: 1 Note on, E2 key =  40 ; velocity: 127
@94080 Channel: 1 Note on, E2 key =  40 ; velocity: 0
@94080 Channel: 1 Note on, E2 key =  40 ; velocity: 127
@94140 Channel: 1 Note on, E2 key =  40 ; velocity: 0
@94140 Channel: 1 Note on, E2 key =  40 ; velocity: 127
@94200 Channel: 1 Note on, E2 key =  40 ; velocity: 0
@94200 Channel: 1 Note on, E2 key =  40 ; velocity: 127
@94260 Channel: 1 Note on, E2 key =  40 ; velocity: 0
@94260 Channel: 1 Note on, E2 key =  40 ; velocity: 127
@94320 Channel: 1 Note on, E2 key =  40 ; velocity: 0
@94320 Channel: 1 Note on, B2 key =  47 ; velocity: 127
@94380 Channel: 1 Note on, B2 key =  47 ; velocity: 0
@94380 Channel: 1 Note on, A#2 key =  46 ; velocity: 127
@94440 Channel: 1 Note on, A#2 key =  46 ; velocity: 0
@94440 Channel: 1 Note on, G3 key =  55 ; velocity: 127
@94500 Channel: 1 Note on, G3 key =  55 ; velocity: 0
@94500 Channel: 1 Note on, E3 key =  52 ; velocity: 127
@94560 Channel: 1 Note on, E3 key =  52 ; velocity: 0
@94560 Channel: 1 Note on, C4 key =  60 ; velocity: 127
@94560 Channel: 1 Note on, G3 key =  55 ; velocity: 127
@94620 Channel: 1 Note on, C4 key =  60 ; velocity: 0
@94620 Channel: 1 Note on, G3 key =  55 ; velocity: 0
@94620 Channel: 1 Note on, E2 key =  40 ; velocity: 127
@94680 Channel: 1 Note on, E2 key =  40 ; velocity: 0
@94680 Channel: 1 Note on, E2 key =  40 ; velocity: 127
@94740 Channel: 1 Note on, E2 key =  40 ; velocity: 0
@94740 Channel: 1 Note on, E2 key =  40 ; velocity: 127
@94800 Channel: 1 Note on, E2 key =  40 ; velocity: 0
@94800 Channel: 1 Note on, G3 key =  55 ; velocity: 127
@94800 Channel: 1 Note on, C4 key =  60 ; velocity: 127
@94860 Channel: 1 Note on, G3 key =  55 ; velocity: 0
@94860 Channel: 1 Note on, C4 key =  60 ; velocity: 0
@94860 Channel: 1 Note on, D4 key =  62 ; velocity: 127
@94860 Channel: 1 Note on, A3 key =  57 ; velocity: 127
@94920 Channel: 1 Note on, D4 key =  62 ; velocity: 0
@94920 Channel: 1 Note on, A3 key =  57 ; velocity: 0
@94920 Channel: 1 Note on, G3 key =  55 ; velocity: 127
@94920 Channel: 1 Note on, C4 key =  60 ; velocity: 127
@95040 Channel: 1 Note on, G3 key =  55 ; velocity: 0
@95040 Channel: 1 Note on, C4 key =  60 ; velocity: 0
@95040 Channel: 1 Note on, C4 key =  60 ; velocity: 127
@95040 Channel: 1 Note on, G3 key =  55 ; velocity: 127
@95100 Channel: 1 Note on, C4 key =  60 ; velocity: 0
@95100 Channel: 1 Note on, G3 key =  55 ; velocity: 0
@95100 Channel: 1 Note on, E2 key =  40 ; velocity: 127
@95160 Channel: 1 Note on, E2 key =  40 ; velocity: 0
@95160 Channel: 1 Note on, E2 key =  40 ; velocity: 127
@95220 Channel: 1 Note on, E2 key =  40 ; velocity: 0
@95220 Channel: 1 Note on, E2 key =  40 ; velocity: 127
@95280 Channel: 1 Note on, E2 key =  40 ; velocity: 0
@95280 Channel: 1 Note on, G3 key =  55 ; velocity: 127
@95280 Channel: 1 Note on, C4 key =  60 ; velocity: 127
@95340 Channel: 1 Note on, G3 key =  55 ; velocity: 0
@95340 Channel: 1 Note on, C4 key =  60 ; velocity: 0
@95340 Channel: 1 Note on, D4 key =  62 ; velocity: 127
@95340 Channel: 1 Note on, A3 key =  57 ; velocity: 127
@95400 Channel: 1 Note on, D4 key =  62 ; velocity: 0
@95400 Channel: 1 Note on, A3 key =  57 ; velocity: 0
@95400 Channel: 1 Note on, G3 key =  55 ; velocity: 127
@95400 Channel: 1 Note on, C4 key =  60 ; velocity: 127
@95520 Channel: 1 Note on, G3 key =  55 ; velocity: 0
@95520 Channel: 1 Note on, C4 key =  60 ; velocity: 0
@95520 Channel: 1 Note on, C4 key =  60 ; velocity: 127
@95520 Channel: 1 Note on, G3 key =  55 ; velocity: 127
@95580 Channel: 1 Note on, C4 key =  60 ; velocity: 0
@95580 Channel: 1 Note on, G3 key =  55 ; velocity: 0
@95580 Channel: 1 Note on, E2 key =  40 ; velocity: 127
@95640 Channel: 1 Note on, E2 key =  40 ; velocity: 0
@95640 Channel: 1 Note on, E2 key =  40 ; velocity: 127
@95700 Channel: 1 Note on, E2 key =  40 ; velocity: 0
@95700 Channel: 1 Note on, E2 key =  40 ; velocity: 127
@95760 Channel: 1 Note on, E2 key =  40 ; velocity: 0
@95760 Channel: 1 Note on, G3 key =  55 ; velocity: 127
@95760 Channel: 1 Note on, C4 key =  60 ; velocity: 127
@95820 Channel: 1 Note on, G3 key =  55 ; velocity: 0
@95820 Channel: 1 Note on, C4 key =  60 ; velocity: 0
@95820 Channel: 1 Note on, D4 key =  62 ; velocity: 127
@95820 Channel: 1 Note on, A3 key =  57 ; velocity: 127
@95880 Channel: 1 Note on, D4 key =  62 ; velocity: 0
@95880 Channel: 1 Note on, A3 key =  57 ; velocity: 0
@95880 Channel: 1 Note on, G3 key =  55 ; velocity: 127
@95880 Channel: 1 Note on, C4 key =  60 ; velocity: 127
@96000 Channel: 1 Note on, G3 key =  55 ; velocity: 0
@96000 Channel: 1 Note on, C4 key =  60 ; velocity: 0
@96000 Channel: 1 Note on, D4 key =  62 ; velocity: 127
@96060 Channel: 1 Note on, D4 key =  62 ; velocity: 0
@96060 Channel: 1 Note on, C4 key =  60 ; velocity: 127
@96120 Channel: 1 Note on, C4 key =  60 ; velocity: 0
@96120 Channel: 1 Note on, A3 key =  57 ; velocity: 127
@96180 Channel: 1 Note on, A3 key =  57 ; velocity: 0
@96180 Channel: 1 Note on, G#3 key =  56 ; velocity: 127
@96240 Channel: 1 Note on, G#3 key =  56 ; velocity: 0
@96240 Channel: 1 Note on, G3 key =  55 ; velocity: 127
@96300 Channel: 1 Note on, G3 key =  55 ; velocity: 0
@96300 Channel: 1 Note on, E3 key =  52 ; velocity: 127
@96360 Channel: 1 Note on, E3 key =  52 ; velocity: 0
@96360 Channel: 1 Note on, D#3 key =  51 ; velocity: 127
@96420 Channel: 1 Note on, D#3 key =  51 ; velocity: 0
@96420 Channel: 1 Note on, D3 key =  50 ; velocity: 127
@96480 Channel: 1 Note on, D3 key =  50 ; velocity: 0
@96480 Channel: 1 Note on, C4 key =  60 ; velocity: 127
@96480 Channel: 1 Note on, G3 key =  55 ; velocity: 127
@96540 Channel: 1 Note on, C4 key =  60 ; velocity: 0
@96540 Channel: 1 Note on, G3 key =  55 ; velocity: 0
@96540 Channel: 1 Note on, E2 key =  40 ; velocity: 127
@96600 Channel: 1 Note on, E2 key =  40 ; velocity: 0
@96600 Channel: 1 Note on, E2 key =  40 ; velocity: 127
@96660 Channel: 1 Note on, E2 key =  40 ; velocity: 0
@96660 Channel: 1 Note on, E2 key =  40 ; velocity: 127
@96720 Channel: 1 Note on, E2 key =  40 ; velocity: 0
@96720 Channel: 1 Note on, G3 key =  55 ; velocity: 127
@96720 Channel: 1 Note on, C4 key =  60 ; velocity: 127
@96780 Channel: 1 Note on, G3 key =  55 ; velocity: 0
@96780 Channel: 1 Note on, C4 key =  60 ; velocity: 0
@96780 Channel: 1 Note on, D4 key =  62 ; velocity: 127
@96780 Channel: 1 Note on, A3 key =  57 ; velocity: 127
@96840 Channel: 1 Note on, D4 key =  62 ; velocity: 0
@96840 Channel: 1 Note on, A3 key =  57 ; velocity: 0
@96840 Channel: 1 Note on, G3 key =  55 ; velocity: 127
@96840 Channel: 1 Note on, C4 key =  60 ; velocity: 127
@96960 Channel: 1 Note on, G3 key =  55 ; velocity: 0
@96960 Channel: 1 Note on, C4 key =  60 ; velocity: 0
@96960 Channel: 1 Note on, C4 key =  60 ; velocity: 127
@96960 Channel: 1 Note on, G3 key =  55 ; velocity: 127
@97020 Channel: 1 Note on, C4 key =  60 ; velocity: 0
@97020 Channel: 1 Note on, G3 key =  55 ; velocity: 0
@97020 Channel: 1 Note on, E2 key =  40 ; velocity: 127
@97080 Channel: 1 Note on, E2 key =  40 ; velocity: 0
@97080 Channel: 1 Note on, E2 key =  40 ; velocity: 127
@97140 Channel: 1 Note on, E2 key =  40 ; velocity: 0
@97140 Channel: 1 Note on, E2 key =  40 ; velocity: 127
@97200 Channel: 1 Note on, E2 key =  40 ; velocity: 0
@97200 Channel: 1 Note on, G3 key =  55 ; velocity: 127
@97200 Channel: 1 Note on, C4 key =  60 ; velocity: 127
@97260 Channel: 1 Note on, G3 key =  55 ; velocity: 0
@97260 Channel: 1 Note on, C4 key =  60 ; velocity: 0
@97260 Channel: 1 Note on, D4 key =  62 ; velocity: 127
@97260 Channel: 1 Note on, A3 key =  57 ; velocity: 127
@97320 Channel: 1 Note on, D4 key =  62 ; velocity: 0
@97320 Channel: 1 Note on, A3 key =  57 ; velocity: 0
@97320 Channel: 1 Note on, G3 key =  55 ; velocity: 127
@97320 Channel: 1 Note on, C4 key =  60 ; velocity: 127
@97440 Channel: 1 Note on, G3 key =  55 ; velocity: 0
@97440 Channel: 1 Note on, C4 key =  60 ; velocity: 0
@97440 Channel: 1 Note on, C4 key =  60 ; velocity: 127
@97440 Channel: 1 Note on, G3 key =  55 ; velocity: 127
@97500 Channel: 1 Note on, C4 key =  60 ; velocity: 0
@97500 Channel: 1 Note on, G3 key =  55 ; velocity: 0
@97500 Channel: 1 Note on, E2 key =  40 ; velocity: 127
@97560 Channel: 1 Note on, E2 key =  40 ; velocity: 0
@97560 Channel: 1 Note on, E2 key =  40 ; velocity: 127
@97620 Channel: 1 Note on, E2 key =  40 ; velocity: 0
@97620 Channel: 1 Note on, E2 key =  40 ; velocity: 127
@97680 Channel: 1 Note on, E2 key =  40 ; velocity: 0
@97680 Channel: 1 Note on, G3 key =  55 ; velocity: 127
@97680 Channel: 1 Note on, C4 key =  60 ; velocity: 127
@97740 Channel: 1 Note on, G3 key =  55 ; velocity: 0
@97740 Channel: 1 Note on, C4 key =  60 ; velocity: 0
@97740 Channel: 1 Note on, D4 key =  62 ; velocity: 127
@97740 Channel: 1 Note on, A3 key =  57 ; velocity: 127
@97800 Channel: 1 Note on, D4 key =  62 ; velocity: 0
@97800 Channel: 1 Note on, A3 key =  57 ; velocity: 0
@97800 Channel: 1 Note on, G3 key =  55 ; velocity: 127
@97800 Channel: 1 Note on, C4 key =  60 ; velocity: 127
@97920 Channel: 1 Note on, G3 key =  55 ; velocity: 0
@97920 Channel: 1 Note on, C4 key =  60 ; velocity: 0
@97920 Channel: 1 Note on, E4 key =  64 ; velocity: 127
@97980 Channel: 1 Note on, E4 key =  64 ; velocity: 0
@97980 Channel: 1 Note on, D4 key =  62 ; velocity: 127
@98040 Channel: 1 Note on, D4 key =  62 ; velocity: 0
@98040 Channel: 1 Note on, B3 key =  59 ; velocity: 127
@98100 Channel: 1 Note on, B3 key =  59 ; velocity: 0
@98100 Channel: 1 Note on, D4 key =  62 ; velocity: 127
@98160 Channel: 1 Note on, D4 key =  62 ; velocity: 0
@98160 Channel: 1 Note on, B3 key =  59 ; velocity: 127
@98220 Channel: 1 Note on, B3 key =  59 ; velocity: 0
@98220 Channel: 1 Note on, A#3 key =  58 ; velocity: 127
@98280 Channel: 1 Note on, A#3 key =  58 ; velocity: 0
@98280 Channel: 1 Note on, A3 key =  57 ; velocity: 127
@98340 Channel: 1 Note on, A3 key =  57 ; velocity: 0
@98340 Channel: 1 Note on, G3 key =  55 ; velocity: 127
@98400 Channel: 1 Note on, G3 key =  55 ; velocity: 0
@98400 Channel: 1 Note on, E4 key =  64 ; velocity: 127
@98460 Channel: 1 Note on, E4 key =  64 ; velocity: 0
@98460 Channel: 1 Note on, D4 key =  62 ; velocity: 127
@98520 Channel: 1 Note on, D4 key =  62 ; velocity: 0
@98520 Channel: 1 Note on, B3 key =  59 ; velocity: 127
@98580 Channel: 1 Note on, B3 key =  59 ; velocity: 0
@98580 Channel: 1 Note on, D4 key =  62 ; velocity: 127
@98640 Channel: 1 Note on, D4 key =  62 ; velocity: 0
@98640 Channel: 1 Note on, B3 key =  59 ; velocity: 127
@98700 Channel: 1 Note on, B3 key =  59 ; velocity: 0
@98700 Channel: 1 Note on, A#3 key =  58 ; velocity: 127
@98760 Channel: 1 Note on, A#3 key =  58 ; velocity: 0
@98760 Channel: 1 Note on, A3 key =  57 ; velocity: 127
@98820 Channel: 1 Note on, A3 key =  57 ; velocity: 0
@98820 Channel: 1 Note on, G3 key =  55 ; velocity: 127
@98880 Channel: 1 Note on, G3 key =  55 ; velocity: 0
@98880 Channel: 1 Note on, D4 key =  62 ; velocity: 127
@98880 Channel: 1 Note on, G3 key =  55 ; velocity: 127
@99360 Channel: 1 Note on, D4 key =  62 ; velocity: 0
@99360 Channel: 1 Note on, G3 key =  55 ; velocity: 0
@99360 Channel: 1 Note on, C#4 key =  61 ; velocity: 127
@99360 Channel: 1 Note on, F#3 key =  54 ; velocity: 127
@99600 Channel: 1 Note on, C#4 key =  61 ; velocity: 0
@99600 Channel: 1 Note on, F#3 key =  54 ; velocity: 0
@99600 Channel: 1 Note on, C4 key =  60 ; velocity: 127
@99600 Channel: 1 Note on, F3 key =  53 ; velocity: 127
@99840 Channel: 1 Note on, C4 key =  60 ; velocity: 0
@99840 Channel: 1 Note on, F3 key =  53 ; velocity: 0
@99840 Channel: 1 Note on, E2 key =  40 ; velocity: 127
@99900 Channel: 1 Note on, E2 key =  40 ; velocity: 0
@99900 Channel: 1 Note on, E2 key =  40 ; velocity: 127
@99960 Channel: 1 Note on, E2 key =  40 ; velocity: 0
@99960 Channel: 1 Note on, E2 key =  40 ; velocity: 127
@100020 Channel: 1 Note on, E2 key =  40 ; velocity: 0
@100020 Channel: 1 Note on, E2 key =  40 ; velocity: 127
@100080 Channel: 1 Note on, E2 key =  40 ; velocity: 0
@100080 Channel: 1 Note on, E2 key =  40 ; velocity: 127
@100140 Channel: 1 Note on, E2 key =  40 ; velocity: 0
@100140 Channel: 1 Note on, E2 key =  40 ; velocity: 127
@100200 Channel: 1 Note on, E2 key =  40 ; velocity: 0
@100200 Channel: 1 Note on, E2 key =  40 ; velocity: 127
@100260 Channel: 1 Note on, E2 key =  40 ; velocity: 0
@100260 Channel: 1 Note on, E2 key =  40 ; velocity: 127
@100320 Channel: 1 Note on, E2 key =  40 ; velocity: 0
@100320 Channel: 1 Note on, E2 key =  40 ; velocity: 127
@100380 Channel: 1 Note on, E2 key =  40 ; velocity: 0
@100380 Channel: 1 Note on, E2 key =  40 ; velocity: 127
@100440 Channel: 1 Note on, E2 key =  40 ; velocity: 0
@100440 Channel: 1 Note on, E2 key =  40 ; velocity: 127
@100500 Channel: 1 Note on, E2 key =  40 ; velocity: 0
@100500 Channel: 1 Note on, E2 key =  40 ; velocity: 127
@100560 Channel: 1 Note on, E2 key =  40 ; velocity: 0
@100560 Channel: 1 Note on, E2 key =  40 ; velocity: 127
@100620 Channel: 1 Note on, E2 key =  40 ; velocity: 0
@100620 Channel: 1 Note on, E2 key =  40 ; velocity: 127
@100680 Channel: 1 Note on, E2 key =  40 ; velocity: 0
@100680 Channel: 1 Note on, E2 key =  40 ; velocity: 127
@100740 Channel: 1 Note on, E2 key =  40 ; velocity: 0
@100740 Channel: 1 Note on, E2 key =  40 ; velocity: 127
@100800 Channel: 1 Note on, E2 key =  40 ; velocity: 0
@100800 Channel: 1 Note on, D4 key =  62 ; velocity: 127
@100800 Channel: 1 Note on, G3 key =  55 ; velocity: 127
@101280 Channel: 1 Note on, D4 key =  62 ; velocity: 0
@101280 Channel: 1 Note on, G3 key =  55 ; velocity: 0
@101280 Channel: 1 Note on, C#4 key =  61 ; velocity: 127
@101280 Channel: 1 Note on, F#3 key =  54 ; velocity: 127
@101520 Channel: 1 Note on, C#4 key =  61 ; velocity: 0
@101520 Channel: 1 Note on, F#3 key =  54 ; velocity: 0
@101520 Channel: 1 Note on, C4 key =  60 ; velocity: 127
@101520 Channel: 1 Note on, F3 key =  53 ; velocity: 127
@101760 Channel: 1 Note on, C4 key =  60 ; velocity: 0
@101760 Channel: 1 Note on, F3 key =  53 ; velocity: 0
@101760 Channel: 1 Note on, E2 key =  40 ; velocity: 127
@101820 Channel: 1 Note on, E2 key =  40 ; velocity: 0
@101820 Channel: 1 Note on, E2 key =  40 ; velocity: 127
@101880 Channel: 1 Note on, E2 key =  40 ; velocity: 0
@101880 Channel: 1 Note on, E2 key =  40 ; velocity: 127
@101940 Channel: 1 Note on, E2 key =  40 ; velocity: 0
@101940 Channel: 1 Note on, E2 key =  40 ; velocity: 127
@102000 Channel: 1 Note on, E2 key =  40 ; velocity: 0
@102000 Channel: 1 Note on, E2 key =  40 ; velocity: 127
@102060 Channel: 1 Note on, E2 key =  40 ; velocity: 0
@102060 Channel: 1 Note on, E2 key =  40 ; velocity: 127
@102120 Channel: 1 Note on, E2 key =  40 ; velocity: 0
@102120 Channel: 1 Note on, E2 key =  40 ; velocity: 127
@102180 Channel: 1 Note on, E2 key =  40 ; velocity: 0
@102180 Channel: 1 Note on, E2 key =  40 ; velocity: 127
@102240 Channel: 1 Note on, E2 key =  40 ; velocity: 0
@102240 Channel: 1 Note on, E2 key =  40 ; velocity: 127
@102300 Channel: 1 Note on, E2 key =  40 ; velocity: 0
@102300 Channel: 1 Note on, E2 key =  40 ; velocity: 127
@102360 Channel: 1 Note on, E2 key =  40 ; velocity: 0
@102360 Channel: 1 Note on, E2 key =  40 ; velocity: 127
@102420 Channel: 1 Note on, E2 key =  40 ; velocity: 0
@102420 Channel: 1 Note on, E2 key =  40 ; velocity: 127
@102480 Channel: 1 Note on, E2 key =  40 ; velocity: 0
@102480 Channel: 1 Note on, E2 key =  40 ; velocity: 127
@102540 Channel: 1 Note on, E2 key =  40 ; velocity: 0
@102540 Channel: 1 Note on, E2 key =  40 ; velocity: 127
@102600 Channel: 1 Note on, E2 key =  40 ; velocity: 0
@102600 Channel: 1 Note on, E2 key =  40 ; velocity: 127
@102660 Channel: 1 Note on, E2 key =  40 ; velocity: 0
@102660 Channel: 1 Note on, E2 key =  40 ; velocity: 127
@102720 Channel: 1 Note on, E2 key =  40 ; velocity: 0
@102720 Channel: 1 Note on, D4 key =  62 ; velocity: 127
@102720 Channel: 1 Note on, G3 key =  55 ; velocity: 127
@103200 Channel: 1 Note on, D4 key =  62 ; velocity: 0
@103200 Channel: 1 Note on, G3 key =  55 ; velocity: 0
@103200 Channel: 1 Note on, C#4 key =  61 ; velocity: 127
@103200 Channel: 1 Note on, F#3 key =  54 ; velocity: 127
@103440 Channel: 1 Note on, C#4 key =  61 ; velocity: 0
@103440 Channel: 1 Note on, F#3 key =  54 ; velocity: 0
@103440 Channel: 1 Note on, C4 key =  60 ; velocity: 127
@103440 Channel: 1 Note on, F3 key =  53 ; velocity: 127
@103680 Channel: 1 Note on, C4 key =  60 ; velocity: 0
@103680 Channel: 1 Note on, F3 key =  53 ; velocity: 0
@103680 Channel: 1 Note on, E2 key =  40 ; velocity: 127
@103740 Channel: 1 Note on, E2 key =  40 ; velocity: 0
@103740 Channel: 1 Note on, E2 key =  40 ; velocity: 127
@103800 Channel: 1 Note on, E2 key =  40 ; velocity: 0
@103800 Channel: 1 Note on, E2 key =  40 ; velocity: 127
@103860 Channel: 1 Note on, E2 key =  40 ; velocity: 0
@103860 Channel: 1 Note on, E2 key =  40 ; velocity: 127
@103920 Channel: 1 Note on, E2 key =  40 ; velocity: 0
@103920 Channel: 1 Note on, E2 key =  40 ; velocity: 127
@103980 Channel: 1 Note on, E2 key =  40 ; velocity: 0
@103980 Channel: 1 Note on, E2 key =  40 ; velocity: 127
@104040 Channel: 1 Note on, E2 key =  40 ; velocity: 0
@104040 Channel: 1 Note on, E2 key =  40 ; velocity: 127
@104100 Channel: 1 Note on, E2 key =  40 ; velocity: 0
@104100 Channel: 1 Note on, E2 key =  40 ; velocity: 127
@104160 Channel: 1 Note on, E2 key =  40 ; velocity: 0
@104160 Channel: 1 Note on, E2 key =  40 ; velocity: 127
@104220 Channel: 1 Note on, E2 key =  40 ; velocity: 0
@104220 Channel: 1 Note on, E2 key =  40 ; velocity: 127
@104280 Channel: 1 Note on, E2 key =  40 ; velocity: 0
@104280 Channel: 1 Note on, E2 key =  40 ; velocity: 127
@104340 Channel: 1 Note on, E2 key =  40 ; velocity: 0
@104340 Channel: 1 Note on, E2 key =  40 ; velocity: 127
@104400 Channel: 1 Note on, E2 key =  40 ; velocity: 0
@104400 Channel: 1 Note on, E2 key =  40 ; velocity: 127
@104460 Channel: 1 Note on, E2 key =  40 ; velocity: 0
@104460 Channel: 1 Note on, E2 key =  40 ; velocity: 127
@104520 Channel: 1 Note on, E2 key =  40 ; velocity: 0
@104520 Channel: 1 Note on, E2 key =  40 ; velocity: 127
@104580 Channel: 1 Note on, E2 key =  40 ; velocity: 0
@104580 Channel: 1 Note on, E2 key =  40 ; velocity: 127
@104640 Channel: 1 Note on, E2 key =  40 ; velocity: 0
@104640 Channel: 1 Note on, D4 key =  62 ; velocity: 127
@104640 Channel: 1 Note on, G3 key =  55 ; velocity: 127
@105120 Channel: 1 Note on, D4 key =  62 ; velocity: 0
@105120 Channel: 1 Note on, G3 key =  55 ; velocity: 0
@105120 Channel: 1 Note on, C#4 key =  61 ; velocity: 127
@105120 Channel: 1 Note on, F#3 key =  54 ; velocity: 127
@105360 Channel: 1 Note on, C#4 key =  61 ; velocity: 0
@105360 Channel: 1 Note on, F#3 key =  54 ; velocity: 0
@105360 Channel: 1 Note on, C4 key =  60 ; velocity: 127
@105360 Channel: 1 Note on, F3 key =  53 ; velocity: 127
@105600 Channel: 1 Note on, C4 key =  60 ; velocity: 0
@105600 Channel: 1 Note on, F3 key =  53 ; velocity: 0
@105600 Channel: 1 Note on, B3 key =  59 ; velocity: 127
@105600 Channel: 1 Note on, E3 key =  52 ; velocity: 127
@105660 Channel: 1 Note on, B3 key =  59 ; velocity: 0
@105660 Channel: 1 Note on, E3 key =  52 ; velocity: 0
@105660 Channel: 1 Note on, E2 key =  40 ; velocity: 127
@105720 Channel: 1 Note on, E2 key =  40 ; velocity: 0
@105720 Channel: 1 Note on, E2 key =  40 ; velocity: 127
@105780 Channel: 1 Note on, E2 key =  40 ; velocity: 0
@105780 Channel: 1 Note on, E2 key =  40 ; velocity: 127
@105840 Channel: 1 Note on, E2 key =  40 ; velocity: 0
@105840 Channel: 1 Note on, E2 key =  40 ; velocity: 127
@105900 Channel: 1 Note on, E2 key =  40 ; velocity: 0
@105900 Channel: 1 Note on, E2 key =  40 ; velocity: 127
@105960 Channel: 1 Note on, E2 key =  40 ; velocity: 0
@105960 Channel: 1 Note on, E2 key =  40 ; velocity: 127
@106020 Channel: 1 Note on, E2 key =  40 ; velocity: 0
@106020 Channel: 1 Note on, E2 key =  40 ; velocity: 127
@106080 Channel: 1 Note on, E2 key =  40 ; velocity: 0
@106080 Channel: 1 Note on, E2 key =  40 ; velocity: 127
@106140 Channel: 1 Note on, E2 key =  40 ; velocity: 0
@106140 Channel: 1 Note on, E2 key =  40 ; velocity: 127
@106200 Channel: 1 Note on, E2 key =  40 ; velocity: 0
@106200 Channel: 1 Note on, E2 key =  40 ; velocity: 127
@106260 Channel: 1 Note on, E2 key =  40 ; velocity: 0
@106260 Channel: 1 Note on, E2 key =  40 ; velocity: 127
@106320 Channel: 1 Note on, E2 key =  40 ; velocity: 0
@106320 Channel: 1 Note on, E2 key =  40 ; velocity: 127
@106380 Channel: 1 Note on, E2 key =  40 ; velocity: 0
@106380 Channel: 1 Note on, E2 key =  40 ; velocity: 127
@106440 Channel: 1 Note on, E2 key =  40 ; velocity: 0
@106440 Channel: 1 Note on, E2 key =  40 ; velocity: 127
@106500 Channel: 1 Note on, E2 key =  40 ; velocity: 0
@106500 Channel: 1 Note on, D4 key =  62 ; velocity: 127
@106500 Channel: 1 Note on, G3 key =  55 ; velocity: 127
@106560 Channel: 1 Note on, D4 key =  62 ; velocity: 0
@106560 Channel: 1 Note on, G3 key =  55 ; velocity: 0
@106560 Channel: 1 Note on, C#4 key =  61 ; velocity: 127
@106560 Channel: 1 Note on, F#3 key =  54 ; velocity: 127
@106620 Channel: 1 Note on, C#4 key =  61 ; velocity: 0
@106620 Channel: 1 Note on, F#3 key =  54 ; velocity: 0
@106620 Channel: 1 Note on, E2 key =  40 ; velocity: 127
@106680 Channel: 1 Note on, E2 key =  40 ; velocity: 0
@106680 Channel: 1 Note on, E2 key =  40 ; velocity: 127
@106740 Channel: 1 Note on, E2 key =  40 ; velocity: 0
@106740 Channel: 1 Note on, F#3 key =  54 ; velocity: 127
@106740 Channel: 1 Note on, C#4 key =  61 ; velocity: 127
@106800 Channel: 1 Note on, F#3 key =  54 ; velocity: 0
@106800 Channel: 1 Note on, C#4 key =  61 ; velocity: 0
@106800 Channel: 1 Note on, F3 key =  53 ; velocity: 127
@106800 Channel: 1 Note on, C4 key =  60 ; velocity: 127
@106860 Channel: 1 Note on, F3 key =  53 ; velocity: 0
@106860 Channel: 1 Note on, C4 key =  60 ; velocity: 0
@106860 Channel: 1 Note on, E2 key =  40 ; velocity: 127
@106920 Channel: 1 Note on, E2 key =  40 ; velocity: 0
@106920 Channel: 1 Note on, E2 key =  40 ; velocity: 127
@106980 Channel: 1 Note on, E2 key =  40 ; velocity: 0
@106980 Channel: 1 Note on, C4 key =  60 ; velocity: 127
@106980 Channel: 1 Note on, F3 key =  53 ; velocity: 127
@107040 Channel: 1 Note on, C4 key =  60 ; velocity: 0
@107040 Channel: 1 Note on, F3 key =  53 ; velocity: 0
@107040 Channel: 1 Note on, B2 key =  47 ; velocity: 127
@107040 Channel: 1 Note on, E2 key =  40 ; velocity: 127
@107100 Channel: 1 Note on, B2 key =  47 ; velocity: 0
@107100 Channel: 1 Note on, E2 key =  40 ; velocity: 0
@107100 Channel: 1 Note on, E2 key =  40 ; velocity: 127
@107160 Channel: 1 Note on, E2 key =  40 ; velocity: 0
@107160 Channel: 1 Note on, E2 key =  40 ; velocity: 127
@107220 Channel: 1 Note on, E2 key =  40 ; velocity: 0
@107220 Channel: 1 Note on, E2 key =  40 ; velocity: 127
@107280 Channel: 1 Note on, E2 key =  40 ; velocity: 0
@107280 Channel: 1 Note on, E2 key =  40 ; velocity: 127
@107340 Channel: 1 Note on, E2 key =  40 ; velocity: 0
@107340 Channel: 1 Note on, E2 key =  40 ; velocity: 127
@107400 Channel: 1 Note on, E2 key =  40 ; velocity: 0
@107400 Channel: 1 Note on, E2 key =  40 ; velocity: 127
@107460 Channel: 1 Note on, E2 key =  40 ; velocity: 0
@107460 Channel: 1 Note on, G3 key =  55 ; velocity: 127
@107460 Channel: 1 Note on, D4 key =  62 ; velocity: 127
@107520 Channel: 1 Note on, G3 key =  55 ; velocity: 0
@107520 Channel: 1 Note on, D4 key =  62 ; velocity: 0
@107520 Channel: 1 Note on, C#4 key =  61 ; velocity: 127
@107520 Channel: 1 Note on, F#3 key =  54 ; velocity: 127
@107580 Channel: 1 Note on, C#4 key =  61 ; velocity: 0
@107580 Channel: 1 Note on, F#3 key =  54 ; velocity: 0
@107580 Channel: 1 Note on, E2 key =  40 ; velocity: 127
@107640 Channel: 1 Note on, E2 key =  40 ; velocity: 0
@107640 Channel: 1 Note on, E2 key =  40 ; velocity: 127
@107700 Channel: 1 Note on, E2 key =  40 ; velocity: 0
@107700 Channel: 1 Note on, F#3 key =  54 ; velocity: 127
@107700 Channel: 1 Note on, C#4 key =  61 ; velocity: 127
@107760 Channel: 1 Note on, F#3 key =  54 ; velocity: 0
@107760 Channel: 1 Note on, C#4 key =  61 ; velocity: 0
@107760 Channel: 1 Note on, A3 key =  57 ; velocity: 127
@107760 Channel: 1 Note on, D3 key =  50 ; velocity: 127
@107820 Channel: 1 Note on, A3 key =  57 ; velocity: 0
@107820 Channel: 1 Note on, D3 key =  50 ; velocity: 0
@107820 Channel: 1 Note on, E2 key =  40 ; velocity: 127
@107880 Channel: 1 Note on, E2 key =  40 ; velocity: 0
@107880 Channel: 1 Note on, E2 key =  40 ; velocity: 127
@107940 Channel: 1 Note on, E2 key =  40 ; velocity: 0
@107940 Channel: 1 Note on, D3 key =  50 ; velocity: 127
@107940 Channel: 1 Note on, A3 key =  57 ; velocity: 127
@108000 Channel: 1 Note on, D3 key =  50 ; velocity: 0
@108000 Channel: 1 Note on, A3 key =  57 ; velocity: 0
@108000 Channel: 1 Note on, B2 key =  47 ; velocity: 127
@108000 Channel: 1 Note on, E2 key =  40 ; velocity: 127
@108060 Channel: 1 Note on, B2 key =  47 ; velocity: 0
@108060 Channel: 1 Note on, E2 key =  40 ; velocity: 0
@108060 Channel: 1 Note on, E2 key =  40 ; velocity: 127
@108120 Channel: 1 Note on, E2 key =  40 ; velocity: 0
@108120 Channel: 1 Note on, E2 key =  40 ; velocity: 127
@108180 Channel: 1 Note on, E2 key =  40 ; velocity: 0
@108180 Channel: 1 Note on, E2 key =  40 ; velocity: 127
@108240 Channel: 1 Note on, E2 key =  40 ; velocity: 0
@108240 Channel: 1 Note on, E2 key =  40 ; velocity: 127
@108300 Channel: 1 Note on, E2 key =  40 ; velocity: 0
@108300 Channel: 1 Note on, E2 key =  40 ; velocity: 127
@108360 Channel: 1 Note on, E2 key =  40 ; velocity: 0
@108360 Channel: 1 Note on, E2 key =  40 ; velocity: 127
@108420 Channel: 1 Note on, E2 key =  40 ; velocity: 0
@108420 Channel: 1 Note on, G3 key =  55 ; velocity: 127
@108420 Channel: 1 Note on, D4 key =  62 ; velocity: 127
@108480 Channel: 1 Note on, G3 key =  55 ; velocity: 0
@108480 Channel: 1 Note on, D4 key =  62 ; velocity: 0
@108480 Channel: 1 Note on, C#4 key =  61 ; velocity: 127
@108480 Channel: 1 Note on, F#3 key =  54 ; velocity: 127
@108540 Channel: 1 Note on, C#4 key =  61 ; velocity: 0
@108540 Channel: 1 Note on, F#3 key =  54 ; velocity: 0
@108540 Channel: 1 Note on, E2 key =  40 ; velocity: 127
@108600 Channel: 1 Note on, E2 key =  40 ; velocity: 0
@108600 Channel: 1 Note on, E2 key =  40 ; velocity: 127
@108660 Channel: 1 Note on, E2 key =  40 ; velocity: 0
@108660 Channel: 1 Note on, F#3 key =  54 ; velocity: 127
@108660 Channel: 1 Note on, C#4 key =  61 ; velocity: 127
@108720 Channel: 1 Note on, F#3 key =  54 ; velocity: 0
@108720 Channel: 1 Note on, C#4 key =  61 ; velocity: 0
@108720 Channel: 1 Note on, F3 key =  53 ; velocity: 127
@108720 Channel: 1 Note on, C4 key =  60 ; velocity: 127
@108780 Channel: 1 Note on, F3 key =  53 ; velocity: 0
@108780 Channel: 1 Note on, C4 key =  60 ; velocity: 0
@108780 Channel: 1 Note on, E2 key =  40 ; velocity: 127
@108840 Channel: 1 Note on, E2 key =  40 ; velocity: 0
@108840 Channel: 1 Note on, E2 key =  40 ; velocity: 127
@108900 Channel: 1 Note on, E2 key =  40 ; velocity: 0
@108900 Channel: 1 Note on, C4 key =  60 ; velocity: 127
@108900 Channel: 1 Note on, F3 key =  53 ; velocity: 127
@108960 Channel: 1 Note on, C4 key =  60 ; velocity: 0
@108960 Channel: 1 Note on, F3 key =  53 ; velocity: 0
@108960 Channel: 1 Note on, B2 key =  47 ; velocity: 127
@108960 Channel: 1 Note on, E2 key =  40 ; velocity: 127
@109020 Channel: 1 Note on, B2 key =  47 ; velocity: 0
@109020 Channel: 1 Note on, E2 key =  40 ; velocity: 0
@109020 Channel: 1 Note on, E2 key =  40 ; velocity: 127
@109080 Channel: 1 Note on, E2 key =  40 ; velocity: 0
@109080 Channel: 1 Note on, E2 key =  40 ; velocity: 127
@109140 Channel: 1 Note on, E2 key =  40 ; velocity: 0
@109140 Channel: 1 Note on, E2 key =  40 ; velocity: 127
@109200 Channel: 1 Note on, E2 key =  40 ; velocity: 0
@109200 Channel: 1 Note on, E2 key =  40 ; velocity: 127
@109260 Channel: 1 Note on, E2 key =  40 ; velocity: 0
@109260 Channel: 1 Note on, E2 key =  40 ; velocity: 127
@109320 Channel: 1 Note on, E2 key =  40 ; velocity: 0
@109320 Channel: 1 Note on, E2 key =  40 ; velocity: 127
@109380 Channel: 1 Note on, E2 key =  40 ; velocity: 0
@109380 Channel: 1 Note on, G3 key =  55 ; velocity: 127
@109380 Channel: 1 Note on, D4 key =  62 ; velocity: 127
@109440 Channel: 1 Note on, G3 key =  55 ; velocity: 0
@109440 Channel: 1 Note on, D4 key =  62 ; velocity: 0
@109440 Channel: 1 Note on, C#4 key =  61 ; velocity: 127
@109440 Channel: 1 Note on, F#3 key =  54 ; velocity: 127
@109500 Channel: 1 Note on, C#4 key =  61 ; velocity: 0
@109500 Channel: 1 Note on, F#3 key =  54 ; velocity: 0
@109500 Channel: 1 Note on, E2 key =  40 ; velocity: 127
@109560 Channel: 1 Note on, E2 key =  40 ; velocity: 0
@109560 Channel: 1 Note on, E2 key =  40 ; velocity: 127
@109620 Channel: 1 Note on, E2 key =  40 ; velocity: 0
@109620 Channel: 1 Note on, F#3 key =  54 ; velocity: 127
@109620 Channel: 1 Note on, C#4 key =  61 ; velocity: 127
@109680 Channel: 1 Note on, F#3 key =  54 ; velocity: 0
@109680 Channel: 1 Note on, C#4 key =  61 ; velocity: 0
@109680 Channel: 1 Note on, A3 key =  57 ; velocity: 127
@109680 Channel: 1 Note on, D3 key =  50 ; velocity: 127
@109740 Channel: 1 Note on, A3 key =  57 ; velocity: 0
@109740 Channel: 1 Note on, D3 key =  50 ; velocity: 0
@109740 Channel: 1 Note on, E2 key =  40 ; velocity: 127
@109800 Channel: 1 Note on, E2 key =  40 ; velocity: 0
@109800 Channel: 1 Note on, E2 key =  40 ; velocity: 127
@109860 Channel: 1 Note on, E2 key =  40 ; velocity: 0
@109860 Channel: 1 Note on, D3 key =  50 ; velocity: 127
@109860 Channel: 1 Note on, A3 key =  57 ; velocity: 127
@109920 Channel: 1 Note on, D3 key =  50 ; velocity: 0
@109920 Channel: 1 Note on, A3 key =  57 ; velocity: 0
@109920 Channel: 1 Note on, B2 key =  47 ; velocity: 127
@109920 Channel: 1 Note on, E2 key =  40 ; velocity: 127
@109980 Channel: 1 Note on, B2 key =  47 ; velocity: 0
@109980 Channel: 1 Note on, E2 key =  40 ; velocity: 0
@109980 Channel: 1 Note on, E2 key =  40 ; velocity: 127
@110040 Channel: 1 Note on, E2 key =  40 ; velocity: 0
@110040 Channel: 1 Note on, E2 key =  40 ; velocity: 127
@110100 Channel: 1 Note on, E2 key =  40 ; velocity: 0
@110100 Channel: 1 Note on, E2 key =  40 ; velocity: 127
@110160 Channel: 1 Note on, E2 key =  40 ; velocity: 0
@110160 Channel: 1 Note on, E2 key =  40 ; velocity: 127
@110220 Channel: 1 Note on, E2 key =  40 ; velocity: 0
@110220 Channel: 1 Note on, E2 key =  40 ; velocity: 127
@110280 Channel: 1 Note on, E2 key =  40 ; velocity: 0
@110280 Channel: 1 Note on, E2 key =  40 ; velocity: 127
@110340 Channel: 1 Note on, E2 key =  40 ; velocity: 0
@110340 Channel: 1 Note on, G3 key =  55 ; velocity: 127
@110340 Channel: 1 Note on, D4 key =  62 ; velocity: 127
@110400 Channel: 1 Note on, G3 key =  55 ; velocity: 0
@110400 Channel: 1 Note on, D4 key =  62 ; velocity: 0
@110400 Channel: 1 Note on, C#4 key =  61 ; velocity: 127
@110400 Channel: 1 Note on, F#3 key =  54 ; velocity: 127
@110460 Channel: 1 Note on, C#4 key =  61 ; velocity: 0
@110460 Channel: 1 Note on, F#3 key =  54 ; velocity: 0
@110460 Channel: 1 Note on, E2 key =  40 ; velocity: 127
@110520 Channel: 1 Note on, E2 key =  40 ; velocity: 0
@110520 Channel: 1 Note on, E2 key =  40 ; velocity: 127
@110580 Channel: 1 Note on, E2 key =  40 ; velocity: 0
@110580 Channel: 1 Note on, F#3 key =  54 ; velocity: 127
@110580 Channel: 1 Note on, C#4 key =  61 ; velocity: 127
@110640 Channel: 1 Note on, F#3 key =  54 ; velocity: 0
@110640 Channel: 1 Note on, C#4 key =  61 ; velocity: 0
@110640 Channel: 1 Note on, F3 key =  53 ; velocity: 127
@110640 Channel: 1 Note on, C4 key =  60 ; velocity: 127
@110700 Channel: 1 Note on, F3 key =  53 ; velocity: 0
@110700 Channel: 1 Note on, C4 key =  60 ; velocity: 0
@110700 Channel: 1 Note on, E2 key =  40 ; velocity: 127
@110760 Channel: 1 Note on, E2 key =  40 ; velocity: 0
@110760 Channel: 1 Note on, E2 key =  40 ; velocity: 127
@110820 Channel: 1 Note on, E2 key =  40 ; velocity: 0
@110820 Channel: 1 Note on, C4 key =  60 ; velocity: 127
@110820 Channel: 1 Note on, F3 key =  53 ; velocity: 127
@110880 Channel: 1 Note on, C4 key =  60 ; velocity: 0
@110880 Channel: 1 Note on, F3 key =  53 ; velocity: 0
@110880 Channel: 1 Note on, B2 key =  47 ; velocity: 127
@110880 Channel: 1 Note on, E2 key =  40 ; velocity: 127
@110940 Channel: 1 Note on, B2 key =  47 ; velocity: 0
@110940 Channel: 1 Note on, E2 key =  40 ; velocity: 0
@110940 Channel: 1 Note on, E2 key =  40 ; velocity: 127
@111000 Channel: 1 Note on, E2 key =  40 ; velocity: 0
@111000 Channel: 1 Note on, E2 key =  40 ; velocity: 127
@111060 Channel: 1 Note on, E2 key =  40 ; velocity: 0
@111060 Channel: 1 Note on, E2 key =  40 ; velocity: 127
@111120 Channel: 1 Note on, E2 key =  40 ; velocity: 0
@111120 Channel: 1 Note on, E2 key =  40 ; velocity: 127
@111180 Channel: 1 Note on, E2 key =  40 ; velocity: 0
@111180 Channel: 1 Note on, E2 key =  40 ; velocity: 127
@111240 Channel: 1 Note on, E2 key =  40 ; velocity: 0
@111240 Channel: 1 Note on, E2 key =  40 ; velocity: 127
@111300 Channel: 1 Note on, E2 key =  40 ; velocity: 0
@111300 Channel: 1 Note on, G3 key =  55 ; velocity: 127
@111300 Channel: 1 Note on, D4 key =  62 ; velocity: 127
@111360 Channel: 1 Note on, G3 key =  55 ; velocity: 0
@111360 Channel: 1 Note on, D4 key =  62 ; velocity: 0
@111360 Channel: 1 Note on, C#4 key =  61 ; velocity: 127
@111360 Channel: 1 Note on, F#3 key =  54 ; velocity: 127
@111420 Channel: 1 Note on, C#4 key =  61 ; velocity: 0
@111420 Channel: 1 Note on, F#3 key =  54 ; velocity: 0
@111420 Channel: 1 Note on, E2 key =  40 ; velocity: 127
@111480 Channel: 1 Note on, E2 key =  40 ; velocity: 0
@111480 Channel: 1 Note on, E2 key =  40 ; velocity: 127
@111540 Channel: 1 Note on, E2 key =  40 ; velocity: 0
@111540 Channel: 1 Note on, F#3 key =  54 ; velocity: 127
@111540 Channel: 1 Note on, C#4 key =  61 ; velocity: 127
@111600 Channel: 1 Note on, F#3 key =  54 ; velocity: 0
@111600 Channel: 1 Note on, C#4 key =  61 ; velocity: 0
@111600 Channel: 1 Note on, A3 key =  57 ; velocity: 127
@111600 Channel: 1 Note on, D3 key =  50 ; velocity: 127
@111660 Channel: 1 Note on, A3 key =  57 ; velocity: 0
@111660 Channel: 1 Note on, D3 key =  50 ; velocity: 0
@111660 Channel: 1 Note on, E2 key =  40 ; velocity: 127
@111720 Channel: 1 Note on, E2 key =  40 ; velocity: 0
@111720 Channel: 1 Note on, E2 key =  40 ; velocity: 127
@111780 Channel: 1 Note on, E2 key =  40 ; velocity: 0
@111780 Channel: 1 Note on, D3 key =  50 ; velocity: 127
@111780 Channel: 1 Note on, A3 key =  57 ; velocity: 127
@111840 Channel: 1 Note on, D3 key =  50 ; velocity: 0
@111840 Channel: 1 Note on, A3 key =  57 ; velocity: 0
@111840 Channel: 1 Note on, B2 key =  47 ; velocity: 127
@111840 Channel: 1 Note on, E2 key =  40 ; velocity: 127
@111900 Channel: 1 Note on, B2 key =  47 ; velocity: 0
@111900 Channel: 1 Note on, E2 key =  40 ; velocity: 0
@111900 Channel: 1 Note on, E2 key =  40 ; velocity: 127
@111960 Channel: 1 Note on, E2 key =  40 ; velocity: 0
@111960 Channel: 1 Note on, E2 key =  40 ; velocity: 127
@112020 Channel: 1 Note on, E2 key =  40 ; velocity: 0
@112020 Channel: 1 Note on, E2 key =  40 ; velocity: 127
@112080 Channel: 1 Note on, E2 key =  40 ; velocity: 0
@112080 Channel: 1 Note on, E2 key =  40 ; velocity: 127
@112140 Channel: 1 Note on, E2 key =  40 ; velocity: 0
@112140 Channel: 1 Note on, E2 key =  40 ; velocity: 127
@112200 Channel: 1 Note on, E2 key =  40 ; velocity: 0
@112200 Channel: 1 Note on, E2 key =  40 ; velocity: 127
@112260 Channel: 1 Note on, E2 key =  40 ; velocity: 0
@112260 Channel: 1 Note on, G3 key =  55 ; velocity: 127
@112260 Channel: 1 Note on, D4 key =  62 ; velocity: 127
@112320 Channel: 1 Note on, G3 key =  55 ; velocity: 0
@112320 Channel: 1 Note on, D4 key =  62 ; velocity: 0
@112320 Channel: 1 Note on, C#4 key =  61 ; velocity: 127
@112320 Channel: 1 Note on, F#3 key =  54 ; velocity: 127
@112380 Channel: 1 Note on, C#4 key =  61 ; velocity: 0
@112380 Channel: 1 Note on, F#3 key =  54 ; velocity: 0
@112380 Channel: 1 Note on, E2 key =  40 ; velocity: 127
@112440 Channel: 1 Note on, E2 key =  40 ; velocity: 0
@112440 Channel: 1 Note on, E2 key =  40 ; velocity: 127
@112500 Channel: 1 Note on, E2 key =  40 ; velocity: 0
@112500 Channel: 1 Note on, F#3 key =  54 ; velocity: 127
@112500 Channel: 1 Note on, C#4 key =  61 ; velocity: 127
@112560 Channel: 1 Note on, F#3 key =  54 ; velocity: 0
@112560 Channel: 1 Note on, C#4 key =  61 ; velocity: 0
@112560 Channel: 1 Note on, F3 key =  53 ; velocity: 127
@112560 Channel: 1 Note on, C4 key =  60 ; velocity: 127
@112620 Channel: 1 Note on, F3 key =  53 ; velocity: 0
@112620 Channel: 1 Note on, C4 key =  60 ; velocity: 0
@112620 Channel: 1 Note on, E2 key =  40 ; velocity: 127
@112680 Channel: 1 Note on, E2 key =  40 ; velocity: 0
@112680 Channel: 1 Note on, E2 key =  40 ; velocity: 127
@112740 Channel: 1 Note on, E2 key =  40 ; velocity: 0
@112740 Channel: 1 Note on, C4 key =  60 ; velocity: 127
@112740 Channel: 1 Note on, F3 key =  53 ; velocity: 127
@112800 Channel: 1 Note on, C4 key =  60 ; velocity: 0
@112800 Channel: 1 Note on, F3 key =  53 ; velocity: 0
@112800 Channel: 1 Note on, B2 key =  47 ; velocity: 127
@112800 Channel: 1 Note on, E2 key =  40 ; velocity: 127
@112860 Channel: 1 Note on, B2 key =  47 ; velocity: 0
@112860 Channel: 1 Note on, E2 key =  40 ; velocity: 0
@112860 Channel: 1 Note on, E2 key =  40 ; velocity: 127
@112920 Channel: 1 Note on, E2 key =  40 ; velocity: 0
@112920 Channel: 1 Note on, E2 key =  40 ; velocity: 127
@112980 Channel: 1 Note on, E2 key =  40 ; velocity: 0
@112980 Channel: 1 Note on, E2 key =  40 ; velocity: 127
@113040 Channel: 1 Note on, E2 key =  40 ; velocity: 0
@113040 Channel: 1 Note on, E2 key =  40 ; velocity: 127
@113100 Channel: 1 Note on, E2 key =  40 ; velocity: 0
@113100 Channel: 1 Note on, E2 key =  40 ; velocity: 127
@113160 Channel: 1 Note on, E2 key =  40 ; velocity: 0
@113160 Channel: 1 Note on, E2 key =  40 ; velocity: 127
@113220 Channel: 1 Note on, E2 key =  40 ; velocity: 0
@113220 Channel: 1 Note on, G3 key =  55 ; velocity: 127
@113220 Channel: 1 Note on, D4 key =  62 ; velocity: 127
@113280 Channel: 1 Note on, G3 key =  55 ; velocity: 0
@113280 Channel: 1 Note on, D4 key =  62 ; velocity: 0
@113280 Channel: 1 Note on, C#4 key =  61 ; velocity: 127
@113280 Channel: 1 Note on, F#3 key =  54 ; velocity: 127
@113340 Channel: 1 Note on, C#4 key =  61 ; velocity: 0
@113340 Channel: 1 Note on, F#3 key =  54 ; velocity: 0
@113340 Channel: 1 Note on, E2 key =  40 ; velocity: 127
@113400 Channel: 1 Note on, E2 key =  40 ; velocity: 0
@113400 Channel: 1 Note on, E2 key =  40 ; velocity: 127
@113460 Channel: 1 Note on, E2 key =  40 ; velocity: 0
@113460 Channel: 1 Note on, F#3 key =  54 ; velocity: 127
@113460 Channel: 1 Note on, C#4 key =  61 ; velocity: 127
@113520 Channel: 1 Note on, F#3 key =  54 ; velocity: 0
@113520 Channel: 1 Note on, C#4 key =  61 ; velocity: 0
@113520 Channel: 1 Note on, A3 key =  57 ; velocity: 127
@113520 Channel: 1 Note on, D3 key =  50 ; velocity: 127
@113580 Channel: 1 Note on, A3 key =  57 ; velocity: 0
@113580 Channel: 1 Note on, D3 key =  50 ; velocity: 0
@113580 Channel: 1 Note on, E2 key =  40 ; velocity: 127
@113640 Channel: 1 Note on, E2 key =  40 ; velocity: 0
@113640 Channel: 1 Note on, E2 key =  40 ; velocity: 127
@113700 Channel: 1 Note on, E2 key =  40 ; velocity: 0
@113700 Channel: 1 Note on, D3 key =  50 ; velocity: 127
@113700 Channel: 1 Note on, A3 key =  57 ; velocity: 127
@113760 Channel: 1 Note on, D3 key =  50 ; velocity: 0
@113760 Channel: 1 Note on, A3 key =  57 ; velocity: 0
@113760 Channel: 1 Note on, E3 key =  52 ; velocity: 127
@113760 Channel: 1 Note on, B3 key =  59 ; velocity: 127
@113820 Channel: 1 Note on, E3 key =  52 ; velocity: 0
@113820 Channel: 1 Note on, B3 key =  59 ; velocity: 0
@113820 Channel: 1 Note on, E2 key =  40 ; velocity: 127
@113880 Channel: 1 Note on, E2 key =  40 ; velocity: 0
@113880 Channel: 1 Note on, E2 key =  40 ; velocity: 127
@113940 Channel: 1 Note on, E2 key =  40 ; velocity: 0
@113940 Channel: 1 Note on, E2 key =  40 ; velocity: 127
@114000 Channel: 1 Note on, E2 key =  40 ; velocity: 0
@114000 Channel: 1 Note on, E2 key =  40 ; velocity: 127
@114060 Channel: 1 Note on, E2 key =  40 ; velocity: 0
@114060 Channel: 1 Note on, E2 key =  40 ; velocity: 127
@114120 Channel: 1 Note on, E2 key =  40 ; velocity: 0
@114120 Channel: 1 Note on, E3 key =  52 ; velocity: 127
@114240 Channel: 1 Note on, E3 key =  52 ; velocity: 0
@114240 Channel: 1 Note on, E2 key =  40 ; velocity: 127
@114300 Channel: 1 Note on, E2 key =  40 ; velocity: 0
@114300 Channel: 1 Note on, E2 key =  40 ; velocity: 127
@114360 Channel: 1 Note on, E2 key =  40 ; velocity: 0
@114360 Channel: 1 Note on, B2 key =  47 ; velocity: 127
@114360 Channel: 1 Note on, E2 key =  40 ; velocity: 127
@114420 Channel: 1 Note on, B2 key =  47 ; velocity: 0
@114420 Channel: 1 Note on, E2 key =  40 ; velocity: 0
@114420 Channel: 1 Note on, E2 key =  40 ; velocity: 127
@114480 Channel: 1 Note on, E2 key =  40 ; velocity: 0
@114480 Channel: 1 Note on, E2 key =  40 ; velocity: 127
@114540 Channel: 1 Note on, E2 key =  40 ; velocity: 0
@114540 Channel: 1 Note on, D3 key =  50 ; velocity: 127
@114540 Channel: 1 Note on, G2 key =  43 ; velocity: 127
@114600 Channel: 1 Note on, D3 key =  50 ; velocity: 0
@114600 Channel: 1 Note on, G2 key =  43 ; velocity: 0
@114600 Channel: 1 Note on, E2 key =  40 ; velocity: 127
@114660 Channel: 1 Note on, E2 key =  40 ; velocity: 0
@114660 Channel: 1 Note on, E2 key =  40 ; velocity: 127
@114720 Channel: 1 Note on, E2 key =  40 ; velocity: 0
@114720 Channel: 1 Note on, C#3 key =  49 ; velocity: 127
@114720 Channel: 1 Note on, F#2 key =  42 ; velocity: 127
@114780 Channel: 1 Note on, C#3 key =  49 ; velocity: 0
@114780 Channel: 1 Note on, F#2 key =  42 ; velocity: 0
@114780 Channel: 1 Note on, E2 key =  40 ; velocity: 127
@114840 Channel: 1 Note on, E2 key =  40 ; velocity: 0
@114840 Channel: 1 Note on, E2 key =  40 ; velocity: 127
@114900 Channel: 1 Note on, E2 key =  40 ; velocity: 0
@114900 Channel: 1 Note on, D3 key =  50 ; velocity: 127
@114900 Channel: 1 Note on, G2 key =  43 ; velocity: 127
@114960 Channel: 1 Note on, D3 key =  50 ; velocity: 0
@114960 Channel: 1 Note on, G2 key =  43 ; velocity: 0
@114960 Channel: 1 Note on, E2 key =  40 ; velocity: 127
@115020 Channel: 1 Note on, E2 key =  40 ; velocity: 0
@115020 Channel: 1 Note on, E2 key =  40 ; velocity: 127
@115080 Channel: 1 Note on, E2 key =  40 ; velocity: 0
@115080 Channel: 1 Note on, E3 key =  52 ; velocity: 127
@115080 Channel: 1 Note on, A2 key =  45 ; velocity: 127
@115140 Channel: 1 Note on, E3 key =  52 ; velocity: 0
@115140 Channel: 1 Note on, A2 key =  45 ; velocity: 0
@115140 Channel: 1 Note on, G2 key =  43 ; velocity: 127
@115140 Channel: 1 Note on, D3 key =  50 ; velocity: 127
@115200 Channel: 1 Note on, G2 key =  43 ; velocity: 0
@115200 Channel: 1 Note on, D3 key =  50 ; velocity: 0
@115200 Channel: 1 Note on, E2 key =  40 ; velocity: 127
@115260 Channel: 1 Note on, E2 key =  40 ; velocity: 0
@115260 Channel: 1 Note on, E2 key =  40 ; velocity: 127
@115320 Channel: 1 Note on, E2 key =  40 ; velocity: 0
@115320 Channel: 1 Note on, B2 key =  47 ; velocity: 127
@115320 Channel: 1 Note on, E2 key =  40 ; velocity: 127
@115380 Channel: 1 Note on, B2 key =  47 ; velocity: 0
@115380 Channel: 1 Note on, E2 key =  40 ; velocity: 0
@115380 Channel: 1 Note on, E2 key =  40 ; velocity: 127
@115440 Channel: 1 Note on, E2 key =  40 ; velocity: 0
@115440 Channel: 1 Note on, E2 key =  40 ; velocity: 127
@115500 Channel: 1 Note on, E2 key =  40 ; velocity: 0
@115500 Channel: 1 Note on, D3 key =  50 ; velocity: 127
@115500 Channel: 1 Note on, G2 key =  43 ; velocity: 127
@115560 Channel: 1 Note on, D3 key =  50 ; velocity: 0
@115560 Channel: 1 Note on, G2 key =  43 ; velocity: 0
@115560 Channel: 1 Note on, E2 key =  40 ; velocity: 127
@115620 Channel: 1 Note on, E2 key =  40 ; velocity: 0
@115620 Channel: 1 Note on, E2 key =  40 ; velocity: 127
@115680 Channel: 1 Note on, E2 key =  40 ; velocity: 0
@115680 Channel: 1 Note on, C#3 key =  49 ; velocity: 127
@115680 Channel: 1 Note on, F#2 key =  42 ; velocity: 127
@115740 Channel: 1 Note on, C#3 key =  49 ; velocity: 0
@115740 Channel: 1 Note on, F#2 key =  42 ; velocity: 0
@115740 Channel: 1 Note on, E2 key =  40 ; velocity: 127
@115800 Channel: 1 Note on, E2 key =  40 ; velocity: 0
@115800 Channel: 1 Note on, E2 key =  40 ; velocity: 127
@115860 Channel: 1 Note on, E2 key =  40 ; velocity: 0
@115860 Channel: 1 Note on, D3 key =  50 ; velocity: 127
@115860 Channel: 1 Note on, G2 key =  43 ; velocity: 127
@115920 Channel: 1 Note on, D3 key =  50 ; velocity: 0
@115920 Channel: 1 Note on, G2 key =  43 ; velocity: 0
@115920 Channel: 1 Note on, E2 key =  40 ; velocity: 127
@115980 Channel: 1 Note on, E2 key =  40 ; velocity: 0
@115980 Channel: 1 Note on, E2 key =  40 ; velocity: 127
@116040 Channel: 1 Note on, E2 key =  40 ; velocity: 0
@116040 Channel: 1 Note on, E3 key =  52 ; velocity: 127
@116040 Channel: 1 Note on, A2 key =  45 ; velocity: 127
@116100 Channel: 1 Note on, E3 key =  52 ; velocity: 0
@116100 Channel: 1 Note on, A2 key =  45 ; velocity: 0
@116100 Channel: 1 Note on, G2 key =  43 ; velocity: 127
@116100 Channel: 1 Note on, D3 key =  50 ; velocity: 127
@116160 Channel: 1 Note on, G2 key =  43 ; velocity: 0
@116160 Channel: 1 Note on, D3 key =  50 ; velocity: 0
@116160 Channel: 1 Note on, E2 key =  40 ; velocity: 127
@116220 Channel: 1 Note on, E2 key =  40 ; velocity: 0
@116220 Channel: 1 Note on, E2 key =  40 ; velocity: 127
@116280 Channel: 1 Note on, E2 key =  40 ; velocity: 0
@116280 Channel: 1 Note on, B2 key =  47 ; velocity: 127
@116280 Channel: 1 Note on, E2 key =  40 ; velocity: 127
@116340 Channel: 1 Note on, B2 key =  47 ; velocity: 0
@116340 Channel: 1 Note on, E2 key =  40 ; velocity: 0
@116340 Channel: 1 Note on, E2 key =  40 ; velocity: 127
@116400 Channel: 1 Note on, E2 key =  40 ; velocity: 0
@116400 Channel: 1 Note on, E2 key =  40 ; velocity: 127
@116460 Channel: 1 Note on, E2 key =  40 ; velocity: 0
@116460 Channel: 1 Note on, D3 key =  50 ; velocity: 127
@116460 Channel: 1 Note on, G2 key =  43 ; velocity: 127
@116520 Channel: 1 Note on, D3 key =  50 ; velocity: 0
@116520 Channel: 1 Note on, G2 key =  43 ; velocity: 0
@116520 Channel: 1 Note on, E2 key =  40 ; velocity: 127
@116580 Channel: 1 Note on, E2 key =  40 ; velocity: 0
@116580 Channel: 1 Note on, E2 key =  40 ; velocity: 127
@116640 Channel: 1 Note on, E2 key =  40 ; velocity: 0
@116640 Channel: 1 Note on, C#3 key =  49 ; velocity: 127
@116640 Channel: 1 Note on, F#2 key =  42 ; velocity: 127
@116700 Channel: 1 Note on, C#3 key =  49 ; velocity: 0
@116700 Channel: 1 Note on, F#2 key =  42 ; velocity: 0
@116700 Channel: 1 Note on, E2 key =  40 ; velocity: 127
@116760 Channel: 1 Note on, E2 key =  40 ; velocity: 0
@116760 Channel: 1 Note on, E2 key =  40 ; velocity: 127
@116820 Channel: 1 Note on, E2 key =  40 ; velocity: 0
@116820 Channel: 1 Note on, D3 key =  50 ; velocity: 127
@116820 Channel: 1 Note on, G2 key =  43 ; velocity: 127
@116880 Channel: 1 Note on, D3 key =  50 ; velocity: 0
@116880 Channel: 1 Note on, G2 key =  43 ; velocity: 0
@116880 Channel: 1 Note on, E2 key =  40 ; velocity: 127
@116940 Channel: 1 Note on, E2 key =  40 ; velocity: 0
@116940 Channel: 1 Note on, E2 key =  40 ; velocity: 127
@117000 Channel: 1 Note on, E2 key =  40 ; velocity: 0
@117000 Channel: 1 Note on, E3 key =  52 ; velocity: 127
@117000 Channel: 1 Note on, A2 key =  45 ; velocity: 127
@117060 Channel: 1 Note on, E3 key =  52 ; velocity: 0
@117060 Channel: 1 Note on, A2 key =  45 ; velocity: 0
@117060 Channel: 1 Note on, G2 key =  43 ; velocity: 127
@117060 Channel: 1 Note on, D3 key =  50 ; velocity: 127
@117120 Channel: 1 Note on, G2 key =  43 ; velocity: 0
@117120 Channel: 1 Note on, D3 key =  50 ; velocity: 0
@117120 Channel: 1 Note on, E2 key =  40 ; velocity: 127
@117180 Channel: 1 Note on, E2 key =  40 ; velocity: 0
@117180 Channel: 1 Note on, E2 key =  40 ; velocity: 127
@117240 Channel: 1 Note on, E2 key =  40 ; velocity: 0
@117240 Channel: 1 Note on, B2 key =  47 ; velocity: 127
@117240 Channel: 1 Note on, E2 key =  40 ; velocity: 127
@117300 Channel: 1 Note on, B2 key =  47 ; velocity: 0
@117300 Channel: 1 Note on, E2 key =  40 ; velocity: 0
@117300 Channel: 1 Note on, E2 key =  40 ; velocity: 127
@117360 Channel: 1 Note on, E2 key =  40 ; velocity: 0
@117360 Channel: 1 Note on, E2 key =  40 ; velocity: 127
@117420 Channel: 1 Note on, E2 key =  40 ; velocity: 0
@117420 Channel: 1 Note on, D3 key =  50 ; velocity: 127
@117420 Channel: 1 Note on, G2 key =  43 ; velocity: 127
@117480 Channel: 1 Note on, D3 key =  50 ; velocity: 0
@117480 Channel: 1 Note on, G2 key =  43 ; velocity: 0
@117480 Channel: 1 Note on, E2 key =  40 ; velocity: 127
@117540 Channel: 1 Note on, E2 key =  40 ; velocity: 0
@117540 Channel: 1 Note on, E2 key =  40 ; velocity: 127
@117600 Channel: 1 Note on, E2 key =  40 ; velocity: 0
@117600 Channel: 1 Note on, C#3 key =  49 ; velocity: 127
@117600 Channel: 1 Note on, F#2 key =  42 ; velocity: 127
@117660 Channel: 1 Note on, C#3 key =  49 ; velocity: 0
@117660 Channel: 1 Note on, F#2 key =  42 ; velocity: 0
@117660 Channel: 1 Note on, E2 key =  40 ; velocity: 127
@117720 Channel: 1 Note on, E2 key =  40 ; velocity: 0
@117720 Channel: 1 Note on, E2 key =  40 ; velocity: 127
@117780 Channel: 1 Note on, E2 key =  40 ; velocity: 0
@117780 Channel: 1 Note on, D3 key =  50 ; velocity: 127
@117780 Channel: 1 Note on, G2 key =  43 ; velocity: 127
@117840 Channel: 1 Note on, D3 key =  50 ; velocity: 0
@117840 Channel: 1 Note on, G2 key =  43 ; velocity: 0
@117840 Channel: 1 Note on, E2 key =  40 ; velocity: 127
@117900 Channel: 1 Note on, E2 key =  40 ; velocity: 0
@117900 Channel: 1 Note on, E2 key =  40 ; velocity: 127
@117960 Channel: 1 Note on, E2 key =  40 ; velocity: 0
@117960 Channel: 1 Note on, E3 key =  52 ; velocity: 127
@117960 Channel: 1 Note on, A2 key =  45 ; velocity: 127
@118020 Channel: 1 Note on, E3 key =  52 ; velocity: 0
@118020 Channel: 1 Note on, A2 key =  45 ; velocity: 0
@118020 Channel: 1 Note on, G2 key =  43 ; velocity: 127
@118020 Channel: 1 Note on, D3 key =  50 ; velocity: 127
@118080 Channel: 1 Note on, G2 key =  43 ; velocity: 0
@118080 Channel: 1 Note on, D3 key =  50 ; velocity: 0
@118080 Channel: 1 Note on, E2 key =  40 ; velocity: 127
@118140 Channel: 1 Note on, E2 key =  40 ; velocity: 0
@118140 Channel: 1 Note on, E2 key =  40 ; velocity: 127
@118200 Channel: 1 Note on, E2 key =  40 ; velocity: 0
@118200 Channel: 1 Note on, B2 key =  47 ; velocity: 127
@118200 Channel: 1 Note on, E2 key =  40 ; velocity: 127
@118260 Channel: 1 Note on, B2 key =  47 ; velocity: 0
@118260 Channel: 1 Note on, E2 key =  40 ; velocity: 0
@118260 Channel: 1 Note on, E2 key =  40 ; velocity: 127
@118320 Channel: 1 Note on, E2 key =  40 ; velocity: 0
@118320 Channel: 1 Note on, E2 key =  40 ; velocity: 127
@118380 Channel: 1 Note on, E2 key =  40 ; velocity: 0
@118380 Channel: 1 Note on, D3 key =  50 ; velocity: 127
@118380 Channel: 1 Note on, G2 key =  43 ; velocity: 127
@118440 Channel: 1 Note on, D3 key =  50 ; velocity: 0
@118440 Channel: 1 Note on, G2 key =  43 ; velocity: 0
@118440 Channel: 1 Note on, E2 key =  40 ; velocity: 127
@118500 Channel: 1 Note on, E2 key =  40 ; velocity: 0
@118500 Channel: 1 Note on, E2 key =  40 ; velocity: 127
@118560 Channel: 1 Note on, E2 key =  40 ; velocity: 0
@118560 Channel: 1 Note on, C#3 key =  49 ; velocity: 127
@118560 Channel: 1 Note on, F#2 key =  42 ; velocity: 127
@118620 Channel: 1 Note on, C#3 key =  49 ; velocity: 0
@118620 Channel: 1 Note on, F#2 key =  42 ; velocity: 0
@118620 Channel: 1 Note on, E2 key =  40 ; velocity: 127
@118680 Channel: 1 Note on, E2 key =  40 ; velocity: 0
@118680 Channel: 1 Note on, E2 key =  40 ; velocity: 127
@118740 Channel: 1 Note on, E2 key =  40 ; velocity: 0
@118740 Channel: 1 Note on, D3 key =  50 ; velocity: 127
@118740 Channel: 1 Note on, G2 key =  43 ; velocity: 127
@118800 Channel: 1 Note on, D3 key =  50 ; velocity: 0
@118800 Channel: 1 Note on, G2 key =  43 ; velocity: 0
@118800 Channel: 1 Note on, E2 key =  40 ; velocity: 127
@118860 Channel: 1 Note on, E2 key =  40 ; velocity: 0
@118860 Channel: 1 Note on, E2 key =  40 ; velocity: 127
@118920 Channel: 1 Note on, E2 key =  40 ; velocity: 0
@118920 Channel: 1 Note on, E3 key =  52 ; velocity: 127
@118920 Channel: 1 Note on, A2 key =  45 ; velocity: 127
@118980 Channel: 1 Note on, E3 key =  52 ; velocity: 0
@118980 Channel: 1 Note on, A2 key =  45 ; velocity: 0
@118980 Channel: 1 Note on, G2 key =  43 ; velocity: 127
@118980 Channel: 1 Note on, D3 key =  50 ; velocity: 127
@119040 Channel: 1 Note on, G2 key =  43 ; velocity: 0
@119040 Channel: 1 Note on, D3 key =  50 ; velocity: 0
@119040 Channel: 1 Note on, E2 key =  40 ; velocity: 127
@119100 Channel: 1 Note on, E2 key =  40 ; velocity: 0
@119100 Channel: 1 Note on, E2 key =  40 ; velocity: 127
@119160 Channel: 1 Note on, E2 key =  40 ; velocity: 0
@119160 Channel: 1 Note on, B2 key =  47 ; velocity: 127
@119160 Channel: 1 Note on, E2 key =  40 ; velocity: 127
@119220 Channel: 1 Note on, B2 key =  47 ; velocity: 0
@119220 Channel: 1 Note on, E2 key =  40 ; velocity: 0
@119220 Channel: 1 Note on, E2 key =  40 ; velocity: 127
@119280 Channel: 1 Note on, E2 key =  40 ; velocity: 0
@119280 Channel: 1 Note on, E2 key =  40 ; velocity: 127
@119340 Channel: 1 Note on, E2 key =  40 ; velocity: 0
@119340 Channel: 1 Note on, D3 key =  50 ; velocity: 127
@119340 Channel: 1 Note on, G2 key =  43 ; velocity: 127
@119400 Channel: 1 Note on, D3 key =  50 ; velocity: 0
@119400 Channel: 1 Note on, G2 key =  43 ; velocity: 0
@119400 Channel: 1 Note on, E2 key =  40 ; velocity: 127
@119460 Channel: 1 Note on, E2 key =  40 ; velocity: 0
@119460 Channel: 1 Note on, E2 key =  40 ; velocity: 127
@119520 Channel: 1 Note on, E2 key =  40 ; velocity: 0
@119520 Channel: 1 Note on, C#3 key =  49 ; velocity: 127
@119520 Channel: 1 Note on, F#2 key =  42 ; velocity: 127
@119580 Channel: 1 Note on, C#3 key =  49 ; velocity: 0
@119580 Channel: 1 Note on, F#2 key =  42 ; velocity: 0
@119580 Channel: 1 Note on, E2 key =  40 ; velocity: 127
@119640 Channel: 1 Note on, E2 key =  40 ; velocity: 0
@119640 Channel: 1 Note on, E2 key =  40 ; velocity: 127
@119700 Channel: 1 Note on, E2 key =  40 ; velocity: 0
@119700 Channel: 1 Note on, D3 key =  50 ; velocity: 127
@119700 Channel: 1 Note on, G2 key =  43 ; velocity: 127
@119760 Channel: 1 Note on, D3 key =  50 ; velocity: 0
@119760 Channel: 1 Note on, G2 key =  43 ; velocity: 0
@119760 Channel: 1 Note on, E2 key =  40 ; velocity: 127
@119820 Channel: 1 Note on, E2 key =  40 ; velocity: 0
@119820 Channel: 1 Note on, E2 key =  40 ; velocity: 127
@119880 Channel: 1 Note on, E2 key =  40 ; velocity: 0
@119880 Channel: 1 Note on, E3 key =  52 ; velocity: 127
@119880 Channel: 1 Note on, A2 key =  45 ; velocity: 127
@119940 Channel: 1 Note on, E3 key =  52 ; velocity: 0
@119940 Channel: 1 Note on, A2 key =  45 ; velocity: 0
@119940 Channel: 1 Note on, G2 key =  43 ; velocity: 127
@119940 Channel: 1 Note on, D3 key =  50 ; velocity: 127
@120000 Channel: 1 Note on, G2 key =  43 ; velocity: 0
@120000 Channel: 1 Note on, D3 key =  50 ; velocity: 0
@120000 Channel: 1 Note on, E2 key =  40 ; velocity: 127
@120060 Channel: 1 Note on, E2 key =  40 ; velocity: 0
@120060 Channel: 1 Note on, E2 key =  40 ; velocity: 127
@120120 Channel: 1 Note on, E2 key =  40 ; velocity: 0
@120120 Channel: 1 Note on, B2 key =  47 ; velocity: 127
@120120 Channel: 1 Note on, E2 key =  40 ; velocity: 127
@120180 Channel: 1 Note on, B2 key =  47 ; velocity: 0
@120180 Channel: 1 Note on, E2 key =  40 ; velocity: 0
@120180 Channel: 1 Note on, E2 key =  40 ; velocity: 127
@120240 Channel: 1 Note on, E2 key =  40 ; velocity: 0
@120240 Channel: 1 Note on, E2 key =  40 ; velocity: 127
@120300 Channel: 1 Note on, E2 key =  40 ; velocity: 0
@120300 Channel: 1 Note on, D3 key =  50 ; velocity: 127
@120300 Channel: 1 Note on, G2 key =  43 ; velocity: 127
@120360 Channel: 1 Note on, D3 key =  50 ; velocity: 0
@120360 Channel: 1 Note on, G2 key =  43 ; velocity: 0
@120360 Channel: 1 Note on, E2 key =  40 ; velocity: 127
@120420 Channel: 1 Note on, E2 key =  40 ; velocity: 0
@120420 Channel: 1 Note on, E2 key =  40 ; velocity: 127
@120480 Channel: 1 Note on, E2 key =  40 ; velocity: 0
@120480 Channel: 1 Note on, C#3 key =  49 ; velocity: 127
@120480 Channel: 1 Note on, F#2 key =  42 ; velocity: 127
@120540 Channel: 1 Note on, C#3 key =  49 ; velocity: 0
@120540 Channel: 1 Note on, F#2 key =  42 ; velocity: 0
@120540 Channel: 1 Note on, E2 key =  40 ; velocity: 127
@120600 Channel: 1 Note on, E2 key =  40 ; velocity: 0
@120600 Channel: 1 Note on, E2 key =  40 ; velocity: 127
@120660 Channel: 1 Note on, E2 key =  40 ; velocity: 0
@120660 Channel: 1 Note on, D3 key =  50 ; velocity: 127
@120660 Channel: 1 Note on, G2 key =  43 ; velocity: 127
@120720 Channel: 1 Note on, D3 key =  50 ; velocity: 0
@120720 Channel: 1 Note on, G2 key =  43 ; velocity: 0
@120720 Channel: 1 Note on, E2 key =  40 ; velocity: 127
@120780 Channel: 1 Note on, E2 key =  40 ; velocity: 0
@120780 Channel: 1 Note on, E2 key =  40 ; velocity: 127
@120840 Channel: 1 Note on, E2 key =  40 ; velocity: 0
@120840 Channel: 1 Note on, E3 key =  52 ; velocity: 127
@120840 Channel: 1 Note on, A2 key =  45 ; velocity: 127
@120900 Channel: 1 Note on, E3 key =  52 ; velocity: 0
@120900 Channel: 1 Note on, A2 key =  45 ; velocity: 0
@120900 Channel: 1 Note on, G2 key =  43 ; velocity: 127
@120900 Channel: 1 Note on, D3 key =  50 ; velocity: 127
@120960 Channel: 1 Note on, G2 key =  43 ; velocity: 0
@120960 Channel: 1 Note on, D3 key =  50 ; velocity: 0
@120960 Channel: 1 Note on, E2 key =  40 ; velocity: 127
@121020 Channel: 1 Note on, E2 key =  40 ; velocity: 0
@121020 Channel: 1 Note on, E2 key =  40 ; velocity: 127
@121080 Channel: 1 Note on, E2 key =  40 ; velocity: 0
@121080 Channel: 1 Note on, B2 key =  47 ; velocity: 127
@121080 Channel: 1 Note on, E2 key =  40 ; velocity: 127
@121140 Channel: 1 Note on, B2 key =  47 ; velocity: 0
@121140 Channel: 1 Note on, E2 key =  40 ; velocity: 0
@121140 Channel: 1 Note on, E2 key =  40 ; velocity: 127
@121200 Channel: 1 Note on, E2 key =  40 ; velocity: 0
@121200 Channel: 1 Note on, E2 key =  40 ; velocity: 127
@121260 Channel: 1 Note on, E2 key =  40 ; velocity: 0
@121260 Channel: 1 Note on, D3 key =  50 ; velocity: 127
@121260 Channel: 1 Note on, G2 key =  43 ; velocity: 127
@121320 Channel: 1 Note on, D3 key =  50 ; velocity: 0
@121320 Channel: 1 Note on, G2 key =  43 ; velocity: 0
@121320 Channel: 1 Note on, E2 key =  40 ; velocity: 127
@121380 Channel: 1 Note on, E2 key =  40 ; velocity: 0
@121380 Channel: 1 Note on, E2 key =  40 ; velocity: 127
@121440 Channel: 1 Note on, E2 key =  40 ; velocity: 0
@121440 Channel: 1 Note on, F#2 key =  42 ; velocity: 127
@121440 Channel: 1 Note on, C#3 key =  49 ; velocity: 127
@121440 Channel: 1 Note on, F#3 key =  54 ; velocity: 127
@121500 Channel: 1 Note on, F#2 key =  42 ; velocity: 0
@121500 Channel: 1 Note on, C#3 key =  49 ; velocity: 0
@121500 Channel: 1 Note on, F#3 key =  54 ; velocity: 0
@121500 Channel: 1 Note on, E2 key =  40 ; velocity: 127
@121560 Channel: 1 Note on, E2 key =  40 ; velocity: 0
@121560 Channel: 1 Note on, E2 key =  40 ; velocity: 127
@121620 Channel: 1 Note on, E2 key =  40 ; velocity: 0
@121620 Channel: 1 Note on, E2 key =  40 ; velocity: 127
@121680 Channel: 1 Note on, E2 key =  40 ; velocity: 0
@121680 Channel: 1 Note on, E2 key =  40 ; velocity: 127
@121740 Channel: 1 Note on, E2 key =  40 ; velocity: 0
@121740 Channel: 1 Note on, E2 key =  40 ; velocity: 127
@121800 Channel: 1 Note on, E2 key =  40 ; velocity: 0
@121800 Channel: 1 Note on, A2 key =  45 ; velocity: 127
@121800 Channel: 1 Note on, E3 key =  52 ; velocity: 127
@121800 Channel: 1 Note on, A3 key =  57 ; velocity: 127
@121860 Channel: 1 Note on, A2 key =  45 ; velocity: 0
@121860 Channel: 1 Note on, E3 key =  52 ; velocity: 0
@121860 Channel: 1 Note on, A3 key =  57 ; velocity: 0
@121860 Channel: 1 Note on, G3 key =  55 ; velocity: 127
@121860 Channel: 1 Note on, D3 key =  50 ; velocity: 127
@121860 Channel: 1 Note on, G2 key =  43 ; velocity: 127
@121920 Channel: 1 Note on, G3 key =  55 ; velocity: 0
@121920 Channel: 1 Note on, D3 key =  50 ; velocity: 0
@121920 Channel: 1 Note on, G2 key =  43 ; velocity: 0
@121920 Channel: 1 Note on, E2 key =  40 ; velocity: 127
@121980 Channel: 1 Note on, E2 key =  40 ; velocity: 0
@121980 Channel: 1 Note on, E2 key =  40 ; velocity: 127
@122040 Channel: 1 Note on, E2 key =  40 ; velocity: 0
@122040 Channel: 1 Note on, E4 key =  64 ; velocity: 127
@122100 Channel: 1 Note on, E4 key =  64 ; velocity: 0
@122100 Channel: 1 Note on, D4 key =  62 ; velocity: 127
@122160 Channel: 1 Note on, D4 key =  62 ; velocity: 0
@122160 Channel: 1 Note on, B3 key =  59 ; velocity: 127
@122220 Channel: 1 Note on, B3 key =  59 ; velocity: 0
@122220 Channel: 1 Note on, D4 key =  62 ; velocity: 127
@122280 Channel: 1 Note on, D4 key =  62 ; velocity: 0
@122280 Channel: 1 Note on, B3 key =  59 ; velocity: 127
@122340 Channel: 1 Note on, B3 key =  59 ; velocity: 0
@122340 Channel: 1 Note on, A#3 key =  58 ; velocity: 127
@122400 Channel: 1 Note on, A#3 key =  58 ; velocity: 0
@122400 Channel: 1 Note on, A3 key =  57 ; velocity: 127
@122460 Channel: 1 Note on, A3 key =  57 ; velocity: 0
@122460 Channel: 1 Note on, G3 key =  55 ; velocity: 127
@122520 Channel: 1 Note on, G3 key =  55 ; velocity: 0
@122520 Channel: 1 Note on, E4 key =  64 ; velocity: 127
@122580 Channel: 1 Note on, E4 key =  64 ; velocity: 0
@122580 Channel: 1 Note on, D4 key =  62 ; velocity: 127
@122640 Channel: 1 Note on, D4 key =  62 ; velocity: 0
@122640 Channel: 1 Note on, B3 key =  59 ; velocity: 127
@122700 Channel: 1 Note on, B3 key =  59 ; velocity: 0
@122700 Channel: 1 Note on, D4 key =  62 ; velocity: 127
@122760 Channel: 1 Note on, D4 key =  62 ; velocity: 0
@122760 Channel: 1 Note on, B3 key =  59 ; velocity: 127
@122820 Channel: 1 Note on, B3 key =  59 ; velocity: 0
@122820 Channel: 1 Note on, A#3 key =  58 ; velocity: 127
@122880 Channel: 1 Note on, A#3 key =  58 ; velocity: 0
@122880 Channel: 1 Note on, A3 key =  57 ; velocity: 127
@122940 Channel: 1 Note on, A3 key =  57 ; velocity: 0
@122940 Channel: 1 Note on, G3 key =  55 ; velocity: 127
@123000 Channel: 1 Note on, G3 key =  55 ; velocity: 0
@123000 Channel: 1 Note on, E4 key =  64 ; velocity: 127
@123060 Channel: 1 Note on, E4 key =  64 ; velocity: 0
@123060 Channel: 1 Note on, D4 key =  62 ; velocity: 127
@123120 Channel: 1 Note on, D4 key =  62 ; velocity: 0
@123120 Channel: 1 Note on, B3 key =  59 ; velocity: 127
@123180 Channel: 1 Note on, B3 key =  59 ; velocity: 0
@123180 Channel: 1 Note on, D4 key =  62 ; velocity: 127
@123240 Channel: 1 Note on, D4 key =  62 ; velocity: 0
@123240 Channel: 1 Note on, B3 key =  59 ; velocity: 127
@123300 Channel: 1 Note on, B3 key =  59 ; velocity: 0
@123300 Channel: 1 Note on, A#3 key =  58 ; velocity: 127
@123360 Channel: 1 Note on, A#3 key =  58 ; velocity: 0
@123360 Channel: 1 Note on, A3 key =  57 ; velocity: 127
@123420 Channel: 1 Note on, A3 key =  57 ; velocity: 0
@123420 Channel: 1 Note on, G3 key =  55 ; velocity: 127
@123480 Channel: 1 Note on, G3 key =  55 ; velocity: 0
@123480 Channel: 1 Note on, E2 key =  40 ; velocity: 127
@123540 Channel: 1 Note on, E2 key =  40 ; velocity: 0
@123540 Channel: 1 Note on, E2 key =  40 ; velocity: 127
@123600 Channel: 1 Note on, E2 key =  40 ; velocity: 0
@123600 Channel: 1 Note on, E2 key =  40 ; velocity: 127
@123660 Channel: 1 Note on, E2 key =  40 ; velocity: 0
@123660 Channel: 1 Note on, E2 key =  40 ; velocity: 127
@123720 Channel: 1 Note on, E2 key =  40 ; velocity: 0
@123720 Channel: 1 Note on, G4 key =  67 ; velocity: 127
@123720 Channel: 1 Note on, D4 key =  62 ; velocity: 127
@123720 Channel: 1 Note on, G3 key =  55 ; velocity: 127
@123720 Channel: 1 Note on, E2 key =  40 ; velocity: 127
@123720 Channel: 1 Command: 176

@123840 Channel: 1 Note on, G4 key =  67 ; velocity: 0
@123840 Channel: 1 Note on, D4 key =  62 ; velocity: 0
@123840 Channel: 1 Note on, G3 key =  55 ; velocity: 0
@123840 Channel: 1 Note on, E2 key =  40 ; velocity: 0
@123840 Other Message: class javax.sound.midi.Track$ImmutableEndOfTrack

Track 4: size = 4133
@0 Other Message: class javax.sound.midi.MetaMessage

@0 Other Message: class javax.sound.midi.MetaMessage

@0 Channel: 2 Command: 192

@0 Channel: 2 Command: 176

@0 Channel: 2 Command: 176

@0 Channel: 2 Note on, A2 key =  45 ; velocity: 127
@60 Channel: 2 Note on, A2 key =  45 ; velocity: 0
@60 Channel: 2 Note on, A2 key =  45 ; velocity: 127
@120 Channel: 2 Note on, A2 key =  45 ; velocity: 0
@120 Channel: 2 Note on, D4 key =  62 ; velocity: 127
@150 Channel: 2 Note on, D4 key =  62 ; velocity: 0
@150 Channel: 2 Note on, D#4 key =  63 ; velocity: 127
@180 Channel: 2 Note on, D#4 key =  63 ; velocity: 0
@180 Channel: 2 Note on, D4 key =  62 ; velocity: 127
@300 Channel: 2 Note on, D4 key =  62 ; velocity: 0
@300 Channel: 2 Note on, A2 key =  45 ; velocity: 127
@360 Channel: 2 Note on, A2 key =  45 ; velocity: 0
@360 Channel: 2 Note on, A3 key =  57 ; velocity: 127
@390 Channel: 2 Note on, A3 key =  57 ; velocity: 0
@390 Channel: 2 Note on, A#3 key =  58 ; velocity: 127
@420 Channel: 2 Note on, A#3 key =  58 ; velocity: 0
@420 Channel: 2 Note on, A3 key =  57 ; velocity: 127
@540 Channel: 2 Note on, A3 key =  57 ; velocity: 0
@540 Channel: 2 Note on, A2 key =  45 ; velocity: 127
@600 Channel: 2 Note on, A2 key =  45 ; velocity: 0
@600 Channel: 2 Note on, F3 key =  53 ; velocity: 127
@660 Channel: 2 Note on, F3 key =  53 ; velocity: 0
@660 Channel: 2 Note on, E3 key =  52 ; velocity: 127
@720 Channel: 2 Note on, E3 key =  52 ; velocity: 0
@720 Channel: 2 Note on, G3 key =  55 ; velocity: 127
@780 Channel: 2 Note on, G3 key =  55 ; velocity: 0
@780 Channel: 2 Note on, E3 key =  52 ; velocity: 127
@840 Channel: 2 Note on, E3 key =  52 ; velocity: 0
@840 Channel: 2 Note on, C4 key =  60 ; velocity: 127
@900 Channel: 2 Note on, C4 key =  60 ; velocity: 0
@900 Channel: 2 Note on, A3 key =  57 ; velocity: 127
@960 Channel: 2 Note on, A3 key =  57 ; velocity: 0
@960 Channel: 2 Note on, A2 key =  45 ; velocity: 127
@1020 Channel: 2 Note on, A2 key =  45 ; velocity: 0
@1020 Channel: 2 Note on, A2 key =  45 ; velocity: 127
@1080 Channel: 2 Note on, A2 key =  45 ; velocity: 0
@1080 Channel: 2 Note on, D4 key =  62 ; velocity: 127
@1110 Channel: 2 Note on, D4 key =  62 ; velocity: 0
@1110 Channel: 2 Note on, D#4 key =  63 ; velocity: 127
@1140 Channel: 2 Note on, D#4 key =  63 ; velocity: 0
@1140 Channel: 2 Note on, D4 key =  62 ; velocity: 127
@1260 Channel: 2 Note on, D4 key =  62 ; velocity: 0
@1260 Channel: 2 Note on, A2 key =  45 ; velocity: 127
@1320 Channel: 2 Note on, A2 key =  45 ; velocity: 0
@1320 Channel: 2 Note on, A3 key =  57 ; velocity: 127
@1350 Channel: 2 Note on, A3 key =  57 ; velocity: 0
@1350 Channel: 2 Note on, A#3 key =  58 ; velocity: 127
@1380 Channel: 2 Note on, A#3 key =  58 ; velocity: 0
@1380 Channel: 2 Note on, A3 key =  57 ; velocity: 127
@1500 Channel: 2 Note on, A3 key =  57 ; velocity: 0
@1500 Channel: 2 Note on, A2 key =  45 ; velocity: 127
@1560 Channel: 2 Note on, A2 key =  45 ; velocity: 0
@1560 Channel: 2 Note on, F3 key =  53 ; velocity: 127
@1620 Channel: 2 Note on, F3 key =  53 ; velocity: 0
@1620 Channel: 2 Note on, E3 key =  52 ; velocity: 127
@1680 Channel: 2 Note on, E3 key =  52 ; velocity: 0
@1680 Channel: 2 Note on, G3 key =  55 ; velocity: 127
@1740 Channel: 2 Note on, G3 key =  55 ; velocity: 0
@1740 Channel: 2 Note on, E3 key =  52 ; velocity: 127
@1800 Channel: 2 Note on, E3 key =  52 ; velocity: 0
@1800 Channel: 2 Note on, C4 key =  60 ; velocity: 127
@1860 Channel: 2 Note on, C4 key =  60 ; velocity: 0
@1860 Channel: 2 Note on, A3 key =  57 ; velocity: 127
@1920 Channel: 2 Note on, A3 key =  57 ; velocity: 0
@1920 Channel: 2 Note on, A2 key =  45 ; velocity: 127
@1980 Channel: 2 Note on, A2 key =  45 ; velocity: 0
@1980 Channel: 2 Note on, A2 key =  45 ; velocity: 127
@2040 Channel: 2 Note on, A2 key =  45 ; velocity: 0
@2040 Channel: 2 Note on, D4 key =  62 ; velocity: 127
@2070 Channel: 2 Note on, D4 key =  62 ; velocity: 0
@2070 Channel: 2 Note on, D#4 key =  63 ; velocity: 127
@2100 Channel: 2 Note on, D#4 key =  63 ; velocity: 0
@2100 Channel: 2 Note on, D4 key =  62 ; velocity: 127
@2220 Channel: 2 Note on, D4 key =  62 ; velocity: 0
@2220 Channel: 2 Note on, A2 key =  45 ; velocity: 127
@2280 Channel: 2 Note on, A2 key =  45 ; velocity: 0
@2280 Channel: 2 Note on, A3 key =  57 ; velocity: 127
@2310 Channel: 2 Note on, A3 key =  57 ; velocity: 0
@2310 Channel: 2 Note on, A#3 key =  58 ; velocity: 127
@2340 Channel: 2 Note on, A#3 key =  58 ; velocity: 0
@2340 Channel: 2 Note on, A3 key =  57 ; velocity: 127
@2460 Channel: 2 Note on, A3 key =  57 ; velocity: 0
@2460 Channel: 2 Note on, A2 key =  45 ; velocity: 127
@2520 Channel: 2 Note on, A2 key =  45 ; velocity: 0
@2520 Channel: 2 Note on, F3 key =  53 ; velocity: 127
@2580 Channel: 2 Note on, F3 key =  53 ; velocity: 0
@2580 Channel: 2 Note on, E3 key =  52 ; velocity: 127
@2640 Channel: 2 Note on, E3 key =  52 ; velocity: 0
@2640 Channel: 2 Note on, G3 key =  55 ; velocity: 127
@2700 Channel: 2 Note on, G3 key =  55 ; velocity: 0
@2700 Channel: 2 Note on, E3 key =  52 ; velocity: 127
@2760 Channel: 2 Note on, E3 key =  52 ; velocity: 0
@2760 Channel: 2 Note on, C4 key =  60 ; velocity: 127
@2820 Channel: 2 Note on, C4 key =  60 ; velocity: 0
@2820 Channel: 2 Note on, A3 key =  57 ; velocity: 127
@2880 Channel: 2 Note on, A3 key =  57 ; velocity: 0
@2880 Channel: 2 Note on, A2 key =  45 ; velocity: 127
@2940 Channel: 2 Note on, A2 key =  45 ; velocity: 0
@2940 Channel: 2 Note on, A2 key =  45 ; velocity: 127
@3000 Channel: 2 Note on, A2 key =  45 ; velocity: 0
@3000 Channel: 2 Note on, D4 key =  62 ; velocity: 127
@3030 Channel: 2 Note on, D4 key =  62 ; velocity: 0
@3030 Channel: 2 Note on, D#4 key =  63 ; velocity: 127
@3060 Channel: 2 Note on, D#4 key =  63 ; velocity: 0
@3060 Channel: 2 Note on, D4 key =  62 ; velocity: 127
@3180 Channel: 2 Note on, D4 key =  62 ; velocity: 0
@3180 Channel: 2 Note on, A2 key =  45 ; velocity: 127
@3240 Channel: 2 Note on, A2 key =  45 ; velocity: 0
@3240 Channel: 2 Note on, A3 key =  57 ; velocity: 127
@3270 Channel: 2 Note on, A3 key =  57 ; velocity: 0
@3270 Channel: 2 Note on, A#3 key =  58 ; velocity: 127
@3300 Channel: 2 Note on, A#3 key =  58 ; velocity: 0
@3300 Channel: 2 Note on, A3 key =  57 ; velocity: 127
@3420 Channel: 2 Note on, A3 key =  57 ; velocity: 0
@3420 Channel: 2 Note on, A2 key =  45 ; velocity: 127
@3480 Channel: 2 Note on, A2 key =  45 ; velocity: 0
@3480 Channel: 2 Note on, F3 key =  53 ; velocity: 127
@3540 Channel: 2 Note on, F3 key =  53 ; velocity: 0
@3540 Channel: 2 Note on, E3 key =  52 ; velocity: 127
@3600 Channel: 2 Note on, E3 key =  52 ; velocity: 0
@3600 Channel: 2 Note on, G3 key =  55 ; velocity: 127
@3660 Channel: 2 Note on, G3 key =  55 ; velocity: 0
@3660 Channel: 2 Note on, E3 key =  52 ; velocity: 127
@3720 Channel: 2 Note on, E3 key =  52 ; velocity: 0
@3720 Channel: 2 Note on, C4 key =  60 ; velocity: 127
@3780 Channel: 2 Note on, C4 key =  60 ; velocity: 0
@3780 Channel: 2 Note on, A3 key =  57 ; velocity: 127
@3840 Channel: 2 Note on, A3 key =  57 ; velocity: 0
@3840 Channel: 2 Note on, A2 key =  45 ; velocity: 127
@3900 Channel: 2 Note on, A2 key =  45 ; velocity: 0
@3900 Channel: 2 Note on, A2 key =  45 ; velocity: 127
@3960 Channel: 2 Note on, A2 key =  45 ; velocity: 0
@3960 Channel: 2 Note on, D4 key =  62 ; velocity: 127
@3990 Channel: 2 Note on, D4 key =  62 ; velocity: 0
@3990 Channel: 2 Note on, D#4 key =  63 ; velocity: 127
@4020 Channel: 2 Note on, D#4 key =  63 ; velocity: 0
@4020 Channel: 2 Note on, D4 key =  62 ; velocity: 127
@4140 Channel: 2 Note on, D4 key =  62 ; velocity: 0
@4140 Channel: 2 Note on, A2 key =  45 ; velocity: 127
@4200 Channel: 2 Note on, A2 key =  45 ; velocity: 0
@4200 Channel: 2 Note on, A3 key =  57 ; velocity: 127
@4230 Channel: 2 Note on, A3 key =  57 ; velocity: 0
@4230 Channel: 2 Note on, A#3 key =  58 ; velocity: 127
@4260 Channel: 2 Note on, A#3 key =  58 ; velocity: 0
@4260 Channel: 2 Note on, A3 key =  57 ; velocity: 127
@4380 Channel: 2 Note on, A3 key =  57 ; velocity: 0
@4380 Channel: 2 Note on, A2 key =  45 ; velocity: 127
@4440 Channel: 2 Note on, A2 key =  45 ; velocity: 0
@4440 Channel: 2 Note on, F3 key =  53 ; velocity: 127
@4500 Channel: 2 Note on, F3 key =  53 ; velocity: 0
@4500 Channel: 2 Note on, E3 key =  52 ; velocity: 127
@4560 Channel: 2 Note on, E3 key =  52 ; velocity: 0
@4560 Channel: 2 Note on, G3 key =  55 ; velocity: 127
@4620 Channel: 2 Note on, G3 key =  55 ; velocity: 0
@4620 Channel: 2 Note on, E3 key =  52 ; velocity: 127
@4680 Channel: 2 Note on, E3 key =  52 ; velocity: 0
@4680 Channel: 2 Note on, C4 key =  60 ; velocity: 127
@4740 Channel: 2 Note on, C4 key =  60 ; velocity: 0
@4740 Channel: 2 Note on, A3 key =  57 ; velocity: 127
@4800 Channel: 2 Note on, A3 key =  57 ; velocity: 0
@4800 Channel: 2 Note on, A2 key =  45 ; velocity: 127
@4860 Channel: 2 Note on, A2 key =  45 ; velocity: 0
@4860 Channel: 2 Note on, A2 key =  45 ; velocity: 127
@4920 Channel: 2 Note on, A2 key =  45 ; velocity: 0
@4920 Channel: 2 Note on, D4 key =  62 ; velocity: 127
@4950 Channel: 2 Note on, D4 key =  62 ; velocity: 0
@4950 Channel: 2 Note on, D#4 key =  63 ; velocity: 127
@4980 Channel: 2 Note on, D#4 key =  63 ; velocity: 0
@4980 Channel: 2 Note on, D4 key =  62 ; velocity: 127
@5100 Channel: 2 Note on, D4 key =  62 ; velocity: 0
@5100 Channel: 2 Note on, A2 key =  45 ; velocity: 127
@5160 Channel: 2 Note on, A2 key =  45 ; velocity: 0
@5160 Channel: 2 Note on, A3 key =  57 ; velocity: 127
@5190 Channel: 2 Note on, A3 key =  57 ; velocity: 0
@5190 Channel: 2 Note on, A#3 key =  58 ; velocity: 127
@5220 Channel: 2 Note on, A#3 key =  58 ; velocity: 0
@5220 Channel: 2 Note on, A3 key =  57 ; velocity: 127
@5340 Channel: 2 Note on, A3 key =  57 ; velocity: 0
@5340 Channel: 2 Note on, A2 key =  45 ; velocity: 127
@5400 Channel: 2 Note on, A2 key =  45 ; velocity: 0
@5400 Channel: 2 Note on, F3 key =  53 ; velocity: 127
@5460 Channel: 2 Note on, F3 key =  53 ; velocity: 0
@5460 Channel: 2 Note on, E3 key =  52 ; velocity: 127
@5520 Channel: 2 Note on, E3 key =  52 ; velocity: 0
@5520 Channel: 2 Note on, G3 key =  55 ; velocity: 127
@5580 Channel: 2 Note on, G3 key =  55 ; velocity: 0
@5580 Channel: 2 Note on, E3 key =  52 ; velocity: 127
@5640 Channel: 2 Note on, E3 key =  52 ; velocity: 0
@5640 Channel: 2 Note on, C4 key =  60 ; velocity: 127
@5700 Channel: 2 Note on, C4 key =  60 ; velocity: 0
@5700 Channel: 2 Note on, A3 key =  57 ; velocity: 127
@5760 Channel: 2 Note on, A3 key =  57 ; velocity: 0
@5760 Channel: 2 Note on, A2 key =  45 ; velocity: 127
@5820 Channel: 2 Note on, A2 key =  45 ; velocity: 0
@5820 Channel: 2 Note on, A2 key =  45 ; velocity: 127
@5880 Channel: 2 Note on, A2 key =  45 ; velocity: 0
@5880 Channel: 2 Note on, D4 key =  62 ; velocity: 127
@5910 Channel: 2 Note on, D4 key =  62 ; velocity: 0
@5910 Channel: 2 Note on, D#4 key =  63 ; velocity: 127
@5940 Channel: 2 Note on, D#4 key =  63 ; velocity: 0
@5940 Channel: 2 Note on, D4 key =  62 ; velocity: 127
@6060 Channel: 2 Note on, D4 key =  62 ; velocity: 0
@6060 Channel: 2 Note on, A2 key =  45 ; velocity: 127
@6120 Channel: 2 Note on, A2 key =  45 ; velocity: 0
@6120 Channel: 2 Note on, A3 key =  57 ; velocity: 127
@6150 Channel: 2 Note on, A3 key =  57 ; velocity: 0
@6150 Channel: 2 Note on, A#3 key =  58 ; velocity: 127
@6180 Channel: 2 Note on, A#3 key =  58 ; velocity: 0
@6180 Channel: 2 Note on, A3 key =  57 ; velocity: 127
@6300 Channel: 2 Note on, A3 key =  57 ; velocity: 0
@6300 Channel: 2 Note on, A2 key =  45 ; velocity: 127
@6360 Channel: 2 Note on, A2 key =  45 ; velocity: 0
@6360 Channel: 2 Note on, F3 key =  53 ; velocity: 127
@6420 Channel: 2 Note on, F3 key =  53 ; velocity: 0
@6420 Channel: 2 Note on, E3 key =  52 ; velocity: 127
@6480 Channel: 2 Note on, E3 key =  52 ; velocity: 0
@6480 Channel: 2 Note on, G3 key =  55 ; velocity: 127
@6540 Channel: 2 Note on, G3 key =  55 ; velocity: 0
@6540 Channel: 2 Note on, E3 key =  52 ; velocity: 127
@6600 Channel: 2 Note on, E3 key =  52 ; velocity: 0
@6600 Channel: 2 Note on, C4 key =  60 ; velocity: 127
@6660 Channel: 2 Note on, C4 key =  60 ; velocity: 0
@6660 Channel: 2 Note on, A3 key =  57 ; velocity: 127
@6720 Channel: 2 Note on, A3 key =  57 ; velocity: 0
@6720 Channel: 2 Note on, A2 key =  45 ; velocity: 127
@6780 Channel: 2 Note on, A2 key =  45 ; velocity: 0
@6780 Channel: 2 Note on, A2 key =  45 ; velocity: 127
@6840 Channel: 2 Note on, A2 key =  45 ; velocity: 0
@6840 Channel: 2 Note on, D4 key =  62 ; velocity: 127
@6870 Channel: 2 Note on, D4 key =  62 ; velocity: 0
@6870 Channel: 2 Note on, D#4 key =  63 ; velocity: 127
@6900 Channel: 2 Note on, D#4 key =  63 ; velocity: 0
@6900 Channel: 2 Note on, D4 key =  62 ; velocity: 127
@7020 Channel: 2 Note on, D4 key =  62 ; velocity: 0
@7020 Channel: 2 Note on, A2 key =  45 ; velocity: 127
@7080 Channel: 2 Note on, A2 key =  45 ; velocity: 0
@7080 Channel: 2 Note on, A3 key =  57 ; velocity: 127
@7110 Channel: 2 Note on, A3 key =  57 ; velocity: 0
@7110 Channel: 2 Note on, A#3 key =  58 ; velocity: 127
@7140 Channel: 2 Note on, A#3 key =  58 ; velocity: 0
@7140 Channel: 2 Note on, A3 key =  57 ; velocity: 127
@7260 Channel: 2 Note on, A3 key =  57 ; velocity: 0
@7260 Channel: 2 Note on, A2 key =  45 ; velocity: 127
@7320 Channel: 2 Note on, A2 key =  45 ; velocity: 0
@7320 Channel: 2 Note on, F3 key =  53 ; velocity: 127
@7380 Channel: 2 Note on, F3 key =  53 ; velocity: 0
@7380 Channel: 2 Note on, E3 key =  52 ; velocity: 127
@7440 Channel: 2 Note on, E3 key =  52 ; velocity: 0
@7440 Channel: 2 Note on, G3 key =  55 ; velocity: 127
@7500 Channel: 2 Note on, G3 key =  55 ; velocity: 0
@7500 Channel: 2 Note on, E3 key =  52 ; velocity: 127
@7560 Channel: 2 Note on, E3 key =  52 ; velocity: 0
@7560 Channel: 2 Note on, C4 key =  60 ; velocity: 127
@7620 Channel: 2 Note on, C4 key =  60 ; velocity: 0
@7620 Channel: 2 Note on, A3 key =  57 ; velocity: 127
@7680 Channel: 2 Note on, A3 key =  57 ; velocity: 0
@7680 Channel: 2 Note on, E4 key =  64 ; velocity: 127
@7740 Channel: 2 Note on, E4 key =  64 ; velocity: 0
@7740 Channel: 2 Note on, D4 key =  62 ; velocity: 127
@7800 Channel: 2 Note on, D4 key =  62 ; velocity: 0
@7800 Channel: 2 Note on, B3 key =  59 ; velocity: 127
@7860 Channel: 2 Note on, B3 key =  59 ; velocity: 0
@7860 Channel: 2 Note on, D4 key =  62 ; velocity: 127
@7920 Channel: 2 Note on, D4 key =  62 ; velocity: 0
@7920 Channel: 2 Note on, B3 key =  59 ; velocity: 127
@7980 Channel: 2 Note on, B3 key =  59 ; velocity: 0
@7980 Channel: 2 Note on, A#3 key =  58 ; velocity: 127
@8040 Channel: 2 Note on, A#3 key =  58 ; velocity: 0
@8040 Channel: 2 Note on, A3 key =  57 ; velocity: 127
@8100 Channel: 2 Note on, A3 key =  57 ; velocity: 0
@8100 Channel: 2 Note on, G3 key =  55 ; velocity: 127
@8160 Channel: 2 Note on, G3 key =  55 ; velocity: 0
@10320 Channel: 2 Note on, G3 key =  55 ; velocity: 127
@10320 Channel: 2 Note on, D3 key =  50 ; velocity: 127
@10380 Channel: 2 Note on, G3 key =  55 ; velocity: 0
@10380 Channel: 2 Note on, D3 key =  50 ; velocity: 0
@10380 Channel: 2 Note on, E3 key =  52 ; velocity: 127
@10380 Channel: 2 Note on, A3 key =  57 ; velocity: 127
@10440 Channel: 2 Note on, E3 key =  52 ; velocity: 0
@10440 Channel: 2 Note on, A3 key =  57 ; velocity: 0
@10440 Channel: 2 Note on, D3 key =  50 ; velocity: 127
@10440 Channel: 2 Note on, G3 key =  55 ; velocity: 127
@10500 Channel: 2 Note on, D3 key =  50 ; velocity: 0
@10500 Channel: 2 Note on, G3 key =  55 ; velocity: 0
@10500 Channel: 2 Note on, E3 key =  52 ; velocity: 127
@10500 Channel: 2 Note on, A3 key =  57 ; velocity: 127
@10560 Channel: 2 Note on, E3 key =  52 ; velocity: 0
@10560 Channel: 2 Note on, A3 key =  57 ; velocity: 0
@10560 Channel: 2 Note on, E2 key =  40 ; velocity: 127
@10620 Channel: 2 Note on, E2 key =  40 ; velocity: 0
@10620 Channel: 2 Note on, E2 key =  40 ; velocity: 127
@10680 Channel: 2 Note on, E2 key =  40 ; velocity: 0
@10680 Channel: 2 Note on, E2 key =  40 ; velocity: 127
@10740 Channel: 2 Note on, E2 key =  40 ; velocity: 0
@10740 Channel: 2 Note on, E2 key =  40 ; velocity: 127
@10800 Channel: 2 Note on, E2 key =  40 ; velocity: 0
@10800 Channel: 2 Note on, E3 key =  52 ; velocity: 127
@10860 Channel: 2 Note on, E3 key =  52 ; velocity: 0
@10860 Channel: 2 Note on, D3 key =  50 ; velocity: 127
@10920 Channel: 2 Note on, D3 key =  50 ; velocity: 0
@10920 Channel: 2 Note on, B2 key =  47 ; velocity: 127
@10980 Channel: 2 Note on, B2 key =  47 ; velocity: 0
@10980 Channel: 2 Note on, A#2 key =  46 ; velocity: 127
@11040 Channel: 2 Note on, A#2 key =  46 ; velocity: 0
@11040 Channel: 2 Note on, E2 key =  40 ; velocity: 127
@11100 Channel: 2 Note on, E2 key =  40 ; velocity: 0
@11100 Channel: 2 Note on, E2 key =  40 ; velocity: 127
@11160 Channel: 2 Note on, E2 key =  40 ; velocity: 0
@11160 Channel: 2 Note on, E2 key =  40 ; velocity: 127
@11220 Channel: 2 Note on, E2 key =  40 ; velocity: 0
@11220 Channel: 2 Note on, E2 key =  40 ; velocity: 127
@11280 Channel: 2 Note on, E2 key =  40 ; velocity: 0
@11280 Channel: 2 Note on, G3 key =  55 ; velocity: 127
@11280 Channel: 2 Note on, D3 key =  50 ; velocity: 127
@11340 Channel: 2 Note on, G3 key =  55 ; velocity: 0
@11340 Channel: 2 Note on, D3 key =  50 ; velocity: 0
@11340 Channel: 2 Note on, E3 key =  52 ; velocity: 127
@11340 Channel: 2 Note on, A3 key =  57 ; velocity: 127
@11400 Channel: 2 Note on, E3 key =  52 ; velocity: 0
@11400 Channel: 2 Note on, A3 key =  57 ; velocity: 0
@11400 Channel: 2 Note on, D3 key =  50 ; velocity: 127
@11400 Channel: 2 Note on, G3 key =  55 ; velocity: 127
@11460 Channel: 2 Note on, D3 key =  50 ; velocity: 0
@11460 Channel: 2 Note on, G3 key =  55 ; velocity: 0
@11460 Channel: 2 Note on, A3 key =  57 ; velocity: 127
@11460 Channel: 2 Note on, E3 key =  52 ; velocity: 127
@11520 Channel: 2 Note on, A3 key =  57 ; velocity: 0
@11520 Channel: 2 Note on, E3 key =  52 ; velocity: 0
@11520 Channel: 2 Note on, E2 key =  40 ; velocity: 127
@11580 Channel: 2 Note on, E2 key =  40 ; velocity: 0
@11580 Channel: 2 Note on, E2 key =  40 ; velocity: 127
@11640 Channel: 2 Note on, E2 key =  40 ; velocity: 0
@11640 Channel: 2 Note on, E2 key =  40 ; velocity: 127
@11700 Channel: 2 Note on, E2 key =  40 ; velocity: 0
@11700 Channel: 2 Note on, E2 key =  40 ; velocity: 127
@11760 Channel: 2 Note on, E2 key =  40 ; velocity: 0
@11760 Channel: 2 Note on, E3 key =  52 ; velocity: 127
@11820 Channel: 2 Note on, E3 key =  52 ; velocity: 0
@11820 Channel: 2 Note on, D3 key =  50 ; velocity: 127
@11880 Channel: 2 Note on, D3 key =  50 ; velocity: 0
@11880 Channel: 2 Note on, B2 key =  47 ; velocity: 127
@11940 Channel: 2 Note on, B2 key =  47 ; velocity: 0
@11940 Channel: 2 Note on, A#2 key =  46 ; velocity: 127
@12000 Channel: 2 Note on, A#2 key =  46 ; velocity: 0
@12000 Channel: 2 Note on, E2 key =  40 ; velocity: 127
@12060 Channel: 2 Note on, E2 key =  40 ; velocity: 0
@12060 Channel: 2 Note on, E2 key =  40 ; velocity: 127
@12120 Channel: 2 Note on, E2 key =  40 ; velocity: 0
@12120 Channel: 2 Note on, E2 key =  40 ; velocity: 127
@12180 Channel: 2 Note on, E2 key =  40 ; velocity: 0
@12180 Channel: 2 Note on, E2 key =  40 ; velocity: 127
@12240 Channel: 2 Note on, E2 key =  40 ; velocity: 0
@12240 Channel: 2 Note on, G3 key =  55 ; velocity: 127
@12240 Channel: 2 Note on, D3 key =  50 ; velocity: 127
@12300 Channel: 2 Note on, G3 key =  55 ; velocity: 0
@12300 Channel: 2 Note on, D3 key =  50 ; velocity: 0
@12300 Channel: 2 Note on, E3 key =  52 ; velocity: 127
@12300 Channel: 2 Note on, A3 key =  57 ; velocity: 127
@12360 Channel: 2 Note on, E3 key =  52 ; velocity: 0
@12360 Channel: 2 Note on, A3 key =  57 ; velocity: 0
@12360 Channel: 2 Note on, D3 key =  50 ; velocity: 127
@12360 Channel: 2 Note on, G3 key =  55 ; velocity: 127
@12420 Channel: 2 Note on, D3 key =  50 ; velocity: 0
@12420 Channel: 2 Note on, G3 key =  55 ; velocity: 0
@12420 Channel: 2 Note on, A3 key =  57 ; velocity: 127
@12420 Channel: 2 Note on, E3 key =  52 ; velocity: 127
@12480 Channel: 2 Note on, A3 key =  57 ; velocity: 0
@12480 Channel: 2 Note on, E3 key =  52 ; velocity: 0
@12480 Channel: 2 Note on, E2 key =  40 ; velocity: 127
@12540 Channel: 2 Note on, E2 key =  40 ; velocity: 0
@12540 Channel: 2 Note on, E2 key =  40 ; velocity: 127
@12600 Channel: 2 Note on, E2 key =  40 ; velocity: 0
@12600 Channel: 2 Note on, E2 key =  40 ; velocity: 127
@12660 Channel: 2 Note on, E2 key =  40 ; velocity: 0
@12660 Channel: 2 Note on, E2 key =  40 ; velocity: 127
@12720 Channel: 2 Note on, E2 key =  40 ; velocity: 0
@12720 Channel: 2 Note on, E3 key =  52 ; velocity: 127
@12780 Channel: 2 Note on, E3 key =  52 ; velocity: 0
@12780 Channel: 2 Note on, D3 key =  50 ; velocity: 127
@12840 Channel: 2 Note on, D3 key =  50 ; velocity: 0
@12840 Channel: 2 Note on, B2 key =  47 ; velocity: 127
@12900 Channel: 2 Note on, B2 key =  47 ; velocity: 0
@12900 Channel: 2 Note on, A#2 key =  46 ; velocity: 127
@12960 Channel: 2 Note on, A#2 key =  46 ; velocity: 0
@12960 Channel: 2 Note on, E2 key =  40 ; velocity: 127
@13020 Channel: 2 Note on, E2 key =  40 ; velocity: 0
@13020 Channel: 2 Note on, E2 key =  40 ; velocity: 127
@13080 Channel: 2 Note on, E2 key =  40 ; velocity: 0
@13080 Channel: 2 Note on, E2 key =  40 ; velocity: 127
@13140 Channel: 2 Note on, E2 key =  40 ; velocity: 0
@13140 Channel: 2 Note on, E2 key =  40 ; velocity: 127
@13200 Channel: 2 Note on, E2 key =  40 ; velocity: 0
@13200 Channel: 2 Note on, G3 key =  55 ; velocity: 127
@13200 Channel: 2 Note on, D3 key =  50 ; velocity: 127
@13260 Channel: 2 Note on, G3 key =  55 ; velocity: 0
@13260 Channel: 2 Note on, D3 key =  50 ; velocity: 0
@13260 Channel: 2 Note on, E3 key =  52 ; velocity: 127
@13260 Channel: 2 Note on, A3 key =  57 ; velocity: 127
@13320 Channel: 2 Note on, E3 key =  52 ; velocity: 0
@13320 Channel: 2 Note on, A3 key =  57 ; velocity: 0
@13320 Channel: 2 Note on, D3 key =  50 ; velocity: 127
@13320 Channel: 2 Note on, G3 key =  55 ; velocity: 127
@13380 Channel: 2 Note on, D3 key =  50 ; velocity: 0
@13380 Channel: 2 Note on, G3 key =  55 ; velocity: 0
@13380 Channel: 2 Note on, A3 key =  57 ; velocity: 127
@13380 Channel: 2 Note on, E3 key =  52 ; velocity: 127
@13440 Channel: 2 Note on, A3 key =  57 ; velocity: 0
@13440 Channel: 2 Note on, E3 key =  52 ; velocity: 0
@13440 Channel: 2 Note on, E2 key =  40 ; velocity: 127
@13500 Channel: 2 Note on, E2 key =  40 ; velocity: 0
@13500 Channel: 2 Note on, E2 key =  40 ; velocity: 127
@13560 Channel: 2 Note on, E2 key =  40 ; velocity: 0
@13560 Channel: 2 Note on, E2 key =  40 ; velocity: 127
@13620 Channel: 2 Note on, E2 key =  40 ; velocity: 0
@13620 Channel: 2 Note on, E2 key =  40 ; velocity: 127
@13680 Channel: 2 Note on, E2 key =  40 ; velocity: 0
@13680 Channel: 2 Note on, E3 key =  52 ; velocity: 127
@13740 Channel: 2 Note on, E3 key =  52 ; velocity: 0
@13740 Channel: 2 Note on, D3 key =  50 ; velocity: 127
@13800 Channel: 2 Note on, D3 key =  50 ; velocity: 0
@13800 Channel: 2 Note on, B2 key =  47 ; velocity: 127
@13860 Channel: 2 Note on, B2 key =  47 ; velocity: 0
@13860 Channel: 2 Note on, A#2 key =  46 ; velocity: 127
@13920 Channel: 2 Note on, A#2 key =  46 ; velocity: 0
@13920 Channel: 2 Note on, E2 key =  40 ; velocity: 127
@13980 Channel: 2 Note on, E2 key =  40 ; velocity: 0
@13980 Channel: 2 Note on, E2 key =  40 ; velocity: 127
@14040 Channel: 2 Note on, E2 key =  40 ; velocity: 0
@14040 Channel: 2 Note on, E2 key =  40 ; velocity: 127
@14100 Channel: 2 Note on, E2 key =  40 ; velocity: 0
@14100 Channel: 2 Note on, E2 key =  40 ; velocity: 127
@14160 Channel: 2 Note on, E2 key =  40 ; velocity: 0
@14160 Channel: 2 Note on, G3 key =  55 ; velocity: 127
@14160 Channel: 2 Note on, D3 key =  50 ; velocity: 127
@14220 Channel: 2 Note on, G3 key =  55 ; velocity: 0
@14220 Channel: 2 Note on, D3 key =  50 ; velocity: 0
@14220 Channel: 2 Note on, E3 key =  52 ; velocity: 127
@14220 Channel: 2 Note on, A3 key =  57 ; velocity: 127
@14280 Channel: 2 Note on, E3 key =  52 ; velocity: 0
@14280 Channel: 2 Note on, A3 key =  57 ; velocity: 0
@14280 Channel: 2 Note on, D3 key =  50 ; velocity: 127
@14280 Channel: 2 Note on, G3 key =  55 ; velocity: 127
@14340 Channel: 2 Note on, D3 key =  50 ; velocity: 0
@14340 Channel: 2 Note on, G3 key =  55 ; velocity: 0
@14340 Channel: 2 Note on, A3 key =  57 ; velocity: 127
@14340 Channel: 2 Note on, E3 key =  52 ; velocity: 127
@14400 Channel: 2 Note on, A3 key =  57 ; velocity: 0
@14400 Channel: 2 Note on, E3 key =  52 ; velocity: 0
@14400 Channel: 2 Note on, E2 key =  40 ; velocity: 127
@14460 Channel: 2 Note on, E2 key =  40 ; velocity: 0
@14460 Channel: 2 Note on, E2 key =  40 ; velocity: 127
@14520 Channel: 2 Note on, E2 key =  40 ; velocity: 0
@14520 Channel: 2 Note on, E2 key =  40 ; velocity: 127
@14580 Channel: 2 Note on, E2 key =  40 ; velocity: 0
@14580 Channel: 2 Note on, E2 key =  40 ; velocity: 127
@14640 Channel: 2 Note on, E2 key =  40 ; velocity: 0
@14640 Channel: 2 Note on, E3 key =  52 ; velocity: 127
@14700 Channel: 2 Note on, E3 key =  52 ; velocity: 0
@14700 Channel: 2 Note on, D3 key =  50 ; velocity: 127
@14760 Channel: 2 Note on, D3 key =  50 ; velocity: 0
@14760 Channel: 2 Note on, B2 key =  47 ; velocity: 127
@14820 Channel: 2 Note on, B2 key =  47 ; velocity: 0
@14820 Channel: 2 Note on, A#2 key =  46 ; velocity: 127
@14880 Channel: 2 Note on, A#2 key =  46 ; velocity: 0
@14880 Channel: 2 Note on, E2 key =  40 ; velocity: 127
@14940 Channel: 2 Note on, E2 key =  40 ; velocity: 0
@14940 Channel: 2 Note on, E2 key =  40 ; velocity: 127
@15000 Channel: 2 Note on, E2 key =  40 ; velocity: 0
@15000 Channel: 2 Note on, E2 key =  40 ; velocity: 127
@15060 Channel: 2 Note on, E2 key =  40 ; velocity: 0
@15060 Channel: 2 Note on, E2 key =  40 ; velocity: 127
@15120 Channel: 2 Note on, E2 key =  40 ; velocity: 0
@15120 Channel: 2 Note on, G3 key =  55 ; velocity: 127
@15120 Channel: 2 Note on, D3 key =  50 ; velocity: 127
@15180 Channel: 2 Note on, G3 key =  55 ; velocity: 0
@15180 Channel: 2 Note on, D3 key =  50 ; velocity: 0
@15180 Channel: 2 Note on, E3 key =  52 ; velocity: 127
@15180 Channel: 2 Note on, A3 key =  57 ; velocity: 127
@15240 Channel: 2 Note on, E3 key =  52 ; velocity: 0
@15240 Channel: 2 Note on, A3 key =  57 ; velocity: 0
@15240 Channel: 2 Note on, D3 key =  50 ; velocity: 127
@15240 Channel: 2 Note on, G3 key =  55 ; velocity: 127
@15300 Channel: 2 Note on, D3 key =  50 ; velocity: 0
@15300 Channel: 2 Note on, G3 key =  55 ; velocity: 0
@15300 Channel: 2 Note on, A3 key =  57 ; velocity: 127
@15300 Channel: 2 Note on, E3 key =  52 ; velocity: 127
@15360 Channel: 2 Note on, A3 key =  57 ; velocity: 0
@15360 Channel: 2 Note on, E3 key =  52 ; velocity: 0
@15360 Channel: 2 Note on, E2 key =  40 ; velocity: 127
@15420 Channel: 2 Note on, E2 key =  40 ; velocity: 0
@15420 Channel: 2 Note on, E2 key =  40 ; velocity: 127
@15480 Channel: 2 Note on, E2 key =  40 ; velocity: 0
@15480 Channel: 2 Note on, E2 key =  40 ; velocity: 127
@15540 Channel: 2 Note on, E2 key =  40 ; velocity: 0
@15540 Channel: 2 Note on, E2 key =  40 ; velocity: 127
@15600 Channel: 2 Note on, E2 key =  40 ; velocity: 0
@15600 Channel: 2 Note on, E3 key =  52 ; velocity: 127
@15660 Channel: 2 Note on, E3 key =  52 ; velocity: 0
@15660 Channel: 2 Note on, D3 key =  50 ; velocity: 127
@15720 Channel: 2 Note on, D3 key =  50 ; velocity: 0
@15720 Channel: 2 Note on, B2 key =  47 ; velocity: 127
@15780 Channel: 2 Note on, B2 key =  47 ; velocity: 0
@15780 Channel: 2 Note on, A#2 key =  46 ; velocity: 127
@15840 Channel: 2 Note on, A#2 key =  46 ; velocity: 0
@15840 Channel: 2 Note on, E2 key =  40 ; velocity: 127
@15900 Channel: 2 Note on, E2 key =  40 ; velocity: 0
@15900 Channel: 2 Note on, E2 key =  40 ; velocity: 127
@15960 Channel: 2 Note on, E2 key =  40 ; velocity: 0
@15960 Channel: 2 Note on, E2 key =  40 ; velocity: 127
@16020 Channel: 2 Note on, E2 key =  40 ; velocity: 0
@16020 Channel: 2 Note on, E2 key =  40 ; velocity: 127
@16080 Channel: 2 Note on, E2 key =  40 ; velocity: 0
@16080 Channel: 2 Note on, E2 key =  40 ; velocity: 127
@16140 Channel: 2 Note on, E2 key =  40 ; velocity: 0
@16140 Channel: 2 Note on, E2 key =  40 ; velocity: 127
@16200 Channel: 2 Note on, E2 key =  40 ; velocity: 0
@16200 Channel: 2 Note on, E2 key =  40 ; velocity: 127
@16260 Channel: 2 Note on, E2 key =  40 ; velocity: 0
@16260 Channel: 2 Note on, E2 key =  40 ; velocity: 127
@16320 Channel: 2 Note on, E2 key =  40 ; velocity: 0
@16320 Channel: 2 Note on, E2 key =  40 ; velocity: 127
@16380 Channel: 2 Note on, E2 key =  40 ; velocity: 0
@16380 Channel: 2 Note on, E2 key =  40 ; velocity: 127
@16440 Channel: 2 Note on, E2 key =  40 ; velocity: 0
@16440 Channel: 2 Note on, E2 key =  40 ; velocity: 127
@16500 Channel: 2 Note on, E2 key =  40 ; velocity: 0
@16500 Channel: 2 Note on, E2 key =  40 ; velocity: 127
@16560 Channel: 2 Note on, E2 key =  40 ; velocity: 0
@16560 Channel: 2 Note on, B2 key =  47 ; velocity: 127
@16620 Channel: 2 Note on, B2 key =  47 ; velocity: 0
@16620 Channel: 2 Note on, A#2 key =  46 ; velocity: 127
@16680 Channel: 2 Note on, A#2 key =  46 ; velocity: 0
@16680 Channel: 2 Note on, G3 key =  55 ; velocity: 127
@16740 Channel: 2 Note on, G3 key =  55 ; velocity: 0
@16740 Channel: 2 Note on, E3 key =  52 ; velocity: 127
@16800 Channel: 2 Note on, E3 key =  52 ; velocity: 0
@16800 Channel: 2 Note on, E2 key =  40 ; velocity: 127
@16860 Channel: 2 Note on, E2 key =  40 ; velocity: 0
@16860 Channel: 2 Note on, E2 key =  40 ; velocity: 127
@16920 Channel: 2 Note on, E2 key =  40 ; velocity: 0
@16920 Channel: 2 Note on, E2 key =  40 ; velocity: 127
@16980 Channel: 2 Note on, E2 key =  40 ; velocity: 0
@16980 Channel: 2 Note on, E2 key =  40 ; velocity: 127
@17040 Channel: 2 Note on, E2 key =  40 ; velocity: 0
@17040 Channel: 2 Note on, E2 key =  40 ; velocity: 127
@17100 Channel: 2 Note on, E2 key =  40 ; velocity: 0
@17100 Channel: 2 Note on, E2 key =  40 ; velocity: 127
@17160 Channel: 2 Note on, E2 key =  40 ; velocity: 0
@17160 Channel: 2 Note on, E2 key =  40 ; velocity: 127
@17220 Channel: 2 Note on, E2 key =  40 ; velocity: 0
@17220 Channel: 2 Note on, E2 key =  40 ; velocity: 127
@17280 Channel: 2 Note on, E2 key =  40 ; velocity: 0
@17280 Channel: 2 Note on, E2 key =  40 ; velocity: 127
@17340 Channel: 2 Note on, E2 key =  40 ; velocity: 0
@17340 Channel: 2 Note on, E2 key =  40 ; velocity: 127
@17400 Channel: 2 Note on, E2 key =  40 ; velocity: 0
@17400 Channel: 2 Note on, E2 key =  40 ; velocity: 127
@17460 Channel: 2 Note on, E2 key =  40 ; velocity: 0
@17460 Channel: 2 Note on, E2 key =  40 ; velocity: 127
@17520 Channel: 2 Note on, E2 key =  40 ; velocity: 0
@17520 Channel: 2 Note on, B2 key =  47 ; velocity: 127
@17580 Channel: 2 Note on, B2 key =  47 ; velocity: 0
@17580 Channel: 2 Note on, A#2 key =  46 ; velocity: 127
@17640 Channel: 2 Note on, A#2 key =  46 ; velocity: 0
@17640 Channel: 2 Note on, G3 key =  55 ; velocity: 127
@17700 Channel: 2 Note on, G3 key =  55 ; velocity: 0
@17700 Channel: 2 Note on, E3 key =  52 ; velocity: 127
@17760 Channel: 2 Note on, E3 key =  52 ; velocity: 0
@17760 Channel: 2 Note on, E2 key =  40 ; velocity: 127
@17820 Channel: 2 Note on, E2 key =  40 ; velocity: 0
@17820 Channel: 2 Note on, E2 key =  40 ; velocity: 127
@17880 Channel: 2 Note on, E2 key =  40 ; velocity: 0
@17880 Channel: 2 Note on, E2 key =  40 ; velocity: 127
@17940 Channel: 2 Note on, E2 key =  40 ; velocity: 0
@17940 Channel: 2 Note on, E2 key =  40 ; velocity: 127
@18000 Channel: 2 Note on, E2 key =  40 ; velocity: 0
@18000 Channel: 2 Note on, E2 key =  40 ; velocity: 127
@18060 Channel: 2 Note on, E2 key =  40 ; velocity: 0
@18060 Channel: 2 Note on, E2 key =  40 ; velocity: 127
@18120 Channel: 2 Note on, E2 key =  40 ; velocity: 0
@18120 Channel: 2 Note on, E2 key =  40 ; velocity: 127
@18180 Channel: 2 Note on, E2 key =  40 ; velocity: 0
@18180 Channel: 2 Note on, E2 key =  40 ; velocity: 127
@18240 Channel: 2 Note on, E2 key =  40 ; velocity: 0
@18240 Channel: 2 Note on, E2 key =  40 ; velocity: 127
@18300 Channel: 2 Note on, E2 key =  40 ; velocity: 0
@18300 Channel: 2 Note on, E2 key =  40 ; velocity: 127
@18360 Channel: 2 Note on, E2 key =  40 ; velocity: 0
@18360 Channel: 2 Note on, E2 key =  40 ; velocity: 127
@18420 Channel: 2 Note on, E2 key =  40 ; velocity: 0
@18420 Channel: 2 Note on, E2 key =  40 ; velocity: 127
@18480 Channel: 2 Note on, E2 key =  40 ; velocity: 0
@18480 Channel: 2 Note on, B2 key =  47 ; velocity: 127
@18540 Channel: 2 Note on, B2 key =  47 ; velocity: 0
@18540 Channel: 2 Note on, A#2 key =  46 ; velocity: 127
@18600 Channel: 2 Note on, A#2 key =  46 ; velocity: 0
@18600 Channel: 2 Note on, G3 key =  55 ; velocity: 127
@18660 Channel: 2 Note on, G3 key =  55 ; velocity: 0
@18660 Channel: 2 Note on, E3 key =  52 ; velocity: 127
@18720 Channel: 2 Note on, E3 key =  52 ; velocity: 0
@18720 Channel: 2 Note on, E2 key =  40 ; velocity: 127
@18780 Channel: 2 Note on, E2 key =  40 ; velocity: 0
@18780 Channel: 2 Note on, E2 key =  40 ; velocity: 127
@18840 Channel: 2 Note on, E2 key =  40 ; velocity: 0
@18840 Channel: 2 Note on, E2 key =  40 ; velocity: 127
@18900 Channel: 2 Note on, E2 key =  40 ; velocity: 0
@18900 Channel: 2 Note on, E2 key =  40 ; velocity: 127
@18960 Channel: 2 Note on, E2 key =  40 ; velocity: 0
@18960 Channel: 2 Note on, E2 key =  40 ; velocity: 127
@19020 Channel: 2 Note on, E2 key =  40 ; velocity: 0
@19020 Channel: 2 Note on, E2 key =  40 ; velocity: 127
@19080 Channel: 2 Note on, E2 key =  40 ; velocity: 0
@19080 Channel: 2 Note on, E2 key =  40 ; velocity: 127
@19140 Channel: 2 Note on, E2 key =  40 ; velocity: 0
@19140 Channel: 2 Note on, E2 key =  40 ; velocity: 127
@19200 Channel: 2 Note on, E2 key =  40 ; velocity: 0
@19200 Channel: 2 Note on, E2 key =  40 ; velocity: 127
@19260 Channel: 2 Note on, E2 key =  40 ; velocity: 0
@19260 Channel: 2 Note on, E2 key =  40 ; velocity: 127
@19320 Channel: 2 Note on, E2 key =  40 ; velocity: 0
@19320 Channel: 2 Note on, E2 key =  40 ; velocity: 127
@19380 Channel: 2 Note on, E2 key =  40 ; velocity: 0
@19380 Channel: 2 Note on, E2 key =  40 ; velocity: 127
@19440 Channel: 2 Note on, E2 key =  40 ; velocity: 0
@19440 Channel: 2 Note on, B2 key =  47 ; velocity: 127
@19500 Channel: 2 Note on, B2 key =  47 ; velocity: 0
@19500 Channel: 2 Note on, A#2 key =  46 ; velocity: 127
@19560 Channel: 2 Note on, A#2 key =  46 ; velocity: 0
@19560 Channel: 2 Note on, G3 key =  55 ; velocity: 127
@19620 Channel: 2 Note on, G3 key =  55 ; velocity: 0
@19620 Channel: 2 Note on, E3 key =  52 ; velocity: 127
@19680 Channel: 2 Note on, E3 key =  52 ; velocity: 0
@19680 Channel: 2 Note on, E2 key =  40 ; velocity: 127
@19740 Channel: 2 Note on, E2 key =  40 ; velocity: 0
@19740 Channel: 2 Note on, E2 key =  40 ; velocity: 127
@19800 Channel: 2 Note on, E2 key =  40 ; velocity: 0
@19800 Channel: 2 Note on, E2 key =  40 ; velocity: 127
@19860 Channel: 2 Note on, E2 key =  40 ; velocity: 0
@19860 Channel: 2 Note on, E2 key =  40 ; velocity: 127
@19920 Channel: 2 Note on, E2 key =  40 ; velocity: 0
@19920 Channel: 2 Note on, E2 key =  40 ; velocity: 127
@19980 Channel: 2 Note on, E2 key =  40 ; velocity: 0
@19980 Channel: 2 Note on, E2 key =  40 ; velocity: 127
@20040 Channel: 2 Note on, E2 key =  40 ; velocity: 0
@20040 Channel: 2 Note on, E2 key =  40 ; velocity: 127
@20100 Channel: 2 Note on, E2 key =  40 ; velocity: 0
@20100 Channel: 2 Note on, E2 key =  40 ; velocity: 127
@20160 Channel: 2 Note on, E2 key =  40 ; velocity: 0
@20160 Channel: 2 Note on, E2 key =  40 ; velocity: 127
@20220 Channel: 2 Note on, E2 key =  40 ; velocity: 0
@20220 Channel: 2 Note on, E2 key =  40 ; velocity: 127
@20280 Channel: 2 Note on, E2 key =  40 ; velocity: 0
@20280 Channel: 2 Note on, E2 key =  40 ; velocity: 127
@20340 Channel: 2 Note on, E2 key =  40 ; velocity: 0
@20340 Channel: 2 Note on, E2 key =  40 ; velocity: 127
@20400 Channel: 2 Note on, E2 key =  40 ; velocity: 0
@20400 Channel: 2 Note on, B2 key =  47 ; velocity: 127
@20460 Channel: 2 Note on, B2 key =  47 ; velocity: 0
@20460 Channel: 2 Note on, A#2 key =  46 ; velocity: 127
@20520 Channel: 2 Note on, A#2 key =  46 ; velocity: 0
@20520 Channel: 2 Note on, G3 key =  55 ; velocity: 127
@20580 Channel: 2 Note on, G3 key =  55 ; velocity: 0
@20580 Channel: 2 Note on, E3 key =  52 ; velocity: 127
@20640 Channel: 2 Note on, E3 key =  52 ; velocity: 0
@20640 Channel: 2 Note on, E2 key =  40 ; velocity: 127
@20700 Channel: 2 Note on, E2 key =  40 ; velocity: 0
@20700 Channel: 2 Note on, E2 key =  40 ; velocity: 127
@20760 Channel: 2 Note on, E2 key =  40 ; velocity: 0
@20760 Channel: 2 Note on, E2 key =  40 ; velocity: 127
@20820 Channel: 2 Note on, E2 key =  40 ; velocity: 0
@20820 Channel: 2 Note on, E2 key =  40 ; velocity: 127
@20880 Channel: 2 Note on, E2 key =  40 ; velocity: 0
@20880 Channel: 2 Note on, E2 key =  40 ; velocity: 127
@20940 Channel: 2 Note on, E2 key =  40 ; velocity: 0
@20940 Channel: 2 Note on, E2 key =  40 ; velocity: 127
@21000 Channel: 2 Note on, E2 key =  40 ; velocity: 0
@21000 Channel: 2 Note on, E2 key =  40 ; velocity: 127
@21060 Channel: 2 Note on, E2 key =  40 ; velocity: 0
@21060 Channel: 2 Note on, E2 key =  40 ; velocity: 127
@21120 Channel: 2 Note on, E2 key =  40 ; velocity: 0
@21120 Channel: 2 Note on, E2 key =  40 ; velocity: 127
@21180 Channel: 2 Note on, E2 key =  40 ; velocity: 0
@21180 Channel: 2 Note on, E2 key =  40 ; velocity: 127
@21240 Channel: 2 Note on, E2 key =  40 ; velocity: 0
@21240 Channel: 2 Note on, E2 key =  40 ; velocity: 127
@21300 Channel: 2 Note on, E2 key =  40 ; velocity: 0
@21300 Channel: 2 Note on, E2 key =  40 ; velocity: 127
@21360 Channel: 2 Note on, E2 key =  40 ; velocity: 0
@21360 Channel: 2 Note on, B2 key =  47 ; velocity: 127
@21420 Channel: 2 Note on, B2 key =  47 ; velocity: 0
@21420 Channel: 2 Note on, A#2 key =  46 ; velocity: 127
@21480 Channel: 2 Note on, A#2 key =  46 ; velocity: 0
@21480 Channel: 2 Note on, G3 key =  55 ; velocity: 127
@21540 Channel: 2 Note on, G3 key =  55 ; velocity: 0
@21540 Channel: 2 Note on, E3 key =  52 ; velocity: 127
@21600 Channel: 2 Note on, E3 key =  52 ; velocity: 0
@21600 Channel: 2 Note on, E2 key =  40 ; velocity: 127
@21660 Channel: 2 Note on, E2 key =  40 ; velocity: 0
@21660 Channel: 2 Note on, E2 key =  40 ; velocity: 127
@21720 Channel: 2 Note on, E2 key =  40 ; velocity: 0
@21720 Channel: 2 Note on, E2 key =  40 ; velocity: 127
@21780 Channel: 2 Note on, E2 key =  40 ; velocity: 0
@21780 Channel: 2 Note on, E2 key =  40 ; velocity: 127
@21840 Channel: 2 Note on, E2 key =  40 ; velocity: 0
@21840 Channel: 2 Note on, E2 key =  40 ; velocity: 127
@21900 Channel: 2 Note on, E2 key =  40 ; velocity: 0
@21900 Channel: 2 Note on, E2 key =  40 ; velocity: 127
@21960 Channel: 2 Note on, E2 key =  40 ; velocity: 0
@21960 Channel: 2 Note on, E2 key =  40 ; velocity: 127
@22020 Channel: 2 Note on, E2 key =  40 ; velocity: 0
@22020 Channel: 2 Note on, E2 key =  40 ; velocity: 127
@22080 Channel: 2 Note on, E2 key =  40 ; velocity: 0
@22080 Channel: 2 Note on, E2 key =  40 ; velocity: 127
@22140 Channel: 2 Note on, E2 key =  40 ; velocity: 0
@22140 Channel: 2 Note on, E2 key =  40 ; velocity: 127
@22200 Channel: 2 Note on, E2 key =  40 ; velocity: 0
@22200 Channel: 2 Note on, E2 key =  40 ; velocity: 127
@22260 Channel: 2 Note on, E2 key =  40 ; velocity: 0
@22260 Channel: 2 Note on, E2 key =  40 ; velocity: 127
@22320 Channel: 2 Note on, E2 key =  40 ; velocity: 0
@22320 Channel: 2 Note on, B2 key =  47 ; velocity: 127
@22380 Channel: 2 Note on, B2 key =  47 ; velocity: 0
@22380 Channel: 2 Note on, A#2 key =  46 ; velocity: 127
@22440 Channel: 2 Note on, A#2 key =  46 ; velocity: 0
@22440 Channel: 2 Note on, G3 key =  55 ; velocity: 127
@22500 Channel: 2 Note on, G3 key =  55 ; velocity: 0
@22500 Channel: 2 Note on, E3 key =  52 ; velocity: 127
@22560 Channel: 2 Note on, E3 key =  52 ; velocity: 0
@22560 Channel: 2 Note on, E2 key =  40 ; velocity: 127
@22620 Channel: 2 Note on, E2 key =  40 ; velocity: 0
@22620 Channel: 2 Note on, E2 key =  40 ; velocity: 127
@22680 Channel: 2 Note on, E2 key =  40 ; velocity: 0
@22680 Channel: 2 Note on, E2 key =  40 ; velocity: 127
@22740 Channel: 2 Note on, E2 key =  40 ; velocity: 0
@22740 Channel: 2 Note on, E2 key =  40 ; velocity: 127
@22800 Channel: 2 Note on, E2 key =  40 ; velocity: 0
@22800 Channel: 2 Note on, E2 key =  40 ; velocity: 127
@22860 Channel: 2 Note on, E2 key =  40 ; velocity: 0
@22860 Channel: 2 Note on, E2 key =  40 ; velocity: 127
@22920 Channel: 2 Note on, E2 key =  40 ; velocity: 0
@22920 Channel: 2 Note on, E2 key =  40 ; velocity: 127
@22980 Channel: 2 Note on, E2 key =  40 ; velocity: 0
@22980 Channel: 2 Note on, E2 key =  40 ; velocity: 127
@23040 Channel: 2 Note on, E2 key =  40 ; velocity: 0
@23040 Channel: 2 Note on, E2 key =  40 ; velocity: 127
@23100 Channel: 2 Note on, E2 key =  40 ; velocity: 0
@23100 Channel: 2 Note on, E2 key =  40 ; velocity: 127
@23160 Channel: 2 Note on, E2 key =  40 ; velocity: 0
@23160 Channel: 2 Note on, E2 key =  40 ; velocity: 127
@23220 Channel: 2 Note on, E2 key =  40 ; velocity: 0
@23220 Channel: 2 Note on, E2 key =  40 ; velocity: 127
@23280 Channel: 2 Note on, E2 key =  40 ; velocity: 0
@23280 Channel: 2 Note on, B2 key =  47 ; velocity: 127
@23340 Channel: 2 Note on, B2 key =  47 ; velocity: 0
@23340 Channel: 2 Note on, A#2 key =  46 ; velocity: 127
@23400 Channel: 2 Note on, A#2 key =  46 ; velocity: 0
@23400 Channel: 2 Note on, G3 key =  55 ; velocity: 127
@23460 Channel: 2 Note on, G3 key =  55 ; velocity: 0
@23460 Channel: 2 Note on, E3 key =  52 ; velocity: 127
@23520 Channel: 2 Note on, E3 key =  52 ; velocity: 0
@23520 Channel: 2 Note on, C4 key =  60 ; velocity: 127
@23520 Channel: 2 Note on, G3 key =  55 ; velocity: 127
@23580 Channel: 2 Note on, C4 key =  60 ; velocity: 0
@23580 Channel: 2 Note on, G3 key =  55 ; velocity: 0
@23580 Channel: 2 Note on, E2 key =  40 ; velocity: 127
@23640 Channel: 2 Note on, E2 key =  40 ; velocity: 0
@23640 Channel: 2 Note on, E2 key =  40 ; velocity: 127
@23700 Channel: 2 Note on, E2 key =  40 ; velocity: 0
@23700 Channel: 2 Note on, E2 key =  40 ; velocity: 127
@23760 Channel: 2 Note on, E2 key =  40 ; velocity: 0
@23760 Channel: 2 Note on, G3 key =  55 ; velocity: 127
@23760 Channel: 2 Note on, C4 key =  60 ; velocity: 127
@23820 Channel: 2 Note on, G3 key =  55 ; velocity: 0
@23820 Channel: 2 Note on, C4 key =  60 ; velocity: 0
@23820 Channel: 2 Note on, D4 key =  62 ; velocity: 127
@23820 Channel: 2 Note on, A3 key =  57 ; velocity: 127
@23880 Channel: 2 Note on, D4 key =  62 ; velocity: 0
@23880 Channel: 2 Note on, A3 key =  57 ; velocity: 0
@23880 Channel: 2 Note on, G3 key =  55 ; velocity: 127
@23880 Channel: 2 Note on, C4 key =  60 ; velocity: 127
@24000 Channel: 2 Note on, G3 key =  55 ; velocity: 0
@24000 Channel: 2 Note on, C4 key =  60 ; velocity: 0
@24000 Channel: 2 Note on, C4 key =  60 ; velocity: 127
@24000 Channel: 2 Note on, G3 key =  55 ; velocity: 127
@24060 Channel: 2 Note on, C4 key =  60 ; velocity: 0
@24060 Channel: 2 Note on, G3 key =  55 ; velocity: 0
@24060 Channel: 2 Note on, E2 key =  40 ; velocity: 127
@24120 Channel: 2 Note on, E2 key =  40 ; velocity: 0
@24120 Channel: 2 Note on, E2 key =  40 ; velocity: 127
@24180 Channel: 2 Note on, E2 key =  40 ; velocity: 0
@24180 Channel: 2 Note on, E2 key =  40 ; velocity: 127
@24240 Channel: 2 Note on, E2 key =  40 ; velocity: 0
@24240 Channel: 2 Note on, G3 key =  55 ; velocity: 127
@24240 Channel: 2 Note on, C4 key =  60 ; velocity: 127
@24300 Channel: 2 Note on, G3 key =  55 ; velocity: 0
@24300 Channel: 2 Note on, C4 key =  60 ; velocity: 0
@24300 Channel: 2 Note on, D4 key =  62 ; velocity: 127
@24300 Channel: 2 Note on, A3 key =  57 ; velocity: 127
@24360 Channel: 2 Note on, D4 key =  62 ; velocity: 0
@24360 Channel: 2 Note on, A3 key =  57 ; velocity: 0
@24360 Channel: 2 Note on, G3 key =  55 ; velocity: 127
@24360 Channel: 2 Note on, C4 key =  60 ; velocity: 127
@24480 Channel: 2 Note on, G3 key =  55 ; velocity: 0
@24480 Channel: 2 Note on, C4 key =  60 ; velocity: 0
@24480 Channel: 2 Note on, C4 key =  60 ; velocity: 127
@24480 Channel: 2 Note on, G3 key =  55 ; velocity: 127
@24540 Channel: 2 Note on, C4 key =  60 ; velocity: 0
@24540 Channel: 2 Note on, G3 key =  55 ; velocity: 0
@24540 Channel: 2 Note on, E2 key =  40 ; velocity: 127
@24600 Channel: 2 Note on, E2 key =  40 ; velocity: 0
@24600 Channel: 2 Note on, E2 key =  40 ; velocity: 127
@24660 Channel: 2 Note on, E2 key =  40 ; velocity: 0
@24660 Channel: 2 Note on, E2 key =  40 ; velocity: 127
@24720 Channel: 2 Note on, E2 key =  40 ; velocity: 0
@24720 Channel: 2 Note on, G3 key =  55 ; velocity: 127
@24720 Channel: 2 Note on, C4 key =  60 ; velocity: 127
@24780 Channel: 2 Note on, G3 key =  55 ; velocity: 0
@24780 Channel: 2 Note on, C4 key =  60 ; velocity: 0
@24780 Channel: 2 Note on, D4 key =  62 ; velocity: 127
@24780 Channel: 2 Note on, A3 key =  57 ; velocity: 127
@24840 Channel: 2 Note on, D4 key =  62 ; velocity: 0
@24840 Channel: 2 Note on, A3 key =  57 ; velocity: 0
@24840 Channel: 2 Note on, G3 key =  55 ; velocity: 127
@24840 Channel: 2 Note on, C4 key =  60 ; velocity: 127
@24960 Channel: 2 Note on, G3 key =  55 ; velocity: 0
@24960 Channel: 2 Note on, C4 key =  60 ; velocity: 0
@24960 Channel: 2 Note on, D4 key =  62 ; velocity: 127
@25020 Channel: 2 Note on, D4 key =  62 ; velocity: 0
@25020 Channel: 2 Note on, C4 key =  60 ; velocity: 127
@25080 Channel: 2 Note on, C4 key =  60 ; velocity: 0
@25080 Channel: 2 Note on, A3 key =  57 ; velocity: 127
@25140 Channel: 2 Note on, A3 key =  57 ; velocity: 0
@25140 Channel: 2 Note on, G#3 key =  56 ; velocity: 127
@25200 Channel: 2 Note on, G#3 key =  56 ; velocity: 0
@25200 Channel: 2 Note on, G3 key =  55 ; velocity: 127
@25260 Channel: 2 Note on, G3 key =  55 ; velocity: 0
@25260 Channel: 2 Note on, E3 key =  52 ; velocity: 127
@25320 Channel: 2 Note on, E3 key =  52 ; velocity: 0
@25320 Channel: 2 Note on, D#3 key =  51 ; velocity: 127
@25380 Channel: 2 Note on, D#3 key =  51 ; velocity: 0
@25380 Channel: 2 Note on, D3 key =  50 ; velocity: 127
@25440 Channel: 2 Note on, D3 key =  50 ; velocity: 0
@25440 Channel: 2 Note on, C4 key =  60 ; velocity: 127
@25440 Channel: 2 Note on, G3 key =  55 ; velocity: 127
@25500 Channel: 2 Note on, C4 key =  60 ; velocity: 0
@25500 Channel: 2 Note on, G3 key =  55 ; velocity: 0
@25500 Channel: 2 Note on, E2 key =  40 ; velocity: 127
@25560 Channel: 2 Note on, E2 key =  40 ; velocity: 0
@25560 Channel: 2 Note on, E2 key =  40 ; velocity: 127
@25620 Channel: 2 Note on, E2 key =  40 ; velocity: 0
@25620 Channel: 2 Note on, E2 key =  40 ; velocity: 127
@25680 Channel: 2 Note on, E2 key =  40 ; velocity: 0
@25680 Channel: 2 Note on, G3 key =  55 ; velocity: 127
@25680 Channel: 2 Note on, C4 key =  60 ; velocity: 127
@25740 Channel: 2 Note on, G3 key =  55 ; velocity: 0
@25740 Channel: 2 Note on, C4 key =  60 ; velocity: 0
@25740 Channel: 2 Note on, D4 key =  62 ; velocity: 127
@25740 Channel: 2 Note on, A3 key =  57 ; velocity: 127
@25800 Channel: 2 Note on, D4 key =  62 ; velocity: 0
@25800 Channel: 2 Note on, A3 key =  57 ; velocity: 0
@25800 Channel: 2 Note on, G3 key =  55 ; velocity: 127
@25800 Channel: 2 Note on, C4 key =  60 ; velocity: 127
@25920 Channel: 2 Note on, G3 key =  55 ; velocity: 0
@25920 Channel: 2 Note on, C4 key =  60 ; velocity: 0
@25920 Channel: 2 Note on, C4 key =  60 ; velocity: 127
@25920 Channel: 2 Note on, G3 key =  55 ; velocity: 127
@25980 Channel: 2 Note on, C4 key =  60 ; velocity: 0
@25980 Channel: 2 Note on, G3 key =  55 ; velocity: 0
@25980 Channel: 2 Note on, E2 key =  40 ; velocity: 127
@26040 Channel: 2 Note on, E2 key =  40 ; velocity: 0
@26040 Channel: 2 Note on, E2 key =  40 ; velocity: 127
@26100 Channel: 2 Note on, E2 key =  40 ; velocity: 0
@26100 Channel: 2 Note on, E2 key =  40 ; velocity: 127
@26160 Channel: 2 Note on, E2 key =  40 ; velocity: 0
@26160 Channel: 2 Note on, G3 key =  55 ; velocity: 127
@26160 Channel: 2 Note on, C4 key =  60 ; velocity: 127
@26220 Channel: 2 Note on, G3 key =  55 ; velocity: 0
@26220 Channel: 2 Note on, C4 key =  60 ; velocity: 0
@26220 Channel: 2 Note on, D4 key =  62 ; velocity: 127
@26220 Channel: 2 Note on, A3 key =  57 ; velocity: 127
@26280 Channel: 2 Note on, D4 key =  62 ; velocity: 0
@26280 Channel: 2 Note on, A3 key =  57 ; velocity: 0
@26280 Channel: 2 Note on, G3 key =  55 ; velocity: 127
@26280 Channel: 2 Note on, C4 key =  60 ; velocity: 127
@26400 Channel: 2 Note on, G3 key =  55 ; velocity: 0
@26400 Channel: 2 Note on, C4 key =  60 ; velocity: 0
@26400 Channel: 2 Note on, C4 key =  60 ; velocity: 127
@26400 Channel: 2 Note on, G3 key =  55 ; velocity: 127
@26460 Channel: 2 Note on, C4 key =  60 ; velocity: 0
@26460 Channel: 2 Note on, G3 key =  55 ; velocity: 0
@26460 Channel: 2 Note on, E2 key =  40 ; velocity: 127
@26520 Channel: 2 Note on, E2 key =  40 ; velocity: 0
@26520 Channel: 2 Note on, E2 key =  40 ; velocity: 127
@26580 Channel: 2 Note on, E2 key =  40 ; velocity: 0
@26580 Channel: 2 Note on, E2 key =  40 ; velocity: 127
@26640 Channel: 2 Note on, E2 key =  40 ; velocity: 0
@26640 Channel: 2 Note on, G3 key =  55 ; velocity: 127
@26640 Channel: 2 Note on, C4 key =  60 ; velocity: 127
@26700 Channel: 2 Note on, G3 key =  55 ; velocity: 0
@26700 Channel: 2 Note on, C4 key =  60 ; velocity: 0
@26700 Channel: 2 Note on, D4 key =  62 ; velocity: 127
@26700 Channel: 2 Note on, A3 key =  57 ; velocity: 127
@26760 Channel: 2 Note on, D4 key =  62 ; velocity: 0
@26760 Channel: 2 Note on, A3 key =  57 ; velocity: 0
@26760 Channel: 2 Note on, G3 key =  55 ; velocity: 127
@26760 Channel: 2 Note on, C4 key =  60 ; velocity: 127
@26880 Channel: 2 Note on, G3 key =  55 ; velocity: 0
@26880 Channel: 2 Note on, C4 key =  60 ; velocity: 0
@26880 Channel: 2 Note on, E4 key =  64 ; velocity: 127
@26940 Channel: 2 Note on, E4 key =  64 ; velocity: 0
@26940 Channel: 2 Note on, D4 key =  62 ; velocity: 127
@27000 Channel: 2 Note on, D4 key =  62 ; velocity: 0
@27000 Channel: 2 Note on, B3 key =  59 ; velocity: 127
@27060 Channel: 2 Note on, B3 key =  59 ; velocity: 0
@27060 Channel: 2 Note on, D4 key =  62 ; velocity: 127
@27120 Channel: 2 Note on, D4 key =  62 ; velocity: 0
@27120 Channel: 2 Note on, B3 key =  59 ; velocity: 127
@27180 Channel: 2 Note on, B3 key =  59 ; velocity: 0
@27180 Channel: 2 Note on, A#3 key =  58 ; velocity: 127
@27240 Channel: 2 Note on, A#3 key =  58 ; velocity: 0
@27240 Channel: 2 Note on, A3 key =  57 ; velocity: 127
@27300 Channel: 2 Note on, A3 key =  57 ; velocity: 0
@27300 Channel: 2 Note on, G3 key =  55 ; velocity: 127
@27360 Channel: 2 Note on, G3 key =  55 ; velocity: 0
@27360 Channel: 2 Note on, E4 key =  64 ; velocity: 127
@27420 Channel: 2 Note on, E4 key =  64 ; velocity: 0
@27420 Channel: 2 Note on, D4 key =  62 ; velocity: 127
@27480 Channel: 2 Note on, D4 key =  62 ; velocity: 0
@27480 Channel: 2 Note on, B3 key =  59 ; velocity: 127
@27540 Channel: 2 Note on, B3 key =  59 ; velocity: 0
@27540 Channel: 2 Note on, D4 key =  62 ; velocity: 127
@27600 Channel: 2 Note on, D4 key =  62 ; velocity: 0
@27600 Channel: 2 Note on, B3 key =  59 ; velocity: 127
@27660 Channel: 2 Note on, B3 key =  59 ; velocity: 0
@27660 Channel: 2 Note on, A#3 key =  58 ; velocity: 127
@27720 Channel: 2 Note on, A#3 key =  58 ; velocity: 0
@27720 Channel: 2 Note on, A3 key =  57 ; velocity: 127
@27780 Channel: 2 Note on, A3 key =  57 ; velocity: 0
@27780 Channel: 2 Note on, G3 key =  55 ; velocity: 127
@27840 Channel: 2 Note on, G3 key =  55 ; velocity: 0
@27840 Channel: 2 Note on, D4 key =  62 ; velocity: 127
@27840 Channel: 2 Note on, G3 key =  55 ; velocity: 127
@28320 Channel: 2 Note on, D4 key =  62 ; velocity: 0
@28320 Channel: 2 Note on, G3 key =  55 ; velocity: 0
@28320 Channel: 2 Note on, C#4 key =  61 ; velocity: 127
@28320 Channel: 2 Note on, F#3 key =  54 ; velocity: 127
@28560 Channel: 2 Note on, C#4 key =  61 ; velocity: 0
@28560 Channel: 2 Note on, F#3 key =  54 ; velocity: 0
@28560 Channel: 2 Note on, C4 key =  60 ; velocity: 127
@28560 Channel: 2 Note on, F3 key =  53 ; velocity: 127
@28800 Channel: 2 Note on, C4 key =  60 ; velocity: 0
@28800 Channel: 2 Note on, F3 key =  53 ; velocity: 0
@28800 Channel: 2 Note on, E2 key =  40 ; velocity: 127
@28860 Channel: 2 Note on, E2 key =  40 ; velocity: 0
@28860 Channel: 2 Note on, E2 key =  40 ; velocity: 127
@28920 Channel: 2 Note on, E2 key =  40 ; velocity: 0
@28920 Channel: 2 Note on, E2 key =  40 ; velocity: 127
@28980 Channel: 2 Note on, E2 key =  40 ; velocity: 0
@28980 Channel: 2 Note on, E2 key =  40 ; velocity: 127
@29040 Channel: 2 Note on, E2 key =  40 ; velocity: 0
@29040 Channel: 2 Note on, E2 key =  40 ; velocity: 127
@29100 Channel: 2 Note on, E2 key =  40 ; velocity: 0
@29100 Channel: 2 Note on, E2 key =  40 ; velocity: 127
@29160 Channel: 2 Note on, E2 key =  40 ; velocity: 0
@29160 Channel: 2 Note on, E2 key =  40 ; velocity: 127
@29220 Channel: 2 Note on, E2 key =  40 ; velocity: 0
@29220 Channel: 2 Note on, E2 key =  40 ; velocity: 127
@29280 Channel: 2 Note on, E2 key =  40 ; velocity: 0
@29280 Channel: 2 Note on, E2 key =  40 ; velocity: 127
@29340 Channel: 2 Note on, E2 key =  40 ; velocity: 0
@29340 Channel: 2 Note on, E2 key =  40 ; velocity: 127
@29400 Channel: 2 Note on, E2 key =  40 ; velocity: 0
@29400 Channel: 2 Note on, E2 key =  40 ; velocity: 127
@29460 Channel: 2 Note on, E2 key =  40 ; velocity: 0
@29460 Channel: 2 Note on, E2 key =  40 ; velocity: 127
@29520 Channel: 2 Note on, E2 key =  40 ; velocity: 0
@29520 Channel: 2 Note on, E2 key =  40 ; velocity: 127
@29580 Channel: 2 Note on, E2 key =  40 ; velocity: 0
@29580 Channel: 2 Note on, E2 key =  40 ; velocity: 127
@29640 Channel: 2 Note on, E2 key =  40 ; velocity: 0
@29640 Channel: 2 Note on, E2 key =  40 ; velocity: 127
@29700 Channel: 2 Note on, E2 key =  40 ; velocity: 0
@29700 Channel: 2 Note on, E2 key =  40 ; velocity: 127
@29760 Channel: 2 Note on, E2 key =  40 ; velocity: 0
@29760 Channel: 2 Note on, D4 key =  62 ; velocity: 127
@29760 Channel: 2 Note on, G3 key =  55 ; velocity: 127
@30240 Channel: 2 Note on, D4 key =  62 ; velocity: 0
@30240 Channel: 2 Note on, G3 key =  55 ; velocity: 0
@30240 Channel: 2 Note on, C#4 key =  61 ; velocity: 127
@30240 Channel: 2 Note on, F#3 key =  54 ; velocity: 127
@30480 Channel: 2 Note on, C#4 key =  61 ; velocity: 0
@30480 Channel: 2 Note on, F#3 key =  54 ; velocity: 0
@30480 Channel: 2 Note on, C4 key =  60 ; velocity: 127
@30480 Channel: 2 Note on, F3 key =  53 ; velocity: 127
@30720 Channel: 2 Note on, C4 key =  60 ; velocity: 0
@30720 Channel: 2 Note on, F3 key =  53 ; velocity: 0
@30720 Channel: 2 Note on, E2 key =  40 ; velocity: 127
@30780 Channel: 2 Note on, E2 key =  40 ; velocity: 0
@30780 Channel: 2 Note on, E2 key =  40 ; velocity: 127
@30840 Channel: 2 Note on, E2 key =  40 ; velocity: 0
@30840 Channel: 2 Note on, E2 key =  40 ; velocity: 127
@30900 Channel: 2 Note on, E2 key =  40 ; velocity: 0
@30900 Channel: 2 Note on, E2 key =  40 ; velocity: 127
@30960 Channel: 2 Note on, E2 key =  40 ; velocity: 0
@30960 Channel: 2 Note on, E2 key =  40 ; velocity: 127
@31020 Channel: 2 Note on, E2 key =  40 ; velocity: 0
@31020 Channel: 2 Note on, E2 key =  40 ; velocity: 127
@31080 Channel: 2 Note on, E2 key =  40 ; velocity: 0
@31080 Channel: 2 Note on, E2 key =  40 ; velocity: 127
@31140 Channel: 2 Note on, E2 key =  40 ; velocity: 0
@31140 Channel: 2 Note on, E2 key =  40 ; velocity: 127
@31200 Channel: 2 Note on, E2 key =  40 ; velocity: 0
@31200 Channel: 2 Note on, E2 key =  40 ; velocity: 127
@31260 Channel: 2 Note on, E2 key =  40 ; velocity: 0
@31260 Channel: 2 Note on, E2 key =  40 ; velocity: 127
@31320 Channel: 2 Note on, E2 key =  40 ; velocity: 0
@31320 Channel: 2 Note on, E2 key =  40 ; velocity: 127
@31380 Channel: 2 Note on, E2 key =  40 ; velocity: 0
@31380 Channel: 2 Note on, E2 key =  40 ; velocity: 127
@31440 Channel: 2 Note on, E2 key =  40 ; velocity: 0
@31440 Channel: 2 Note on, E2 key =  40 ; velocity: 127
@31500 Channel: 2 Note on, E2 key =  40 ; velocity: 0
@31500 Channel: 2 Note on, E2 key =  40 ; velocity: 127
@31560 Channel: 2 Note on, E2 key =  40 ; velocity: 0
@31560 Channel: 2 Note on, E2 key =  40 ; velocity: 127
@31620 Channel: 2 Note on, E2 key =  40 ; velocity: 0
@31620 Channel: 2 Note on, E2 key =  40 ; velocity: 127
@31680 Channel: 2 Note on, E2 key =  40 ; velocity: 0
@31680 Channel: 2 Note on, D4 key =  62 ; velocity: 127
@31680 Channel: 2 Note on, G3 key =  55 ; velocity: 127
@32160 Channel: 2 Note on, D4 key =  62 ; velocity: 0
@32160 Channel: 2 Note on, G3 key =  55 ; velocity: 0
@32160 Channel: 2 Note on, C#4 key =  61 ; velocity: 127
@32160 Channel: 2 Note on, F#3 key =  54 ; velocity: 127
@32400 Channel: 2 Note on, C#4 key =  61 ; velocity: 0
@32400 Channel: 2 Note on, F#3 key =  54 ; velocity: 0
@32400 Channel: 2 Note on, C4 key =  60 ; velocity: 127
@32400 Channel: 2 Note on, F3 key =  53 ; velocity: 127
@32640 Channel: 2 Note on, C4 key =  60 ; velocity: 0
@32640 Channel: 2 Note on, F3 key =  53 ; velocity: 0
@32640 Channel: 2 Note on, E2 key =  40 ; velocity: 127
@32700 Channel: 2 Note on, E2 key =  40 ; velocity: 0
@32700 Channel: 2 Note on, E2 key =  40 ; velocity: 127
@32760 Channel: 2 Note on, E2 key =  40 ; velocity: 0
@32760 Channel: 2 Note on, E2 key =  40 ; velocity: 127
@32820 Channel: 2 Note on, E2 key =  40 ; velocity: 0
@32820 Channel: 2 Note on, E2 key =  40 ; velocity: 127
@32880 Channel: 2 Note on, E2 key =  40 ; velocity: 0
@32880 Channel: 2 Note on, E2 key =  40 ; velocity: 127
@32940 Channel: 2 Note on, E2 key =  40 ; velocity: 0
@32940 Channel: 2 Note on, E2 key =  40 ; velocity: 127
@33000 Channel: 2 Note on, E2 key =  40 ; velocity: 0
@33000 Channel: 2 Note on, E2 key =  40 ; velocity: 127
@33060 Channel: 2 Note on, E2 key =  40 ; velocity: 0
@33060 Channel: 2 Note on, E2 key =  40 ; velocity: 127
@33120 Channel: 2 Note on, E2 key =  40 ; velocity: 0
@33120 Channel: 2 Note on, E2 key =  40 ; velocity: 127
@33180 Channel: 2 Note on, E2 key =  40 ; velocity: 0
@33180 Channel: 2 Note on, E2 key =  40 ; velocity: 127
@33240 Channel: 2 Note on, E2 key =  40 ; velocity: 0
@33240 Channel: 2 Note on, E2 key =  40 ; velocity: 127
@33300 Channel: 2 Note on, E2 key =  40 ; velocity: 0
@33300 Channel: 2 Note on, E2 key =  40 ; velocity: 127
@33360 Channel: 2 Note on, E2 key =  40 ; velocity: 0
@33360 Channel: 2 Note on, E2 key =  40 ; velocity: 127
@33420 Channel: 2 Note on, E2 key =  40 ; velocity: 0
@33420 Channel: 2 Note on, E2 key =  40 ; velocity: 127
@33480 Channel: 2 Note on, E2 key =  40 ; velocity: 0
@33480 Channel: 2 Note on, E2 key =  40 ; velocity: 127
@33540 Channel: 2 Note on, E2 key =  40 ; velocity: 0
@33540 Channel: 2 Note on, E2 key =  40 ; velocity: 127
@33600 Channel: 2 Note on, E2 key =  40 ; velocity: 0
@33600 Channel: 2 Note on, D4 key =  62 ; velocity: 127
@33600 Channel: 2 Note on, G3 key =  55 ; velocity: 127
@34080 Channel: 2 Note on, D4 key =  62 ; velocity: 0
@34080 Channel: 2 Note on, G3 key =  55 ; velocity: 0
@34080 Channel: 2 Note on, C#4 key =  61 ; velocity: 127
@34080 Channel: 2 Note on, F#3 key =  54 ; velocity: 127
@34320 Channel: 2 Note on, C#4 key =  61 ; velocity: 0
@34320 Channel: 2 Note on, F#3 key =  54 ; velocity: 0
@34320 Channel: 2 Note on, C4 key =  60 ; velocity: 127
@34320 Channel: 2 Note on, F3 key =  53 ; velocity: 127
@34560 Channel: 2 Note on, C4 key =  60 ; velocity: 0
@34560 Channel: 2 Note on, F3 key =  53 ; velocity: 0
@34560 Channel: 2 Note on, E2 key =  40 ; velocity: 127
@34620 Channel: 2 Note on, E2 key =  40 ; velocity: 0
@34620 Channel: 2 Note on, E2 key =  40 ; velocity: 127
@34680 Channel: 2 Note on, E2 key =  40 ; velocity: 0
@34680 Channel: 2 Note on, E2 key =  40 ; velocity: 127
@34740 Channel: 2 Note on, E2 key =  40 ; velocity: 0
@34740 Channel: 2 Note on, E2 key =  40 ; velocity: 127
@34800 Channel: 2 Note on, E2 key =  40 ; velocity: 0
@34800 Channel: 2 Note on, G3 key =  55 ; velocity: 127
@34800 Channel: 2 Note on, D3 key =  50 ; velocity: 127
@34860 Channel: 2 Note on, G3 key =  55 ; velocity: 0
@34860 Channel: 2 Note on, D3 key =  50 ; velocity: 0
@34860 Channel: 2 Note on, E3 key =  52 ; velocity: 127
@34860 Channel: 2 Note on, A3 key =  57 ; velocity: 127
@34920 Channel: 2 Note on, E3 key =  52 ; velocity: 0
@34920 Channel: 2 Note on, A3 key =  57 ; velocity: 0
@34920 Channel: 2 Note on, D3 key =  50 ; velocity: 127
@34920 Channel: 2 Note on, G3 key =  55 ; velocity: 127
@34980 Channel: 2 Note on, D3 key =  50 ; velocity: 0
@34980 Channel: 2 Note on, G3 key =  55 ; velocity: 0
@34980 Channel: 2 Note on, A3 key =  57 ; velocity: 127
@34980 Channel: 2 Note on, E3 key =  52 ; velocity: 127
@35040 Channel: 2 Note on, A3 key =  57 ; velocity: 0
@35040 Channel: 2 Note on, E3 key =  52 ; velocity: 0
@35040 Channel: 2 Note on, E2 key =  40 ; velocity: 127
@35100 Channel: 2 Note on, E2 key =  40 ; velocity: 0
@35100 Channel: 2 Note on, E2 key =  40 ; velocity: 127
@35160 Channel: 2 Note on, E2 key =  40 ; velocity: 0
@35160 Channel: 2 Note on, E2 key =  40 ; velocity: 127
@35220 Channel: 2 Note on, E2 key =  40 ; velocity: 0
@35220 Channel: 2 Note on, E2 key =  40 ; velocity: 127
@35280 Channel: 2 Note on, E2 key =  40 ; velocity: 0
@35280 Channel: 2 Note on, E3 key =  52 ; velocity: 127
@35340 Channel: 2 Note on, E3 key =  52 ; velocity: 0
@35340 Channel: 2 Note on, D3 key =  50 ; velocity: 127
@35400 Channel: 2 Note on, D3 key =  50 ; velocity: 0
@35400 Channel: 2 Note on, B2 key =  47 ; velocity: 127
@35460 Channel: 2 Note on, B2 key =  47 ; velocity: 0
@35460 Channel: 2 Note on, A#2 key =  46 ; velocity: 127
@35520 Channel: 2 Note on, A#2 key =  46 ; velocity: 0
@35520 Channel: 2 Note on, E2 key =  40 ; velocity: 127
@35580 Channel: 2 Note on, E2 key =  40 ; velocity: 0
@35580 Channel: 2 Note on, E2 key =  40 ; velocity: 127
@35640 Channel: 2 Note on, E2 key =  40 ; velocity: 0
@35640 Channel: 2 Note on, E2 key =  40 ; velocity: 127
@35700 Channel: 2 Note on, E2 key =  40 ; velocity: 0
@35700 Channel: 2 Note on, E2 key =  40 ; velocity: 127
@35760 Channel: 2 Note on, E2 key =  40 ; velocity: 0
@35760 Channel: 2 Note on, G3 key =  55 ; velocity: 127
@35760 Channel: 2 Note on, D3 key =  50 ; velocity: 127
@35820 Channel: 2 Note on, G3 key =  55 ; velocity: 0
@35820 Channel: 2 Note on, D3 key =  50 ; velocity: 0
@35820 Channel: 2 Note on, E3 key =  52 ; velocity: 127
@35820 Channel: 2 Note on, A3 key =  57 ; velocity: 127
@35880 Channel: 2 Note on, E3 key =  52 ; velocity: 0
@35880 Channel: 2 Note on, A3 key =  57 ; velocity: 0
@35880 Channel: 2 Note on, D3 key =  50 ; velocity: 127
@35880 Channel: 2 Note on, G3 key =  55 ; velocity: 127
@35940 Channel: 2 Note on, D3 key =  50 ; velocity: 0
@35940 Channel: 2 Note on, G3 key =  55 ; velocity: 0
@35940 Channel: 2 Note on, A3 key =  57 ; velocity: 127
@35940 Channel: 2 Note on, E3 key =  52 ; velocity: 127
@36000 Channel: 2 Note on, A3 key =  57 ; velocity: 0
@36000 Channel: 2 Note on, E3 key =  52 ; velocity: 0
@36000 Channel: 2 Note on, E2 key =  40 ; velocity: 127
@36060 Channel: 2 Note on, E2 key =  40 ; velocity: 0
@36060 Channel: 2 Note on, E2 key =  40 ; velocity: 127
@36120 Channel: 2 Note on, E2 key =  40 ; velocity: 0
@36120 Channel: 2 Note on, E2 key =  40 ; velocity: 127
@36180 Channel: 2 Note on, E2 key =  40 ; velocity: 0
@36180 Channel: 2 Note on, E2 key =  40 ; velocity: 127
@36240 Channel: 2 Note on, E2 key =  40 ; velocity: 0
@36240 Channel: 2 Note on, E3 key =  52 ; velocity: 127
@36300 Channel: 2 Note on, E3 key =  52 ; velocity: 0
@36300 Channel: 2 Note on, D3 key =  50 ; velocity: 127
@36360 Channel: 2 Note on, D3 key =  50 ; velocity: 0
@36360 Channel: 2 Note on, B2 key =  47 ; velocity: 127
@36420 Channel: 2 Note on, B2 key =  47 ; velocity: 0
@36420 Channel: 2 Note on, A#2 key =  46 ; velocity: 127
@36480 Channel: 2 Note on, A#2 key =  46 ; velocity: 0
@36480 Channel: 2 Note on, E2 key =  40 ; velocity: 127
@36540 Channel: 2 Note on, E2 key =  40 ; velocity: 0
@36540 Channel: 2 Note on, E2 key =  40 ; velocity: 127
@36600 Channel: 2 Note on, E2 key =  40 ; velocity: 0
@36600 Channel: 2 Note on, E2 key =  40 ; velocity: 127
@36660 Channel: 2 Note on, E2 key =  40 ; velocity: 0
@36660 Channel: 2 Note on, E2 key =  40 ; velocity: 127
@36720 Channel: 2 Note on, E2 key =  40 ; velocity: 0
@36720 Channel: 2 Note on, G3 key =  55 ; velocity: 127
@36720 Channel: 2 Note on, D3 key =  50 ; velocity: 127
@36780 Channel: 2 Note on, G3 key =  55 ; velocity: 0
@36780 Channel: 2 Note on, D3 key =  50 ; velocity: 0
@36780 Channel: 2 Note on, E3 key =  52 ; velocity: 127
@36780 Channel: 2 Note on, A3 key =  57 ; velocity: 127
@36840 Channel: 2 Note on, E3 key =  52 ; velocity: 0
@36840 Channel: 2 Note on, A3 key =  57 ; velocity: 0
@36840 Channel: 2 Note on, D3 key =  50 ; velocity: 127
@36840 Channel: 2 Note on, G3 key =  55 ; velocity: 127
@36900 Channel: 2 Note on, D3 key =  50 ; velocity: 0
@36900 Channel: 2 Note on, G3 key =  55 ; velocity: 0
@36900 Channel: 2 Note on, A3 key =  57 ; velocity: 127
@36900 Channel: 2 Note on, E3 key =  52 ; velocity: 127
@36960 Channel: 2 Note on, A3 key =  57 ; velocity: 0
@36960 Channel: 2 Note on, E3 key =  52 ; velocity: 0
@36960 Channel: 2 Note on, E2 key =  40 ; velocity: 127
@37020 Channel: 2 Note on, E2 key =  40 ; velocity: 0
@37020 Channel: 2 Note on, E2 key =  40 ; velocity: 127
@37080 Channel: 2 Note on, E2 key =  40 ; velocity: 0
@37080 Channel: 2 Note on, E2 key =  40 ; velocity: 127
@37140 Channel: 2 Note on, E2 key =  40 ; velocity: 0
@37140 Channel: 2 Note on, E2 key =  40 ; velocity: 127
@37200 Channel: 2 Note on, E2 key =  40 ; velocity: 0
@37200 Channel: 2 Note on, E3 key =  52 ; velocity: 127
@37260 Channel: 2 Note on, E3 key =  52 ; velocity: 0
@37260 Channel: 2 Note on, D3 key =  50 ; velocity: 127
@37320 Channel: 2 Note on, D3 key =  50 ; velocity: 0
@37320 Channel: 2 Note on, B2 key =  47 ; velocity: 127
@37380 Channel: 2 Note on, B2 key =  47 ; velocity: 0
@37380 Channel: 2 Note on, A#2 key =  46 ; velocity: 127
@37440 Channel: 2 Note on, A#2 key =  46 ; velocity: 0
@37440 Channel: 2 Note on, E2 key =  40 ; velocity: 127
@37500 Channel: 2 Note on, E2 key =  40 ; velocity: 0
@37500 Channel: 2 Note on, E2 key =  40 ; velocity: 127
@37560 Channel: 2 Note on, E2 key =  40 ; velocity: 0
@37560 Channel: 2 Note on, E2 key =  40 ; velocity: 127
@37620 Channel: 2 Note on, E2 key =  40 ; velocity: 0
@37620 Channel: 2 Note on, E2 key =  40 ; velocity: 127
@37680 Channel: 2 Note on, E2 key =  40 ; velocity: 0
@37680 Channel: 2 Note on, G3 key =  55 ; velocity: 127
@37680 Channel: 2 Note on, D3 key =  50 ; velocity: 127
@37740 Channel: 2 Note on, G3 key =  55 ; velocity: 0
@37740 Channel: 2 Note on, D3 key =  50 ; velocity: 0
@37740 Channel: 2 Note on, E3 key =  52 ; velocity: 127
@37740 Channel: 2 Note on, A3 key =  57 ; velocity: 127
@37800 Channel: 2 Note on, E3 key =  52 ; velocity: 0
@37800 Channel: 2 Note on, A3 key =  57 ; velocity: 0
@37800 Channel: 2 Note on, D3 key =  50 ; velocity: 127
@37800 Channel: 2 Note on, G3 key =  55 ; velocity: 127
@37860 Channel: 2 Note on, D3 key =  50 ; velocity: 0
@37860 Channel: 2 Note on, G3 key =  55 ; velocity: 0
@37860 Channel: 2 Note on, A3 key =  57 ; velocity: 127
@37860 Channel: 2 Note on, E3 key =  52 ; velocity: 127
@37920 Channel: 2 Note on, A3 key =  57 ; velocity: 0
@37920 Channel: 2 Note on, E3 key =  52 ; velocity: 0
@37920 Channel: 2 Note on, E2 key =  40 ; velocity: 127
@37980 Channel: 2 Note on, E2 key =  40 ; velocity: 0
@37980 Channel: 2 Note on, E2 key =  40 ; velocity: 127
@38040 Channel: 2 Note on, E2 key =  40 ; velocity: 0
@38040 Channel: 2 Note on, E2 key =  40 ; velocity: 127
@38100 Channel: 2 Note on, E2 key =  40 ; velocity: 0
@38100 Channel: 2 Note on, E2 key =  40 ; velocity: 127
@38160 Channel: 2 Note on, E2 key =  40 ; velocity: 0
@38160 Channel: 2 Note on, E3 key =  52 ; velocity: 127
@38220 Channel: 2 Note on, E3 key =  52 ; velocity: 0
@38220 Channel: 2 Note on, D3 key =  50 ; velocity: 127
@38280 Channel: 2 Note on, D3 key =  50 ; velocity: 0
@38280 Channel: 2 Note on, B2 key =  47 ; velocity: 127
@38340 Channel: 2 Note on, B2 key =  47 ; velocity: 0
@38340 Channel: 2 Note on, A#2 key =  46 ; velocity: 127
@38400 Channel: 2 Note on, A#2 key =  46 ; velocity: 0
@38400 Channel: 2 Note on, E2 key =  40 ; velocity: 127
@38460 Channel: 2 Note on, E2 key =  40 ; velocity: 0
@38460 Channel: 2 Note on, E2 key =  40 ; velocity: 127
@38520 Channel: 2 Note on, E2 key =  40 ; velocity: 0
@38520 Channel: 2 Note on, E2 key =  40 ; velocity: 127
@38580 Channel: 2 Note on, E2 key =  40 ; velocity: 0
@38580 Channel: 2 Note on, E2 key =  40 ; velocity: 127
@38640 Channel: 2 Note on, E2 key =  40 ; velocity: 0
@38640 Channel: 2 Note on, E2 key =  40 ; velocity: 127
@38700 Channel: 2 Note on, E2 key =  40 ; velocity: 0
@38700 Channel: 2 Note on, E2 key =  40 ; velocity: 127
@38760 Channel: 2 Note on, E2 key =  40 ; velocity: 0
@38760 Channel: 2 Note on, E2 key =  40 ; velocity: 127
@38820 Channel: 2 Note on, E2 key =  40 ; velocity: 0
@38820 Channel: 2 Note on, E2 key =  40 ; velocity: 127
@38880 Channel: 2 Note on, E2 key =  40 ; velocity: 0
@38880 Channel: 2 Note on, E2 key =  40 ; velocity: 127
@38940 Channel: 2 Note on, E2 key =  40 ; velocity: 0
@38940 Channel: 2 Note on, E2 key =  40 ; velocity: 127
@39000 Channel: 2 Note on, E2 key =  40 ; velocity: 0
@39000 Channel: 2 Note on, E2 key =  40 ; velocity: 127
@39060 Channel: 2 Note on, E2 key =  40 ; velocity: 0
@39060 Channel: 2 Note on, E2 key =  40 ; velocity: 127
@39120 Channel: 2 Note on, E2 key =  40 ; velocity: 0
@39120 Channel: 2 Note on, B2 key =  47 ; velocity: 127
@39180 Channel: 2 Note on, B2 key =  47 ; velocity: 0
@39180 Channel: 2 Note on, A#2 key =  46 ; velocity: 127
@39240 Channel: 2 Note on, A#2 key =  46 ; velocity: 0
@39240 Channel: 2 Note on, G3 key =  55 ; velocity: 127
@39300 Channel: 2 Note on, G3 key =  55 ; velocity: 0
@39300 Channel: 2 Note on, E3 key =  52 ; velocity: 127
@39360 Channel: 2 Note on, E3 key =  52 ; velocity: 0
@39360 Channel: 2 Note on, E2 key =  40 ; velocity: 127
@39420 Channel: 2 Note on, E2 key =  40 ; velocity: 0
@39420 Channel: 2 Note on, E2 key =  40 ; velocity: 127
@39480 Channel: 2 Note on, E2 key =  40 ; velocity: 0
@39480 Channel: 2 Note on, E2 key =  40 ; velocity: 127
@39540 Channel: 2 Note on, E2 key =  40 ; velocity: 0
@39540 Channel: 2 Note on, E2 key =  40 ; velocity: 127
@39600 Channel: 2 Note on, E2 key =  40 ; velocity: 0
@39600 Channel: 2 Note on, E2 key =  40 ; velocity: 127
@39660 Channel: 2 Note on, E2 key =  40 ; velocity: 0
@39660 Channel: 2 Note on, E2 key =  40 ; velocity: 127
@39720 Channel: 2 Note on, E2 key =  40 ; velocity: 0
@39720 Channel: 2 Note on, E2 key =  40 ; velocity: 127
@39780 Channel: 2 Note on, E2 key =  40 ; velocity: 0
@39780 Channel: 2 Note on, E2 key =  40 ; velocity: 127
@39840 Channel: 2 Note on, E2 key =  40 ; velocity: 0
@39840 Channel: 2 Note on, E2 key =  40 ; velocity: 127
@39900 Channel: 2 Note on, E2 key =  40 ; velocity: 0
@39900 Channel: 2 Note on, E2 key =  40 ; velocity: 127
@39960 Channel: 2 Note on, E2 key =  40 ; velocity: 0
@39960 Channel: 2 Note on, E2 key =  40 ; velocity: 127
@40020 Channel: 2 Note on, E2 key =  40 ; velocity: 0
@40020 Channel: 2 Note on, E2 key =  40 ; velocity: 127
@40080 Channel: 2 Note on, E2 key =  40 ; velocity: 0
@40080 Channel: 2 Note on, B2 key =  47 ; velocity: 127
@40140 Channel: 2 Note on, B2 key =  47 ; velocity: 0
@40140 Channel: 2 Note on, A#2 key =  46 ; velocity: 127
@40200 Channel: 2 Note on, A#2 key =  46 ; velocity: 0
@40200 Channel: 2 Note on, G3 key =  55 ; velocity: 127
@40260 Channel: 2 Note on, G3 key =  55 ; velocity: 0
@40260 Channel: 2 Note on, E3 key =  52 ; velocity: 127
@40320 Channel: 2 Note on, E3 key =  52 ; velocity: 0
@40320 Channel: 2 Note on, E2 key =  40 ; velocity: 127
@40380 Channel: 2 Note on, E2 key =  40 ; velocity: 0
@40380 Channel: 2 Note on, E2 key =  40 ; velocity: 127
@40440 Channel: 2 Note on, E2 key =  40 ; velocity: 0
@40440 Channel: 2 Note on, E2 key =  40 ; velocity: 127
@40500 Channel: 2 Note on, E2 key =  40 ; velocity: 0
@40500 Channel: 2 Note on, E2 key =  40 ; velocity: 127
@40560 Channel: 2 Note on, E2 key =  40 ; velocity: 0
@40560 Channel: 2 Note on, E2 key =  40 ; velocity: 127
@40620 Channel: 2 Note on, E2 key =  40 ; velocity: 0
@40620 Channel: 2 Note on, E2 key =  40 ; velocity: 127
@40680 Channel: 2 Note on, E2 key =  40 ; velocity: 0
@40680 Channel: 2 Note on, E2 key =  40 ; velocity: 127
@40740 Channel: 2 Note on, E2 key =  40 ; velocity: 0
@40740 Channel: 2 Note on, E2 key =  40 ; velocity: 127
@40800 Channel: 2 Note on, E2 key =  40 ; velocity: 0
@40800 Channel: 2 Note on, E2 key =  40 ; velocity: 127
@40860 Channel: 2 Note on, E2 key =  40 ; velocity: 0
@40860 Channel: 2 Note on, E2 key =  40 ; velocity: 127
@40920 Channel: 2 Note on, E2 key =  40 ; velocity: 0
@40920 Channel: 2 Note on, E2 key =  40 ; velocity: 127
@40980 Channel: 2 Note on, E2 key =  40 ; velocity: 0
@40980 Channel: 2 Note on, E2 key =  40 ; velocity: 127
@41040 Channel: 2 Note on, E2 key =  40 ; velocity: 0
@41040 Channel: 2 Note on, B2 key =  47 ; velocity: 127
@41100 Channel: 2 Note on, B2 key =  47 ; velocity: 0
@41100 Channel: 2 Note on, A#2 key =  46 ; velocity: 127
@41160 Channel: 2 Note on, A#2 key =  46 ; velocity: 0
@41160 Channel: 2 Note on, G3 key =  55 ; velocity: 127
@41220 Channel: 2 Note on, G3 key =  55 ; velocity: 0
@41220 Channel: 2 Note on, E3 key =  52 ; velocity: 127
@41280 Channel: 2 Note on, E3 key =  52 ; velocity: 0
@41280 Channel: 2 Note on, E2 key =  40 ; velocity: 127
@41340 Channel: 2 Note on, E2 key =  40 ; velocity: 0
@41340 Channel: 2 Note on, E2 key =  40 ; velocity: 127
@41400 Channel: 2 Note on, E2 key =  40 ; velocity: 0
@41400 Channel: 2 Note on, E2 key =  40 ; velocity: 127
@41460 Channel: 2 Note on, E2 key =  40 ; velocity: 0
@41460 Channel: 2 Note on, E2 key =  40 ; velocity: 127
@41520 Channel: 2 Note on, E2 key =  40 ; velocity: 0
@41520 Channel: 2 Note on, E2 key =  40 ; velocity: 127
@41580 Channel: 2 Note on, E2 key =  40 ; velocity: 0
@41580 Channel: 2 Note on, E2 key =  40 ; velocity: 127
@41640 Channel: 2 Note on, E2 key =  40 ; velocity: 0
@41640 Channel: 2 Note on, E2 key =  40 ; velocity: 127
@41700 Channel: 2 Note on, E2 key =  40 ; velocity: 0
@41700 Channel: 2 Note on, E2 key =  40 ; velocity: 127
@41760 Channel: 2 Note on, E2 key =  40 ; velocity: 0
@41760 Channel: 2 Note on, E2 key =  40 ; velocity: 127
@41820 Channel: 2 Note on, E2 key =  40 ; velocity: 0
@41820 Channel: 2 Note on, E2 key =  40 ; velocity: 127
@41880 Channel: 2 Note on, E2 key =  40 ; velocity: 0
@41880 Channel: 2 Note on, E2 key =  40 ; velocity: 127
@41940 Channel: 2 Note on, E2 key =  40 ; velocity: 0
@41940 Channel: 2 Note on, E2 key =  40 ; velocity: 127
@42000 Channel: 2 Note on, E2 key =  40 ; velocity: 0
@42000 Channel: 2 Note on, B2 key =  47 ; velocity: 127
@42060 Channel: 2 Note on, B2 key =  47 ; velocity: 0
@42060 Channel: 2 Note on, A#2 key =  46 ; velocity: 127
@42120 Channel: 2 Note on, A#2 key =  46 ; velocity: 0
@42120 Channel: 2 Note on, G3 key =  55 ; velocity: 127
@42180 Channel: 2 Note on, G3 key =  55 ; velocity: 0
@42180 Channel: 2 Note on, E3 key =  52 ; velocity: 127
@42240 Channel: 2 Note on, E3 key =  52 ; velocity: 0
@42240 Channel: 2 Note on, C4 key =  60 ; velocity: 127
@42240 Channel: 2 Note on, G3 key =  55 ; velocity: 127
@42300 Channel: 2 Note on, C4 key =  60 ; velocity: 0
@42300 Channel: 2 Note on, G3 key =  55 ; velocity: 0
@42300 Channel: 2 Note on, E2 key =  40 ; velocity: 127
@42360 Channel: 2 Note on, E2 key =  40 ; velocity: 0
@42360 Channel: 2 Note on, E2 key =  40 ; velocity: 127
@42420 Channel: 2 Note on, E2 key =  40 ; velocity: 0
@42420 Channel: 2 Note on, E2 key =  40 ; velocity: 127
@42480 Channel: 2 Note on, E2 key =  40 ; velocity: 0
@42480 Channel: 2 Note on, G3 key =  55 ; velocity: 127
@42480 Channel: 2 Note on, C4 key =  60 ; velocity: 127
@42540 Channel: 2 Note on, G3 key =  55 ; velocity: 0
@42540 Channel: 2 Note on, C4 key =  60 ; velocity: 0
@42540 Channel: 2 Note on, D4 key =  62 ; velocity: 127
@42540 Channel: 2 Note on, A3 key =  57 ; velocity: 127
@42600 Channel: 2 Note on, D4 key =  62 ; velocity: 0
@42600 Channel: 2 Note on, A3 key =  57 ; velocity: 0
@42600 Channel: 2 Note on, G3 key =  55 ; velocity: 127
@42600 Channel: 2 Note on, C4 key =  60 ; velocity: 127
@42720 Channel: 2 Note on, G3 key =  55 ; velocity: 0
@42720 Channel: 2 Note on, C4 key =  60 ; velocity: 0
@42720 Channel: 2 Note on, C4 key =  60 ; velocity: 127
@42720 Channel: 2 Note on, G3 key =  55 ; velocity: 127
@42780 Channel: 2 Note on, C4 key =  60 ; velocity: 0
@42780 Channel: 2 Note on, G3 key =  55 ; velocity: 0
@42780 Channel: 2 Note on, E2 key =  40 ; velocity: 127
@42840 Channel: 2 Note on, E2 key =  40 ; velocity: 0
@42840 Channel: 2 Note on, E2 key =  40 ; velocity: 127
@42900 Channel: 2 Note on, E2 key =  40 ; velocity: 0
@42900 Channel: 2 Note on, E2 key =  40 ; velocity: 127
@42960 Channel: 2 Note on, E2 key =  40 ; velocity: 0
@42960 Channel: 2 Note on, G3 key =  55 ; velocity: 127
@42960 Channel: 2 Note on, C4 key =  60 ; velocity: 127
@43020 Channel: 2 Note on, G3 key =  55 ; velocity: 0
@43020 Channel: 2 Note on, C4 key =  60 ; velocity: 0
@43020 Channel: 2 Note on, D4 key =  62 ; velocity: 127
@43020 Channel: 2 Note on, A3 key =  57 ; velocity: 127
@43080 Channel: 2 Note on, D4 key =  62 ; velocity: 0
@43080 Channel: 2 Note on, A3 key =  57 ; velocity: 0
@43080 Channel: 2 Note on, G3 key =  55 ; velocity: 127
@43080 Channel: 2 Note on, C4 key =  60 ; velocity: 127
@43200 Channel: 2 Note on, G3 key =  55 ; velocity: 0
@43200 Channel: 2 Note on, C4 key =  60 ; velocity: 0
@43200 Channel: 2 Note on, C4 key =  60 ; velocity: 127
@43200 Channel: 2 Note on, G3 key =  55 ; velocity: 127
@43260 Channel: 2 Note on, C4 key =  60 ; velocity: 0
@43260 Channel: 2 Note on, G3 key =  55 ; velocity: 0
@43260 Channel: 2 Note on, E2 key =  40 ; velocity: 127
@43320 Channel: 2 Note on, E2 key =  40 ; velocity: 0
@43320 Channel: 2 Note on, E2 key =  40 ; velocity: 127
@43380 Channel: 2 Note on, E2 key =  40 ; velocity: 0
@43380 Channel: 2 Note on, E2 key =  40 ; velocity: 127
@43440 Channel: 2 Note on, E2 key =  40 ; velocity: 0
@43440 Channel: 2 Note on, G3 key =  55 ; velocity: 127
@43440 Channel: 2 Note on, C4 key =  60 ; velocity: 127
@43500 Channel: 2 Note on, G3 key =  55 ; velocity: 0
@43500 Channel: 2 Note on, C4 key =  60 ; velocity: 0
@43500 Channel: 2 Note on, D4 key =  62 ; velocity: 127
@43500 Channel: 2 Note on, A3 key =  57 ; velocity: 127
@43560 Channel: 2 Note on, D4 key =  62 ; velocity: 0
@43560 Channel: 2 Note on, A3 key =  57 ; velocity: 0
@43560 Channel: 2 Note on, G3 key =  55 ; velocity: 127
@43560 Channel: 2 Note on, C4 key =  60 ; velocity: 127
@43680 Channel: 2 Note on, G3 key =  55 ; velocity: 0
@43680 Channel: 2 Note on, C4 key =  60 ; velocity: 0
@43680 Channel: 2 Note on, D4 key =  62 ; velocity: 127
@43740 Channel: 2 Note on, D4 key =  62 ; velocity: 0
@43740 Channel: 2 Note on, C4 key =  60 ; velocity: 127
@43800 Channel: 2 Note on, C4 key =  60 ; velocity: 0
@43800 Channel: 2 Note on, A3 key =  57 ; velocity: 127
@43860 Channel: 2 Note on, A3 key =  57 ; velocity: 0
@43860 Channel: 2 Note on, G#3 key =  56 ; velocity: 127
@43920 Channel: 2 Note on, G#3 key =  56 ; velocity: 0
@43920 Channel: 2 Note on, G3 key =  55 ; velocity: 127
@43980 Channel: 2 Note on, G3 key =  55 ; velocity: 0
@43980 Channel: 2 Note on, E3 key =  52 ; velocity: 127
@44040 Channel: 2 Note on, E3 key =  52 ; velocity: 0
@44040 Channel: 2 Note on, D#3 key =  51 ; velocity: 127
@44100 Channel: 2 Note on, D#3 key =  51 ; velocity: 0
@44100 Channel: 2 Note on, D3 key =  50 ; velocity: 127
@44160 Channel: 2 Note on, D3 key =  50 ; velocity: 0
@44160 Channel: 2 Note on, C4 key =  60 ; velocity: 127
@44160 Channel: 2 Note on, G3 key =  55 ; velocity: 127
@44220 Channel: 2 Note on, C4 key =  60 ; velocity: 0
@44220 Channel: 2 Note on, G3 key =  55 ; velocity: 0
@44220 Channel: 2 Note on, E2 key =  40 ; velocity: 127
@44280 Channel: 2 Note on, E2 key =  40 ; velocity: 0
@44280 Channel: 2 Note on, E2 key =  40 ; velocity: 127
@44340 Channel: 2 Note on, E2 key =  40 ; velocity: 0
@44340 Channel: 2 Note on, E2 key =  40 ; velocity: 127
@44400 Channel: 2 Note on, E2 key =  40 ; velocity: 0
@44400 Channel: 2 Note on, G3 key =  55 ; velocity: 127
@44400 Channel: 2 Note on, C4 key =  60 ; velocity: 127
@44460 Channel: 2 Note on, G3 key =  55 ; velocity: 0
@44460 Channel: 2 Note on, C4 key =  60 ; velocity: 0
@44460 Channel: 2 Note on, D4 key =  62 ; velocity: 127
@44460 Channel: 2 Note on, A3 key =  57 ; velocity: 127
@44520 Channel: 2 Note on, D4 key =  62 ; velocity: 0
@44520 Channel: 2 Note on, A3 key =  57 ; velocity: 0
@44520 Channel: 2 Note on, G3 key =  55 ; velocity: 127
@44520 Channel: 2 Note on, C4 key =  60 ; velocity: 127
@44640 Channel: 2 Note on, G3 key =  55 ; velocity: 0
@44640 Channel: 2 Note on, C4 key =  60 ; velocity: 0
@44640 Channel: 2 Note on, C4 key =  60 ; velocity: 127
@44640 Channel: 2 Note on, G3 key =  55 ; velocity: 127
@44700 Channel: 2 Note on, C4 key =  60 ; velocity: 0
@44700 Channel: 2 Note on, G3 key =  55 ; velocity: 0
@44700 Channel: 2 Note on, E2 key =  40 ; velocity: 127
@44760 Channel: 2 Note on, E2 key =  40 ; velocity: 0
@44760 Channel: 2 Note on, E2 key =  40 ; velocity: 127
@44820 Channel: 2 Note on, E2 key =  40 ; velocity: 0
@44820 Channel: 2 Note on, E2 key =  40 ; velocity: 127
@44880 Channel: 2 Note on, E2 key =  40 ; velocity: 0
@44880 Channel: 2 Note on, G3 key =  55 ; velocity: 127
@44880 Channel: 2 Note on, C4 key =  60 ; velocity: 127
@44940 Channel: 2 Note on, G3 key =  55 ; velocity: 0
@44940 Channel: 2 Note on, C4 key =  60 ; velocity: 0
@44940 Channel: 2 Note on, D4 key =  62 ; velocity: 127
@44940 Channel: 2 Note on, A3 key =  57 ; velocity: 127
@45000 Channel: 2 Note on, D4 key =  62 ; velocity: 0
@45000 Channel: 2 Note on, A3 key =  57 ; velocity: 0
@45000 Channel: 2 Note on, G3 key =  55 ; velocity: 127
@45000 Channel: 2 Note on, C4 key =  60 ; velocity: 127
@45120 Channel: 2 Note on, G3 key =  55 ; velocity: 0
@45120 Channel: 2 Note on, C4 key =  60 ; velocity: 0
@45120 Channel: 2 Note on, C4 key =  60 ; velocity: 127
@45120 Channel: 2 Note on, G3 key =  55 ; velocity: 127
@45180 Channel: 2 Note on, C4 key =  60 ; velocity: 0
@45180 Channel: 2 Note on, G3 key =  55 ; velocity: 0
@45180 Channel: 2 Note on, E2 key =  40 ; velocity: 127
@45240 Channel: 2 Note on, E2 key =  40 ; velocity: 0
@45240 Channel: 2 Note on, E2 key =  40 ; velocity: 127
@45300 Channel: 2 Note on, E2 key =  40 ; velocity: 0
@45300 Channel: 2 Note on, E2 key =  40 ; velocity: 127
@45360 Channel: 2 Note on, E2 key =  40 ; velocity: 0
@45360 Channel: 2 Note on, G3 key =  55 ; velocity: 127
@45360 Channel: 2 Note on, C4 key =  60 ; velocity: 127
@45420 Channel: 2 Note on, G3 key =  55 ; velocity: 0
@45420 Channel: 2 Note on, C4 key =  60 ; velocity: 0
@45420 Channel: 2 Note on, D4 key =  62 ; velocity: 127
@45420 Channel: 2 Note on, A3 key =  57 ; velocity: 127
@45480 Channel: 2 Note on, D4 key =  62 ; velocity: 0
@45480 Channel: 2 Note on, A3 key =  57 ; velocity: 0
@45480 Channel: 2 Note on, G3 key =  55 ; velocity: 127
@45480 Channel: 2 Note on, C4 key =  60 ; velocity: 127
@45600 Channel: 2 Note on, G3 key =  55 ; velocity: 0
@45600 Channel: 2 Note on, C4 key =  60 ; velocity: 0
@45600 Channel: 2 Note on, E4 key =  64 ; velocity: 127
@45660 Channel: 2 Note on, E4 key =  64 ; velocity: 0
@45660 Channel: 2 Note on, D4 key =  62 ; velocity: 127
@45720 Channel: 2 Note on, D4 key =  62 ; velocity: 0
@45720 Channel: 2 Note on, B3 key =  59 ; velocity: 127
@45780 Channel: 2 Note on, B3 key =  59 ; velocity: 0
@45780 Channel: 2 Note on, D4 key =  62 ; velocity: 127
@45840 Channel: 2 Note on, D4 key =  62 ; velocity: 0
@45840 Channel: 2 Note on, B3 key =  59 ; velocity: 127
@45900 Channel: 2 Note on, B3 key =  59 ; velocity: 0
@45900 Channel: 2 Note on, A#3 key =  58 ; velocity: 127
@45960 Channel: 2 Note on, A#3 key =  58 ; velocity: 0
@45960 Channel: 2 Note on, A3 key =  57 ; velocity: 127
@46020 Channel: 2 Note on, A3 key =  57 ; velocity: 0
@46020 Channel: 2 Note on, G3 key =  55 ; velocity: 127
@46080 Channel: 2 Note on, G3 key =  55 ; velocity: 0
@46080 Channel: 2 Note on, E4 key =  64 ; velocity: 127
@46140 Channel: 2 Note on, E4 key =  64 ; velocity: 0
@46140 Channel: 2 Note on, D4 key =  62 ; velocity: 127
@46200 Channel: 2 Note on, D4 key =  62 ; velocity: 0
@46200 Channel: 2 Note on, B3 key =  59 ; velocity: 127
@46260 Channel: 2 Note on, B3 key =  59 ; velocity: 0
@46260 Channel: 2 Note on, D4 key =  62 ; velocity: 127
@46320 Channel: 2 Note on, D4 key =  62 ; velocity: 0
@46320 Channel: 2 Note on, B3 key =  59 ; velocity: 127
@46380 Channel: 2 Note on, B3 key =  59 ; velocity: 0
@46380 Channel: 2 Note on, A#3 key =  58 ; velocity: 127
@46440 Channel: 2 Note on, A#3 key =  58 ; velocity: 0
@46440 Channel: 2 Note on, A3 key =  57 ; velocity: 127
@46500 Channel: 2 Note on, A3 key =  57 ; velocity: 0
@46500 Channel: 2 Note on, G3 key =  55 ; velocity: 127
@46560 Channel: 2 Note on, G3 key =  55 ; velocity: 0
@46560 Channel: 2 Note on, D4 key =  62 ; velocity: 127
@46560 Channel: 2 Note on, G3 key =  55 ; velocity: 127
@47040 Channel: 2 Note on, D4 key =  62 ; velocity: 0
@47040 Channel: 2 Note on, G3 key =  55 ; velocity: 0
@47040 Channel: 2 Note on, C#4 key =  61 ; velocity: 127
@47040 Channel: 2 Note on, F#3 key =  54 ; velocity: 127
@47280 Channel: 2 Note on, C#4 key =  61 ; velocity: 0
@47280 Channel: 2 Note on, F#3 key =  54 ; velocity: 0
@47280 Channel: 2 Note on, C4 key =  60 ; velocity: 127
@47280 Channel: 2 Note on, F3 key =  53 ; velocity: 127
@47520 Channel: 2 Note on, C4 key =  60 ; velocity: 0
@47520 Channel: 2 Note on, F3 key =  53 ; velocity: 0
@47520 Channel: 2 Note on, E2 key =  40 ; velocity: 127
@47580 Channel: 2 Note on, E2 key =  40 ; velocity: 0
@47580 Channel: 2 Note on, E2 key =  40 ; velocity: 127
@47640 Channel: 2 Note on, E2 key =  40 ; velocity: 0
@47640 Channel: 2 Note on, E2 key =  40 ; velocity: 127
@47700 Channel: 2 Note on, E2 key =  40 ; velocity: 0
@47700 Channel: 2 Note on, E2 key =  40 ; velocity: 127
@47760 Channel: 2 Note on, E2 key =  40 ; velocity: 0
@47760 Channel: 2 Note on, E2 key =  40 ; velocity: 127
@47820 Channel: 2 Note on, E2 key =  40 ; velocity: 0
@47820 Channel: 2 Note on, E2 key =  40 ; velocity: 127
@47880 Channel: 2 Note on, E2 key =  40 ; velocity: 0
@47880 Channel: 2 Note on, E2 key =  40 ; velocity: 127
@47940 Channel: 2 Note on, E2 key =  40 ; velocity: 0
@47940 Channel: 2 Note on, E2 key =  40 ; velocity: 127
@48000 Channel: 2 Note on, E2 key =  40 ; velocity: 0
@48000 Channel: 2 Note on, E2 key =  40 ; velocity: 127
@48060 Channel: 2 Note on, E2 key =  40 ; velocity: 0
@48060 Channel: 2 Note on, E2 key =  40 ; velocity: 127
@48120 Channel: 2 Note on, E2 key =  40 ; velocity: 0
@48120 Channel: 2 Note on, E2 key =  40 ; velocity: 127
@48180 Channel: 2 Note on, E2 key =  40 ; velocity: 0
@48180 Channel: 2 Note on, E2 key =  40 ; velocity: 127
@48240 Channel: 2 Note on, E2 key =  40 ; velocity: 0
@48240 Channel: 2 Note on, E2 key =  40 ; velocity: 127
@48300 Channel: 2 Note on, E2 key =  40 ; velocity: 0
@48300 Channel: 2 Note on, E2 key =  40 ; velocity: 127
@48360 Channel: 2 Note on, E2 key =  40 ; velocity: 0
@48360 Channel: 2 Note on, E2 key =  40 ; velocity: 127
@48420 Channel: 2 Note on, E2 key =  40 ; velocity: 0
@48420 Channel: 2 Note on, E2 key =  40 ; velocity: 127
@48480 Channel: 2 Note on, E2 key =  40 ; velocity: 0
@48480 Channel: 2 Note on, D4 key =  62 ; velocity: 127
@48480 Channel: 2 Note on, G3 key =  55 ; velocity: 127
@48960 Channel: 2 Note on, D4 key =  62 ; velocity: 0
@48960 Channel: 2 Note on, G3 key =  55 ; velocity: 0
@48960 Channel: 2 Note on, C#4 key =  61 ; velocity: 127
@48960 Channel: 2 Note on, F#3 key =  54 ; velocity: 127
@49200 Channel: 2 Note on, C#4 key =  61 ; velocity: 0
@49200 Channel: 2 Note on, F#3 key =  54 ; velocity: 0
@49200 Channel: 2 Note on, C4 key =  60 ; velocity: 127
@49200 Channel: 2 Note on, F3 key =  53 ; velocity: 127
@49440 Channel: 2 Note on, C4 key =  60 ; velocity: 0
@49440 Channel: 2 Note on, F3 key =  53 ; velocity: 0
@49440 Channel: 2 Note on, E2 key =  40 ; velocity: 127
@49500 Channel: 2 Note on, E2 key =  40 ; velocity: 0
@49500 Channel: 2 Note on, E2 key =  40 ; velocity: 127
@49560 Channel: 2 Note on, E2 key =  40 ; velocity: 0
@49560 Channel: 2 Note on, E2 key =  40 ; velocity: 127
@49620 Channel: 2 Note on, E2 key =  40 ; velocity: 0
@49620 Channel: 2 Note on, E2 key =  40 ; velocity: 127
@49680 Channel: 2 Note on, E2 key =  40 ; velocity: 0
@49680 Channel: 2 Note on, E2 key =  40 ; velocity: 127
@49740 Channel: 2 Note on, E2 key =  40 ; velocity: 0
@49740 Channel: 2 Note on, E2 key =  40 ; velocity: 127
@49800 Channel: 2 Note on, E2 key =  40 ; velocity: 0
@49800 Channel: 2 Note on, E2 key =  40 ; velocity: 127
@49860 Channel: 2 Note on, E2 key =  40 ; velocity: 0
@49860 Channel: 2 Note on, E2 key =  40 ; velocity: 127
@49920 Channel: 2 Note on, E2 key =  40 ; velocity: 0
@49920 Channel: 2 Note on, E2 key =  40 ; velocity: 127
@49980 Channel: 2 Note on, E2 key =  40 ; velocity: 0
@49980 Channel: 2 Note on, E2 key =  40 ; velocity: 127
@50040 Channel: 2 Note on, E2 key =  40 ; velocity: 0
@50040 Channel: 2 Note on, E2 key =  40 ; velocity: 127
@50100 Channel: 2 Note on, E2 key =  40 ; velocity: 0
@50100 Channel: 2 Note on, E2 key =  40 ; velocity: 127
@50160 Channel: 2 Note on, E2 key =  40 ; velocity: 0
@50160 Channel: 2 Note on, E2 key =  40 ; velocity: 127
@50220 Channel: 2 Note on, E2 key =  40 ; velocity: 0
@50220 Channel: 2 Note on, E2 key =  40 ; velocity: 127
@50280 Channel: 2 Note on, E2 key =  40 ; velocity: 0
@50280 Channel: 2 Note on, E2 key =  40 ; velocity: 127
@50340 Channel: 2 Note on, E2 key =  40 ; velocity: 0
@50340 Channel: 2 Note on, E2 key =  40 ; velocity: 127
@50400 Channel: 2 Note on, E2 key =  40 ; velocity: 0
@50400 Channel: 2 Note on, D4 key =  62 ; velocity: 127
@50400 Channel: 2 Note on, G3 key =  55 ; velocity: 127
@50880 Channel: 2 Note on, D4 key =  62 ; velocity: 0
@50880 Channel: 2 Note on, G3 key =  55 ; velocity: 0
@50880 Channel: 2 Note on, C#4 key =  61 ; velocity: 127
@50880 Channel: 2 Note on, F#3 key =  54 ; velocity: 127
@51120 Channel: 2 Note on, C#4 key =  61 ; velocity: 0
@51120 Channel: 2 Note on, F#3 key =  54 ; velocity: 0
@51120 Channel: 2 Note on, C4 key =  60 ; velocity: 127
@51120 Channel: 2 Note on, F3 key =  53 ; velocity: 127
@51360 Channel: 2 Note on, C4 key =  60 ; velocity: 0
@51360 Channel: 2 Note on, F3 key =  53 ; velocity: 0
@51360 Channel: 2 Note on, E2 key =  40 ; velocity: 127
@51420 Channel: 2 Note on, E2 key =  40 ; velocity: 0
@51420 Channel: 2 Note on, E2 key =  40 ; velocity: 127
@51480 Channel: 2 Note on, E2 key =  40 ; velocity: 0
@51480 Channel: 2 Note on, E2 key =  40 ; velocity: 127
@51540 Channel: 2 Note on, E2 key =  40 ; velocity: 0
@51540 Channel: 2 Note on, E2 key =  40 ; velocity: 127
@51600 Channel: 2 Note on, E2 key =  40 ; velocity: 0
@51600 Channel: 2 Note on, E2 key =  40 ; velocity: 127
@51660 Channel: 2 Note on, E2 key =  40 ; velocity: 0
@51660 Channel: 2 Note on, E2 key =  40 ; velocity: 127
@51720 Channel: 2 Note on, E2 key =  40 ; velocity: 0
@51720 Channel: 2 Note on, E2 key =  40 ; velocity: 127
@51780 Channel: 2 Note on, E2 key =  40 ; velocity: 0
@51780 Channel: 2 Note on, E2 key =  40 ; velocity: 127
@51840 Channel: 2 Note on, E2 key =  40 ; velocity: 0
@51840 Channel: 2 Note on, E2 key =  40 ; velocity: 127
@51900 Channel: 2 Note on, E2 key =  40 ; velocity: 0
@51900 Channel: 2 Note on, E2 key =  40 ; velocity: 127
@51960 Channel: 2 Note on, E2 key =  40 ; velocity: 0
@51960 Channel: 2 Note on, E2 key =  40 ; velocity: 127
@52020 Channel: 2 Note on, E2 key =  40 ; velocity: 0
@52020 Channel: 2 Note on, E2 key =  40 ; velocity: 127
@52080 Channel: 2 Note on, E2 key =  40 ; velocity: 0
@52080 Channel: 2 Note on, E2 key =  40 ; velocity: 127
@52140 Channel: 2 Note on, E2 key =  40 ; velocity: 0
@52140 Channel: 2 Note on, E2 key =  40 ; velocity: 127
@52200 Channel: 2 Note on, E2 key =  40 ; velocity: 0
@52200 Channel: 2 Note on, E2 key =  40 ; velocity: 127
@52260 Channel: 2 Note on, E2 key =  40 ; velocity: 0
@52260 Channel: 2 Note on, E2 key =  40 ; velocity: 127
@52320 Channel: 2 Note on, E2 key =  40 ; velocity: 0
@52320 Channel: 2 Note on, D4 key =  62 ; velocity: 127
@52320 Channel: 2 Note on, G3 key =  55 ; velocity: 127
@52800 Channel: 2 Note on, D4 key =  62 ; velocity: 0
@52800 Channel: 2 Note on, G3 key =  55 ; velocity: 0
@52800 Channel: 2 Note on, C#4 key =  61 ; velocity: 127
@52800 Channel: 2 Note on, F#3 key =  54 ; velocity: 127
@53040 Channel: 2 Note on, C#4 key =  61 ; velocity: 0
@53040 Channel: 2 Note on, F#3 key =  54 ; velocity: 0
@53040 Channel: 2 Note on, C4 key =  60 ; velocity: 127
@53040 Channel: 2 Note on, F3 key =  53 ; velocity: 127
@53280 Channel: 2 Note on, C4 key =  60 ; velocity: 0
@53280 Channel: 2 Note on, F3 key =  53 ; velocity: 0
@53280 Channel: 2 Note on, E4 key =  64 ; velocity: 127
@53280 Channel: 2 Note on, B3 key =  59 ; velocity: 127
@53280 Channel: 2 Note on, E3 key =  52 ; velocity: 127
@53280 Channel: 2 Note on, E2 key =  40 ; velocity: 127
@53760 Channel: 2 Note on, E4 key =  64 ; velocity: 0
@53760 Channel: 2 Note on, B3 key =  59 ; velocity: 0
@53760 Channel: 2 Note on, E3 key =  52 ; velocity: 0
@53760 Channel: 2 Note on, E2 key =  40 ; velocity: 0
@53760 Channel: 2 Note on, G#4 key =  68 ; velocity: 127
@53760 Channel: 2 Note on, E4 key =  64 ; velocity: 127
@53760 Channel: 2 Note on, B3 key =  59 ; velocity: 127
@53760 Channel: 2 Note on, E3 key =  52 ; velocity: 127
@53880 Channel: 2 Note on, G#4 key =  68 ; velocity: 0
@53880 Channel: 2 Note on, E4 key =  64 ; velocity: 0
@53880 Channel: 2 Note on, B3 key =  59 ; velocity: 0
@53880 Channel: 2 Note on, E3 key =  52 ; velocity: 0
@55680 Channel: 2 Note on, A2 key =  45 ; velocity: 127
@55680 Channel: 2 Note on, G3 key =  55 ; velocity: 127
@55740 Channel: 2 Note on, A2 key =  45 ; velocity: 0
@55740 Channel: 2 Note on, G3 key =  55 ; velocity: 0
@55740 Channel: 2 Note on, A3 key =  57 ; velocity: 127
@55740 Channel: 2 Note on, A2 key =  45 ; velocity: 127
@55800 Channel: 2 Note on, A3 key =  57 ; velocity: 0
@55800 Channel: 2 Note on, A2 key =  45 ; velocity: 0
@55800 Channel: 2 Note on, A2 key =  45 ; velocity: 127
@55860 Channel: 2 Note on, A2 key =  45 ; velocity: 0
@55860 Channel: 2 Note on, A3 key =  57 ; velocity: 127
@55920 Channel: 2 Note on, A3 key =  57 ; velocity: 0
@55920 Channel: 2 Note on, A2 key =  45 ; velocity: 127
@55980 Channel: 2 Note on, A2 key =  45 ; velocity: 0
@55980 Channel: 2 Note on, A2 key =  45 ; velocity: 127
@56040 Channel: 2 Note on, A2 key =  45 ; velocity: 0
@56040 Channel: 2 Note on, A3 key =  57 ; velocity: 127
@56100 Channel: 2 Note on, A3 key =  57 ; velocity: 0
@56100 Channel: 2 Note on, A2 key =  45 ; velocity: 127
@56160 Channel: 2 Note on, A2 key =  45 ; velocity: 0
@56160 Channel: 2 Note on, C4 key =  60 ; velocity: 127
@56160 Channel: 2 Note on, G3 key =  55 ; velocity: 127
@56220 Channel: 2 Note on, C4 key =  60 ; velocity: 0
@56220 Channel: 2 Note on, G3 key =  55 ; velocity: 0
@56220 Channel: 2 Note on, A2 key =  45 ; velocity: 127
@56280 Channel: 2 Note on, A2 key =  45 ; velocity: 0
@56280 Channel: 2 Note on, A2 key =  45 ; velocity: 127
@56340 Channel: 2 Note on, A2 key =  45 ; velocity: 0
@56340 Channel: 2 Note on, A3 key =  57 ; velocity: 127
@56400 Channel: 2 Note on, A3 key =  57 ; velocity: 0
@56400 Channel: 2 Note on, A2 key =  45 ; velocity: 127
@56460 Channel: 2 Note on, A2 key =  45 ; velocity: 0
@56460 Channel: 2 Note on, A2 key =  45 ; velocity: 127
@56520 Channel: 2 Note on, A2 key =  45 ; velocity: 0
@56520 Channel: 2 Note on, A3 key =  57 ; velocity: 127
@56580 Channel: 2 Note on, A3 key =  57 ; velocity: 0
@56580 Channel: 2 Note on, A2 key =  45 ; velocity: 127
@56640 Channel: 2 Note on, A2 key =  45 ; velocity: 0
@56640 Channel: 2 Note on, B3 key =  59 ; velocity: 127
@56640 Channel: 2 Note on, F#3 key =  54 ; velocity: 127
@56700 Channel: 2 Note on, B3 key =  59 ; velocity: 0
@56700 Channel: 2 Note on, F#3 key =  54 ; velocity: 0
@56700 Channel: 2 Note on, A2 key =  45 ; velocity: 127
@56760 Channel: 2 Note on, A2 key =  45 ; velocity: 0
@56760 Channel: 2 Note on, A2 key =  45 ; velocity: 127
@56820 Channel: 2 Note on, A2 key =  45 ; velocity: 0
@56820 Channel: 2 Note on, A3 key =  57 ; velocity: 127
@56880 Channel: 2 Note on, A3 key =  57 ; velocity: 0
@56880 Channel: 2 Note on, A2 key =  45 ; velocity: 127
@56940 Channel: 2 Note on, A2 key =  45 ; velocity: 0
@56940 Channel: 2 Note on, A2 key =  45 ; velocity: 127
@57000 Channel: 2 Note on, A2 key =  45 ; velocity: 0
@57000 Channel: 2 Note on, A3 key =  57 ; velocity: 127
@57120 Channel: 2 Note on, A3 key =  57 ; velocity: 0
@57120 Channel: 2 Note on, C3 key =  48 ; velocity: 127
@57180 Channel: 2 Note on, C3 key =  48 ; velocity: 0
@57180 Channel: 2 Note on, B2 key =  47 ; velocity: 127
@57240 Channel: 2 Note on, B2 key =  47 ; velocity: 0
@57240 Channel: 2 Note on, A2 key =  45 ; velocity: 127
@57300 Channel: 2 Note on, A2 key =  45 ; velocity: 0
@57300 Channel: 2 Note on, F3 key =  53 ; velocity: 127
@57360 Channel: 2 Note on, F3 key =  53 ; velocity: 0
@57360 Channel: 2 Note on, E3 key =  52 ; velocity: 127
@57420 Channel: 2 Note on, E3 key =  52 ; velocity: 0
@57420 Channel: 2 Note on, D3 key =  50 ; velocity: 127
@57480 Channel: 2 Note on, D3 key =  50 ; velocity: 0
@57480 Channel: 2 Note on, C3 key =  48 ; velocity: 127
@57540 Channel: 2 Note on, C3 key =  48 ; velocity: 0
@57540 Channel: 2 Note on, A2 key =  45 ; velocity: 127
@57600 Channel: 2 Note on, A2 key =  45 ; velocity: 0
@57600 Channel: 2 Note on, G3 key =  55 ; velocity: 127
@57660 Channel: 2 Note on, G3 key =  55 ; velocity: 0
@57660 Channel: 2 Note on, A2 key =  45 ; velocity: 127
@57720 Channel: 2 Note on, A2 key =  45 ; velocity: 0
@57720 Channel: 2 Note on, A2 key =  45 ; velocity: 127
@57780 Channel: 2 Note on, A2 key =  45 ; velocity: 0
@57780 Channel: 2 Note on, A3 key =  57 ; velocity: 127
@57840 Channel: 2 Note on, A3 key =  57 ; velocity: 0
@57840 Channel: 2 Note on, A2 key =  45 ; velocity: 127
@57900 Channel: 2 Note on, A2 key =  45 ; velocity: 0
@57900 Channel: 2 Note on, A2 key =  45 ; velocity: 127
@57960 Channel: 2 Note on, A2 key =  45 ; velocity: 0
@57960 Channel: 2 Note on, A3 key =  57 ; velocity: 127
@58020 Channel: 2 Note on, A3 key =  57 ; velocity: 0
@58020 Channel: 2 Note on, A2 key =  45 ; velocity: 127
@58080 Channel: 2 Note on, A2 key =  45 ; velocity: 0
@58080 Channel: 2 Note on, C4 key =  60 ; velocity: 127
@58080 Channel: 2 Note on, G3 key =  55 ; velocity: 127
@58140 Channel: 2 Note on, C4 key =  60 ; velocity: 0
@58140 Channel: 2 Note on, G3 key =  55 ; velocity: 0
@58140 Channel: 2 Note on, A2 key =  45 ; velocity: 127
@58200 Channel: 2 Note on, A2 key =  45 ; velocity: 0
@58200 Channel: 2 Note on, A2 key =  45 ; velocity: 127
@58260 Channel: 2 Note on, A2 key =  45 ; velocity: 0
@58260 Channel: 2 Note on, A3 key =  57 ; velocity: 127
@58320 Channel: 2 Note on, A3 key =  57 ; velocity: 0
@58320 Channel: 2 Note on, A2 key =  45 ; velocity: 127
@58380 Channel: 2 Note on, A2 key =  45 ; velocity: 0
@58380 Channel: 2 Note on, A2 key =  45 ; velocity: 127
@58440 Channel: 2 Note on, A2 key =  45 ; velocity: 0
@58440 Channel: 2 Note on, A3 key =  57 ; velocity: 127
@58500 Channel: 2 Note on, A3 key =  57 ; velocity: 0
@58500 Channel: 2 Note on, A2 key =  45 ; velocity: 127
@58560 Channel: 2 Note on, A2 key =  45 ; velocity: 0
@58560 Channel: 2 Note on, B3 key =  59 ; velocity: 127
@58560 Channel: 2 Note on, F#3 key =  54 ; velocity: 127
@58620 Channel: 2 Note on, B3 key =  59 ; velocity: 0
@58620 Channel: 2 Note on, F#3 key =  54 ; velocity: 0
@58620 Channel: 2 Note on, A2 key =  45 ; velocity: 127
@58680 Channel: 2 Note on, A2 key =  45 ; velocity: 0
@58680 Channel: 2 Note on, A2 key =  45 ; velocity: 127
@58740 Channel: 2 Note on, A2 key =  45 ; velocity: 0
@58740 Channel: 2 Note on, A3 key =  57 ; velocity: 127
@58800 Channel: 2 Note on, A3 key =  57 ; velocity: 0
@58800 Channel: 2 Note on, A2 key =  45 ; velocity: 127
@58860 Channel: 2 Note on, A2 key =  45 ; velocity: 0
@58860 Channel: 2 Note on, A2 key =  45 ; velocity: 127
@58920 Channel: 2 Note on, A2 key =  45 ; velocity: 0
@58920 Channel: 2 Note on, A3 key =  57 ; velocity: 127
@59040 Channel: 2 Note on, A3 key =  57 ; velocity: 0
@59040 Channel: 2 Note on, C3 key =  48 ; velocity: 127
@59100 Channel: 2 Note on, C3 key =  48 ; velocity: 0
@59100 Channel: 2 Note on, B2 key =  47 ; velocity: 127
@59160 Channel: 2 Note on, B2 key =  47 ; velocity: 0
@59160 Channel: 2 Note on, A2 key =  45 ; velocity: 127
@59220 Channel: 2 Note on, A2 key =  45 ; velocity: 0
@59220 Channel: 2 Note on, F3 key =  53 ; velocity: 127
@59280 Channel: 2 Note on, F3 key =  53 ; velocity: 0
@59280 Channel: 2 Note on, E3 key =  52 ; velocity: 127
@59340 Channel: 2 Note on, E3 key =  52 ; velocity: 0
@59340 Channel: 2 Note on, D3 key =  50 ; velocity: 127
@59400 Channel: 2 Note on, D3 key =  50 ; velocity: 0
@59400 Channel: 2 Note on, C3 key =  48 ; velocity: 127
@59460 Channel: 2 Note on, C3 key =  48 ; velocity: 0
@59460 Channel: 2 Note on, A2 key =  45 ; velocity: 127
@59520 Channel: 2 Note on, A2 key =  45 ; velocity: 0
@59520 Channel: 2 Note on, G3 key =  55 ; velocity: 127
@59580 Channel: 2 Note on, G3 key =  55 ; velocity: 0
@59580 Channel: 2 Note on, A2 key =  45 ; velocity: 127
@59640 Channel: 2 Note on, A2 key =  45 ; velocity: 0
@59640 Channel: 2 Note on, A2 key =  45 ; velocity: 127
@59700 Channel: 2 Note on, A2 key =  45 ; velocity: 0
@59700 Channel: 2 Note on, A3 key =  57 ; velocity: 127
@59760 Channel: 2 Note on, A3 key =  57 ; velocity: 0
@59760 Channel: 2 Note on, A2 key =  45 ; velocity: 127
@59820 Channel: 2 Note on, A2 key =  45 ; velocity: 0
@59820 Channel: 2 Note on, A2 key =  45 ; velocity: 127
@59880 Channel: 2 Note on, A2 key =  45 ; velocity: 0
@59880 Channel: 2 Note on, A3 key =  57 ; velocity: 127
@59940 Channel: 2 Note on, A3 key =  57 ; velocity: 0
@59940 Channel: 2 Note on, A2 key =  45 ; velocity: 127
@60000 Channel: 2 Note on, A2 key =  45 ; velocity: 0
@60000 Channel: 2 Note on, C4 key =  60 ; velocity: 127
@60000 Channel: 2 Note on, G3 key =  55 ; velocity: 127
@60060 Channel: 2 Note on, C4 key =  60 ; velocity: 0
@60060 Channel: 2 Note on, G3 key =  55 ; velocity: 0
@60060 Channel: 2 Note on, A2 key =  45 ; velocity: 127
@60120 Channel: 2 Note on, A2 key =  45 ; velocity: 0
@60120 Channel: 2 Note on, A2 key =  45 ; velocity: 127
@60180 Channel: 2 Note on, A2 key =  45 ; velocity: 0
@60180 Channel: 2 Note on, A3 key =  57 ; velocity: 127
@60240 Channel: 2 Note on, A3 key =  57 ; velocity: 0
@60240 Channel: 2 Note on, A2 key =  45 ; velocity: 127
@60300 Channel: 2 Note on, A2 key =  45 ; velocity: 0
@60300 Channel: 2 Note on, A2 key =  45 ; velocity: 127
@60360 Channel: 2 Note on, A2 key =  45 ; velocity: 0
@60360 Channel: 2 Note on, A3 key =  57 ; velocity: 127
@60420 Channel: 2 Note on, A3 key =  57 ; velocity: 0
@60420 Channel: 2 Note on, A2 key =  45 ; velocity: 127
@60480 Channel: 2 Note on, A2 key =  45 ; velocity: 0
@60480 Channel: 2 Note on, B3 key =  59 ; velocity: 127
@60480 Channel: 2 Note on, F#3 key =  54 ; velocity: 127
@60540 Channel: 2 Note on, B3 key =  59 ; velocity: 0
@60540 Channel: 2 Note on, F#3 key =  54 ; velocity: 0
@60540 Channel: 2 Note on, A2 key =  45 ; velocity: 127
@60600 Channel: 2 Note on, A2 key =  45 ; velocity: 0
@60600 Channel: 2 Note on, A2 key =  45 ; velocity: 127
@60660 Channel: 2 Note on, A2 key =  45 ; velocity: 0
@60660 Channel: 2 Note on, A3 key =  57 ; velocity: 127
@60720 Channel: 2 Note on, A3 key =  57 ; velocity: 0
@60720 Channel: 2 Note on, A2 key =  45 ; velocity: 127
@60780 Channel: 2 Note on, A2 key =  45 ; velocity: 0
@60780 Channel: 2 Note on, A2 key =  45 ; velocity: 127
@60840 Channel: 2 Note on, A2 key =  45 ; velocity: 0
@60840 Channel: 2 Note on, A3 key =  57 ; velocity: 127
@60960 Channel: 2 Note on, A3 key =  57 ; velocity: 0
@60960 Channel: 2 Note on, C3 key =  48 ; velocity: 127
@61020 Channel: 2 Note on, C3 key =  48 ; velocity: 0
@61020 Channel: 2 Note on, B2 key =  47 ; velocity: 127
@61080 Channel: 2 Note on, B2 key =  47 ; velocity: 0
@61080 Channel: 2 Note on, A2 key =  45 ; velocity: 127
@61140 Channel: 2 Note on, A2 key =  45 ; velocity: 0
@61140 Channel: 2 Note on, F3 key =  53 ; velocity: 127
@61200 Channel: 2 Note on, F3 key =  53 ; velocity: 0
@61200 Channel: 2 Note on, E3 key =  52 ; velocity: 127
@61260 Channel: 2 Note on, E3 key =  52 ; velocity: 0
@61260 Channel: 2 Note on, D3 key =  50 ; velocity: 127
@61320 Channel: 2 Note on, D3 key =  50 ; velocity: 0
@61320 Channel: 2 Note on, C3 key =  48 ; velocity: 127
@61380 Channel: 2 Note on, C3 key =  48 ; velocity: 0
@61380 Channel: 2 Note on, A2 key =  45 ; velocity: 127
@61440 Channel: 2 Note on, A2 key =  45 ; velocity: 0
@61440 Channel: 2 Note on, G3 key =  55 ; velocity: 127
@61500 Channel: 2 Note on, G3 key =  55 ; velocity: 0
@61500 Channel: 2 Note on, A2 key =  45 ; velocity: 127
@61560 Channel: 2 Note on, A2 key =  45 ; velocity: 0
@61560 Channel: 2 Note on, A2 key =  45 ; velocity: 127
@61620 Channel: 2 Note on, A2 key =  45 ; velocity: 0
@61620 Channel: 2 Note on, A3 key =  57 ; velocity: 127
@61680 Channel: 2 Note on, A3 key =  57 ; velocity: 0
@61680 Channel: 2 Note on, A2 key =  45 ; velocity: 127
@61740 Channel: 2 Note on, A2 key =  45 ; velocity: 0
@61740 Channel: 2 Note on, A2 key =  45 ; velocity: 127
@61800 Channel: 2 Note on, A2 key =  45 ; velocity: 0
@61800 Channel: 2 Note on, A3 key =  57 ; velocity: 127
@61860 Channel: 2 Note on, A3 key =  57 ; velocity: 0
@61860 Channel: 2 Note on, A2 key =  45 ; velocity: 127
@61920 Channel: 2 Note on, A2 key =  45 ; velocity: 0
@61920 Channel: 2 Note on, C4 key =  60 ; velocity: 127
@61920 Channel: 2 Note on, G3 key =  55 ; velocity: 127
@61980 Channel: 2 Note on, C4 key =  60 ; velocity: 0
@61980 Channel: 2 Note on, G3 key =  55 ; velocity: 0
@61980 Channel: 2 Note on, A2 key =  45 ; velocity: 127
@62040 Channel: 2 Note on, A2 key =  45 ; velocity: 0
@62040 Channel: 2 Note on, A2 key =  45 ; velocity: 127
@62100 Channel: 2 Note on, A2 key =  45 ; velocity: 0
@62100 Channel: 2 Note on, A3 key =  57 ; velocity: 127
@62160 Channel: 2 Note on, A3 key =  57 ; velocity: 0
@62160 Channel: 2 Note on, A2 key =  45 ; velocity: 127
@62220 Channel: 2 Note on, A2 key =  45 ; velocity: 0
@62220 Channel: 2 Note on, A2 key =  45 ; velocity: 127
@62280 Channel: 2 Note on, A2 key =  45 ; velocity: 0
@62280 Channel: 2 Note on, A3 key =  57 ; velocity: 127
@62340 Channel: 2 Note on, A3 key =  57 ; velocity: 0
@62340 Channel: 2 Note on, A2 key =  45 ; velocity: 127
@62400 Channel: 2 Note on, A2 key =  45 ; velocity: 0
@62400 Channel: 2 Note on, B3 key =  59 ; velocity: 127
@62400 Channel: 2 Note on, F#3 key =  54 ; velocity: 127
@62460 Channel: 2 Note on, B3 key =  59 ; velocity: 0
@62460 Channel: 2 Note on, F#3 key =  54 ; velocity: 0
@62460 Channel: 2 Note on, A2 key =  45 ; velocity: 127
@62520 Channel: 2 Note on, A2 key =  45 ; velocity: 0
@62520 Channel: 2 Note on, A2 key =  45 ; velocity: 127
@62580 Channel: 2 Note on, A2 key =  45 ; velocity: 0
@62580 Channel: 2 Note on, A3 key =  57 ; velocity: 127
@62640 Channel: 2 Note on, A3 key =  57 ; velocity: 0
@62640 Channel: 2 Note on, A2 key =  45 ; velocity: 127
@62700 Channel: 2 Note on, A2 key =  45 ; velocity: 0
@62700 Channel: 2 Note on, A2 key =  45 ; velocity: 127
@62760 Channel: 2 Note on, A2 key =  45 ; velocity: 0
@62760 Channel: 2 Note on, A3 key =  57 ; velocity: 127
@62880 Channel: 2 Note on, A3 key =  57 ; velocity: 0
@62880 Channel: 2 Note on, C3 key =  48 ; velocity: 127
@62940 Channel: 2 Note on, C3 key =  48 ; velocity: 0
@62940 Channel: 2 Note on, B2 key =  47 ; velocity: 127
@63000 Channel: 2 Note on, B2 key =  47 ; velocity: 0
@63000 Channel: 2 Note on, A2 key =  45 ; velocity: 127
@63060 Channel: 2 Note on, A2 key =  45 ; velocity: 0
@63060 Channel: 2 Note on, F3 key =  53 ; velocity: 127
@63120 Channel: 2 Note on, F3 key =  53 ; velocity: 0
@63120 Channel: 2 Note on, E3 key =  52 ; velocity: 127
@63180 Channel: 2 Note on, E3 key =  52 ; velocity: 0
@63180 Channel: 2 Note on, D3 key =  50 ; velocity: 127
@63240 Channel: 2 Note on, D3 key =  50 ; velocity: 0
@63240 Channel: 2 Note on, C3 key =  48 ; velocity: 127
@63300 Channel: 2 Note on, C3 key =  48 ; velocity: 0
@63300 Channel: 2 Note on, A2 key =  45 ; velocity: 127
@63360 Channel: 2 Note on, A2 key =  45 ; velocity: 0
@63360 Channel: 2 Note on, D4 key =  62 ; velocity: 127
@63360 Channel: 2 Note on, G3 key =  55 ; velocity: 127
@63840 Channel: 2 Note on, D4 key =  62 ; velocity: 0
@63840 Channel: 2 Note on, G3 key =  55 ; velocity: 0
@63840 Channel: 2 Note on, C#4 key =  61 ; velocity: 127
@63840 Channel: 2 Note on, F#3 key =  54 ; velocity: 127
@64080 Channel: 2 Note on, C#4 key =  61 ; velocity: 0
@64080 Channel: 2 Note on, F#3 key =  54 ; velocity: 0
@64080 Channel: 2 Note on, C4 key =  60 ; velocity: 127
@64080 Channel: 2 Note on, F3 key =  53 ; velocity: 127
@64320 Channel: 2 Note on, C4 key =  60 ; velocity: 0
@64320 Channel: 2 Note on, F3 key =  53 ; velocity: 0
@64320 Channel: 2 Note on, E2 key =  40 ; velocity: 127
@64380 Channel: 2 Note on, E2 key =  40 ; velocity: 0
@64380 Channel: 2 Note on, E2 key =  40 ; velocity: 127
@64440 Channel: 2 Note on, E2 key =  40 ; velocity: 0
@64440 Channel: 2 Note on, E2 key =  40 ; velocity: 127
@64500 Channel: 2 Note on, E2 key =  40 ; velocity: 0
@64500 Channel: 2 Note on, E2 key =  40 ; velocity: 127
@64560 Channel: 2 Note on, E2 key =  40 ; velocity: 0
@64560 Channel: 2 Note on, E2 key =  40 ; velocity: 127
@64620 Channel: 2 Note on, E2 key =  40 ; velocity: 0
@64620 Channel: 2 Note on, E2 key =  40 ; velocity: 127
@64680 Channel: 2 Note on, E2 key =  40 ; velocity: 0
@64680 Channel: 2 Note on, E2 key =  40 ; velocity: 127
@64740 Channel: 2 Note on, E2 key =  40 ; velocity: 0
@64740 Channel: 2 Note on, E2 key =  40 ; velocity: 127
@64800 Channel: 2 Note on, E2 key =  40 ; velocity: 0
@64800 Channel: 2 Note on, E2 key =  40 ; velocity: 127
@64860 Channel: 2 Note on, E2 key =  40 ; velocity: 0
@64860 Channel: 2 Note on, E2 key =  40 ; velocity: 127
@64920 Channel: 2 Note on, E2 key =  40 ; velocity: 0
@64920 Channel: 2 Note on, E2 key =  40 ; velocity: 127
@64980 Channel: 2 Note on, E2 key =  40 ; velocity: 0
@64980 Channel: 2 Note on, E2 key =  40 ; velocity: 127
@65040 Channel: 2 Note on, E2 key =  40 ; velocity: 0
@65040 Channel: 2 Note on, E2 key =  40 ; velocity: 127
@65100 Channel: 2 Note on, E2 key =  40 ; velocity: 0
@65100 Channel: 2 Note on, E2 key =  40 ; velocity: 127
@65160 Channel: 2 Note on, E2 key =  40 ; velocity: 0
@65160 Channel: 2 Note on, E2 key =  40 ; velocity: 127
@65220 Channel: 2 Note on, E2 key =  40 ; velocity: 0
@65220 Channel: 2 Note on, E2 key =  40 ; velocity: 127
@65280 Channel: 2 Note on, E2 key =  40 ; velocity: 0
@65280 Channel: 2 Note on, D4 key =  62 ; velocity: 127
@65280 Channel: 2 Note on, G3 key =  55 ; velocity: 127
@65760 Channel: 2 Note on, D4 key =  62 ; velocity: 0
@65760 Channel: 2 Note on, G3 key =  55 ; velocity: 0
@65760 Channel: 2 Note on, C#4 key =  61 ; velocity: 127
@65760 Channel: 2 Note on, F#3 key =  54 ; velocity: 127
@66000 Channel: 2 Note on, C#4 key =  61 ; velocity: 0
@66000 Channel: 2 Note on, F#3 key =  54 ; velocity: 0
@66000 Channel: 2 Note on, C4 key =  60 ; velocity: 127
@66000 Channel: 2 Note on, F3 key =  53 ; velocity: 127
@66240 Channel: 2 Note on, C4 key =  60 ; velocity: 0
@66240 Channel: 2 Note on, F3 key =  53 ; velocity: 0
@66240 Channel: 2 Note on, E2 key =  40 ; velocity: 127
@66300 Channel: 2 Note on, E2 key =  40 ; velocity: 0
@66300 Channel: 2 Note on, E2 key =  40 ; velocity: 127
@66360 Channel: 2 Note on, E2 key =  40 ; velocity: 0
@66360 Channel: 2 Note on, E2 key =  40 ; velocity: 127
@66420 Channel: 2 Note on, E2 key =  40 ; velocity: 0
@66420 Channel: 2 Note on, E2 key =  40 ; velocity: 127
@66480 Channel: 2 Note on, E2 key =  40 ; velocity: 0
@66480 Channel: 2 Note on, E2 key =  40 ; velocity: 127
@66540 Channel: 2 Note on, E2 key =  40 ; velocity: 0
@66540 Channel: 2 Note on, E2 key =  40 ; velocity: 127
@66600 Channel: 2 Note on, E2 key =  40 ; velocity: 0
@66600 Channel: 2 Note on, E2 key =  40 ; velocity: 127
@66660 Channel: 2 Note on, E2 key =  40 ; velocity: 0
@66660 Channel: 2 Note on, E2 key =  40 ; velocity: 127
@66720 Channel: 2 Note on, E2 key =  40 ; velocity: 0
@66720 Channel: 2 Note on, E2 key =  40 ; velocity: 127
@66780 Channel: 2 Note on, E2 key =  40 ; velocity: 0
@66780 Channel: 2 Note on, E2 key =  40 ; velocity: 127
@66840 Channel: 2 Note on, E2 key =  40 ; velocity: 0
@66840 Channel: 2 Note on, E2 key =  40 ; velocity: 127
@66900 Channel: 2 Note on, E2 key =  40 ; velocity: 0
@66900 Channel: 2 Note on, E2 key =  40 ; velocity: 127
@66960 Channel: 2 Note on, E2 key =  40 ; velocity: 0
@66960 Channel: 2 Note on, E2 key =  40 ; velocity: 127
@67020 Channel: 2 Note on, E2 key =  40 ; velocity: 0
@67020 Channel: 2 Note on, E2 key =  40 ; velocity: 127
@67080 Channel: 2 Note on, E2 key =  40 ; velocity: 0
@67080 Channel: 2 Note on, E2 key =  40 ; velocity: 127
@67140 Channel: 2 Note on, E2 key =  40 ; velocity: 0
@67140 Channel: 2 Note on, E2 key =  40 ; velocity: 127
@67200 Channel: 2 Note on, E2 key =  40 ; velocity: 0
@67200 Channel: 2 Note on, D4 key =  62 ; velocity: 127
@67200 Channel: 2 Note on, G3 key =  55 ; velocity: 127
@67680 Channel: 2 Note on, D4 key =  62 ; velocity: 0
@67680 Channel: 2 Note on, G3 key =  55 ; velocity: 0
@67680 Channel: 2 Note on, C#4 key =  61 ; velocity: 127
@67680 Channel: 2 Note on, F#3 key =  54 ; velocity: 127
@67920 Channel: 2 Note on, C#4 key =  61 ; velocity: 0
@67920 Channel: 2 Note on, F#3 key =  54 ; velocity: 0
@67920 Channel: 2 Note on, C4 key =  60 ; velocity: 127
@67920 Channel: 2 Note on, F3 key =  53 ; velocity: 127
@68160 Channel: 2 Note on, C4 key =  60 ; velocity: 0
@68160 Channel: 2 Note on, F3 key =  53 ; velocity: 0
@68160 Channel: 2 Note on, E2 key =  40 ; velocity: 127
@68220 Channel: 2 Note on, E2 key =  40 ; velocity: 0
@68220 Channel: 2 Note on, E2 key =  40 ; velocity: 127
@68280 Channel: 2 Note on, E2 key =  40 ; velocity: 0
@68280 Channel: 2 Note on, E2 key =  40 ; velocity: 127
@68340 Channel: 2 Note on, E2 key =  40 ; velocity: 0
@68340 Channel: 2 Note on, E2 key =  40 ; velocity: 127
@68400 Channel: 2 Note on, E2 key =  40 ; velocity: 0
@68400 Channel: 2 Note on, E2 key =  40 ; velocity: 127
@68460 Channel: 2 Note on, E2 key =  40 ; velocity: 0
@68460 Channel: 2 Note on, E2 key =  40 ; velocity: 127
@68520 Channel: 2 Note on, E2 key =  40 ; velocity: 0
@68520 Channel: 2 Note on, E2 key =  40 ; velocity: 127
@68580 Channel: 2 Note on, E2 key =  40 ; velocity: 0
@68580 Channel: 2 Note on, E2 key =  40 ; velocity: 127
@68640 Channel: 2 Note on, E2 key =  40 ; velocity: 0
@68640 Channel: 2 Note on, E2 key =  40 ; velocity: 127
@68700 Channel: 2 Note on, E2 key =  40 ; velocity: 0
@68700 Channel: 2 Note on, E2 key =  40 ; velocity: 127
@68760 Channel: 2 Note on, E2 key =  40 ; velocity: 0
@68760 Channel: 2 Note on, E2 key =  40 ; velocity: 127
@68820 Channel: 2 Note on, E2 key =  40 ; velocity: 0
@68820 Channel: 2 Note on, E2 key =  40 ; velocity: 127
@68880 Channel: 2 Note on, E2 key =  40 ; velocity: 0
@68880 Channel: 2 Note on, E2 key =  40 ; velocity: 127
@68940 Channel: 2 Note on, E2 key =  40 ; velocity: 0
@68940 Channel: 2 Note on, E2 key =  40 ; velocity: 127
@69000 Channel: 2 Note on, E2 key =  40 ; velocity: 0
@69000 Channel: 2 Note on, E2 key =  40 ; velocity: 127
@69060 Channel: 2 Note on, E2 key =  40 ; velocity: 0
@69060 Channel: 2 Note on, E2 key =  40 ; velocity: 127
@69120 Channel: 2 Note on, E2 key =  40 ; velocity: 0
@69120 Channel: 2 Note on, D4 key =  62 ; velocity: 127
@69120 Channel: 2 Note on, G3 key =  55 ; velocity: 127
@69600 Channel: 2 Note on, D4 key =  62 ; velocity: 0
@69600 Channel: 2 Note on, G3 key =  55 ; velocity: 0
@69600 Channel: 2 Note on, C#4 key =  61 ; velocity: 127
@69600 Channel: 2 Note on, F#3 key =  54 ; velocity: 127
@69840 Channel: 2 Note on, C#4 key =  61 ; velocity: 0
@69840 Channel: 2 Note on, F#3 key =  54 ; velocity: 0
@69840 Channel: 2 Note on, C4 key =  60 ; velocity: 127
@69840 Channel: 2 Note on, F3 key =  53 ; velocity: 127
@70080 Channel: 2 Note on, C4 key =  60 ; velocity: 0
@70080 Channel: 2 Note on, F3 key =  53 ; velocity: 0
@70080 Channel: 2 Note on, D3 key =  50 ; velocity: 127
@70140 Channel: 2 Note on, D3 key =  50 ; velocity: 0
@70140 Channel: 2 Note on, E3 key =  52 ; velocity: 127
@70200 Channel: 2 Note on, E3 key =  52 ; velocity: 0
@70200 Channel: 2 Note on, E2 key =  40 ; velocity: 127
@70260 Channel: 2 Note on, E2 key =  40 ; velocity: 0
@70260 Channel: 2 Note on, E3 key =  52 ; velocity: 127
@70320 Channel: 2 Note on, E3 key =  52 ; velocity: 0
@70320 Channel: 2 Note on, E2 key =  40 ; velocity: 127
@70380 Channel: 2 Note on, E2 key =  40 ; velocity: 0
@70380 Channel: 2 Note on, E2 key =  40 ; velocity: 127
@70440 Channel: 2 Note on, E2 key =  40 ; velocity: 0
@70440 Channel: 2 Note on, E3 key =  52 ; velocity: 127
@70500 Channel: 2 Note on, E3 key =  52 ; velocity: 0
@70500 Channel: 2 Note on, E2 key =  40 ; velocity: 127
@70560 Channel: 2 Note on, E2 key =  40 ; velocity: 0
@70560 Channel: 2 Note on, D3 key =  50 ; velocity: 127
@70560 Channel: 2 Note on, G3 key =  55 ; velocity: 127
@70620 Channel: 2 Note on, D3 key =  50 ; velocity: 0
@70620 Channel: 2 Note on, G3 key =  55 ; velocity: 0
@70620 Channel: 2 Note on, E2 key =  40 ; velocity: 127
@70680 Channel: 2 Note on, E2 key =  40 ; velocity: 0
@70680 Channel: 2 Note on, E2 key =  40 ; velocity: 127
@70740 Channel: 2 Note on, E2 key =  40 ; velocity: 0
@70740 Channel: 2 Note on, E3 key =  52 ; velocity: 127
@70800 Channel: 2 Note on, E3 key =  52 ; velocity: 0
@70800 Channel: 2 Note on, E2 key =  40 ; velocity: 127
@70860 Channel: 2 Note on, E2 key =  40 ; velocity: 0
@70860 Channel: 2 Note on, E2 key =  40 ; velocity: 127
@70920 Channel: 2 Note on, E2 key =  40 ; velocity: 0
@70920 Channel: 2 Note on, E3 key =  52 ; velocity: 127
@70980 Channel: 2 Note on, E3 key =  52 ; velocity: 0
@70980 Channel: 2 Note on, E2 key =  40 ; velocity: 127
@71040 Channel: 2 Note on, E2 key =  40 ; velocity: 0
@71040 Channel: 2 Note on, F#3 key =  54 ; velocity: 127
@71040 Channel: 2 Note on, C#3 key =  49 ; velocity: 127
@71100 Channel: 2 Note on, F#3 key =  54 ; velocity: 0
@71100 Channel: 2 Note on, C#3 key =  49 ; velocity: 0
@71100 Channel: 2 Note on, E2 key =  40 ; velocity: 127
@71160 Channel: 2 Note on, E2 key =  40 ; velocity: 0
@71160 Channel: 2 Note on, E2 key =  40 ; velocity: 127
@71220 Channel: 2 Note on, E2 key =  40 ; velocity: 0
@71220 Channel: 2 Note on, E3 key =  52 ; velocity: 127
@71280 Channel: 2 Note on, E3 key =  52 ; velocity: 0
@71280 Channel: 2 Note on, E2 key =  40 ; velocity: 127
@71340 Channel: 2 Note on, E2 key =  40 ; velocity: 0
@71340 Channel: 2 Note on, E2 key =  40 ; velocity: 127
@71400 Channel: 2 Note on, E2 key =  40 ; velocity: 0
@71400 Channel: 2 Note on, E3 key =  52 ; velocity: 127
@71520 Channel: 2 Note on, E3 key =  52 ; velocity: 0
@71520 Channel: 2 Note on, G2 key =  43 ; velocity: 127
@71580 Channel: 2 Note on, G2 key =  43 ; velocity: 0
@71580 Channel: 2 Note on, F#2 key =  42 ; velocity: 127
@71640 Channel: 2 Note on, F#2 key =  42 ; velocity: 0
@71640 Channel: 2 Note on, E2 key =  40 ; velocity: 127
@71700 Channel: 2 Note on, E2 key =  40 ; velocity: 0
@71700 Channel: 2 Note on, C3 key =  48 ; velocity: 127
@71760 Channel: 2 Note on, C3 key =  48 ; velocity: 0
@71760 Channel: 2 Note on, B2 key =  47 ; velocity: 127
@71820 Channel: 2 Note on, B2 key =  47 ; velocity: 0
@71820 Channel: 2 Note on, A2 key =  45 ; velocity: 127
@71880 Channel: 2 Note on, A2 key =  45 ; velocity: 0
@71880 Channel: 2 Note on, G2 key =  43 ; velocity: 127
@71940 Channel: 2 Note on, G2 key =  43 ; velocity: 0
@71940 Channel: 2 Note on, E2 key =  40 ; velocity: 127
@72000 Channel: 2 Note on, E2 key =  40 ; velocity: 0
@72000 Channel: 2 Note on, D3 key =  50 ; velocity: 127
@72060 Channel: 2 Note on, D3 key =  50 ; velocity: 0
@72060 Channel: 2 Note on, E3 key =  52 ; velocity: 127
@72120 Channel: 2 Note on, E3 key =  52 ; velocity: 0
@72120 Channel: 2 Note on, E2 key =  40 ; velocity: 127
@72180 Channel: 2 Note on, E2 key =  40 ; velocity: 0
@72180 Channel: 2 Note on, E3 key =  52 ; velocity: 127
@72240 Channel: 2 Note on, E3 key =  52 ; velocity: 0
@72240 Channel: 2 Note on, E2 key =  40 ; velocity: 127
@72300 Channel: 2 Note on, E2 key =  40 ; velocity: 0
@72300 Channel: 2 Note on, E2 key =  40 ; velocity: 127
@72360 Channel: 2 Note on, E2 key =  40 ; velocity: 0
@72360 Channel: 2 Note on, E3 key =  52 ; velocity: 127
@72420 Channel: 2 Note on, E3 key =  52 ; velocity: 0
@72420 Channel: 2 Note on, E2 key =  40 ; velocity: 127
@72480 Channel: 2 Note on, E2 key =  40 ; velocity: 0
@72480 Channel: 2 Note on, D3 key =  50 ; velocity: 127
@72480 Channel: 2 Note on, G3 key =  55 ; velocity: 127
@72540 Channel: 2 Note on, D3 key =  50 ; velocity: 0
@72540 Channel: 2 Note on, G3 key =  55 ; velocity: 0
@72540 Channel: 2 Note on, E2 key =  40 ; velocity: 127
@72600 Channel: 2 Note on, E2 key =  40 ; velocity: 0
@72600 Channel: 2 Note on, E2 key =  40 ; velocity: 127
@72660 Channel: 2 Note on, E2 key =  40 ; velocity: 0
@72660 Channel: 2 Note on, E3 key =  52 ; velocity: 127
@72720 Channel: 2 Note on, E3 key =  52 ; velocity: 0
@72720 Channel: 2 Note on, E2 key =  40 ; velocity: 127
@72780 Channel: 2 Note on, E2 key =  40 ; velocity: 0
@72780 Channel: 2 Note on, E2 key =  40 ; velocity: 127
@72840 Channel: 2 Note on, E2 key =  40 ; velocity: 0
@72840 Channel: 2 Note on, E3 key =  52 ; velocity: 127
@72900 Channel: 2 Note on, E3 key =  52 ; velocity: 0
@72900 Channel: 2 Note on, E2 key =  40 ; velocity: 127
@72960 Channel: 2 Note on, E2 key =  40 ; velocity: 0
@72960 Channel: 2 Note on, F#3 key =  54 ; velocity: 127
@72960 Channel: 2 Note on, C#3 key =  49 ; velocity: 127
@73020 Channel: 2 Note on, F#3 key =  54 ; velocity: 0
@73020 Channel: 2 Note on, C#3 key =  49 ; velocity: 0
@73020 Channel: 2 Note on, E2 key =  40 ; velocity: 127
@73080 Channel: 2 Note on, E2 key =  40 ; velocity: 0
@73080 Channel: 2 Note on, E2 key =  40 ; velocity: 127
@73140 Channel: 2 Note on, E2 key =  40 ; velocity: 0
@73140 Channel: 2 Note on, E3 key =  52 ; velocity: 127
@73200 Channel: 2 Note on, E3 key =  52 ; velocity: 0
@73200 Channel: 2 Note on, E2 key =  40 ; velocity: 127
@73260 Channel: 2 Note on, E2 key =  40 ; velocity: 0
@73260 Channel: 2 Note on, E2 key =  40 ; velocity: 127
@73320 Channel: 2 Note on, E2 key =  40 ; velocity: 0
@73320 Channel: 2 Note on, E3 key =  52 ; velocity: 127
@73440 Channel: 2 Note on, E3 key =  52 ; velocity: 0
@73440 Channel: 2 Note on, G2 key =  43 ; velocity: 127
@73500 Channel: 2 Note on, G2 key =  43 ; velocity: 0
@73500 Channel: 2 Note on, F#2 key =  42 ; velocity: 127
@73560 Channel: 2 Note on, F#2 key =  42 ; velocity: 0
@73560 Channel: 2 Note on, E2 key =  40 ; velocity: 127
@73620 Channel: 2 Note on, E2 key =  40 ; velocity: 0
@73620 Channel: 2 Note on, C3 key =  48 ; velocity: 127
@73680 Channel: 2 Note on, C3 key =  48 ; velocity: 0
@73680 Channel: 2 Note on, B2 key =  47 ; velocity: 127
@73740 Channel: 2 Note on, B2 key =  47 ; velocity: 0
@73740 Channel: 2 Note on, A2 key =  45 ; velocity: 127
@73800 Channel: 2 Note on, A2 key =  45 ; velocity: 0
@73800 Channel: 2 Note on, G2 key =  43 ; velocity: 127
@73860 Channel: 2 Note on, G2 key =  43 ; velocity: 0
@73860 Channel: 2 Note on, E2 key =  40 ; velocity: 127
@73920 Channel: 2 Note on, E2 key =  40 ; velocity: 0
@73920 Channel: 2 Note on, D3 key =  50 ; velocity: 127
@73980 Channel: 2 Note on, D3 key =  50 ; velocity: 0
@73980 Channel: 2 Note on, E3 key =  52 ; velocity: 127
@74040 Channel: 2 Note on, E3 key =  52 ; velocity: 0
@74040 Channel: 2 Note on, E2 key =  40 ; velocity: 127
@74100 Channel: 2 Note on, E2 key =  40 ; velocity: 0
@74100 Channel: 2 Note on, E3 key =  52 ; velocity: 127
@74160 Channel: 2 Note on, E3 key =  52 ; velocity: 0
@74160 Channel: 2 Note on, E2 key =  40 ; velocity: 127
@74220 Channel: 2 Note on, E2 key =  40 ; velocity: 0
@74220 Channel: 2 Note on, E2 key =  40 ; velocity: 127
@74280 Channel: 2 Note on, E2 key =  40 ; velocity: 0
@74280 Channel: 2 Note on, E3 key =  52 ; velocity: 127
@74340 Channel: 2 Note on, E3 key =  52 ; velocity: 0
@74340 Channel: 2 Note on, E2 key =  40 ; velocity: 127
@74400 Channel: 2 Note on, E2 key =  40 ; velocity: 0
@74400 Channel: 2 Note on, D3 key =  50 ; velocity: 127
@74400 Channel: 2 Note on, G3 key =  55 ; velocity: 127
@74460 Channel: 2 Note on, D3 key =  50 ; velocity: 0
@74460 Channel: 2 Note on, G3 key =  55 ; velocity: 0
@74460 Channel: 2 Note on, E2 key =  40 ; velocity: 127
@74520 Channel: 2 Note on, E2 key =  40 ; velocity: 0
@74520 Channel: 2 Note on, E2 key =  40 ; velocity: 127
@74580 Channel: 2 Note on, E2 key =  40 ; velocity: 0
@74580 Channel: 2 Note on, E3 key =  52 ; velocity: 127
@74640 Channel: 2 Note on, E3 key =  52 ; velocity: 0
@74640 Channel: 2 Note on, E2 key =  40 ; velocity: 127
@74700 Channel: 2 Note on, E2 key =  40 ; velocity: 0
@74700 Channel: 2 Note on, E2 key =  40 ; velocity: 127
@74760 Channel: 2 Note on, E2 key =  40 ; velocity: 0
@74760 Channel: 2 Note on, E3 key =  52 ; velocity: 127
@74820 Channel: 2 Note on, E3 key =  52 ; velocity: 0
@74820 Channel: 2 Note on, E2 key =  40 ; velocity: 127
@74880 Channel: 2 Note on, E2 key =  40 ; velocity: 0
@74880 Channel: 2 Note on, F#3 key =  54 ; velocity: 127
@74880 Channel: 2 Note on, C#3 key =  49 ; velocity: 127
@74940 Channel: 2 Note on, F#3 key =  54 ; velocity: 0
@74940 Channel: 2 Note on, C#3 key =  49 ; velocity: 0
@74940 Channel: 2 Note on, E2 key =  40 ; velocity: 127
@75000 Channel: 2 Note on, E2 key =  40 ; velocity: 0
@75000 Channel: 2 Note on, E2 key =  40 ; velocity: 127
@75060 Channel: 2 Note on, E2 key =  40 ; velocity: 0
@75060 Channel: 2 Note on, E3 key =  52 ; velocity: 127
@75120 Channel: 2 Note on, E3 key =  52 ; velocity: 0
@75120 Channel: 2 Note on, E2 key =  40 ; velocity: 127
@75180 Channel: 2 Note on, E2 key =  40 ; velocity: 0
@75180 Channel: 2 Note on, E2 key =  40 ; velocity: 127
@75240 Channel: 2 Note on, E2 key =  40 ; velocity: 0
@75240 Channel: 2 Note on, E3 key =  52 ; velocity: 127
@75360 Channel: 2 Note on, E3 key =  52 ; velocity: 0
@75360 Channel: 2 Note on, G2 key =  43 ; velocity: 127
@75420 Channel: 2 Note on, G2 key =  43 ; velocity: 0
@75420 Channel: 2 Note on, F#2 key =  42 ; velocity: 127
@75480 Channel: 2 Note on, F#2 key =  42 ; velocity: 0
@75480 Channel: 2 Note on, E2 key =  40 ; velocity: 127
@75540 Channel: 2 Note on, E2 key =  40 ; velocity: 0
@75540 Channel: 2 Note on, C3 key =  48 ; velocity: 127
@75600 Channel: 2 Note on, C3 key =  48 ; velocity: 0
@75600 Channel: 2 Note on, B2 key =  47 ; velocity: 127
@75660 Channel: 2 Note on, B2 key =  47 ; velocity: 0
@75660 Channel: 2 Note on, A2 key =  45 ; velocity: 127
@75720 Channel: 2 Note on, A2 key =  45 ; velocity: 0
@75720 Channel: 2 Note on, G2 key =  43 ; velocity: 127
@75780 Channel: 2 Note on, G2 key =  43 ; velocity: 0
@75780 Channel: 2 Note on, E2 key =  40 ; velocity: 127
@75840 Channel: 2 Note on, E2 key =  40 ; velocity: 0
@75840 Channel: 2 Note on, D3 key =  50 ; velocity: 127
@75900 Channel: 2 Note on, D3 key =  50 ; velocity: 0
@75900 Channel: 2 Note on, E3 key =  52 ; velocity: 127
@75960 Channel: 2 Note on, E3 key =  52 ; velocity: 0
@75960 Channel: 2 Note on, E2 key =  40 ; velocity: 127
@76020 Channel: 2 Note on, E2 key =  40 ; velocity: 0
@76020 Channel: 2 Note on, E3 key =  52 ; velocity: 127
@76080 Channel: 2 Note on, E3 key =  52 ; velocity: 0
@76080 Channel: 2 Note on, E2 key =  40 ; velocity: 127
@76140 Channel: 2 Note on, E2 key =  40 ; velocity: 0
@76140 Channel: 2 Note on, E2 key =  40 ; velocity: 127
@76200 Channel: 2 Note on, E2 key =  40 ; velocity: 0
@76200 Channel: 2 Note on, E3 key =  52 ; velocity: 127
@76260 Channel: 2 Note on, E3 key =  52 ; velocity: 0
@76260 Channel: 2 Note on, E2 key =  40 ; velocity: 127
@76320 Channel: 2 Note on, E2 key =  40 ; velocity: 0
@76320 Channel: 2 Note on, D3 key =  50 ; velocity: 127
@76320 Channel: 2 Note on, G3 key =  55 ; velocity: 127
@76380 Channel: 2 Note on, D3 key =  50 ; velocity: 0
@76380 Channel: 2 Note on, G3 key =  55 ; velocity: 0
@76380 Channel: 2 Note on, E2 key =  40 ; velocity: 127
@76440 Channel: 2 Note on, E2 key =  40 ; velocity: 0
@76440 Channel: 2 Note on, E2 key =  40 ; velocity: 127
@76500 Channel: 2 Note on, E2 key =  40 ; velocity: 0
@76500 Channel: 2 Note on, E3 key =  52 ; velocity: 127
@76560 Channel: 2 Note on, E3 key =  52 ; velocity: 0
@76560 Channel: 2 Note on, E2 key =  40 ; velocity: 127
@76620 Channel: 2 Note on, E2 key =  40 ; velocity: 0
@76620 Channel: 2 Note on, E2 key =  40 ; velocity: 127
@76680 Channel: 2 Note on, E2 key =  40 ; velocity: 0
@76680 Channel: 2 Note on, E3 key =  52 ; velocity: 127
@76740 Channel: 2 Note on, E3 key =  52 ; velocity: 0
@76740 Channel: 2 Note on, E2 key =  40 ; velocity: 127
@76800 Channel: 2 Note on, E2 key =  40 ; velocity: 0
@76800 Channel: 2 Note on, F#3 key =  54 ; velocity: 127
@76800 Channel: 2 Note on, C#3 key =  49 ; velocity: 127
@76860 Channel: 2 Note on, F#3 key =  54 ; velocity: 0
@76860 Channel: 2 Note on, C#3 key =  49 ; velocity: 0
@76860 Channel: 2 Note on, E2 key =  40 ; velocity: 127
@76920 Channel: 2 Note on, E2 key =  40 ; velocity: 0
@76920 Channel: 2 Note on, E2 key =  40 ; velocity: 127
@76980 Channel: 2 Note on, E2 key =  40 ; velocity: 0
@76980 Channel: 2 Note on, E3 key =  52 ; velocity: 127
@77040 Channel: 2 Note on, E3 key =  52 ; velocity: 0
@77040 Channel: 2 Note on, E2 key =  40 ; velocity: 127
@77100 Channel: 2 Note on, E2 key =  40 ; velocity: 0
@77100 Channel: 2 Note on, E2 key =  40 ; velocity: 127
@77160 Channel: 2 Note on, E2 key =  40 ; velocity: 0
@77160 Channel: 2 Note on, E3 key =  52 ; velocity: 127
@77280 Channel: 2 Note on, E3 key =  52 ; velocity: 0
@77280 Channel: 2 Note on, G2 key =  43 ; velocity: 127
@77340 Channel: 2 Note on, G2 key =  43 ; velocity: 0
@77340 Channel: 2 Note on, F#2 key =  42 ; velocity: 127
@77400 Channel: 2 Note on, F#2 key =  42 ; velocity: 0
@77400 Channel: 2 Note on, E2 key =  40 ; velocity: 127
@77460 Channel: 2 Note on, E2 key =  40 ; velocity: 0
@77460 Channel: 2 Note on, C3 key =  48 ; velocity: 127
@77520 Channel: 2 Note on, C3 key =  48 ; velocity: 0
@77520 Channel: 2 Note on, B2 key =  47 ; velocity: 127
@77580 Channel: 2 Note on, B2 key =  47 ; velocity: 0
@77580 Channel: 2 Note on, A2 key =  45 ; velocity: 127
@77640 Channel: 2 Note on, A2 key =  45 ; velocity: 0
@77640 Channel: 2 Note on, G2 key =  43 ; velocity: 127
@77700 Channel: 2 Note on, G2 key =  43 ; velocity: 0
@77700 Channel: 2 Note on, F#2 key =  42 ; velocity: 127
@77760 Channel: 2 Note on, F#2 key =  42 ; velocity: 0
@77760 Channel: 2 Note on, G2 key =  43 ; velocity: 127
@77820 Channel: 2 Note on, G2 key =  43 ; velocity: 0
@77820 Channel: 2 Note on, F#2 key =  42 ; velocity: 127
@77880 Channel: 2 Note on, F#2 key =  42 ; velocity: 0
@77880 Channel: 2 Note on, E2 key =  40 ; velocity: 127
@77940 Channel: 2 Note on, E2 key =  40 ; velocity: 0
@77940 Channel: 2 Note on, C3 key =  48 ; velocity: 127
@78000 Channel: 2 Note on, C3 key =  48 ; velocity: 0
@78000 Channel: 2 Note on, B2 key =  47 ; velocity: 127
@78060 Channel: 2 Note on, B2 key =  47 ; velocity: 0
@78060 Channel: 2 Note on, A2 key =  45 ; velocity: 127
@78120 Channel: 2 Note on, A2 key =  45 ; velocity: 0
@78120 Channel: 2 Note on, G2 key =  43 ; velocity: 127
@78180 Channel: 2 Note on, G2 key =  43 ; velocity: 0
@78180 Channel: 2 Note on, F#2 key =  42 ; velocity: 127
@78240 Channel: 2 Note on, F#2 key =  42 ; velocity: 0
@78240 Channel: 2 Note on, A2 key =  45 ; velocity: 127
@78240 Channel: 2 Note on, E3 key =  52 ; velocity: 127
@78240 Channel: 2 Note on, A3 key =  57 ; velocity: 127
@78720 Channel: 2 Note on, A2 key =  45 ; velocity: 0
@78720 Channel: 2 Note on, E3 key =  52 ; velocity: 0
@78720 Channel: 2 Note on, A3 key =  57 ; velocity: 0
@78720 Channel: 2 Command: 192

@78720 Channel: 2 Command: 176

@78720 Channel: 2 Command: 192

@78720 Channel: 2 Note on, A2 key =  45 ; velocity: 127
@78780 Channel: 2 Note on, A2 key =  45 ; velocity: 0
@78780 Channel: 2 Note on, A2 key =  45 ; velocity: 127
@78840 Channel: 2 Note on, A2 key =  45 ; velocity: 0
@78840 Channel: 2 Note on, D4 key =  62 ; velocity: 127
@78870 Channel: 2 Note on, D4 key =  62 ; velocity: 0
@78870 Channel: 2 Note on, D#4 key =  63 ; velocity: 127
@78900 Channel: 2 Note on, D#4 key =  63 ; velocity: 0
@78900 Channel: 2 Note on, D4 key =  62 ; velocity: 127
@79020 Channel: 2 Note on, D4 key =  62 ; velocity: 0
@79020 Channel: 2 Note on, A2 key =  45 ; velocity: 127
@79080 Channel: 2 Note on, A2 key =  45 ; velocity: 0
@79080 Channel: 2 Note on, A3 key =  57 ; velocity: 127
@79110 Channel: 2 Note on, A3 key =  57 ; velocity: 0
@79110 Channel: 2 Note on, A#3 key =  58 ; velocity: 127
@79140 Channel: 2 Note on, A#3 key =  58 ; velocity: 0
@79140 Channel: 2 Note on, A3 key =  57 ; velocity: 127
@79260 Channel: 2 Note on, A3 key =  57 ; velocity: 0
@79260 Channel: 2 Note on, A2 key =  45 ; velocity: 127
@79320 Channel: 2 Note on, A2 key =  45 ; velocity: 0
@79320 Channel: 2 Note on, F3 key =  53 ; velocity: 127
@79380 Channel: 2 Note on, F3 key =  53 ; velocity: 0
@79380 Channel: 2 Note on, E3 key =  52 ; velocity: 127
@79440 Channel: 2 Note on, E3 key =  52 ; velocity: 0
@79440 Channel: 2 Note on, G3 key =  55 ; velocity: 127
@79500 Channel: 2 Note on, G3 key =  55 ; velocity: 0
@79500 Channel: 2 Note on, E3 key =  52 ; velocity: 127
@79560 Channel: 2 Note on, E3 key =  52 ; velocity: 0
@79560 Channel: 2 Note on, C4 key =  60 ; velocity: 127
@79620 Channel: 2 Note on, C4 key =  60 ; velocity: 0
@79620 Channel: 2 Note on, A3 key =  57 ; velocity: 127
@79680 Channel: 2 Note on, A3 key =  57 ; velocity: 0
@79680 Channel: 2 Command: 192

@79680 Channel: 2 Command: 176

@79680 Channel: 2 Command: 192

@79680 Channel: 2 Note on, A2 key =  45 ; velocity: 127
@79740 Channel: 2 Note on, A2 key =  45 ; velocity: 0
@79740 Channel: 2 Note on, A2 key =  45 ; velocity: 127
@79800 Channel: 2 Note on, A2 key =  45 ; velocity: 0
@79800 Channel: 2 Note on, D4 key =  62 ; velocity: 127
@79830 Channel: 2 Note on, D4 key =  62 ; velocity: 0
@79830 Channel: 2 Note on, D#4 key =  63 ; velocity: 127
@79860 Channel: 2 Note on, D#4 key =  63 ; velocity: 0
@79860 Channel: 2 Note on, D4 key =  62 ; velocity: 127
@79980 Channel: 2 Note on, D4 key =  62 ; velocity: 0
@79980 Channel: 2 Note on, A2 key =  45 ; velocity: 127
@80040 Channel: 2 Note on, A2 key =  45 ; velocity: 0
@80040 Channel: 2 Note on, A3 key =  57 ; velocity: 127
@80070 Channel: 2 Note on, A3 key =  57 ; velocity: 0
@80070 Channel: 2 Note on, A#3 key =  58 ; velocity: 127
@80100 Channel: 2 Note on, A#3 key =  58 ; velocity: 0
@80100 Channel: 2 Note on, A3 key =  57 ; velocity: 127
@80220 Channel: 2 Note on, A3 key =  57 ; velocity: 0
@80220 Channel: 2 Note on, A2 key =  45 ; velocity: 127
@80280 Channel: 2 Note on, A2 key =  45 ; velocity: 0
@80280 Channel: 2 Note on, F3 key =  53 ; velocity: 127
@80340 Channel: 2 Note on, F3 key =  53 ; velocity: 0
@80340 Channel: 2 Note on, E3 key =  52 ; velocity: 127
@80400 Channel: 2 Note on, E3 key =  52 ; velocity: 0
@80400 Channel: 2 Note on, G3 key =  55 ; velocity: 127
@80460 Channel: 2 Note on, G3 key =  55 ; velocity: 0
@80460 Channel: 2 Note on, E3 key =  52 ; velocity: 127
@80520 Channel: 2 Note on, E3 key =  52 ; velocity: 0
@80520 Channel: 2 Note on, C4 key =  60 ; velocity: 127
@80580 Channel: 2 Note on, C4 key =  60 ; velocity: 0
@80580 Channel: 2 Note on, A3 key =  57 ; velocity: 127
@80640 Channel: 2 Note on, A3 key =  57 ; velocity: 0
@80640 Channel: 2 Command: 192

@80640 Channel: 2 Command: 176

@80640 Channel: 2 Command: 192

@80640 Channel: 2 Note on, A2 key =  45 ; velocity: 127
@80700 Channel: 2 Note on, A2 key =  45 ; velocity: 0
@80700 Channel: 2 Note on, A2 key =  45 ; velocity: 127
@80760 Channel: 2 Note on, A2 key =  45 ; velocity: 0
@80760 Channel: 2 Note on, D4 key =  62 ; velocity: 127
@80790 Channel: 2 Note on, D4 key =  62 ; velocity: 0
@80790 Channel: 2 Note on, D#4 key =  63 ; velocity: 127
@80820 Channel: 2 Note on, D#4 key =  63 ; velocity: 0
@80820 Channel: 2 Note on, D4 key =  62 ; velocity: 127
@80940 Channel: 2 Note on, D4 key =  62 ; velocity: 0
@80940 Channel: 2 Note on, A2 key =  45 ; velocity: 127
@81000 Channel: 2 Note on, A2 key =  45 ; velocity: 0
@81000 Channel: 2 Note on, A3 key =  57 ; velocity: 127
@81030 Channel: 2 Note on, A3 key =  57 ; velocity: 0
@81030 Channel: 2 Note on, A#3 key =  58 ; velocity: 127
@81060 Channel: 2 Note on, A#3 key =  58 ; velocity: 0
@81060 Channel: 2 Note on, A3 key =  57 ; velocity: 127
@81180 Channel: 2 Note on, A3 key =  57 ; velocity: 0
@81180 Channel: 2 Note on, A2 key =  45 ; velocity: 127
@81240 Channel: 2 Note on, A2 key =  45 ; velocity: 0
@81240 Channel: 2 Note on, F3 key =  53 ; velocity: 127
@81300 Channel: 2 Note on, F3 key =  53 ; velocity: 0
@81300 Channel: 2 Note on, E3 key =  52 ; velocity: 127
@81360 Channel: 2 Note on, E3 key =  52 ; velocity: 0
@81360 Channel: 2 Note on, G3 key =  55 ; velocity: 127
@81420 Channel: 2 Note on, G3 key =  55 ; velocity: 0
@81420 Channel: 2 Note on, E3 key =  52 ; velocity: 127
@81480 Channel: 2 Note on, E3 key =  52 ; velocity: 0
@81480 Channel: 2 Note on, C4 key =  60 ; velocity: 127
@81540 Channel: 2 Note on, C4 key =  60 ; velocity: 0
@81540 Channel: 2 Note on, A3 key =  57 ; velocity: 127
@81600 Channel: 2 Note on, A3 key =  57 ; velocity: 0
@81600 Channel: 2 Command: 192

@81600 Channel: 2 Command: 176

@81600 Channel: 2 Command: 192

@81600 Channel: 2 Note on, A2 key =  45 ; velocity: 127
@81660 Channel: 2 Note on, A2 key =  45 ; velocity: 0
@81660 Channel: 2 Note on, A2 key =  45 ; velocity: 127
@81720 Channel: 2 Note on, A2 key =  45 ; velocity: 0
@81720 Channel: 2 Note on, D4 key =  62 ; velocity: 127
@81750 Channel: 2 Note on, D4 key =  62 ; velocity: 0
@81750 Channel: 2 Note on, D#4 key =  63 ; velocity: 127
@81780 Channel: 2 Note on, D#4 key =  63 ; velocity: 0
@81780 Channel: 2 Note on, D4 key =  62 ; velocity: 127
@81900 Channel: 2 Note on, D4 key =  62 ; velocity: 0
@81900 Channel: 2 Note on, A2 key =  45 ; velocity: 127
@81960 Channel: 2 Note on, A2 key =  45 ; velocity: 0
@81960 Channel: 2 Note on, A3 key =  57 ; velocity: 127
@81990 Channel: 2 Note on, A3 key =  57 ; velocity: 0
@81990 Channel: 2 Note on, A#3 key =  58 ; velocity: 127
@82020 Channel: 2 Note on, A#3 key =  58 ; velocity: 0
@82020 Channel: 2 Note on, A3 key =  57 ; velocity: 127
@82140 Channel: 2 Note on, A3 key =  57 ; velocity: 0
@82140 Channel: 2 Note on, A2 key =  45 ; velocity: 127
@82200 Channel: 2 Note on, A2 key =  45 ; velocity: 0
@82200 Channel: 2 Note on, F3 key =  53 ; velocity: 127
@82260 Channel: 2 Note on, F3 key =  53 ; velocity: 0
@82260 Channel: 2 Note on, E3 key =  52 ; velocity: 127
@82320 Channel: 2 Note on, E3 key =  52 ; velocity: 0
@82320 Channel: 2 Note on, G3 key =  55 ; velocity: 127
@82380 Channel: 2 Note on, G3 key =  55 ; velocity: 0
@82380 Channel: 2 Note on, E3 key =  52 ; velocity: 127
@82440 Channel: 2 Note on, E3 key =  52 ; velocity: 0
@82440 Channel: 2 Note on, C4 key =  60 ; velocity: 127
@82500 Channel: 2 Note on, C4 key =  60 ; velocity: 0
@82500 Channel: 2 Note on, A3 key =  57 ; velocity: 127
@82560 Channel: 2 Note on, A3 key =  57 ; velocity: 0
@82560 Channel: 2 Command: 192

@82560 Channel: 2 Command: 176

@82560 Channel: 2 Command: 192

@82560 Channel: 2 Note on, A2 key =  45 ; velocity: 127
@82620 Channel: 2 Note on, A2 key =  45 ; velocity: 0
@82620 Channel: 2 Note on, A2 key =  45 ; velocity: 127
@82680 Channel: 2 Note on, A2 key =  45 ; velocity: 0
@82680 Channel: 2 Note on, D4 key =  62 ; velocity: 127
@82710 Channel: 2 Note on, D4 key =  62 ; velocity: 0
@82710 Channel: 2 Note on, D#4 key =  63 ; velocity: 127
@82740 Channel: 2 Note on, D#4 key =  63 ; velocity: 0
@82740 Channel: 2 Note on, D4 key =  62 ; velocity: 127
@82860 Channel: 2 Note on, D4 key =  62 ; velocity: 0
@82860 Channel: 2 Note on, A2 key =  45 ; velocity: 127
@82920 Channel: 2 Note on, A2 key =  45 ; velocity: 0
@82920 Channel: 2 Note on, A3 key =  57 ; velocity: 127
@82950 Channel: 2 Note on, A3 key =  57 ; velocity: 0
@82950 Channel: 2 Note on, A#3 key =  58 ; velocity: 127
@82980 Channel: 2 Note on, A#3 key =  58 ; velocity: 0
@82980 Channel: 2 Note on, A3 key =  57 ; velocity: 127
@83100 Channel: 2 Note on, A3 key =  57 ; velocity: 0
@83100 Channel: 2 Note on, A2 key =  45 ; velocity: 127
@83160 Channel: 2 Note on, A2 key =  45 ; velocity: 0
@83160 Channel: 2 Note on, F3 key =  53 ; velocity: 127
@83220 Channel: 2 Note on, F3 key =  53 ; velocity: 0
@83220 Channel: 2 Note on, E3 key =  52 ; velocity: 127
@83280 Channel: 2 Note on, E3 key =  52 ; velocity: 0
@83280 Channel: 2 Note on, G3 key =  55 ; velocity: 127
@83340 Channel: 2 Note on, G3 key =  55 ; velocity: 0
@83340 Channel: 2 Note on, E3 key =  52 ; velocity: 127
@83400 Channel: 2 Note on, E3 key =  52 ; velocity: 0
@83400 Channel: 2 Note on, C4 key =  60 ; velocity: 127
@83460 Channel: 2 Note on, C4 key =  60 ; velocity: 0
@83460 Channel: 2 Note on, A3 key =  57 ; velocity: 127
@83520 Channel: 2 Note on, A3 key =  57 ; velocity: 0
@83520 Channel: 2 Command: 192

@83520 Channel: 2 Command: 176

@83520 Channel: 2 Command: 192

@83520 Channel: 2 Note on, A2 key =  45 ; velocity: 127
@83580 Channel: 2 Note on, A2 key =  45 ; velocity: 0
@83580 Channel: 2 Note on, A2 key =  45 ; velocity: 127
@83640 Channel: 2 Note on, A2 key =  45 ; velocity: 0
@83640 Channel: 2 Note on, D4 key =  62 ; velocity: 127
@83670 Channel: 2 Note on, D4 key =  62 ; velocity: 0
@83670 Channel: 2 Note on, D#4 key =  63 ; velocity: 127
@83700 Channel: 2 Note on, D#4 key =  63 ; velocity: 0
@83700 Channel: 2 Note on, D4 key =  62 ; velocity: 127
@83820 Channel: 2 Note on, D4 key =  62 ; velocity: 0
@83820 Channel: 2 Note on, A2 key =  45 ; velocity: 127
@83880 Channel: 2 Note on, A2 key =  45 ; velocity: 0
@83880 Channel: 2 Note on, A3 key =  57 ; velocity: 127
@83910 Channel: 2 Note on, A3 key =  57 ; velocity: 0
@83910 Channel: 2 Note on, A#3 key =  58 ; velocity: 127
@83940 Channel: 2 Note on, A#3 key =  58 ; velocity: 0
@83940 Channel: 2 Note on, A3 key =  57 ; velocity: 127
@84060 Channel: 2 Note on, A3 key =  57 ; velocity: 0
@84060 Channel: 2 Note on, A2 key =  45 ; velocity: 127
@84120 Channel: 2 Note on, A2 key =  45 ; velocity: 0
@84120 Channel: 2 Note on, F3 key =  53 ; velocity: 127
@84180 Channel: 2 Note on, F3 key =  53 ; velocity: 0
@84180 Channel: 2 Note on, E3 key =  52 ; velocity: 127
@84240 Channel: 2 Note on, E3 key =  52 ; velocity: 0
@84240 Channel: 2 Note on, G3 key =  55 ; velocity: 127
@84300 Channel: 2 Note on, G3 key =  55 ; velocity: 0
@84300 Channel: 2 Note on, E3 key =  52 ; velocity: 127
@84360 Channel: 2 Note on, E3 key =  52 ; velocity: 0
@84360 Channel: 2 Note on, C4 key =  60 ; velocity: 127
@84420 Channel: 2 Note on, C4 key =  60 ; velocity: 0
@84420 Channel: 2 Note on, A3 key =  57 ; velocity: 127
@84480 Channel: 2 Note on, A3 key =  57 ; velocity: 0
@84480 Channel: 2 Command: 192

@84480 Channel: 2 Command: 176

@84480 Channel: 2 Command: 192

@84480 Channel: 2 Note on, A2 key =  45 ; velocity: 127
@84540 Channel: 2 Note on, A2 key =  45 ; velocity: 0
@84540 Channel: 2 Note on, A2 key =  45 ; velocity: 127
@84600 Channel: 2 Note on, A2 key =  45 ; velocity: 0
@84600 Channel: 2 Note on, D4 key =  62 ; velocity: 127
@84630 Channel: 2 Note on, D4 key =  62 ; velocity: 0
@84630 Channel: 2 Note on, D#4 key =  63 ; velocity: 127
@84660 Channel: 2 Note on, D#4 key =  63 ; velocity: 0
@84660 Channel: 2 Note on, D4 key =  62 ; velocity: 127
@84780 Channel: 2 Note on, D4 key =  62 ; velocity: 0
@84780 Channel: 2 Note on, A2 key =  45 ; velocity: 127
@84840 Channel: 2 Note on, A2 key =  45 ; velocity: 0
@84840 Channel: 2 Note on, A3 key =  57 ; velocity: 127
@84870 Channel: 2 Note on, A3 key =  57 ; velocity: 0
@84870 Channel: 2 Note on, A#3 key =  58 ; velocity: 127
@84900 Channel: 2 Note on, A#3 key =  58 ; velocity: 0
@84900 Channel: 2 Note on, A3 key =  57 ; velocity: 127
@85020 Channel: 2 Note on, A3 key =  57 ; velocity: 0
@85020 Channel: 2 Note on, A2 key =  45 ; velocity: 127
@85080 Channel: 2 Note on, A2 key =  45 ; velocity: 0
@85080 Channel: 2 Note on, F3 key =  53 ; velocity: 127
@85140 Channel: 2 Note on, F3 key =  53 ; velocity: 0
@85140 Channel: 2 Note on, E3 key =  52 ; velocity: 127
@85200 Channel: 2 Note on, E3 key =  52 ; velocity: 0
@85200 Channel: 2 Note on, G3 key =  55 ; velocity: 127
@85260 Channel: 2 Note on, G3 key =  55 ; velocity: 0
@85260 Channel: 2 Note on, E3 key =  52 ; velocity: 127
@85320 Channel: 2 Note on, E3 key =  52 ; velocity: 0
@85320 Channel: 2 Note on, C4 key =  60 ; velocity: 127
@85380 Channel: 2 Note on, C4 key =  60 ; velocity: 0
@85380 Channel: 2 Note on, A3 key =  57 ; velocity: 127
@85440 Channel: 2 Note on, A3 key =  57 ; velocity: 0
@85440 Channel: 2 Command: 192

@85440 Channel: 2 Command: 176

@85440 Channel: 2 Command: 192

@85440 Channel: 2 Note on, A2 key =  45 ; velocity: 127
@85500 Channel: 2 Note on, A2 key =  45 ; velocity: 0
@85500 Channel: 2 Note on, A2 key =  45 ; velocity: 127
@85560 Channel: 2 Note on, A2 key =  45 ; velocity: 0
@85560 Channel: 2 Note on, D4 key =  62 ; velocity: 127
@85590 Channel: 2 Note on, D4 key =  62 ; velocity: 0
@85590 Channel: 2 Note on, D#4 key =  63 ; velocity: 127
@85620 Channel: 2 Note on, D#4 key =  63 ; velocity: 0
@85620 Channel: 2 Note on, D4 key =  62 ; velocity: 127
@85740 Channel: 2 Note on, D4 key =  62 ; velocity: 0
@85740 Channel: 2 Note on, A2 key =  45 ; velocity: 127
@85800 Channel: 2 Note on, A2 key =  45 ; velocity: 0
@85800 Channel: 2 Note on, A3 key =  57 ; velocity: 127
@85830 Channel: 2 Note on, A3 key =  57 ; velocity: 0
@85830 Channel: 2 Note on, A#3 key =  58 ; velocity: 127
@85860 Channel: 2 Note on, A#3 key =  58 ; velocity: 0
@85860 Channel: 2 Note on, A3 key =  57 ; velocity: 127
@85980 Channel: 2 Note on, A3 key =  57 ; velocity: 0
@85980 Channel: 2 Note on, A2 key =  45 ; velocity: 127
@86040 Channel: 2 Note on, A2 key =  45 ; velocity: 0
@86040 Channel: 2 Note on, F3 key =  53 ; velocity: 127
@86100 Channel: 2 Note on, F3 key =  53 ; velocity: 0
@86100 Channel: 2 Note on, E3 key =  52 ; velocity: 127
@86160 Channel: 2 Note on, E3 key =  52 ; velocity: 0
@86160 Channel: 2 Note on, G3 key =  55 ; velocity: 127
@86220 Channel: 2 Note on, G3 key =  55 ; velocity: 0
@86220 Channel: 2 Note on, E3 key =  52 ; velocity: 127
@86280 Channel: 2 Note on, E3 key =  52 ; velocity: 0
@86280 Channel: 2 Note on, C4 key =  60 ; velocity: 127
@86340 Channel: 2 Note on, C4 key =  60 ; velocity: 0
@86340 Channel: 2 Note on, A3 key =  57 ; velocity: 127
@86400 Channel: 2 Note on, A3 key =  57 ; velocity: 0
@86400 Channel: 2 Note on, E4 key =  64 ; velocity: 127
@86460 Channel: 2 Note on, E4 key =  64 ; velocity: 0
@86460 Channel: 2 Note on, D4 key =  62 ; velocity: 127
@86520 Channel: 2 Note on, D4 key =  62 ; velocity: 0
@86520 Channel: 2 Note on, B3 key =  59 ; velocity: 127
@86580 Channel: 2 Note on, B3 key =  59 ; velocity: 0
@86580 Channel: 2 Note on, D4 key =  62 ; velocity: 127
@86640 Channel: 2 Note on, D4 key =  62 ; velocity: 0
@86640 Channel: 2 Note on, B3 key =  59 ; velocity: 127
@86700 Channel: 2 Note on, B3 key =  59 ; velocity: 0
@86700 Channel: 2 Note on, A#3 key =  58 ; velocity: 127
@86760 Channel: 2 Note on, A#3 key =  58 ; velocity: 0
@86760 Channel: 2 Note on, A3 key =  57 ; velocity: 127
@86820 Channel: 2 Note on, A3 key =  57 ; velocity: 0
@86820 Channel: 2 Note on, G3 key =  55 ; velocity: 127
@86880 Channel: 2 Note on, G3 key =  55 ; velocity: 0
@86880 Channel: 2 Note on, E2 key =  40 ; velocity: 127
@86940 Channel: 2 Note on, E2 key =  40 ; velocity: 0
@86940 Channel: 2 Note on, E2 key =  40 ; velocity: 127
@87000 Channel: 2 Note on, E2 key =  40 ; velocity: 0
@87000 Channel: 2 Note on, E2 key =  40 ; velocity: 127
@87060 Channel: 2 Note on, E2 key =  40 ; velocity: 0
@87060 Channel: 2 Note on, E2 key =  40 ; velocity: 127
@87120 Channel: 2 Note on, E2 key =  40 ; velocity: 0
@87120 Channel: 2 Note on, G3 key =  55 ; velocity: 127
@87120 Channel: 2 Note on, D3 key =  50 ; velocity: 127
@87180 Channel: 2 Note on, G3 key =  55 ; velocity: 0
@87180 Channel: 2 Note on, D3 key =  50 ; velocity: 0
@87180 Channel: 2 Note on, E3 key =  52 ; velocity: 127
@87180 Channel: 2 Note on, A3 key =  57 ; velocity: 127
@87240 Channel: 2 Note on, E3 key =  52 ; velocity: 0
@87240 Channel: 2 Note on, A3 key =  57 ; velocity: 0
@87240 Channel: 2 Note on, D3 key =  50 ; velocity: 127
@87240 Channel: 2 Note on, G3 key =  55 ; velocity: 127
@87300 Channel: 2 Note on, D3 key =  50 ; velocity: 0
@87300 Channel: 2 Note on, G3 key =  55 ; velocity: 0
@87300 Channel: 2 Note on, A3 key =  57 ; velocity: 127
@87300 Channel: 2 Note on, E3 key =  52 ; velocity: 127
@87360 Channel: 2 Note on, A3 key =  57 ; velocity: 0
@87360 Channel: 2 Note on, E3 key =  52 ; velocity: 0
@87360 Channel: 2 Note on, E2 key =  40 ; velocity: 127
@87420 Channel: 2 Note on, E2 key =  40 ; velocity: 0
@87420 Channel: 2 Note on, E2 key =  40 ; velocity: 127
@87480 Channel: 2 Note on, E2 key =  40 ; velocity: 0
@87480 Channel: 2 Note on, E2 key =  40 ; velocity: 127
@87540 Channel: 2 Note on, E2 key =  40 ; velocity: 0
@87540 Channel: 2 Note on, E2 key =  40 ; velocity: 127
@87600 Channel: 2 Note on, E2 key =  40 ; velocity: 0
@87600 Channel: 2 Note on, E3 key =  52 ; velocity: 127
@87660 Channel: 2 Note on, E3 key =  52 ; velocity: 0
@87660 Channel: 2 Note on, D3 key =  50 ; velocity: 127
@87720 Channel: 2 Note on, D3 key =  50 ; velocity: 0
@87720 Channel: 2 Note on, B2 key =  47 ; velocity: 127
@87780 Channel: 2 Note on, B2 key =  47 ; velocity: 0
@87780 Channel: 2 Note on, A#2 key =  46 ; velocity: 127
@87840 Channel: 2 Note on, A#2 key =  46 ; velocity: 0
@87840 Channel: 2 Note on, E2 key =  40 ; velocity: 127
@87900 Channel: 2 Note on, E2 key =  40 ; velocity: 0
@87900 Channel: 2 Note on, E2 key =  40 ; velocity: 127
@87960 Channel: 2 Note on, E2 key =  40 ; velocity: 0
@87960 Channel: 2 Note on, E2 key =  40 ; velocity: 127
@88020 Channel: 2 Note on, E2 key =  40 ; velocity: 0
@88020 Channel: 2 Note on, E2 key =  40 ; velocity: 127
@88080 Channel: 2 Note on, E2 key =  40 ; velocity: 0
@88080 Channel: 2 Note on, G3 key =  55 ; velocity: 127
@88080 Channel: 2 Note on, D3 key =  50 ; velocity: 127
@88140 Channel: 2 Note on, G3 key =  55 ; velocity: 0
@88140 Channel: 2 Note on, D3 key =  50 ; velocity: 0
@88140 Channel: 2 Note on, E3 key =  52 ; velocity: 127
@88140 Channel: 2 Note on, A3 key =  57 ; velocity: 127
@88200 Channel: 2 Note on, E3 key =  52 ; velocity: 0
@88200 Channel: 2 Note on, A3 key =  57 ; velocity: 0
@88200 Channel: 2 Note on, D3 key =  50 ; velocity: 127
@88200 Channel: 2 Note on, G3 key =  55 ; velocity: 127
@88260 Channel: 2 Note on, D3 key =  50 ; velocity: 0
@88260 Channel: 2 Note on, G3 key =  55 ; velocity: 0
@88260 Channel: 2 Note on, A3 key =  57 ; velocity: 127
@88260 Channel: 2 Note on, E3 key =  52 ; velocity: 127
@88320 Channel: 2 Note on, A3 key =  57 ; velocity: 0
@88320 Channel: 2 Note on, E3 key =  52 ; velocity: 0
@88320 Channel: 2 Note on, E2 key =  40 ; velocity: 127
@88380 Channel: 2 Note on, E2 key =  40 ; velocity: 0
@88380 Channel: 2 Note on, E2 key =  40 ; velocity: 127
@88440 Channel: 2 Note on, E2 key =  40 ; velocity: 0
@88440 Channel: 2 Note on, E2 key =  40 ; velocity: 127
@88500 Channel: 2 Note on, E2 key =  40 ; velocity: 0
@88500 Channel: 2 Note on, E2 key =  40 ; velocity: 127
@88560 Channel: 2 Note on, E2 key =  40 ; velocity: 0
@88560 Channel: 2 Note on, E3 key =  52 ; velocity: 127
@88620 Channel: 2 Note on, E3 key =  52 ; velocity: 0
@88620 Channel: 2 Note on, D3 key =  50 ; velocity: 127
@88680 Channel: 2 Note on, D3 key =  50 ; velocity: 0
@88680 Channel: 2 Note on, B2 key =  47 ; velocity: 127
@88740 Channel: 2 Note on, B2 key =  47 ; velocity: 0
@88740 Channel: 2 Note on, A#2 key =  46 ; velocity: 127
@88800 Channel: 2 Note on, A#2 key =  46 ; velocity: 0
@88800 Channel: 2 Note on, E2 key =  40 ; velocity: 127
@88860 Channel: 2 Note on, E2 key =  40 ; velocity: 0
@88860 Channel: 2 Note on, E2 key =  40 ; velocity: 127
@88920 Channel: 2 Note on, E2 key =  40 ; velocity: 0
@88920 Channel: 2 Note on, E2 key =  40 ; velocity: 127
@88980 Channel: 2 Note on, E2 key =  40 ; velocity: 0
@88980 Channel: 2 Note on, E2 key =  40 ; velocity: 127
@89040 Channel: 2 Note on, E2 key =  40 ; velocity: 0
@89040 Channel: 2 Note on, G3 key =  55 ; velocity: 127
@89040 Channel: 2 Note on, D3 key =  50 ; velocity: 127
@89100 Channel: 2 Note on, G3 key =  55 ; velocity: 0
@89100 Channel: 2 Note on, D3 key =  50 ; velocity: 0
@89100 Channel: 2 Note on, E3 key =  52 ; velocity: 127
@89100 Channel: 2 Note on, A3 key =  57 ; velocity: 127
@89160 Channel: 2 Note on, E3 key =  52 ; velocity: 0
@89160 Channel: 2 Note on, A3 key =  57 ; velocity: 0
@89160 Channel: 2 Note on, D3 key =  50 ; velocity: 127
@89160 Channel: 2 Note on, G3 key =  55 ; velocity: 127
@89220 Channel: 2 Note on, D3 key =  50 ; velocity: 0
@89220 Channel: 2 Note on, G3 key =  55 ; velocity: 0
@89220 Channel: 2 Note on, A3 key =  57 ; velocity: 127
@89220 Channel: 2 Note on, E3 key =  52 ; velocity: 127
@89280 Channel: 2 Note on, A3 key =  57 ; velocity: 0
@89280 Channel: 2 Note on, E3 key =  52 ; velocity: 0
@89280 Channel: 2 Note on, E2 key =  40 ; velocity: 127
@89340 Channel: 2 Note on, E2 key =  40 ; velocity: 0
@89340 Channel: 2 Note on, E2 key =  40 ; velocity: 127
@89400 Channel: 2 Note on, E2 key =  40 ; velocity: 0
@89400 Channel: 2 Note on, E2 key =  40 ; velocity: 127
@89460 Channel: 2 Note on, E2 key =  40 ; velocity: 0
@89460 Channel: 2 Note on, E2 key =  40 ; velocity: 127
@89520 Channel: 2 Note on, E2 key =  40 ; velocity: 0
@89520 Channel: 2 Note on, E3 key =  52 ; velocity: 127
@89580 Channel: 2 Note on, E3 key =  52 ; velocity: 0
@89580 Channel: 2 Note on, D3 key =  50 ; velocity: 127
@89640 Channel: 2 Note on, D3 key =  50 ; velocity: 0
@89640 Channel: 2 Note on, B2 key =  47 ; velocity: 127
@89700 Channel: 2 Note on, B2 key =  47 ; velocity: 0
@89700 Channel: 2 Note on, A#2 key =  46 ; velocity: 127
@89760 Channel: 2 Note on, A#2 key =  46 ; velocity: 0
@89760 Channel: 2 Note on, E2 key =  40 ; velocity: 127
@89820 Channel: 2 Note on, E2 key =  40 ; velocity: 0
@89820 Channel: 2 Note on, E2 key =  40 ; velocity: 127
@89880 Channel: 2 Note on, E2 key =  40 ; velocity: 0
@89880 Channel: 2 Note on, E2 key =  40 ; velocity: 127
@89940 Channel: 2 Note on, E2 key =  40 ; velocity: 0
@89940 Channel: 2 Note on, E2 key =  40 ; velocity: 127
@90000 Channel: 2 Note on, E2 key =  40 ; velocity: 0
@90000 Channel: 2 Note on, G3 key =  55 ; velocity: 127
@90000 Channel: 2 Note on, D3 key =  50 ; velocity: 127
@90060 Channel: 2 Note on, G3 key =  55 ; velocity: 0
@90060 Channel: 2 Note on, D3 key =  50 ; velocity: 0
@90060 Channel: 2 Note on, E3 key =  52 ; velocity: 127
@90060 Channel: 2 Note on, A3 key =  57 ; velocity: 127
@90120 Channel: 2 Note on, E3 key =  52 ; velocity: 0
@90120 Channel: 2 Note on, A3 key =  57 ; velocity: 0
@90120 Channel: 2 Note on, D3 key =  50 ; velocity: 127
@90120 Channel: 2 Note on, G3 key =  55 ; velocity: 127
@90180 Channel: 2 Note on, D3 key =  50 ; velocity: 0
@90180 Channel: 2 Note on, G3 key =  55 ; velocity: 0
@90180 Channel: 2 Note on, A3 key =  57 ; velocity: 127
@90180 Channel: 2 Note on, E3 key =  52 ; velocity: 127
@90240 Channel: 2 Note on, A3 key =  57 ; velocity: 0
@90240 Channel: 2 Note on, E3 key =  52 ; velocity: 0
@90240 Channel: 2 Note on, E2 key =  40 ; velocity: 127
@90300 Channel: 2 Note on, E2 key =  40 ; velocity: 0
@90300 Channel: 2 Note on, E2 key =  40 ; velocity: 127
@90360 Channel: 2 Note on, E2 key =  40 ; velocity: 0
@90360 Channel: 2 Note on, E2 key =  40 ; velocity: 127
@90420 Channel: 2 Note on, E2 key =  40 ; velocity: 0
@90420 Channel: 2 Note on, E2 key =  40 ; velocity: 127
@90480 Channel: 2 Note on, E2 key =  40 ; velocity: 0
@90480 Channel: 2 Note on, E3 key =  52 ; velocity: 127
@90540 Channel: 2 Note on, E3 key =  52 ; velocity: 0
@90540 Channel: 2 Note on, D3 key =  50 ; velocity: 127
@90600 Channel: 2 Note on, D3 key =  50 ; velocity: 0
@90600 Channel: 2 Note on, B2 key =  47 ; velocity: 127
@90660 Channel: 2 Note on, B2 key =  47 ; velocity: 0
@90660 Channel: 2 Note on, A#2 key =  46 ; velocity: 127
@90720 Channel: 2 Note on, A#2 key =  46 ; velocity: 0
@90720 Channel: 2 Note on, E2 key =  40 ; velocity: 127
@90780 Channel: 2 Note on, E2 key =  40 ; velocity: 0
@90780 Channel: 2 Note on, E2 key =  40 ; velocity: 127
@90840 Channel: 2 Note on, E2 key =  40 ; velocity: 0
@90840 Channel: 2 Note on, E2 key =  40 ; velocity: 127
@90900 Channel: 2 Note on, E2 key =  40 ; velocity: 0
@90900 Channel: 2 Note on, E2 key =  40 ; velocity: 127
@90960 Channel: 2 Note on, E2 key =  40 ; velocity: 0
@90960 Channel: 2 Note on, E2 key =  40 ; velocity: 127
@91020 Channel: 2 Note on, E2 key =  40 ; velocity: 0
@91020 Channel: 2 Note on, E2 key =  40 ; velocity: 127
@91080 Channel: 2 Note on, E2 key =  40 ; velocity: 0
@91080 Channel: 2 Note on, E2 key =  40 ; velocity: 127
@91140 Channel: 2 Note on, E2 key =  40 ; velocity: 0
@91140 Channel: 2 Note on, E2 key =  40 ; velocity: 127
@91200 Channel: 2 Note on, E2 key =  40 ; velocity: 0
@91200 Channel: 2 Note on, E2 key =  40 ; velocity: 127
@91260 Channel: 2 Note on, E2 key =  40 ; velocity: 0
@91260 Channel: 2 Note on, E2 key =  40 ; velocity: 127
@91320 Channel: 2 Note on, E2 key =  40 ; velocity: 0
@91320 Channel: 2 Note on, E2 key =  40 ; velocity: 127
@91380 Channel: 2 Note on, E2 key =  40 ; velocity: 0
@91380 Channel: 2 Note on, E2 key =  40 ; velocity: 127
@91440 Channel: 2 Note on, E2 key =  40 ; velocity: 0
@91440 Channel: 2 Note on, B2 key =  47 ; velocity: 127
@91500 Channel: 2 Note on, B2 key =  47 ; velocity: 0
@91500 Channel: 2 Note on, A#2 key =  46 ; velocity: 127
@91560 Channel: 2 Note on, A#2 key =  46 ; velocity: 0
@91560 Channel: 2 Note on, G3 key =  55 ; velocity: 127
@91620 Channel: 2 Note on, G3 key =  55 ; velocity: 0
@91620 Channel: 2 Note on, E3 key =  52 ; velocity: 127
@91680 Channel: 2 Note on, E3 key =  52 ; velocity: 0
@91680 Channel: 2 Note on, E2 key =  40 ; velocity: 127
@91740 Channel: 2 Note on, E2 key =  40 ; velocity: 0
@91740 Channel: 2 Note on, E2 key =  40 ; velocity: 127
@91800 Channel: 2 Note on, E2 key =  40 ; velocity: 0
@91800 Channel: 2 Note on, E2 key =  40 ; velocity: 127
@91860 Channel: 2 Note on, E2 key =  40 ; velocity: 0
@91860 Channel: 2 Note on, E2 key =  40 ; velocity: 127
@91920 Channel: 2 Note on, E2 key =  40 ; velocity: 0
@91920 Channel: 2 Note on, E2 key =  40 ; velocity: 127
@91980 Channel: 2 Note on, E2 key =  40 ; velocity: 0
@91980 Channel: 2 Note on, E2 key =  40 ; velocity: 127
@92040 Channel: 2 Note on, E2 key =  40 ; velocity: 0
@92040 Channel: 2 Note on, E2 key =  40 ; velocity: 127
@92100 Channel: 2 Note on, E2 key =  40 ; velocity: 0
@92100 Channel: 2 Note on, E2 key =  40 ; velocity: 127
@92160 Channel: 2 Note on, E2 key =  40 ; velocity: 0
@92160 Channel: 2 Note on, E2 key =  40 ; velocity: 127
@92220 Channel: 2 Note on, E2 key =  40 ; velocity: 0
@92220 Channel: 2 Note on, E2 key =  40 ; velocity: 127
@92280 Channel: 2 Note on, E2 key =  40 ; velocity: 0
@92280 Channel: 2 Note on, E2 key =  40 ; velocity: 127
@92340 Channel: 2 Note on, E2 key =  40 ; velocity: 0
@92340 Channel: 2 Note on, E2 key =  40 ; velocity: 127
@92400 Channel: 2 Note on, E2 key =  40 ; velocity: 0
@92400 Channel: 2 Note on, B2 key =  47 ; velocity: 127
@92460 Channel: 2 Note on, B2 key =  47 ; velocity: 0
@92460 Channel: 2 Note on, A#2 key =  46 ; velocity: 127
@92520 Channel: 2 Note on, A#2 key =  46 ; velocity: 0
@92520 Channel: 2 Note on, G3 key =  55 ; velocity: 127
@92580 Channel: 2 Note on, G3 key =  55 ; velocity: 0
@92580 Channel: 2 Note on, E3 key =  52 ; velocity: 127
@92640 Channel: 2 Note on, E3 key =  52 ; velocity: 0
@92640 Channel: 2 Note on, E2 key =  40 ; velocity: 127
@92700 Channel: 2 Note on, E2 key =  40 ; velocity: 0
@92700 Channel: 2 Note on, E2 key =  40 ; velocity: 127
@92760 Channel: 2 Note on, E2 key =  40 ; velocity: 0
@92760 Channel: 2 Note on, E2 key =  40 ; velocity: 127
@92820 Channel: 2 Note on, E2 key =  40 ; velocity: 0
@92820 Channel: 2 Note on, E2 key =  40 ; velocity: 127
@92880 Channel: 2 Note on, E2 key =  40 ; velocity: 0
@92880 Channel: 2 Note on, E2 key =  40 ; velocity: 127
@92940 Channel: 2 Note on, E2 key =  40 ; velocity: 0
@92940 Channel: 2 Note on, E2 key =  40 ; velocity: 127
@93000 Channel: 2 Note on, E2 key =  40 ; velocity: 0
@93000 Channel: 2 Note on, E2 key =  40 ; velocity: 127
@93060 Channel: 2 Note on, E2 key =  40 ; velocity: 0
@93060 Channel: 2 Note on, E2 key =  40 ; velocity: 127
@93120 Channel: 2 Note on, E2 key =  40 ; velocity: 0
@93120 Channel: 2 Note on, E2 key =  40 ; velocity: 127
@93180 Channel: 2 Note on, E2 key =  40 ; velocity: 0
@93180 Channel: 2 Note on, E2 key =  40 ; velocity: 127
@93240 Channel: 2 Note on, E2 key =  40 ; velocity: 0
@93240 Channel: 2 Note on, E2 key =  40 ; velocity: 127
@93300 Channel: 2 Note on, E2 key =  40 ; velocity: 0
@93300 Channel: 2 Note on, E2 key =  40 ; velocity: 127
@93360 Channel: 2 Note on, E2 key =  40 ; velocity: 0
@93360 Channel: 2 Note on, B2 key =  47 ; velocity: 127
@93420 Channel: 2 Note on, B2 key =  47 ; velocity: 0
@93420 Channel: 2 Note on, A#2 key =  46 ; velocity: 127
@93480 Channel: 2 Note on, A#2 key =  46 ; velocity: 0
@93480 Channel: 2 Note on, G3 key =  55 ; velocity: 127
@93540 Channel: 2 Note on, G3 key =  55 ; velocity: 0
@93540 Channel: 2 Note on, E3 key =  52 ; velocity: 127
@93600 Channel: 2 Note on, E3 key =  52 ; velocity: 0
@93600 Channel: 2 Note on, E2 key =  40 ; velocity: 127
@93660 Channel: 2 Note on, E2 key =  40 ; velocity: 0
@93660 Channel: 2 Note on, E2 key =  40 ; velocity: 127
@93720 Channel: 2 Note on, E2 key =  40 ; velocity: 0
@93720 Channel: 2 Note on, E2 key =  40 ; velocity: 127
@93780 Channel: 2 Note on, E2 key =  40 ; velocity: 0
@93780 Channel: 2 Note on, E2 key =  40 ; velocity: 127
@93840 Channel: 2 Note on, E2 key =  40 ; velocity: 0
@93840 Channel: 2 Note on, E2 key =  40 ; velocity: 127
@93900 Channel: 2 Note on, E2 key =  40 ; velocity: 0
@93900 Channel: 2 Note on, E2 key =  40 ; velocity: 127
@93960 Channel: 2 Note on, E2 key =  40 ; velocity: 0
@93960 Channel: 2 Note on, E2 key =  40 ; velocity: 127
@94020 Channel: 2 Note on, E2 key =  40 ; velocity: 0
@94020 Channel: 2 Note on, E2 key =  40 ; velocity: 127
@94080 Channel: 2 Note on, E2 key =  40 ; velocity: 0
@94080 Channel: 2 Note on, E2 key =  40 ; velocity: 127
@94140 Channel: 2 Note on, E2 key =  40 ; velocity: 0
@94140 Channel: 2 Note on, E2 key =  40 ; velocity: 127
@94200 Channel: 2 Note on, E2 key =  40 ; velocity: 0
@94200 Channel: 2 Note on, E2 key =  40 ; velocity: 127
@94260 Channel: 2 Note on, E2 key =  40 ; velocity: 0
@94260 Channel: 2 Note on, E2 key =  40 ; velocity: 127
@94320 Channel: 2 Note on, E2 key =  40 ; velocity: 0
@94320 Channel: 2 Note on, B2 key =  47 ; velocity: 127
@94380 Channel: 2 Note on, B2 key =  47 ; velocity: 0
@94380 Channel: 2 Note on, A#2 key =  46 ; velocity: 127
@94440 Channel: 2 Note on, A#2 key =  46 ; velocity: 0
@94440 Channel: 2 Note on, G3 key =  55 ; velocity: 127
@94500 Channel: 2 Note on, G3 key =  55 ; velocity: 0
@94500 Channel: 2 Note on, E3 key =  52 ; velocity: 127
@94560 Channel: 2 Note on, E3 key =  52 ; velocity: 0
@94560 Channel: 2 Note on, C4 key =  60 ; velocity: 127
@94560 Channel: 2 Note on, G3 key =  55 ; velocity: 127
@94620 Channel: 2 Note on, C4 key =  60 ; velocity: 0
@94620 Channel: 2 Note on, G3 key =  55 ; velocity: 0
@94620 Channel: 2 Note on, E2 key =  40 ; velocity: 127
@94680 Channel: 2 Note on, E2 key =  40 ; velocity: 0
@94680 Channel: 2 Note on, E2 key =  40 ; velocity: 127
@94740 Channel: 2 Note on, E2 key =  40 ; velocity: 0
@94740 Channel: 2 Note on, E2 key =  40 ; velocity: 127
@94800 Channel: 2 Note on, E2 key =  40 ; velocity: 0
@94800 Channel: 2 Note on, G3 key =  55 ; velocity: 127
@94800 Channel: 2 Note on, C4 key =  60 ; velocity: 127
@94860 Channel: 2 Note on, G3 key =  55 ; velocity: 0
@94860 Channel: 2 Note on, C4 key =  60 ; velocity: 0
@94860 Channel: 2 Note on, D4 key =  62 ; velocity: 127
@94860 Channel: 2 Note on, A3 key =  57 ; velocity: 127
@94920 Channel: 2 Note on, D4 key =  62 ; velocity: 0
@94920 Channel: 2 Note on, A3 key =  57 ; velocity: 0
@94920 Channel: 2 Note on, G3 key =  55 ; velocity: 127
@94920 Channel: 2 Note on, C4 key =  60 ; velocity: 127
@95040 Channel: 2 Note on, G3 key =  55 ; velocity: 0
@95040 Channel: 2 Note on, C4 key =  60 ; velocity: 0
@95040 Channel: 2 Note on, C4 key =  60 ; velocity: 127
@95040 Channel: 2 Note on, G3 key =  55 ; velocity: 127
@95100 Channel: 2 Note on, C4 key =  60 ; velocity: 0
@95100 Channel: 2 Note on, G3 key =  55 ; velocity: 0
@95100 Channel: 2 Note on, E2 key =  40 ; velocity: 127
@95160 Channel: 2 Note on, E2 key =  40 ; velocity: 0
@95160 Channel: 2 Note on, E2 key =  40 ; velocity: 127
@95220 Channel: 2 Note on, E2 key =  40 ; velocity: 0
@95220 Channel: 2 Note on, E2 key =  40 ; velocity: 127
@95280 Channel: 2 Note on, E2 key =  40 ; velocity: 0
@95280 Channel: 2 Note on, G3 key =  55 ; velocity: 127
@95280 Channel: 2 Note on, C4 key =  60 ; velocity: 127
@95340 Channel: 2 Note on, G3 key =  55 ; velocity: 0
@95340 Channel: 2 Note on, C4 key =  60 ; velocity: 0
@95340 Channel: 2 Note on, D4 key =  62 ; velocity: 127
@95340 Channel: 2 Note on, A3 key =  57 ; velocity: 127
@95400 Channel: 2 Note on, D4 key =  62 ; velocity: 0
@95400 Channel: 2 Note on, A3 key =  57 ; velocity: 0
@95400 Channel: 2 Note on, G3 key =  55 ; velocity: 127
@95400 Channel: 2 Note on, C4 key =  60 ; velocity: 127
@95520 Channel: 2 Note on, G3 key =  55 ; velocity: 0
@95520 Channel: 2 Note on, C4 key =  60 ; velocity: 0
@95520 Channel: 2 Note on, C4 key =  60 ; velocity: 127
@95520 Channel: 2 Note on, G3 key =  55 ; velocity: 127
@95580 Channel: 2 Note on, C4 key =  60 ; velocity: 0
@95580 Channel: 2 Note on, G3 key =  55 ; velocity: 0
@95580 Channel: 2 Note on, E2 key =  40 ; velocity: 127
@95640 Channel: 2 Note on, E2 key =  40 ; velocity: 0
@95640 Channel: 2 Note on, E2 key =  40 ; velocity: 127
@95700 Channel: 2 Note on, E2 key =  40 ; velocity: 0
@95700 Channel: 2 Note on, E2 key =  40 ; velocity: 127
@95760 Channel: 2 Note on, E2 key =  40 ; velocity: 0
@95760 Channel: 2 Note on, G3 key =  55 ; velocity: 127
@95760 Channel: 2 Note on, C4 key =  60 ; velocity: 127
@95820 Channel: 2 Note on, G3 key =  55 ; velocity: 0
@95820 Channel: 2 Note on, C4 key =  60 ; velocity: 0
@95820 Channel: 2 Note on, D4 key =  62 ; velocity: 127
@95820 Channel: 2 Note on, A3 key =  57 ; velocity: 127
@95880 Channel: 2 Note on, D4 key =  62 ; velocity: 0
@95880 Channel: 2 Note on, A3 key =  57 ; velocity: 0
@95880 Channel: 2 Note on, G3 key =  55 ; velocity: 127
@95880 Channel: 2 Note on, C4 key =  60 ; velocity: 127
@96000 Channel: 2 Note on, G3 key =  55 ; velocity: 0
@96000 Channel: 2 Note on, C4 key =  60 ; velocity: 0
@96000 Channel: 2 Note on, D4 key =  62 ; velocity: 127
@96060 Channel: 2 Note on, D4 key =  62 ; velocity: 0
@96060 Channel: 2 Note on, C4 key =  60 ; velocity: 127
@96120 Channel: 2 Note on, C4 key =  60 ; velocity: 0
@96120 Channel: 2 Note on, A3 key =  57 ; velocity: 127
@96180 Channel: 2 Note on, A3 key =  57 ; velocity: 0
@96180 Channel: 2 Note on, G#3 key =  56 ; velocity: 127
@96240 Channel: 2 Note on, G#3 key =  56 ; velocity: 0
@96240 Channel: 2 Note on, G3 key =  55 ; velocity: 127
@96300 Channel: 2 Note on, G3 key =  55 ; velocity: 0
@96300 Channel: 2 Note on, E3 key =  52 ; velocity: 127
@96360 Channel: 2 Note on, E3 key =  52 ; velocity: 0
@96360 Channel: 2 Note on, D#3 key =  51 ; velocity: 127
@96420 Channel: 2 Note on, D#3 key =  51 ; velocity: 0
@96420 Channel: 2 Note on, D3 key =  50 ; velocity: 127
@96480 Channel: 2 Note on, D3 key =  50 ; velocity: 0
@96480 Channel: 2 Note on, C4 key =  60 ; velocity: 127
@96480 Channel: 2 Note on, G3 key =  55 ; velocity: 127
@96540 Channel: 2 Note on, C4 key =  60 ; velocity: 0
@96540 Channel: 2 Note on, G3 key =  55 ; velocity: 0
@96540 Channel: 2 Note on, E2 key =  40 ; velocity: 127
@96600 Channel: 2 Note on, E2 key =  40 ; velocity: 0
@96600 Channel: 2 Note on, E2 key =  40 ; velocity: 127
@96660 Channel: 2 Note on, E2 key =  40 ; velocity: 0
@96660 Channel: 2 Note on, E2 key =  40 ; velocity: 127
@96720 Channel: 2 Note on, E2 key =  40 ; velocity: 0
@96720 Channel: 2 Note on, G3 key =  55 ; velocity: 127
@96720 Channel: 2 Note on, C4 key =  60 ; velocity: 127
@96780 Channel: 2 Note on, G3 key =  55 ; velocity: 0
@96780 Channel: 2 Note on, C4 key =  60 ; velocity: 0
@96780 Channel: 2 Note on, D4 key =  62 ; velocity: 127
@96780 Channel: 2 Note on, A3 key =  57 ; velocity: 127
@96840 Channel: 2 Note on, D4 key =  62 ; velocity: 0
@96840 Channel: 2 Note on, A3 key =  57 ; velocity: 0
@96840 Channel: 2 Note on, G3 key =  55 ; velocity: 127
@96840 Channel: 2 Note on, C4 key =  60 ; velocity: 127
@96960 Channel: 2 Note on, G3 key =  55 ; velocity: 0
@96960 Channel: 2 Note on, C4 key =  60 ; velocity: 0
@96960 Channel: 2 Note on, C4 key =  60 ; velocity: 127
@96960 Channel: 2 Note on, G3 key =  55 ; velocity: 127
@97020 Channel: 2 Note on, C4 key =  60 ; velocity: 0
@97020 Channel: 2 Note on, G3 key =  55 ; velocity: 0
@97020 Channel: 2 Note on, E2 key =  40 ; velocity: 127
@97080 Channel: 2 Note on, E2 key =  40 ; velocity: 0
@97080 Channel: 2 Note on, E2 key =  40 ; velocity: 127
@97140 Channel: 2 Note on, E2 key =  40 ; velocity: 0
@97140 Channel: 2 Note on, E2 key =  40 ; velocity: 127
@97200 Channel: 2 Note on, E2 key =  40 ; velocity: 0
@97200 Channel: 2 Note on, G3 key =  55 ; velocity: 127
@97200 Channel: 2 Note on, C4 key =  60 ; velocity: 127
@97260 Channel: 2 Note on, G3 key =  55 ; velocity: 0
@97260 Channel: 2 Note on, C4 key =  60 ; velocity: 0
@97260 Channel: 2 Note on, D4 key =  62 ; velocity: 127
@97260 Channel: 2 Note on, A3 key =  57 ; velocity: 127
@97320 Channel: 2 Note on, D4 key =  62 ; velocity: 0
@97320 Channel: 2 Note on, A3 key =  57 ; velocity: 0
@97320 Channel: 2 Note on, G3 key =  55 ; velocity: 127
@97320 Channel: 2 Note on, C4 key =  60 ; velocity: 127
@97440 Channel: 2 Note on, G3 key =  55 ; velocity: 0
@97440 Channel: 2 Note on, C4 key =  60 ; velocity: 0
@97440 Channel: 2 Note on, C4 key =  60 ; velocity: 127
@97440 Channel: 2 Note on, G3 key =  55 ; velocity: 127
@97500 Channel: 2 Note on, C4 key =  60 ; velocity: 0
@97500 Channel: 2 Note on, G3 key =  55 ; velocity: 0
@97500 Channel: 2 Note on, E2 key =  40 ; velocity: 127
@97560 Channel: 2 Note on, E2 key =  40 ; velocity: 0
@97560 Channel: 2 Note on, E2 key =  40 ; velocity: 127
@97620 Channel: 2 Note on, E2 key =  40 ; velocity: 0
@97620 Channel: 2 Note on, E2 key =  40 ; velocity: 127
@97680 Channel: 2 Note on, E2 key =  40 ; velocity: 0
@97680 Channel: 2 Note on, G3 key =  55 ; velocity: 127
@97680 Channel: 2 Note on, C4 key =  60 ; velocity: 127
@97740 Channel: 2 Note on, G3 key =  55 ; velocity: 0
@97740 Channel: 2 Note on, C4 key =  60 ; velocity: 0
@97740 Channel: 2 Note on, D4 key =  62 ; velocity: 127
@97740 Channel: 2 Note on, A3 key =  57 ; velocity: 127
@97800 Channel: 2 Note on, D4 key =  62 ; velocity: 0
@97800 Channel: 2 Note on, A3 key =  57 ; velocity: 0
@97800 Channel: 2 Note on, G3 key =  55 ; velocity: 127
@97800 Channel: 2 Note on, C4 key =  60 ; velocity: 127
@97920 Channel: 2 Note on, G3 key =  55 ; velocity: 0
@97920 Channel: 2 Note on, C4 key =  60 ; velocity: 0
@97920 Channel: 2 Note on, E4 key =  64 ; velocity: 127
@97980 Channel: 2 Note on, E4 key =  64 ; velocity: 0
@97980 Channel: 2 Note on, D4 key =  62 ; velocity: 127
@98040 Channel: 2 Note on, D4 key =  62 ; velocity: 0
@98040 Channel: 2 Note on, B3 key =  59 ; velocity: 127
@98100 Channel: 2 Note on, B3 key =  59 ; velocity: 0
@98100 Channel: 2 Note on, D4 key =  62 ; velocity: 127
@98160 Channel: 2 Note on, D4 key =  62 ; velocity: 0
@98160 Channel: 2 Note on, B3 key =  59 ; velocity: 127
@98220 Channel: 2 Note on, B3 key =  59 ; velocity: 0
@98220 Channel: 2 Note on, A#3 key =  58 ; velocity: 127
@98280 Channel: 2 Note on, A#3 key =  58 ; velocity: 0
@98280 Channel: 2 Note on, A3 key =  57 ; velocity: 127
@98340 Channel: 2 Note on, A3 key =  57 ; velocity: 0
@98340 Channel: 2 Note on, G3 key =  55 ; velocity: 127
@98400 Channel: 2 Note on, G3 key =  55 ; velocity: 0
@98400 Channel: 2 Note on, E4 key =  64 ; velocity: 127
@98460 Channel: 2 Note on, E4 key =  64 ; velocity: 0
@98460 Channel: 2 Note on, D4 key =  62 ; velocity: 127
@98520 Channel: 2 Note on, D4 key =  62 ; velocity: 0
@98520 Channel: 2 Note on, B3 key =  59 ; velocity: 127
@98580 Channel: 2 Note on, B3 key =  59 ; velocity: 0
@98580 Channel: 2 Note on, D4 key =  62 ; velocity: 127
@98640 Channel: 2 Note on, D4 key =  62 ; velocity: 0
@98640 Channel: 2 Note on, B3 key =  59 ; velocity: 127
@98700 Channel: 2 Note on, B3 key =  59 ; velocity: 0
@98700 Channel: 2 Note on, A#3 key =  58 ; velocity: 127
@98760 Channel: 2 Note on, A#3 key =  58 ; velocity: 0
@98760 Channel: 2 Note on, A3 key =  57 ; velocity: 127
@98820 Channel: 2 Note on, A3 key =  57 ; velocity: 0
@98820 Channel: 2 Note on, G3 key =  55 ; velocity: 127
@98880 Channel: 2 Note on, G3 key =  55 ; velocity: 0
@98880 Channel: 2 Note on, D4 key =  62 ; velocity: 127
@98880 Channel: 2 Note on, G3 key =  55 ; velocity: 127
@99360 Channel: 2 Note on, D4 key =  62 ; velocity: 0
@99360 Channel: 2 Note on, G3 key =  55 ; velocity: 0
@99360 Channel: 2 Note on, C#4 key =  61 ; velocity: 127
@99360 Channel: 2 Note on, F#3 key =  54 ; velocity: 127
@99600 Channel: 2 Note on, C#4 key =  61 ; velocity: 0
@99600 Channel: 2 Note on, F#3 key =  54 ; velocity: 0
@99600 Channel: 2 Note on, C4 key =  60 ; velocity: 127
@99600 Channel: 2 Note on, F3 key =  53 ; velocity: 127
@99840 Channel: 2 Note on, C4 key =  60 ; velocity: 0
@99840 Channel: 2 Note on, F3 key =  53 ; velocity: 0
@99840 Channel: 2 Note on, E2 key =  40 ; velocity: 127
@99900 Channel: 2 Note on, E2 key =  40 ; velocity: 0
@99900 Channel: 2 Note on, E2 key =  40 ; velocity: 127
@99960 Channel: 2 Note on, E2 key =  40 ; velocity: 0
@99960 Channel: 2 Note on, E2 key =  40 ; velocity: 127
@100020 Channel: 2 Note on, E2 key =  40 ; velocity: 0
@100020 Channel: 2 Note on, E2 key =  40 ; velocity: 127
@100080 Channel: 2 Note on, E2 key =  40 ; velocity: 0
@100080 Channel: 2 Note on, E2 key =  40 ; velocity: 127
@100140 Channel: 2 Note on, E2 key =  40 ; velocity: 0
@100140 Channel: 2 Note on, E2 key =  40 ; velocity: 127
@100200 Channel: 2 Note on, E2 key =  40 ; velocity: 0
@100200 Channel: 2 Note on, E2 key =  40 ; velocity: 127
@100260 Channel: 2 Note on, E2 key =  40 ; velocity: 0
@100260 Channel: 2 Note on, E2 key =  40 ; velocity: 127
@100320 Channel: 2 Note on, E2 key =  40 ; velocity: 0
@100320 Channel: 2 Note on, E2 key =  40 ; velocity: 127
@100380 Channel: 2 Note on, E2 key =  40 ; velocity: 0
@100380 Channel: 2 Note on, E2 key =  40 ; velocity: 127
@100440 Channel: 2 Note on, E2 key =  40 ; velocity: 0
@100440 Channel: 2 Note on, E2 key =  40 ; velocity: 127
@100500 Channel: 2 Note on, E2 key =  40 ; velocity: 0
@100500 Channel: 2 Note on, E2 key =  40 ; velocity: 127
@100560 Channel: 2 Note on, E2 key =  40 ; velocity: 0
@100560 Channel: 2 Note on, E2 key =  40 ; velocity: 127
@100620 Channel: 2 Note on, E2 key =  40 ; velocity: 0
@100620 Channel: 2 Note on, E2 key =  40 ; velocity: 127
@100680 Channel: 2 Note on, E2 key =  40 ; velocity: 0
@100680 Channel: 2 Note on, E2 key =  40 ; velocity: 127
@100740 Channel: 2 Note on, E2 key =  40 ; velocity: 0
@100740 Channel: 2 Note on, E2 key =  40 ; velocity: 127
@100800 Channel: 2 Note on, E2 key =  40 ; velocity: 0
@100800 Channel: 2 Note on, D4 key =  62 ; velocity: 127
@100800 Channel: 2 Note on, G3 key =  55 ; velocity: 127
@101280 Channel: 2 Note on, D4 key =  62 ; velocity: 0
@101280 Channel: 2 Note on, G3 key =  55 ; velocity: 0
@101280 Channel: 2 Note on, C#4 key =  61 ; velocity: 127
@101280 Channel: 2 Note on, F#3 key =  54 ; velocity: 127
@101520 Channel: 2 Note on, C#4 key =  61 ; velocity: 0
@101520 Channel: 2 Note on, F#3 key =  54 ; velocity: 0
@101520 Channel: 2 Note on, C4 key =  60 ; velocity: 127
@101520 Channel: 2 Note on, F3 key =  53 ; velocity: 127
@101760 Channel: 2 Note on, C4 key =  60 ; velocity: 0
@101760 Channel: 2 Note on, F3 key =  53 ; velocity: 0
@101760 Channel: 2 Note on, E2 key =  40 ; velocity: 127
@101820 Channel: 2 Note on, E2 key =  40 ; velocity: 0
@101820 Channel: 2 Note on, E2 key =  40 ; velocity: 127
@101880 Channel: 2 Note on, E2 key =  40 ; velocity: 0
@101880 Channel: 2 Note on, E2 key =  40 ; velocity: 127
@101940 Channel: 2 Note on, E2 key =  40 ; velocity: 0
@101940 Channel: 2 Note on, E2 key =  40 ; velocity: 127
@102000 Channel: 2 Note on, E2 key =  40 ; velocity: 0
@102000 Channel: 2 Note on, E2 key =  40 ; velocity: 127
@102060 Channel: 2 Note on, E2 key =  40 ; velocity: 0
@102060 Channel: 2 Note on, E2 key =  40 ; velocity: 127
@102120 Channel: 2 Note on, E2 key =  40 ; velocity: 0
@102120 Channel: 2 Note on, E2 key =  40 ; velocity: 127
@102180 Channel: 2 Note on, E2 key =  40 ; velocity: 0
@102180 Channel: 2 Note on, E2 key =  40 ; velocity: 127
@102240 Channel: 2 Note on, E2 key =  40 ; velocity: 0
@102240 Channel: 2 Note on, E2 key =  40 ; velocity: 127
@102300 Channel: 2 Note on, E2 key =  40 ; velocity: 0
@102300 Channel: 2 Note on, E2 key =  40 ; velocity: 127
@102360 Channel: 2 Note on, E2 key =  40 ; velocity: 0
@102360 Channel: 2 Note on, E2 key =  40 ; velocity: 127
@102420 Channel: 2 Note on, E2 key =  40 ; velocity: 0
@102420 Channel: 2 Note on, E2 key =  40 ; velocity: 127
@102480 Channel: 2 Note on, E2 key =  40 ; velocity: 0
@102480 Channel: 2 Note on, E2 key =  40 ; velocity: 127
@102540 Channel: 2 Note on, E2 key =  40 ; velocity: 0
@102540 Channel: 2 Note on, E2 key =  40 ; velocity: 127
@102600 Channel: 2 Note on, E2 key =  40 ; velocity: 0
@102600 Channel: 2 Note on, E2 key =  40 ; velocity: 127
@102660 Channel: 2 Note on, E2 key =  40 ; velocity: 0
@102660 Channel: 2 Note on, E2 key =  40 ; velocity: 127
@102720 Channel: 2 Note on, E2 key =  40 ; velocity: 0
@102720 Channel: 2 Note on, D4 key =  62 ; velocity: 127
@102720 Channel: 2 Note on, G3 key =  55 ; velocity: 127
@103200 Channel: 2 Note on, D4 key =  62 ; velocity: 0
@103200 Channel: 2 Note on, G3 key =  55 ; velocity: 0
@103200 Channel: 2 Note on, C#4 key =  61 ; velocity: 127
@103200 Channel: 2 Note on, F#3 key =  54 ; velocity: 127
@103440 Channel: 2 Note on, C#4 key =  61 ; velocity: 0
@103440 Channel: 2 Note on, F#3 key =  54 ; velocity: 0
@103440 Channel: 2 Note on, C4 key =  60 ; velocity: 127
@103440 Channel: 2 Note on, F3 key =  53 ; velocity: 127
@103680 Channel: 2 Note on, C4 key =  60 ; velocity: 0
@103680 Channel: 2 Note on, F3 key =  53 ; velocity: 0
@103680 Channel: 2 Note on, E2 key =  40 ; velocity: 127
@103740 Channel: 2 Note on, E2 key =  40 ; velocity: 0
@103740 Channel: 2 Note on, E2 key =  40 ; velocity: 127
@103800 Channel: 2 Note on, E2 key =  40 ; velocity: 0
@103800 Channel: 2 Note on, E2 key =  40 ; velocity: 127
@103860 Channel: 2 Note on, E2 key =  40 ; velocity: 0
@103860 Channel: 2 Note on, E2 key =  40 ; velocity: 127
@103920 Channel: 2 Note on, E2 key =  40 ; velocity: 0
@103920 Channel: 2 Note on, E2 key =  40 ; velocity: 127
@103980 Channel: 2 Note on, E2 key =  40 ; velocity: 0
@103980 Channel: 2 Note on, E2 key =  40 ; velocity: 127
@104040 Channel: 2 Note on, E2 key =  40 ; velocity: 0
@104040 Channel: 2 Note on, E2 key =  40 ; velocity: 127
@104100 Channel: 2 Note on, E2 key =  40 ; velocity: 0
@104100 Channel: 2 Note on, E2 key =  40 ; velocity: 127
@104160 Channel: 2 Note on, E2 key =  40 ; velocity: 0
@104160 Channel: 2 Note on, E2 key =  40 ; velocity: 127
@104220 Channel: 2 Note on, E2 key =  40 ; velocity: 0
@104220 Channel: 2 Note on, E2 key =  40 ; velocity: 127
@104280 Channel: 2 Note on, E2 key =  40 ; velocity: 0
@104280 Channel: 2 Note on, E2 key =  40 ; velocity: 127
@104340 Channel: 2 Note on, E2 key =  40 ; velocity: 0
@104340 Channel: 2 Note on, E2 key =  40 ; velocity: 127
@104400 Channel: 2 Note on, E2 key =  40 ; velocity: 0
@104400 Channel: 2 Note on, E2 key =  40 ; velocity: 127
@104460 Channel: 2 Note on, E2 key =  40 ; velocity: 0
@104460 Channel: 2 Note on, E2 key =  40 ; velocity: 127
@104520 Channel: 2 Note on, E2 key =  40 ; velocity: 0
@104520 Channel: 2 Note on, E2 key =  40 ; velocity: 127
@104580 Channel: 2 Note on, E2 key =  40 ; velocity: 0
@104580 Channel: 2 Note on, E2 key =  40 ; velocity: 127
@104640 Channel: 2 Note on, E2 key =  40 ; velocity: 0
@104640 Channel: 2 Note on, D4 key =  62 ; velocity: 127
@104640 Channel: 2 Note on, G3 key =  55 ; velocity: 127
@105120 Channel: 2 Note on, D4 key =  62 ; velocity: 0
@105120 Channel: 2 Note on, G3 key =  55 ; velocity: 0
@105120 Channel: 2 Note on, C#4 key =  61 ; velocity: 127
@105120 Channel: 2 Note on, F#3 key =  54 ; velocity: 127
@105360 Channel: 2 Note on, C#4 key =  61 ; velocity: 0
@105360 Channel: 2 Note on, F#3 key =  54 ; velocity: 0
@105360 Channel: 2 Note on, C4 key =  60 ; velocity: 127
@105360 Channel: 2 Note on, F3 key =  53 ; velocity: 127
@105600 Channel: 2 Note on, C4 key =  60 ; velocity: 0
@105600 Channel: 2 Note on, F3 key =  53 ; velocity: 0
@105600 Channel: 2 Note on, B3 key =  59 ; velocity: 127
@105600 Channel: 2 Note on, E3 key =  52 ; velocity: 127
@105660 Channel: 2 Note on, B3 key =  59 ; velocity: 0
@105660 Channel: 2 Note on, E3 key =  52 ; velocity: 0
@105660 Channel: 2 Note on, E2 key =  40 ; velocity: 127
@105720 Channel: 2 Note on, E2 key =  40 ; velocity: 0
@105720 Channel: 2 Note on, E2 key =  40 ; velocity: 127
@105780 Channel: 2 Note on, E2 key =  40 ; velocity: 0
@105780 Channel: 2 Note on, E2 key =  40 ; velocity: 127
@105840 Channel: 2 Note on, E2 key =  40 ; velocity: 0
@105840 Channel: 2 Note on, E2 key =  40 ; velocity: 127
@105900 Channel: 2 Note on, E2 key =  40 ; velocity: 0
@105900 Channel: 2 Note on, E2 key =  40 ; velocity: 127
@105960 Channel: 2 Note on, E2 key =  40 ; velocity: 0
@105960 Channel: 2 Note on, E2 key =  40 ; velocity: 127
@106020 Channel: 2 Note on, E2 key =  40 ; velocity: 0
@106020 Channel: 2 Note on, E2 key =  40 ; velocity: 127
@106080 Channel: 2 Note on, E2 key =  40 ; velocity: 0
@106080 Channel: 2 Note on, E2 key =  40 ; velocity: 127
@106140 Channel: 2 Note on, E2 key =  40 ; velocity: 0
@106140 Channel: 2 Note on, E2 key =  40 ; velocity: 127
@106200 Channel: 2 Note on, E2 key =  40 ; velocity: 0
@106200 Channel: 2 Note on, E2 key =  40 ; velocity: 127
@106260 Channel: 2 Note on, E2 key =  40 ; velocity: 0
@106260 Channel: 2 Note on, E2 key =  40 ; velocity: 127
@106320 Channel: 2 Note on, E2 key =  40 ; velocity: 0
@106320 Channel: 2 Note on, E2 key =  40 ; velocity: 127
@106380 Channel: 2 Note on, E2 key =  40 ; velocity: 0
@106380 Channel: 2 Note on, E2 key =  40 ; velocity: 127
@106440 Channel: 2 Note on, E2 key =  40 ; velocity: 0
@106440 Channel: 2 Note on, E2 key =  40 ; velocity: 127
@106500 Channel: 2 Note on, E2 key =  40 ; velocity: 0
@106500 Channel: 2 Note on, D4 key =  62 ; velocity: 127
@106500 Channel: 2 Note on, G3 key =  55 ; velocity: 127
@106560 Channel: 2 Note on, D4 key =  62 ; velocity: 0
@106560 Channel: 2 Note on, G3 key =  55 ; velocity: 0
@106560 Channel: 2 Note on, C#4 key =  61 ; velocity: 127
@106560 Channel: 2 Note on, F#3 key =  54 ; velocity: 127
@106620 Channel: 2 Note on, C#4 key =  61 ; velocity: 0
@106620 Channel: 2 Note on, F#3 key =  54 ; velocity: 0
@106620 Channel: 2 Note on, E2 key =  40 ; velocity: 127
@106680 Channel: 2 Note on, E2 key =  40 ; velocity: 0
@106680 Channel: 2 Note on, E2 key =  40 ; velocity: 127
@106740 Channel: 2 Note on, E2 key =  40 ; velocity: 0
@106740 Channel: 2 Note on, F#3 key =  54 ; velocity: 127
@106740 Channel: 2 Note on, C#4 key =  61 ; velocity: 127
@106800 Channel: 2 Note on, F#3 key =  54 ; velocity: 0
@106800 Channel: 2 Note on, C#4 key =  61 ; velocity: 0
@106800 Channel: 2 Note on, F3 key =  53 ; velocity: 127
@106800 Channel: 2 Note on, C4 key =  60 ; velocity: 127
@106860 Channel: 2 Note on, F3 key =  53 ; velocity: 0
@106860 Channel: 2 Note on, C4 key =  60 ; velocity: 0
@106860 Channel: 2 Note on, E2 key =  40 ; velocity: 127
@106920 Channel: 2 Note on, E2 key =  40 ; velocity: 0
@106920 Channel: 2 Note on, E2 key =  40 ; velocity: 127
@106980 Channel: 2 Note on, E2 key =  40 ; velocity: 0
@106980 Channel: 2 Note on, C4 key =  60 ; velocity: 127
@106980 Channel: 2 Note on, F3 key =  53 ; velocity: 127
@107040 Channel: 2 Note on, C4 key =  60 ; velocity: 0
@107040 Channel: 2 Note on, F3 key =  53 ; velocity: 0
@107040 Channel: 2 Note on, B2 key =  47 ; velocity: 127
@107040 Channel: 2 Note on, E2 key =  40 ; velocity: 127
@107100 Channel: 2 Note on, B2 key =  47 ; velocity: 0
@107100 Channel: 2 Note on, E2 key =  40 ; velocity: 0
@107100 Channel: 2 Note on, E2 key =  40 ; velocity: 127
@107160 Channel: 2 Note on, E2 key =  40 ; velocity: 0
@107160 Channel: 2 Note on, E2 key =  40 ; velocity: 127
@107220 Channel: 2 Note on, E2 key =  40 ; velocity: 0
@107220 Channel: 2 Note on, E2 key =  40 ; velocity: 127
@107280 Channel: 2 Note on, E2 key =  40 ; velocity: 0
@107280 Channel: 2 Note on, E2 key =  40 ; velocity: 127
@107340 Channel: 2 Note on, E2 key =  40 ; velocity: 0
@107340 Channel: 2 Note on, E2 key =  40 ; velocity: 127
@107400 Channel: 2 Note on, E2 key =  40 ; velocity: 0
@107400 Channel: 2 Note on, E2 key =  40 ; velocity: 127
@107460 Channel: 2 Note on, E2 key =  40 ; velocity: 0
@107460 Channel: 2 Note on, G3 key =  55 ; velocity: 127
@107460 Channel: 2 Note on, D4 key =  62 ; velocity: 127
@107520 Channel: 2 Note on, G3 key =  55 ; velocity: 0
@107520 Channel: 2 Note on, D4 key =  62 ; velocity: 0
@107520 Channel: 2 Note on, C#4 key =  61 ; velocity: 127
@107520 Channel: 2 Note on, F#3 key =  54 ; velocity: 127
@107580 Channel: 2 Note on, C#4 key =  61 ; velocity: 0
@107580 Channel: 2 Note on, F#3 key =  54 ; velocity: 0
@107580 Channel: 2 Note on, E2 key =  40 ; velocity: 127
@107640 Channel: 2 Note on, E2 key =  40 ; velocity: 0
@107640 Channel: 2 Note on, E2 key =  40 ; velocity: 127
@107700 Channel: 2 Note on, E2 key =  40 ; velocity: 0
@107700 Channel: 2 Note on, F#3 key =  54 ; velocity: 127
@107700 Channel: 2 Note on, C#4 key =  61 ; velocity: 127
@107760 Channel: 2 Note on, F#3 key =  54 ; velocity: 0
@107760 Channel: 2 Note on, C#4 key =  61 ; velocity: 0
@107760 Channel: 2 Note on, A3 key =  57 ; velocity: 127
@107760 Channel: 2 Note on, D3 key =  50 ; velocity: 127
@107820 Channel: 2 Note on, A3 key =  57 ; velocity: 0
@107820 Channel: 2 Note on, D3 key =  50 ; velocity: 0
@107820 Channel: 2 Note on, E2 key =  40 ; velocity: 127
@107880 Channel: 2 Note on, E2 key =  40 ; velocity: 0
@107880 Channel: 2 Note on, E2 key =  40 ; velocity: 127
@107940 Channel: 2 Note on, E2 key =  40 ; velocity: 0
@107940 Channel: 2 Note on, D3 key =  50 ; velocity: 127
@107940 Channel: 2 Note on, A3 key =  57 ; velocity: 127
@108000 Channel: 2 Note on, D3 key =  50 ; velocity: 0
@108000 Channel: 2 Note on, A3 key =  57 ; velocity: 0
@108000 Channel: 2 Note on, B2 key =  47 ; velocity: 127
@108000 Channel: 2 Note on, E2 key =  40 ; velocity: 127
@108060 Channel: 2 Note on, B2 key =  47 ; velocity: 0
@108060 Channel: 2 Note on, E2 key =  40 ; velocity: 0
@108060 Channel: 2 Note on, E2 key =  40 ; velocity: 127
@108120 Channel: 2 Note on, E2 key =  40 ; velocity: 0
@108120 Channel: 2 Note on, E2 key =  40 ; velocity: 127
@108180 Channel: 2 Note on, E2 key =  40 ; velocity: 0
@108180 Channel: 2 Note on, E2 key =  40 ; velocity: 127
@108240 Channel: 2 Note on, E2 key =  40 ; velocity: 0
@108240 Channel: 2 Note on, E2 key =  40 ; velocity: 127
@108300 Channel: 2 Note on, E2 key =  40 ; velocity: 0
@108300 Channel: 2 Note on, E2 key =  40 ; velocity: 127
@108360 Channel: 2 Note on, E2 key =  40 ; velocity: 0
@108360 Channel: 2 Note on, E2 key =  40 ; velocity: 127
@108420 Channel: 2 Note on, E2 key =  40 ; velocity: 0
@108420 Channel: 2 Note on, G3 key =  55 ; velocity: 127
@108420 Channel: 2 Note on, D4 key =  62 ; velocity: 127
@108480 Channel: 2 Note on, G3 key =  55 ; velocity: 0
@108480 Channel: 2 Note on, D4 key =  62 ; velocity: 0
@108480 Channel: 2 Note on, C#4 key =  61 ; velocity: 127
@108480 Channel: 2 Note on, F#3 key =  54 ; velocity: 127
@108540 Channel: 2 Note on, C#4 key =  61 ; velocity: 0
@108540 Channel: 2 Note on, F#3 key =  54 ; velocity: 0
@108540 Channel: 2 Note on, E2 key =  40 ; velocity: 127
@108600 Channel: 2 Note on, E2 key =  40 ; velocity: 0
@108600 Channel: 2 Note on, E2 key =  40 ; velocity: 127
@108660 Channel: 2 Note on, E2 key =  40 ; velocity: 0
@108660 Channel: 2 Note on, F#3 key =  54 ; velocity: 127
@108660 Channel: 2 Note on, C#4 key =  61 ; velocity: 127
@108720 Channel: 2 Note on, F#3 key =  54 ; velocity: 0
@108720 Channel: 2 Note on, C#4 key =  61 ; velocity: 0
@108720 Channel: 2 Note on, F3 key =  53 ; velocity: 127
@108720 Channel: 2 Note on, C4 key =  60 ; velocity: 127
@108780 Channel: 2 Note on, F3 key =  53 ; velocity: 0
@108780 Channel: 2 Note on, C4 key =  60 ; velocity: 0
@108780 Channel: 2 Note on, E2 key =  40 ; velocity: 127
@108840 Channel: 2 Note on, E2 key =  40 ; velocity: 0
@108840 Channel: 2 Note on, E2 key =  40 ; velocity: 127
@108900 Channel: 2 Note on, E2 key =  40 ; velocity: 0
@108900 Channel: 2 Note on, C4 key =  60 ; velocity: 127
@108900 Channel: 2 Note on, F3 key =  53 ; velocity: 127
@108960 Channel: 2 Note on, C4 key =  60 ; velocity: 0
@108960 Channel: 2 Note on, F3 key =  53 ; velocity: 0
@108960 Channel: 2 Note on, B2 key =  47 ; velocity: 127
@108960 Channel: 2 Note on, E2 key =  40 ; velocity: 127
@109020 Channel: 2 Note on, B2 key =  47 ; velocity: 0
@109020 Channel: 2 Note on, E2 key =  40 ; velocity: 0
@109020 Channel: 2 Note on, E2 key =  40 ; velocity: 127
@109080 Channel: 2 Note on, E2 key =  40 ; velocity: 0
@109080 Channel: 2 Note on, E2 key =  40 ; velocity: 127
@109140 Channel: 2 Note on, E2 key =  40 ; velocity: 0
@109140 Channel: 2 Note on, E2 key =  40 ; velocity: 127
@109200 Channel: 2 Note on, E2 key =  40 ; velocity: 0
@109200 Channel: 2 Note on, E2 key =  40 ; velocity: 127
@109260 Channel: 2 Note on, E2 key =  40 ; velocity: 0
@109260 Channel: 2 Note on, E2 key =  40 ; velocity: 127
@109320 Channel: 2 Note on, E2 key =  40 ; velocity: 0
@109320 Channel: 2 Note on, E2 key =  40 ; velocity: 127
@109380 Channel: 2 Note on, E2 key =  40 ; velocity: 0
@109380 Channel: 2 Note on, G3 key =  55 ; velocity: 127
@109380 Channel: 2 Note on, D4 key =  62 ; velocity: 127
@109440 Channel: 2 Note on, G3 key =  55 ; velocity: 0
@109440 Channel: 2 Note on, D4 key =  62 ; velocity: 0
@109440 Channel: 2 Note on, C#4 key =  61 ; velocity: 127
@109440 Channel: 2 Note on, F#3 key =  54 ; velocity: 127
@109500 Channel: 2 Note on, C#4 key =  61 ; velocity: 0
@109500 Channel: 2 Note on, F#3 key =  54 ; velocity: 0
@109500 Channel: 2 Note on, E2 key =  40 ; velocity: 127
@109560 Channel: 2 Note on, E2 key =  40 ; velocity: 0
@109560 Channel: 2 Note on, E2 key =  40 ; velocity: 127
@109620 Channel: 2 Note on, E2 key =  40 ; velocity: 0
@109620 Channel: 2 Note on, F#3 key =  54 ; velocity: 127
@109620 Channel: 2 Note on, C#4 key =  61 ; velocity: 127
@109680 Channel: 2 Note on, F#3 key =  54 ; velocity: 0
@109680 Channel: 2 Note on, C#4 key =  61 ; velocity: 0
@109680 Channel: 2 Note on, A3 key =  57 ; velocity: 127
@109680 Channel: 2 Note on, D3 key =  50 ; velocity: 127
@109740 Channel: 2 Note on, A3 key =  57 ; velocity: 0
@109740 Channel: 2 Note on, D3 key =  50 ; velocity: 0
@109740 Channel: 2 Note on, E2 key =  40 ; velocity: 127
@109800 Channel: 2 Note on, E2 key =  40 ; velocity: 0
@109800 Channel: 2 Note on, E2 key =  40 ; velocity: 127
@109860 Channel: 2 Note on, E2 key =  40 ; velocity: 0
@109860 Channel: 2 Note on, D3 key =  50 ; velocity: 127
@109860 Channel: 2 Note on, A3 key =  57 ; velocity: 127
@109920 Channel: 2 Note on, D3 key =  50 ; velocity: 0
@109920 Channel: 2 Note on, A3 key =  57 ; velocity: 0
@109920 Channel: 2 Note on, B2 key =  47 ; velocity: 127
@109920 Channel: 2 Note on, E2 key =  40 ; velocity: 127
@109980 Channel: 2 Note on, B2 key =  47 ; velocity: 0
@109980 Channel: 2 Note on, E2 key =  40 ; velocity: 0
@109980 Channel: 2 Note on, E2 key =  40 ; velocity: 127
@110040 Channel: 2 Note on, E2 key =  40 ; velocity: 0
@110040 Channel: 2 Note on, E2 key =  40 ; velocity: 127
@110100 Channel: 2 Note on, E2 key =  40 ; velocity: 0
@110100 Channel: 2 Note on, E2 key =  40 ; velocity: 127
@110160 Channel: 2 Note on, E2 key =  40 ; velocity: 0
@110160 Channel: 2 Note on, E2 key =  40 ; velocity: 127
@110220 Channel: 2 Note on, E2 key =  40 ; velocity: 0
@110220 Channel: 2 Note on, E2 key =  40 ; velocity: 127
@110280 Channel: 2 Note on, E2 key =  40 ; velocity: 0
@110280 Channel: 2 Note on, E2 key =  40 ; velocity: 127
@110340 Channel: 2 Note on, E2 key =  40 ; velocity: 0
@110340 Channel: 2 Note on, G3 key =  55 ; velocity: 127
@110340 Channel: 2 Note on, D4 key =  62 ; velocity: 127
@110400 Channel: 2 Note on, G3 key =  55 ; velocity: 0
@110400 Channel: 2 Note on, D4 key =  62 ; velocity: 0
@110400 Channel: 2 Note on, C#4 key =  61 ; velocity: 127
@110400 Channel: 2 Note on, F#3 key =  54 ; velocity: 127
@110460 Channel: 2 Note on, C#4 key =  61 ; velocity: 0
@110460 Channel: 2 Note on, F#3 key =  54 ; velocity: 0
@110460 Channel: 2 Note on, E2 key =  40 ; velocity: 127
@110520 Channel: 2 Note on, E2 key =  40 ; velocity: 0
@110520 Channel: 2 Note on, E2 key =  40 ; velocity: 127
@110580 Channel: 2 Note on, E2 key =  40 ; velocity: 0
@110580 Channel: 2 Note on, F#3 key =  54 ; velocity: 127
@110580 Channel: 2 Note on, C#4 key =  61 ; velocity: 127
@110640 Channel: 2 Note on, F#3 key =  54 ; velocity: 0
@110640 Channel: 2 Note on, C#4 key =  61 ; velocity: 0
@110640 Channel: 2 Note on, F3 key =  53 ; velocity: 127
@110640 Channel: 2 Note on, C4 key =  60 ; velocity: 127
@110700 Channel: 2 Note on, F3 key =  53 ; velocity: 0
@110700 Channel: 2 Note on, C4 key =  60 ; velocity: 0
@110700 Channel: 2 Note on, E2 key =  40 ; velocity: 127
@110760 Channel: 2 Note on, E2 key =  40 ; velocity: 0
@110760 Channel: 2 Note on, E2 key =  40 ; velocity: 127
@110820 Channel: 2 Note on, E2 key =  40 ; velocity: 0
@110820 Channel: 2 Note on, C4 key =  60 ; velocity: 127
@110820 Channel: 2 Note on, F3 key =  53 ; velocity: 127
@110880 Channel: 2 Note on, C4 key =  60 ; velocity: 0
@110880 Channel: 2 Note on, F3 key =  53 ; velocity: 0
@110880 Channel: 2 Note on, B2 key =  47 ; velocity: 127
@110880 Channel: 2 Note on, E2 key =  40 ; velocity: 127
@110940 Channel: 2 Note on, B2 key =  47 ; velocity: 0
@110940 Channel: 2 Note on, E2 key =  40 ; velocity: 0
@110940 Channel: 2 Note on, E2 key =  40 ; velocity: 127
@111000 Channel: 2 Note on, E2 key =  40 ; velocity: 0
@111000 Channel: 2 Note on, E2 key =  40 ; velocity: 127
@111060 Channel: 2 Note on, E2 key =  40 ; velocity: 0
@111060 Channel: 2 Note on, E2 key =  40 ; velocity: 127
@111120 Channel: 2 Note on, E2 key =  40 ; velocity: 0
@111120 Channel: 2 Note on, E2 key =  40 ; velocity: 127
@111180 Channel: 2 Note on, E2 key =  40 ; velocity: 0
@111180 Channel: 2 Note on, E2 key =  40 ; velocity: 127
@111240 Channel: 2 Note on, E2 key =  40 ; velocity: 0
@111240 Channel: 2 Note on, E2 key =  40 ; velocity: 127
@111300 Channel: 2 Note on, E2 key =  40 ; velocity: 0
@111300 Channel: 2 Note on, G3 key =  55 ; velocity: 127
@111300 Channel: 2 Note on, D4 key =  62 ; velocity: 127
@111360 Channel: 2 Note on, G3 key =  55 ; velocity: 0
@111360 Channel: 2 Note on, D4 key =  62 ; velocity: 0
@111360 Channel: 2 Note on, C#4 key =  61 ; velocity: 127
@111360 Channel: 2 Note on, F#3 key =  54 ; velocity: 127
@111420 Channel: 2 Note on, C#4 key =  61 ; velocity: 0
@111420 Channel: 2 Note on, F#3 key =  54 ; velocity: 0
@111420 Channel: 2 Note on, E2 key =  40 ; velocity: 127
@111480 Channel: 2 Note on, E2 key =  40 ; velocity: 0
@111480 Channel: 2 Note on, E2 key =  40 ; velocity: 127
@111540 Channel: 2 Note on, E2 key =  40 ; velocity: 0
@111540 Channel: 2 Note on, F#3 key =  54 ; velocity: 127
@111540 Channel: 2 Note on, C#4 key =  61 ; velocity: 127
@111600 Channel: 2 Note on, F#3 key =  54 ; velocity: 0
@111600 Channel: 2 Note on, C#4 key =  61 ; velocity: 0
@111600 Channel: 2 Note on, A3 key =  57 ; velocity: 127
@111600 Channel: 2 Note on, D3 key =  50 ; velocity: 127
@111660 Channel: 2 Note on, A3 key =  57 ; velocity: 0
@111660 Channel: 2 Note on, D3 key =  50 ; velocity: 0
@111660 Channel: 2 Note on, E2 key =  40 ; velocity: 127
@111720 Channel: 2 Note on, E2 key =  40 ; velocity: 0
@111720 Channel: 2 Note on, E2 key =  40 ; velocity: 127
@111780 Channel: 2 Note on, E2 key =  40 ; velocity: 0
@111780 Channel: 2 Note on, D3 key =  50 ; velocity: 127
@111780 Channel: 2 Note on, A3 key =  57 ; velocity: 127
@111840 Channel: 2 Note on, D3 key =  50 ; velocity: 0
@111840 Channel: 2 Note on, A3 key =  57 ; velocity: 0
@111840 Channel: 2 Note on, B2 key =  47 ; velocity: 127
@111840 Channel: 2 Note on, E2 key =  40 ; velocity: 127
@111900 Channel: 2 Note on, B2 key =  47 ; velocity: 0
@111900 Channel: 2 Note on, E2 key =  40 ; velocity: 0
@111900 Channel: 2 Note on, E2 key =  40 ; velocity: 127
@111960 Channel: 2 Note on, E2 key =  40 ; velocity: 0
@111960 Channel: 2 Note on, E2 key =  40 ; velocity: 127
@112020 Channel: 2 Note on, E2 key =  40 ; velocity: 0
@112020 Channel: 2 Note on, E2 key =  40 ; velocity: 127
@112080 Channel: 2 Note on, E2 key =  40 ; velocity: 0
@112080 Channel: 2 Note on, E2 key =  40 ; velocity: 127
@112140 Channel: 2 Note on, E2 key =  40 ; velocity: 0
@112140 Channel: 2 Note on, E2 key =  40 ; velocity: 127
@112200 Channel: 2 Note on, E2 key =  40 ; velocity: 0
@112200 Channel: 2 Note on, E2 key =  40 ; velocity: 127
@112260 Channel: 2 Note on, E2 key =  40 ; velocity: 0
@112260 Channel: 2 Note on, G3 key =  55 ; velocity: 127
@112260 Channel: 2 Note on, D4 key =  62 ; velocity: 127
@112320 Channel: 2 Note on, G3 key =  55 ; velocity: 0
@112320 Channel: 2 Note on, D4 key =  62 ; velocity: 0
@112320 Channel: 2 Note on, C#4 key =  61 ; velocity: 127
@112320 Channel: 2 Note on, F#3 key =  54 ; velocity: 127
@112380 Channel: 2 Note on, C#4 key =  61 ; velocity: 0
@112380 Channel: 2 Note on, F#3 key =  54 ; velocity: 0
@112380 Channel: 2 Note on, E2 key =  40 ; velocity: 127
@112440 Channel: 2 Note on, E2 key =  40 ; velocity: 0
@112440 Channel: 2 Note on, E2 key =  40 ; velocity: 127
@112500 Channel: 2 Note on, E2 key =  40 ; velocity: 0
@112500 Channel: 2 Note on, F#3 key =  54 ; velocity: 127
@112500 Channel: 2 Note on, C#4 key =  61 ; velocity: 127
@112560 Channel: 2 Note on, F#3 key =  54 ; velocity: 0
@112560 Channel: 2 Note on, C#4 key =  61 ; velocity: 0
@112560 Channel: 2 Note on, F3 key =  53 ; velocity: 127
@112560 Channel: 2 Note on, C4 key =  60 ; velocity: 127
@112620 Channel: 2 Note on, F3 key =  53 ; velocity: 0
@112620 Channel: 2 Note on, C4 key =  60 ; velocity: 0
@112620 Channel: 2 Note on, E2 key =  40 ; velocity: 127
@112680 Channel: 2 Note on, E2 key =  40 ; velocity: 0
@112680 Channel: 2 Note on, E2 key =  40 ; velocity: 127
@112740 Channel: 2 Note on, E2 key =  40 ; velocity: 0
@112740 Channel: 2 Note on, C4 key =  60 ; velocity: 127
@112740 Channel: 2 Note on, F3 key =  53 ; velocity: 127
@112800 Channel: 2 Note on, C4 key =  60 ; velocity: 0
@112800 Channel: 2 Note on, F3 key =  53 ; velocity: 0
@112800 Channel: 2 Note on, B2 key =  47 ; velocity: 127
@112800 Channel: 2 Note on, E2 key =  40 ; velocity: 127
@112860 Channel: 2 Note on, B2 key =  47 ; velocity: 0
@112860 Channel: 2 Note on, E2 key =  40 ; velocity: 0
@112860 Channel: 2 Note on, E2 key =  40 ; velocity: 127
@112920 Channel: 2 Note on, E2 key =  40 ; velocity: 0
@112920 Channel: 2 Note on, E2 key =  40 ; velocity: 127
@112980 Channel: 2 Note on, E2 key =  40 ; velocity: 0
@112980 Channel: 2 Note on, E2 key =  40 ; velocity: 127
@113040 Channel: 2 Note on, E2 key =  40 ; velocity: 0
@113040 Channel: 2 Note on, E2 key =  40 ; velocity: 127
@113100 Channel: 2 Note on, E2 key =  40 ; velocity: 0
@113100 Channel: 2 Note on, E2 key =  40 ; velocity: 127
@113160 Channel: 2 Note on, E2 key =  40 ; velocity: 0
@113160 Channel: 2 Note on, E2 key =  40 ; velocity: 127
@113220 Channel: 2 Note on, E2 key =  40 ; velocity: 0
@113220 Channel: 2 Note on, G3 key =  55 ; velocity: 127
@113220 Channel: 2 Note on, D4 key =  62 ; velocity: 127
@113280 Channel: 2 Note on, G3 key =  55 ; velocity: 0
@113280 Channel: 2 Note on, D4 key =  62 ; velocity: 0
@113280 Channel: 2 Note on, C#4 key =  61 ; velocity: 127
@113280 Channel: 2 Note on, F#3 key =  54 ; velocity: 127
@113340 Channel: 2 Note on, C#4 key =  61 ; velocity: 0
@113340 Channel: 2 Note on, F#3 key =  54 ; velocity: 0
@113340 Channel: 2 Note on, E2 key =  40 ; velocity: 127
@113400 Channel: 2 Note on, E2 key =  40 ; velocity: 0
@113400 Channel: 2 Note on, E2 key =  40 ; velocity: 127
@113460 Channel: 2 Note on, E2 key =  40 ; velocity: 0
@113460 Channel: 2 Note on, F#3 key =  54 ; velocity: 127
@113460 Channel: 2 Note on, C#4 key =  61 ; velocity: 127
@113520 Channel: 2 Note on, F#3 key =  54 ; velocity: 0
@113520 Channel: 2 Note on, C#4 key =  61 ; velocity: 0
@113520 Channel: 2 Note on, A3 key =  57 ; velocity: 127
@113520 Channel: 2 Note on, D3 key =  50 ; velocity: 127
@113580 Channel: 2 Note on, A3 key =  57 ; velocity: 0
@113580 Channel: 2 Note on, D3 key =  50 ; velocity: 0
@113580 Channel: 2 Note on, E2 key =  40 ; velocity: 127
@113640 Channel: 2 Note on, E2 key =  40 ; velocity: 0
@113640 Channel: 2 Note on, E2 key =  40 ; velocity: 127
@113700 Channel: 2 Note on, E2 key =  40 ; velocity: 0
@113700 Channel: 2 Note on, D3 key =  50 ; velocity: 127
@113700 Channel: 2 Note on, A3 key =  57 ; velocity: 127
@113760 Channel: 2 Note on, D3 key =  50 ; velocity: 0
@113760 Channel: 2 Note on, A3 key =  57 ; velocity: 0
@113760 Channel: 2 Note on, E3 key =  52 ; velocity: 127
@113760 Channel: 2 Note on, B3 key =  59 ; velocity: 127
@113820 Channel: 2 Note on, E3 key =  52 ; velocity: 0
@113820 Channel: 2 Note on, B3 key =  59 ; velocity: 0
@113820 Channel: 2 Note on, E2 key =  40 ; velocity: 127
@113880 Channel: 2 Note on, E2 key =  40 ; velocity: 0
@113880 Channel: 2 Note on, E2 key =  40 ; velocity: 127
@113940 Channel: 2 Note on, E2 key =  40 ; velocity: 0
@113940 Channel: 2 Note on, E2 key =  40 ; velocity: 127
@114000 Channel: 2 Note on, E2 key =  40 ; velocity: 0
@114000 Channel: 2 Note on, E2 key =  40 ; velocity: 127
@114060 Channel: 2 Note on, E2 key =  40 ; velocity: 0
@114060 Channel: 2 Note on, E2 key =  40 ; velocity: 127
@114120 Channel: 2 Note on, E2 key =  40 ; velocity: 0
@114120 Channel: 2 Note on, E3 key =  52 ; velocity: 127
@114240 Channel: 2 Note on, E3 key =  52 ; velocity: 0
@114240 Channel: 2 Note on, E2 key =  40 ; velocity: 127
@114300 Channel: 2 Note on, E2 key =  40 ; velocity: 0
@114300 Channel: 2 Note on, E2 key =  40 ; velocity: 127
@114360 Channel: 2 Note on, E2 key =  40 ; velocity: 0
@114360 Channel: 2 Note on, B2 key =  47 ; velocity: 127
@114360 Channel: 2 Note on, E2 key =  40 ; velocity: 127
@114420 Channel: 2 Note on, B2 key =  47 ; velocity: 0
@114420 Channel: 2 Note on, E2 key =  40 ; velocity: 0
@114420 Channel: 2 Note on, E2 key =  40 ; velocity: 127
@114480 Channel: 2 Note on, E2 key =  40 ; velocity: 0
@114480 Channel: 2 Note on, E2 key =  40 ; velocity: 127
@114540 Channel: 2 Note on, E2 key =  40 ; velocity: 0
@114540 Channel: 2 Note on, D3 key =  50 ; velocity: 127
@114540 Channel: 2 Note on, G2 key =  43 ; velocity: 127
@114600 Channel: 2 Note on, D3 key =  50 ; velocity: 0
@114600 Channel: 2 Note on, G2 key =  43 ; velocity: 0
@114600 Channel: 2 Note on, E2 key =  40 ; velocity: 127
@114660 Channel: 2 Note on, E2 key =  40 ; velocity: 0
@114660 Channel: 2 Note on, E2 key =  40 ; velocity: 127
@114720 Channel: 2 Note on, E2 key =  40 ; velocity: 0
@114720 Channel: 2 Note on, C#3 key =  49 ; velocity: 127
@114720 Channel: 2 Note on, F#2 key =  42 ; velocity: 127
@114780 Channel: 2 Note on, C#3 key =  49 ; velocity: 0
@114780 Channel: 2 Note on, F#2 key =  42 ; velocity: 0
@114780 Channel: 2 Note on, E2 key =  40 ; velocity: 127
@114840 Channel: 2 Note on, E2 key =  40 ; velocity: 0
@114840 Channel: 2 Note on, E2 key =  40 ; velocity: 127
@114900 Channel: 2 Note on, E2 key =  40 ; velocity: 0
@114900 Channel: 2 Note on, D3 key =  50 ; velocity: 127
@114900 Channel: 2 Note on, G2 key =  43 ; velocity: 127
@114960 Channel: 2 Note on, D3 key =  50 ; velocity: 0
@114960 Channel: 2 Note on, G2 key =  43 ; velocity: 0
@114960 Channel: 2 Note on, E2 key =  40 ; velocity: 127
@115020 Channel: 2 Note on, E2 key =  40 ; velocity: 0
@115020 Channel: 2 Note on, E2 key =  40 ; velocity: 127
@115080 Channel: 2 Note on, E2 key =  40 ; velocity: 0
@115080 Channel: 2 Note on, E3 key =  52 ; velocity: 127
@115080 Channel: 2 Note on, A2 key =  45 ; velocity: 127
@115140 Channel: 2 Note on, E3 key =  52 ; velocity: 0
@115140 Channel: 2 Note on, A2 key =  45 ; velocity: 0
@115140 Channel: 2 Note on, G2 key =  43 ; velocity: 127
@115140 Channel: 2 Note on, D3 key =  50 ; velocity: 127
@115200 Channel: 2 Note on, G2 key =  43 ; velocity: 0
@115200 Channel: 2 Note on, D3 key =  50 ; velocity: 0
@115200 Channel: 2 Note on, E2 key =  40 ; velocity: 127
@115260 Channel: 2 Note on, E2 key =  40 ; velocity: 0
@115260 Channel: 2 Note on, E2 key =  40 ; velocity: 127
@115320 Channel: 2 Note on, E2 key =  40 ; velocity: 0
@115320 Channel: 2 Note on, B2 key =  47 ; velocity: 127
@115320 Channel: 2 Note on, E2 key =  40 ; velocity: 127
@115380 Channel: 2 Note on, B2 key =  47 ; velocity: 0
@115380 Channel: 2 Note on, E2 key =  40 ; velocity: 0
@115380 Channel: 2 Note on, E2 key =  40 ; velocity: 127
@115440 Channel: 2 Note on, E2 key =  40 ; velocity: 0
@115440 Channel: 2 Note on, E2 key =  40 ; velocity: 127
@115500 Channel: 2 Note on, E2 key =  40 ; velocity: 0
@115500 Channel: 2 Note on, D3 key =  50 ; velocity: 127
@115500 Channel: 2 Note on, G2 key =  43 ; velocity: 127
@115560 Channel: 2 Note on, D3 key =  50 ; velocity: 0
@115560 Channel: 2 Note on, G2 key =  43 ; velocity: 0
@115560 Channel: 2 Note on, E2 key =  40 ; velocity: 127
@115620 Channel: 2 Note on, E2 key =  40 ; velocity: 0
@115620 Channel: 2 Note on, E2 key =  40 ; velocity: 127
@115680 Channel: 2 Note on, E2 key =  40 ; velocity: 0
@115680 Channel: 2 Note on, C#3 key =  49 ; velocity: 127
@115680 Channel: 2 Note on, F#2 key =  42 ; velocity: 127
@115740 Channel: 2 Note on, C#3 key =  49 ; velocity: 0
@115740 Channel: 2 Note on, F#2 key =  42 ; velocity: 0
@115740 Channel: 2 Note on, E2 key =  40 ; velocity: 127
@115800 Channel: 2 Note on, E2 key =  40 ; velocity: 0
@115800 Channel: 2 Note on, E2 key =  40 ; velocity: 127
@115860 Channel: 2 Note on, E2 key =  40 ; velocity: 0
@115860 Channel: 2 Note on, D3 key =  50 ; velocity: 127
@115860 Channel: 2 Note on, G2 key =  43 ; velocity: 127
@115920 Channel: 2 Note on, D3 key =  50 ; velocity: 0
@115920 Channel: 2 Note on, G2 key =  43 ; velocity: 0
@115920 Channel: 2 Note on, E2 key =  40 ; velocity: 127
@115980 Channel: 2 Note on, E2 key =  40 ; velocity: 0
@115980 Channel: 2 Note on, E2 key =  40 ; velocity: 127
@116040 Channel: 2 Note on, E2 key =  40 ; velocity: 0
@116040 Channel: 2 Note on, E3 key =  52 ; velocity: 127
@116040 Channel: 2 Note on, A2 key =  45 ; velocity: 127
@116100 Channel: 2 Note on, E3 key =  52 ; velocity: 0
@116100 Channel: 2 Note on, A2 key =  45 ; velocity: 0
@116100 Channel: 2 Note on, G2 key =  43 ; velocity: 127
@116100 Channel: 2 Note on, D3 key =  50 ; velocity: 127
@116160 Channel: 2 Note on, G2 key =  43 ; velocity: 0
@116160 Channel: 2 Note on, D3 key =  50 ; velocity: 0
@116160 Channel: 2 Note on, E2 key =  40 ; velocity: 127
@116220 Channel: 2 Note on, E2 key =  40 ; velocity: 0
@116220 Channel: 2 Note on, E2 key =  40 ; velocity: 127
@116280 Channel: 2 Note on, E2 key =  40 ; velocity: 0
@116280 Channel: 2 Note on, B2 key =  47 ; velocity: 127
@116280 Channel: 2 Note on, E2 key =  40 ; velocity: 127
@116340 Channel: 2 Note on, B2 key =  47 ; velocity: 0
@116340 Channel: 2 Note on, E2 key =  40 ; velocity: 0
@116340 Channel: 2 Note on, E2 key =  40 ; velocity: 127
@116400 Channel: 2 Note on, E2 key =  40 ; velocity: 0
@116400 Channel: 2 Note on, E2 key =  40 ; velocity: 127
@116460 Channel: 2 Note on, E2 key =  40 ; velocity: 0
@116460 Channel: 2 Note on, D3 key =  50 ; velocity: 127
@116460 Channel: 2 Note on, G2 key =  43 ; velocity: 127
@116520 Channel: 2 Note on, D3 key =  50 ; velocity: 0
@116520 Channel: 2 Note on, G2 key =  43 ; velocity: 0
@116520 Channel: 2 Note on, E2 key =  40 ; velocity: 127
@116580 Channel: 2 Note on, E2 key =  40 ; velocity: 0
@116580 Channel: 2 Note on, E2 key =  40 ; velocity: 127
@116640 Channel: 2 Note on, E2 key =  40 ; velocity: 0
@116640 Channel: 2 Note on, C#3 key =  49 ; velocity: 127
@116640 Channel: 2 Note on, F#2 key =  42 ; velocity: 127
@116700 Channel: 2 Note on, C#3 key =  49 ; velocity: 0
@116700 Channel: 2 Note on, F#2 key =  42 ; velocity: 0
@116700 Channel: 2 Note on, E2 key =  40 ; velocity: 127
@116760 Channel: 2 Note on, E2 key =  40 ; velocity: 0
@116760 Channel: 2 Note on, E2 key =  40 ; velocity: 127
@116820 Channel: 2 Note on, E2 key =  40 ; velocity: 0
@116820 Channel: 2 Note on, D3 key =  50 ; velocity: 127
@116820 Channel: 2 Note on, G2 key =  43 ; velocity: 127
@116880 Channel: 2 Note on, D3 key =  50 ; velocity: 0
@116880 Channel: 2 Note on, G2 key =  43 ; velocity: 0
@116880 Channel: 2 Note on, E2 key =  40 ; velocity: 127
@116940 Channel: 2 Note on, E2 key =  40 ; velocity: 0
@116940 Channel: 2 Note on, E2 key =  40 ; velocity: 127
@117000 Channel: 2 Note on, E2 key =  40 ; velocity: 0
@117000 Channel: 2 Note on, E3 key =  52 ; velocity: 127
@117000 Channel: 2 Note on, A2 key =  45 ; velocity: 127
@117060 Channel: 2 Note on, E3 key =  52 ; velocity: 0
@117060 Channel: 2 Note on, A2 key =  45 ; velocity: 0
@117060 Channel: 2 Note on, G2 key =  43 ; velocity: 127
@117060 Channel: 2 Note on, D3 key =  50 ; velocity: 127
@117120 Channel: 2 Note on, G2 key =  43 ; velocity: 0
@117120 Channel: 2 Note on, D3 key =  50 ; velocity: 0
@117120 Channel: 2 Note on, E2 key =  40 ; velocity: 127
@117180 Channel: 2 Note on, E2 key =  40 ; velocity: 0
@117180 Channel: 2 Note on, E2 key =  40 ; velocity: 127
@117240 Channel: 2 Note on, E2 key =  40 ; velocity: 0
@117240 Channel: 2 Note on, B2 key =  47 ; velocity: 127
@117240 Channel: 2 Note on, E2 key =  40 ; velocity: 127
@117300 Channel: 2 Note on, B2 key =  47 ; velocity: 0
@117300 Channel: 2 Note on, E2 key =  40 ; velocity: 0
@117300 Channel: 2 Note on, E2 key =  40 ; velocity: 127
@117360 Channel: 2 Note on, E2 key =  40 ; velocity: 0
@117360 Channel: 2 Note on, E2 key =  40 ; velocity: 127
@117420 Channel: 2 Note on, E2 key =  40 ; velocity: 0
@117420 Channel: 2 Note on, D3 key =  50 ; velocity: 127
@117420 Channel: 2 Note on, G2 key =  43 ; velocity: 127
@117480 Channel: 2 Note on, D3 key =  50 ; velocity: 0
@117480 Channel: 2 Note on, G2 key =  43 ; velocity: 0
@117480 Channel: 2 Note on, E2 key =  40 ; velocity: 127
@117540 Channel: 2 Note on, E2 key =  40 ; velocity: 0
@117540 Channel: 2 Note on, E2 key =  40 ; velocity: 127
@117600 Channel: 2 Note on, E2 key =  40 ; velocity: 0
@117600 Channel: 2 Note on, C#3 key =  49 ; velocity: 127
@117600 Channel: 2 Note on, F#2 key =  42 ; velocity: 127
@117660 Channel: 2 Note on, C#3 key =  49 ; velocity: 0
@117660 Channel: 2 Note on, F#2 key =  42 ; velocity: 0
@117660 Channel: 2 Note on, E2 key =  40 ; velocity: 127
@117720 Channel: 2 Note on, E2 key =  40 ; velocity: 0
@117720 Channel: 2 Note on, E2 key =  40 ; velocity: 127
@117780 Channel: 2 Note on, E2 key =  40 ; velocity: 0
@117780 Channel: 2 Note on, D3 key =  50 ; velocity: 127
@117780 Channel: 2 Note on, G2 key =  43 ; velocity: 127
@117840 Channel: 2 Note on, D3 key =  50 ; velocity: 0
@117840 Channel: 2 Note on, G2 key =  43 ; velocity: 0
@117840 Channel: 2 Note on, E2 key =  40 ; velocity: 127
@117900 Channel: 2 Note on, E2 key =  40 ; velocity: 0
@117900 Channel: 2 Note on, E2 key =  40 ; velocity: 127
@117960 Channel: 2 Note on, E2 key =  40 ; velocity: 0
@117960 Channel: 2 Note on, E3 key =  52 ; velocity: 127
@117960 Channel: 2 Note on, A2 key =  45 ; velocity: 127
@118020 Channel: 2 Note on, E3 key =  52 ; velocity: 0
@118020 Channel: 2 Note on, A2 key =  45 ; velocity: 0
@118020 Channel: 2 Note on, G2 key =  43 ; velocity: 127
@118020 Channel: 2 Note on, D3 key =  50 ; velocity: 127
@118080 Channel: 2 Note on, G2 key =  43 ; velocity: 0
@118080 Channel: 2 Note on, D3 key =  50 ; velocity: 0
@118080 Channel: 2 Note on, E2 key =  40 ; velocity: 127
@118140 Channel: 2 Note on, E2 key =  40 ; velocity: 0
@118140 Channel: 2 Note on, E2 key =  40 ; velocity: 127
@118200 Channel: 2 Note on, E2 key =  40 ; velocity: 0
@118200 Channel: 2 Note on, B2 key =  47 ; velocity: 127
@118200 Channel: 2 Note on, E2 key =  40 ; velocity: 127
@118260 Channel: 2 Note on, B2 key =  47 ; velocity: 0
@118260 Channel: 2 Note on, E2 key =  40 ; velocity: 0
@118260 Channel: 2 Note on, E2 key =  40 ; velocity: 127
@118320 Channel: 2 Note on, E2 key =  40 ; velocity: 0
@118320 Channel: 2 Note on, E2 key =  40 ; velocity: 127
@118380 Channel: 2 Note on, E2 key =  40 ; velocity: 0
@118380 Channel: 2 Note on, D3 key =  50 ; velocity: 127
@118380 Channel: 2 Note on, G2 key =  43 ; velocity: 127
@118440 Channel: 2 Note on, D3 key =  50 ; velocity: 0
@118440 Channel: 2 Note on, G2 key =  43 ; velocity: 0
@118440 Channel: 2 Note on, E2 key =  40 ; velocity: 127
@118500 Channel: 2 Note on, E2 key =  40 ; velocity: 0
@118500 Channel: 2 Note on, E2 key =  40 ; velocity: 127
@118560 Channel: 2 Note on, E2 key =  40 ; velocity: 0
@118560 Channel: 2 Note on, C#3 key =  49 ; velocity: 127
@118560 Channel: 2 Note on, F#2 key =  42 ; velocity: 127
@118620 Channel: 2 Note on, C#3 key =  49 ; velocity: 0
@118620 Channel: 2 Note on, F#2 key =  42 ; velocity: 0
@118620 Channel: 2 Note on, E2 key =  40 ; velocity: 127
@118680 Channel: 2 Note on, E2 key =  40 ; velocity: 0
@118680 Channel: 2 Note on, E2 key =  40 ; velocity: 127
@118740 Channel: 2 Note on, E2 key =  40 ; velocity: 0
@118740 Channel: 2 Note on, D3 key =  50 ; velocity: 127
@118740 Channel: 2 Note on, G2 key =  43 ; velocity: 127
@118800 Channel: 2 Note on, D3 key =  50 ; velocity: 0
@118800 Channel: 2 Note on, G2 key =  43 ; velocity: 0
@118800 Channel: 2 Note on, E2 key =  40 ; velocity: 127
@118860 Channel: 2 Note on, E2 key =  40 ; velocity: 0
@118860 Channel: 2 Note on, E2 key =  40 ; velocity: 127
@118920 Channel: 2 Note on, E2 key =  40 ; velocity: 0
@118920 Channel: 2 Note on, E3 key =  52 ; velocity: 127
@118920 Channel: 2 Note on, A2 key =  45 ; velocity: 127
@118980 Channel: 2 Note on, E3 key =  52 ; velocity: 0
@118980 Channel: 2 Note on, A2 key =  45 ; velocity: 0
@118980 Channel: 2 Note on, G2 key =  43 ; velocity: 127
@118980 Channel: 2 Note on, D3 key =  50 ; velocity: 127
@119040 Channel: 2 Note on, G2 key =  43 ; velocity: 0
@119040 Channel: 2 Note on, D3 key =  50 ; velocity: 0
@119040 Channel: 2 Note on, E2 key =  40 ; velocity: 127
@119100 Channel: 2 Note on, E2 key =  40 ; velocity: 0
@119100 Channel: 2 Note on, E2 key =  40 ; velocity: 127
@119160 Channel: 2 Note on, E2 key =  40 ; velocity: 0
@119160 Channel: 2 Note on, B2 key =  47 ; velocity: 127
@119160 Channel: 2 Note on, E2 key =  40 ; velocity: 127
@119220 Channel: 2 Note on, B2 key =  47 ; velocity: 0
@119220 Channel: 2 Note on, E2 key =  40 ; velocity: 0
@119220 Channel: 2 Note on, E2 key =  40 ; velocity: 127
@119280 Channel: 2 Note on, E2 key =  40 ; velocity: 0
@119280 Channel: 2 Note on, E2 key =  40 ; velocity: 127
@119340 Channel: 2 Note on, E2 key =  40 ; velocity: 0
@119340 Channel: 2 Note on, D3 key =  50 ; velocity: 127
@119340 Channel: 2 Note on, G2 key =  43 ; velocity: 127
@119400 Channel: 2 Note on, D3 key =  50 ; velocity: 0
@119400 Channel: 2 Note on, G2 key =  43 ; velocity: 0
@119400 Channel: 2 Note on, E2 key =  40 ; velocity: 127
@119460 Channel: 2 Note on, E2 key =  40 ; velocity: 0
@119460 Channel: 2 Note on, E2 key =  40 ; velocity: 127
@119520 Channel: 2 Note on, E2 key =  40 ; velocity: 0
@119520 Channel: 2 Note on, C#3 key =  49 ; velocity: 127
@119520 Channel: 2 Note on, F#2 key =  42 ; velocity: 127
@119580 Channel: 2 Note on, C#3 key =  49 ; velocity: 0
@119580 Channel: 2 Note on, F#2 key =  42 ; velocity: 0
@119580 Channel: 2 Note on, E2 key =  40 ; velocity: 127
@119640 Channel: 2 Note on, E2 key =  40 ; velocity: 0
@119640 Channel: 2 Note on, E2 key =  40 ; velocity: 127
@119700 Channel: 2 Note on, E2 key =  40 ; velocity: 0
@119700 Channel: 2 Note on, D3 key =  50 ; velocity: 127
@119700 Channel: 2 Note on, G2 key =  43 ; velocity: 127
@119760 Channel: 2 Note on, D3 key =  50 ; velocity: 0
@119760 Channel: 2 Note on, G2 key =  43 ; velocity: 0
@119760 Channel: 2 Note on, E2 key =  40 ; velocity: 127
@119820 Channel: 2 Note on, E2 key =  40 ; velocity: 0
@119820 Channel: 2 Note on, E2 key =  40 ; velocity: 127
@119880 Channel: 2 Note on, E2 key =  40 ; velocity: 0
@119880 Channel: 2 Note on, E3 key =  52 ; velocity: 127
@119880 Channel: 2 Note on, A2 key =  45 ; velocity: 127
@119940 Channel: 2 Note on, E3 key =  52 ; velocity: 0
@119940 Channel: 2 Note on, A2 key =  45 ; velocity: 0
@119940 Channel: 2 Note on, G2 key =  43 ; velocity: 127
@119940 Channel: 2 Note on, D3 key =  50 ; velocity: 127
@120000 Channel: 2 Note on, G2 key =  43 ; velocity: 0
@120000 Channel: 2 Note on, D3 key =  50 ; velocity: 0
@120000 Channel: 2 Note on, E2 key =  40 ; velocity: 127
@120060 Channel: 2 Note on, E2 key =  40 ; velocity: 0
@120060 Channel: 2 Note on, E2 key =  40 ; velocity: 127
@120120 Channel: 2 Note on, E2 key =  40 ; velocity: 0
@120120 Channel: 2 Note on, B2 key =  47 ; velocity: 127
@120120 Channel: 2 Note on, E2 key =  40 ; velocity: 127
@120180 Channel: 2 Note on, B2 key =  47 ; velocity: 0
@120180 Channel: 2 Note on, E2 key =  40 ; velocity: 0
@120180 Channel: 2 Note on, E2 key =  40 ; velocity: 127
@120240 Channel: 2 Note on, E2 key =  40 ; velocity: 0
@120240 Channel: 2 Note on, E2 key =  40 ; velocity: 127
@120300 Channel: 2 Note on, E2 key =  40 ; velocity: 0
@120300 Channel: 2 Note on, D3 key =  50 ; velocity: 127
@120300 Channel: 2 Note on, G2 key =  43 ; velocity: 127
@120360 Channel: 2 Note on, D3 key =  50 ; velocity: 0
@120360 Channel: 2 Note on, G2 key =  43 ; velocity: 0
@120360 Channel: 2 Note on, E2 key =  40 ; velocity: 127
@120420 Channel: 2 Note on, E2 key =  40 ; velocity: 0
@120420 Channel: 2 Note on, E2 key =  40 ; velocity: 127
@120480 Channel: 2 Note on, E2 key =  40 ; velocity: 0
@120480 Channel: 2 Note on, C#3 key =  49 ; velocity: 127
@120480 Channel: 2 Note on, F#2 key =  42 ; velocity: 127
@120540 Channel: 2 Note on, C#3 key =  49 ; velocity: 0
@120540 Channel: 2 Note on, F#2 key =  42 ; velocity: 0
@120540 Channel: 2 Note on, E2 key =  40 ; velocity: 127
@120600 Channel: 2 Note on, E2 key =  40 ; velocity: 0
@120600 Channel: 2 Note on, E2 key =  40 ; velocity: 127
@120660 Channel: 2 Note on, E2 key =  40 ; velocity: 0
@120660 Channel: 2 Note on, D3 key =  50 ; velocity: 127
@120660 Channel: 2 Note on, G2 key =  43 ; velocity: 127
@120720 Channel: 2 Note on, D3 key =  50 ; velocity: 0
@120720 Channel: 2 Note on, G2 key =  43 ; velocity: 0
@120720 Channel: 2 Note on, E2 key =  40 ; velocity: 127
@120780 Channel: 2 Note on, E2 key =  40 ; velocity: 0
@120780 Channel: 2 Note on, E2 key =  40 ; velocity: 127
@120840 Channel: 2 Note on, E2 key =  40 ; velocity: 0
@120840 Channel: 2 Note on, E3 key =  52 ; velocity: 127
@120840 Channel: 2 Note on, A2 key =  45 ; velocity: 127
@120900 Channel: 2 Note on, E3 key =  52 ; velocity: 0
@120900 Channel: 2 Note on, A2 key =  45 ; velocity: 0
@120900 Channel: 2 Note on, G2 key =  43 ; velocity: 127
@120900 Channel: 2 Note on, D3 key =  50 ; velocity: 127
@120960 Channel: 2 Note on, G2 key =  43 ; velocity: 0
@120960 Channel: 2 Note on, D3 key =  50 ; velocity: 0
@120960 Channel: 2 Note on, E2 key =  40 ; velocity: 127
@121020 Channel: 2 Note on, E2 key =  40 ; velocity: 0
@121020 Channel: 2 Note on, E2 key =  40 ; velocity: 127
@121080 Channel: 2 Note on, E2 key =  40 ; velocity: 0
@121080 Channel: 2 Note on, B2 key =  47 ; velocity: 127
@121080 Channel: 2 Note on, E2 key =  40 ; velocity: 127
@121140 Channel: 2 Note on, B2 key =  47 ; velocity: 0
@121140 Channel: 2 Note on, E2 key =  40 ; velocity: 0
@121140 Channel: 2 Note on, E2 key =  40 ; velocity: 127
@121200 Channel: 2 Note on, E2 key =  40 ; velocity: 0
@121200 Channel: 2 Note on, E2 key =  40 ; velocity: 127
@121260 Channel: 2 Note on, E2 key =  40 ; velocity: 0
@121260 Channel: 2 Note on, D3 key =  50 ; velocity: 127
@121260 Channel: 2 Note on, G2 key =  43 ; velocity: 127
@121320 Channel: 2 Note on, D3 key =  50 ; velocity: 0
@121320 Channel: 2 Note on, G2 key =  43 ; velocity: 0
@121320 Channel: 2 Note on, E2 key =  40 ; velocity: 127
@121380 Channel: 2 Note on, E2 key =  40 ; velocity: 0
@121380 Channel: 2 Note on, E2 key =  40 ; velocity: 127
@121440 Channel: 2 Note on, E2 key =  40 ; velocity: 0
@121440 Channel: 2 Note on, F#2 key =  42 ; velocity: 127
@121440 Channel: 2 Note on, C#3 key =  49 ; velocity: 127
@121440 Channel: 2 Note on, F#3 key =  54 ; velocity: 127
@121500 Channel: 2 Note on, F#2 key =  42 ; velocity: 0
@121500 Channel: 2 Note on, C#3 key =  49 ; velocity: 0
@121500 Channel: 2 Note on, F#3 key =  54 ; velocity: 0
@121500 Channel: 2 Note on, E2 key =  40 ; velocity: 127
@121560 Channel: 2 Note on, E2 key =  40 ; velocity: 0
@121560 Channel: 2 Note on, E2 key =  40 ; velocity: 127
@121620 Channel: 2 Note on, E2 key =  40 ; velocity: 0
@121620 Channel: 2 Note on, E2 key =  40 ; velocity: 127
@121680 Channel: 2 Note on, E2 key =  40 ; velocity: 0
@121680 Channel: 2 Note on, E2 key =  40 ; velocity: 127
@121740 Channel: 2 Note on, E2 key =  40 ; velocity: 0
@121740 Channel: 2 Note on, E2 key =  40 ; velocity: 127
@121800 Channel: 2 Note on, E2 key =  40 ; velocity: 0
@121800 Channel: 2 Note on, A2 key =  45 ; velocity: 127
@121800 Channel: 2 Note on, E3 key =  52 ; velocity: 127
@121800 Channel: 2 Note on, A3 key =  57 ; velocity: 127
@121860 Channel: 2 Note on, A2 key =  45 ; velocity: 0
@121860 Channel: 2 Note on, E3 key =  52 ; velocity: 0
@121860 Channel: 2 Note on, A3 key =  57 ; velocity: 0
@121860 Channel: 2 Note on, G3 key =  55 ; velocity: 127
@121860 Channel: 2 Note on, D3 key =  50 ; velocity: 127
@121860 Channel: 2 Note on, G2 key =  43 ; velocity: 127
@121920 Channel: 2 Note on, G3 key =  55 ; velocity: 0
@121920 Channel: 2 Note on, D3 key =  50 ; velocity: 0
@121920 Channel: 2 Note on, G2 key =  43 ; velocity: 0
@121920 Channel: 2 Note on, E2 key =  40 ; velocity: 127
@121980 Channel: 2 Note on, E2 key =  40 ; velocity: 0
@121980 Channel: 2 Note on, E2 key =  40 ; velocity: 127
@122040 Channel: 2 Note on, E2 key =  40 ; velocity: 0
@122040 Channel: 2 Note on, E4 key =  64 ; velocity: 127
@122100 Channel: 2 Note on, E4 key =  64 ; velocity: 0
@122100 Channel: 2 Note on, D4 key =  62 ; velocity: 127
@122160 Channel: 2 Note on, D4 key =  62 ; velocity: 0
@122160 Channel: 2 Note on, B3 key =  59 ; velocity: 127
@122220 Channel: 2 Note on, B3 key =  59 ; velocity: 0
@122220 Channel: 2 Note on, D4 key =  62 ; velocity: 127
@122280 Channel: 2 Note on, D4 key =  62 ; velocity: 0
@122280 Channel: 2 Note on, B3 key =  59 ; velocity: 127
@122340 Channel: 2 Note on, B3 key =  59 ; velocity: 0
@122340 Channel: 2 Note on, A#3 key =  58 ; velocity: 127
@122400 Channel: 2 Note on, A#3 key =  58 ; velocity: 0
@122400 Channel: 2 Note on, A3 key =  57 ; velocity: 127
@122460 Channel: 2 Note on, A3 key =  57 ; velocity: 0
@122460 Channel: 2 Note on, G3 key =  55 ; velocity: 127
@122520 Channel: 2 Note on, G3 key =  55 ; velocity: 0
@122520 Channel: 2 Note on, E4 key =  64 ; velocity: 127
@122580 Channel: 2 Note on, E4 key =  64 ; velocity: 0
@122580 Channel: 2 Note on, D4 key =  62 ; velocity: 127
@122640 Channel: 2 Note on, D4 key =  62 ; velocity: 0
@122640 Channel: 2 Note on, B3 key =  59 ; velocity: 127
@122700 Channel: 2 Note on, B3 key =  59 ; velocity: 0
@122700 Channel: 2 Note on, D4 key =  62 ; velocity: 127
@122760 Channel: 2 Note on, D4 key =  62 ; velocity: 0
@122760 Channel: 2 Note on, B3 key =  59 ; velocity: 127
@122820 Channel: 2 Note on, B3 key =  59 ; velocity: 0
@122820 Channel: 2 Note on, A#3 key =  58 ; velocity: 127
@122880 Channel: 2 Note on, A#3 key =  58 ; velocity: 0
@122880 Channel: 2 Note on, A3 key =  57 ; velocity: 127
@122940 Channel: 2 Note on, A3 key =  57 ; velocity: 0
@122940 Channel: 2 Note on, G3 key =  55 ; velocity: 127
@123000 Channel: 2 Note on, G3 key =  55 ; velocity: 0
@123000 Channel: 2 Note on, E4 key =  64 ; velocity: 127
@123060 Channel: 2 Note on, E4 key =  64 ; velocity: 0
@123060 Channel: 2 Note on, D4 key =  62 ; velocity: 127
@123120 Channel: 2 Note on, D4 key =  62 ; velocity: 0
@123120 Channel: 2 Note on, B3 key =  59 ; velocity: 127
@123180 Channel: 2 Note on, B3 key =  59 ; velocity: 0
@123180 Channel: 2 Note on, D4 key =  62 ; velocity: 127
@123240 Channel: 2 Note on, D4 key =  62 ; velocity: 0
@123240 Channel: 2 Note on, B3 key =  59 ; velocity: 127
@123300 Channel: 2 Note on, B3 key =  59 ; velocity: 0
@123300 Channel: 2 Note on, A#3 key =  58 ; velocity: 127
@123360 Channel: 2 Note on, A#3 key =  58 ; velocity: 0
@123360 Channel: 2 Note on, A3 key =  57 ; velocity: 127
@123420 Channel: 2 Note on, A3 key =  57 ; velocity: 0
@123420 Channel: 2 Note on, G3 key =  55 ; velocity: 127
@123480 Channel: 2 Note on, G3 key =  55 ; velocity: 0
@123480 Channel: 2 Note on, E2 key =  40 ; velocity: 127
@123540 Channel: 2 Note on, E2 key =  40 ; velocity: 0
@123540 Channel: 2 Note on, E2 key =  40 ; velocity: 127
@123600 Channel: 2 Note on, E2 key =  40 ; velocity: 0
@123600 Channel: 2 Note on, E2 key =  40 ; velocity: 127
@123660 Channel: 2 Note on, E2 key =  40 ; velocity: 0
@123660 Channel: 2 Note on, E2 key =  40 ; velocity: 127
@123720 Channel: 2 Note on, E2 key =  40 ; velocity: 0
@123720 Channel: 2 Note on, G4 key =  67 ; velocity: 127
@123720 Channel: 2 Note on, D4 key =  62 ; velocity: 127
@123720 Channel: 2 Note on, G3 key =  55 ; velocity: 127
@123720 Channel: 2 Note on, E2 key =  40 ; velocity: 127
@123720 Channel: 2 Command: 176

@123840 Channel: 2 Note on, G4 key =  67 ; velocity: 0
@123840 Channel: 2 Note on, D4 key =  62 ; velocity: 0
@123840 Channel: 2 Note on, G3 key =  55 ; velocity: 0
@123840 Channel: 2 Note on, E2 key =  40 ; velocity: 0
@123840 Other Message: class javax.sound.midi.Track$ImmutableEndOfTrack

Track 5: size = 999
@0 Other Message: class javax.sound.midi.MetaMessage

@0 Other Message: class javax.sound.midi.MetaMessage

@0 Channel: 3 Command: 192

@0 Channel: 3 Command: 176

@64140 Channel: 3 Note on, B4 key =  71 ; velocity: 127
@64200 Channel: 3 Note on, B4 key =  71 ; velocity: 0
@64200 Channel: 3 Note on, D5 key =  74 ; velocity: 127
@64230 Channel: 3 Note on, D5 key =  74 ; velocity: 0
@64230 Channel: 3 Note on, E5 key =  76 ; velocity: 127
@64320 Channel: 3 Note on, E5 key =  76 ; velocity: 0
@64320 Channel: 3 Note on, G5 key =  79 ; velocity: 127
@64350 Channel: 3 Note on, G5 key =  79 ; velocity: 0
@64350 Channel: 3 Note on, E5 key =  76 ; velocity: 127
@64380 Channel: 3 Note on, E5 key =  76 ; velocity: 0
@64380 Channel: 3 Note on, B4 key =  71 ; velocity: 127
@64410 Channel: 3 Note on, B4 key =  71 ; velocity: 0
@64410 Channel: 3 Note on, E5 key =  76 ; velocity: 127
@64440 Channel: 3 Note on, E5 key =  76 ; velocity: 0
@64440 Channel: 3 Note on, G5 key =  79 ; velocity: 127
@64470 Channel: 3 Note on, G5 key =  79 ; velocity: 0
@64470 Channel: 3 Note on, E5 key =  76 ; velocity: 127
@64500 Channel: 3 Note on, E5 key =  76 ; velocity: 0
@64500 Channel: 3 Note on, A5 key =  81 ; velocity: 127
@64530 Channel: 3 Note on, A5 key =  81 ; velocity: 0
@64530 Channel: 3 Note on, E5 key =  76 ; velocity: 127
@64560 Channel: 3 Note on, E5 key =  76 ; velocity: 0
@64560 Channel: 3 Note on, G5 key =  79 ; velocity: 127
@64590 Channel: 3 Note on, G5 key =  79 ; velocity: 0
@64590 Channel: 3 Note on, E5 key =  76 ; velocity: 127
@64620 Channel: 3 Note on, E5 key =  76 ; velocity: 0
@64620 Channel: 3 Note on, D5 key =  74 ; velocity: 127
@64650 Channel: 3 Note on, D5 key =  74 ; velocity: 0
@64650 Channel: 3 Note on, E5 key =  76 ; velocity: 127
@64680 Channel: 3 Note on, E5 key =  76 ; velocity: 0
@64680 Channel: 3 Note on, G5 key =  79 ; velocity: 127
@64710 Channel: 3 Note on, G5 key =  79 ; velocity: 0
@64710 Channel: 3 Note on, E5 key =  76 ; velocity: 127
@64740 Channel: 3 Note on, E5 key =  76 ; velocity: 0
@64740 Channel: 3 Note on, A5 key =  81 ; velocity: 127
@64770 Channel: 3 Note on, A5 key =  81 ; velocity: 0
@64770 Channel: 3 Note on, E5 key =  76 ; velocity: 127
@64800 Channel: 3 Note on, E5 key =  76 ; velocity: 0
@64800 Channel: 3 Note on, G5 key =  79 ; velocity: 127
@64830 Channel: 3 Note on, G5 key =  79 ; velocity: 0
@64830 Channel: 3 Note on, E5 key =  76 ; velocity: 127
@64860 Channel: 3 Note on, E5 key =  76 ; velocity: 0
@64860 Channel: 3 Note on, D5 key =  74 ; velocity: 127
@64920 Channel: 3 Note on, D5 key =  74 ; velocity: 0
@64920 Channel: 3 Note on, E5 key =  76 ; velocity: 127
@64980 Channel: 3 Note on, E5 key =  76 ; velocity: 0
@64980 Channel: 3 Note on, D5 key =  74 ; velocity: 127
@65040 Channel: 3 Note on, D5 key =  74 ; velocity: 0
@65040 Channel: 3 Note on, E5 key =  76 ; velocity: 127
@65100 Channel: 3 Note on, E5 key =  76 ; velocity: 0
@65100 Channel: 3 Command: 224

@65100 Channel: 3 Note on, D5 key =  74 ; velocity: 127
@65101 Channel: 3 Command: 224

@65102 Channel: 3 Command: 224

@65103 Channel: 3 Command: 224

@65104 Channel: 3 Command: 224

@65105 Channel: 3 Command: 224

@65106 Channel: 3 Command: 224

@65107 Channel: 3 Command: 224

@65108 Channel: 3 Command: 224

@65109 Channel: 3 Command: 224

@65110 Channel: 3 Command: 224

@65280 Channel: 3 Command: 176

@65281 Channel: 3 Command: 176

@65282 Channel: 3 Command: 176

@65283 Channel: 3 Command: 176

@65284 Channel: 3 Command: 176

@65285 Channel: 3 Command: 176

@65286 Channel: 3 Command: 176

@65287 Channel: 3 Command: 176

@65288 Channel: 3 Command: 176

@65289 Channel: 3 Command: 176

@65290 Channel: 3 Command: 176

@65639 Channel: 3 Command: 176

@65639 Channel: 3 Command: 224

@65640 Channel: 3 Note on, D5 key =  74 ; velocity: 0
@66240 Channel: 3 Note on, B4 key =  71 ; velocity: 127
@66330 Channel: 3 Note on, B4 key =  71 ; velocity: 0
@66330 Channel: 3 Note on, B4 key =  71 ; velocity: 127
@66360 Channel: 3 Note on, B4 key =  71 ; velocity: 0
@66360 Channel: 3 Note on, D5 key =  74 ; velocity: 127
@66390 Channel: 3 Note on, D5 key =  74 ; velocity: 0
@66390 Channel: 3 Note on, B4 key =  71 ; velocity: 127
@66420 Channel: 3 Note on, B4 key =  71 ; velocity: 0
@66420 Channel: 3 Note on, A4 key =  69 ; velocity: 127
@66450 Channel: 3 Note on, A4 key =  69 ; velocity: 0
@66450 Channel: 3 Note on, B4 key =  71 ; velocity: 127
@66480 Channel: 3 Note on, B4 key =  71 ; velocity: 0
@66480 Channel: 3 Note on, B4 key =  71 ; velocity: 127
@66540 Channel: 3 Note on, B4 key =  71 ; velocity: 0
@66540 Channel: 3 Note on, A4 key =  69 ; velocity: 127
@66570 Channel: 3 Note on, A4 key =  69 ; velocity: 0
@66570 Channel: 3 Note on, F#4 key =  66 ; velocity: 127
@66600 Channel: 3 Note on, F#4 key =  66 ; velocity: 0
@66600 Channel: 3 Note on, A4 key =  69 ; velocity: 127
@66630 Channel: 3 Note on, A4 key =  69 ; velocity: 0
@66630 Channel: 3 Note on, F#4 key =  66 ; velocity: 127
@66660 Channel: 3 Note on, F#4 key =  66 ; velocity: 0
@66660 Channel: 3 Note on, E4 key =  64 ; velocity: 127
@66720 Channel: 3 Note on, E4 key =  64 ; velocity: 0
@66720 Channel: 3 Note on, D4 key =  62 ; velocity: 127
@66780 Channel: 3 Note on, D4 key =  62 ; velocity: 0
@66780 Channel: 3 Note on, B3 key =  59 ; velocity: 127
@66840 Channel: 3 Note on, B3 key =  59 ; velocity: 0
@66840 Channel: 3 Note on, D4 key =  62 ; velocity: 127
@66900 Channel: 3 Note on, D4 key =  62 ; velocity: 0
@66900 Channel: 3 Command: 224

@66900 Channel: 3 Note on, E4 key =  64 ; velocity: 127
@66901 Channel: 3 Command: 224

@66902 Channel: 3 Command: 224

@66903 Channel: 3 Command: 224

@66904 Channel: 3 Command: 224

@66905 Channel: 3 Command: 224

@66906 Channel: 3 Command: 224

@66907 Channel: 3 Command: 224

@66908 Channel: 3 Command: 224

@66909 Channel: 3 Command: 224

@66910 Channel: 3 Command: 224

@66911 Channel: 3 Command: 224

@66912 Channel: 3 Command: 224

@66913 Channel: 3 Command: 224

@66914 Channel: 3 Command: 224

@66915 Channel: 3 Command: 224

@66916 Channel: 3 Command: 224

@66917 Channel: 3 Command: 224

@66918 Channel: 3 Command: 224

@66919 Channel: 3 Command: 224

@66920 Channel: 3 Command: 224

@66921 Channel: 3 Command: 224

@66922 Channel: 3 Command: 224

@66923 Channel: 3 Command: 224

@66924 Channel: 3 Command: 224

@66925 Channel: 3 Command: 224

@66926 Channel: 3 Command: 224

@66927 Channel: 3 Command: 224

@66928 Channel: 3 Command: 224

@66929 Channel: 3 Command: 224

@66930 Channel: 3 Command: 224

@66931 Channel: 3 Command: 224

@66932 Channel: 3 Command: 224

@66933 Channel: 3 Command: 224

@66934 Channel: 3 Command: 224

@66935 Channel: 3 Command: 224

@66936 Channel: 3 Command: 224

@66937 Channel: 3 Command: 224

@66938 Channel: 3 Command: 224

@66939 Channel: 3 Command: 224

@66940 Channel: 3 Command: 224

@66941 Channel: 3 Command: 224

@66942 Channel: 3 Command: 224

@66943 Channel: 3 Command: 224

@66944 Channel: 3 Command: 224

@66945 Channel: 3 Command: 224

@66946 Channel: 3 Command: 224

@66947 Channel: 3 Command: 224

@66948 Channel: 3 Command: 224

@66949 Channel: 3 Command: 224

@66950 Channel: 3 Command: 224

@66951 Channel: 3 Command: 224

@66952 Channel: 3 Command: 224

@66953 Channel: 3 Command: 224

@66954 Channel: 3 Command: 224

@66955 Channel: 3 Command: 224

@66956 Channel: 3 Command: 224

@66957 Channel: 3 Command: 224

@66958 Channel: 3 Command: 224

@66959 Channel: 3 Command: 224

@66960 Channel: 3 Command: 224

@66990 Channel: 3 Note on, E4 key =  64 ; velocity: 0
@66990 Channel: 3 Note on, D4 key =  62 ; velocity: 127
@67020 Channel: 3 Note on, D4 key =  62 ; velocity: 0
@67020 Channel: 3 Note on, B3 key =  59 ; velocity: 127
@67080 Channel: 3 Command: 176

@67081 Channel: 3 Command: 176

@67082 Channel: 3 Command: 176

@67083 Channel: 3 Command: 176

@67084 Channel: 3 Command: 176

@67085 Channel: 3 Command: 176

@67086 Channel: 3 Command: 176

@67087 Channel: 3 Command: 176

@67088 Channel: 3 Command: 176

@67089 Channel: 3 Command: 176

@67090 Channel: 3 Command: 176

@67680 Channel: 3 Note on, B3 key =  59 ; velocity: 0
@67799 Channel: 3 Command: 176

@68160 Channel: 3 Command: 176

@68160 Channel: 3 Command: 224

@68160 Channel: 3 Note on, A5 key =  81 ; velocity: 127
@68161 Channel: 3 Command: 176

@68161 Channel: 3 Command: 224

@68162 Channel: 3 Command: 176

@68162 Channel: 3 Command: 224

@68163 Channel: 3 Command: 176

@68163 Channel: 3 Command: 224

@68164 Channel: 3 Command: 176

@68164 Channel: 3 Command: 224

@68165 Channel: 3 Command: 176

@68165 Channel: 3 Command: 224

@68166 Channel: 3 Command: 176

@68166 Channel: 3 Command: 224

@68167 Channel: 3 Command: 176

@68167 Channel: 3 Command: 224

@68168 Channel: 3 Command: 176

@68168 Channel: 3 Command: 224

@68169 Channel: 3 Command: 176

@68169 Channel: 3 Command: 224

@68170 Channel: 3 Command: 176

@68170 Channel: 3 Command: 224

@68339 Channel: 3 Command: 176

@68339 Channel: 3 Command: 224

@68340 Channel: 3 Note on, A5 key =  81 ; velocity: 0
@68340 Channel: 3 Note on, A#4 key =  70 ; velocity: 127
@68370 Channel: 3 Note on, A#4 key =  70 ; velocity: 0
@68370 Channel: 3 Note on, D5 key =  74 ; velocity: 127
@68400 Channel: 3 Note on, D5 key =  74 ; velocity: 0
@68400 Channel: 3 Note on, G#5 key =  80 ; velocity: 127
@68460 Channel: 3 Note on, G#5 key =  80 ; velocity: 0
@68460 Channel: 3 Note on, G5 key =  79 ; velocity: 127
@68520 Channel: 3 Note on, G5 key =  79 ; velocity: 0
@68520 Channel: 3 Note on, F#5 key =  78 ; velocity: 127
@68580 Channel: 3 Note on, F#5 key =  78 ; velocity: 0
@68580 Channel: 3 Note on, D5 key =  74 ; velocity: 127
@68640 Channel: 3 Note on, D5 key =  74 ; velocity: 0
@68640 Channel: 3 Note on, C#5 key =  73 ; velocity: 127
@68700 Channel: 3 Note on, C#5 key =  73 ; velocity: 0
@68700 Channel: 3 Note on, B4 key =  71 ; velocity: 127
@68760 Channel: 3 Note on, B4 key =  71 ; velocity: 0
@68760 Channel: 3 Note on, G4 key =  67 ; velocity: 127
@68820 Channel: 3 Note on, G4 key =  67 ; velocity: 0
@68820 Channel: 3 Command: 224

@68820 Channel: 3 Note on, D5 key =  74 ; velocity: 127
@68821 Channel: 3 Command: 224

@68822 Channel: 3 Command: 224

@68823 Channel: 3 Command: 224

@68824 Channel: 3 Command: 224

@68825 Channel: 3 Command: 224

@68826 Channel: 3 Command: 224

@68827 Channel: 3 Command: 224

@68828 Channel: 3 Command: 224

@68829 Channel: 3 Command: 224

@68830 Channel: 3 Command: 224

@68831 Channel: 3 Command: 224

@68832 Channel: 3 Command: 224

@68833 Channel: 3 Command: 224

@68834 Channel: 3 Command: 224

@68835 Channel: 3 Command: 224

@68836 Channel: 3 Command: 224

@68837 Channel: 3 Command: 224

@68838 Channel: 3 Command: 224

@68839 Channel: 3 Command: 224

@68840 Channel: 3 Command: 224

@68841 Channel: 3 Command: 224

@68842 Channel: 3 Command: 224

@68843 Channel: 3 Command: 224

@68844 Channel: 3 Command: 224

@68845 Channel: 3 Command: 224

@68846 Channel: 3 Command: 224

@68847 Channel: 3 Command: 224

@68848 Channel: 3 Command: 224

@68849 Channel: 3 Command: 224

@68850 Channel: 3 Command: 224

@68851 Channel: 3 Command: 224

@68852 Channel: 3 Command: 224

@68853 Channel: 3 Command: 224

@68854 Channel: 3 Command: 224

@68855 Channel: 3 Command: 224

@68856 Channel: 3 Command: 224

@68857 Channel: 3 Command: 224

@68858 Channel: 3 Command: 224

@68859 Channel: 3 Command: 224

@68860 Channel: 3 Command: 224

@68861 Channel: 3 Command: 224

@68862 Channel: 3 Command: 224

@68863 Channel: 3 Command: 224

@68864 Channel: 3 Command: 224

@68865 Channel: 3 Command: 224

@68866 Channel: 3 Command: 224

@68867 Channel: 3 Command: 224

@68868 Channel: 3 Command: 224

@68869 Channel: 3 Command: 224

@68870 Channel: 3 Command: 224

@68871 Channel: 3 Command: 224

@68872 Channel: 3 Command: 224

@68873 Channel: 3 Command: 224

@68874 Channel: 3 Command: 224

@68875 Channel: 3 Command: 224

@68876 Channel: 3 Command: 224

@68877 Channel: 3 Command: 224

@68878 Channel: 3 Command: 224

@68879 Channel: 3 Command: 224

@68880 Channel: 3 Command: 224

@68881 Channel: 3 Command: 224

@68882 Channel: 3 Command: 224

@68883 Channel: 3 Command: 224

@68884 Channel: 3 Command: 224

@68885 Channel: 3 Command: 224

@68886 Channel: 3 Command: 224

@68887 Channel: 3 Command: 224

@68888 Channel: 3 Command: 224

@68889 Channel: 3 Command: 224

@68890 Channel: 3 Command: 224

@68891 Channel: 3 Command: 224

@68892 Channel: 3 Command: 224

@68893 Channel: 3 Command: 224

@68894 Channel: 3 Command: 224

@68895 Channel: 3 Command: 224

@68896 Channel: 3 Command: 224

@68897 Channel: 3 Command: 224

@68898 Channel: 3 Command: 224

@68899 Channel: 3 Command: 224

@68900 Channel: 3 Command: 224

@68901 Channel: 3 Command: 224

@68902 Channel: 3 Command: 224

@68903 Channel: 3 Command: 224

@68904 Channel: 3 Command: 224

@68905 Channel: 3 Command: 224

@68906 Channel: 3 Command: 224

@68907 Channel: 3 Command: 224

@68908 Channel: 3 Command: 224

@68909 Channel: 3 Command: 224

@68910 Channel: 3 Command: 224

@68911 Channel: 3 Command: 224

@68912 Channel: 3 Command: 224

@68913 Channel: 3 Command: 224

@68914 Channel: 3 Command: 224

@68915 Channel: 3 Command: 224

@68916 Channel: 3 Command: 224

@68917 Channel: 3 Command: 224

@68918 Channel: 3 Command: 224

@68919 Channel: 3 Command: 224

@68920 Channel: 3 Command: 224

@68921 Channel: 3 Command: 224

@68922 Channel: 3 Command: 224

@68923 Channel: 3 Command: 224

@68924 Channel: 3 Command: 224

@68925 Channel: 3 Command: 224

@68926 Channel: 3 Command: 224

@68927 Channel: 3 Command: 224

@68928 Channel: 3 Command: 224

@68929 Channel: 3 Command: 224

@68930 Channel: 3 Command: 224

@68931 Channel: 3 Command: 224

@68932 Channel: 3 Command: 224

@68933 Channel: 3 Command: 224

@68934 Channel: 3 Command: 224

@68935 Channel: 3 Command: 224

@68936 Channel: 3 Command: 224

@68937 Channel: 3 Command: 224

@68938 Channel: 3 Command: 224

@68939 Channel: 3 Command: 224

@68940 Channel: 3 Command: 176

@68940 Channel: 3 Command: 224

@68941 Channel: 3 Command: 176

@68942 Channel: 3 Command: 176

@68943 Channel: 3 Command: 176

@68944 Channel: 3 Command: 176

@68945 Channel: 3 Command: 176

@68946 Channel: 3 Command: 176

@68947 Channel: 3 Command: 176

@68948 Channel: 3 Command: 176

@68949 Channel: 3 Command: 176

@68950 Channel: 3 Command: 176

@69299 Channel: 3 Command: 176

@69299 Channel: 3 Command: 224

@69420 Channel: 3 Note on, D5 key =  74 ; velocity: 0
@69960 Channel: 3 Note on, A#5 key =  82 ; velocity: 127
@70020 Channel: 3 Note on, A#5 key =  82 ; velocity: 0
@70020 Channel: 3 Note on, C6 key =  84 ; velocity: 127
@70050 Channel: 3 Note on, C6 key =  84 ; velocity: 0
@70050 Channel: 3 Note on, C6 key =  84 ; velocity: 127
@70080 Channel: 3 Note on, C6 key =  84 ; velocity: 0
@70080 Channel: 3 Note on, D#6 key =  87 ; velocity: 127
@70110 Channel: 3 Note on, D#6 key =  87 ; velocity: 0
@70110 Channel: 3 Note on, C6 key =  84 ; velocity: 127
@70140 Channel: 3 Note on, C6 key =  84 ; velocity: 0
@70140 Channel: 3 Note on, A#5 key =  82 ; velocity: 127
@70170 Channel: 3 Note on, A#5 key =  82 ; velocity: 0
@70170 Channel: 3 Note on, D6 key =  86 ; velocity: 127
@70200 Channel: 3 Note on, D6 key =  86 ; velocity: 0
@70200 Channel: 3 Note on, B5 key =  83 ; velocity: 127
@70230 Channel: 3 Note on, B5 key =  83 ; velocity: 0
@70230 Channel: 3 Note on, B5 key =  83 ; velocity: 127
@70260 Channel: 3 Note on, B5 key =  83 ; velocity: 0
@70260 Channel: 3 Note on, C#6 key =  85 ; velocity: 127
@70290 Channel: 3 Note on, C#6 key =  85 ; velocity: 0
@70290 Channel: 3 Note on, C#6 key =  85 ; velocity: 127
@70320 Channel: 3 Note on, C#6 key =  85 ; velocity: 0
@70320 Channel: 3 Note on, A5 key =  81 ; velocity: 127
@70350 Channel: 3 Note on, A5 key =  81 ; velocity: 0
@70350 Channel: 3 Note on, G5 key =  79 ; velocity: 127
@70380 Channel: 3 Note on, G5 key =  79 ; velocity: 0
@70380 Channel: 3 Note on, B5 key =  83 ; velocity: 127
@70410 Channel: 3 Note on, B5 key =  83 ; velocity: 0
@70410 Channel: 3 Note on, G#5 key =  80 ; velocity: 127
@70440 Channel: 3 Note on, G#5 key =  80 ; velocity: 0
@70440 Channel: 3 Note on, F#5 key =  78 ; velocity: 127
@70470 Channel: 3 Note on, F#5 key =  78 ; velocity: 0
@70470 Channel: 3 Note on, F#5 key =  78 ; velocity: 127
@70500 Channel: 3 Note on, F#5 key =  78 ; velocity: 0
@70500 Channel: 3 Note on, A5 key =  81 ; velocity: 127
@70520 Channel: 3 Note on, A5 key =  81 ; velocity: 0
@70520 Channel: 3 Note on, F#5 key =  78 ; velocity: 127
@70540 Channel: 3 Note on, F#5 key =  78 ; velocity: 0
@70540 Channel: 3 Note on, E5 key =  76 ; velocity: 127
@70560 Channel: 3 Note on, E5 key =  76 ; velocity: 0
@70560 Channel: 3 Note on, G#5 key =  80 ; velocity: 127
@70590 Channel: 3 Note on, G#5 key =  80 ; velocity: 0
@70590 Channel: 3 Note on, E5 key =  76 ; velocity: 127
@70620 Channel: 3 Note on, E5 key =  76 ; velocity: 0
@70620 Channel: 3 Note on, D#5 key =  75 ; velocity: 127
@70650 Channel: 3 Note on, D#5 key =  75 ; velocity: 0
@70650 Channel: 3 Note on, F#5 key =  78 ; velocity: 127
@70680 Channel: 3 Note on, F#5 key =  78 ; velocity: 0
@70680 Channel: 3 Note on, E5 key =  76 ; velocity: 127
@70710 Channel: 3 Note on, E5 key =  76 ; velocity: 0
@70710 Channel: 3 Note on, D#5 key =  75 ; velocity: 127
@70740 Channel: 3 Note on, D#5 key =  75 ; velocity: 0
@70740 Channel: 3 Note on, C#5 key =  73 ; velocity: 127
@70770 Channel: 3 Note on, C#5 key =  73 ; velocity: 0
@70770 Channel: 3 Note on, B4 key =  71 ; velocity: 127
@70800 Channel: 3 Note on, B4 key =  71 ; velocity: 0
@70800 Channel: 3 Note on, D5 key =  74 ; velocity: 127
@70830 Channel: 3 Note on, D5 key =  74 ; velocity: 0
@70830 Channel: 3 Note on, B4 key =  71 ; velocity: 127
@70860 Channel: 3 Note on, B4 key =  71 ; velocity: 0
@70860 Channel: 3 Note on, A4 key =  69 ; velocity: 127
@70890 Channel: 3 Note on, A4 key =  69 ; velocity: 0
@70890 Channel: 3 Note on, B4 key =  71 ; velocity: 127
@70920 Channel: 3 Note on, B4 key =  71 ; velocity: 0
@70920 Channel: 3 Note on, D5 key =  74 ; velocity: 127
@70950 Channel: 3 Note on, D5 key =  74 ; velocity: 0
@70950 Channel: 3 Note on, B4 key =  71 ; velocity: 127
@70980 Channel: 3 Note on, B4 key =  71 ; velocity: 0
@70980 Channel: 3 Note on, A4 key =  69 ; velocity: 127
@71010 Channel: 3 Note on, A4 key =  69 ; velocity: 0
@71010 Channel: 3 Note on, F#4 key =  66 ; velocity: 127
@71040 Channel: 3 Note on, F#4 key =  66 ; velocity: 0
@71040 Channel: 3 Note on, A4 key =  69 ; velocity: 127
@71070 Channel: 3 Note on, A4 key =  69 ; velocity: 0
@71070 Channel: 3 Note on, F#4 key =  66 ; velocity: 127
@71100 Channel: 3 Note on, F#4 key =  66 ; velocity: 0
@71100 Channel: 3 Note on, E4 key =  64 ; velocity: 127
@71160 Channel: 3 Note on, E4 key =  64 ; velocity: 0
@71160 Channel: 3 Note on, D4 key =  62 ; velocity: 127
@71220 Channel: 3 Note on, D4 key =  62 ; velocity: 0
@71220 Channel: 3 Note on, E4 key =  64 ; velocity: 127
@71280 Channel: 3 Note on, E4 key =  64 ; velocity: 0
@71280 Channel: 3 Note on, F#4 key =  66 ; velocity: 127
@71340 Channel: 3 Note on, F#4 key =  66 ; velocity: 0
@71340 Channel: 3 Note on, E4 key =  64 ; velocity: 127
@71400 Channel: 3 Note on, E4 key =  64 ; velocity: 0
@71400 Channel: 3 Command: 224

@71400 Channel: 3 Note on, E4 key =  64 ; velocity: 127
@71401 Channel: 3 Command: 224

@71402 Channel: 3 Command: 224

@71403 Channel: 3 Command: 224

@71404 Channel: 3 Command: 224

@71405 Channel: 3 Command: 224

@71406 Channel: 3 Command: 224

@71407 Channel: 3 Command: 224

@71408 Channel: 3 Command: 224

@71409 Channel: 3 Command: 224

@71410 Channel: 3 Command: 224

@71411 Channel: 3 Command: 224

@71412 Channel: 3 Command: 224

@71413 Channel: 3 Command: 224

@71414 Channel: 3 Command: 224

@71415 Channel: 3 Command: 224

@71416 Channel: 3 Command: 224

@71417 Channel: 3 Command: 224

@71418 Channel: 3 Command: 224

@71419 Channel: 3 Command: 224

@71420 Channel: 3 Command: 224

@71421 Channel: 3 Command: 224

@71422 Channel: 3 Command: 224

@71423 Channel: 3 Command: 224

@71424 Channel: 3 Command: 224

@71425 Channel: 3 Command: 224

@71426 Channel: 3 Command: 224

@71427 Channel: 3 Command: 224

@71428 Channel: 3 Command: 224

@71429 Channel: 3 Command: 224

@71430 Channel: 3 Command: 224

@71431 Channel: 3 Command: 224

@71432 Channel: 3 Command: 224

@71433 Channel: 3 Command: 224

@71434 Channel: 3 Command: 224

@71435 Channel: 3 Command: 224

@71436 Channel: 3 Command: 224

@71437 Channel: 3 Command: 224

@71438 Channel: 3 Command: 224

@71439 Channel: 3 Command: 224

@71440 Channel: 3 Command: 224

@71441 Channel: 3 Command: 224

@71442 Channel: 3 Command: 224

@71443 Channel: 3 Command: 224

@71444 Channel: 3 Command: 224

@71445 Channel: 3 Command: 224

@71446 Channel: 3 Command: 224

@71447 Channel: 3 Command: 224

@71448 Channel: 3 Command: 224

@71449 Channel: 3 Command: 224

@71450 Channel: 3 Command: 224

@71451 Channel: 3 Command: 224

@71452 Channel: 3 Command: 224

@71453 Channel: 3 Command: 224

@71454 Channel: 3 Command: 224

@71455 Channel: 3 Command: 224

@71456 Channel: 3 Command: 224

@71457 Channel: 3 Command: 224

@71458 Channel: 3 Command: 224

@71459 Channel: 3 Command: 224

@71460 Channel: 3 Command: 224

@71490 Channel: 3 Note on, E4 key =  64 ; velocity: 0
@71490 Channel: 3 Note on, D4 key =  62 ; velocity: 127
@71520 Channel: 3 Note on, D4 key =  62 ; velocity: 0
@71520 Channel: 3 Note on, E4 key =  64 ; velocity: 127
@71580 Channel: 3 Note on, E4 key =  64 ; velocity: 0
@71580 Channel: 3 Note on, D4 key =  62 ; velocity: 127
@71640 Channel: 3 Note on, D4 key =  62 ; velocity: 0
@71640 Channel: 3 Note on, B3 key =  59 ; velocity: 127
@71700 Channel: 3 Note on, B3 key =  59 ; velocity: 0
@71700 Channel: 3 Note on, D4 key =  62 ; velocity: 127
@71760 Channel: 3 Command: 176

@71761 Channel: 3 Command: 176

@71762 Channel: 3 Command: 176

@71763 Channel: 3 Command: 176

@71764 Channel: 3 Command: 176

@71765 Channel: 3 Command: 176

@71766 Channel: 3 Command: 176

@71767 Channel: 3 Command: 176

@71768 Channel: 3 Command: 176

@71769 Channel: 3 Command: 176

@71770 Channel: 3 Command: 176

@71879 Channel: 3 Command: 176

@71880 Channel: 3 Note on, D4 key =  62 ; velocity: 0
@71880 Channel: 3 Note on, A2 key =  45 ; velocity: 127
@71940 Channel: 3 Note on, A2 key =  45 ; velocity: 0
@71940 Channel: 3 Note on, A2 key =  45 ; velocity: 127
@72000 Channel: 3 Note on, A2 key =  45 ; velocity: 0
@72000 Channel: 3 Note on, B2 key =  47 ; velocity: 127
@72060 Channel: 3 Note on, B2 key =  47 ; velocity: 0
@72060 Channel: 3 Note on, D3 key =  50 ; velocity: 127
@72120 Channel: 3 Note on, D3 key =  50 ; velocity: 0
@72120 Channel: 3 Note on, F#3 key =  54 ; velocity: 127
@72180 Channel: 3 Note on, F#3 key =  54 ; velocity: 0
@72180 Channel: 3 Note on, A3 key =  57 ; velocity: 127
@72240 Channel: 3 Note on, A3 key =  57 ; velocity: 0
@72240 Channel: 3 Note on, B3 key =  59 ; velocity: 127
@72270 Channel: 3 Note on, B3 key =  59 ; velocity: 0
@72270 Channel: 3 Note on, A3 key =  57 ; velocity: 127
@72300 Channel: 3 Note on, A3 key =  57 ; velocity: 0
@72300 Channel: 3 Note on, F#3 key =  54 ; velocity: 127
@72360 Channel: 3 Note on, F#3 key =  54 ; velocity: 0
@72360 Channel: 3 Note on, A3 key =  57 ; velocity: 127
@72390 Channel: 3 Note on, A3 key =  57 ; velocity: 0
@72390 Channel: 3 Note on, B3 key =  59 ; velocity: 127
@72420 Channel: 3 Note on, B3 key =  59 ; velocity: 0
@72420 Channel: 3 Note on, B3 key =  59 ; velocity: 127
@72480 Channel: 3 Note on, B3 key =  59 ; velocity: 0
@72480 Channel: 3 Note on, D4 key =  62 ; velocity: 127
@72540 Channel: 3 Note on, D4 key =  62 ; velocity: 0
@72540 Channel: 3 Note on, E4 key =  64 ; velocity: 127
@72600 Channel: 3 Note on, E4 key =  64 ; velocity: 0
@72600 Channel: 3 Command: 224

@72600 Channel: 3 Note on, E4 key =  64 ; velocity: 127
@72601 Channel: 3 Command: 224

@72602 Channel: 3 Command: 224

@72603 Channel: 3 Command: 224

@72604 Channel: 3 Command: 224

@72605 Channel: 3 Command: 224

@72606 Channel: 3 Command: 224

@72607 Channel: 3 Command: 224

@72608 Channel: 3 Command: 224

@72609 Channel: 3 Command: 224

@72610 Channel: 3 Command: 224

@72611 Channel: 3 Command: 224

@72612 Channel: 3 Command: 224

@72613 Channel: 3 Command: 224

@72614 Channel: 3 Command: 224

@72615 Channel: 3 Command: 224

@72616 Channel: 3 Command: 224

@72617 Channel: 3 Command: 224

@72618 Channel: 3 Command: 224

@72619 Channel: 3 Command: 224

@72620 Channel: 3 Command: 224

@72621 Channel: 3 Command: 224

@72622 Channel: 3 Command: 224

@72623 Channel: 3 Command: 224

@72624 Channel: 3 Command: 224

@72625 Channel: 3 Command: 224

@72626 Channel: 3 Command: 224

@72627 Channel: 3 Command: 224

@72628 Channel: 3 Command: 224

@72629 Channel: 3 Command: 224

@72630 Channel: 3 Command: 224

@72631 Channel: 3 Command: 224

@72632 Channel: 3 Command: 224

@72633 Channel: 3 Command: 224

@72634 Channel: 3 Command: 224

@72635 Channel: 3 Command: 224

@72636 Channel: 3 Command: 224

@72637 Channel: 3 Command: 224

@72638 Channel: 3 Command: 224

@72639 Channel: 3 Command: 224

@72640 Channel: 3 Command: 224

@72641 Channel: 3 Command: 224

@72642 Channel: 3 Command: 224

@72643 Channel: 3 Command: 224

@72644 Channel: 3 Command: 224

@72645 Channel: 3 Command: 224

@72646 Channel: 3 Command: 224

@72647 Channel: 3 Command: 224

@72648 Channel: 3 Command: 224

@72649 Channel: 3 Command: 224

@72650 Channel: 3 Command: 224

@72651 Channel: 3 Command: 224

@72652 Channel: 3 Command: 224

@72653 Channel: 3 Command: 224

@72654 Channel: 3 Command: 224

@72655 Channel: 3 Command: 224

@72656 Channel: 3 Command: 224

@72657 Channel: 3 Command: 224

@72658 Channel: 3 Command: 224

@72659 Channel: 3 Command: 224

@72660 Channel: 3 Command: 224

@72690 Channel: 3 Note on, E4 key =  64 ; velocity: 0
@72690 Channel: 3 Note on, D4 key =  62 ; velocity: 127
@72720 Channel: 3 Note on, D4 key =  62 ; velocity: 0
@72720 Channel: 3 Note on, E4 key =  64 ; velocity: 127
@72780 Channel: 3 Note on, E4 key =  64 ; velocity: 0
@72780 Channel: 3 Note on, D4 key =  62 ; velocity: 127
@72840 Channel: 3 Command: 224

@72841 Channel: 3 Command: 224

@72842 Channel: 3 Command: 224

@72843 Channel: 3 Command: 224

@72844 Channel: 3 Command: 224

@72845 Channel: 3 Command: 224

@72846 Channel: 3 Command: 224

@72847 Channel: 3 Command: 224

@72848 Channel: 3 Command: 224

@72849 Channel: 3 Command: 224

@72850 Channel: 3 Command: 224

@72851 Channel: 3 Command: 224

@72852 Channel: 3 Command: 224

@72853 Channel: 3 Command: 224

@72854 Channel: 3 Command: 224

@72855 Channel: 3 Command: 224

@72856 Channel: 3 Command: 224

@72857 Channel: 3 Command: 224

@72858 Channel: 3 Command: 224

@72859 Channel: 3 Command: 224

@72860 Channel: 3 Command: 224

@72861 Channel: 3 Command: 224

@72862 Channel: 3 Command: 224

@72863 Channel: 3 Command: 224

@72864 Channel: 3 Command: 224

@72865 Channel: 3 Command: 224

@72866 Channel: 3 Command: 224

@72867 Channel: 3 Command: 224

@72868 Channel: 3 Command: 224

@72869 Channel: 3 Command: 224

@72870 Channel: 3 Command: 224

@72900 Channel: 3 Note on, D4 key =  62 ; velocity: 0
@72900 Channel: 3 Note on, B3 key =  59 ; velocity: 127
@72960 Channel: 3 Note on, B3 key =  59 ; velocity: 0
@72960 Channel: 3 Note on, D4 key =  62 ; velocity: 127
@73020 Channel: 3 Note on, D4 key =  62 ; velocity: 0
@73020 Channel: 3 Note on, E4 key =  64 ; velocity: 127
@73080 Channel: 3 Note on, E4 key =  64 ; velocity: 0
@73080 Channel: 3 Command: 224

@73080 Channel: 3 Note on, E4 key =  64 ; velocity: 127
@73081 Channel: 3 Command: 224

@73082 Channel: 3 Command: 224

@73083 Channel: 3 Command: 224

@73084 Channel: 3 Command: 224

@73085 Channel: 3 Command: 224

@73086 Channel: 3 Command: 224

@73087 Channel: 3 Command: 224

@73088 Channel: 3 Command: 224

@73089 Channel: 3 Command: 224

@73090 Channel: 3 Command: 224

@73139 Channel: 3 Command: 224

@73140 Channel: 3 Note on, E4 key =  64 ; velocity: 0
@73140 Channel: 3 Note on, F#4 key =  66 ; velocity: 127
@73200 Channel: 3 Note on, F#4 key =  66 ; velocity: 0
@73200 Channel: 3 Note on, A4 key =  69 ; velocity: 127
@73230 Channel: 3 Note on, A4 key =  69 ; velocity: 0
@73230 Channel: 3 Note on, F#4 key =  66 ; velocity: 127
@73260 Channel: 3 Note on, F#4 key =  66 ; velocity: 0
@73260 Channel: 3 Note on, E4 key =  64 ; velocity: 127
@73320 Channel: 3 Note on, E4 key =  64 ; velocity: 0
@73320 Channel: 3 Note on, D4 key =  62 ; velocity: 127
@73380 Channel: 3 Note on, D4 key =  62 ; velocity: 0
@73380 Channel: 3 Note on, B3 key =  59 ; velocity: 127
@73440 Channel: 3 Note on, B3 key =  59 ; velocity: 0
@73440 Channel: 3 Note on, D4 key =  62 ; velocity: 127
@73500 Channel: 3 Note on, D4 key =  62 ; velocity: 0
@73500 Channel: 3 Command: 224

@73500 Channel: 3 Note on, E4 key =  64 ; velocity: 127
@73501 Channel: 3 Command: 224

@73502 Channel: 3 Command: 224

@73503 Channel: 3 Command: 224

@73504 Channel: 3 Command: 224

@73505 Channel: 3 Command: 224

@73506 Channel: 3 Command: 224

@73507 Channel: 3 Command: 224

@73508 Channel: 3 Command: 224

@73509 Channel: 3 Command: 224

@73510 Channel: 3 Command: 224

@73560 Channel: 3 Command: 224

@73561 Channel: 3 Command: 224

@73562 Channel: 3 Command: 224

@73563 Channel: 3 Command: 224

@73564 Channel: 3 Command: 224

@73565 Channel: 3 Command: 224

@73566 Channel: 3 Command: 224

@73567 Channel: 3 Command: 224

@73568 Channel: 3 Command: 224

@73569 Channel: 3 Command: 224

@73570 Channel: 3 Command: 224

@73571 Channel: 3 Command: 224

@73572 Channel: 3 Command: 224

@73573 Channel: 3 Command: 224

@73574 Channel: 3 Command: 224

@73575 Channel: 3 Command: 224

@73576 Channel: 3 Command: 224

@73577 Channel: 3 Command: 224

@73578 Channel: 3 Command: 224

@73579 Channel: 3 Command: 224

@73580 Channel: 3 Command: 224

@73581 Channel: 3 Command: 224

@73582 Channel: 3 Command: 224

@73583 Channel: 3 Command: 224

@73584 Channel: 3 Command: 224

@73585 Channel: 3 Command: 224

@73586 Channel: 3 Command: 224

@73587 Channel: 3 Command: 224

@73588 Channel: 3 Command: 224

@73589 Channel: 3 Command: 224

@73590 Channel: 3 Command: 224

@73591 Channel: 3 Command: 224

@73592 Channel: 3 Command: 224

@73593 Channel: 3 Command: 224

@73594 Channel: 3 Command: 224

@73595 Channel: 3 Command: 224

@73596 Channel: 3 Command: 224

@73597 Channel: 3 Command: 224

@73598 Channel: 3 Command: 224

@73599 Channel: 3 Command: 224

@73600 Channel: 3 Command: 224

@73640 Channel: 3 Note on, E4 key =  64 ; velocity: 0
@73640 Channel: 3 Note on, D4 key =  62 ; velocity: 127
@73680 Channel: 3 Note on, D4 key =  62 ; velocity: 0
@73680 Channel: 3 Command: 224

@73680 Channel: 3 Note on, E4 key =  64 ; velocity: 127
@73681 Channel: 3 Command: 224

@73682 Channel: 3 Command: 224

@73683 Channel: 3 Command: 224

@73684 Channel: 3 Command: 224

@73685 Channel: 3 Command: 224

@73686 Channel: 3 Command: 224

@73687 Channel: 3 Command: 224

@73688 Channel: 3 Command: 224

@73689 Channel: 3 Command: 224

@73690 Channel: 3 Command: 224

@73799 Channel: 3 Command: 224

@73800 Channel: 3 Note on, E4 key =  64 ; velocity: 0
@73800 Channel: 3 Note on, A4 key =  69 ; velocity: 127
@73860 Channel: 3 Note on, A4 key =  69 ; velocity: 0
@73860 Channel: 3 Note on, B4 key =  71 ; velocity: 127
@73920 Channel: 3 Note on, B4 key =  71 ; velocity: 0
@73920 Channel: 3 Command: 224

@73920 Channel: 3 Note on, D5 key =  74 ; velocity: 75
@73921 Channel: 3 Command: 224

@73922 Channel: 3 Command: 224

@73923 Channel: 3 Command: 224

@73924 Channel: 3 Command: 224

@73925 Channel: 3 Note on, D5 key =  74 ; velocity: 0
@73925 Channel: 3 Command: 224

@73925 Channel: 3 Note on, E5 key =  76 ; velocity: 127
@73926 Channel: 3 Command: 224

@73927 Channel: 3 Command: 224

@73928 Channel: 3 Command: 224

@73929 Channel: 3 Command: 224

@73930 Channel: 3 Command: 224

@73979 Channel: 3 Command: 224

@73980 Channel: 3 Note on, E5 key =  76 ; velocity: 0
@73980 Channel: 3 Note on, E5 key =  76 ; velocity: 127
@74040 Channel: 3 Note on, E5 key =  76 ; velocity: 0
@74040 Channel: 3 Note on, D5 key =  74 ; velocity: 127
@74070 Channel: 3 Note on, D5 key =  74 ; velocity: 0
@74070 Channel: 3 Note on, B4 key =  71 ; velocity: 127
@74100 Channel: 3 Note on, B4 key =  71 ; velocity: 0
@74100 Channel: 3 Note on, A4 key =  69 ; velocity: 127
@74130 Channel: 3 Note on, A4 key =  69 ; velocity: 0
@74130 Channel: 3 Note on, B4 key =  71 ; velocity: 127
@74160 Channel: 3 Note on, B4 key =  71 ; velocity: 0
@74160 Channel: 3 Note on, D5 key =  74 ; velocity: 75
@74165 Channel: 3 Note on, D5 key =  74 ; velocity: 0
@74165 Channel: 3 Note on, E5 key =  76 ; velocity: 127
@74219 Channel: 3 Command: 224

@74220 Channel: 3 Note on, E5 key =  76 ; velocity: 0
@74220 Channel: 3 Command: 224

@74220 Channel: 3 Note on, E5 key =  76 ; velocity: 127
@74221 Channel: 3 Command: 224

@74222 Channel: 3 Command: 224

@74223 Channel: 3 Command: 224

@74224 Channel: 3 Command: 224

@74225 Channel: 3 Command: 224

@74226 Channel: 3 Command: 224

@74227 Channel: 3 Command: 224

@74228 Channel: 3 Command: 224

@74229 Channel: 3 Command: 224

@74230 Channel: 3 Command: 224

@74280 Channel: 3 Note on, E5 key =  76 ; velocity: 0
@74280 Channel: 3 Note on, D5 key =  74 ; velocity: 127
@74310 Channel: 3 Note on, D5 key =  74 ; velocity: 0
@74310 Channel: 3 Note on, B4 key =  71 ; velocity: 127
@74340 Channel: 3 Note on, B4 key =  71 ; velocity: 0
@74340 Channel: 3 Note on, B4 key =  71 ; velocity: 127
@74370 Channel: 3 Note on, B4 key =  71 ; velocity: 0
@74370 Channel: 3 Note on, D5 key =  74 ; velocity: 127
@74400 Channel: 3 Note on, D5 key =  74 ; velocity: 0
@74400 Channel: 3 Command: 224

@74400 Channel: 3 Note on, D5 key =  74 ; velocity: 75
@74401 Channel: 3 Command: 224

@74402 Channel: 3 Command: 224

@74403 Channel: 3 Command: 224

@74404 Channel: 3 Command: 224

@74405 Channel: 3 Note on, D5 key =  74 ; velocity: 0
@74405 Channel: 3 Command: 224

@74405 Channel: 3 Note on, E5 key =  76 ; velocity: 127
@74406 Channel: 3 Command: 224

@74407 Channel: 3 Command: 224

@74408 Channel: 3 Command: 224

@74409 Channel: 3 Command: 224

@74410 Channel: 3 Command: 224

@74459 Channel: 3 Command: 224

@74460 Channel: 3 Note on, E5 key =  76 ; velocity: 0
@74460 Channel: 3 Note on, E5 key =  76 ; velocity: 127
@74520 Channel: 3 Note on, E5 key =  76 ; velocity: 0
@74520 Channel: 3 Note on, D5 key =  74 ; velocity: 127
@74550 Channel: 3 Note on, D5 key =  74 ; velocity: 0
@74550 Channel: 3 Note on, B4 key =  71 ; velocity: 127
@74580 Channel: 3 Note on, B4 key =  71 ; velocity: 0
@74580 Channel: 3 Note on, D5 key =  74 ; velocity: 127
@74640 Channel: 3 Note on, D5 key =  74 ; velocity: 0
@74640 Channel: 3 Command: 224

@74640 Channel: 3 Note on, D5 key =  74 ; velocity: 75
@74641 Channel: 3 Command: 224

@74642 Channel: 3 Command: 224

@74643 Channel: 3 Command: 224

@74644 Channel: 3 Command: 224

@74645 Channel: 3 Note on, D5 key =  74 ; velocity: 0
@74645 Channel: 3 Command: 224

@74645 Channel: 3 Note on, E5 key =  76 ; velocity: 127
@74646 Channel: 3 Command: 224

@74647 Channel: 3 Command: 224

@74648 Channel: 3 Command: 224

@74649 Channel: 3 Command: 224

@74650 Channel: 3 Command: 224

@74699 Channel: 3 Command: 224

@74700 Channel: 3 Note on, E5 key =  76 ; velocity: 0
@74700 Channel: 3 Note on, E5 key =  76 ; velocity: 127
@74760 Channel: 3 Note on, E5 key =  76 ; velocity: 0
@74760 Channel: 3 Note on, D5 key =  74 ; velocity: 127
@74820 Channel: 3 Note on, D5 key =  74 ; velocity: 0
@74820 Channel: 3 Note on, E5 key =  76 ; velocity: 127
@74880 Channel: 3 Note on, E5 key =  76 ; velocity: 0
@74880 Channel: 3 Note on, G5 key =  79 ; velocity: 127
@74920 Channel: 3 Note on, G5 key =  79 ; velocity: 0
@74920 Channel: 3 Note on, E5 key =  76 ; velocity: 127
@74960 Channel: 3 Note on, E5 key =  76 ; velocity: 0
@74960 Channel: 3 Note on, D5 key =  74 ; velocity: 127
@75000 Channel: 3 Note on, D5 key =  74 ; velocity: 0
@75000 Channel: 3 Note on, B4 key =  71 ; velocity: 127
@75040 Channel: 3 Note on, B4 key =  71 ; velocity: 0
@75040 Channel: 3 Note on, A4 key =  69 ; velocity: 127
@75080 Channel: 3 Note on, A4 key =  69 ; velocity: 0
@75080 Channel: 3 Note on, B4 key =  71 ; velocity: 127
@75120 Channel: 3 Note on, B4 key =  71 ; velocity: 0
@75120 Channel: 3 Note on, D5 key =  74 ; velocity: 127
@75160 Channel: 3 Note on, D5 key =  74 ; velocity: 0
@75160 Channel: 3 Note on, B4 key =  71 ; velocity: 127
@75200 Channel: 3 Note on, B4 key =  71 ; velocity: 0
@75200 Channel: 3 Note on, A4 key =  69 ; velocity: 127
@75240 Channel: 3 Note on, A4 key =  69 ; velocity: 0
@75240 Channel: 3 Note on, G4 key =  67 ; velocity: 127
@75280 Channel: 3 Note on, G4 key =  67 ; velocity: 0
@75280 Channel: 3 Note on, E4 key =  64 ; velocity: 127
@75320 Channel: 3 Note on, E4 key =  64 ; velocity: 0
@75320 Channel: 3 Note on, G4 key =  67 ; velocity: 127
@75360 Channel: 3 Note on, G4 key =  67 ; velocity: 0
@75360 Channel: 3 Note on, A4 key =  69 ; velocity: 127
@75400 Channel: 3 Note on, A4 key =  69 ; velocity: 0
@75400 Channel: 3 Note on, G4 key =  67 ; velocity: 127
@75440 Channel: 3 Note on, G4 key =  67 ; velocity: 0
@75440 Channel: 3 Note on, E4 key =  64 ; velocity: 127
@75480 Channel: 3 Note on, E4 key =  64 ; velocity: 0
@75480 Channel: 3 Note on, D4 key =  62 ; velocity: 127
@75520 Channel: 3 Note on, D4 key =  62 ; velocity: 0
@75520 Channel: 3 Note on, B3 key =  59 ; velocity: 127
@75560 Channel: 3 Note on, B3 key =  59 ; velocity: 0
@75560 Channel: 3 Note on, A3 key =  57 ; velocity: 127
@75600 Channel: 3 Note on, A3 key =  57 ; velocity: 0
@75600 Channel: 3 Command: 176

@75600 Channel: 3 Note on, G3 key =  55 ; velocity: 127
@75601 Channel: 3 Command: 176

@75602 Channel: 3 Command: 176

@75603 Channel: 3 Command: 176

@75604 Channel: 3 Command: 176

@75605 Channel: 3 Command: 176

@75606 Channel: 3 Command: 176

@75607 Channel: 3 Command: 176

@75608 Channel: 3 Command: 176

@75609 Channel: 3 Command: 176

@75610 Channel: 3 Command: 176

@75719 Channel: 3 Command: 176

@75720 Channel: 3 Note on, G3 key =  55 ; velocity: 0
@75720 Channel: 3 Note on, G3 key =  55 ; velocity: 127
@75780 Channel: 3 Note on, G3 key =  55 ; velocity: 0
@75780 Channel: 3 Note on, A3 key =  57 ; velocity: 127
@75840 Channel: 3 Note on, A3 key =  57 ; velocity: 0
@75840 Channel: 3 Note on, B3 key =  59 ; velocity: 127
@75880 Channel: 3 Note on, B3 key =  59 ; velocity: 0
@75880 Channel: 3 Note on, A3 key =  57 ; velocity: 127
@75920 Channel: 3 Note on, A3 key =  57 ; velocity: 0
@75920 Channel: 3 Note on, B3 key =  59 ; velocity: 127
@75960 Channel: 3 Note on, B3 key =  59 ; velocity: 0
@75960 Channel: 3 Note on, D4 key =  62 ; velocity: 127
@76000 Channel: 3 Note on, D4 key =  62 ; velocity: 0
@76000 Channel: 3 Note on, B3 key =  59 ; velocity: 127
@76040 Channel: 3 Note on, B3 key =  59 ; velocity: 0
@76040 Channel: 3 Note on, D4 key =  62 ; velocity: 127
@76080 Channel: 3 Note on, D4 key =  62 ; velocity: 0
@76080 Channel: 3 Note on, E4 key =  64 ; velocity: 127
@76120 Channel: 3 Note on, E4 key =  64 ; velocity: 0
@76120 Channel: 3 Note on, D4 key =  62 ; velocity: 127
@76160 Channel: 3 Note on, D4 key =  62 ; velocity: 0
@76160 Channel: 3 Note on, E4 key =  64 ; velocity: 127
@76200 Channel: 3 Note on, E4 key =  64 ; velocity: 0
@76200 Channel: 3 Note on, G4 key =  67 ; velocity: 127
@76240 Channel: 3 Note on, G4 key =  67 ; velocity: 0
@76240 Channel: 3 Note on, E4 key =  64 ; velocity: 127
@76280 Channel: 3 Note on, E4 key =  64 ; velocity: 0
@76280 Channel: 3 Note on, G4 key =  67 ; velocity: 127
@76320 Channel: 3 Note on, G4 key =  67 ; velocity: 0
@76320 Channel: 3 Note on, A4 key =  69 ; velocity: 127
@76360 Channel: 3 Note on, A4 key =  69 ; velocity: 0
@76360 Channel: 3 Note on, G4 key =  67 ; velocity: 127
@76400 Channel: 3 Note on, G4 key =  67 ; velocity: 0
@76400 Channel: 3 Note on, A4 key =  69 ; velocity: 127
@76440 Channel: 3 Note on, A4 key =  69 ; velocity: 0
@76440 Channel: 3 Note on, B4 key =  71 ; velocity: 127
@76480 Channel: 3 Note on, B4 key =  71 ; velocity: 0
@76480 Channel: 3 Note on, A4 key =  69 ; velocity: 127
@76520 Channel: 3 Note on, A4 key =  69 ; velocity: 0
@76520 Channel: 3 Note on, B4 key =  71 ; velocity: 127
@76560 Channel: 3 Note on, B4 key =  71 ; velocity: 0
@76560 Channel: 3 Note on, D5 key =  74 ; velocity: 127
@76600 Channel: 3 Note on, D5 key =  74 ; velocity: 0
@76600 Channel: 3 Note on, B4 key =  71 ; velocity: 127
@76640 Channel: 3 Note on, B4 key =  71 ; velocity: 0
@76640 Channel: 3 Note on, D5 key =  74 ; velocity: 127
@76680 Channel: 3 Note on, D5 key =  74 ; velocity: 0
@76680 Channel: 3 Note on, E5 key =  76 ; velocity: 127
@76720 Channel: 3 Note on, E5 key =  76 ; velocity: 0
@76720 Channel: 3 Note on, D5 key =  74 ; velocity: 127
@76760 Channel: 3 Note on, D5 key =  74 ; velocity: 0
@76760 Channel: 3 Note on, E5 key =  76 ; velocity: 127
@76800 Channel: 3 Note on, E5 key =  76 ; velocity: 0
@76800 Channel: 3 Note on, G5 key =  79 ; velocity: 127
@76840 Channel: 3 Note on, G5 key =  79 ; velocity: 0
@76840 Channel: 3 Note on, E5 key =  76 ; velocity: 127
@76880 Channel: 3 Note on, E5 key =  76 ; velocity: 0
@76880 Channel: 3 Note on, D5 key =  74 ; velocity: 127
@76920 Channel: 3 Note on, D5 key =  74 ; velocity: 0
@76920 Channel: 3 Note on, B4 key =  71 ; velocity: 127
@76960 Channel: 3 Note on, B4 key =  71 ; velocity: 0
@76960 Channel: 3 Note on, A#4 key =  70 ; velocity: 127
@77000 Channel: 3 Note on, A#4 key =  70 ; velocity: 0
@77000 Channel: 3 Note on, B4 key =  71 ; velocity: 127
@77040 Channel: 3 Note on, B4 key =  71 ; velocity: 0
@77040 Channel: 3 Note on, D5 key =  74 ; velocity: 127
@77080 Channel: 3 Note on, D5 key =  74 ; velocity: 0
@77080 Channel: 3 Note on, B4 key =  71 ; velocity: 127
@77120 Channel: 3 Note on, B4 key =  71 ; velocity: 0
@77120 Channel: 3 Note on, A4 key =  69 ; velocity: 127
@77160 Channel: 3 Note on, A4 key =  69 ; velocity: 0
@77160 Channel: 3 Note on, G4 key =  67 ; velocity: 127
@77280 Channel: 3 Note on, G4 key =  67 ; velocity: 0
@77280 Channel: 3 Note on, E4 key =  64 ; velocity: 75
@77400 Channel: 3 Note on, E4 key =  64 ; velocity: 0
@77400 Other Message: class javax.sound.midi.Track$ImmutableEndOfTrack

Track 6: size = 3429
@0 Other Message: class javax.sound.midi.MetaMessage

@0 Other Message: class javax.sound.midi.MetaMessage

@0 Channel: 4 Command: 192

@0 Channel: 4 Command: 176

@2880 Channel: 4 Note on, A1 key =  33 ; velocity: 127
@2940 Channel: 4 Note on, A1 key =  33 ; velocity: 0
@2940 Channel: 4 Note on, A1 key =  33 ; velocity: 127
@3000 Channel: 4 Note on, A1 key =  33 ; velocity: 0
@3000 Channel: 4 Note on, A1 key =  33 ; velocity: 127
@3060 Channel: 4 Note on, A1 key =  33 ; velocity: 0
@3060 Channel: 4 Note on, A1 key =  33 ; velocity: 127
@3120 Channel: 4 Note on, A1 key =  33 ; velocity: 0
@3120 Channel: 4 Note on, A1 key =  33 ; velocity: 127
@3180 Channel: 4 Note on, A1 key =  33 ; velocity: 0
@3180 Channel: 4 Note on, A1 key =  33 ; velocity: 127
@3240 Channel: 4 Note on, A1 key =  33 ; velocity: 0
@3240 Channel: 4 Note on, A1 key =  33 ; velocity: 127
@3300 Channel: 4 Note on, A1 key =  33 ; velocity: 0
@3300 Channel: 4 Note on, A1 key =  33 ; velocity: 127
@3360 Channel: 4 Note on, A1 key =  33 ; velocity: 0
@3360 Channel: 4 Note on, A1 key =  33 ; velocity: 127
@3420 Channel: 4 Note on, A1 key =  33 ; velocity: 0
@3420 Channel: 4 Note on, A1 key =  33 ; velocity: 127
@3480 Channel: 4 Note on, A1 key =  33 ; velocity: 0
@3480 Channel: 4 Note on, A1 key =  33 ; velocity: 127
@3540 Channel: 4 Note on, A1 key =  33 ; velocity: 0
@3540 Channel: 4 Note on, A1 key =  33 ; velocity: 127
@3600 Channel: 4 Note on, A1 key =  33 ; velocity: 0
@3600 Channel: 4 Note on, A2 key =  45 ; velocity: 127
@3660 Channel: 4 Note on, A2 key =  45 ; velocity: 0
@3660 Channel: 4 Note on, A2 key =  45 ; velocity: 127
@3720 Channel: 4 Note on, A2 key =  45 ; velocity: 0
@3720 Channel: 4 Note on, A2 key =  45 ; velocity: 127
@3780 Channel: 4 Note on, A2 key =  45 ; velocity: 0
@3780 Channel: 4 Note on, A1 key =  33 ; velocity: 127
@3840 Channel: 4 Note on, A1 key =  33 ; velocity: 0
@3840 Channel: 4 Note on, A1 key =  33 ; velocity: 127
@3900 Channel: 4 Note on, A1 key =  33 ; velocity: 0
@3900 Channel: 4 Note on, A1 key =  33 ; velocity: 127
@3955 Channel: 4 Note on, A1 key =  33 ; velocity: 0
@3955 Channel: 4 Note on, G2 key =  43 ; velocity: 75
@3960 Channel: 4 Note on, G2 key =  43 ; velocity: 0
@3960 Channel: 4 Note on, A2 key =  45 ; velocity: 127
@4080 Channel: 4 Note on, A2 key =  45 ; velocity: 0
@4080 Channel: 4 Note on, A1 key =  33 ; velocity: 127
@4140 Channel: 4 Note on, A1 key =  33 ; velocity: 0
@4140 Channel: 4 Note on, A1 key =  33 ; velocity: 127
@4195 Channel: 4 Note on, A1 key =  33 ; velocity: 0
@4195 Channel: 4 Note on, G2 key =  43 ; velocity: 75
@4200 Channel: 4 Note on, G2 key =  43 ; velocity: 0
@4200 Channel: 4 Note on, A2 key =  45 ; velocity: 127
@4260 Channel: 4 Note on, A2 key =  45 ; velocity: 0
@4260 Channel: 4 Note on, A1 key =  33 ; velocity: 127
@4380 Channel: 4 Note on, A1 key =  33 ; velocity: 0
@4380 Channel: 4 Note on, A1 key =  33 ; velocity: 127
@4440 Channel: 4 Note on, A1 key =  33 ; velocity: 0
@4440 Channel: 4 Note on, F2 key =  41 ; velocity: 127
@4500 Channel: 4 Note on, F2 key =  41 ; velocity: 0
@4500 Channel: 4 Note on, E2 key =  40 ; velocity: 127
@4560 Channel: 4 Note on, E2 key =  40 ; velocity: 0
@4560 Channel: 4 Note on, G2 key =  43 ; velocity: 127
@4620 Channel: 4 Note on, G2 key =  43 ; velocity: 0
@4620 Channel: 4 Note on, E2 key =  40 ; velocity: 127
@4680 Channel: 4 Note on, E2 key =  40 ; velocity: 0
@4680 Channel: 4 Note on, C3 key =  48 ; velocity: 127
@4740 Channel: 4 Note on, C3 key =  48 ; velocity: 0
@4740 Channel: 4 Note on, A2 key =  45 ; velocity: 127
@4800 Channel: 4 Note on, A2 key =  45 ; velocity: 0
@4800 Channel: 4 Note on, A1 key =  33 ; velocity: 127
@4860 Channel: 4 Note on, A1 key =  33 ; velocity: 0
@4860 Channel: 4 Note on, A1 key =  33 ; velocity: 127
@4915 Channel: 4 Note on, A1 key =  33 ; velocity: 0
@4915 Channel: 4 Note on, G2 key =  43 ; velocity: 75
@4920 Channel: 4 Note on, G2 key =  43 ; velocity: 0
@4920 Channel: 4 Note on, A2 key =  45 ; velocity: 127
@5040 Channel: 4 Note on, A2 key =  45 ; velocity: 0
@5040 Channel: 4 Note on, A1 key =  33 ; velocity: 127
@5100 Channel: 4 Note on, A1 key =  33 ; velocity: 0
@5100 Channel: 4 Note on, A1 key =  33 ; velocity: 127
@5155 Channel: 4 Note on, A1 key =  33 ; velocity: 0
@5155 Channel: 4 Note on, G2 key =  43 ; velocity: 75
@5160 Channel: 4 Note on, G2 key =  43 ; velocity: 0
@5160 Channel: 4 Note on, A2 key =  45 ; velocity: 127
@5220 Channel: 4 Note on, A2 key =  45 ; velocity: 0
@5220 Channel: 4 Note on, A1 key =  33 ; velocity: 127
@5340 Channel: 4 Note on, A1 key =  33 ; velocity: 0
@5340 Channel: 4 Note on, A1 key =  33 ; velocity: 127
@5400 Channel: 4 Note on, A1 key =  33 ; velocity: 0
@5400 Channel: 4 Note on, F2 key =  41 ; velocity: 127
@5460 Channel: 4 Note on, F2 key =  41 ; velocity: 0
@5460 Channel: 4 Note on, E2 key =  40 ; velocity: 127
@5520 Channel: 4 Note on, E2 key =  40 ; velocity: 0
@5520 Channel: 4 Note on, G2 key =  43 ; velocity: 127
@5580 Channel: 4 Note on, G2 key =  43 ; velocity: 0
@5580 Channel: 4 Note on, E2 key =  40 ; velocity: 127
@5640 Channel: 4 Note on, E2 key =  40 ; velocity: 0
@5640 Channel: 4 Note on, C3 key =  48 ; velocity: 127
@5700 Channel: 4 Note on, C3 key =  48 ; velocity: 0
@5700 Channel: 4 Note on, A2 key =  45 ; velocity: 127
@5760 Channel: 4 Note on, A2 key =  45 ; velocity: 0
@5760 Channel: 4 Note on, A1 key =  33 ; velocity: 127
@5820 Channel: 4 Note on, A1 key =  33 ; velocity: 0
@5820 Channel: 4 Note on, A1 key =  33 ; velocity: 127
@5875 Channel: 4 Note on, A1 key =  33 ; velocity: 0
@5875 Channel: 4 Note on, G2 key =  43 ; velocity: 75
@5880 Channel: 4 Note on, G2 key =  43 ; velocity: 0
@5880 Channel: 4 Note on, A2 key =  45 ; velocity: 127
@6000 Channel: 4 Note on, A2 key =  45 ; velocity: 0
@6000 Channel: 4 Note on, A1 key =  33 ; velocity: 127
@6060 Channel: 4 Note on, A1 key =  33 ; velocity: 0
@6060 Channel: 4 Note on, A1 key =  33 ; velocity: 127
@6115 Channel: 4 Note on, A1 key =  33 ; velocity: 0
@6115 Channel: 4 Note on, G2 key =  43 ; velocity: 75
@6120 Channel: 4 Note on, G2 key =  43 ; velocity: 0
@6120 Channel: 4 Note on, A2 key =  45 ; velocity: 127
@6180 Channel: 4 Note on, A2 key =  45 ; velocity: 0
@6180 Channel: 4 Note on, A1 key =  33 ; velocity: 127
@6300 Channel: 4 Note on, A1 key =  33 ; velocity: 0
@6300 Channel: 4 Note on, A1 key =  33 ; velocity: 127
@6360 Channel: 4 Note on, A1 key =  33 ; velocity: 0
@6360 Channel: 4 Note on, F2 key =  41 ; velocity: 127
@6420 Channel: 4 Note on, F2 key =  41 ; velocity: 0
@6420 Channel: 4 Note on, E2 key =  40 ; velocity: 127
@6480 Channel: 4 Note on, E2 key =  40 ; velocity: 0
@6480 Channel: 4 Note on, G2 key =  43 ; velocity: 127
@6540 Channel: 4 Note on, G2 key =  43 ; velocity: 0
@6540 Channel: 4 Note on, E2 key =  40 ; velocity: 127
@6600 Channel: 4 Note on, E2 key =  40 ; velocity: 0
@6600 Channel: 4 Note on, C3 key =  48 ; velocity: 127
@6660 Channel: 4 Note on, C3 key =  48 ; velocity: 0
@6660 Channel: 4 Note on, A2 key =  45 ; velocity: 127
@6720 Channel: 4 Note on, A2 key =  45 ; velocity: 0
@6720 Channel: 4 Note on, A1 key =  33 ; velocity: 127
@6780 Channel: 4 Note on, A1 key =  33 ; velocity: 0
@6780 Channel: 4 Note on, A1 key =  33 ; velocity: 127
@6835 Channel: 4 Note on, A1 key =  33 ; velocity: 0
@6835 Channel: 4 Note on, G2 key =  43 ; velocity: 75
@6840 Channel: 4 Note on, G2 key =  43 ; velocity: 0
@6840 Channel: 4 Note on, A2 key =  45 ; velocity: 127
@6960 Channel: 4 Note on, A2 key =  45 ; velocity: 0
@6960 Channel: 4 Note on, A1 key =  33 ; velocity: 127
@7020 Channel: 4 Note on, A1 key =  33 ; velocity: 0
@7020 Channel: 4 Note on, A1 key =  33 ; velocity: 127
@7075 Channel: 4 Note on, A1 key =  33 ; velocity: 0
@7075 Channel: 4 Note on, G2 key =  43 ; velocity: 75
@7080 Channel: 4 Note on, G2 key =  43 ; velocity: 0
@7080 Channel: 4 Note on, A2 key =  45 ; velocity: 127
@7140 Channel: 4 Note on, A2 key =  45 ; velocity: 0
@7140 Channel: 4 Note on, A1 key =  33 ; velocity: 127
@7260 Channel: 4 Note on, A1 key =  33 ; velocity: 0
@7260 Channel: 4 Note on, A1 key =  33 ; velocity: 127
@7320 Channel: 4 Note on, A1 key =  33 ; velocity: 0
@7320 Channel: 4 Note on, F2 key =  41 ; velocity: 127
@7380 Channel: 4 Note on, F2 key =  41 ; velocity: 0
@7380 Channel: 4 Note on, E2 key =  40 ; velocity: 127
@7440 Channel: 4 Note on, E2 key =  40 ; velocity: 0
@7440 Channel: 4 Note on, G2 key =  43 ; velocity: 127
@7500 Channel: 4 Note on, G2 key =  43 ; velocity: 0
@7500 Channel: 4 Note on, E2 key =  40 ; velocity: 127
@7560 Channel: 4 Note on, E2 key =  40 ; velocity: 0
@7560 Channel: 4 Note on, C3 key =  48 ; velocity: 127
@7620 Channel: 4 Note on, C3 key =  48 ; velocity: 0
@7620 Channel: 4 Note on, A2 key =  45 ; velocity: 127
@7680 Channel: 4 Note on, A2 key =  45 ; velocity: 0
@7680 Channel: 4 Note on, E1 key =  28 ; velocity: 127
@7800 Channel: 4 Note on, E1 key =  28 ; velocity: 0
@8040 Channel: 4 Note on, E2 key =  40 ; velocity: 127
@8160 Channel: 4 Note on, E2 key =  40 ; velocity: 0
@8160 Channel: 4 Note on, E1 key =  28 ; velocity: 127
@8640 Channel: 4 Note on, E1 key =  28 ; velocity: 0
@10200 Channel: 4 Note on, E1 key =  28 ; velocity: 127
@10260 Channel: 4 Note on, E1 key =  28 ; velocity: 0
@10260 Channel: 4 Note on, E1 key =  28 ; velocity: 127
@10320 Channel: 4 Note on, E1 key =  28 ; velocity: 0
@10440 Channel: 4 Note on, E1 key =  28 ; velocity: 127
@10560 Channel: 4 Note on, E1 key =  28 ; velocity: 0
@10680 Channel: 4 Note on, E1 key =  28 ; velocity: 127
@10740 Channel: 4 Note on, E1 key =  28 ; velocity: 0
@10740 Channel: 4 Note on, E1 key =  28 ; velocity: 127
@10800 Channel: 4 Note on, E1 key =  28 ; velocity: 0
@10920 Channel: 4 Note on, E1 key =  28 ; velocity: 127
@10980 Channel: 4 Note on, E1 key =  28 ; velocity: 0
@10980 Channel: 4 Note on, E1 key =  28 ; velocity: 127
@11040 Channel: 4 Note on, E1 key =  28 ; velocity: 0
@11040 Channel: 4 Note on, E1 key =  28 ; velocity: 127
@11100 Channel: 4 Note on, E1 key =  28 ; velocity: 0
@11100 Channel: 4 Note on, E1 key =  28 ; velocity: 127
@11160 Channel: 4 Note on, E1 key =  28 ; velocity: 0
@11160 Channel: 4 Note on, E1 key =  28 ; velocity: 127
@11220 Channel: 4 Note on, E1 key =  28 ; velocity: 0
@11220 Channel: 4 Note on, E1 key =  28 ; velocity: 127
@11280 Channel: 4 Note on, E1 key =  28 ; velocity: 0
@11280 Channel: 4 Note on, E2 key =  40 ; velocity: 127
@11340 Channel: 4 Note on, E2 key =  40 ; velocity: 0
@11340 Channel: 4 Note on, E2 key =  40 ; velocity: 127
@11400 Channel: 4 Note on, E2 key =  40 ; velocity: 0
@11400 Channel: 4 Note on, E2 key =  40 ; velocity: 127
@11460 Channel: 4 Note on, E2 key =  40 ; velocity: 0
@11460 Channel: 4 Note on, E2 key =  40 ; velocity: 127
@11520 Channel: 4 Note on, E2 key =  40 ; velocity: 0
@11520 Channel: 4 Note on, E1 key =  28 ; velocity: 127
@11580 Channel: 4 Note on, E1 key =  28 ; velocity: 0
@11580 Channel: 4 Note on, E1 key =  28 ; velocity: 127
@11640 Channel: 4 Note on, E1 key =  28 ; velocity: 0
@11640 Channel: 4 Note on, E1 key =  28 ; velocity: 127
@11700 Channel: 4 Note on, E1 key =  28 ; velocity: 0
@11700 Channel: 4 Note on, E1 key =  28 ; velocity: 127
@11760 Channel: 4 Note on, E1 key =  28 ; velocity: 0
@11760 Channel: 4 Note on, E2 key =  40 ; velocity: 127
@11820 Channel: 4 Note on, E2 key =  40 ; velocity: 0
@11820 Channel: 4 Note on, D2 key =  38 ; velocity: 127
@11880 Channel: 4 Note on, D2 key =  38 ; velocity: 0
@11880 Channel: 4 Note on, B1 key =  35 ; velocity: 127
@11940 Channel: 4 Note on, B1 key =  35 ; velocity: 0
@11940 Channel: 4 Note on, A#1 key =  34 ; velocity: 127
@12000 Channel: 4 Note on, A#1 key =  34 ; velocity: 0
@12000 Channel: 4 Note on, E1 key =  28 ; velocity: 127
@12060 Channel: 4 Note on, E1 key =  28 ; velocity: 0
@12060 Channel: 4 Note on, E1 key =  28 ; velocity: 127
@12120 Channel: 4 Note on, E1 key =  28 ; velocity: 0
@12120 Channel: 4 Note on, E1 key =  28 ; velocity: 127
@12180 Channel: 4 Note on, E1 key =  28 ; velocity: 0
@12180 Channel: 4 Note on, E1 key =  28 ; velocity: 127
@12240 Channel: 4 Note on, E1 key =  28 ; velocity: 0
@12240 Channel: 4 Note on, G1 key =  31 ; velocity: 127
@12300 Channel: 4 Note on, G1 key =  31 ; velocity: 0
@12300 Channel: 4 Note on, A1 key =  33 ; velocity: 127
@12360 Channel: 4 Note on, A1 key =  33 ; velocity: 0
@12360 Channel: 4 Note on, G1 key =  31 ; velocity: 127
@12420 Channel: 4 Note on, G1 key =  31 ; velocity: 0
@12420 Channel: 4 Note on, A1 key =  33 ; velocity: 127
@12480 Channel: 4 Note on, A1 key =  33 ; velocity: 0
@12480 Channel: 4 Note on, E1 key =  28 ; velocity: 127
@12540 Channel: 4 Note on, E1 key =  28 ; velocity: 0
@12540 Channel: 4 Note on, E1 key =  28 ; velocity: 127
@12600 Channel: 4 Note on, E1 key =  28 ; velocity: 0
@12600 Channel: 4 Note on, E1 key =  28 ; velocity: 127
@12660 Channel: 4 Note on, E1 key =  28 ; velocity: 0
@12660 Channel: 4 Note on, E1 key =  28 ; velocity: 127
@12720 Channel: 4 Note on, E1 key =  28 ; velocity: 0
@12720 Channel: 4 Note on, E2 key =  40 ; velocity: 127
@12780 Channel: 4 Note on, E2 key =  40 ; velocity: 0
@12780 Channel: 4 Note on, D2 key =  38 ; velocity: 127
@12840 Channel: 4 Note on, D2 key =  38 ; velocity: 0
@12840 Channel: 4 Note on, B1 key =  35 ; velocity: 127
@12900 Channel: 4 Note on, B1 key =  35 ; velocity: 0
@12900 Channel: 4 Note on, A#1 key =  34 ; velocity: 127
@12960 Channel: 4 Note on, A#1 key =  34 ; velocity: 0
@12960 Channel: 4 Note on, E1 key =  28 ; velocity: 127
@13020 Channel: 4 Note on, E1 key =  28 ; velocity: 0
@13020 Channel: 4 Note on, E1 key =  28 ; velocity: 127
@13080 Channel: 4 Note on, E1 key =  28 ; velocity: 0
@13080 Channel: 4 Note on, E1 key =  28 ; velocity: 127
@13140 Channel: 4 Note on, E1 key =  28 ; velocity: 0
@13140 Channel: 4 Note on, E1 key =  28 ; velocity: 127
@13200 Channel: 4 Note on, E1 key =  28 ; velocity: 0
@13200 Channel: 4 Note on, G1 key =  31 ; velocity: 127
@13260 Channel: 4 Note on, G1 key =  31 ; velocity: 0
@13260 Channel: 4 Note on, A1 key =  33 ; velocity: 127
@13320 Channel: 4 Note on, A1 key =  33 ; velocity: 0
@13320 Channel: 4 Note on, G1 key =  31 ; velocity: 127
@13380 Channel: 4 Note on, G1 key =  31 ; velocity: 0
@13380 Channel: 4 Note on, A1 key =  33 ; velocity: 127
@13440 Channel: 4 Note on, A1 key =  33 ; velocity: 0
@13440 Channel: 4 Note on, E1 key =  28 ; velocity: 127
@13500 Channel: 4 Note on, E1 key =  28 ; velocity: 0
@13500 Channel: 4 Note on, E1 key =  28 ; velocity: 127
@13560 Channel: 4 Note on, E1 key =  28 ; velocity: 0
@13560 Channel: 4 Note on, E1 key =  28 ; velocity: 127
@13620 Channel: 4 Note on, E1 key =  28 ; velocity: 0
@13620 Channel: 4 Note on, E1 key =  28 ; velocity: 127
@13680 Channel: 4 Note on, E1 key =  28 ; velocity: 0
@13680 Channel: 4 Note on, E2 key =  40 ; velocity: 127
@13740 Channel: 4 Note on, E2 key =  40 ; velocity: 0
@13740 Channel: 4 Note on, D2 key =  38 ; velocity: 127
@13800 Channel: 4 Note on, D2 key =  38 ; velocity: 0
@13800 Channel: 4 Note on, B1 key =  35 ; velocity: 127
@13860 Channel: 4 Note on, B1 key =  35 ; velocity: 0
@13860 Channel: 4 Note on, A#1 key =  34 ; velocity: 127
@13920 Channel: 4 Note on, A#1 key =  34 ; velocity: 0
@13920 Channel: 4 Note on, E1 key =  28 ; velocity: 127
@13980 Channel: 4 Note on, E1 key =  28 ; velocity: 0
@13980 Channel: 4 Note on, E1 key =  28 ; velocity: 127
@14040 Channel: 4 Note on, E1 key =  28 ; velocity: 0
@14040 Channel: 4 Note on, E1 key =  28 ; velocity: 127
@14100 Channel: 4 Note on, E1 key =  28 ; velocity: 0
@14100 Channel: 4 Note on, E1 key =  28 ; velocity: 127
@14160 Channel: 4 Note on, E1 key =  28 ; velocity: 0
@14160 Channel: 4 Note on, G1 key =  31 ; velocity: 127
@14220 Channel: 4 Note on, G1 key =  31 ; velocity: 0
@14220 Channel: 4 Note on, A1 key =  33 ; velocity: 127
@14280 Channel: 4 Note on, A1 key =  33 ; velocity: 0
@14280 Channel: 4 Note on, G1 key =  31 ; velocity: 127
@14340 Channel: 4 Note on, G1 key =  31 ; velocity: 0
@14340 Channel: 4 Note on, A1 key =  33 ; velocity: 127
@14400 Channel: 4 Note on, A1 key =  33 ; velocity: 0
@14400 Channel: 4 Note on, E1 key =  28 ; velocity: 127
@14460 Channel: 4 Note on, E1 key =  28 ; velocity: 0
@14460 Channel: 4 Note on, E1 key =  28 ; velocity: 127
@14520 Channel: 4 Note on, E1 key =  28 ; velocity: 0
@14520 Channel: 4 Note on, E1 key =  28 ; velocity: 127
@14580 Channel: 4 Note on, E1 key =  28 ; velocity: 0
@14580 Channel: 4 Note on, E1 key =  28 ; velocity: 127
@14640 Channel: 4 Note on, E1 key =  28 ; velocity: 0
@14640 Channel: 4 Note on, E2 key =  40 ; velocity: 127
@14700 Channel: 4 Note on, E2 key =  40 ; velocity: 0
@14700 Channel: 4 Note on, D2 key =  38 ; velocity: 127
@14760 Channel: 4 Note on, D2 key =  38 ; velocity: 0
@14760 Channel: 4 Note on, B1 key =  35 ; velocity: 127
@14820 Channel: 4 Note on, B1 key =  35 ; velocity: 0
@14820 Channel: 4 Note on, A#1 key =  34 ; velocity: 127
@14880 Channel: 4 Note on, A#1 key =  34 ; velocity: 0
@14880 Channel: 4 Note on, E1 key =  28 ; velocity: 127
@14940 Channel: 4 Note on, E1 key =  28 ; velocity: 0
@14940 Channel: 4 Note on, E1 key =  28 ; velocity: 127
@15000 Channel: 4 Note on, E1 key =  28 ; velocity: 0
@15000 Channel: 4 Note on, E1 key =  28 ; velocity: 127
@15060 Channel: 4 Note on, E1 key =  28 ; velocity: 0
@15060 Channel: 4 Note on, E1 key =  28 ; velocity: 127
@15120 Channel: 4 Note on, E1 key =  28 ; velocity: 0
@15120 Channel: 4 Note on, G1 key =  31 ; velocity: 127
@15180 Channel: 4 Note on, G1 key =  31 ; velocity: 0
@15180 Channel: 4 Note on, A1 key =  33 ; velocity: 127
@15240 Channel: 4 Note on, A1 key =  33 ; velocity: 0
@15240 Channel: 4 Note on, G1 key =  31 ; velocity: 127
@15300 Channel: 4 Note on, G1 key =  31 ; velocity: 0
@15300 Channel: 4 Note on, A1 key =  33 ; velocity: 127
@15360 Channel: 4 Note on, A1 key =  33 ; velocity: 0
@15360 Channel: 4 Note on, E1 key =  28 ; velocity: 127
@15420 Channel: 4 Note on, E1 key =  28 ; velocity: 0
@15420 Channel: 4 Note on, E1 key =  28 ; velocity: 127
@15480 Channel: 4 Note on, E1 key =  28 ; velocity: 0
@15480 Channel: 4 Note on, E1 key =  28 ; velocity: 127
@15540 Channel: 4 Note on, E1 key =  28 ; velocity: 0
@15540 Channel: 4 Note on, E1 key =  28 ; velocity: 127
@15600 Channel: 4 Note on, E1 key =  28 ; velocity: 0
@15600 Channel: 4 Note on, E2 key =  40 ; velocity: 127
@15660 Channel: 4 Note on, E2 key =  40 ; velocity: 0
@15660 Channel: 4 Note on, D2 key =  38 ; velocity: 127
@15720 Channel: 4 Note on, D2 key =  38 ; velocity: 0
@15720 Channel: 4 Note on, B1 key =  35 ; velocity: 127
@15780 Channel: 4 Note on, B1 key =  35 ; velocity: 0
@15780 Channel: 4 Note on, A#1 key =  34 ; velocity: 127
@15840 Channel: 4 Note on, A#1 key =  34 ; velocity: 0
@15840 Channel: 4 Note on, E1 key =  28 ; velocity: 127
@15900 Channel: 4 Note on, E1 key =  28 ; velocity: 0
@15900 Channel: 4 Note on, E1 key =  28 ; velocity: 127
@15960 Channel: 4 Note on, E1 key =  28 ; velocity: 0
@15960 Channel: 4 Note on, E1 key =  28 ; velocity: 127
@16020 Channel: 4 Note on, E1 key =  28 ; velocity: 0
@16020 Channel: 4 Note on, E1 key =  28 ; velocity: 127
@16080 Channel: 4 Note on, E1 key =  28 ; velocity: 0
@16080 Channel: 4 Note on, E1 key =  28 ; velocity: 127
@16140 Channel: 4 Note on, E1 key =  28 ; velocity: 0
@16140 Channel: 4 Note on, E1 key =  28 ; velocity: 127
@16200 Channel: 4 Note on, E1 key =  28 ; velocity: 0
@16200 Channel: 4 Note on, E1 key =  28 ; velocity: 127
@16260 Channel: 4 Note on, E1 key =  28 ; velocity: 0
@16260 Channel: 4 Note on, E1 key =  28 ; velocity: 127
@16320 Channel: 4 Note on, E1 key =  28 ; velocity: 0
@16320 Channel: 4 Note on, E1 key =  28 ; velocity: 127
@16380 Channel: 4 Note on, E1 key =  28 ; velocity: 0
@16380 Channel: 4 Note on, E1 key =  28 ; velocity: 127
@16440 Channel: 4 Note on, E1 key =  28 ; velocity: 0
@16440 Channel: 4 Note on, E1 key =  28 ; velocity: 127
@16500 Channel: 4 Note on, E1 key =  28 ; velocity: 0
@16500 Channel: 4 Note on, E1 key =  28 ; velocity: 127
@16560 Channel: 4 Note on, E1 key =  28 ; velocity: 0
@16560 Channel: 4 Note on, B1 key =  35 ; velocity: 127
@16620 Channel: 4 Note on, B1 key =  35 ; velocity: 0
@16620 Channel: 4 Note on, A#1 key =  34 ; velocity: 127
@16680 Channel: 4 Note on, A#1 key =  34 ; velocity: 0
@16680 Channel: 4 Note on, G2 key =  43 ; velocity: 127
@16740 Channel: 4 Note on, G2 key =  43 ; velocity: 0
@16740 Channel: 4 Note on, E2 key =  40 ; velocity: 127
@16800 Channel: 4 Note on, E2 key =  40 ; velocity: 0
@16800 Channel: 4 Note on, E1 key =  28 ; velocity: 127
@16860 Channel: 4 Note on, E1 key =  28 ; velocity: 0
@16860 Channel: 4 Note on, E1 key =  28 ; velocity: 127
@16920 Channel: 4 Note on, E1 key =  28 ; velocity: 0
@16920 Channel: 4 Note on, E1 key =  28 ; velocity: 127
@16980 Channel: 4 Note on, E1 key =  28 ; velocity: 0
@16980 Channel: 4 Note on, E1 key =  28 ; velocity: 127
@17040 Channel: 4 Note on, E1 key =  28 ; velocity: 0
@17040 Channel: 4 Note on, E1 key =  28 ; velocity: 127
@17100 Channel: 4 Note on, E1 key =  28 ; velocity: 0
@17100 Channel: 4 Note on, E1 key =  28 ; velocity: 127
@17160 Channel: 4 Note on, E1 key =  28 ; velocity: 0
@17160 Channel: 4 Note on, E1 key =  28 ; velocity: 127
@17220 Channel: 4 Note on, E1 key =  28 ; velocity: 0
@17220 Channel: 4 Note on, E1 key =  28 ; velocity: 127
@17280 Channel: 4 Note on, E1 key =  28 ; velocity: 0
@17280 Channel: 4 Note on, E1 key =  28 ; velocity: 127
@17340 Channel: 4 Note on, E1 key =  28 ; velocity: 0
@17340 Channel: 4 Note on, E1 key =  28 ; velocity: 127
@17400 Channel: 4 Note on, E1 key =  28 ; velocity: 0
@17400 Channel: 4 Note on, E1 key =  28 ; velocity: 127
@17460 Channel: 4 Note on, E1 key =  28 ; velocity: 0
@17460 Channel: 4 Note on, E1 key =  28 ; velocity: 127
@17520 Channel: 4 Note on, E1 key =  28 ; velocity: 0
@17520 Channel: 4 Note on, B1 key =  35 ; velocity: 127
@17580 Channel: 4 Note on, B1 key =  35 ; velocity: 0
@17580 Channel: 4 Note on, A#1 key =  34 ; velocity: 127
@17640 Channel: 4 Note on, A#1 key =  34 ; velocity: 0
@17640 Channel: 4 Note on, G1 key =  31 ; velocity: 127
@17700 Channel: 4 Note on, G1 key =  31 ; velocity: 0
@17700 Channel: 4 Note on, E1 key =  28 ; velocity: 127
@17760 Channel: 4 Note on, E1 key =  28 ; velocity: 0
@17760 Channel: 4 Note on, E1 key =  28 ; velocity: 127
@17820 Channel: 4 Note on, E1 key =  28 ; velocity: 0
@17820 Channel: 4 Note on, E1 key =  28 ; velocity: 127
@17880 Channel: 4 Note on, E1 key =  28 ; velocity: 0
@17880 Channel: 4 Note on, E2 key =  40 ; velocity: 127
@17940 Channel: 4 Note on, E2 key =  40 ; velocity: 0
@17940 Channel: 4 Note on, E1 key =  28 ; velocity: 127
@18000 Channel: 4 Note on, E1 key =  28 ; velocity: 0
@18000 Channel: 4 Note on, E1 key =  28 ; velocity: 127
@18060 Channel: 4 Note on, E1 key =  28 ; velocity: 0
@18060 Channel: 4 Note on, E1 key =  28 ; velocity: 127
@18120 Channel: 4 Note on, E1 key =  28 ; velocity: 0
@18120 Channel: 4 Note on, E1 key =  28 ; velocity: 127
@18180 Channel: 4 Note on, E1 key =  28 ; velocity: 0
@18180 Channel: 4 Note on, E1 key =  28 ; velocity: 127
@18240 Channel: 4 Note on, E1 key =  28 ; velocity: 0
@18240 Channel: 4 Note on, E1 key =  28 ; velocity: 127
@18300 Channel: 4 Note on, E1 key =  28 ; velocity: 0
@18300 Channel: 4 Note on, E1 key =  28 ; velocity: 127
@18360 Channel: 4 Note on, E1 key =  28 ; velocity: 0
@18360 Channel: 4 Note on, E1 key =  28 ; velocity: 127
@18420 Channel: 4 Note on, E1 key =  28 ; velocity: 0
@18420 Channel: 4 Note on, E1 key =  28 ; velocity: 127
@18480 Channel: 4 Note on, E1 key =  28 ; velocity: 0
@18480 Channel: 4 Note on, B1 key =  35 ; velocity: 127
@18540 Channel: 4 Note on, B1 key =  35 ; velocity: 0
@18540 Channel: 4 Note on, A#1 key =  34 ; velocity: 127
@18600 Channel: 4 Note on, A#1 key =  34 ; velocity: 0
@18600 Channel: 4 Note on, G2 key =  43 ; velocity: 127
@18660 Channel: 4 Note on, G2 key =  43 ; velocity: 0
@18660 Channel: 4 Note on, E2 key =  40 ; velocity: 127
@18720 Channel: 4 Note on, E2 key =  40 ; velocity: 0
@18720 Channel: 4 Note on, E1 key =  28 ; velocity: 127
@18780 Channel: 4 Note on, E1 key =  28 ; velocity: 0
@18780 Channel: 4 Note on, E1 key =  28 ; velocity: 127
@18840 Channel: 4 Note on, E1 key =  28 ; velocity: 0
@18840 Channel: 4 Note on, E2 key =  40 ; velocity: 127
@18900 Channel: 4 Note on, E2 key =  40 ; velocity: 0
@18900 Channel: 4 Note on, E1 key =  28 ; velocity: 127
@18960 Channel: 4 Note on, E1 key =  28 ; velocity: 0
@18960 Channel: 4 Note on, E1 key =  28 ; velocity: 127
@19020 Channel: 4 Note on, E1 key =  28 ; velocity: 0
@19020 Channel: 4 Note on, E1 key =  28 ; velocity: 127
@19080 Channel: 4 Note on, E1 key =  28 ; velocity: 0
@19080 Channel: 4 Note on, E2 key =  40 ; velocity: 127
@19140 Channel: 4 Note on, E2 key =  40 ; velocity: 0
@19140 Channel: 4 Note on, E1 key =  28 ; velocity: 127
@19200 Channel: 4 Note on, E1 key =  28 ; velocity: 0
@19200 Channel: 4 Note on, E1 key =  28 ; velocity: 127
@19260 Channel: 4 Note on, E1 key =  28 ; velocity: 0
@19260 Channel: 4 Note on, E1 key =  28 ; velocity: 127
@19320 Channel: 4 Note on, E1 key =  28 ; velocity: 0
@19320 Channel: 4 Note on, E2 key =  40 ; velocity: 127
@19380 Channel: 4 Note on, E2 key =  40 ; velocity: 0
@19380 Channel: 4 Note on, E1 key =  28 ; velocity: 127
@19440 Channel: 4 Note on, E1 key =  28 ; velocity: 0
@19440 Channel: 4 Note on, B1 key =  35 ; velocity: 127
@19500 Channel: 4 Note on, B1 key =  35 ; velocity: 0
@19500 Channel: 4 Note on, A#1 key =  34 ; velocity: 127
@19560 Channel: 4 Note on, A#1 key =  34 ; velocity: 0
@19560 Channel: 4 Note on, G1 key =  31 ; velocity: 127
@19620 Channel: 4 Note on, G1 key =  31 ; velocity: 0
@19620 Channel: 4 Note on, E1 key =  28 ; velocity: 127
@19680 Channel: 4 Note on, E1 key =  28 ; velocity: 0
@19680 Channel: 4 Note on, E1 key =  28 ; velocity: 127
@19740 Channel: 4 Note on, E1 key =  28 ; velocity: 0
@19740 Channel: 4 Note on, E1 key =  28 ; velocity: 127
@19800 Channel: 4 Note on, E1 key =  28 ; velocity: 0
@19800 Channel: 4 Note on, E1 key =  28 ; velocity: 127
@19860 Channel: 4 Note on, E1 key =  28 ; velocity: 0
@19860 Channel: 4 Note on, E1 key =  28 ; velocity: 127
@19920 Channel: 4 Note on, E1 key =  28 ; velocity: 0
@19920 Channel: 4 Note on, E1 key =  28 ; velocity: 127
@19980 Channel: 4 Note on, E1 key =  28 ; velocity: 0
@19980 Channel: 4 Note on, E1 key =  28 ; velocity: 127
@20040 Channel: 4 Note on, E1 key =  28 ; velocity: 0
@20040 Channel: 4 Note on, E1 key =  28 ; velocity: 127
@20100 Channel: 4 Note on, E1 key =  28 ; velocity: 0
@20100 Channel: 4 Note on, E1 key =  28 ; velocity: 127
@20160 Channel: 4 Note on, E1 key =  28 ; velocity: 0
@20160 Channel: 4 Note on, E1 key =  28 ; velocity: 127
@20220 Channel: 4 Note on, E1 key =  28 ; velocity: 0
@20220 Channel: 4 Note on, E1 key =  28 ; velocity: 127
@20280 Channel: 4 Note on, E1 key =  28 ; velocity: 0
@20280 Channel: 4 Note on, E1 key =  28 ; velocity: 127
@20340 Channel: 4 Note on, E1 key =  28 ; velocity: 0
@20340 Channel: 4 Note on, E1 key =  28 ; velocity: 127
@20400 Channel: 4 Note on, E1 key =  28 ; velocity: 0
@20400 Channel: 4 Note on, B1 key =  35 ; velocity: 127
@20460 Channel: 4 Note on, B1 key =  35 ; velocity: 0
@20460 Channel: 4 Note on, A#1 key =  34 ; velocity: 127
@20520 Channel: 4 Note on, A#1 key =  34 ; velocity: 0
@20520 Channel: 4 Note on, G2 key =  43 ; velocity: 127
@20580 Channel: 4 Note on, G2 key =  43 ; velocity: 0
@20580 Channel: 4 Note on, E2 key =  40 ; velocity: 127
@20640 Channel: 4 Note on, E2 key =  40 ; velocity: 0
@20640 Channel: 4 Note on, E1 key =  28 ; velocity: 127
@20700 Channel: 4 Note on, E1 key =  28 ; velocity: 0
@20700 Channel: 4 Note on, E1 key =  28 ; velocity: 127
@20760 Channel: 4 Note on, E1 key =  28 ; velocity: 0
@20760 Channel: 4 Note on, E1 key =  28 ; velocity: 127
@20820 Channel: 4 Note on, E1 key =  28 ; velocity: 0
@20820 Channel: 4 Note on, E1 key =  28 ; velocity: 127
@20880 Channel: 4 Note on, E1 key =  28 ; velocity: 0
@20880 Channel: 4 Note on, E1 key =  28 ; velocity: 127
@20940 Channel: 4 Note on, E1 key =  28 ; velocity: 0
@20940 Channel: 4 Note on, E1 key =  28 ; velocity: 127
@21000 Channel: 4 Note on, E1 key =  28 ; velocity: 0
@21000 Channel: 4 Note on, E1 key =  28 ; velocity: 127
@21060 Channel: 4 Note on, E1 key =  28 ; velocity: 0
@21060 Channel: 4 Note on, E1 key =  28 ; velocity: 127
@21120 Channel: 4 Note on, E1 key =  28 ; velocity: 0
@21120 Channel: 4 Note on, E1 key =  28 ; velocity: 127
@21180 Channel: 4 Note on, E1 key =  28 ; velocity: 0
@21180 Channel: 4 Note on, E1 key =  28 ; velocity: 127
@21240 Channel: 4 Note on, E1 key =  28 ; velocity: 0
@21240 Channel: 4 Note on, E1 key =  28 ; velocity: 127
@21300 Channel: 4 Note on, E1 key =  28 ; velocity: 0
@21300 Channel: 4 Note on, E1 key =  28 ; velocity: 127
@21360 Channel: 4 Note on, E1 key =  28 ; velocity: 0
@21360 Channel: 4 Note on, B1 key =  35 ; velocity: 127
@21420 Channel: 4 Note on, B1 key =  35 ; velocity: 0
@21420 Channel: 4 Note on, A#1 key =  34 ; velocity: 127
@21480 Channel: 4 Note on, A#1 key =  34 ; velocity: 0
@21480 Channel: 4 Note on, G1 key =  31 ; velocity: 127
@21540 Channel: 4 Note on, G1 key =  31 ; velocity: 0
@21540 Channel: 4 Note on, E1 key =  28 ; velocity: 127
@21600 Channel: 4 Note on, E1 key =  28 ; velocity: 0
@21600 Channel: 4 Note on, E1 key =  28 ; velocity: 127
@21660 Channel: 4 Note on, E1 key =  28 ; velocity: 0
@21660 Channel: 4 Note on, E1 key =  28 ; velocity: 127
@21720 Channel: 4 Note on, E1 key =  28 ; velocity: 0
@21720 Channel: 4 Note on, E2 key =  40 ; velocity: 127
@21780 Channel: 4 Note on, E2 key =  40 ; velocity: 0
@21780 Channel: 4 Note on, E1 key =  28 ; velocity: 127
@21840 Channel: 4 Note on, E1 key =  28 ; velocity: 0
@21840 Channel: 4 Note on, E1 key =  28 ; velocity: 127
@21900 Channel: 4 Note on, E1 key =  28 ; velocity: 0
@21900 Channel: 4 Note on, E1 key =  28 ; velocity: 127
@21960 Channel: 4 Note on, E1 key =  28 ; velocity: 0
@21960 Channel: 4 Note on, E1 key =  28 ; velocity: 127
@22020 Channel: 4 Note on, E1 key =  28 ; velocity: 0
@22020 Channel: 4 Note on, E1 key =  28 ; velocity: 127
@22080 Channel: 4 Note on, E1 key =  28 ; velocity: 0
@22080 Channel: 4 Note on, E1 key =  28 ; velocity: 127
@22140 Channel: 4 Note on, E1 key =  28 ; velocity: 0
@22140 Channel: 4 Note on, E1 key =  28 ; velocity: 127
@22200 Channel: 4 Note on, E1 key =  28 ; velocity: 0
@22200 Channel: 4 Note on, E1 key =  28 ; velocity: 127
@22260 Channel: 4 Note on, E1 key =  28 ; velocity: 0
@22260 Channel: 4 Note on, E1 key =  28 ; velocity: 127
@22320 Channel: 4 Note on, E1 key =  28 ; velocity: 0
@22320 Channel: 4 Note on, B1 key =  35 ; velocity: 127
@22380 Channel: 4 Note on, B1 key =  35 ; velocity: 0
@22380 Channel: 4 Note on, A#1 key =  34 ; velocity: 127
@22440 Channel: 4 Note on, A#1 key =  34 ; velocity: 0
@22440 Channel: 4 Note on, G2 key =  43 ; velocity: 127
@22500 Channel: 4 Note on, G2 key =  43 ; velocity: 0
@22500 Channel: 4 Note on, E2 key =  40 ; velocity: 127
@22560 Channel: 4 Note on, E2 key =  40 ; velocity: 0
@22560 Channel: 4 Note on, E1 key =  28 ; velocity: 127
@22620 Channel: 4 Note on, E1 key =  28 ; velocity: 0
@22620 Channel: 4 Note on, E1 key =  28 ; velocity: 127
@22680 Channel: 4 Note on, E1 key =  28 ; velocity: 0
@22680 Channel: 4 Note on, E2 key =  40 ; velocity: 127
@22740 Channel: 4 Note on, E2 key =  40 ; velocity: 0
@22740 Channel: 4 Note on, E1 key =  28 ; velocity: 127
@22800 Channel: 4 Note on, E1 key =  28 ; velocity: 0
@22800 Channel: 4 Note on, E1 key =  28 ; velocity: 127
@22860 Channel: 4 Note on, E1 key =  28 ; velocity: 0
@22860 Channel: 4 Note on, E1 key =  28 ; velocity: 127
@22920 Channel: 4 Note on, E1 key =  28 ; velocity: 0
@22920 Channel: 4 Note on, E2 key =  40 ; velocity: 127
@22980 Channel: 4 Note on, E2 key =  40 ; velocity: 0
@22980 Channel: 4 Note on, E1 key =  28 ; velocity: 127
@23040 Channel: 4 Note on, E1 key =  28 ; velocity: 0
@23040 Channel: 4 Note on, E1 key =  28 ; velocity: 127
@23100 Channel: 4 Note on, E1 key =  28 ; velocity: 0
@23100 Channel: 4 Note on, E1 key =  28 ; velocity: 127
@23160 Channel: 4 Note on, E1 key =  28 ; velocity: 0
@23160 Channel: 4 Note on, E2 key =  40 ; velocity: 127
@23220 Channel: 4 Note on, E2 key =  40 ; velocity: 0
@23220 Channel: 4 Note on, E1 key =  28 ; velocity: 127
@23280 Channel: 4 Note on, E1 key =  28 ; velocity: 0
@23280 Channel: 4 Note on, B1 key =  35 ; velocity: 127
@23340 Channel: 4 Note on, B1 key =  35 ; velocity: 0
@23340 Channel: 4 Note on, A#1 key =  34 ; velocity: 127
@23400 Channel: 4 Note on, A#1 key =  34 ; velocity: 0
@23400 Channel: 4 Note on, G1 key =  31 ; velocity: 127
@23460 Channel: 4 Note on, G1 key =  31 ; velocity: 0
@23460 Channel: 4 Note on, E1 key =  28 ; velocity: 127
@23520 Channel: 4 Note on, E1 key =  28 ; velocity: 0
@23520 Channel: 4 Note on, C2 key =  36 ; velocity: 127
@23580 Channel: 4 Note on, C2 key =  36 ; velocity: 0
@23580 Channel: 4 Note on, A1 key =  33 ; velocity: 127
@23640 Channel: 4 Note on, A1 key =  33 ; velocity: 0
@23640 Channel: 4 Note on, A1 key =  33 ; velocity: 127
@23700 Channel: 4 Note on, A1 key =  33 ; velocity: 0
@23700 Channel: 4 Note on, A1 key =  33 ; velocity: 127
@23760 Channel: 4 Note on, A1 key =  33 ; velocity: 0
@23760 Channel: 4 Note on, C2 key =  36 ; velocity: 127
@23820 Channel: 4 Note on, C2 key =  36 ; velocity: 0
@23820 Channel: 4 Note on, D2 key =  38 ; velocity: 127
@23880 Channel: 4 Note on, D2 key =  38 ; velocity: 0
@23880 Channel: 4 Note on, C2 key =  36 ; velocity: 127
@24000 Channel: 4 Note on, C2 key =  36 ; velocity: 0
@24000 Channel: 4 Note on, C2 key =  36 ; velocity: 127
@24060 Channel: 4 Note on, C2 key =  36 ; velocity: 0
@24060 Channel: 4 Note on, A1 key =  33 ; velocity: 127
@24120 Channel: 4 Note on, A1 key =  33 ; velocity: 0
@24120 Channel: 4 Note on, A1 key =  33 ; velocity: 127
@24180 Channel: 4 Note on, A1 key =  33 ; velocity: 0
@24180 Channel: 4 Note on, E2 key =  40 ; velocity: 127
@24240 Channel: 4 Note on, E2 key =  40 ; velocity: 0
@24240 Channel: 4 Note on, G2 key =  43 ; velocity: 127
@24300 Channel: 4 Note on, G2 key =  43 ; velocity: 0
@24300 Channel: 4 Note on, E2 key =  40 ; velocity: 127
@24360 Channel: 4 Note on, E2 key =  40 ; velocity: 0
@24360 Channel: 4 Note on, A2 key =  45 ; velocity: 127
@24480 Channel: 4 Note on, A2 key =  45 ; velocity: 0
@24480 Channel: 4 Note on, A1 key =  33 ; velocity: 127
@24540 Channel: 4 Note on, A1 key =  33 ; velocity: 0
@24540 Channel: 4 Note on, A1 key =  33 ; velocity: 127
@24600 Channel: 4 Note on, A1 key =  33 ; velocity: 0
@24600 Channel: 4 Note on, A1 key =  33 ; velocity: 127
@24660 Channel: 4 Note on, A1 key =  33 ; velocity: 0
@24660 Channel: 4 Note on, A1 key =  33 ; velocity: 127
@24720 Channel: 4 Note on, A1 key =  33 ; velocity: 0
@24720 Channel: 4 Note on, C2 key =  36 ; velocity: 127
@24780 Channel: 4 Note on, C2 key =  36 ; velocity: 0
@24780 Channel: 4 Note on, D2 key =  38 ; velocity: 127
@24840 Channel: 4 Note on, D2 key =  38 ; velocity: 0
@24840 Channel: 4 Note on, C2 key =  36 ; velocity: 127
@24960 Channel: 4 Note on, C2 key =  36 ; velocity: 0
@24960 Channel: 4 Note on, D3 key =  50 ; velocity: 127
@25020 Channel: 4 Note on, D3 key =  50 ; velocity: 0
@25020 Channel: 4 Note on, C3 key =  48 ; velocity: 127
@25080 Channel: 4 Note on, C3 key =  48 ; velocity: 0
@25080 Channel: 4 Note on, A2 key =  45 ; velocity: 127
@25140 Channel: 4 Note on, A2 key =  45 ; velocity: 0
@25140 Channel: 4 Note on, G#2 key =  44 ; velocity: 127
@25200 Channel: 4 Note on, G#2 key =  44 ; velocity: 0
@25200 Channel: 4 Note on, G2 key =  43 ; velocity: 127
@25260 Channel: 4 Note on, G2 key =  43 ; velocity: 0
@25260 Channel: 4 Note on, E2 key =  40 ; velocity: 127
@25320 Channel: 4 Note on, E2 key =  40 ; velocity: 0
@25320 Channel: 4 Note on, D#2 key =  39 ; velocity: 127
@25380 Channel: 4 Note on, D#2 key =  39 ; velocity: 0
@25380 Channel: 4 Note on, D2 key =  38 ; velocity: 127
@25440 Channel: 4 Note on, D2 key =  38 ; velocity: 0
@25440 Channel: 4 Note on, C2 key =  36 ; velocity: 127
@25500 Channel: 4 Note on, C2 key =  36 ; velocity: 0
@25500 Channel: 4 Note on, A1 key =  33 ; velocity: 127
@25560 Channel: 4 Note on, A1 key =  33 ; velocity: 0
@25560 Channel: 4 Note on, A1 key =  33 ; velocity: 127
@25620 Channel: 4 Note on, A1 key =  33 ; velocity: 0
@25620 Channel: 4 Note on, A1 key =  33 ; velocity: 127
@25680 Channel: 4 Note on, A1 key =  33 ; velocity: 0
@25680 Channel: 4 Note on, C2 key =  36 ; velocity: 127
@25740 Channel: 4 Note on, C2 key =  36 ; velocity: 0
@25740 Channel: 4 Note on, D2 key =  38 ; velocity: 127
@25800 Channel: 4 Note on, D2 key =  38 ; velocity: 0
@25800 Channel: 4 Note on, C2 key =  36 ; velocity: 127
@25920 Channel: 4 Note on, C2 key =  36 ; velocity: 0
@25920 Channel: 4 Note on, C2 key =  36 ; velocity: 127
@25980 Channel: 4 Note on, C2 key =  36 ; velocity: 0
@25980 Channel: 4 Note on, A1 key =  33 ; velocity: 127
@26040 Channel: 4 Note on, A1 key =  33 ; velocity: 0
@26040 Channel: 4 Note on, A1 key =  33 ; velocity: 127
@26100 Channel: 4 Note on, A1 key =  33 ; velocity: 0
@26100 Channel: 4 Note on, E2 key =  40 ; velocity: 127
@26160 Channel: 4 Note on, E2 key =  40 ; velocity: 0
@26160 Channel: 4 Note on, G2 key =  43 ; velocity: 127
@26220 Channel: 4 Note on, G2 key =  43 ; velocity: 0
@26220 Channel: 4 Note on, E2 key =  40 ; velocity: 127
@26280 Channel: 4 Note on, E2 key =  40 ; velocity: 0
@26280 Channel: 4 Note on, A2 key =  45 ; velocity: 127
@26400 Channel: 4 Note on, A2 key =  45 ; velocity: 0
@26400 Channel: 4 Note on, A1 key =  33 ; velocity: 127
@26460 Channel: 4 Note on, A1 key =  33 ; velocity: 0
@26460 Channel: 4 Note on, A1 key =  33 ; velocity: 127
@26520 Channel: 4 Note on, A1 key =  33 ; velocity: 0
@26520 Channel: 4 Note on, A1 key =  33 ; velocity: 127
@26580 Channel: 4 Note on, A1 key =  33 ; velocity: 0
@26580 Channel: 4 Note on, A1 key =  33 ; velocity: 127
@26640 Channel: 4 Note on, A1 key =  33 ; velocity: 0
@26640 Channel: 4 Note on, C2 key =  36 ; velocity: 127
@26700 Channel: 4 Note on, C2 key =  36 ; velocity: 0
@26700 Channel: 4 Note on, D2 key =  38 ; velocity: 127
@26760 Channel: 4 Note on, D2 key =  38 ; velocity: 0
@26760 Channel: 4 Note on, C2 key =  36 ; velocity: 127
@26880 Channel: 4 Note on, C2 key =  36 ; velocity: 0
@26880 Channel: 4 Note on, E3 key =  52 ; velocity: 127
@26940 Channel: 4 Note on, E3 key =  52 ; velocity: 0
@26940 Channel: 4 Note on, D3 key =  50 ; velocity: 127
@27000 Channel: 4 Note on, D3 key =  50 ; velocity: 0
@27000 Channel: 4 Note on, B2 key =  47 ; velocity: 127
@27060 Channel: 4 Note on, B2 key =  47 ; velocity: 0
@27060 Channel: 4 Note on, D3 key =  50 ; velocity: 127
@27120 Channel: 4 Note on, D3 key =  50 ; velocity: 0
@27120 Channel: 4 Note on, B2 key =  47 ; velocity: 127
@27180 Channel: 4 Note on, B2 key =  47 ; velocity: 0
@27180 Channel: 4 Note on, A#2 key =  46 ; velocity: 127
@27240 Channel: 4 Note on, A#2 key =  46 ; velocity: 0
@27240 Channel: 4 Note on, A2 key =  45 ; velocity: 127
@27300 Channel: 4 Note on, A2 key =  45 ; velocity: 0
@27300 Channel: 4 Note on, G2 key =  43 ; velocity: 127
@27360 Channel: 4 Note on, G2 key =  43 ; velocity: 0
@27360 Channel: 4 Note on, E2 key =  40 ; velocity: 127
@27420 Channel: 4 Note on, E2 key =  40 ; velocity: 0
@27420 Channel: 4 Note on, D2 key =  38 ; velocity: 127
@27480 Channel: 4 Note on, D2 key =  38 ; velocity: 0
@27480 Channel: 4 Note on, B1 key =  35 ; velocity: 127
@27540 Channel: 4 Note on, B1 key =  35 ; velocity: 0
@27540 Channel: 4 Note on, D2 key =  38 ; velocity: 127
@27600 Channel: 4 Note on, D2 key =  38 ; velocity: 0
@27600 Channel: 4 Note on, B1 key =  35 ; velocity: 127
@27660 Channel: 4 Note on, B1 key =  35 ; velocity: 0
@27660 Channel: 4 Note on, A#1 key =  34 ; velocity: 127
@27720 Channel: 4 Note on, A#1 key =  34 ; velocity: 0
@27720 Channel: 4 Note on, A1 key =  33 ; velocity: 127
@27780 Channel: 4 Note on, A1 key =  33 ; velocity: 0
@27780 Channel: 4 Note on, G1 key =  31 ; velocity: 127
@27840 Channel: 4 Note on, G1 key =  31 ; velocity: 0
@27840 Channel: 4 Note on, G1 key =  31 ; velocity: 127
@27900 Channel: 4 Note on, G1 key =  31 ; velocity: 0
@27900 Channel: 4 Note on, G1 key =  31 ; velocity: 127
@27960 Channel: 4 Note on, G1 key =  31 ; velocity: 0
@27960 Channel: 4 Note on, G1 key =  31 ; velocity: 127
@28020 Channel: 4 Note on, G1 key =  31 ; velocity: 0
@28020 Channel: 4 Note on, G1 key =  31 ; velocity: 127
@28080 Channel: 4 Note on, G1 key =  31 ; velocity: 0
@28080 Channel: 4 Note on, G1 key =  31 ; velocity: 127
@28140 Channel: 4 Note on, G1 key =  31 ; velocity: 0
@28140 Channel: 4 Note on, G1 key =  31 ; velocity: 127
@28170 Channel: 4 Note on, G1 key =  31 ; velocity: 0
@28170 Channel: 4 Note on, G1 key =  31 ; velocity: 127
@28200 Channel: 4 Note on, G1 key =  31 ; velocity: 0
@28200 Channel: 4 Note on, G2 key =  43 ; velocity: 127
@28320 Channel: 4 Note on, G2 key =  43 ; velocity: 0
@28320 Channel: 4 Note on, F#1 key =  30 ; velocity: 127
@28440 Channel: 4 Note on, F#1 key =  30 ; velocity: 0
@28440 Channel: 4 Note on, F#1 key =  30 ; velocity: 127
@28560 Channel: 4 Note on, F#1 key =  30 ; velocity: 0
@28560 Channel: 4 Note on, F1 key =  29 ; velocity: 127
@28680 Channel: 4 Note on, F1 key =  29 ; velocity: 0
@28680 Channel: 4 Note on, F1 key =  29 ; velocity: 127
@28800 Channel: 4 Note on, F1 key =  29 ; velocity: 0
@28800 Channel: 4 Note on, E1 key =  28 ; velocity: 127
@28860 Channel: 4 Note on, E1 key =  28 ; velocity: 0
@28860 Channel: 4 Note on, E1 key =  28 ; velocity: 127
@28920 Channel: 4 Note on, E1 key =  28 ; velocity: 0
@28920 Channel: 4 Note on, E1 key =  28 ; velocity: 127
@28980 Channel: 4 Note on, E1 key =  28 ; velocity: 0
@28980 Channel: 4 Note on, E1 key =  28 ; velocity: 127
@29040 Channel: 4 Note on, E1 key =  28 ; velocity: 0
@29040 Channel: 4 Note on, E1 key =  28 ; velocity: 127
@29100 Channel: 4 Note on, E1 key =  28 ; velocity: 0
@29100 Channel: 4 Note on, E1 key =  28 ; velocity: 127
@29160 Channel: 4 Note on, E1 key =  28 ; velocity: 0
@29160 Channel: 4 Note on, E1 key =  28 ; velocity: 127
@29220 Channel: 4 Note on, E1 key =  28 ; velocity: 0
@29220 Channel: 4 Note on, E1 key =  28 ; velocity: 127
@29280 Channel: 4 Note on, E1 key =  28 ; velocity: 0
@29280 Channel: 4 Note on, E1 key =  28 ; velocity: 127
@29340 Channel: 4 Note on, E1 key =  28 ; velocity: 0
@29340 Channel: 4 Note on, A1 key =  33 ; velocity: 127
@29370 Channel: 4 Note on, A1 key =  33 ; velocity: 0
@29370 Channel: 4 Note on, B1 key =  35 ; velocity: 127
@29400 Channel: 4 Note on, B1 key =  35 ; velocity: 0
@29400 Channel: 4 Note on, D2 key =  38 ; velocity: 127
@29460 Channel: 4 Note on, D2 key =  38 ; velocity: 0
@29460 Channel: 4 Note on, E1 key =  28 ; velocity: 127
@29520 Channel: 4 Note on, E1 key =  28 ; velocity: 0
@29520 Channel: 4 Note on, E2 key =  40 ; velocity: 127
@29580 Channel: 4 Note on, E2 key =  40 ; velocity: 0
@29580 Channel: 4 Note on, E1 key =  28 ; velocity: 127
@29640 Channel: 4 Note on, E1 key =  28 ; velocity: 0
@29640 Channel: 4 Note on, E2 key =  40 ; velocity: 127
@29700 Channel: 4 Note on, E2 key =  40 ; velocity: 0
@29700 Channel: 4 Note on, E1 key =  28 ; velocity: 127
@29760 Channel: 4 Note on, E1 key =  28 ; velocity: 0
@29760 Channel: 4 Note on, G1 key =  31 ; velocity: 127
@29820 Channel: 4 Note on, G1 key =  31 ; velocity: 0
@29820 Channel: 4 Note on, G1 key =  31 ; velocity: 127
@29880 Channel: 4 Note on, G1 key =  31 ; velocity: 0
@29880 Channel: 4 Note on, G1 key =  31 ; velocity: 127
@29940 Channel: 4 Note on, G1 key =  31 ; velocity: 0
@29940 Channel: 4 Note on, G1 key =  31 ; velocity: 127
@30000 Channel: 4 Note on, G1 key =  31 ; velocity: 0
@30000 Channel: 4 Note on, G1 key =  31 ; velocity: 127
@30060 Channel: 4 Note on, G1 key =  31 ; velocity: 0
@30060 Channel: 4 Note on, G1 key =  31 ; velocity: 127
@30090 Channel: 4 Note on, G1 key =  31 ; velocity: 0
@30090 Channel: 4 Note on, G1 key =  31 ; velocity: 127
@30120 Channel: 4 Note on, G1 key =  31 ; velocity: 0
@30120 Channel: 4 Note on, G2 key =  43 ; velocity: 127
@30240 Channel: 4 Note on, G2 key =  43 ; velocity: 0
@30240 Channel: 4 Note on, F#1 key =  30 ; velocity: 127
@30360 Channel: 4 Note on, F#1 key =  30 ; velocity: 0
@30360 Channel: 4 Note on, F#1 key =  30 ; velocity: 127
@30480 Channel: 4 Note on, F#1 key =  30 ; velocity: 0
@30480 Channel: 4 Note on, F1 key =  29 ; velocity: 127
@30600 Channel: 4 Note on, F1 key =  29 ; velocity: 0
@30600 Channel: 4 Note on, F1 key =  29 ; velocity: 127
@30720 Channel: 4 Note on, F1 key =  29 ; velocity: 0
@30720 Channel: 4 Note on, E1 key =  28 ; velocity: 127
@30780 Channel: 4 Note on, E1 key =  28 ; velocity: 0
@30780 Channel: 4 Note on, E1 key =  28 ; velocity: 127
@30840 Channel: 4 Note on, E1 key =  28 ; velocity: 0
@30840 Channel: 4 Note on, E1 key =  28 ; velocity: 127
@30900 Channel: 4 Note on, E1 key =  28 ; velocity: 0
@30900 Channel: 4 Note on, E1 key =  28 ; velocity: 127
@30960 Channel: 4 Note on, E1 key =  28 ; velocity: 0
@30960 Channel: 4 Note on, E1 key =  28 ; velocity: 127
@31020 Channel: 4 Note on, E1 key =  28 ; velocity: 0
@31020 Channel: 4 Note on, E1 key =  28 ; velocity: 127
@31080 Channel: 4 Note on, E1 key =  28 ; velocity: 0
@31080 Channel: 4 Note on, E1 key =  28 ; velocity: 127
@31140 Channel: 4 Note on, E1 key =  28 ; velocity: 0
@31140 Channel: 4 Note on, E1 key =  28 ; velocity: 127
@31200 Channel: 4 Note on, E1 key =  28 ; velocity: 0
@31200 Channel: 4 Note on, E2 key =  40 ; velocity: 127
@31260 Channel: 4 Note on, E2 key =  40 ; velocity: 0
@31260 Channel: 4 Note on, D2 key =  38 ; velocity: 127
@31320 Channel: 4 Note on, D2 key =  38 ; velocity: 0
@31320 Channel: 4 Note on, B1 key =  35 ; velocity: 127
@31380 Channel: 4 Note on, B1 key =  35 ; velocity: 0
@31380 Channel: 4 Note on, A#1 key =  34 ; velocity: 127
@31440 Channel: 4 Note on, A#1 key =  34 ; velocity: 0
@31440 Channel: 4 Note on, A1 key =  33 ; velocity: 127
@31500 Channel: 4 Note on, A1 key =  33 ; velocity: 0
@31500 Channel: 4 Note on, B1 key =  35 ; velocity: 127
@31560 Channel: 4 Note on, B1 key =  35 ; velocity: 0
@31560 Channel: 4 Note on, A#1 key =  34 ; velocity: 127
@31620 Channel: 4 Note on, A#1 key =  34 ; velocity: 0
@31620 Channel: 4 Note on, A1 key =  33 ; velocity: 127
@31680 Channel: 4 Note on, A1 key =  33 ; velocity: 0
@31680 Channel: 4 Note on, G1 key =  31 ; velocity: 127
@31740 Channel: 4 Note on, G1 key =  31 ; velocity: 0
@31740 Channel: 4 Note on, G1 key =  31 ; velocity: 127
@31800 Channel: 4 Note on, G1 key =  31 ; velocity: 0
@31800 Channel: 4 Note on, G1 key =  31 ; velocity: 127
@31860 Channel: 4 Note on, G1 key =  31 ; velocity: 0
@31860 Channel: 4 Note on, G1 key =  31 ; velocity: 127
@31920 Channel: 4 Note on, G1 key =  31 ; velocity: 0
@31920 Channel: 4 Note on, G1 key =  31 ; velocity: 127
@31980 Channel: 4 Note on, G1 key =  31 ; velocity: 0
@31980 Channel: 4 Note on, G1 key =  31 ; velocity: 127
@32010 Channel: 4 Note on, G1 key =  31 ; velocity: 0
@32010 Channel: 4 Note on, G1 key =  31 ; velocity: 127
@32040 Channel: 4 Note on, G1 key =  31 ; velocity: 0
@32040 Channel: 4 Note on, G2 key =  43 ; velocity: 127
@32160 Channel: 4 Note on, G2 key =  43 ; velocity: 0
@32160 Channel: 4 Note on, F#1 key =  30 ; velocity: 127
@32280 Channel: 4 Note on, F#1 key =  30 ; velocity: 0
@32280 Channel: 4 Note on, F#1 key =  30 ; velocity: 127
@32400 Channel: 4 Note on, F#1 key =  30 ; velocity: 0
@32400 Channel: 4 Note on, F1 key =  29 ; velocity: 127
@32520 Channel: 4 Note on, F1 key =  29 ; velocity: 0
@32520 Channel: 4 Note on, F1 key =  29 ; velocity: 127
@32640 Channel: 4 Note on, F1 key =  29 ; velocity: 0
@32640 Channel: 4 Note on, E1 key =  28 ; velocity: 127
@32700 Channel: 4 Note on, E1 key =  28 ; velocity: 0
@32700 Channel: 4 Note on, E1 key =  28 ; velocity: 127
@32760 Channel: 4 Note on, E1 key =  28 ; velocity: 0
@32760 Channel: 4 Note on, E1 key =  28 ; velocity: 127
@32820 Channel: 4 Note on, E1 key =  28 ; velocity: 0
@32820 Channel: 4 Note on, E1 key =  28 ; velocity: 127
@32880 Channel: 4 Note on, E1 key =  28 ; velocity: 0
@32880 Channel: 4 Note on, E1 key =  28 ; velocity: 127
@32940 Channel: 4 Note on, E1 key =  28 ; velocity: 0
@32940 Channel: 4 Note on, E1 key =  28 ; velocity: 127
@33000 Channel: 4 Note on, E1 key =  28 ; velocity: 0
@33000 Channel: 4 Note on, E1 key =  28 ; velocity: 127
@33060 Channel: 4 Note on, E1 key =  28 ; velocity: 0
@33060 Channel: 4 Note on, E1 key =  28 ; velocity: 127
@33120 Channel: 4 Note on, E1 key =  28 ; velocity: 0
@33120 Channel: 4 Note on, E1 key =  28 ; velocity: 127
@33180 Channel: 4 Note on, E1 key =  28 ; velocity: 0
@33180 Channel: 4 Note on, A1 key =  33 ; velocity: 127
@33210 Channel: 4 Note on, A1 key =  33 ; velocity: 0
@33210 Channel: 4 Note on, B1 key =  35 ; velocity: 127
@33240 Channel: 4 Note on, B1 key =  35 ; velocity: 0
@33240 Channel: 4 Note on, D2 key =  38 ; velocity: 127
@33300 Channel: 4 Note on, D2 key =  38 ; velocity: 0
@33300 Channel: 4 Note on, E1 key =  28 ; velocity: 127
@33360 Channel: 4 Note on, E1 key =  28 ; velocity: 0
@33360 Channel: 4 Note on, E2 key =  40 ; velocity: 127
@33420 Channel: 4 Note on, E2 key =  40 ; velocity: 0
@33420 Channel: 4 Note on, E1 key =  28 ; velocity: 127
@33480 Channel: 4 Note on, E1 key =  28 ; velocity: 0
@33480 Channel: 4 Note on, E2 key =  40 ; velocity: 127
@33540 Channel: 4 Note on, E2 key =  40 ; velocity: 0
@33540 Channel: 4 Note on, E1 key =  28 ; velocity: 127
@33600 Channel: 4 Note on, E1 key =  28 ; velocity: 0
@33600 Channel: 4 Note on, G1 key =  31 ; velocity: 127
@33660 Channel: 4 Note on, G1 key =  31 ; velocity: 0
@33660 Channel: 4 Note on, G1 key =  31 ; velocity: 127
@33720 Channel: 4 Note on, G1 key =  31 ; velocity: 0
@33720 Channel: 4 Note on, G1 key =  31 ; velocity: 127
@33780 Channel: 4 Note on, G1 key =  31 ; velocity: 0
@33780 Channel: 4 Note on, G1 key =  31 ; velocity: 127
@33840 Channel: 4 Note on, G1 key =  31 ; velocity: 0
@33840 Channel: 4 Note on, G1 key =  31 ; velocity: 127
@33900 Channel: 4 Note on, G1 key =  31 ; velocity: 0
@33900 Channel: 4 Note on, G1 key =  31 ; velocity: 127
@33930 Channel: 4 Note on, G1 key =  31 ; velocity: 0
@33930 Channel: 4 Note on, G1 key =  31 ; velocity: 127
@33960 Channel: 4 Note on, G1 key =  31 ; velocity: 0
@33960 Channel: 4 Note on, G2 key =  43 ; velocity: 127
@34080 Channel: 4 Note on, G2 key =  43 ; velocity: 0
@34080 Channel: 4 Note on, F#1 key =  30 ; velocity: 127
@34200 Channel: 4 Note on, F#1 key =  30 ; velocity: 0
@34200 Channel: 4 Note on, F#1 key =  30 ; velocity: 127
@34320 Channel: 4 Note on, F#1 key =  30 ; velocity: 0
@34320 Channel: 4 Note on, F1 key =  29 ; velocity: 127
@34440 Channel: 4 Note on, F1 key =  29 ; velocity: 0
@34440 Channel: 4 Note on, F1 key =  29 ; velocity: 127
@34560 Channel: 4 Note on, F1 key =  29 ; velocity: 0
@34560 Channel: 4 Note on, E1 key =  28 ; velocity: 127
@34620 Channel: 4 Note on, E1 key =  28 ; velocity: 0
@34620 Channel: 4 Note on, E1 key =  28 ; velocity: 127
@34680 Channel: 4 Note on, E1 key =  28 ; velocity: 0
@34680 Channel: 4 Note on, E1 key =  28 ; velocity: 127
@34740 Channel: 4 Note on, E1 key =  28 ; velocity: 0
@34740 Channel: 4 Note on, E1 key =  28 ; velocity: 127
@34800 Channel: 4 Note on, E1 key =  28 ; velocity: 0
@34800 Channel: 4 Note on, G1 key =  31 ; velocity: 127
@34860 Channel: 4 Note on, G1 key =  31 ; velocity: 0
@34860 Channel: 4 Note on, A1 key =  33 ; velocity: 127
@34920 Channel: 4 Note on, A1 key =  33 ; velocity: 0
@34920 Channel: 4 Note on, G1 key =  31 ; velocity: 127
@34980 Channel: 4 Note on, G1 key =  31 ; velocity: 0
@34980 Channel: 4 Note on, A1 key =  33 ; velocity: 127
@35040 Channel: 4 Note on, A1 key =  33 ; velocity: 0
@35040 Channel: 4 Note on, E1 key =  28 ; velocity: 127
@35100 Channel: 4 Note on, E1 key =  28 ; velocity: 0
@35100 Channel: 4 Note on, E1 key =  28 ; velocity: 127
@35160 Channel: 4 Note on, E1 key =  28 ; velocity: 0
@35160 Channel: 4 Note on, E1 key =  28 ; velocity: 127
@35220 Channel: 4 Note on, E1 key =  28 ; velocity: 0
@35220 Channel: 4 Note on, E1 key =  28 ; velocity: 127
@35280 Channel: 4 Note on, E1 key =  28 ; velocity: 0
@35280 Channel: 4 Note on, E2 key =  40 ; velocity: 127
@35340 Channel: 4 Note on, E2 key =  40 ; velocity: 0
@35340 Channel: 4 Note on, D2 key =  38 ; velocity: 127
@35400 Channel: 4 Note on, D2 key =  38 ; velocity: 0
@35400 Channel: 4 Note on, B1 key =  35 ; velocity: 127
@35460 Channel: 4 Note on, B1 key =  35 ; velocity: 0
@35460 Channel: 4 Note on, A#1 key =  34 ; velocity: 127
@35520 Channel: 4 Note on, A#1 key =  34 ; velocity: 0
@35520 Channel: 4 Note on, E1 key =  28 ; velocity: 127
@35580 Channel: 4 Note on, E1 key =  28 ; velocity: 0
@35580 Channel: 4 Note on, E1 key =  28 ; velocity: 127
@35640 Channel: 4 Note on, E1 key =  28 ; velocity: 0
@35640 Channel: 4 Note on, E1 key =  28 ; velocity: 127
@35700 Channel: 4 Note on, E1 key =  28 ; velocity: 0
@35700 Channel: 4 Note on, E1 key =  28 ; velocity: 127
@35760 Channel: 4 Note on, E1 key =  28 ; velocity: 0
@35760 Channel: 4 Note on, G1 key =  31 ; velocity: 127
@35820 Channel: 4 Note on, G1 key =  31 ; velocity: 0
@35820 Channel: 4 Note on, A1 key =  33 ; velocity: 127
@35880 Channel: 4 Note on, A1 key =  33 ; velocity: 0
@35880 Channel: 4 Note on, G1 key =  31 ; velocity: 127
@35940 Channel: 4 Note on, G1 key =  31 ; velocity: 0
@35940 Channel: 4 Note on, A1 key =  33 ; velocity: 127
@36000 Channel: 4 Note on, A1 key =  33 ; velocity: 0
@36000 Channel: 4 Note on, E1 key =  28 ; velocity: 127
@36060 Channel: 4 Note on, E1 key =  28 ; velocity: 0
@36060 Channel: 4 Note on, G1 key =  31 ; velocity: 127
@36120 Channel: 4 Note on, G1 key =  31 ; velocity: 0
@36120 Channel: 4 Note on, A1 key =  33 ; velocity: 127
@36180 Channel: 4 Note on, A1 key =  33 ; velocity: 0
@36180 Channel: 4 Note on, A#1 key =  34 ; velocity: 127
@36240 Channel: 4 Note on, A#1 key =  34 ; velocity: 0
@36240 Channel: 4 Note on, B1 key =  35 ; velocity: 127
@36300 Channel: 4 Note on, B1 key =  35 ; velocity: 0
@36300 Channel: 4 Note on, D2 key =  38 ; velocity: 127
@36360 Channel: 4 Note on, D2 key =  38 ; velocity: 0
@36360 Channel: 4 Note on, D#2 key =  39 ; velocity: 127
@36420 Channel: 4 Note on, D#2 key =  39 ; velocity: 0
@36420 Channel: 4 Note on, E2 key =  40 ; velocity: 127
@36480 Channel: 4 Note on, E2 key =  40 ; velocity: 0
@36480 Channel: 4 Note on, E1 key =  28 ; velocity: 127
@36540 Channel: 4 Note on, E1 key =  28 ; velocity: 0
@36540 Channel: 4 Note on, E1 key =  28 ; velocity: 127
@36600 Channel: 4 Note on, E1 key =  28 ; velocity: 0
@36600 Channel: 4 Note on, E1 key =  28 ; velocity: 127
@36660 Channel: 4 Note on, E1 key =  28 ; velocity: 0
@36660 Channel: 4 Note on, E1 key =  28 ; velocity: 127
@36720 Channel: 4 Note on, E1 key =  28 ; velocity: 0
@36720 Channel: 4 Note on, G1 key =  31 ; velocity: 127
@36780 Channel: 4 Note on, G1 key =  31 ; velocity: 0
@36780 Channel: 4 Note on, A1 key =  33 ; velocity: 127
@36840 Channel: 4 Note on, A1 key =  33 ; velocity: 0
@36840 Channel: 4 Note on, G1 key =  31 ; velocity: 127
@36900 Channel: 4 Note on, G1 key =  31 ; velocity: 0
@36900 Channel: 4 Note on, A1 key =  33 ; velocity: 127
@36960 Channel: 4 Note on, A1 key =  33 ; velocity: 0
@36960 Channel: 4 Note on, E1 key =  28 ; velocity: 127
@37020 Channel: 4 Note on, E1 key =  28 ; velocity: 0
@37020 Channel: 4 Note on, E1 key =  28 ; velocity: 127
@37080 Channel: 4 Note on, E1 key =  28 ; velocity: 0
@37080 Channel: 4 Note on, E1 key =  28 ; velocity: 127
@37140 Channel: 4 Note on, E1 key =  28 ; velocity: 0
@37140 Channel: 4 Note on, E1 key =  28 ; velocity: 127
@37200 Channel: 4 Note on, E1 key =  28 ; velocity: 0
@37200 Channel: 4 Note on, E2 key =  40 ; velocity: 127
@37260 Channel: 4 Note on, E2 key =  40 ; velocity: 0
@37260 Channel: 4 Note on, D2 key =  38 ; velocity: 127
@37320 Channel: 4 Note on, D2 key =  38 ; velocity: 0
@37320 Channel: 4 Note on, B1 key =  35 ; velocity: 127
@37380 Channel: 4 Note on, B1 key =  35 ; velocity: 0
@37380 Channel: 4 Note on, A#1 key =  34 ; velocity: 127
@37440 Channel: 4 Note on, A#1 key =  34 ; velocity: 0
@37440 Channel: 4 Note on, E1 key =  28 ; velocity: 127
@37500 Channel: 4 Note on, E1 key =  28 ; velocity: 0
@37500 Channel: 4 Note on, E1 key =  28 ; velocity: 127
@37560 Channel: 4 Note on, E1 key =  28 ; velocity: 0
@37560 Channel: 4 Note on, E1 key =  28 ; velocity: 127
@37620 Channel: 4 Note on, E1 key =  28 ; velocity: 0
@37620 Channel: 4 Note on, E1 key =  28 ; velocity: 127
@37680 Channel: 4 Note on, E1 key =  28 ; velocity: 0
@37680 Channel: 4 Note on, G1 key =  31 ; velocity: 127
@37740 Channel: 4 Note on, G1 key =  31 ; velocity: 0
@37740 Channel: 4 Note on, A1 key =  33 ; velocity: 127
@37800 Channel: 4 Note on, A1 key =  33 ; velocity: 0
@37800 Channel: 4 Note on, G1 key =  31 ; velocity: 127
@37860 Channel: 4 Note on, G1 key =  31 ; velocity: 0
@37860 Channel: 4 Note on, A1 key =  33 ; velocity: 127
@37920 Channel: 4 Note on, A1 key =  33 ; velocity: 0
@37920 Channel: 4 Note on, E1 key =  28 ; velocity: 127
@37980 Channel: 4 Note on, E1 key =  28 ; velocity: 0
@37980 Channel: 4 Note on, E1 key =  28 ; velocity: 127
@38040 Channel: 4 Note on, E1 key =  28 ; velocity: 0
@38040 Channel: 4 Note on, E1 key =  28 ; velocity: 127
@38100 Channel: 4 Note on, E1 key =  28 ; velocity: 0
@38100 Channel: 4 Note on, E1 key =  28 ; velocity: 127
@38160 Channel: 4 Note on, E1 key =  28 ; velocity: 0
@38160 Channel: 4 Note on, E2 key =  40 ; velocity: 127
@38220 Channel: 4 Note on, E2 key =  40 ; velocity: 0
@38220 Channel: 4 Note on, D2 key =  38 ; velocity: 127
@38280 Channel: 4 Note on, D2 key =  38 ; velocity: 0
@38280 Channel: 4 Note on, B1 key =  35 ; velocity: 127
@38340 Channel: 4 Note on, B1 key =  35 ; velocity: 0
@38340 Channel: 4 Note on, A#1 key =  34 ; velocity: 127
@38400 Channel: 4 Note on, A#1 key =  34 ; velocity: 0
@38400 Channel: 4 Note on, E1 key =  28 ; velocity: 127
@38460 Channel: 4 Note on, E1 key =  28 ; velocity: 0
@38460 Channel: 4 Note on, E1 key =  28 ; velocity: 127
@38520 Channel: 4 Note on, E1 key =  28 ; velocity: 0
@38520 Channel: 4 Note on, E1 key =  28 ; velocity: 127
@38580 Channel: 4 Note on, E1 key =  28 ; velocity: 0
@38580 Channel: 4 Note on, E1 key =  28 ; velocity: 127
@38640 Channel: 4 Note on, E1 key =  28 ; velocity: 0
@38640 Channel: 4 Note on, E1 key =  28 ; velocity: 127
@38700 Channel: 4 Note on, E1 key =  28 ; velocity: 0
@38700 Channel: 4 Note on, E1 key =  28 ; velocity: 127
@38760 Channel: 4 Note on, E1 key =  28 ; velocity: 0
@38760 Channel: 4 Note on, E1 key =  28 ; velocity: 127
@38820 Channel: 4 Note on, E1 key =  28 ; velocity: 0
@38820 Channel: 4 Note on, E1 key =  28 ; velocity: 127
@38880 Channel: 4 Note on, E1 key =  28 ; velocity: 0
@38880 Channel: 4 Note on, E1 key =  28 ; velocity: 127
@38940 Channel: 4 Note on, E1 key =  28 ; velocity: 0
@38940 Channel: 4 Note on, E1 key =  28 ; velocity: 127
@39000 Channel: 4 Note on, E1 key =  28 ; velocity: 0
@39000 Channel: 4 Note on, E1 key =  28 ; velocity: 127
@39060 Channel: 4 Note on, E1 key =  28 ; velocity: 0
@39060 Channel: 4 Note on, E1 key =  28 ; velocity: 127
@39120 Channel: 4 Note on, E1 key =  28 ; velocity: 0
@39120 Channel: 4 Note on, B1 key =  35 ; velocity: 127
@39180 Channel: 4 Note on, B1 key =  35 ; velocity: 0
@39180 Channel: 4 Note on, A#1 key =  34 ; velocity: 127
@39240 Channel: 4 Note on, A#1 key =  34 ; velocity: 0
@39240 Channel: 4 Note on, G2 key =  43 ; velocity: 127
@39300 Channel: 4 Note on, G2 key =  43 ; velocity: 0
@39300 Channel: 4 Note on, E2 key =  40 ; velocity: 127
@39360 Channel: 4 Note on, E2 key =  40 ; velocity: 0
@39360 Channel: 4 Note on, E1 key =  28 ; velocity: 127
@39420 Channel: 4 Note on, E1 key =  28 ; velocity: 0
@39420 Channel: 4 Note on, E1 key =  28 ; velocity: 127
@39480 Channel: 4 Note on, E1 key =  28 ; velocity: 0
@39480 Channel: 4 Note on, E1 key =  28 ; velocity: 127
@39540 Channel: 4 Note on, E1 key =  28 ; velocity: 0
@39540 Channel: 4 Note on, E1 key =  28 ; velocity: 127
@39600 Channel: 4 Note on, E1 key =  28 ; velocity: 0
@39600 Channel: 4 Note on, E1 key =  28 ; velocity: 127
@39660 Channel: 4 Note on, E1 key =  28 ; velocity: 0
@39660 Channel: 4 Note on, E1 key =  28 ; velocity: 127
@39720 Channel: 4 Note on, E1 key =  28 ; velocity: 0
@39720 Channel: 4 Note on, E1 key =  28 ; velocity: 127
@39780 Channel: 4 Note on, E1 key =  28 ; velocity: 0
@39780 Channel: 4 Note on, E1 key =  28 ; velocity: 127
@39840 Channel: 4 Note on, E1 key =  28 ; velocity: 0
@39840 Channel: 4 Note on, E1 key =  28 ; velocity: 127
@39900 Channel: 4 Note on, E1 key =  28 ; velocity: 0
@39900 Channel: 4 Note on, E1 key =  28 ; velocity: 127
@39960 Channel: 4 Note on, E1 key =  28 ; velocity: 0
@39960 Channel: 4 Note on, E1 key =  28 ; velocity: 127
@40020 Channel: 4 Note on, E1 key =  28 ; velocity: 0
@40020 Channel: 4 Note on, E1 key =  28 ; velocity: 127
@40080 Channel: 4 Note on, E1 key =  28 ; velocity: 0
@40080 Channel: 4 Note on, B1 key =  35 ; velocity: 127
@40140 Channel: 4 Note on, B1 key =  35 ; velocity: 0
@40140 Channel: 4 Note on, A#1 key =  34 ; velocity: 127
@40200 Channel: 4 Note on, A#1 key =  34 ; velocity: 0
@40200 Channel: 4 Note on, G1 key =  31 ; velocity: 127
@40260 Channel: 4 Note on, G1 key =  31 ; velocity: 0
@40260 Channel: 4 Note on, E1 key =  28 ; velocity: 127
@40320 Channel: 4 Note on, E1 key =  28 ; velocity: 0
@40320 Channel: 4 Note on, E1 key =  28 ; velocity: 127
@40380 Channel: 4 Note on, E1 key =  28 ; velocity: 0
@40380 Channel: 4 Note on, E1 key =  28 ; velocity: 127
@40440 Channel: 4 Note on, E1 key =  28 ; velocity: 0
@40440 Channel: 4 Note on, E2 key =  40 ; velocity: 127
@40500 Channel: 4 Note on, E2 key =  40 ; velocity: 0
@40500 Channel: 4 Note on, E1 key =  28 ; velocity: 127
@40560 Channel: 4 Note on, E1 key =  28 ; velocity: 0
@40560 Channel: 4 Note on, E1 key =  28 ; velocity: 127
@40620 Channel: 4 Note on, E1 key =  28 ; velocity: 0
@40620 Channel: 4 Note on, E1 key =  28 ; velocity: 127
@40680 Channel: 4 Note on, E1 key =  28 ; velocity: 0
@40680 Channel: 4 Note on, E1 key =  28 ; velocity: 127
@40740 Channel: 4 Note on, E1 key =  28 ; velocity: 0
@40740 Channel: 4 Note on, E1 key =  28 ; velocity: 127
@40800 Channel: 4 Note on, E1 key =  28 ; velocity: 0
@40800 Channel: 4 Note on, E1 key =  28 ; velocity: 127
@40860 Channel: 4 Note on, E1 key =  28 ; velocity: 0
@40860 Channel: 4 Note on, E1 key =  28 ; velocity: 127
@40920 Channel: 4 Note on, E1 key =  28 ; velocity: 0
@40920 Channel: 4 Note on, E1 key =  28 ; velocity: 127
@40980 Channel: 4 Note on, E1 key =  28 ; velocity: 0
@40980 Channel: 4 Note on, E1 key =  28 ; velocity: 127
@41040 Channel: 4 Note on, E1 key =  28 ; velocity: 0
@41040 Channel: 4 Note on, B1 key =  35 ; velocity: 127
@41100 Channel: 4 Note on, B1 key =  35 ; velocity: 0
@41100 Channel: 4 Note on, A#1 key =  34 ; velocity: 127
@41160 Channel: 4 Note on, A#1 key =  34 ; velocity: 0
@41160 Channel: 4 Note on, G2 key =  43 ; velocity: 127
@41220 Channel: 4 Note on, G2 key =  43 ; velocity: 0
@41220 Channel: 4 Note on, E2 key =  40 ; velocity: 127
@41280 Channel: 4 Note on, E2 key =  40 ; velocity: 0
@41280 Channel: 4 Note on, E1 key =  28 ; velocity: 127
@41340 Channel: 4 Note on, E1 key =  28 ; velocity: 0
@41340 Channel: 4 Note on, E1 key =  28 ; velocity: 127
@41400 Channel: 4 Note on, E1 key =  28 ; velocity: 0
@41400 Channel: 4 Note on, E2 key =  40 ; velocity: 127
@41460 Channel: 4 Note on, E2 key =  40 ; velocity: 0
@41460 Channel: 4 Note on, E1 key =  28 ; velocity: 127
@41520 Channel: 4 Note on, E1 key =  28 ; velocity: 0
@41520 Channel: 4 Note on, E1 key =  28 ; velocity: 127
@41580 Channel: 4 Note on, E1 key =  28 ; velocity: 0
@41580 Channel: 4 Note on, E1 key =  28 ; velocity: 127
@41640 Channel: 4 Note on, E1 key =  28 ; velocity: 0
@41640 Channel: 4 Note on, E2 key =  40 ; velocity: 127
@41700 Channel: 4 Note on, E2 key =  40 ; velocity: 0
@41700 Channel: 4 Note on, E1 key =  28 ; velocity: 127
@41760 Channel: 4 Note on, E1 key =  28 ; velocity: 0
@41760 Channel: 4 Note on, E1 key =  28 ; velocity: 127
@41820 Channel: 4 Note on, E1 key =  28 ; velocity: 0
@41820 Channel: 4 Note on, E1 key =  28 ; velocity: 127
@41880 Channel: 4 Note on, E1 key =  28 ; velocity: 0
@41880 Channel: 4 Note on, E2 key =  40 ; velocity: 127
@41940 Channel: 4 Note on, E2 key =  40 ; velocity: 0
@41940 Channel: 4 Note on, E1 key =  28 ; velocity: 127
@42000 Channel: 4 Note on, E1 key =  28 ; velocity: 0
@42000 Channel: 4 Note on, B1 key =  35 ; velocity: 127
@42060 Channel: 4 Note on, B1 key =  35 ; velocity: 0
@42060 Channel: 4 Note on, A#1 key =  34 ; velocity: 127
@42120 Channel: 4 Note on, A#1 key =  34 ; velocity: 0
@42120 Channel: 4 Note on, G1 key =  31 ; velocity: 127
@42180 Channel: 4 Note on, G1 key =  31 ; velocity: 0
@42180 Channel: 4 Note on, E1 key =  28 ; velocity: 127
@42240 Channel: 4 Note on, E1 key =  28 ; velocity: 0
@42240 Channel: 4 Note on, C2 key =  36 ; velocity: 127
@42300 Channel: 4 Note on, C2 key =  36 ; velocity: 0
@42300 Channel: 4 Note on, A1 key =  33 ; velocity: 127
@42360 Channel: 4 Note on, A1 key =  33 ; velocity: 0
@42360 Channel: 4 Note on, A1 key =  33 ; velocity: 127
@42420 Channel: 4 Note on, A1 key =  33 ; velocity: 0
@42420 Channel: 4 Note on, A1 key =  33 ; velocity: 127
@42480 Channel: 4 Note on, A1 key =  33 ; velocity: 0
@42480 Channel: 4 Note on, C2 key =  36 ; velocity: 127
@42540 Channel: 4 Note on, C2 key =  36 ; velocity: 0
@42540 Channel: 4 Note on, D2 key =  38 ; velocity: 127
@42600 Channel: 4 Note on, D2 key =  38 ; velocity: 0
@42600 Channel: 4 Note on, C2 key =  36 ; velocity: 127
@42720 Channel: 4 Note on, C2 key =  36 ; velocity: 0
@42720 Channel: 4 Note on, C2 key =  36 ; velocity: 127
@42780 Channel: 4 Note on, C2 key =  36 ; velocity: 0
@42780 Channel: 4 Note on, A1 key =  33 ; velocity: 127
@42840 Channel: 4 Note on, A1 key =  33 ; velocity: 0
@42840 Channel: 4 Note on, A1 key =  33 ; velocity: 127
@42900 Channel: 4 Note on, A1 key =  33 ; velocity: 0
@42900 Channel: 4 Note on, E2 key =  40 ; velocity: 127
@42960 Channel: 4 Note on, E2 key =  40 ; velocity: 0
@42960 Channel: 4 Note on, G2 key =  43 ; velocity: 127
@43020 Channel: 4 Note on, G2 key =  43 ; velocity: 0
@43020 Channel: 4 Note on, E2 key =  40 ; velocity: 127
@43080 Channel: 4 Note on, E2 key =  40 ; velocity: 0
@43080 Channel: 4 Note on, A2 key =  45 ; velocity: 127
@43200 Channel: 4 Note on, A2 key =  45 ; velocity: 0
@43200 Channel: 4 Note on, A1 key =  33 ; velocity: 127
@43260 Channel: 4 Note on, A1 key =  33 ; velocity: 0
@43260 Channel: 4 Note on, A1 key =  33 ; velocity: 127
@43320 Channel: 4 Note on, A1 key =  33 ; velocity: 0
@43320 Channel: 4 Note on, A1 key =  33 ; velocity: 127
@43380 Channel: 4 Note on, A1 key =  33 ; velocity: 0
@43380 Channel: 4 Note on, A1 key =  33 ; velocity: 127
@43440 Channel: 4 Note on, A1 key =  33 ; velocity: 0
@43440 Channel: 4 Note on, C2 key =  36 ; velocity: 127
@43500 Channel: 4 Note on, C2 key =  36 ; velocity: 0
@43500 Channel: 4 Note on, D2 key =  38 ; velocity: 127
@43560 Channel: 4 Note on, D2 key =  38 ; velocity: 0
@43560 Channel: 4 Note on, C2 key =  36 ; velocity: 127
@43680 Channel: 4 Note on, C2 key =  36 ; velocity: 0
@43680 Channel: 4 Note on, D3 key =  50 ; velocity: 127
@43740 Channel: 4 Note on, D3 key =  50 ; velocity: 0
@43740 Channel: 4 Note on, C3 key =  48 ; velocity: 127
@43800 Channel: 4 Note on, C3 key =  48 ; velocity: 0
@43800 Channel: 4 Note on, A2 key =  45 ; velocity: 127
@43860 Channel: 4 Note on, A2 key =  45 ; velocity: 0
@43860 Channel: 4 Note on, G#2 key =  44 ; velocity: 127
@43920 Channel: 4 Note on, G#2 key =  44 ; velocity: 0
@43920 Channel: 4 Note on, G2 key =  43 ; velocity: 127
@43980 Channel: 4 Note on, G2 key =  43 ; velocity: 0
@43980 Channel: 4 Note on, E2 key =  40 ; velocity: 127
@44040 Channel: 4 Note on, E2 key =  40 ; velocity: 0
@44040 Channel: 4 Note on, D#2 key =  39 ; velocity: 127
@44100 Channel: 4 Note on, D#2 key =  39 ; velocity: 0
@44100 Channel: 4 Note on, D2 key =  38 ; velocity: 127
@44160 Channel: 4 Note on, D2 key =  38 ; velocity: 0
@44160 Channel: 4 Note on, C2 key =  36 ; velocity: 127
@44220 Channel: 4 Note on, C2 key =  36 ; velocity: 0
@44220 Channel: 4 Note on, A1 key =  33 ; velocity: 127
@44280 Channel: 4 Note on, A1 key =  33 ; velocity: 0
@44280 Channel: 4 Note on, A1 key =  33 ; velocity: 127
@44340 Channel: 4 Note on, A1 key =  33 ; velocity: 0
@44340 Channel: 4 Note on, A1 key =  33 ; velocity: 127
@44400 Channel: 4 Note on, A1 key =  33 ; velocity: 0
@44400 Channel: 4 Note on, C2 key =  36 ; velocity: 127
@44460 Channel: 4 Note on, C2 key =  36 ; velocity: 0
@44460 Channel: 4 Note on, D2 key =  38 ; velocity: 127
@44520 Channel: 4 Note on, D2 key =  38 ; velocity: 0
@44520 Channel: 4 Note on, C2 key =  36 ; velocity: 127
@44640 Channel: 4 Note on, C2 key =  36 ; velocity: 0
@44640 Channel: 4 Note on, C2 key =  36 ; velocity: 127
@44700 Channel: 4 Note on, C2 key =  36 ; velocity: 0
@44700 Channel: 4 Note on, A1 key =  33 ; velocity: 127
@44760 Channel: 4 Note on, A1 key =  33 ; velocity: 0
@44760 Channel: 4 Note on, A1 key =  33 ; velocity: 127
@44820 Channel: 4 Note on, A1 key =  33 ; velocity: 0
@44820 Channel: 4 Note on, E2 key =  40 ; velocity: 127
@44880 Channel: 4 Note on, E2 key =  40 ; velocity: 0
@44880 Channel: 4 Note on, G2 key =  43 ; velocity: 127
@44940 Channel: 4 Note on, G2 key =  43 ; velocity: 0
@44940 Channel: 4 Note on, E2 key =  40 ; velocity: 127
@45000 Channel: 4 Note on, E2 key =  40 ; velocity: 0
@45000 Channel: 4 Note on, A2 key =  45 ; velocity: 127
@45120 Channel: 4 Note on, A2 key =  45 ; velocity: 0
@45120 Channel: 4 Note on, A1 key =  33 ; velocity: 127
@45180 Channel: 4 Note on, A1 key =  33 ; velocity: 0
@45180 Channel: 4 Note on, A1 key =  33 ; velocity: 127
@45240 Channel: 4 Note on, A1 key =  33 ; velocity: 0
@45240 Channel: 4 Note on, A1 key =  33 ; velocity: 127
@45300 Channel: 4 Note on, A1 key =  33 ; velocity: 0
@45300 Channel: 4 Note on, A1 key =  33 ; velocity: 127
@45360 Channel: 4 Note on, A1 key =  33 ; velocity: 0
@45360 Channel: 4 Note on, C2 key =  36 ; velocity: 127
@45420 Channel: 4 Note on, C2 key =  36 ; velocity: 0
@45420 Channel: 4 Note on, D2 key =  38 ; velocity: 127
@45480 Channel: 4 Note on, D2 key =  38 ; velocity: 0
@45480 Channel: 4 Note on, C2 key =  36 ; velocity: 127
@45600 Channel: 4 Note on, C2 key =  36 ; velocity: 0
@45600 Channel: 4 Note on, E3 key =  52 ; velocity: 127
@45660 Channel: 4 Note on, E3 key =  52 ; velocity: 0
@45660 Channel: 4 Note on, D3 key =  50 ; velocity: 127
@45720 Channel: 4 Note on, D3 key =  50 ; velocity: 0
@45720 Channel: 4 Note on, B2 key =  47 ; velocity: 127
@45780 Channel: 4 Note on, B2 key =  47 ; velocity: 0
@45780 Channel: 4 Note on, D3 key =  50 ; velocity: 127
@45840 Channel: 4 Note on, D3 key =  50 ; velocity: 0
@45840 Channel: 4 Note on, B2 key =  47 ; velocity: 127
@45900 Channel: 4 Note on, B2 key =  47 ; velocity: 0
@45900 Channel: 4 Note on, A#2 key =  46 ; velocity: 127
@45960 Channel: 4 Note on, A#2 key =  46 ; velocity: 0
@45960 Channel: 4 Note on, A2 key =  45 ; velocity: 127
@46020 Channel: 4 Note on, A2 key =  45 ; velocity: 0
@46020 Channel: 4 Note on, G2 key =  43 ; velocity: 127
@46080 Channel: 4 Note on, G2 key =  43 ; velocity: 0
@46080 Channel: 4 Note on, E2 key =  40 ; velocity: 127
@46140 Channel: 4 Note on, E2 key =  40 ; velocity: 0
@46140 Channel: 4 Note on, D2 key =  38 ; velocity: 127
@46200 Channel: 4 Note on, D2 key =  38 ; velocity: 0
@46200 Channel: 4 Note on, B1 key =  35 ; velocity: 127
@46260 Channel: 4 Note on, B1 key =  35 ; velocity: 0
@46260 Channel: 4 Note on, D2 key =  38 ; velocity: 127
@46320 Channel: 4 Note on, D2 key =  38 ; velocity: 0
@46320 Channel: 4 Note on, B1 key =  35 ; velocity: 127
@46380 Channel: 4 Note on, B1 key =  35 ; velocity: 0
@46380 Channel: 4 Note on, A#1 key =  34 ; velocity: 127
@46440 Channel: 4 Note on, A#1 key =  34 ; velocity: 0
@46440 Channel: 4 Note on, A1 key =  33 ; velocity: 127
@46500 Channel: 4 Note on, A1 key =  33 ; velocity: 0
@46500 Channel: 4 Note on, G1 key =  31 ; velocity: 127
@46560 Channel: 4 Note on, G1 key =  31 ; velocity: 0
@46560 Channel: 4 Note on, G1 key =  31 ; velocity: 127
@46620 Channel: 4 Note on, G1 key =  31 ; velocity: 0
@46620 Channel: 4 Note on, G1 key =  31 ; velocity: 127
@46680 Channel: 4 Note on, G1 key =  31 ; velocity: 0
@46680 Channel: 4 Note on, G1 key =  31 ; velocity: 127
@46740 Channel: 4 Note on, G1 key =  31 ; velocity: 0
@46740 Channel: 4 Note on, G1 key =  31 ; velocity: 127
@46800 Channel: 4 Note on, G1 key =  31 ; velocity: 0
@46800 Channel: 4 Note on, G1 key =  31 ; velocity: 127
@46860 Channel: 4 Note on, G1 key =  31 ; velocity: 0
@46860 Channel: 4 Note on, G1 key =  31 ; velocity: 127
@46890 Channel: 4 Note on, G1 key =  31 ; velocity: 0
@46890 Channel: 4 Note on, G1 key =  31 ; velocity: 127
@46920 Channel: 4 Note on, G1 key =  31 ; velocity: 0
@46920 Channel: 4 Note on, G2 key =  43 ; velocity: 127
@47040 Channel: 4 Note on, G2 key =  43 ; velocity: 0
@47040 Channel: 4 Note on, F#1 key =  30 ; velocity: 127
@47160 Channel: 4 Note on, F#1 key =  30 ; velocity: 0
@47160 Channel: 4 Note on, F#1 key =  30 ; velocity: 127
@47280 Channel: 4 Note on, F#1 key =  30 ; velocity: 0
@47280 Channel: 4 Note on, F1 key =  29 ; velocity: 127
@47400 Channel: 4 Note on, F1 key =  29 ; velocity: 0
@47400 Channel: 4 Note on, F1 key =  29 ; velocity: 127
@47520 Channel: 4 Note on, F1 key =  29 ; velocity: 0
@47520 Channel: 4 Note on, E1 key =  28 ; velocity: 127
@47580 Channel: 4 Note on, E1 key =  28 ; velocity: 0
@47580 Channel: 4 Note on, E1 key =  28 ; velocity: 127
@47640 Channel: 4 Note on, E1 key =  28 ; velocity: 0
@47640 Channel: 4 Note on, E1 key =  28 ; velocity: 127
@47700 Channel: 4 Note on, E1 key =  28 ; velocity: 0
@47700 Channel: 4 Note on, E1 key =  28 ; velocity: 127
@47760 Channel: 4 Note on, E1 key =  28 ; velocity: 0
@47760 Channel: 4 Note on, E1 key =  28 ; velocity: 127
@47820 Channel: 4 Note on, E1 key =  28 ; velocity: 0
@47820 Channel: 4 Note on, E1 key =  28 ; velocity: 127
@47880 Channel: 4 Note on, E1 key =  28 ; velocity: 0
@47880 Channel: 4 Note on, E1 key =  28 ; velocity: 127
@47940 Channel: 4 Note on, E1 key =  28 ; velocity: 0
@47940 Channel: 4 Note on, E1 key =  28 ; velocity: 127
@48000 Channel: 4 Note on, E1 key =  28 ; velocity: 0
@48000 Channel: 4 Note on, E1 key =  28 ; velocity: 127
@48060 Channel: 4 Note on, E1 key =  28 ; velocity: 0
@48060 Channel: 4 Note on, A1 key =  33 ; velocity: 127
@48090 Channel: 4 Note on, A1 key =  33 ; velocity: 0
@48090 Channel: 4 Note on, B1 key =  35 ; velocity: 127
@48120 Channel: 4 Note on, B1 key =  35 ; velocity: 0
@48120 Channel: 4 Note on, D2 key =  38 ; velocity: 127
@48180 Channel: 4 Note on, D2 key =  38 ; velocity: 0
@48180 Channel: 4 Note on, E1 key =  28 ; velocity: 127
@48240 Channel: 4 Note on, E1 key =  28 ; velocity: 0
@48240 Channel: 4 Note on, E2 key =  40 ; velocity: 127
@48300 Channel: 4 Note on, E2 key =  40 ; velocity: 0
@48300 Channel: 4 Note on, E1 key =  28 ; velocity: 127
@48360 Channel: 4 Note on, E1 key =  28 ; velocity: 0
@48360 Channel: 4 Note on, E2 key =  40 ; velocity: 127
@48420 Channel: 4 Note on, E2 key =  40 ; velocity: 0
@48420 Channel: 4 Note on, E1 key =  28 ; velocity: 127
@48480 Channel: 4 Note on, E1 key =  28 ; velocity: 0
@48480 Channel: 4 Note on, G1 key =  31 ; velocity: 127
@48540 Channel: 4 Note on, G1 key =  31 ; velocity: 0
@48540 Channel: 4 Note on, G1 key =  31 ; velocity: 127
@48600 Channel: 4 Note on, G1 key =  31 ; velocity: 0
@48600 Channel: 4 Note on, G1 key =  31 ; velocity: 127
@48660 Channel: 4 Note on, G1 key =  31 ; velocity: 0
@48660 Channel: 4 Note on, G1 key =  31 ; velocity: 127
@48720 Channel: 4 Note on, G1 key =  31 ; velocity: 0
@48720 Channel: 4 Note on, G1 key =  31 ; velocity: 127
@48780 Channel: 4 Note on, G1 key =  31 ; velocity: 0
@48780 Channel: 4 Note on, G1 key =  31 ; velocity: 127
@48810 Channel: 4 Note on, G1 key =  31 ; velocity: 0
@48810 Channel: 4 Note on, G1 key =  31 ; velocity: 127
@48840 Channel: 4 Note on, G1 key =  31 ; velocity: 0
@48840 Channel: 4 Note on, G2 key =  43 ; velocity: 127
@48960 Channel: 4 Note on, G2 key =  43 ; velocity: 0
@48960 Channel: 4 Note on, F#1 key =  30 ; velocity: 127
@49080 Channel: 4 Note on, F#1 key =  30 ; velocity: 0
@49080 Channel: 4 Note on, F#1 key =  30 ; velocity: 127
@49200 Channel: 4 Note on, F#1 key =  30 ; velocity: 0
@49200 Channel: 4 Note on, F1 key =  29 ; velocity: 127
@49320 Channel: 4 Note on, F1 key =  29 ; velocity: 0
@49320 Channel: 4 Note on, F1 key =  29 ; velocity: 127
@49440 Channel: 4 Note on, F1 key =  29 ; velocity: 0
@49440 Channel: 4 Note on, E1 key =  28 ; velocity: 127
@49500 Channel: 4 Note on, E1 key =  28 ; velocity: 0
@49500 Channel: 4 Note on, E1 key =  28 ; velocity: 127
@49560 Channel: 4 Note on, E1 key =  28 ; velocity: 0
@49560 Channel: 4 Note on, E1 key =  28 ; velocity: 127
@49620 Channel: 4 Note on, E1 key =  28 ; velocity: 0
@49620 Channel: 4 Note on, E1 key =  28 ; velocity: 127
@49680 Channel: 4 Note on, E1 key =  28 ; velocity: 0
@49680 Channel: 4 Note on, E1 key =  28 ; velocity: 127
@49740 Channel: 4 Note on, E1 key =  28 ; velocity: 0
@49740 Channel: 4 Note on, E1 key =  28 ; velocity: 127
@49800 Channel: 4 Note on, E1 key =  28 ; velocity: 0
@49800 Channel: 4 Note on, E1 key =  28 ; velocity: 127
@49860 Channel: 4 Note on, E1 key =  28 ; velocity: 0
@49860 Channel: 4 Note on, E1 key =  28 ; velocity: 127
@49920 Channel: 4 Note on, E1 key =  28 ; velocity: 0
@49920 Channel: 4 Note on, E2 key =  40 ; velocity: 127
@49980 Channel: 4 Note on, E2 key =  40 ; velocity: 0
@49980 Channel: 4 Note on, D2 key =  38 ; velocity: 127
@50040 Channel: 4 Note on, D2 key =  38 ; velocity: 0
@50040 Channel: 4 Note on, B1 key =  35 ; velocity: 127
@50100 Channel: 4 Note on, B1 key =  35 ; velocity: 0
@50100 Channel: 4 Note on, A#1 key =  34 ; velocity: 127
@50160 Channel: 4 Note on, A#1 key =  34 ; velocity: 0
@50160 Channel: 4 Note on, A1 key =  33 ; velocity: 127
@50220 Channel: 4 Note on, A1 key =  33 ; velocity: 0
@50220 Channel: 4 Note on, B1 key =  35 ; velocity: 127
@50280 Channel: 4 Note on, B1 key =  35 ; velocity: 0
@50280 Channel: 4 Note on, A#1 key =  34 ; velocity: 127
@50340 Channel: 4 Note on, A#1 key =  34 ; velocity: 0
@50340 Channel: 4 Note on, A1 key =  33 ; velocity: 127
@50400 Channel: 4 Note on, A1 key =  33 ; velocity: 0
@50400 Channel: 4 Note on, G1 key =  31 ; velocity: 127
@50460 Channel: 4 Note on, G1 key =  31 ; velocity: 0
@50460 Channel: 4 Note on, G1 key =  31 ; velocity: 127
@50520 Channel: 4 Note on, G1 key =  31 ; velocity: 0
@50520 Channel: 4 Note on, G1 key =  31 ; velocity: 127
@50580 Channel: 4 Note on, G1 key =  31 ; velocity: 0
@50580 Channel: 4 Note on, G1 key =  31 ; velocity: 127
@50640 Channel: 4 Note on, G1 key =  31 ; velocity: 0
@50640 Channel: 4 Note on, G1 key =  31 ; velocity: 127
@50700 Channel: 4 Note on, G1 key =  31 ; velocity: 0
@50700 Channel: 4 Note on, G1 key =  31 ; velocity: 127
@50730 Channel: 4 Note on, G1 key =  31 ; velocity: 0
@50730 Channel: 4 Note on, G1 key =  31 ; velocity: 127
@50760 Channel: 4 Note on, G1 key =  31 ; velocity: 0
@50760 Channel: 4 Note on, G2 key =  43 ; velocity: 127
@50880 Channel: 4 Note on, G2 key =  43 ; velocity: 0
@50880 Channel: 4 Note on, F#1 key =  30 ; velocity: 127
@51000 Channel: 4 Note on, F#1 key =  30 ; velocity: 0
@51000 Channel: 4 Note on, F#1 key =  30 ; velocity: 127
@51120 Channel: 4 Note on, F#1 key =  30 ; velocity: 0
@51120 Channel: 4 Note on, F1 key =  29 ; velocity: 127
@51240 Channel: 4 Note on, F1 key =  29 ; velocity: 0
@51240 Channel: 4 Note on, F1 key =  29 ; velocity: 127
@51360 Channel: 4 Note on, F1 key =  29 ; velocity: 0
@51360 Channel: 4 Note on, E1 key =  28 ; velocity: 127
@51420 Channel: 4 Note on, E1 key =  28 ; velocity: 0
@51420 Channel: 4 Note on, E1 key =  28 ; velocity: 127
@51480 Channel: 4 Note on, E1 key =  28 ; velocity: 0
@51480 Channel: 4 Note on, E1 key =  28 ; velocity: 127
@51540 Channel: 4 Note on, E1 key =  28 ; velocity: 0
@51540 Channel: 4 Note on, E1 key =  28 ; velocity: 127
@51600 Channel: 4 Note on, E1 key =  28 ; velocity: 0
@51600 Channel: 4 Note on, E1 key =  28 ; velocity: 127
@51660 Channel: 4 Note on, E1 key =  28 ; velocity: 0
@51660 Channel: 4 Note on, E1 key =  28 ; velocity: 127
@51720 Channel: 4 Note on, E1 key =  28 ; velocity: 0
@51720 Channel: 4 Note on, E1 key =  28 ; velocity: 127
@51780 Channel: 4 Note on, E1 key =  28 ; velocity: 0
@51780 Channel: 4 Note on, E1 key =  28 ; velocity: 127
@51840 Channel: 4 Note on, E1 key =  28 ; velocity: 0
@51840 Channel: 4 Note on, E1 key =  28 ; velocity: 127
@51900 Channel: 4 Note on, E1 key =  28 ; velocity: 0
@51900 Channel: 4 Note on, A1 key =  33 ; velocity: 127
@51930 Channel: 4 Note on, A1 key =  33 ; velocity: 0
@51930 Channel: 4 Note on, B1 key =  35 ; velocity: 127
@51960 Channel: 4 Note on, B1 key =  35 ; velocity: 0
@51960 Channel: 4 Note on, D2 key =  38 ; velocity: 127
@52020 Channel: 4 Note on, D2 key =  38 ; velocity: 0
@52020 Channel: 4 Note on, E1 key =  28 ; velocity: 127
@52080 Channel: 4 Note on, E1 key =  28 ; velocity: 0
@52080 Channel: 4 Note on, E2 key =  40 ; velocity: 127
@52140 Channel: 4 Note on, E2 key =  40 ; velocity: 0
@52140 Channel: 4 Note on, E1 key =  28 ; velocity: 127
@52200 Channel: 4 Note on, E1 key =  28 ; velocity: 0
@52200 Channel: 4 Note on, E2 key =  40 ; velocity: 127
@52260 Channel: 4 Note on, E2 key =  40 ; velocity: 0
@52260 Channel: 4 Note on, E1 key =  28 ; velocity: 127
@52320 Channel: 4 Note on, E1 key =  28 ; velocity: 0
@52320 Channel: 4 Note on, G1 key =  31 ; velocity: 127
@52380 Channel: 4 Note on, G1 key =  31 ; velocity: 0
@52380 Channel: 4 Note on, G1 key =  31 ; velocity: 127
@52440 Channel: 4 Note on, G1 key =  31 ; velocity: 0
@52440 Channel: 4 Note on, G1 key =  31 ; velocity: 127
@52500 Channel: 4 Note on, G1 key =  31 ; velocity: 0
@52500 Channel: 4 Note on, G1 key =  31 ; velocity: 127
@52560 Channel: 4 Note on, G1 key =  31 ; velocity: 0
@52560 Channel: 4 Note on, G1 key =  31 ; velocity: 127
@52620 Channel: 4 Note on, G1 key =  31 ; velocity: 0
@52620 Channel: 4 Note on, G1 key =  31 ; velocity: 127
@52650 Channel: 4 Note on, G1 key =  31 ; velocity: 0
@52650 Channel: 4 Note on, G1 key =  31 ; velocity: 127
@52680 Channel: 4 Note on, G1 key =  31 ; velocity: 0
@52680 Channel: 4 Note on, G2 key =  43 ; velocity: 127
@52800 Channel: 4 Note on, G2 key =  43 ; velocity: 0
@52800 Channel: 4 Note on, F#1 key =  30 ; velocity: 127
@52920 Channel: 4 Note on, F#1 key =  30 ; velocity: 0
@52920 Channel: 4 Note on, F#1 key =  30 ; velocity: 127
@53040 Channel: 4 Note on, F#1 key =  30 ; velocity: 0
@53040 Channel: 4 Note on, F1 key =  29 ; velocity: 127
@53160 Channel: 4 Note on, F1 key =  29 ; velocity: 0
@53160 Channel: 4 Note on, F1 key =  29 ; velocity: 127
@53280 Channel: 4 Note on, F1 key =  29 ; velocity: 0
@53280 Channel: 4 Note on, E1 key =  28 ; velocity: 127
@53760 Channel: 4 Note on, E1 key =  28 ; velocity: 0
@53760 Channel: 4 Note on, E1 key =  28 ; velocity: 127
@53880 Channel: 4 Note on, E1 key =  28 ; velocity: 0
@59040 Channel: 4 Note on, C2 key =  36 ; velocity: 127
@59100 Channel: 4 Note on, C2 key =  36 ; velocity: 0
@59100 Channel: 4 Note on, B1 key =  35 ; velocity: 127
@59160 Channel: 4 Note on, B1 key =  35 ; velocity: 0
@59160 Channel: 4 Note on, A1 key =  33 ; velocity: 127
@59220 Channel: 4 Note on, A1 key =  33 ; velocity: 0
@59220 Channel: 4 Note on, F2 key =  41 ; velocity: 127
@59280 Channel: 4 Note on, F2 key =  41 ; velocity: 0
@59280 Channel: 4 Note on, E2 key =  40 ; velocity: 127
@59340 Channel: 4 Note on, E2 key =  40 ; velocity: 0
@59340 Channel: 4 Note on, D2 key =  38 ; velocity: 127
@59400 Channel: 4 Note on, D2 key =  38 ; velocity: 0
@59400 Channel: 4 Note on, C2 key =  36 ; velocity: 127
@59460 Channel: 4 Note on, C2 key =  36 ; velocity: 0
@59460 Channel: 4 Note on, A1 key =  33 ; velocity: 127
@59520 Channel: 4 Note on, A1 key =  33 ; velocity: 0
@59520 Channel: 4 Note on, G1 key =  31 ; velocity: 127
@59580 Channel: 4 Note on, G1 key =  31 ; velocity: 0
@59580 Channel: 4 Note on, A1 key =  33 ; velocity: 127
@59640 Channel: 4 Note on, A1 key =  33 ; velocity: 0
@59640 Channel: 4 Note on, A1 key =  33 ; velocity: 127
@59700 Channel: 4 Note on, A1 key =  33 ; velocity: 0
@59700 Channel: 4 Note on, A2 key =  45 ; velocity: 127
@59760 Channel: 4 Note on, A2 key =  45 ; velocity: 0
@59760 Channel: 4 Note on, A1 key =  33 ; velocity: 127
@59820 Channel: 4 Note on, A1 key =  33 ; velocity: 0
@59820 Channel: 4 Note on, A1 key =  33 ; velocity: 127
@59880 Channel: 4 Note on, A1 key =  33 ; velocity: 0
@59880 Channel: 4 Note on, A2 key =  45 ; velocity: 127
@59940 Channel: 4 Note on, A2 key =  45 ; velocity: 0
@59940 Channel: 4 Note on, A1 key =  33 ; velocity: 127
@60000 Channel: 4 Note on, A1 key =  33 ; velocity: 0
@60000 Channel: 4 Note on, A1 key =  33 ; velocity: 127
@60060 Channel: 4 Note on, A1 key =  33 ; velocity: 0
@60060 Channel: 4 Note on, A1 key =  33 ; velocity: 127
@60120 Channel: 4 Note on, A1 key =  33 ; velocity: 0
@60120 Channel: 4 Note on, A1 key =  33 ; velocity: 127
@60180 Channel: 4 Note on, A1 key =  33 ; velocity: 0
@60180 Channel: 4 Note on, A2 key =  45 ; velocity: 127
@60240 Channel: 4 Note on, A2 key =  45 ; velocity: 0
@60240 Channel: 4 Note on, A1 key =  33 ; velocity: 127
@60300 Channel: 4 Note on, A1 key =  33 ; velocity: 0
@60300 Channel: 4 Note on, A1 key =  33 ; velocity: 127
@60360 Channel: 4 Note on, A1 key =  33 ; velocity: 0
@60360 Channel: 4 Note on, A2 key =  45 ; velocity: 127
@60420 Channel: 4 Note on, A2 key =  45 ; velocity: 0
@60420 Channel: 4 Note on, A1 key =  33 ; velocity: 127
@60480 Channel: 4 Note on, A1 key =  33 ; velocity: 0
@60480 Channel: 4 Note on, A1 key =  33 ; velocity: 127
@60540 Channel: 4 Note on, A1 key =  33 ; velocity: 0
@60540 Channel: 4 Note on, A1 key =  33 ; velocity: 127
@60600 Channel: 4 Note on, A1 key =  33 ; velocity: 0
@60600 Channel: 4 Note on, A1 key =  33 ; velocity: 127
@60660 Channel: 4 Note on, A1 key =  33 ; velocity: 0
@60660 Channel: 4 Note on, A2 key =  45 ; velocity: 127
@60720 Channel: 4 Note on, A2 key =  45 ; velocity: 0
@60720 Channel: 4 Note on, A1 key =  33 ; velocity: 127
@60780 Channel: 4 Note on, A1 key =  33 ; velocity: 0
@60780 Channel: 4 Note on, A1 key =  33 ; velocity: 127
@60840 Channel: 4 Note on, A1 key =  33 ; velocity: 0
@60840 Channel: 4 Note on, A2 key =  45 ; velocity: 127
@60900 Channel: 4 Note on, A2 key =  45 ; velocity: 0
@60900 Channel: 4 Note on, A1 key =  33 ; velocity: 127
@60960 Channel: 4 Note on, A1 key =  33 ; velocity: 0
@60960 Channel: 4 Note on, C2 key =  36 ; velocity: 127
@61020 Channel: 4 Note on, C2 key =  36 ; velocity: 0
@61020 Channel: 4 Note on, B1 key =  35 ; velocity: 127
@61080 Channel: 4 Note on, B1 key =  35 ; velocity: 0
@61080 Channel: 4 Note on, A1 key =  33 ; velocity: 127
@61140 Channel: 4 Note on, A1 key =  33 ; velocity: 0
@61140 Channel: 4 Note on, F2 key =  41 ; velocity: 127
@61200 Channel: 4 Note on, F2 key =  41 ; velocity: 0
@61200 Channel: 4 Note on, E2 key =  40 ; velocity: 127
@61260 Channel: 4 Note on, E2 key =  40 ; velocity: 0
@61260 Channel: 4 Note on, D2 key =  38 ; velocity: 127
@61320 Channel: 4 Note on, D2 key =  38 ; velocity: 0
@61320 Channel: 4 Note on, C2 key =  36 ; velocity: 127
@61380 Channel: 4 Note on, C2 key =  36 ; velocity: 0
@61380 Channel: 4 Note on, A1 key =  33 ; velocity: 127
@61440 Channel: 4 Note on, A1 key =  33 ; velocity: 0
@61440 Channel: 4 Note on, G1 key =  31 ; velocity: 127
@61500 Channel: 4 Note on, G1 key =  31 ; velocity: 0
@61500 Channel: 4 Note on, A1 key =  33 ; velocity: 127
@61560 Channel: 4 Note on, A1 key =  33 ; velocity: 0
@61560 Channel: 4 Note on, A1 key =  33 ; velocity: 127
@61620 Channel: 4 Note on, A1 key =  33 ; velocity: 0
@61620 Channel: 4 Note on, A2 key =  45 ; velocity: 127
@61680 Channel: 4 Note on, A2 key =  45 ; velocity: 0
@61680 Channel: 4 Note on, A1 key =  33 ; velocity: 127
@61740 Channel: 4 Note on, A1 key =  33 ; velocity: 0
@61740 Channel: 4 Note on, A1 key =  33 ; velocity: 127
@61800 Channel: 4 Note on, A1 key =  33 ; velocity: 0
@61800 Channel: 4 Note on, A2 key =  45 ; velocity: 127
@61860 Channel: 4 Note on, A2 key =  45 ; velocity: 0
@61860 Channel: 4 Note on, A1 key =  33 ; velocity: 127
@61920 Channel: 4 Note on, A1 key =  33 ; velocity: 0
@61920 Channel: 4 Note on, A1 key =  33 ; velocity: 127
@61980 Channel: 4 Note on, A1 key =  33 ; velocity: 0
@61980 Channel: 4 Note on, A1 key =  33 ; velocity: 127
@62040 Channel: 4 Note on, A1 key =  33 ; velocity: 0
@62040 Channel: 4 Note on, A1 key =  33 ; velocity: 127
@62100 Channel: 4 Note on, A1 key =  33 ; velocity: 0
@62100 Channel: 4 Note on, A2 key =  45 ; velocity: 127
@62160 Channel: 4 Note on, A2 key =  45 ; velocity: 0
@62160 Channel: 4 Note on, A1 key =  33 ; velocity: 127
@62220 Channel: 4 Note on, A1 key =  33 ; velocity: 0
@62220 Channel: 4 Note on, A1 key =  33 ; velocity: 127
@62280 Channel: 4 Note on, A1 key =  33 ; velocity: 0
@62280 Channel: 4 Note on, A2 key =  45 ; velocity: 127
@62340 Channel: 4 Note on, A2 key =  45 ; velocity: 0
@62340 Channel: 4 Note on, A1 key =  33 ; velocity: 127
@62400 Channel: 4 Note on, A1 key =  33 ; velocity: 0
@62400 Channel: 4 Note on, A1 key =  33 ; velocity: 127
@62460 Channel: 4 Note on, A1 key =  33 ; velocity: 0
@62460 Channel: 4 Note on, A1 key =  33 ; velocity: 127
@62520 Channel: 4 Note on, A1 key =  33 ; velocity: 0
@62520 Channel: 4 Note on, A1 key =  33 ; velocity: 127
@62580 Channel: 4 Note on, A1 key =  33 ; velocity: 0
@62580 Channel: 4 Note on, A2 key =  45 ; velocity: 127
@62640 Channel: 4 Note on, A2 key =  45 ; velocity: 0
@62640 Channel: 4 Note on, A1 key =  33 ; velocity: 127
@62700 Channel: 4 Note on, A1 key =  33 ; velocity: 0
@62700 Channel: 4 Note on, A1 key =  33 ; velocity: 127
@62760 Channel: 4 Note on, A1 key =  33 ; velocity: 0
@62760 Channel: 4 Note on, A2 key =  45 ; velocity: 127
@62820 Channel: 4 Note on, A2 key =  45 ; velocity: 0
@62820 Channel: 4 Note on, A1 key =  33 ; velocity: 127
@62880 Channel: 4 Note on, A1 key =  33 ; velocity: 0
@62880 Channel: 4 Note on, C2 key =  36 ; velocity: 127
@62940 Channel: 4 Note on, C2 key =  36 ; velocity: 0
@62940 Channel: 4 Note on, B1 key =  35 ; velocity: 127
@63000 Channel: 4 Note on, B1 key =  35 ; velocity: 0
@63000 Channel: 4 Note on, A1 key =  33 ; velocity: 127
@63060 Channel: 4 Note on, A1 key =  33 ; velocity: 0
@63060 Channel: 4 Note on, F2 key =  41 ; velocity: 127
@63120 Channel: 4 Note on, F2 key =  41 ; velocity: 0
@63120 Channel: 4 Note on, E2 key =  40 ; velocity: 127
@63180 Channel: 4 Note on, E2 key =  40 ; velocity: 0
@63180 Channel: 4 Note on, D2 key =  38 ; velocity: 127
@63240 Channel: 4 Note on, D2 key =  38 ; velocity: 0
@63240 Channel: 4 Note on, C2 key =  36 ; velocity: 127
@63300 Channel: 4 Note on, C2 key =  36 ; velocity: 0
@63300 Channel: 4 Note on, A1 key =  33 ; velocity: 127
@63360 Channel: 4 Note on, A1 key =  33 ; velocity: 0
@63360 Channel: 4 Note on, G1 key =  31 ; velocity: 127
@63480 Channel: 4 Note on, G1 key =  31 ; velocity: 0
@63480 Channel: 4 Note on, G1 key =  31 ; velocity: 127
@63600 Channel: 4 Note on, G1 key =  31 ; velocity: 0
@63600 Channel: 4 Note on, G1 key =  31 ; velocity: 127
@63660 Channel: 4 Note on, G1 key =  31 ; velocity: 0
@63660 Channel: 4 Note on, G1 key =  31 ; velocity: 127
@63720 Channel: 4 Note on, G1 key =  31 ; velocity: 0
@63720 Channel: 4 Note on, G1 key =  31 ; velocity: 127
@63840 Channel: 4 Note on, G1 key =  31 ; velocity: 0
@63840 Channel: 4 Note on, F#1 key =  30 ; velocity: 127
@63960 Channel: 4 Note on, F#1 key =  30 ; velocity: 0
@63960 Channel: 4 Note on, F#1 key =  30 ; velocity: 127
@64080 Channel: 4 Note on, F#1 key =  30 ; velocity: 0
@64080 Channel: 4 Note on, F1 key =  29 ; velocity: 127
@64200 Channel: 4 Note on, F1 key =  29 ; velocity: 0
@64200 Channel: 4 Note on, F1 key =  29 ; velocity: 127
@64320 Channel: 4 Note on, F1 key =  29 ; velocity: 0
@64320 Channel: 4 Note on, E1 key =  28 ; velocity: 127
@64380 Channel: 4 Note on, E1 key =  28 ; velocity: 0
@64380 Channel: 4 Note on, E1 key =  28 ; velocity: 127
@64440 Channel: 4 Note on, E1 key =  28 ; velocity: 0
@64440 Channel: 4 Note on, E2 key =  40 ; velocity: 127
@64500 Channel: 4 Note on, E2 key =  40 ; velocity: 0
@64500 Channel: 4 Note on, E2 key =  40 ; velocity: 127
@64560 Channel: 4 Note on, E2 key =  40 ; velocity: 0
@64560 Channel: 4 Note on, E1 key =  28 ; velocity: 127
@64620 Channel: 4 Note on, E1 key =  28 ; velocity: 0
@64620 Channel: 4 Note on, E1 key =  28 ; velocity: 127
@64680 Channel: 4 Note on, E1 key =  28 ; velocity: 0
@64680 Channel: 4 Note on, E2 key =  40 ; velocity: 127
@64740 Channel: 4 Note on, E2 key =  40 ; velocity: 0
@64740 Channel: 4 Note on, E2 key =  40 ; velocity: 127
@64800 Channel: 4 Note on, E2 key =  40 ; velocity: 0
@64800 Channel: 4 Note on, E1 key =  28 ; velocity: 127
@64860 Channel: 4 Note on, E1 key =  28 ; velocity: 0
@64860 Channel: 4 Note on, E1 key =  28 ; velocity: 127
@64920 Channel: 4 Note on, E1 key =  28 ; velocity: 0
@64920 Channel: 4 Note on, E2 key =  40 ; velocity: 127
@64980 Channel: 4 Note on, E2 key =  40 ; velocity: 0
@64980 Channel: 4 Note on, E2 key =  40 ; velocity: 127
@65040 Channel: 4 Note on, E2 key =  40 ; velocity: 0
@65040 Channel: 4 Note on, E1 key =  28 ; velocity: 127
@65100 Channel: 4 Note on, E1 key =  28 ; velocity: 0
@65100 Channel: 4 Note on, E1 key =  28 ; velocity: 127
@65160 Channel: 4 Note on, E1 key =  28 ; velocity: 0
@65160 Channel: 4 Note on, E2 key =  40 ; velocity: 127
@65220 Channel: 4 Note on, E2 key =  40 ; velocity: 0
@65220 Channel: 4 Note on, E2 key =  40 ; velocity: 127
@65280 Channel: 4 Note on, E2 key =  40 ; velocity: 0
@65280 Channel: 4 Note on, G1 key =  31 ; velocity: 127
@65400 Channel: 4 Note on, G1 key =  31 ; velocity: 0
@65400 Channel: 4 Note on, G1 key =  31 ; velocity: 127
@65520 Channel: 4 Note on, G1 key =  31 ; velocity: 0
@65520 Channel: 4 Note on, G1 key =  31 ; velocity: 127
@65580 Channel: 4 Note on, G1 key =  31 ; velocity: 0
@65580 Channel: 4 Note on, G1 key =  31 ; velocity: 127
@65640 Channel: 4 Note on, G1 key =  31 ; velocity: 0
@65640 Channel: 4 Note on, G1 key =  31 ; velocity: 127
@65760 Channel: 4 Note on, G1 key =  31 ; velocity: 0
@65760 Channel: 4 Note on, F#1 key =  30 ; velocity: 127
@65880 Channel: 4 Note on, F#1 key =  30 ; velocity: 0
@65880 Channel: 4 Note on, F#1 key =  30 ; velocity: 127
@66000 Channel: 4 Note on, F#1 key =  30 ; velocity: 0
@66000 Channel: 4 Note on, F1 key =  29 ; velocity: 127
@66120 Channel: 4 Note on, F1 key =  29 ; velocity: 0
@66120 Channel: 4 Note on, F1 key =  29 ; velocity: 127
@66240 Channel: 4 Note on, F1 key =  29 ; velocity: 0
@66240 Channel: 4 Note on, E1 key =  28 ; velocity: 127
@66300 Channel: 4 Note on, E1 key =  28 ; velocity: 0
@66300 Channel: 4 Note on, E1 key =  28 ; velocity: 127
@66360 Channel: 4 Note on, E1 key =  28 ; velocity: 0
@66360 Channel: 4 Note on, E2 key =  40 ; velocity: 127
@66420 Channel: 4 Note on, E2 key =  40 ; velocity: 0
@66420 Channel: 4 Note on, E2 key =  40 ; velocity: 127
@66480 Channel: 4 Note on, E2 key =  40 ; velocity: 0
@66480 Channel: 4 Note on, E1 key =  28 ; velocity: 127
@66540 Channel: 4 Note on, E1 key =  28 ; velocity: 0
@66540 Channel: 4 Note on, E1 key =  28 ; velocity: 127
@66600 Channel: 4 Note on, E1 key =  28 ; velocity: 0
@66600 Channel: 4 Note on, E2 key =  40 ; velocity: 127
@66660 Channel: 4 Note on, E2 key =  40 ; velocity: 0
@66660 Channel: 4 Note on, E2 key =  40 ; velocity: 127
@66720 Channel: 4 Note on, E2 key =  40 ; velocity: 0
@66720 Channel: 4 Note on, E1 key =  28 ; velocity: 127
@66780 Channel: 4 Note on, E1 key =  28 ; velocity: 0
@66780 Channel: 4 Note on, E1 key =  28 ; velocity: 127
@66840 Channel: 4 Note on, E1 key =  28 ; velocity: 0
@66840 Channel: 4 Note on, E2 key =  40 ; velocity: 127
@66900 Channel: 4 Note on, E2 key =  40 ; velocity: 0
@66900 Channel: 4 Note on, E2 key =  40 ; velocity: 127
@66960 Channel: 4 Note on, E2 key =  40 ; velocity: 0
@66960 Channel: 4 Note on, E1 key =  28 ; velocity: 127
@67020 Channel: 4 Note on, E1 key =  28 ; velocity: 0
@67020 Channel: 4 Note on, E1 key =  28 ; velocity: 127
@67080 Channel: 4 Note on, E1 key =  28 ; velocity: 0
@67080 Channel: 4 Note on, E2 key =  40 ; velocity: 127
@67140 Channel: 4 Note on, E2 key =  40 ; velocity: 0
@67140 Channel: 4 Note on, E2 key =  40 ; velocity: 127
@67200 Channel: 4 Note on, E2 key =  40 ; velocity: 0
@67200 Channel: 4 Note on, G1 key =  31 ; velocity: 127
@67320 Channel: 4 Note on, G1 key =  31 ; velocity: 0
@67320 Channel: 4 Note on, G1 key =  31 ; velocity: 127
@67440 Channel: 4 Note on, G1 key =  31 ; velocity: 0
@67440 Channel: 4 Note on, G1 key =  31 ; velocity: 127
@67500 Channel: 4 Note on, G1 key =  31 ; velocity: 0
@67500 Channel: 4 Note on, G1 key =  31 ; velocity: 127
@67560 Channel: 4 Note on, G1 key =  31 ; velocity: 0
@67560 Channel: 4 Note on, G1 key =  31 ; velocity: 127
@67680 Channel: 4 Note on, G1 key =  31 ; velocity: 0
@67680 Channel: 4 Note on, F#1 key =  30 ; velocity: 127
@67800 Channel: 4 Note on, F#1 key =  30 ; velocity: 0
@67800 Channel: 4 Note on, F#1 key =  30 ; velocity: 127
@67920 Channel: 4 Note on, F#1 key =  30 ; velocity: 0
@67920 Channel: 4 Note on, F1 key =  29 ; velocity: 127
@68040 Channel: 4 Note on, F1 key =  29 ; velocity: 0
@68040 Channel: 4 Note on, F1 key =  29 ; velocity: 127
@68160 Channel: 4 Note on, F1 key =  29 ; velocity: 0
@68160 Channel: 4 Note on, E1 key =  28 ; velocity: 127
@68220 Channel: 4 Note on, E1 key =  28 ; velocity: 0
@68220 Channel: 4 Note on, E1 key =  28 ; velocity: 127
@68280 Channel: 4 Note on, E1 key =  28 ; velocity: 0
@68280 Channel: 4 Note on, E2 key =  40 ; velocity: 127
@68340 Channel: 4 Note on, E2 key =  40 ; velocity: 0
@68340 Channel: 4 Note on, E2 key =  40 ; velocity: 127
@68400 Channel: 4 Note on, E2 key =  40 ; velocity: 0
@68400 Channel: 4 Note on, E1 key =  28 ; velocity: 127
@68460 Channel: 4 Note on, E1 key =  28 ; velocity: 0
@68460 Channel: 4 Note on, E1 key =  28 ; velocity: 127
@68520 Channel: 4 Note on, E1 key =  28 ; velocity: 0
@68520 Channel: 4 Note on, E2 key =  40 ; velocity: 127
@68580 Channel: 4 Note on, E2 key =  40 ; velocity: 0
@68580 Channel: 4 Note on, E2 key =  40 ; velocity: 127
@68640 Channel: 4 Note on, E2 key =  40 ; velocity: 0
@68640 Channel: 4 Note on, E1 key =  28 ; velocity: 127
@68700 Channel: 4 Note on, E1 key =  28 ; velocity: 0
@68700 Channel: 4 Note on, E1 key =  28 ; velocity: 127
@68760 Channel: 4 Note on, E1 key =  28 ; velocity: 0
@68760 Channel: 4 Note on, E2 key =  40 ; velocity: 127
@68820 Channel: 4 Note on, E2 key =  40 ; velocity: 0
@68820 Channel: 4 Note on, E2 key =  40 ; velocity: 127
@68880 Channel: 4 Note on, E2 key =  40 ; velocity: 0
@68880 Channel: 4 Note on, E1 key =  28 ; velocity: 127
@68940 Channel: 4 Note on, E1 key =  28 ; velocity: 0
@68940 Channel: 4 Note on, E1 key =  28 ; velocity: 127
@69000 Channel: 4 Note on, E1 key =  28 ; velocity: 0
@69000 Channel: 4 Note on, E2 key =  40 ; velocity: 127
@69060 Channel: 4 Note on, E2 key =  40 ; velocity: 0
@69060 Channel: 4 Note on, E2 key =  40 ; velocity: 127
@69120 Channel: 4 Note on, E2 key =  40 ; velocity: 0
@69120 Channel: 4 Note on, G1 key =  31 ; velocity: 127
@69240 Channel: 4 Note on, G1 key =  31 ; velocity: 0
@69240 Channel: 4 Note on, G1 key =  31 ; velocity: 127
@69360 Channel: 4 Note on, G1 key =  31 ; velocity: 0
@69360 Channel: 4 Note on, G1 key =  31 ; velocity: 127
@69420 Channel: 4 Note on, G1 key =  31 ; velocity: 0
@69420 Channel: 4 Note on, G1 key =  31 ; velocity: 127
@69480 Channel: 4 Note on, G1 key =  31 ; velocity: 0
@69480 Channel: 4 Note on, G1 key =  31 ; velocity: 127
@69600 Channel: 4 Note on, G1 key =  31 ; velocity: 0
@69600 Channel: 4 Note on, F#1 key =  30 ; velocity: 127
@69720 Channel: 4 Note on, F#1 key =  30 ; velocity: 0
@69720 Channel: 4 Note on, F#1 key =  30 ; velocity: 127
@69840 Channel: 4 Note on, F#1 key =  30 ; velocity: 0
@69840 Channel: 4 Note on, F1 key =  29 ; velocity: 127
@69960 Channel: 4 Note on, F1 key =  29 ; velocity: 0
@69960 Channel: 4 Note on, F1 key =  29 ; velocity: 127
@70080 Channel: 4 Note on, F1 key =  29 ; velocity: 0
@70080 Channel: 4 Note on, D2 key =  38 ; velocity: 127
@70140 Channel: 4 Note on, D2 key =  38 ; velocity: 0
@70140 Channel: 4 Note on, E2 key =  40 ; velocity: 127
@70200 Channel: 4 Note on, E2 key =  40 ; velocity: 0
@70200 Channel: 4 Note on, E1 key =  28 ; velocity: 127
@70260 Channel: 4 Note on, E1 key =  28 ; velocity: 0
@70260 Channel: 4 Note on, E2 key =  40 ; velocity: 127
@70320 Channel: 4 Note on, E2 key =  40 ; velocity: 0
@70320 Channel: 4 Note on, E1 key =  28 ; velocity: 127
@70380 Channel: 4 Note on, E1 key =  28 ; velocity: 0
@70380 Channel: 4 Note on, E1 key =  28 ; velocity: 127
@70440 Channel: 4 Note on, E1 key =  28 ; velocity: 0
@70440 Channel: 4 Note on, E2 key =  40 ; velocity: 127
@70500 Channel: 4 Note on, E2 key =  40 ; velocity: 0
@70500 Channel: 4 Note on, E1 key =  28 ; velocity: 127
@70560 Channel: 4 Note on, E1 key =  28 ; velocity: 0
@70560 Channel: 4 Note on, D2 key =  38 ; velocity: 127
@70620 Channel: 4 Note on, D2 key =  38 ; velocity: 0
@70620 Channel: 4 Note on, E2 key =  40 ; velocity: 127
@70680 Channel: 4 Note on, E2 key =  40 ; velocity: 0
@70680 Channel: 4 Note on, E1 key =  28 ; velocity: 127
@70740 Channel: 4 Note on, E1 key =  28 ; velocity: 0
@70740 Channel: 4 Note on, E2 key =  40 ; velocity: 127
@70800 Channel: 4 Note on, E2 key =  40 ; velocity: 0
@70800 Channel: 4 Note on, E1 key =  28 ; velocity: 127
@70860 Channel: 4 Note on, E1 key =  28 ; velocity: 0
@70860 Channel: 4 Note on, E1 key =  28 ; velocity: 127
@70920 Channel: 4 Note on, E1 key =  28 ; velocity: 0
@70920 Channel: 4 Note on, E2 key =  40 ; velocity: 127
@70980 Channel: 4 Note on, E2 key =  40 ; velocity: 0
@70980 Channel: 4 Note on, E1 key =  28 ; velocity: 127
@71040 Channel: 4 Note on, E1 key =  28 ; velocity: 0
@71040 Channel: 4 Note on, C#2 key =  37 ; velocity: 127
@71100 Channel: 4 Note on, C#2 key =  37 ; velocity: 0
@71100 Channel: 4 Note on, E2 key =  40 ; velocity: 127
@71160 Channel: 4 Note on, E2 key =  40 ; velocity: 0
@71160 Channel: 4 Note on, E1 key =  28 ; velocity: 127
@71220 Channel: 4 Note on, E1 key =  28 ; velocity: 0
@71220 Channel: 4 Note on, E2 key =  40 ; velocity: 127
@71280 Channel: 4 Note on, E2 key =  40 ; velocity: 0
@71280 Channel: 4 Note on, E1 key =  28 ; velocity: 127
@71340 Channel: 4 Note on, E1 key =  28 ; velocity: 0
@71340 Channel: 4 Note on, E1 key =  28 ; velocity: 127
@71400 Channel: 4 Note on, E1 key =  28 ; velocity: 0
@71400 Channel: 4 Note on, E2 key =  40 ; velocity: 127
@71460 Channel: 4 Note on, E2 key =  40 ; velocity: 0
@71460 Channel: 4 Note on, E1 key =  28 ; velocity: 127
@71520 Channel: 4 Note on, E1 key =  28 ; velocity: 0
@71520 Channel: 4 Note on, G1 key =  31 ; velocity: 127
@71580 Channel: 4 Note on, G1 key =  31 ; velocity: 0
@71580 Channel: 4 Note on, F#1 key =  30 ; velocity: 127
@71640 Channel: 4 Note on, F#1 key =  30 ; velocity: 0
@71640 Channel: 4 Note on, E1 key =  28 ; velocity: 127
@71700 Channel: 4 Note on, E1 key =  28 ; velocity: 0
@71700 Channel: 4 Note on, C2 key =  36 ; velocity: 127
@71760 Channel: 4 Note on, C2 key =  36 ; velocity: 0
@71760 Channel: 4 Note on, B1 key =  35 ; velocity: 127
@71820 Channel: 4 Note on, B1 key =  35 ; velocity: 0
@71820 Channel: 4 Note on, A1 key =  33 ; velocity: 127
@71880 Channel: 4 Note on, A1 key =  33 ; velocity: 0
@71880 Channel: 4 Note on, G1 key =  31 ; velocity: 127
@71940 Channel: 4 Note on, G1 key =  31 ; velocity: 0
@71940 Channel: 4 Note on, E1 key =  28 ; velocity: 127
@72000 Channel: 4 Note on, E1 key =  28 ; velocity: 0
@72000 Channel: 4 Note on, D2 key =  38 ; velocity: 127
@72060 Channel: 4 Note on, D2 key =  38 ; velocity: 0
@72060 Channel: 4 Note on, E2 key =  40 ; velocity: 127
@72120 Channel: 4 Note on, E2 key =  40 ; velocity: 0
@72120 Channel: 4 Note on, E1 key =  28 ; velocity: 127
@72180 Channel: 4 Note on, E1 key =  28 ; velocity: 0
@72180 Channel: 4 Note on, E2 key =  40 ; velocity: 127
@72240 Channel: 4 Note on, E2 key =  40 ; velocity: 0
@72240 Channel: 4 Note on, E1 key =  28 ; velocity: 127
@72300 Channel: 4 Note on, E1 key =  28 ; velocity: 0
@72300 Channel: 4 Note on, E1 key =  28 ; velocity: 127
@72360 Channel: 4 Note on, E1 key =  28 ; velocity: 0
@72360 Channel: 4 Note on, E2 key =  40 ; velocity: 127
@72420 Channel: 4 Note on, E2 key =  40 ; velocity: 0
@72420 Channel: 4 Note on, E1 key =  28 ; velocity: 127
@72480 Channel: 4 Note on, E1 key =  28 ; velocity: 0
@72480 Channel: 4 Note on, D2 key =  38 ; velocity: 127
@72540 Channel: 4 Note on, D2 key =  38 ; velocity: 0
@72540 Channel: 4 Note on, E2 key =  40 ; velocity: 127
@72600 Channel: 4 Note on, E2 key =  40 ; velocity: 0
@72600 Channel: 4 Note on, E1 key =  28 ; velocity: 127
@72660 Channel: 4 Note on, E1 key =  28 ; velocity: 0
@72660 Channel: 4 Note on, E2 key =  40 ; velocity: 127
@72720 Channel: 4 Note on, E2 key =  40 ; velocity: 0
@72720 Channel: 4 Note on, E1 key =  28 ; velocity: 127
@72780 Channel: 4 Note on, E1 key =  28 ; velocity: 0
@72780 Channel: 4 Note on, E1 key =  28 ; velocity: 127
@72840 Channel: 4 Note on, E1 key =  28 ; velocity: 0
@72840 Channel: 4 Note on, E2 key =  40 ; velocity: 127
@72900 Channel: 4 Note on, E2 key =  40 ; velocity: 0
@72900 Channel: 4 Note on, E1 key =  28 ; velocity: 127
@72960 Channel: 4 Note on, E1 key =  28 ; velocity: 0
@72960 Channel: 4 Note on, C#2 key =  37 ; velocity: 127
@73020 Channel: 4 Note on, C#2 key =  37 ; velocity: 0
@73020 Channel: 4 Note on, E2 key =  40 ; velocity: 127
@73080 Channel: 4 Note on, E2 key =  40 ; velocity: 0
@73080 Channel: 4 Note on, E1 key =  28 ; velocity: 127
@73140 Channel: 4 Note on, E1 key =  28 ; velocity: 0
@73140 Channel: 4 Note on, E2 key =  40 ; velocity: 127
@73200 Channel: 4 Note on, E2 key =  40 ; velocity: 0
@73200 Channel: 4 Note on, E1 key =  28 ; velocity: 127
@73260 Channel: 4 Note on, E1 key =  28 ; velocity: 0
@73260 Channel: 4 Note on, E1 key =  28 ; velocity: 127
@73320 Channel: 4 Note on, E1 key =  28 ; velocity: 0
@73320 Channel: 4 Note on, E2 key =  40 ; velocity: 127
@73380 Channel: 4 Note on, E2 key =  40 ; velocity: 0
@73380 Channel: 4 Note on, E1 key =  28 ; velocity: 127
@73440 Channel: 4 Note on, E1 key =  28 ; velocity: 0
@73440 Channel: 4 Note on, G1 key =  31 ; velocity: 127
@73500 Channel: 4 Note on, G1 key =  31 ; velocity: 0
@73500 Channel: 4 Note on, F#1 key =  30 ; velocity: 127
@73560 Channel: 4 Note on, F#1 key =  30 ; velocity: 0
@73560 Channel: 4 Note on, E1 key =  28 ; velocity: 127
@73620 Channel: 4 Note on, E1 key =  28 ; velocity: 0
@73620 Channel: 4 Note on, C2 key =  36 ; velocity: 127
@73680 Channel: 4 Note on, C2 key =  36 ; velocity: 0
@73680 Channel: 4 Note on, B1 key =  35 ; velocity: 127
@73740 Channel: 4 Note on, B1 key =  35 ; velocity: 0
@73740 Channel: 4 Note on, A1 key =  33 ; velocity: 127
@73800 Channel: 4 Note on, A1 key =  33 ; velocity: 0
@73800 Channel: 4 Note on, G1 key =  31 ; velocity: 127
@73860 Channel: 4 Note on, G1 key =  31 ; velocity: 0
@73860 Channel: 4 Note on, E1 key =  28 ; velocity: 127
@73920 Channel: 4 Note on, E1 key =  28 ; velocity: 0
@73920 Channel: 4 Note on, D2 key =  38 ; velocity: 127
@73980 Channel: 4 Note on, D2 key =  38 ; velocity: 0
@73980 Channel: 4 Note on, E2 key =  40 ; velocity: 127
@74040 Channel: 4 Note on, E2 key =  40 ; velocity: 0
@74040 Channel: 4 Note on, E1 key =  28 ; velocity: 127
@74100 Channel: 4 Note on, E1 key =  28 ; velocity: 0
@74100 Channel: 4 Note on, E2 key =  40 ; velocity: 127
@74160 Channel: 4 Note on, E2 key =  40 ; velocity: 0
@74160 Channel: 4 Note on, E1 key =  28 ; velocity: 127
@74220 Channel: 4 Note on, E1 key =  28 ; velocity: 0
@74220 Channel: 4 Note on, E1 key =  28 ; velocity: 127
@74280 Channel: 4 Note on, E1 key =  28 ; velocity: 0
@74280 Channel: 4 Note on, E2 key =  40 ; velocity: 127
@74340 Channel: 4 Note on, E2 key =  40 ; velocity: 0
@74340 Channel: 4 Note on, E1 key =  28 ; velocity: 127
@74400 Channel: 4 Note on, E1 key =  28 ; velocity: 0
@74400 Channel: 4 Note on, D2 key =  38 ; velocity: 127
@74460 Channel: 4 Note on, D2 key =  38 ; velocity: 0
@74460 Channel: 4 Note on, E2 key =  40 ; velocity: 127
@74520 Channel: 4 Note on, E2 key =  40 ; velocity: 0
@74520 Channel: 4 Note on, E1 key =  28 ; velocity: 127
@74580 Channel: 4 Note on, E1 key =  28 ; velocity: 0
@74580 Channel: 4 Note on, E2 key =  40 ; velocity: 127
@74640 Channel: 4 Note on, E2 key =  40 ; velocity: 0
@74640 Channel: 4 Note on, E1 key =  28 ; velocity: 127
@74700 Channel: 4 Note on, E1 key =  28 ; velocity: 0
@74700 Channel: 4 Note on, E1 key =  28 ; velocity: 127
@74760 Channel: 4 Note on, E1 key =  28 ; velocity: 0
@74760 Channel: 4 Note on, E2 key =  40 ; velocity: 127
@74820 Channel: 4 Note on, E2 key =  40 ; velocity: 0
@74820 Channel: 4 Note on, E1 key =  28 ; velocity: 127
@74880 Channel: 4 Note on, E1 key =  28 ; velocity: 0
@74880 Channel: 4 Note on, C#2 key =  37 ; velocity: 127
@74940 Channel: 4 Note on, C#2 key =  37 ; velocity: 0
@74940 Channel: 4 Note on, E2 key =  40 ; velocity: 127
@75000 Channel: 4 Note on, E2 key =  40 ; velocity: 0
@75000 Channel: 4 Note on, E1 key =  28 ; velocity: 127
@75060 Channel: 4 Note on, E1 key =  28 ; velocity: 0
@75060 Channel: 4 Note on, E2 key =  40 ; velocity: 127
@75120 Channel: 4 Note on, E2 key =  40 ; velocity: 0
@75120 Channel: 4 Note on, E1 key =  28 ; velocity: 127
@75180 Channel: 4 Note on, E1 key =  28 ; velocity: 0
@75180 Channel: 4 Note on, E1 key =  28 ; velocity: 127
@75240 Channel: 4 Note on, E1 key =  28 ; velocity: 0
@75240 Channel: 4 Note on, E2 key =  40 ; velocity: 127
@75300 Channel: 4 Note on, E2 key =  40 ; velocity: 0
@75300 Channel: 4 Note on, E1 key =  28 ; velocity: 127
@75360 Channel: 4 Note on, E1 key =  28 ; velocity: 0
@75360 Channel: 4 Note on, G1 key =  31 ; velocity: 127
@75420 Channel: 4 Note on, G1 key =  31 ; velocity: 0
@75420 Channel: 4 Note on, F#1 key =  30 ; velocity: 127
@75480 Channel: 4 Note on, F#1 key =  30 ; velocity: 0
@75480 Channel: 4 Note on, E1 key =  28 ; velocity: 127
@75540 Channel: 4 Note on, E1 key =  28 ; velocity: 0
@75540 Channel: 4 Note on, C2 key =  36 ; velocity: 127
@75600 Channel: 4 Note on, C2 key =  36 ; velocity: 0
@75600 Channel: 4 Note on, B1 key =  35 ; velocity: 127
@75660 Channel: 4 Note on, B1 key =  35 ; velocity: 0
@75660 Channel: 4 Note on, A1 key =  33 ; velocity: 127
@75720 Channel: 4 Note on, A1 key =  33 ; velocity: 0
@75720 Channel: 4 Note on, G1 key =  31 ; velocity: 127
@75780 Channel: 4 Note on, G1 key =  31 ; velocity: 0
@75780 Channel: 4 Note on, E1 key =  28 ; velocity: 127
@75840 Channel: 4 Note on, E1 key =  28 ; velocity: 0
@75840 Channel: 4 Note on, D2 key =  38 ; velocity: 127
@75900 Channel: 4 Note on, D2 key =  38 ; velocity: 0
@75900 Channel: 4 Note on, E2 key =  40 ; velocity: 127
@75960 Channel: 4 Note on, E2 key =  40 ; velocity: 0
@75960 Channel: 4 Note on, E1 key =  28 ; velocity: 127
@76020 Channel: 4 Note on, E1 key =  28 ; velocity: 0
@76020 Channel: 4 Note on, E2 key =  40 ; velocity: 127
@76080 Channel: 4 Note on, E2 key =  40 ; velocity: 0
@76080 Channel: 4 Note on, E1 key =  28 ; velocity: 127
@76140 Channel: 4 Note on, E1 key =  28 ; velocity: 0
@76140 Channel: 4 Note on, E1 key =  28 ; velocity: 127
@76200 Channel: 4 Note on, E1 key =  28 ; velocity: 0
@76200 Channel: 4 Note on, E2 key =  40 ; velocity: 127
@76260 Channel: 4 Note on, E2 key =  40 ; velocity: 0
@76260 Channel: 4 Note on, E1 key =  28 ; velocity: 127
@76320 Channel: 4 Note on, E1 key =  28 ; velocity: 0
@76320 Channel: 4 Note on, D2 key =  38 ; velocity: 127
@76380 Channel: 4 Note on, D2 key =  38 ; velocity: 0
@76380 Channel: 4 Note on, E2 key =  40 ; velocity: 127
@76440 Channel: 4 Note on, E2 key =  40 ; velocity: 0
@76440 Channel: 4 Note on, E1 key =  28 ; velocity: 127
@76500 Channel: 4 Note on, E1 key =  28 ; velocity: 0
@76500 Channel: 4 Note on, E2 key =  40 ; velocity: 127
@76560 Channel: 4 Note on, E2 key =  40 ; velocity: 0
@76560 Channel: 4 Note on, E1 key =  28 ; velocity: 127
@76620 Channel: 4 Note on, E1 key =  28 ; velocity: 0
@76620 Channel: 4 Note on, E1 key =  28 ; velocity: 127
@76680 Channel: 4 Note on, E1 key =  28 ; velocity: 0
@76680 Channel: 4 Note on, E2 key =  40 ; velocity: 127
@76740 Channel: 4 Note on, E2 key =  40 ; velocity: 0
@76740 Channel: 4 Note on, E1 key =  28 ; velocity: 127
@76800 Channel: 4 Note on, E1 key =  28 ; velocity: 0
@76800 Channel: 4 Note on, C#2 key =  37 ; velocity: 127
@76860 Channel: 4 Note on, C#2 key =  37 ; velocity: 0
@76860 Channel: 4 Note on, E2 key =  40 ; velocity: 127
@76920 Channel: 4 Note on, E2 key =  40 ; velocity: 0
@76920 Channel: 4 Note on, E1 key =  28 ; velocity: 127
@76980 Channel: 4 Note on, E1 key =  28 ; velocity: 0
@76980 Channel: 4 Note on, E2 key =  40 ; velocity: 127
@77040 Channel: 4 Note on, E2 key =  40 ; velocity: 0
@77040 Channel: 4 Note on, E1 key =  28 ; velocity: 127
@77100 Channel: 4 Note on, E1 key =  28 ; velocity: 0
@77100 Channel: 4 Note on, E1 key =  28 ; velocity: 127
@77160 Channel: 4 Note on, E1 key =  28 ; velocity: 0
@77160 Channel: 4 Note on, E2 key =  40 ; velocity: 127
@77220 Channel: 4 Note on, E2 key =  40 ; velocity: 0
@77220 Channel: 4 Note on, E1 key =  28 ; velocity: 127
@77280 Channel: 4 Note on, E1 key =  28 ; velocity: 0
@77280 Channel: 4 Note on, G1 key =  31 ; velocity: 127
@77340 Channel: 4 Note on, G1 key =  31 ; velocity: 0
@77340 Channel: 4 Note on, F#1 key =  30 ; velocity: 127
@77400 Channel: 4 Note on, F#1 key =  30 ; velocity: 0
@77400 Channel: 4 Note on, E1 key =  28 ; velocity: 127
@77460 Channel: 4 Note on, E1 key =  28 ; velocity: 0
@77460 Channel: 4 Note on, C2 key =  36 ; velocity: 127
@77520 Channel: 4 Note on, C2 key =  36 ; velocity: 0
@77520 Channel: 4 Note on, B1 key =  35 ; velocity: 127
@77580 Channel: 4 Note on, B1 key =  35 ; velocity: 0
@77580 Channel: 4 Note on, A1 key =  33 ; velocity: 127
@77640 Channel: 4 Note on, A1 key =  33 ; velocity: 0
@77640 Channel: 4 Note on, G1 key =  31 ; velocity: 127
@77700 Channel: 4 Note on, G1 key =  31 ; velocity: 0
@77700 Channel: 4 Note on, F#1 key =  30 ; velocity: 127
@77760 Channel: 4 Note on, F#1 key =  30 ; velocity: 0
@77760 Channel: 4 Note on, G1 key =  31 ; velocity: 127
@77820 Channel: 4 Note on, G1 key =  31 ; velocity: 0
@77820 Channel: 4 Note on, F#1 key =  30 ; velocity: 127
@77880 Channel: 4 Note on, F#1 key =  30 ; velocity: 0
@77880 Channel: 4 Note on, E1 key =  28 ; velocity: 127
@77940 Channel: 4 Note on, E1 key =  28 ; velocity: 0
@77940 Channel: 4 Note on, C2 key =  36 ; velocity: 127
@78000 Channel: 4 Note on, C2 key =  36 ; velocity: 0
@78000 Channel: 4 Note on, B1 key =  35 ; velocity: 127
@78060 Channel: 4 Note on, B1 key =  35 ; velocity: 0
@78060 Channel: 4 Note on, A1 key =  33 ; velocity: 127
@78120 Channel: 4 Note on, A1 key =  33 ; velocity: 0
@78120 Channel: 4 Note on, G1 key =  31 ; velocity: 127
@78180 Channel: 4 Note on, G1 key =  31 ; velocity: 0
@78180 Channel: 4 Note on, F#1 key =  30 ; velocity: 127
@78240 Channel: 4 Note on, F#1 key =  30 ; velocity: 0
@78240 Channel: 4 Note on, A1 key =  33 ; velocity: 127
@78720 Channel: 4 Note on, A1 key =  33 ; velocity: 0
@78720 Channel: 4 Note on, A1 key =  33 ; velocity: 127
@78840 Channel: 4 Note on, A1 key =  33 ; velocity: 0
@79560 Channel: 4 Note on, A1 key =  33 ; velocity: 127
@79620 Channel: 4 Note on, A1 key =  33 ; velocity: 0
@79620 Channel: 4 Note on, A1 key =  33 ; velocity: 127
@79680 Channel: 4 Note on, A1 key =  33 ; velocity: 0
@79680 Channel: 4 Note on, A1 key =  33 ; velocity: 127
@79800 Channel: 4 Note on, A1 key =  33 ; velocity: 0
@80520 Channel: 4 Note on, A1 key =  33 ; velocity: 127
@80580 Channel: 4 Note on, A1 key =  33 ; velocity: 0
@80580 Channel: 4 Note on, A1 key =  33 ; velocity: 127
@80640 Channel: 4 Note on, A1 key =  33 ; velocity: 0
@80640 Channel: 4 Note on, A1 key =  33 ; velocity: 127
@80760 Channel: 4 Note on, A1 key =  33 ; velocity: 0
@81600 Channel: 4 Note on, A1 key =  33 ; velocity: 127
@81660 Channel: 4 Note on, A1 key =  33 ; velocity: 0
@81660 Channel: 4 Note on, A1 key =  33 ; velocity: 127
@81720 Channel: 4 Note on, A1 key =  33 ; velocity: 0
@81720 Channel: 4 Note on, A1 key =  33 ; velocity: 127
@81780 Channel: 4 Note on, A1 key =  33 ; velocity: 0
@81780 Channel: 4 Note on, A1 key =  33 ; velocity: 127
@81840 Channel: 4 Note on, A1 key =  33 ; velocity: 0
@81840 Channel: 4 Note on, A1 key =  33 ; velocity: 127
@81900 Channel: 4 Note on, A1 key =  33 ; velocity: 0
@81900 Channel: 4 Note on, A1 key =  33 ; velocity: 127
@81960 Channel: 4 Note on, A1 key =  33 ; velocity: 0
@81960 Channel: 4 Note on, A1 key =  33 ; velocity: 127
@82020 Channel: 4 Note on, A1 key =  33 ; velocity: 0
@82020 Channel: 4 Note on, A1 key =  33 ; velocity: 127
@82080 Channel: 4 Note on, A1 key =  33 ; velocity: 0
@82080 Channel: 4 Note on, A1 key =  33 ; velocity: 127
@82140 Channel: 4 Note on, A1 key =  33 ; velocity: 0
@82140 Channel: 4 Note on, A1 key =  33 ; velocity: 127
@82200 Channel: 4 Note on, A1 key =  33 ; velocity: 0
@82200 Channel: 4 Note on, A2 key =  45 ; velocity: 127
@82260 Channel: 4 Note on, A2 key =  45 ; velocity: 0
@82260 Channel: 4 Note on, A1 key =  33 ; velocity: 127
@82320 Channel: 4 Note on, A1 key =  33 ; velocity: 0
@82320 Channel: 4 Note on, A2 key =  45 ; velocity: 127
@82380 Channel: 4 Note on, A2 key =  45 ; velocity: 0
@82380 Channel: 4 Note on, A2 key =  45 ; velocity: 127
@82440 Channel: 4 Note on, A2 key =  45 ; velocity: 0
@82440 Channel: 4 Note on, A1 key =  33 ; velocity: 127
@82500 Channel: 4 Note on, A1 key =  33 ; velocity: 0
@82500 Channel: 4 Note on, A1 key =  33 ; velocity: 127
@82560 Channel: 4 Note on, A1 key =  33 ; velocity: 0
@82560 Channel: 4 Note on, A1 key =  33 ; velocity: 127
@82620 Channel: 4 Note on, A1 key =  33 ; velocity: 0
@82620 Channel: 4 Note on, A1 key =  33 ; velocity: 127
@82675 Channel: 4 Note on, A1 key =  33 ; velocity: 0
@82675 Channel: 4 Note on, G2 key =  43 ; velocity: 75
@82680 Channel: 4 Note on, G2 key =  43 ; velocity: 0
@82680 Channel: 4 Note on, A2 key =  45 ; velocity: 127
@82800 Channel: 4 Note on, A2 key =  45 ; velocity: 0
@82800 Channel: 4 Note on, A1 key =  33 ; velocity: 127
@82860 Channel: 4 Note on, A1 key =  33 ; velocity: 0
@82860 Channel: 4 Note on, A1 key =  33 ; velocity: 127
@82915 Channel: 4 Note on, A1 key =  33 ; velocity: 0
@82915 Channel: 4 Note on, G2 key =  43 ; velocity: 75
@82920 Channel: 4 Note on, G2 key =  43 ; velocity: 0
@82920 Channel: 4 Note on, A2 key =  45 ; velocity: 127
@82980 Channel: 4 Note on, A2 key =  45 ; velocity: 0
@82980 Channel: 4 Note on, A1 key =  33 ; velocity: 127
@83100 Channel: 4 Note on, A1 key =  33 ; velocity: 0
@83100 Channel: 4 Note on, A1 key =  33 ; velocity: 127
@83160 Channel: 4 Note on, A1 key =  33 ; velocity: 0
@83160 Channel: 4 Note on, F2 key =  41 ; velocity: 127
@83220 Channel: 4 Note on, F2 key =  41 ; velocity: 0
@83220 Channel: 4 Note on, E2 key =  40 ; velocity: 127
@83280 Channel: 4 Note on, E2 key =  40 ; velocity: 0
@83280 Channel: 4 Note on, G2 key =  43 ; velocity: 127
@83340 Channel: 4 Note on, G2 key =  43 ; velocity: 0
@83340 Channel: 4 Note on, E2 key =  40 ; velocity: 127
@83400 Channel: 4 Note on, E2 key =  40 ; velocity: 0
@83400 Channel: 4 Note on, C3 key =  48 ; velocity: 127
@83460 Channel: 4 Note on, C3 key =  48 ; velocity: 0
@83460 Channel: 4 Note on, A2 key =  45 ; velocity: 127
@83520 Channel: 4 Note on, A2 key =  45 ; velocity: 0
@83520 Channel: 4 Note on, A1 key =  33 ; velocity: 127
@83580 Channel: 4 Note on, A1 key =  33 ; velocity: 0
@83580 Channel: 4 Note on, A1 key =  33 ; velocity: 127
@83635 Channel: 4 Note on, A1 key =  33 ; velocity: 0
@83635 Channel: 4 Note on, G2 key =  43 ; velocity: 75
@83640 Channel: 4 Note on, G2 key =  43 ; velocity: 0
@83640 Channel: 4 Note on, A2 key =  45 ; velocity: 127
@83760 Channel: 4 Note on, A2 key =  45 ; velocity: 0
@83760 Channel: 4 Note on, A1 key =  33 ; velocity: 127
@83820 Channel: 4 Note on, A1 key =  33 ; velocity: 0
@83820 Channel: 4 Note on, A1 key =  33 ; velocity: 127
@83875 Channel: 4 Note on, A1 key =  33 ; velocity: 0
@83875 Channel: 4 Note on, G2 key =  43 ; velocity: 75
@83880 Channel: 4 Note on, G2 key =  43 ; velocity: 0
@83880 Channel: 4 Note on, A2 key =  45 ; velocity: 127
@83940 Channel: 4 Note on, A2 key =  45 ; velocity: 0
@83940 Channel: 4 Note on, A1 key =  33 ; velocity: 127
@84060 Channel: 4 Note on, A1 key =  33 ; velocity: 0
@84060 Channel: 4 Note on, A1 key =  33 ; velocity: 127
@84120 Channel: 4 Note on, A1 key =  33 ; velocity: 0
@84120 Channel: 4 Note on, F2 key =  41 ; velocity: 127
@84180 Channel: 4 Note on, F2 key =  41 ; velocity: 0
@84180 Channel: 4 Note on, E2 key =  40 ; velocity: 127
@84240 Channel: 4 Note on, E2 key =  40 ; velocity: 0
@84240 Channel: 4 Note on, G2 key =  43 ; velocity: 127
@84300 Channel: 4 Note on, G2 key =  43 ; velocity: 0
@84300 Channel: 4 Note on, E2 key =  40 ; velocity: 127
@84360 Channel: 4 Note on, E2 key =  40 ; velocity: 0
@84360 Channel: 4 Note on, C3 key =  48 ; velocity: 127
@84420 Channel: 4 Note on, C3 key =  48 ; velocity: 0
@84420 Channel: 4 Note on, A2 key =  45 ; velocity: 127
@84480 Channel: 4 Note on, A2 key =  45 ; velocity: 0
@84480 Channel: 4 Note on, A1 key =  33 ; velocity: 127
@84540 Channel: 4 Note on, A1 key =  33 ; velocity: 0
@84540 Channel: 4 Note on, A1 key =  33 ; velocity: 127
@84595 Channel: 4 Note on, A1 key =  33 ; velocity: 0
@84595 Channel: 4 Note on, G2 key =  43 ; velocity: 75
@84600 Channel: 4 Note on, G2 key =  43 ; velocity: 0
@84600 Channel: 4 Note on, A2 key =  45 ; velocity: 127
@84720 Channel: 4 Note on, A2 key =  45 ; velocity: 0
@84720 Channel: 4 Note on, A1 key =  33 ; velocity: 127
@84780 Channel: 4 Note on, A1 key =  33 ; velocity: 0
@84780 Channel: 4 Note on, A1 key =  33 ; velocity: 127
@84835 Channel: 4 Note on, A1 key =  33 ; velocity: 0
@84835 Channel: 4 Note on, G2 key =  43 ; velocity: 75
@84840 Channel: 4 Note on, G2 key =  43 ; velocity: 0
@84840 Channel: 4 Note on, A2 key =  45 ; velocity: 127
@84900 Channel: 4 Note on, A2 key =  45 ; velocity: 0
@84900 Channel: 4 Note on, A1 key =  33 ; velocity: 127
@85020 Channel: 4 Note on, A1 key =  33 ; velocity: 0
@85020 Channel: 4 Note on, A1 key =  33 ; velocity: 127
@85080 Channel: 4 Note on, A1 key =  33 ; velocity: 0
@85080 Channel: 4 Note on, F2 key =  41 ; velocity: 127
@85140 Channel: 4 Note on, F2 key =  41 ; velocity: 0
@85140 Channel: 4 Note on, E2 key =  40 ; velocity: 127
@85200 Channel: 4 Note on, E2 key =  40 ; velocity: 0
@85200 Channel: 4 Note on, G2 key =  43 ; velocity: 127
@85260 Channel: 4 Note on, G2 key =  43 ; velocity: 0
@85260 Channel: 4 Note on, E2 key =  40 ; velocity: 127
@85320 Channel: 4 Note on, E2 key =  40 ; velocity: 0
@85320 Channel: 4 Note on, C3 key =  48 ; velocity: 127
@85380 Channel: 4 Note on, C3 key =  48 ; velocity: 0
@85380 Channel: 4 Note on, A2 key =  45 ; velocity: 127
@85440 Channel: 4 Note on, A2 key =  45 ; velocity: 0
@85440 Channel: 4 Note on, A1 key =  33 ; velocity: 127
@85500 Channel: 4 Note on, A1 key =  33 ; velocity: 0
@85500 Channel: 4 Note on, A1 key =  33 ; velocity: 127
@85555 Channel: 4 Note on, A1 key =  33 ; velocity: 0
@85555 Channel: 4 Note on, G2 key =  43 ; velocity: 75
@85560 Channel: 4 Note on, G2 key =  43 ; velocity: 0
@85560 Channel: 4 Note on, A2 key =  45 ; velocity: 127
@85680 Channel: 4 Note on, A2 key =  45 ; velocity: 0
@85680 Channel: 4 Note on, A1 key =  33 ; velocity: 127
@85740 Channel: 4 Note on, A1 key =  33 ; velocity: 0
@85740 Channel: 4 Note on, A1 key =  33 ; velocity: 127
@85795 Channel: 4 Note on, A1 key =  33 ; velocity: 0
@85795 Channel: 4 Note on, G2 key =  43 ; velocity: 75
@85800 Channel: 4 Note on, G2 key =  43 ; velocity: 0
@85800 Channel: 4 Note on, A2 key =  45 ; velocity: 127
@85860 Channel: 4 Note on, A2 key =  45 ; velocity: 0
@85860 Channel: 4 Note on, A1 key =  33 ; velocity: 127
@85980 Channel: 4 Note on, A1 key =  33 ; velocity: 0
@85980 Channel: 4 Note on, A1 key =  33 ; velocity: 127
@86040 Channel: 4 Note on, A1 key =  33 ; velocity: 0
@86040 Channel: 4 Note on, F2 key =  41 ; velocity: 127
@86100 Channel: 4 Note on, F2 key =  41 ; velocity: 0
@86100 Channel: 4 Note on, E2 key =  40 ; velocity: 127
@86160 Channel: 4 Note on, E2 key =  40 ; velocity: 0
@86160 Channel: 4 Note on, G2 key =  43 ; velocity: 127
@86220 Channel: 4 Note on, G2 key =  43 ; velocity: 0
@86220 Channel: 4 Note on, E2 key =  40 ; velocity: 127
@86280 Channel: 4 Note on, E2 key =  40 ; velocity: 0
@86280 Channel: 4 Note on, C3 key =  48 ; velocity: 127
@86340 Channel: 4 Note on, C3 key =  48 ; velocity: 0
@86340 Channel: 4 Note on, A2 key =  45 ; velocity: 127
@86400 Channel: 4 Note on, A2 key =  45 ; velocity: 0
@86400 Channel: 4 Note on, E1 key =  28 ; velocity: 127
@86520 Channel: 4 Note on, E1 key =  28 ; velocity: 0
@86760 Channel: 4 Note on, E2 key =  40 ; velocity: 127
@86880 Channel: 4 Note on, E2 key =  40 ; velocity: 0
@86880 Channel: 4 Note on, E1 key =  28 ; velocity: 127
@86940 Channel: 4 Note on, E1 key =  28 ; velocity: 0
@86940 Channel: 4 Note on, E1 key =  28 ; velocity: 127
@87000 Channel: 4 Note on, E1 key =  28 ; velocity: 0
@87000 Channel: 4 Note on, E1 key =  28 ; velocity: 127
@87060 Channel: 4 Note on, E1 key =  28 ; velocity: 0
@87060 Channel: 4 Note on, E1 key =  28 ; velocity: 127
@87120 Channel: 4 Note on, E1 key =  28 ; velocity: 0
@87120 Channel: 4 Note on, G1 key =  31 ; velocity: 127
@87180 Channel: 4 Note on, G1 key =  31 ; velocity: 0
@87180 Channel: 4 Note on, A1 key =  33 ; velocity: 127
@87240 Channel: 4 Note on, A1 key =  33 ; velocity: 0
@87240 Channel: 4 Note on, G1 key =  31 ; velocity: 127
@87300 Channel: 4 Note on, G1 key =  31 ; velocity: 0
@87300 Channel: 4 Note on, A1 key =  33 ; velocity: 127
@87360 Channel: 4 Note on, A1 key =  33 ; velocity: 0
@87360 Channel: 4 Note on, E1 key =  28 ; velocity: 127
@87420 Channel: 4 Note on, E1 key =  28 ; velocity: 0
@87420 Channel: 4 Note on, E1 key =  28 ; velocity: 127
@87480 Channel: 4 Note on, E1 key =  28 ; velocity: 0
@87480 Channel: 4 Note on, E1 key =  28 ; velocity: 127
@87540 Channel: 4 Note on, E1 key =  28 ; velocity: 0
@87540 Channel: 4 Note on, E1 key =  28 ; velocity: 127
@87600 Channel: 4 Note on, E1 key =  28 ; velocity: 0
@87600 Channel: 4 Note on, E2 key =  40 ; velocity: 127
@87660 Channel: 4 Note on, E2 key =  40 ; velocity: 0
@87660 Channel: 4 Note on, D2 key =  38 ; velocity: 127
@87720 Channel: 4 Note on, D2 key =  38 ; velocity: 0
@87720 Channel: 4 Note on, B1 key =  35 ; velocity: 127
@87780 Channel: 4 Note on, B1 key =  35 ; velocity: 0
@87780 Channel: 4 Note on, A#1 key =  34 ; velocity: 127
@87840 Channel: 4 Note on, A#1 key =  34 ; velocity: 0
@87840 Channel: 4 Note on, E1 key =  28 ; velocity: 127
@87900 Channel: 4 Note on, E1 key =  28 ; velocity: 0
@87900 Channel: 4 Note on, E1 key =  28 ; velocity: 127
@87960 Channel: 4 Note on, E1 key =  28 ; velocity: 0
@87960 Channel: 4 Note on, E1 key =  28 ; velocity: 127
@88020 Channel: 4 Note on, E1 key =  28 ; velocity: 0
@88020 Channel: 4 Note on, E1 key =  28 ; velocity: 127
@88080 Channel: 4 Note on, E1 key =  28 ; velocity: 0
@88080 Channel: 4 Note on, G1 key =  31 ; velocity: 127
@88140 Channel: 4 Note on, G1 key =  31 ; velocity: 0
@88140 Channel: 4 Note on, A1 key =  33 ; velocity: 127
@88200 Channel: 4 Note on, A1 key =  33 ; velocity: 0
@88200 Channel: 4 Note on, G1 key =  31 ; velocity: 127
@88260 Channel: 4 Note on, G1 key =  31 ; velocity: 0
@88260 Channel: 4 Note on, A1 key =  33 ; velocity: 127
@88320 Channel: 4 Note on, A1 key =  33 ; velocity: 0
@88320 Channel: 4 Note on, E1 key =  28 ; velocity: 127
@88380 Channel: 4 Note on, E1 key =  28 ; velocity: 0
@88380 Channel: 4 Note on, G1 key =  31 ; velocity: 127
@88440 Channel: 4 Note on, G1 key =  31 ; velocity: 0
@88440 Channel: 4 Note on, A1 key =  33 ; velocity: 127
@88500 Channel: 4 Note on, A1 key =  33 ; velocity: 0
@88500 Channel: 4 Note on, A#1 key =  34 ; velocity: 127
@88560 Channel: 4 Note on, A#1 key =  34 ; velocity: 0
@88560 Channel: 4 Note on, B1 key =  35 ; velocity: 127
@88620 Channel: 4 Note on, B1 key =  35 ; velocity: 0
@88620 Channel: 4 Note on, D2 key =  38 ; velocity: 127
@88680 Channel: 4 Note on, D2 key =  38 ; velocity: 0
@88680 Channel: 4 Note on, D#2 key =  39 ; velocity: 127
@88740 Channel: 4 Note on, D#2 key =  39 ; velocity: 0
@88740 Channel: 4 Note on, E2 key =  40 ; velocity: 127
@88800 Channel: 4 Note on, E2 key =  40 ; velocity: 0
@88800 Channel: 4 Note on, E1 key =  28 ; velocity: 127
@88860 Channel: 4 Note on, E1 key =  28 ; velocity: 0
@88860 Channel: 4 Note on, E1 key =  28 ; velocity: 127
@88920 Channel: 4 Note on, E1 key =  28 ; velocity: 0
@88920 Channel: 4 Note on, E1 key =  28 ; velocity: 127
@88980 Channel: 4 Note on, E1 key =  28 ; velocity: 0
@88980 Channel: 4 Note on, E1 key =  28 ; velocity: 127
@89040 Channel: 4 Note on, E1 key =  28 ; velocity: 0
@89040 Channel: 4 Note on, G1 key =  31 ; velocity: 127
@89100 Channel: 4 Note on, G1 key =  31 ; velocity: 0
@89100 Channel: 4 Note on, A1 key =  33 ; velocity: 127
@89160 Channel: 4 Note on, A1 key =  33 ; velocity: 0
@89160 Channel: 4 Note on, G1 key =  31 ; velocity: 127
@89220 Channel: 4 Note on, G1 key =  31 ; velocity: 0
@89220 Channel: 4 Note on, A1 key =  33 ; velocity: 127
@89280 Channel: 4 Note on, A1 key =  33 ; velocity: 0
@89280 Channel: 4 Note on, E1 key =  28 ; velocity: 127
@89340 Channel: 4 Note on, E1 key =  28 ; velocity: 0
@89340 Channel: 4 Note on, E1 key =  28 ; velocity: 127
@89400 Channel: 4 Note on, E1 key =  28 ; velocity: 0
@89400 Channel: 4 Note on, E1 key =  28 ; velocity: 127
@89460 Channel: 4 Note on, E1 key =  28 ; velocity: 0
@89460 Channel: 4 Note on, E1 key =  28 ; velocity: 127
@89520 Channel: 4 Note on, E1 key =  28 ; velocity: 0
@89520 Channel: 4 Note on, E2 key =  40 ; velocity: 127
@89580 Channel: 4 Note on, E2 key =  40 ; velocity: 0
@89580 Channel: 4 Note on, D2 key =  38 ; velocity: 127
@89640 Channel: 4 Note on, D2 key =  38 ; velocity: 0
@89640 Channel: 4 Note on, B1 key =  35 ; velocity: 127
@89700 Channel: 4 Note on, B1 key =  35 ; velocity: 0
@89700 Channel: 4 Note on, A#1 key =  34 ; velocity: 127
@89760 Channel: 4 Note on, A#1 key =  34 ; velocity: 0
@89760 Channel: 4 Note on, E1 key =  28 ; velocity: 127
@89820 Channel: 4 Note on, E1 key =  28 ; velocity: 0
@89820 Channel: 4 Note on, E1 key =  28 ; velocity: 127
@89880 Channel: 4 Note on, E1 key =  28 ; velocity: 0
@89880 Channel: 4 Note on, E1 key =  28 ; velocity: 127
@89940 Channel: 4 Note on, E1 key =  28 ; velocity: 0
@89940 Channel: 4 Note on, E1 key =  28 ; velocity: 127
@90000 Channel: 4 Note on, E1 key =  28 ; velocity: 0
@90000 Channel: 4 Note on, G1 key =  31 ; velocity: 127
@90060 Channel: 4 Note on, G1 key =  31 ; velocity: 0
@90060 Channel: 4 Note on, A1 key =  33 ; velocity: 127
@90120 Channel: 4 Note on, A1 key =  33 ; velocity: 0
@90120 Channel: 4 Note on, G1 key =  31 ; velocity: 127
@90180 Channel: 4 Note on, G1 key =  31 ; velocity: 0
@90180 Channel: 4 Note on, A1 key =  33 ; velocity: 127
@90240 Channel: 4 Note on, A1 key =  33 ; velocity: 0
@90240 Channel: 4 Note on, E1 key =  28 ; velocity: 127
@90300 Channel: 4 Note on, E1 key =  28 ; velocity: 0
@90300 Channel: 4 Note on, A1 key =  33 ; velocity: 127
@90330 Channel: 4 Note on, A1 key =  33 ; velocity: 0
@90330 Channel: 4 Note on, B1 key =  35 ; velocity: 127
@90360 Channel: 4 Note on, B1 key =  35 ; velocity: 0
@90360 Channel: 4 Note on, D2 key =  38 ; velocity: 127
@90420 Channel: 4 Note on, D2 key =  38 ; velocity: 0
@90420 Channel: 4 Note on, B1 key =  35 ; velocity: 127
@90480 Channel: 4 Note on, B1 key =  35 ; velocity: 0
@90480 Channel: 4 Note on, E2 key =  40 ; velocity: 127
@90540 Channel: 4 Note on, E2 key =  40 ; velocity: 0
@90540 Channel: 4 Note on, D2 key =  38 ; velocity: 127
@90600 Channel: 4 Note on, D2 key =  38 ; velocity: 0
@90600 Channel: 4 Note on, B1 key =  35 ; velocity: 127
@90660 Channel: 4 Note on, B1 key =  35 ; velocity: 0
@90660 Channel: 4 Note on, A#1 key =  34 ; velocity: 127
@90720 Channel: 4 Note on, A#1 key =  34 ; velocity: 0
@90720 Channel: 4 Note on, E1 key =  28 ; velocity: 127
@90780 Channel: 4 Note on, E1 key =  28 ; velocity: 0
@90780 Channel: 4 Note on, E1 key =  28 ; velocity: 127
@90840 Channel: 4 Note on, E1 key =  28 ; velocity: 0
@90840 Channel: 4 Note on, E1 key =  28 ; velocity: 127
@90900 Channel: 4 Note on, E1 key =  28 ; velocity: 0
@90900 Channel: 4 Note on, E1 key =  28 ; velocity: 127
@90960 Channel: 4 Note on, E1 key =  28 ; velocity: 0
@90960 Channel: 4 Note on, E1 key =  28 ; velocity: 127
@91020 Channel: 4 Note on, E1 key =  28 ; velocity: 0
@91020 Channel: 4 Note on, E1 key =  28 ; velocity: 127
@91080 Channel: 4 Note on, E1 key =  28 ; velocity: 0
@91080 Channel: 4 Note on, E1 key =  28 ; velocity: 127
@91140 Channel: 4 Note on, E1 key =  28 ; velocity: 0
@91140 Channel: 4 Note on, E1 key =  28 ; velocity: 127
@91200 Channel: 4 Note on, E1 key =  28 ; velocity: 0
@91200 Channel: 4 Note on, E1 key =  28 ; velocity: 127
@91260 Channel: 4 Note on, E1 key =  28 ; velocity: 0
@91260 Channel: 4 Note on, E1 key =  28 ; velocity: 127
@91320 Channel: 4 Note on, E1 key =  28 ; velocity: 0
@91320 Channel: 4 Note on, E1 key =  28 ; velocity: 127
@91380 Channel: 4 Note on, E1 key =  28 ; velocity: 0
@91380 Channel: 4 Note on, E1 key =  28 ; velocity: 127
@91440 Channel: 4 Note on, E1 key =  28 ; velocity: 0
@91440 Channel: 4 Note on, B1 key =  35 ; velocity: 127
@91500 Channel: 4 Note on, B1 key =  35 ; velocity: 0
@91500 Channel: 4 Note on, A#1 key =  34 ; velocity: 127
@91560 Channel: 4 Note on, A#1 key =  34 ; velocity: 0
@91560 Channel: 4 Note on, G2 key =  43 ; velocity: 127
@91620 Channel: 4 Note on, G2 key =  43 ; velocity: 0
@91620 Channel: 4 Note on, E2 key =  40 ; velocity: 127
@91680 Channel: 4 Note on, E2 key =  40 ; velocity: 0
@91680 Channel: 4 Note on, E1 key =  28 ; velocity: 127
@91740 Channel: 4 Note on, E1 key =  28 ; velocity: 0
@91740 Channel: 4 Note on, E1 key =  28 ; velocity: 127
@91800 Channel: 4 Note on, E1 key =  28 ; velocity: 0
@91800 Channel: 4 Note on, E1 key =  28 ; velocity: 127
@91860 Channel: 4 Note on, E1 key =  28 ; velocity: 0
@91860 Channel: 4 Note on, E1 key =  28 ; velocity: 127
@91920 Channel: 4 Note on, E1 key =  28 ; velocity: 0
@91920 Channel: 4 Note on, E1 key =  28 ; velocity: 127
@91980 Channel: 4 Note on, E1 key =  28 ; velocity: 0
@91980 Channel: 4 Note on, E1 key =  28 ; velocity: 127
@92040 Channel: 4 Note on, E1 key =  28 ; velocity: 0
@92040 Channel: 4 Note on, E1 key =  28 ; velocity: 127
@92100 Channel: 4 Note on, E1 key =  28 ; velocity: 0
@92100 Channel: 4 Note on, E1 key =  28 ; velocity: 127
@92160 Channel: 4 Note on, E1 key =  28 ; velocity: 0
@92160 Channel: 4 Note on, E1 key =  28 ; velocity: 127
@92220 Channel: 4 Note on, E1 key =  28 ; velocity: 0
@92220 Channel: 4 Note on, E1 key =  28 ; velocity: 127
@92280 Channel: 4 Note on, E1 key =  28 ; velocity: 0
@92280 Channel: 4 Note on, E1 key =  28 ; velocity: 127
@92340 Channel: 4 Note on, E1 key =  28 ; velocity: 0
@92340 Channel: 4 Note on, E1 key =  28 ; velocity: 127
@92400 Channel: 4 Note on, E1 key =  28 ; velocity: 0
@92400 Channel: 4 Note on, B1 key =  35 ; velocity: 127
@92460 Channel: 4 Note on, B1 key =  35 ; velocity: 0
@92460 Channel: 4 Note on, A#1 key =  34 ; velocity: 127
@92520 Channel: 4 Note on, A#1 key =  34 ; velocity: 0
@92520 Channel: 4 Note on, G1 key =  31 ; velocity: 127
@92580 Channel: 4 Note on, G1 key =  31 ; velocity: 0
@92580 Channel: 4 Note on, E1 key =  28 ; velocity: 127
@92640 Channel: 4 Note on, E1 key =  28 ; velocity: 0
@92640 Channel: 4 Note on, E1 key =  28 ; velocity: 127
@92700 Channel: 4 Note on, E1 key =  28 ; velocity: 0
@92700 Channel: 4 Note on, E1 key =  28 ; velocity: 127
@92760 Channel: 4 Note on, E1 key =  28 ; velocity: 0
@92760 Channel: 4 Note on, E2 key =  40 ; velocity: 127
@92820 Channel: 4 Note on, E2 key =  40 ; velocity: 0
@92820 Channel: 4 Note on, E1 key =  28 ; velocity: 127
@92880 Channel: 4 Note on, E1 key =  28 ; velocity: 0
@92880 Channel: 4 Note on, E1 key =  28 ; velocity: 127
@92940 Channel: 4 Note on, E1 key =  28 ; velocity: 0
@92940 Channel: 4 Note on, E1 key =  28 ; velocity: 127
@93000 Channel: 4 Note on, E1 key =  28 ; velocity: 0
@93000 Channel: 4 Note on, E1 key =  28 ; velocity: 127
@93060 Channel: 4 Note on, E1 key =  28 ; velocity: 0
@93060 Channel: 4 Note on, E1 key =  28 ; velocity: 127
@93120 Channel: 4 Note on, E1 key =  28 ; velocity: 0
@93120 Channel: 4 Note on, E1 key =  28 ; velocity: 127
@93180 Channel: 4 Note on, E1 key =  28 ; velocity: 0
@93180 Channel: 4 Note on, E1 key =  28 ; velocity: 127
@93240 Channel: 4 Note on, E1 key =  28 ; velocity: 0
@93240 Channel: 4 Note on, E1 key =  28 ; velocity: 127
@93300 Channel: 4 Note on, E1 key =  28 ; velocity: 0
@93300 Channel: 4 Note on, E1 key =  28 ; velocity: 127
@93360 Channel: 4 Note on, E1 key =  28 ; velocity: 0
@93360 Channel: 4 Note on, B1 key =  35 ; velocity: 127
@93420 Channel: 4 Note on, B1 key =  35 ; velocity: 0
@93420 Channel: 4 Note on, A#1 key =  34 ; velocity: 127
@93480 Channel: 4 Note on, A#1 key =  34 ; velocity: 0
@93480 Channel: 4 Note on, G2 key =  43 ; velocity: 127
@93540 Channel: 4 Note on, G2 key =  43 ; velocity: 0
@93540 Channel: 4 Note on, E2 key =  40 ; velocity: 127
@93600 Channel: 4 Note on, E2 key =  40 ; velocity: 0
@93600 Channel: 4 Note on, E1 key =  28 ; velocity: 127
@93660 Channel: 4 Note on, E1 key =  28 ; velocity: 0
@93660 Channel: 4 Note on, E1 key =  28 ; velocity: 127
@93720 Channel: 4 Note on, E1 key =  28 ; velocity: 0
@93720 Channel: 4 Note on, E2 key =  40 ; velocity: 127
@93780 Channel: 4 Note on, E2 key =  40 ; velocity: 0
@93780 Channel: 4 Note on, E1 key =  28 ; velocity: 127
@93840 Channel: 4 Note on, E1 key =  28 ; velocity: 0
@93840 Channel: 4 Note on, E1 key =  28 ; velocity: 127
@93900 Channel: 4 Note on, E1 key =  28 ; velocity: 0
@93900 Channel: 4 Note on, E1 key =  28 ; velocity: 127
@93960 Channel: 4 Note on, E1 key =  28 ; velocity: 0
@93960 Channel: 4 Note on, E2 key =  40 ; velocity: 127
@94020 Channel: 4 Note on, E2 key =  40 ; velocity: 0
@94020 Channel: 4 Note on, E1 key =  28 ; velocity: 127
@94080 Channel: 4 Note on, E1 key =  28 ; velocity: 0
@94080 Channel: 4 Note on, E1 key =  28 ; velocity: 127
@94140 Channel: 4 Note on, E1 key =  28 ; velocity: 0
@94140 Channel: 4 Note on, E1 key =  28 ; velocity: 127
@94200 Channel: 4 Note on, E1 key =  28 ; velocity: 0
@94200 Channel: 4 Note on, E2 key =  40 ; velocity: 127
@94260 Channel: 4 Note on, E2 key =  40 ; velocity: 0
@94260 Channel: 4 Note on, E1 key =  28 ; velocity: 127
@94320 Channel: 4 Note on, E1 key =  28 ; velocity: 0
@94320 Channel: 4 Note on, B1 key =  35 ; velocity: 127
@94380 Channel: 4 Note on, B1 key =  35 ; velocity: 0
@94380 Channel: 4 Note on, A#1 key =  34 ; velocity: 127
@94440 Channel: 4 Note on, A#1 key =  34 ; velocity: 0
@94440 Channel: 4 Note on, G1 key =  31 ; velocity: 127
@94500 Channel: 4 Note on, G1 key =  31 ; velocity: 0
@94500 Channel: 4 Note on, E1 key =  28 ; velocity: 127
@94560 Channel: 4 Note on, E1 key =  28 ; velocity: 0
@94560 Channel: 4 Note on, C2 key =  36 ; velocity: 127
@94620 Channel: 4 Note on, C2 key =  36 ; velocity: 0
@94620 Channel: 4 Note on, A1 key =  33 ; velocity: 127
@94680 Channel: 4 Note on, A1 key =  33 ; velocity: 0
@94680 Channel: 4 Note on, A1 key =  33 ; velocity: 127
@94740 Channel: 4 Note on, A1 key =  33 ; velocity: 0
@94740 Channel: 4 Note on, A1 key =  33 ; velocity: 127
@94800 Channel: 4 Note on, A1 key =  33 ; velocity: 0
@94800 Channel: 4 Note on, C2 key =  36 ; velocity: 127
@94860 Channel: 4 Note on, C2 key =  36 ; velocity: 0
@94860 Channel: 4 Note on, D2 key =  38 ; velocity: 127
@94920 Channel: 4 Note on, D2 key =  38 ; velocity: 0
@94920 Channel: 4 Note on, C2 key =  36 ; velocity: 127
@95040 Channel: 4 Note on, C2 key =  36 ; velocity: 0
@95040 Channel: 4 Note on, C2 key =  36 ; velocity: 127
@95100 Channel: 4 Note on, C2 key =  36 ; velocity: 0
@95100 Channel: 4 Note on, A1 key =  33 ; velocity: 127
@95160 Channel: 4 Note on, A1 key =  33 ; velocity: 0
@95160 Channel: 4 Note on, A1 key =  33 ; velocity: 127
@95220 Channel: 4 Note on, A1 key =  33 ; velocity: 0
@95220 Channel: 4 Note on, E2 key =  40 ; velocity: 127
@95280 Channel: 4 Note on, E2 key =  40 ; velocity: 0
@95280 Channel: 4 Note on, G2 key =  43 ; velocity: 127
@95340 Channel: 4 Note on, G2 key =  43 ; velocity: 0
@95340 Channel: 4 Note on, E2 key =  40 ; velocity: 127
@95400 Channel: 4 Note on, E2 key =  40 ; velocity: 0
@95400 Channel: 4 Note on, A2 key =  45 ; velocity: 127
@95520 Channel: 4 Note on, A2 key =  45 ; velocity: 0
@95520 Channel: 4 Note on, A1 key =  33 ; velocity: 127
@95580 Channel: 4 Note on, A1 key =  33 ; velocity: 0
@95580 Channel: 4 Note on, A1 key =  33 ; velocity: 127
@95640 Channel: 4 Note on, A1 key =  33 ; velocity: 0
@95640 Channel: 4 Note on, A1 key =  33 ; velocity: 127
@95700 Channel: 4 Note on, A1 key =  33 ; velocity: 0
@95700 Channel: 4 Note on, A1 key =  33 ; velocity: 127
@95760 Channel: 4 Note on, A1 key =  33 ; velocity: 0
@95760 Channel: 4 Note on, C2 key =  36 ; velocity: 127
@95820 Channel: 4 Note on, C2 key =  36 ; velocity: 0
@95820 Channel: 4 Note on, D2 key =  38 ; velocity: 127
@95880 Channel: 4 Note on, D2 key =  38 ; velocity: 0
@95880 Channel: 4 Note on, C2 key =  36 ; velocity: 127
@96000 Channel: 4 Note on, C2 key =  36 ; velocity: 0
@96000 Channel: 4 Note on, D3 key =  50 ; velocity: 127
@96060 Channel: 4 Note on, D3 key =  50 ; velocity: 0
@96060 Channel: 4 Note on, C3 key =  48 ; velocity: 127
@96120 Channel: 4 Note on, C3 key =  48 ; velocity: 0
@96120 Channel: 4 Note on, A2 key =  45 ; velocity: 127
@96180 Channel: 4 Note on, A2 key =  45 ; velocity: 0
@96180 Channel: 4 Note on, G#2 key =  44 ; velocity: 127
@96240 Channel: 4 Note on, G#2 key =  44 ; velocity: 0
@96240 Channel: 4 Note on, G2 key =  43 ; velocity: 127
@96300 Channel: 4 Note on, G2 key =  43 ; velocity: 0
@96300 Channel: 4 Note on, E2 key =  40 ; velocity: 127
@96360 Channel: 4 Note on, E2 key =  40 ; velocity: 0
@96360 Channel: 4 Note on, D#2 key =  39 ; velocity: 127
@96420 Channel: 4 Note on, D#2 key =  39 ; velocity: 0
@96420 Channel: 4 Note on, D2 key =  38 ; velocity: 127
@96480 Channel: 4 Note on, D2 key =  38 ; velocity: 0
@96480 Channel: 4 Note on, C2 key =  36 ; velocity: 127
@96540 Channel: 4 Note on, C2 key =  36 ; velocity: 0
@96540 Channel: 4 Note on, A1 key =  33 ; velocity: 127
@96600 Channel: 4 Note on, A1 key =  33 ; velocity: 0
@96600 Channel: 4 Note on, A1 key =  33 ; velocity: 127
@96660 Channel: 4 Note on, A1 key =  33 ; velocity: 0
@96660 Channel: 4 Note on, A1 key =  33 ; velocity: 127
@96720 Channel: 4 Note on, A1 key =  33 ; velocity: 0
@96720 Channel: 4 Note on, C2 key =  36 ; velocity: 127
@96780 Channel: 4 Note on, C2 key =  36 ; velocity: 0
@96780 Channel: 4 Note on, D2 key =  38 ; velocity: 127
@96840 Channel: 4 Note on, D2 key =  38 ; velocity: 0
@96840 Channel: 4 Note on, C2 key =  36 ; velocity: 127
@96960 Channel: 4 Note on, C2 key =  36 ; velocity: 0
@96960 Channel: 4 Note on, C2 key =  36 ; velocity: 127
@97020 Channel: 4 Note on, C2 key =  36 ; velocity: 0
@97020 Channel: 4 Note on, A1 key =  33 ; velocity: 127
@97080 Channel: 4 Note on, A1 key =  33 ; velocity: 0
@97080 Channel: 4 Note on, A1 key =  33 ; velocity: 127
@97140 Channel: 4 Note on, A1 key =  33 ; velocity: 0
@97140 Channel: 4 Note on, E2 key =  40 ; velocity: 127
@97200 Channel: 4 Note on, E2 key =  40 ; velocity: 0
@97200 Channel: 4 Note on, G2 key =  43 ; velocity: 127
@97260 Channel: 4 Note on, G2 key =  43 ; velocity: 0
@97260 Channel: 4 Note on, E2 key =  40 ; velocity: 127
@97320 Channel: 4 Note on, E2 key =  40 ; velocity: 0
@97320 Channel: 4 Note on, A2 key =  45 ; velocity: 127
@97440 Channel: 4 Note on, A2 key =  45 ; velocity: 0
@97440 Channel: 4 Note on, A1 key =  33 ; velocity: 127
@97500 Channel: 4 Note on, A1 key =  33 ; velocity: 0
@97500 Channel: 4 Note on, A1 key =  33 ; velocity: 127
@97560 Channel: 4 Note on, A1 key =  33 ; velocity: 0
@97560 Channel: 4 Note on, A1 key =  33 ; velocity: 127
@97620 Channel: 4 Note on, A1 key =  33 ; velocity: 0
@97620 Channel: 4 Note on, A1 key =  33 ; velocity: 127
@97680 Channel: 4 Note on, A1 key =  33 ; velocity: 0
@97680 Channel: 4 Note on, C2 key =  36 ; velocity: 127
@97740 Channel: 4 Note on, C2 key =  36 ; velocity: 0
@97740 Channel: 4 Note on, D2 key =  38 ; velocity: 127
@97800 Channel: 4 Note on, D2 key =  38 ; velocity: 0
@97800 Channel: 4 Note on, C2 key =  36 ; velocity: 127
@97920 Channel: 4 Note on, C2 key =  36 ; velocity: 0
@97920 Channel: 4 Note on, E3 key =  52 ; velocity: 127
@97980 Channel: 4 Note on, E3 key =  52 ; velocity: 0
@97980 Channel: 4 Note on, D3 key =  50 ; velocity: 127
@98040 Channel: 4 Note on, D3 key =  50 ; velocity: 0
@98040 Channel: 4 Note on, B2 key =  47 ; velocity: 127
@98100 Channel: 4 Note on, B2 key =  47 ; velocity: 0
@98100 Channel: 4 Note on, D3 key =  50 ; velocity: 127
@98160 Channel: 4 Note on, D3 key =  50 ; velocity: 0
@98160 Channel: 4 Note on, B2 key =  47 ; velocity: 127
@98220 Channel: 4 Note on, B2 key =  47 ; velocity: 0
@98220 Channel: 4 Note on, A#2 key =  46 ; velocity: 127
@98280 Channel: 4 Note on, A#2 key =  46 ; velocity: 0
@98280 Channel: 4 Note on, A2 key =  45 ; velocity: 127
@98340 Channel: 4 Note on, A2 key =  45 ; velocity: 0
@98340 Channel: 4 Note on, G2 key =  43 ; velocity: 127
@98400 Channel: 4 Note on, G2 key =  43 ; velocity: 0
@98400 Channel: 4 Note on, E2 key =  40 ; velocity: 127
@98460 Channel: 4 Note on, E2 key =  40 ; velocity: 0
@98460 Channel: 4 Note on, D2 key =  38 ; velocity: 127
@98520 Channel: 4 Note on, D2 key =  38 ; velocity: 0
@98520 Channel: 4 Note on, B1 key =  35 ; velocity: 127
@98580 Channel: 4 Note on, B1 key =  35 ; velocity: 0
@98580 Channel: 4 Note on, D2 key =  38 ; velocity: 127
@98640 Channel: 4 Note on, D2 key =  38 ; velocity: 0
@98640 Channel: 4 Note on, B1 key =  35 ; velocity: 127
@98700 Channel: 4 Note on, B1 key =  35 ; velocity: 0
@98700 Channel: 4 Note on, A#1 key =  34 ; velocity: 127
@98760 Channel: 4 Note on, A#1 key =  34 ; velocity: 0
@98760 Channel: 4 Note on, A1 key =  33 ; velocity: 127
@98820 Channel: 4 Note on, A1 key =  33 ; velocity: 0
@98820 Channel: 4 Note on, G1 key =  31 ; velocity: 127
@98880 Channel: 4 Note on, G1 key =  31 ; velocity: 0
@98880 Channel: 4 Note on, G1 key =  31 ; velocity: 127
@98940 Channel: 4 Note on, G1 key =  31 ; velocity: 0
@98940 Channel: 4 Note on, G1 key =  31 ; velocity: 127
@99000 Channel: 4 Note on, G1 key =  31 ; velocity: 0
@99000 Channel: 4 Note on, G1 key =  31 ; velocity: 127
@99060 Channel: 4 Note on, G1 key =  31 ; velocity: 0
@99060 Channel: 4 Note on, G1 key =  31 ; velocity: 127
@99120 Channel: 4 Note on, G1 key =  31 ; velocity: 0
@99120 Channel: 4 Note on, G1 key =  31 ; velocity: 127
@99180 Channel: 4 Note on, G1 key =  31 ; velocity: 0
@99180 Channel: 4 Note on, G1 key =  31 ; velocity: 127
@99210 Channel: 4 Note on, G1 key =  31 ; velocity: 0
@99210 Channel: 4 Note on, G1 key =  31 ; velocity: 127
@99240 Channel: 4 Note on, G1 key =  31 ; velocity: 0
@99240 Channel: 4 Note on, G2 key =  43 ; velocity: 127
@99360 Channel: 4 Note on, G2 key =  43 ; velocity: 0
@99360 Channel: 4 Note on, F#1 key =  30 ; velocity: 127
@99480 Channel: 4 Note on, F#1 key =  30 ; velocity: 0
@99480 Channel: 4 Note on, F#1 key =  30 ; velocity: 127
@99600 Channel: 4 Note on, F#1 key =  30 ; velocity: 0
@99600 Channel: 4 Note on, F1 key =  29 ; velocity: 127
@99720 Channel: 4 Note on, F1 key =  29 ; velocity: 0
@99720 Channel: 4 Note on, F1 key =  29 ; velocity: 127
@99840 Channel: 4 Note on, F1 key =  29 ; velocity: 0
@99840 Channel: 4 Note on, E1 key =  28 ; velocity: 127
@99900 Channel: 4 Note on, E1 key =  28 ; velocity: 0
@99900 Channel: 4 Note on, E1 key =  28 ; velocity: 127
@99960 Channel: 4 Note on, E1 key =  28 ; velocity: 0
@99960 Channel: 4 Note on, E1 key =  28 ; velocity: 127
@100020 Channel: 4 Note on, E1 key =  28 ; velocity: 0
@100020 Channel: 4 Note on, E1 key =  28 ; velocity: 127
@100080 Channel: 4 Note on, E1 key =  28 ; velocity: 0
@100080 Channel: 4 Note on, E1 key =  28 ; velocity: 127
@100140 Channel: 4 Note on, E1 key =  28 ; velocity: 0
@100140 Channel: 4 Note on, E1 key =  28 ; velocity: 127
@100200 Channel: 4 Note on, E1 key =  28 ; velocity: 0
@100200 Channel: 4 Note on, E1 key =  28 ; velocity: 127
@100260 Channel: 4 Note on, E1 key =  28 ; velocity: 0
@100260 Channel: 4 Note on, E1 key =  28 ; velocity: 127
@100320 Channel: 4 Note on, E1 key =  28 ; velocity: 0
@100320 Channel: 4 Note on, E1 key =  28 ; velocity: 127
@100380 Channel: 4 Note on, E1 key =  28 ; velocity: 0
@100380 Channel: 4 Note on, A1 key =  33 ; velocity: 127
@100410 Channel: 4 Note on, A1 key =  33 ; velocity: 0
@100410 Channel: 4 Note on, B1 key =  35 ; velocity: 127
@100440 Channel: 4 Note on, B1 key =  35 ; velocity: 0
@100440 Channel: 4 Note on, D2 key =  38 ; velocity: 127
@100500 Channel: 4 Note on, D2 key =  38 ; velocity: 0
@100500 Channel: 4 Note on, E1 key =  28 ; velocity: 127
@100560 Channel: 4 Note on, E1 key =  28 ; velocity: 0
@100560 Channel: 4 Note on, E2 key =  40 ; velocity: 127
@100620 Channel: 4 Note on, E2 key =  40 ; velocity: 0
@100620 Channel: 4 Note on, E1 key =  28 ; velocity: 127
@100680 Channel: 4 Note on, E1 key =  28 ; velocity: 0
@100680 Channel: 4 Note on, E2 key =  40 ; velocity: 127
@100740 Channel: 4 Note on, E2 key =  40 ; velocity: 0
@100740 Channel: 4 Note on, E1 key =  28 ; velocity: 127
@100800 Channel: 4 Note on, E1 key =  28 ; velocity: 0
@100800 Channel: 4 Note on, G1 key =  31 ; velocity: 127
@100860 Channel: 4 Note on, G1 key =  31 ; velocity: 0
@100860 Channel: 4 Note on, G1 key =  31 ; velocity: 127
@100920 Channel: 4 Note on, G1 key =  31 ; velocity: 0
@100920 Channel: 4 Note on, G1 key =  31 ; velocity: 127
@100980 Channel: 4 Note on, G1 key =  31 ; velocity: 0
@100980 Channel: 4 Note on, G1 key =  31 ; velocity: 127
@101040 Channel: 4 Note on, G1 key =  31 ; velocity: 0
@101040 Channel: 4 Note on, G1 key =  31 ; velocity: 127
@101100 Channel: 4 Note on, G1 key =  31 ; velocity: 0
@101100 Channel: 4 Note on, G1 key =  31 ; velocity: 127
@101130 Channel: 4 Note on, G1 key =  31 ; velocity: 0
@101130 Channel: 4 Note on, G1 key =  31 ; velocity: 127
@101160 Channel: 4 Note on, G1 key =  31 ; velocity: 0
@101160 Channel: 4 Note on, G2 key =  43 ; velocity: 127
@101280 Channel: 4 Note on, G2 key =  43 ; velocity: 0
@101280 Channel: 4 Note on, F#1 key =  30 ; velocity: 127
@101400 Channel: 4 Note on, F#1 key =  30 ; velocity: 0
@101400 Channel: 4 Note on, F#1 key =  30 ; velocity: 127
@101520 Channel: 4 Note on, F#1 key =  30 ; velocity: 0
@101520 Channel: 4 Note on, F1 key =  29 ; velocity: 127
@101640 Channel: 4 Note on, F1 key =  29 ; velocity: 0
@101640 Channel: 4 Note on, F1 key =  29 ; velocity: 127
@101760 Channel: 4 Note on, F1 key =  29 ; velocity: 0
@101760 Channel: 4 Note on, E1 key =  28 ; velocity: 127
@101820 Channel: 4 Note on, E1 key =  28 ; velocity: 0
@101820 Channel: 4 Note on, E1 key =  28 ; velocity: 127
@101880 Channel: 4 Note on, E1 key =  28 ; velocity: 0
@101880 Channel: 4 Note on, E1 key =  28 ; velocity: 127
@101940 Channel: 4 Note on, E1 key =  28 ; velocity: 0
@101940 Channel: 4 Note on, E1 key =  28 ; velocity: 127
@102000 Channel: 4 Note on, E1 key =  28 ; velocity: 0
@102000 Channel: 4 Note on, E1 key =  28 ; velocity: 127
@102060 Channel: 4 Note on, E1 key =  28 ; velocity: 0
@102060 Channel: 4 Note on, E1 key =  28 ; velocity: 127
@102120 Channel: 4 Note on, E1 key =  28 ; velocity: 0
@102120 Channel: 4 Note on, E1 key =  28 ; velocity: 127
@102180 Channel: 4 Note on, E1 key =  28 ; velocity: 0
@102180 Channel: 4 Note on, E1 key =  28 ; velocity: 127
@102240 Channel: 4 Note on, E1 key =  28 ; velocity: 0
@102240 Channel: 4 Note on, E2 key =  40 ; velocity: 127
@102300 Channel: 4 Note on, E2 key =  40 ; velocity: 0
@102300 Channel: 4 Note on, D2 key =  38 ; velocity: 127
@102360 Channel: 4 Note on, D2 key =  38 ; velocity: 0
@102360 Channel: 4 Note on, B1 key =  35 ; velocity: 127
@102420 Channel: 4 Note on, B1 key =  35 ; velocity: 0
@102420 Channel: 4 Note on, A1 key =  33 ; velocity: 127
@102480 Channel: 4 Note on, A1 key =  33 ; velocity: 0
@102480 Channel: 4 Note on, A#1 key =  34 ; velocity: 127
@102540 Channel: 4 Note on, A#1 key =  34 ; velocity: 0
@102540 Channel: 4 Note on, A1 key =  33 ; velocity: 127
@102600 Channel: 4 Note on, A1 key =  33 ; velocity: 0
@102600 Channel: 4 Note on, B1 key =  35 ; velocity: 127
@102660 Channel: 4 Note on, B1 key =  35 ; velocity: 0
@102660 Channel: 4 Note on, A1 key =  33 ; velocity: 127
@102720 Channel: 4 Note on, A1 key =  33 ; velocity: 0
@102720 Channel: 4 Note on, G1 key =  31 ; velocity: 127
@102780 Channel: 4 Note on, G1 key =  31 ; velocity: 0
@102780 Channel: 4 Note on, G1 key =  31 ; velocity: 127
@102840 Channel: 4 Note on, G1 key =  31 ; velocity: 0
@102840 Channel: 4 Note on, G1 key =  31 ; velocity: 127
@102900 Channel: 4 Note on, G1 key =  31 ; velocity: 0
@102900 Channel: 4 Note on, G1 key =  31 ; velocity: 127
@102960 Channel: 4 Note on, G1 key =  31 ; velocity: 0
@102960 Channel: 4 Note on, G1 key =  31 ; velocity: 127
@103020 Channel: 4 Note on, G1 key =  31 ; velocity: 0
@103020 Channel: 4 Note on, G1 key =  31 ; velocity: 127
@103050 Channel: 4 Note on, G1 key =  31 ; velocity: 0
@103050 Channel: 4 Note on, G1 key =  31 ; velocity: 127
@103080 Channel: 4 Note on, G1 key =  31 ; velocity: 0
@103080 Channel: 4 Note on, G2 key =  43 ; velocity: 127
@103200 Channel: 4 Note on, G2 key =  43 ; velocity: 0
@103200 Channel: 4 Note on, F#1 key =  30 ; velocity: 127
@103320 Channel: 4 Note on, F#1 key =  30 ; velocity: 0
@103320 Channel: 4 Note on, F#1 key =  30 ; velocity: 127
@103440 Channel: 4 Note on, F#1 key =  30 ; velocity: 0
@103440 Channel: 4 Note on, F1 key =  29 ; velocity: 127
@103560 Channel: 4 Note on, F1 key =  29 ; velocity: 0
@103560 Channel: 4 Note on, F1 key =  29 ; velocity: 127
@103680 Channel: 4 Note on, F1 key =  29 ; velocity: 0
@103680 Channel: 4 Note on, E1 key =  28 ; velocity: 127
@103740 Channel: 4 Note on, E1 key =  28 ; velocity: 0
@103740 Channel: 4 Note on, E1 key =  28 ; velocity: 127
@103800 Channel: 4 Note on, E1 key =  28 ; velocity: 0
@103800 Channel: 4 Note on, E1 key =  28 ; velocity: 127
@103860 Channel: 4 Note on, E1 key =  28 ; velocity: 0
@103860 Channel: 4 Note on, E1 key =  28 ; velocity: 127
@103920 Channel: 4 Note on, E1 key =  28 ; velocity: 0
@103920 Channel: 4 Note on, E1 key =  28 ; velocity: 127
@103980 Channel: 4 Note on, E1 key =  28 ; velocity: 0
@103980 Channel: 4 Note on, E1 key =  28 ; velocity: 127
@104040 Channel: 4 Note on, E1 key =  28 ; velocity: 0
@104040 Channel: 4 Note on, E1 key =  28 ; velocity: 127
@104100 Channel: 4 Note on, E1 key =  28 ; velocity: 0
@104100 Channel: 4 Note on, E1 key =  28 ; velocity: 127
@104160 Channel: 4 Note on, E1 key =  28 ; velocity: 0
@104160 Channel: 4 Note on, E1 key =  28 ; velocity: 127
@104220 Channel: 4 Note on, E1 key =  28 ; velocity: 0
@104220 Channel: 4 Note on, A1 key =  33 ; velocity: 127
@104250 Channel: 4 Note on, A1 key =  33 ; velocity: 0
@104250 Channel: 4 Note on, B1 key =  35 ; velocity: 127
@104280 Channel: 4 Note on, B1 key =  35 ; velocity: 0
@104280 Channel: 4 Note on, D2 key =  38 ; velocity: 127
@104340 Channel: 4 Note on, D2 key =  38 ; velocity: 0
@104340 Channel: 4 Note on, E1 key =  28 ; velocity: 127
@104400 Channel: 4 Note on, E1 key =  28 ; velocity: 0
@104400 Channel: 4 Note on, E2 key =  40 ; velocity: 127
@104460 Channel: 4 Note on, E2 key =  40 ; velocity: 0
@104460 Channel: 4 Note on, E1 key =  28 ; velocity: 127
@104520 Channel: 4 Note on, E1 key =  28 ; velocity: 0
@104520 Channel: 4 Note on, E2 key =  40 ; velocity: 127
@104580 Channel: 4 Note on, E2 key =  40 ; velocity: 0
@104580 Channel: 4 Note on, E1 key =  28 ; velocity: 127
@104640 Channel: 4 Note on, E1 key =  28 ; velocity: 0
@104640 Channel: 4 Note on, G1 key =  31 ; velocity: 127
@104700 Channel: 4 Note on, G1 key =  31 ; velocity: 0
@104700 Channel: 4 Note on, G1 key =  31 ; velocity: 127
@104760 Channel: 4 Note on, G1 key =  31 ; velocity: 0
@104760 Channel: 4 Note on, G1 key =  31 ; velocity: 127
@104820 Channel: 4 Note on, G1 key =  31 ; velocity: 0
@104820 Channel: 4 Note on, G1 key =  31 ; velocity: 127
@104880 Channel: 4 Note on, G1 key =  31 ; velocity: 0
@104880 Channel: 4 Note on, G1 key =  31 ; velocity: 127
@104940 Channel: 4 Note on, G1 key =  31 ; velocity: 0
@104940 Channel: 4 Note on, G1 key =  31 ; velocity: 127
@104970 Channel: 4 Note on, G1 key =  31 ; velocity: 0
@104970 Channel: 4 Note on, G1 key =  31 ; velocity: 127
@105000 Channel: 4 Note on, G1 key =  31 ; velocity: 0
@105000 Channel: 4 Note on, G2 key =  43 ; velocity: 127
@105120 Channel: 4 Note on, G2 key =  43 ; velocity: 0
@105120 Channel: 4 Note on, F#1 key =  30 ; velocity: 127
@105240 Channel: 4 Note on, F#1 key =  30 ; velocity: 0
@105240 Channel: 4 Note on, F#1 key =  30 ; velocity: 127
@105360 Channel: 4 Note on, F#1 key =  30 ; velocity: 0
@105360 Channel: 4 Note on, F1 key =  29 ; velocity: 127
@105480 Channel: 4 Note on, F1 key =  29 ; velocity: 0
@105480 Channel: 4 Note on, F1 key =  29 ; velocity: 127
@105600 Channel: 4 Note on, F1 key =  29 ; velocity: 0
@105600 Channel: 4 Note on, G1 key =  31 ; velocity: 127
@105660 Channel: 4 Note on, G1 key =  31 ; velocity: 0
@105660 Channel: 4 Note on, G1 key =  31 ; velocity: 127
@105720 Channel: 4 Note on, G1 key =  31 ; velocity: 0
@105720 Channel: 4 Note on, G1 key =  31 ; velocity: 127
@105780 Channel: 4 Note on, G1 key =  31 ; velocity: 0
@105780 Channel: 4 Note on, G1 key =  31 ; velocity: 127
@105840 Channel: 4 Note on, G1 key =  31 ; velocity: 0
@105840 Channel: 4 Note on, G1 key =  31 ; velocity: 127
@105900 Channel: 4 Note on, G1 key =  31 ; velocity: 0
@105900 Channel: 4 Note on, G1 key =  31 ; velocity: 127
@105960 Channel: 4 Note on, G1 key =  31 ; velocity: 0
@105960 Channel: 4 Note on, G1 key =  31 ; velocity: 127
@106020 Channel: 4 Note on, G1 key =  31 ; velocity: 0
@106020 Channel: 4 Note on, G1 key =  31 ; velocity: 127
@106080 Channel: 4 Note on, G1 key =  31 ; velocity: 0
@106080 Channel: 4 Note on, G1 key =  31 ; velocity: 127
@106140 Channel: 4 Note on, G1 key =  31 ; velocity: 0
@106140 Channel: 4 Note on, G1 key =  31 ; velocity: 127
@106200 Channel: 4 Note on, G1 key =  31 ; velocity: 0
@106200 Channel: 4 Note on, G1 key =  31 ; velocity: 127
@106260 Channel: 4 Note on, G1 key =  31 ; velocity: 0
@106260 Channel: 4 Note on, G1 key =  31 ; velocity: 127
@106320 Channel: 4 Note on, G1 key =  31 ; velocity: 0
@106320 Channel: 4 Note on, G1 key =  31 ; velocity: 127
@106380 Channel: 4 Note on, G1 key =  31 ; velocity: 0
@106380 Channel: 4 Note on, G1 key =  31 ; velocity: 127
@106440 Channel: 4 Note on, G1 key =  31 ; velocity: 0
@106440 Channel: 4 Note on, G1 key =  31 ; velocity: 127
@106500 Channel: 4 Note on, G1 key =  31 ; velocity: 0
@106500 Channel: 4 Note on, G2 key =  43 ; velocity: 127
@106560 Channel: 4 Note on, G2 key =  43 ; velocity: 0
@106560 Channel: 4 Note on, F#2 key =  42 ; velocity: 127
@106620 Channel: 4 Note on, F#2 key =  42 ; velocity: 0
@106620 Channel: 4 Note on, E1 key =  28 ; velocity: 127
@106680 Channel: 4 Note on, E1 key =  28 ; velocity: 0
@106680 Channel: 4 Note on, E1 key =  28 ; velocity: 127
@106740 Channel: 4 Note on, E1 key =  28 ; velocity: 0
@106740 Channel: 4 Note on, F#2 key =  42 ; velocity: 127
@106800 Channel: 4 Note on, F#2 key =  42 ; velocity: 0
@106800 Channel: 4 Note on, F2 key =  41 ; velocity: 127
@106860 Channel: 4 Note on, F2 key =  41 ; velocity: 0
@106860 Channel: 4 Note on, E1 key =  28 ; velocity: 127
@106920 Channel: 4 Note on, E1 key =  28 ; velocity: 0
@106920 Channel: 4 Note on, E1 key =  28 ; velocity: 127
@106980 Channel: 4 Note on, E1 key =  28 ; velocity: 0
@106980 Channel: 4 Note on, F2 key =  41 ; velocity: 127
@107040 Channel: 4 Note on, F2 key =  41 ; velocity: 0
@107040 Channel: 4 Note on, E2 key =  40 ; velocity: 127
@107100 Channel: 4 Note on, E2 key =  40 ; velocity: 0
@107100 Channel: 4 Note on, E1 key =  28 ; velocity: 127
@107160 Channel: 4 Note on, E1 key =  28 ; velocity: 0
@107160 Channel: 4 Note on, E1 key =  28 ; velocity: 127
@107220 Channel: 4 Note on, E1 key =  28 ; velocity: 0
@107220 Channel: 4 Note on, E1 key =  28 ; velocity: 127
@107280 Channel: 4 Note on, E1 key =  28 ; velocity: 0
@107280 Channel: 4 Note on, E1 key =  28 ; velocity: 127
@107340 Channel: 4 Note on, E1 key =  28 ; velocity: 0
@107340 Channel: 4 Note on, E1 key =  28 ; velocity: 127
@107400 Channel: 4 Note on, E1 key =  28 ; velocity: 0
@107400 Channel: 4 Note on, E1 key =  28 ; velocity: 127
@107460 Channel: 4 Note on, E1 key =  28 ; velocity: 0
@107460 Channel: 4 Note on, G2 key =  43 ; velocity: 127
@107520 Channel: 4 Note on, G2 key =  43 ; velocity: 0
@107520 Channel: 4 Note on, F#2 key =  42 ; velocity: 127
@107580 Channel: 4 Note on, F#2 key =  42 ; velocity: 0
@107580 Channel: 4 Note on, E1 key =  28 ; velocity: 127
@107640 Channel: 4 Note on, E1 key =  28 ; velocity: 0
@107640 Channel: 4 Note on, E1 key =  28 ; velocity: 127
@107700 Channel: 4 Note on, E1 key =  28 ; velocity: 0
@107700 Channel: 4 Note on, F#2 key =  42 ; velocity: 127
@107760 Channel: 4 Note on, F#2 key =  42 ; velocity: 0
@107760 Channel: 4 Note on, D2 key =  38 ; velocity: 127
@107820 Channel: 4 Note on, D2 key =  38 ; velocity: 0
@107820 Channel: 4 Note on, E1 key =  28 ; velocity: 127
@107880 Channel: 4 Note on, E1 key =  28 ; velocity: 0
@107880 Channel: 4 Note on, E1 key =  28 ; velocity: 127
@107940 Channel: 4 Note on, E1 key =  28 ; velocity: 0
@107940 Channel: 4 Note on, D2 key =  38 ; velocity: 127
@108000 Channel: 4 Note on, D2 key =  38 ; velocity: 0
@108000 Channel: 4 Note on, E2 key =  40 ; velocity: 127
@108060 Channel: 4 Note on, E2 key =  40 ; velocity: 0
@108060 Channel: 4 Note on, E1 key =  28 ; velocity: 127
@108120 Channel: 4 Note on, E1 key =  28 ; velocity: 0
@108120 Channel: 4 Note on, D2 key =  38 ; velocity: 127
@108180 Channel: 4 Note on, D2 key =  38 ; velocity: 0
@108180 Channel: 4 Note on, E1 key =  28 ; velocity: 127
@108240 Channel: 4 Note on, E1 key =  28 ; velocity: 0
@108240 Channel: 4 Note on, E2 key =  40 ; velocity: 127
@108300 Channel: 4 Note on, E2 key =  40 ; velocity: 0
@108300 Channel: 4 Note on, E2 key =  40 ; velocity: 127
@108360 Channel: 4 Note on, E2 key =  40 ; velocity: 0
@108360 Channel: 4 Note on, E2 key =  40 ; velocity: 127
@108420 Channel: 4 Note on, E2 key =  40 ; velocity: 0
@108420 Channel: 4 Note on, G2 key =  43 ; velocity: 127
@108480 Channel: 4 Note on, G2 key =  43 ; velocity: 0
@108480 Channel: 4 Note on, F#2 key =  42 ; velocity: 127
@108540 Channel: 4 Note on, F#2 key =  42 ; velocity: 0
@108540 Channel: 4 Note on, E1 key =  28 ; velocity: 127
@108600 Channel: 4 Note on, E1 key =  28 ; velocity: 0
@108600 Channel: 4 Note on, E1 key =  28 ; velocity: 127
@108660 Channel: 4 Note on, E1 key =  28 ; velocity: 0
@108660 Channel: 4 Note on, F#2 key =  42 ; velocity: 127
@108720 Channel: 4 Note on, F#2 key =  42 ; velocity: 0
@108720 Channel: 4 Note on, F2 key =  41 ; velocity: 127
@108780 Channel: 4 Note on, F2 key =  41 ; velocity: 0
@108780 Channel: 4 Note on, E1 key =  28 ; velocity: 127
@108840 Channel: 4 Note on, E1 key =  28 ; velocity: 0
@108840 Channel: 4 Note on, E1 key =  28 ; velocity: 127
@108900 Channel: 4 Note on, E1 key =  28 ; velocity: 0
@108900 Channel: 4 Note on, F2 key =  41 ; velocity: 127
@108960 Channel: 4 Note on, F2 key =  41 ; velocity: 0
@108960 Channel: 4 Note on, E2 key =  40 ; velocity: 127
@109020 Channel: 4 Note on, E2 key =  40 ; velocity: 0
@109020 Channel: 4 Note on, E1 key =  28 ; velocity: 127
@109080 Channel: 4 Note on, E1 key =  28 ; velocity: 0
@109080 Channel: 4 Note on, E1 key =  28 ; velocity: 127
@109140 Channel: 4 Note on, E1 key =  28 ; velocity: 0
@109140 Channel: 4 Note on, E1 key =  28 ; velocity: 127
@109200 Channel: 4 Note on, E1 key =  28 ; velocity: 0
@109200 Channel: 4 Note on, E1 key =  28 ; velocity: 127
@109260 Channel: 4 Note on, E1 key =  28 ; velocity: 0
@109260 Channel: 4 Note on, E1 key =  28 ; velocity: 127
@109320 Channel: 4 Note on, E1 key =  28 ; velocity: 0
@109320 Channel: 4 Note on, E1 key =  28 ; velocity: 127
@109380 Channel: 4 Note on, E1 key =  28 ; velocity: 0
@109380 Channel: 4 Note on, G2 key =  43 ; velocity: 127
@109440 Channel: 4 Note on, G2 key =  43 ; velocity: 0
@109440 Channel: 4 Note on, F#2 key =  42 ; velocity: 127
@109500 Channel: 4 Note on, F#2 key =  42 ; velocity: 0
@109500 Channel: 4 Note on, E1 key =  28 ; velocity: 127
@109560 Channel: 4 Note on, E1 key =  28 ; velocity: 0
@109560 Channel: 4 Note on, E1 key =  28 ; velocity: 127
@109620 Channel: 4 Note on, E1 key =  28 ; velocity: 0
@109620 Channel: 4 Note on, F#2 key =  42 ; velocity: 127
@109680 Channel: 4 Note on, F#2 key =  42 ; velocity: 0
@109680 Channel: 4 Note on, D2 key =  38 ; velocity: 127
@109740 Channel: 4 Note on, D2 key =  38 ; velocity: 0
@109740 Channel: 4 Note on, E1 key =  28 ; velocity: 127
@109800 Channel: 4 Note on, E1 key =  28 ; velocity: 0
@109800 Channel: 4 Note on, E1 key =  28 ; velocity: 127
@109860 Channel: 4 Note on, E1 key =  28 ; velocity: 0
@109860 Channel: 4 Note on, D2 key =  38 ; velocity: 127
@109920 Channel: 4 Note on, D2 key =  38 ; velocity: 0
@109920 Channel: 4 Note on, E2 key =  40 ; velocity: 127
@109980 Channel: 4 Note on, E2 key =  40 ; velocity: 0
@109980 Channel: 4 Note on, E1 key =  28 ; velocity: 127
@110040 Channel: 4 Note on, E1 key =  28 ; velocity: 0
@110040 Channel: 4 Note on, D2 key =  38 ; velocity: 127
@110100 Channel: 4 Note on, D2 key =  38 ; velocity: 0
@110100 Channel: 4 Note on, E1 key =  28 ; velocity: 127
@110160 Channel: 4 Note on, E1 key =  28 ; velocity: 0
@110160 Channel: 4 Note on, E2 key =  40 ; velocity: 127
@110220 Channel: 4 Note on, E2 key =  40 ; velocity: 0
@110220 Channel: 4 Note on, E2 key =  40 ; velocity: 127
@110280 Channel: 4 Note on, E2 key =  40 ; velocity: 0
@110280 Channel: 4 Note on, E2 key =  40 ; velocity: 127
@110340 Channel: 4 Note on, E2 key =  40 ; velocity: 0
@110340 Channel: 4 Note on, G2 key =  43 ; velocity: 127
@110400 Channel: 4 Note on, G2 key =  43 ; velocity: 0
@110400 Channel: 4 Note on, F#2 key =  42 ; velocity: 127
@110460 Channel: 4 Note on, F#2 key =  42 ; velocity: 0
@110460 Channel: 4 Note on, E1 key =  28 ; velocity: 127
@110520 Channel: 4 Note on, E1 key =  28 ; velocity: 0
@110520 Channel: 4 Note on, E1 key =  28 ; velocity: 127
@110580 Channel: 4 Note on, E1 key =  28 ; velocity: 0
@110580 Channel: 4 Note on, F#2 key =  42 ; velocity: 127
@110640 Channel: 4 Note on, F#2 key =  42 ; velocity: 0
@110640 Channel: 4 Note on, F2 key =  41 ; velocity: 127
@110700 Channel: 4 Note on, F2 key =  41 ; velocity: 0
@110700 Channel: 4 Note on, E1 key =  28 ; velocity: 127
@110760 Channel: 4 Note on, E1 key =  28 ; velocity: 0
@110760 Channel: 4 Note on, E1 key =  28 ; velocity: 127
@110820 Channel: 4 Note on, E1 key =  28 ; velocity: 0
@110820 Channel: 4 Note on, F2 key =  41 ; velocity: 127
@110880 Channel: 4 Note on, F2 key =  41 ; velocity: 0
@110880 Channel: 4 Note on, E2 key =  40 ; velocity: 127
@110940 Channel: 4 Note on, E2 key =  40 ; velocity: 0
@110940 Channel: 4 Note on, E1 key =  28 ; velocity: 127
@111000 Channel: 4 Note on, E1 key =  28 ; velocity: 0
@111000 Channel: 4 Note on, E1 key =  28 ; velocity: 127
@111060 Channel: 4 Note on, E1 key =  28 ; velocity: 0
@111060 Channel: 4 Note on, E1 key =  28 ; velocity: 127
@111120 Channel: 4 Note on, E1 key =  28 ; velocity: 0
@111120 Channel: 4 Note on, E1 key =  28 ; velocity: 127
@111180 Channel: 4 Note on, E1 key =  28 ; velocity: 0
@111180 Channel: 4 Note on, E1 key =  28 ; velocity: 127
@111240 Channel: 4 Note on, E1 key =  28 ; velocity: 0
@111240 Channel: 4 Note on, E1 key =  28 ; velocity: 127
@111300 Channel: 4 Note on, E1 key =  28 ; velocity: 0
@111300 Channel: 4 Note on, G2 key =  43 ; velocity: 127
@111360 Channel: 4 Note on, G2 key =  43 ; velocity: 0
@111360 Channel: 4 Note on, F#2 key =  42 ; velocity: 127
@111420 Channel: 4 Note on, F#2 key =  42 ; velocity: 0
@111420 Channel: 4 Note on, E1 key =  28 ; velocity: 127
@111480 Channel: 4 Note on, E1 key =  28 ; velocity: 0
@111480 Channel: 4 Note on, E1 key =  28 ; velocity: 127
@111540 Channel: 4 Note on, E1 key =  28 ; velocity: 0
@111540 Channel: 4 Note on, F#2 key =  42 ; velocity: 127
@111600 Channel: 4 Note on, F#2 key =  42 ; velocity: 0
@111600 Channel: 4 Note on, D2 key =  38 ; velocity: 127
@111660 Channel: 4 Note on, D2 key =  38 ; velocity: 0
@111660 Channel: 4 Note on, E1 key =  28 ; velocity: 127
@111720 Channel: 4 Note on, E1 key =  28 ; velocity: 0
@111720 Channel: 4 Note on, E1 key =  28 ; velocity: 127
@111780 Channel: 4 Note on, E1 key =  28 ; velocity: 0
@111780 Channel: 4 Note on, D2 key =  38 ; velocity: 127
@111840 Channel: 4 Note on, D2 key =  38 ; velocity: 0
@111840 Channel: 4 Note on, E2 key =  40 ; velocity: 127
@111900 Channel: 4 Note on, E2 key =  40 ; velocity: 0
@111900 Channel: 4 Note on, E1 key =  28 ; velocity: 127
@111960 Channel: 4 Note on, E1 key =  28 ; velocity: 0
@111960 Channel: 4 Note on, D2 key =  38 ; velocity: 127
@112020 Channel: 4 Note on, D2 key =  38 ; velocity: 0
@112020 Channel: 4 Note on, E1 key =  28 ; velocity: 127
@112080 Channel: 4 Note on, E1 key =  28 ; velocity: 0
@112080 Channel: 4 Note on, E2 key =  40 ; velocity: 127
@112140 Channel: 4 Note on, E2 key =  40 ; velocity: 0
@112140 Channel: 4 Note on, E2 key =  40 ; velocity: 127
@112200 Channel: 4 Note on, E2 key =  40 ; velocity: 0
@112200 Channel: 4 Note on, E2 key =  40 ; velocity: 127
@112260 Channel: 4 Note on, E2 key =  40 ; velocity: 0
@112260 Channel: 4 Note on, G2 key =  43 ; velocity: 127
@112320 Channel: 4 Note on, G2 key =  43 ; velocity: 0
@112320 Channel: 4 Note on, F#2 key =  42 ; velocity: 127
@112380 Channel: 4 Note on, F#2 key =  42 ; velocity: 0
@112380 Channel: 4 Note on, E1 key =  28 ; velocity: 127
@112440 Channel: 4 Note on, E1 key =  28 ; velocity: 0
@112440 Channel: 4 Note on, E1 key =  28 ; velocity: 127
@112500 Channel: 4 Note on, E1 key =  28 ; velocity: 0
@112500 Channel: 4 Note on, F#2 key =  42 ; velocity: 127
@112560 Channel: 4 Note on, F#2 key =  42 ; velocity: 0
@112560 Channel: 4 Note on, F2 key =  41 ; velocity: 127
@112620 Channel: 4 Note on, F2 key =  41 ; velocity: 0
@112620 Channel: 4 Note on, E1 key =  28 ; velocity: 127
@112680 Channel: 4 Note on, E1 key =  28 ; velocity: 0
@112680 Channel: 4 Note on, E1 key =  28 ; velocity: 127
@112740 Channel: 4 Note on, E1 key =  28 ; velocity: 0
@112740 Channel: 4 Note on, F2 key =  41 ; velocity: 127
@112800 Channel: 4 Note on, F2 key =  41 ; velocity: 0
@112800 Channel: 4 Note on, E2 key =  40 ; velocity: 127
@112860 Channel: 4 Note on, E2 key =  40 ; velocity: 0
@112860 Channel: 4 Note on, E1 key =  28 ; velocity: 127
@112920 Channel: 4 Note on, E1 key =  28 ; velocity: 0
@112920 Channel: 4 Note on, E1 key =  28 ; velocity: 127
@112980 Channel: 4 Note on, E1 key =  28 ; velocity: 0
@112980 Channel: 4 Note on, E1 key =  28 ; velocity: 127
@113040 Channel: 4 Note on, E1 key =  28 ; velocity: 0
@113040 Channel: 4 Note on, E1 key =  28 ; velocity: 127
@113100 Channel: 4 Note on, E1 key =  28 ; velocity: 0
@113100 Channel: 4 Note on, E1 key =  28 ; velocity: 127
@113160 Channel: 4 Note on, E1 key =  28 ; velocity: 0
@113160 Channel: 4 Note on, E1 key =  28 ; velocity: 127
@113220 Channel: 4 Note on, E1 key =  28 ; velocity: 0
@113220 Channel: 4 Note on, G2 key =  43 ; velocity: 127
@113280 Channel: 4 Note on, G2 key =  43 ; velocity: 0
@113280 Channel: 4 Note on, F#2 key =  42 ; velocity: 127
@113340 Channel: 4 Note on, F#2 key =  42 ; velocity: 0
@113340 Channel: 4 Note on, E1 key =  28 ; velocity: 127
@113400 Channel: 4 Note on, E1 key =  28 ; velocity: 0
@113400 Channel: 4 Note on, E1 key =  28 ; velocity: 127
@113460 Channel: 4 Note on, E1 key =  28 ; velocity: 0
@113460 Channel: 4 Note on, F#2 key =  42 ; velocity: 127
@113520 Channel: 4 Note on, F#2 key =  42 ; velocity: 0
@113520 Channel: 4 Note on, D2 key =  38 ; velocity: 127
@113580 Channel: 4 Note on, D2 key =  38 ; velocity: 0
@113580 Channel: 4 Note on, E1 key =  28 ; velocity: 127
@113640 Channel: 4 Note on, E1 key =  28 ; velocity: 0
@113640 Channel: 4 Note on, E1 key =  28 ; velocity: 127
@113700 Channel: 4 Note on, E1 key =  28 ; velocity: 0
@113700 Channel: 4 Note on, D2 key =  38 ; velocity: 127
@113760 Channel: 4 Note on, D2 key =  38 ; velocity: 0
@113760 Channel: 4 Note on, E2 key =  40 ; velocity: 127
@113820 Channel: 4 Note on, E2 key =  40 ; velocity: 0
@113820 Channel: 4 Note on, E1 key =  28 ; velocity: 127
@113880 Channel: 4 Note on, E1 key =  28 ; velocity: 0
@113880 Channel: 4 Note on, D2 key =  38 ; velocity: 127
@113940 Channel: 4 Note on, D2 key =  38 ; velocity: 0
@113940 Channel: 4 Note on, E1 key =  28 ; velocity: 127
@114000 Channel: 4 Note on, E1 key =  28 ; velocity: 0
@114000 Channel: 4 Note on, E2 key =  40 ; velocity: 127
@114060 Channel: 4 Note on, E2 key =  40 ; velocity: 0
@114060 Channel: 4 Note on, E2 key =  40 ; velocity: 127
@114120 Channel: 4 Note on, E2 key =  40 ; velocity: 0
@114120 Channel: 4 Note on, E2 key =  40 ; velocity: 127
@114240 Channel: 4 Note on, E2 key =  40 ; velocity: 0
@114240 Channel: 4 Note on, E1 key =  28 ; velocity: 127
@114300 Channel: 4 Note on, E1 key =  28 ; velocity: 0
@114300 Channel: 4 Note on, E1 key =  28 ; velocity: 127
@114360 Channel: 4 Note on, E1 key =  28 ; velocity: 0
@114360 Channel: 4 Note on, E1 key =  28 ; velocity: 127
@114420 Channel: 4 Note on, E1 key =  28 ; velocity: 0
@114420 Channel: 4 Note on, E1 key =  28 ; velocity: 127
@114480 Channel: 4 Note on, E1 key =  28 ; velocity: 0
@114480 Channel: 4 Note on, E1 key =  28 ; velocity: 127
@114540 Channel: 4 Note on, E1 key =  28 ; velocity: 0
@114540 Channel: 4 Note on, G1 key =  31 ; velocity: 127
@114600 Channel: 4 Note on, G1 key =  31 ; velocity: 0
@114600 Channel: 4 Note on, E1 key =  28 ; velocity: 127
@114660 Channel: 4 Note on, E1 key =  28 ; velocity: 0
@114660 Channel: 4 Note on, E1 key =  28 ; velocity: 127
@114720 Channel: 4 Note on, E1 key =  28 ; velocity: 0
@114720 Channel: 4 Note on, F#1 key =  30 ; velocity: 127
@114780 Channel: 4 Note on, F#1 key =  30 ; velocity: 0
@114780 Channel: 4 Note on, E1 key =  28 ; velocity: 127
@114840 Channel: 4 Note on, E1 key =  28 ; velocity: 0
@114840 Channel: 4 Note on, E1 key =  28 ; velocity: 127
@114900 Channel: 4 Note on, E1 key =  28 ; velocity: 0
@114900 Channel: 4 Note on, G1 key =  31 ; velocity: 127
@114960 Channel: 4 Note on, G1 key =  31 ; velocity: 0
@114960 Channel: 4 Note on, E1 key =  28 ; velocity: 127
@115020 Channel: 4 Note on, E1 key =  28 ; velocity: 0
@115020 Channel: 4 Note on, E1 key =  28 ; velocity: 127
@115080 Channel: 4 Note on, E1 key =  28 ; velocity: 0
@115080 Channel: 4 Note on, A1 key =  33 ; velocity: 127
@115140 Channel: 4 Note on, A1 key =  33 ; velocity: 0
@115140 Channel: 4 Note on, G1 key =  31 ; velocity: 127
@115200 Channel: 4 Note on, G1 key =  31 ; velocity: 0
@115200 Channel: 4 Note on, E1 key =  28 ; velocity: 127
@115260 Channel: 4 Note on, E1 key =  28 ; velocity: 0
@115260 Channel: 4 Note on, E1 key =  28 ; velocity: 127
@115320 Channel: 4 Note on, E1 key =  28 ; velocity: 0
@115320 Channel: 4 Note on, E1 key =  28 ; velocity: 127
@115380 Channel: 4 Note on, E1 key =  28 ; velocity: 0
@115380 Channel: 4 Note on, E1 key =  28 ; velocity: 127
@115440 Channel: 4 Note on, E1 key =  28 ; velocity: 0
@115440 Channel: 4 Note on, E1 key =  28 ; velocity: 127
@115500 Channel: 4 Note on, E1 key =  28 ; velocity: 0
@115500 Channel: 4 Note on, G1 key =  31 ; velocity: 127
@115560 Channel: 4 Note on, G1 key =  31 ; velocity: 0
@115560 Channel: 4 Note on, E1 key =  28 ; velocity: 127
@115620 Channel: 4 Note on, E1 key =  28 ; velocity: 0
@115620 Channel: 4 Note on, E1 key =  28 ; velocity: 127
@115680 Channel: 4 Note on, E1 key =  28 ; velocity: 0
@115680 Channel: 4 Note on, F#1 key =  30 ; velocity: 127
@115740 Channel: 4 Note on, F#1 key =  30 ; velocity: 0
@115740 Channel: 4 Note on, E1 key =  28 ; velocity: 127
@115800 Channel: 4 Note on, E1 key =  28 ; velocity: 0
@115800 Channel: 4 Note on, E1 key =  28 ; velocity: 127
@115860 Channel: 4 Note on, E1 key =  28 ; velocity: 0
@115860 Channel: 4 Note on, G1 key =  31 ; velocity: 127
@115920 Channel: 4 Note on, G1 key =  31 ; velocity: 0
@115920 Channel: 4 Note on, E1 key =  28 ; velocity: 127
@115980 Channel: 4 Note on, E1 key =  28 ; velocity: 0
@115980 Channel: 4 Note on, E1 key =  28 ; velocity: 127
@116040 Channel: 4 Note on, E1 key =  28 ; velocity: 0
@116040 Channel: 4 Note on, A1 key =  33 ; velocity: 127
@116100 Channel: 4 Note on, A1 key =  33 ; velocity: 0
@116100 Channel: 4 Note on, G1 key =  31 ; velocity: 127
@116160 Channel: 4 Note on, G1 key =  31 ; velocity: 0
@116160 Channel: 4 Note on, E1 key =  28 ; velocity: 127
@116220 Channel: 4 Note on, E1 key =  28 ; velocity: 0
@116220 Channel: 4 Note on, E1 key =  28 ; velocity: 127
@116280 Channel: 4 Note on, E1 key =  28 ; velocity: 0
@116280 Channel: 4 Note on, E1 key =  28 ; velocity: 127
@116340 Channel: 4 Note on, E1 key =  28 ; velocity: 0
@116340 Channel: 4 Note on, E1 key =  28 ; velocity: 127
@116400 Channel: 4 Note on, E1 key =  28 ; velocity: 0
@116400 Channel: 4 Note on, E1 key =  28 ; velocity: 127
@116460 Channel: 4 Note on, E1 key =  28 ; velocity: 0
@116460 Channel: 4 Note on, G1 key =  31 ; velocity: 127
@116520 Channel: 4 Note on, G1 key =  31 ; velocity: 0
@116520 Channel: 4 Note on, E1 key =  28 ; velocity: 127
@116580 Channel: 4 Note on, E1 key =  28 ; velocity: 0
@116580 Channel: 4 Note on, E1 key =  28 ; velocity: 127
@116640 Channel: 4 Note on, E1 key =  28 ; velocity: 0
@116640 Channel: 4 Note on, F#1 key =  30 ; velocity: 127
@116700 Channel: 4 Note on, F#1 key =  30 ; velocity: 0
@116700 Channel: 4 Note on, E1 key =  28 ; velocity: 127
@116760 Channel: 4 Note on, E1 key =  28 ; velocity: 0
@116760 Channel: 4 Note on, E1 key =  28 ; velocity: 127
@116820 Channel: 4 Note on, E1 key =  28 ; velocity: 0
@116820 Channel: 4 Note on, G1 key =  31 ; velocity: 127
@116880 Channel: 4 Note on, G1 key =  31 ; velocity: 0
@116880 Channel: 4 Note on, E1 key =  28 ; velocity: 127
@116940 Channel: 4 Note on, E1 key =  28 ; velocity: 0
@116940 Channel: 4 Note on, E1 key =  28 ; velocity: 127
@117000 Channel: 4 Note on, E1 key =  28 ; velocity: 0
@117000 Channel: 4 Note on, A1 key =  33 ; velocity: 127
@117060 Channel: 4 Note on, A1 key =  33 ; velocity: 0
@117060 Channel: 4 Note on, G1 key =  31 ; velocity: 127
@117120 Channel: 4 Note on, G1 key =  31 ; velocity: 0
@117120 Channel: 4 Note on, E1 key =  28 ; velocity: 127
@117180 Channel: 4 Note on, E1 key =  28 ; velocity: 0
@117180 Channel: 4 Note on, E1 key =  28 ; velocity: 127
@117240 Channel: 4 Note on, E1 key =  28 ; velocity: 0
@117240 Channel: 4 Note on, E1 key =  28 ; velocity: 127
@117300 Channel: 4 Note on, E1 key =  28 ; velocity: 0
@117300 Channel: 4 Note on, E1 key =  28 ; velocity: 127
@117360 Channel: 4 Note on, E1 key =  28 ; velocity: 0
@117360 Channel: 4 Note on, E1 key =  28 ; velocity: 127
@117420 Channel: 4 Note on, E1 key =  28 ; velocity: 0
@117420 Channel: 4 Note on, G1 key =  31 ; velocity: 127
@117480 Channel: 4 Note on, G1 key =  31 ; velocity: 0
@117480 Channel: 4 Note on, E1 key =  28 ; velocity: 127
@117540 Channel: 4 Note on, E1 key =  28 ; velocity: 0
@117540 Channel: 4 Note on, E1 key =  28 ; velocity: 127
@117600 Channel: 4 Note on, E1 key =  28 ; velocity: 0
@117600 Channel: 4 Note on, F#1 key =  30 ; velocity: 127
@117660 Channel: 4 Note on, F#1 key =  30 ; velocity: 0
@117660 Channel: 4 Note on, E1 key =  28 ; velocity: 127
@117720 Channel: 4 Note on, E1 key =  28 ; velocity: 0
@117720 Channel: 4 Note on, E1 key =  28 ; velocity: 127
@117780 Channel: 4 Note on, E1 key =  28 ; velocity: 0
@117780 Channel: 4 Note on, G1 key =  31 ; velocity: 127
@117840 Channel: 4 Note on, G1 key =  31 ; velocity: 0
@117840 Channel: 4 Note on, E1 key =  28 ; velocity: 127
@117900 Channel: 4 Note on, E1 key =  28 ; velocity: 0
@117900 Channel: 4 Note on, E1 key =  28 ; velocity: 127
@117960 Channel: 4 Note on, E1 key =  28 ; velocity: 0
@117960 Channel: 4 Note on, A1 key =  33 ; velocity: 127
@118020 Channel: 4 Note on, A1 key =  33 ; velocity: 0
@118020 Channel: 4 Note on, G1 key =  31 ; velocity: 127
@118080 Channel: 4 Note on, G1 key =  31 ; velocity: 0
@118080 Channel: 4 Note on, E1 key =  28 ; velocity: 127
@118140 Channel: 4 Note on, E1 key =  28 ; velocity: 0
@118140 Channel: 4 Note on, E1 key =  28 ; velocity: 127
@118200 Channel: 4 Note on, E1 key =  28 ; velocity: 0
@118200 Channel: 4 Note on, E1 key =  28 ; velocity: 127
@118260 Channel: 4 Note on, E1 key =  28 ; velocity: 0
@118260 Channel: 4 Note on, E1 key =  28 ; velocity: 127
@118320 Channel: 4 Note on, E1 key =  28 ; velocity: 0
@118320 Channel: 4 Note on, E1 key =  28 ; velocity: 127
@118380 Channel: 4 Note on, E1 key =  28 ; velocity: 0
@118380 Channel: 4 Note on, G1 key =  31 ; velocity: 127
@118440 Channel: 4 Note on, G1 key =  31 ; velocity: 0
@118440 Channel: 4 Note on, E1 key =  28 ; velocity: 127
@118500 Channel: 4 Note on, E1 key =  28 ; velocity: 0
@118500 Channel: 4 Note on, E1 key =  28 ; velocity: 127
@118560 Channel: 4 Note on, E1 key =  28 ; velocity: 0
@118560 Channel: 4 Note on, F#1 key =  30 ; velocity: 127
@118620 Channel: 4 Note on, F#1 key =  30 ; velocity: 0
@118620 Channel: 4 Note on, E1 key =  28 ; velocity: 127
@118680 Channel: 4 Note on, E1 key =  28 ; velocity: 0
@118680 Channel: 4 Note on, E1 key =  28 ; velocity: 127
@118740 Channel: 4 Note on, E1 key =  28 ; velocity: 0
@118740 Channel: 4 Note on, G1 key =  31 ; velocity: 127
@118800 Channel: 4 Note on, G1 key =  31 ; velocity: 0
@118800 Channel: 4 Note on, E1 key =  28 ; velocity: 127
@118860 Channel: 4 Note on, E1 key =  28 ; velocity: 0
@118860 Channel: 4 Note on, E1 key =  28 ; velocity: 127
@118920 Channel: 4 Note on, E1 key =  28 ; velocity: 0
@118920 Channel: 4 Note on, A1 key =  33 ; velocity: 127
@118980 Channel: 4 Note on, A1 key =  33 ; velocity: 0
@118980 Channel: 4 Note on, G1 key =  31 ; velocity: 127
@119040 Channel: 4 Note on, G1 key =  31 ; velocity: 0
@119040 Channel: 4 Note on, E1 key =  28 ; velocity: 127
@119100 Channel: 4 Note on, E1 key =  28 ; velocity: 0
@119100 Channel: 4 Note on, E1 key =  28 ; velocity: 127
@119160 Channel: 4 Note on, E1 key =  28 ; velocity: 0
@119160 Channel: 4 Note on, E1 key =  28 ; velocity: 127
@119220 Channel: 4 Note on, E1 key =  28 ; velocity: 0
@119220 Channel: 4 Note on, E1 key =  28 ; velocity: 127
@119280 Channel: 4 Note on, E1 key =  28 ; velocity: 0
@119280 Channel: 4 Note on, E1 key =  28 ; velocity: 127
@119340 Channel: 4 Note on, E1 key =  28 ; velocity: 0
@119340 Channel: 4 Note on, G1 key =  31 ; velocity: 127
@119400 Channel: 4 Note on, G1 key =  31 ; velocity: 0
@119400 Channel: 4 Note on, E1 key =  28 ; velocity: 127
@119460 Channel: 4 Note on, E1 key =  28 ; velocity: 0
@119460 Channel: 4 Note on, E1 key =  28 ; velocity: 127
@119520 Channel: 4 Note on, E1 key =  28 ; velocity: 0
@119520 Channel: 4 Note on, F#1 key =  30 ; velocity: 127
@119580 Channel: 4 Note on, F#1 key =  30 ; velocity: 0
@119580 Channel: 4 Note on, E1 key =  28 ; velocity: 127
@119640 Channel: 4 Note on, E1 key =  28 ; velocity: 0
@119640 Channel: 4 Note on, E1 key =  28 ; velocity: 127
@119700 Channel: 4 Note on, E1 key =  28 ; velocity: 0
@119700 Channel: 4 Note on, G1 key =  31 ; velocity: 127
@119760 Channel: 4 Note on, G1 key =  31 ; velocity: 0
@119760 Channel: 4 Note on, E1 key =  28 ; velocity: 127
@119820 Channel: 4 Note on, E1 key =  28 ; velocity: 0
@119820 Channel: 4 Note on, E1 key =  28 ; velocity: 127
@119880 Channel: 4 Note on, E1 key =  28 ; velocity: 0
@119880 Channel: 4 Note on, A1 key =  33 ; velocity: 127
@119940 Channel: 4 Note on, A1 key =  33 ; velocity: 0
@119940 Channel: 4 Note on, G1 key =  31 ; velocity: 127
@120000 Channel: 4 Note on, G1 key =  31 ; velocity: 0
@120000 Channel: 4 Note on, E1 key =  28 ; velocity: 127
@120060 Channel: 4 Note on, E1 key =  28 ; velocity: 0
@120060 Channel: 4 Note on, E1 key =  28 ; velocity: 127
@120120 Channel: 4 Note on, E1 key =  28 ; velocity: 0
@120120 Channel: 4 Note on, E1 key =  28 ; velocity: 127
@120180 Channel: 4 Note on, E1 key =  28 ; velocity: 0
@120180 Channel: 4 Note on, E1 key =  28 ; velocity: 127
@120240 Channel: 4 Note on, E1 key =  28 ; velocity: 0
@120240 Channel: 4 Note on, E1 key =  28 ; velocity: 127
@120300 Channel: 4 Note on, E1 key =  28 ; velocity: 0
@120300 Channel: 4 Note on, G1 key =  31 ; velocity: 127
@120360 Channel: 4 Note on, G1 key =  31 ; velocity: 0
@120360 Channel: 4 Note on, E1 key =  28 ; velocity: 127
@120420 Channel: 4 Note on, E1 key =  28 ; velocity: 0
@120420 Channel: 4 Note on, E1 key =  28 ; velocity: 127
@120480 Channel: 4 Note on, E1 key =  28 ; velocity: 0
@120480 Channel: 4 Note on, F#1 key =  30 ; velocity: 127
@120540 Channel: 4 Note on, F#1 key =  30 ; velocity: 0
@120540 Channel: 4 Note on, E1 key =  28 ; velocity: 127
@120600 Channel: 4 Note on, E1 key =  28 ; velocity: 0
@120600 Channel: 4 Note on, E1 key =  28 ; velocity: 127
@120660 Channel: 4 Note on, E1 key =  28 ; velocity: 0
@120660 Channel: 4 Note on, G1 key =  31 ; velocity: 127
@120720 Channel: 4 Note on, G1 key =  31 ; velocity: 0
@120720 Channel: 4 Note on, E1 key =  28 ; velocity: 127
@120780 Channel: 4 Note on, E1 key =  28 ; velocity: 0
@120780 Channel: 4 Note on, E1 key =  28 ; velocity: 127
@120840 Channel: 4 Note on, E1 key =  28 ; velocity: 0
@120840 Channel: 4 Note on, A1 key =  33 ; velocity: 127
@120900 Channel: 4 Note on, A1 key =  33 ; velocity: 0
@120900 Channel: 4 Note on, G1 key =  31 ; velocity: 127
@120960 Channel: 4 Note on, G1 key =  31 ; velocity: 0
@120960 Channel: 4 Note on, E1 key =  28 ; velocity: 127
@121020 Channel: 4 Note on, E1 key =  28 ; velocity: 0
@121020 Channel: 4 Note on, E1 key =  28 ; velocity: 127
@121080 Channel: 4 Note on, E1 key =  28 ; velocity: 0
@121080 Channel: 4 Note on, E1 key =  28 ; velocity: 127
@121140 Channel: 4 Note on, E1 key =  28 ; velocity: 0
@121140 Channel: 4 Note on, E1 key =  28 ; velocity: 127
@121200 Channel: 4 Note on, E1 key =  28 ; velocity: 0
@121200 Channel: 4 Note on, E1 key =  28 ; velocity: 127
@121260 Channel: 4 Note on, E1 key =  28 ; velocity: 0
@121260 Channel: 4 Note on, G1 key =  31 ; velocity: 127
@121320 Channel: 4 Note on, G1 key =  31 ; velocity: 0
@121320 Channel: 4 Note on, E1 key =  28 ; velocity: 127
@121380 Channel: 4 Note on, E1 key =  28 ; velocity: 0
@121380 Channel: 4 Note on, E1 key =  28 ; velocity: 127
@121440 Channel: 4 Note on, E1 key =  28 ; velocity: 0
@121440 Channel: 4 Note on, F#1 key =  30 ; velocity: 127
@121500 Channel: 4 Note on, F#1 key =  30 ; velocity: 0
@121500 Channel: 4 Note on, E1 key =  28 ; velocity: 127
@121560 Channel: 4 Note on, E1 key =  28 ; velocity: 0
@121560 Channel: 4 Note on, E1 key =  28 ; velocity: 127
@121620 Channel: 4 Note on, E1 key =  28 ; velocity: 0
@121620 Channel: 4 Note on, G1 key =  31 ; velocity: 127
@121680 Channel: 4 Note on, G1 key =  31 ; velocity: 0
@121680 Channel: 4 Note on, E1 key =  28 ; velocity: 127
@121740 Channel: 4 Note on, E1 key =  28 ; velocity: 0
@121740 Channel: 4 Note on, E1 key =  28 ; velocity: 127
@121800 Channel: 4 Note on, E1 key =  28 ; velocity: 0
@121800 Channel: 4 Note on, A1 key =  33 ; velocity: 127
@121860 Channel: 4 Note on, A1 key =  33 ; velocity: 0
@121860 Channel: 4 Note on, G1 key =  31 ; velocity: 127
@121920 Channel: 4 Note on, G1 key =  31 ; velocity: 0
@121920 Channel: 4 Note on, E1 key =  28 ; velocity: 127
@121980 Channel: 4 Note on, E1 key =  28 ; velocity: 0
@121980 Channel: 4 Note on, E1 key =  28 ; velocity: 127
@122040 Channel: 4 Note on, E1 key =  28 ; velocity: 0
@122040 Channel: 4 Note on, E1 key =  28 ; velocity: 127
@122160 Channel: 4 Note on, E1 key =  28 ; velocity: 0
@122520 Channel: 4 Note on, E1 key =  28 ; velocity: 127
@122640 Channel: 4 Note on, E1 key =  28 ; velocity: 0
@123000 Channel: 4 Note on, E1 key =  28 ; velocity: 127
@123120 Channel: 4 Note on, E1 key =  28 ; velocity: 0
@123480 Channel: 4 Note on, E1 key =  28 ; velocity: 127
@123540 Channel: 4 Note on, E1 key =  28 ; velocity: 0
@123540 Channel: 4 Note on, E1 key =  28 ; velocity: 127
@123600 Channel: 4 Note on, E1 key =  28 ; velocity: 0
@123600 Channel: 4 Note on, E1 key =  28 ; velocity: 127
@123660 Channel: 4 Note on, E1 key =  28 ; velocity: 0
@123660 Channel: 4 Note on, E1 key =  28 ; velocity: 127
@123720 Channel: 4 Note on, E1 key =  28 ; velocity: 0
@123720 Channel: 4 Note on, E2 key =  40 ; velocity: 127
@123840 Channel: 4 Note on, E2 key =  40 ; velocity: 0
@123840 Other Message: class javax.sound.midi.Track$ImmutableEndOfTrack

Track 7: size = 6328
@0 Other Message: class javax.sound.midi.MetaMessage

@0 Other Message: class javax.sound.midi.MetaMessage

@2880 Channel: 9 Command: 176

@2880 Channel: 9 Note on, C2 key =  36 ; velocity: 127
@2880 Channel: 9 Note on, F#2 key =  42 ; velocity: 127
@2940 Channel: 9 Note on, C2 key =  36 ; velocity: 0
@2940 Channel: 9 Note on, F#2 key =  42 ; velocity: 0
@2940 Channel: 9 Note on, C2 key =  36 ; velocity: 127
@2940 Channel: 9 Note on, F#2 key =  42 ; velocity: 127
@3000 Channel: 9 Note on, C2 key =  36 ; velocity: 0
@3000 Channel: 9 Note on, F#2 key =  42 ; velocity: 0
@3000 Channel: 9 Note on, C2 key =  36 ; velocity: 127
@3000 Channel: 9 Note on, F#2 key =  42 ; velocity: 127
@3060 Channel: 9 Note on, C2 key =  36 ; velocity: 0
@3060 Channel: 9 Note on, F#2 key =  42 ; velocity: 0
@3060 Channel: 9 Note on, C2 key =  36 ; velocity: 127
@3060 Channel: 9 Note on, F#2 key =  42 ; velocity: 127
@3120 Channel: 9 Note on, C2 key =  36 ; velocity: 0
@3120 Channel: 9 Note on, F#2 key =  42 ; velocity: 0
@3120 Channel: 9 Note on, C2 key =  36 ; velocity: 127
@3120 Channel: 9 Note on, F#2 key =  42 ; velocity: 127
@3180 Channel: 9 Note on, C2 key =  36 ; velocity: 0
@3180 Channel: 9 Note on, F#2 key =  42 ; velocity: 0
@3180 Channel: 9 Note on, C2 key =  36 ; velocity: 127
@3180 Channel: 9 Note on, F#2 key =  42 ; velocity: 127
@3240 Channel: 9 Note on, C2 key =  36 ; velocity: 0
@3240 Channel: 9 Note on, F#2 key =  42 ; velocity: 0
@3240 Channel: 9 Note on, C2 key =  36 ; velocity: 127
@3240 Channel: 9 Note on, D2 key =  38 ; velocity: 127
@3240 Channel: 9 Note on, F#2 key =  42 ; velocity: 127
@3300 Channel: 9 Note on, C2 key =  36 ; velocity: 0
@3300 Channel: 9 Note on, D2 key =  38 ; velocity: 0
@3300 Channel: 9 Note on, F#2 key =  42 ; velocity: 0
@3300 Channel: 9 Note on, C2 key =  36 ; velocity: 127
@3300 Channel: 9 Note on, D2 key =  38 ; velocity: 127
@3300 Channel: 9 Note on, F#2 key =  42 ; velocity: 127
@3360 Channel: 9 Note on, C2 key =  36 ; velocity: 0
@3360 Channel: 9 Note on, D2 key =  38 ; velocity: 0
@3360 Channel: 9 Note on, F#2 key =  42 ; velocity: 0
@3360 Channel: 9 Note on, C2 key =  36 ; velocity: 127
@3360 Channel: 9 Note on, D2 key =  38 ; velocity: 127
@3360 Channel: 9 Note on, F#2 key =  42 ; velocity: 127
@3420 Channel: 9 Note on, C2 key =  36 ; velocity: 0
@3420 Channel: 9 Note on, D2 key =  38 ; velocity: 0
@3420 Channel: 9 Note on, F#2 key =  42 ; velocity: 0
@3420 Channel: 9 Note on, B1 key =  35 ; velocity: 127
@3420 Channel: 9 Note on, D2 key =  38 ; velocity: 127
@3420 Channel: 9 Note on, F#2 key =  42 ; velocity: 127
@3480 Channel: 9 Note on, B1 key =  35 ; velocity: 0
@3480 Channel: 9 Note on, D2 key =  38 ; velocity: 0
@3480 Channel: 9 Note on, F#2 key =  42 ; velocity: 0
@3480 Channel: 9 Note on, D2 key =  38 ; velocity: 127
@3510 Channel: 9 Note on, D2 key =  38 ; velocity: 0
@3510 Channel: 9 Note on, D2 key =  38 ; velocity: 127
@3540 Channel: 9 Note on, D2 key =  38 ; velocity: 0
@3540 Channel: 9 Note on, D2 key =  38 ; velocity: 127
@3570 Channel: 9 Note on, D2 key =  38 ; velocity: 0
@3570 Channel: 9 Note on, D2 key =  38 ; velocity: 127
@3600 Channel: 9 Note on, D2 key =  38 ; velocity: 0
@3600 Channel: 9 Note on, C2 key =  36 ; velocity: 127
@3600 Channel: 9 Note on, D2 key =  38 ; velocity: 127
@3660 Channel: 9 Note on, D2 key =  38 ; velocity: 0
@3660 Channel: 9 Note on, D2 key =  38 ; velocity: 127
@3690 Channel: 9 Note on, D2 key =  38 ; velocity: 0
@3690 Channel: 9 Note on, D2 key =  38 ; velocity: 127
@3720 Channel: 9 Note on, C2 key =  36 ; velocity: 0
@3720 Channel: 9 Note on, D2 key =  38 ; velocity: 0
@3720 Channel: 9 Note on, C2 key =  36 ; velocity: 127
@3720 Channel: 9 Note on, A3 key =  57 ; velocity: 127
@3780 Channel: 9 Note on, C2 key =  36 ; velocity: 0
@3780 Channel: 9 Note on, A3 key =  57 ; velocity: 0
@3780 Channel: 9 Note on, C2 key =  36 ; velocity: 127
@3780 Channel: 9 Note on, A3 key =  57 ; velocity: 127
@3840 Channel: 9 Note on, C2 key =  36 ; velocity: 0
@3840 Channel: 9 Note on, A3 key =  57 ; velocity: 0
@3840 Channel: 9 Note on, A3 key =  57 ; velocity: 127
@3840 Channel: 9 Note on, C2 key =  36 ; velocity: 127
@3960 Channel: 9 Note on, A3 key =  57 ; velocity: 0
@3960 Channel: 9 Note on, C2 key =  36 ; velocity: 0
@3960 Channel: 9 Note on, D2 key =  38 ; velocity: 127
@3960 Channel: 9 Note on, F#2 key =  42 ; velocity: 127
@4020 Channel: 9 Note on, D2 key =  38 ; velocity: 0
@4020 Channel: 9 Note on, F#2 key =  42 ; velocity: 0
@4020 Channel: 9 Note on, F#2 key =  42 ; velocity: 127
@4080 Channel: 9 Note on, F#2 key =  42 ; velocity: 0
@4080 Channel: 9 Note on, F#2 key =  42 ; velocity: 127
@4140 Channel: 9 Note on, F#2 key =  42 ; velocity: 0
@4140 Channel: 9 Note on, C2 key =  36 ; velocity: 127
@4140 Channel: 9 Note on, F#2 key =  42 ; velocity: 127
@4200 Channel: 9 Note on, C2 key =  36 ; velocity: 0
@4200 Channel: 9 Note on, F#2 key =  42 ; velocity: 0
@4200 Channel: 9 Note on, D2 key =  38 ; velocity: 127
@4200 Channel: 9 Note on, F#2 key =  42 ; velocity: 127
@4260 Channel: 9 Note on, D2 key =  38 ; velocity: 0
@4260 Channel: 9 Note on, F#2 key =  42 ; velocity: 0
@4260 Channel: 9 Note on, C2 key =  36 ; velocity: 127
@4260 Channel: 9 Note on, F#2 key =  42 ; velocity: 127
@4320 Channel: 9 Note on, C2 key =  36 ; velocity: 0
@4320 Channel: 9 Note on, F#2 key =  42 ; velocity: 0
@4320 Channel: 9 Note on, F#2 key =  42 ; velocity: 127
@4380 Channel: 9 Note on, F#2 key =  42 ; velocity: 0
@4380 Channel: 9 Note on, C2 key =  36 ; velocity: 127
@4380 Channel: 9 Note on, F#2 key =  42 ; velocity: 127
@4440 Channel: 9 Note on, C2 key =  36 ; velocity: 0
@4440 Channel: 9 Note on, F#2 key =  42 ; velocity: 0
@4440 Channel: 9 Note on, D2 key =  38 ; velocity: 127
@4440 Channel: 9 Note on, F#2 key =  42 ; velocity: 127
@4500 Channel: 9 Note on, D2 key =  38 ; velocity: 0
@4500 Channel: 9 Note on, F#2 key =  42 ; velocity: 0
@4500 Channel: 9 Note on, F#2 key =  42 ; velocity: 127
@4560 Channel: 9 Note on, F#2 key =  42 ; velocity: 0
@4560 Channel: 9 Note on, C2 key =  36 ; velocity: 127
@4560 Channel: 9 Note on, F#2 key =  42 ; velocity: 127
@4620 Channel: 9 Note on, C2 key =  36 ; velocity: 0
@4620 Channel: 9 Note on, F#2 key =  42 ; velocity: 0
@4620 Channel: 9 Note on, C2 key =  36 ; velocity: 127
@4620 Channel: 9 Note on, F#2 key =  42 ; velocity: 127
@4640 Channel: 9 Note on, C2 key =  36 ; velocity: 0
@4640 Channel: 9 Note on, C2 key =  36 ; velocity: 127
@4660 Channel: 9 Note on, C2 key =  36 ; velocity: 0
@4660 Channel: 9 Note on, C2 key =  36 ; velocity: 127
@4680 Channel: 9 Note on, F#2 key =  42 ; velocity: 0
@4680 Channel: 9 Note on, C2 key =  36 ; velocity: 0
@4680 Channel: 9 Note on, D2 key =  38 ; velocity: 127
@4680 Channel: 9 Note on, F#2 key =  42 ; velocity: 127
@4740 Channel: 9 Note on, D2 key =  38 ; velocity: 0
@4740 Channel: 9 Note on, F#2 key =  42 ; velocity: 0
@4740 Channel: 9 Note on, C2 key =  36 ; velocity: 127
@4740 Channel: 9 Note on, A3 key =  57 ; velocity: 127
@4800 Channel: 9 Note on, C2 key =  36 ; velocity: 0
@4800 Channel: 9 Note on, A3 key =  57 ; velocity: 0
@4800 Channel: 9 Note on, C2 key =  36 ; velocity: 127
@4800 Channel: 9 Note on, A3 key =  57 ; velocity: 127
@4920 Channel: 9 Note on, C2 key =  36 ; velocity: 0
@4920 Channel: 9 Note on, A3 key =  57 ; velocity: 0
@4920 Channel: 9 Note on, D2 key =  38 ; velocity: 127
@4920 Channel: 9 Note on, F#2 key =  42 ; velocity: 127
@4980 Channel: 9 Note on, D2 key =  38 ; velocity: 0
@4980 Channel: 9 Note on, F#2 key =  42 ; velocity: 0
@4980 Channel: 9 Note on, F#2 key =  42 ; velocity: 127
@5040 Channel: 9 Note on, F#2 key =  42 ; velocity: 0
@5040 Channel: 9 Note on, F#2 key =  42 ; velocity: 127
@5100 Channel: 9 Note on, F#2 key =  42 ; velocity: 0
@5100 Channel: 9 Note on, C2 key =  36 ; velocity: 127
@5100 Channel: 9 Note on, F#2 key =  42 ; velocity: 127
@5160 Channel: 9 Note on, C2 key =  36 ; velocity: 0
@5160 Channel: 9 Note on, F#2 key =  42 ; velocity: 0
@5160 Channel: 9 Note on, D2 key =  38 ; velocity: 127
@5160 Channel: 9 Note on, F#2 key =  42 ; velocity: 127
@5220 Channel: 9 Note on, D2 key =  38 ; velocity: 0
@5220 Channel: 9 Note on, F#2 key =  42 ; velocity: 0
@5220 Channel: 9 Note on, C2 key =  36 ; velocity: 127
@5220 Channel: 9 Note on, F#2 key =  42 ; velocity: 127
@5280 Channel: 9 Note on, C2 key =  36 ; velocity: 0
@5280 Channel: 9 Note on, F#2 key =  42 ; velocity: 0
@5280 Channel: 9 Note on, F#2 key =  42 ; velocity: 127
@5340 Channel: 9 Note on, F#2 key =  42 ; velocity: 0
@5340 Channel: 9 Note on, C2 key =  36 ; velocity: 127
@5340 Channel: 9 Note on, F#2 key =  42 ; velocity: 127
@5400 Channel: 9 Note on, C2 key =  36 ; velocity: 0
@5400 Channel: 9 Note on, F#2 key =  42 ; velocity: 0
@5400 Channel: 9 Note on, D2 key =  38 ; velocity: 127
@5400 Channel: 9 Note on, F#2 key =  42 ; velocity: 127
@5460 Channel: 9 Note on, D2 key =  38 ; velocity: 0
@5460 Channel: 9 Note on, F#2 key =  42 ; velocity: 0
@5460 Channel: 9 Note on, F#2 key =  42 ; velocity: 127
@5520 Channel: 9 Note on, F#2 key =  42 ; velocity: 0
@5520 Channel: 9 Note on, C2 key =  36 ; velocity: 127
@5520 Channel: 9 Note on, F#2 key =  42 ; velocity: 127
@5580 Channel: 9 Note on, C2 key =  36 ; velocity: 0
@5580 Channel: 9 Note on, F#2 key =  42 ; velocity: 0
@5580 Channel: 9 Note on, C2 key =  36 ; velocity: 127
@5580 Channel: 9 Note on, F#2 key =  42 ; velocity: 127
@5600 Channel: 9 Note on, C2 key =  36 ; velocity: 0
@5600 Channel: 9 Note on, C2 key =  36 ; velocity: 127
@5620 Channel: 9 Note on, C2 key =  36 ; velocity: 0
@5620 Channel: 9 Note on, C2 key =  36 ; velocity: 127
@5640 Channel: 9 Note on, F#2 key =  42 ; velocity: 0
@5640 Channel: 9 Note on, C2 key =  36 ; velocity: 0
@5640 Channel: 9 Note on, D2 key =  38 ; velocity: 127
@5640 Channel: 9 Note on, F#2 key =  42 ; velocity: 127
@5700 Channel: 9 Note on, D2 key =  38 ; velocity: 0
@5700 Channel: 9 Note on, F#2 key =  42 ; velocity: 0
@5700 Channel: 9 Note on, C2 key =  36 ; velocity: 127
@5700 Channel: 9 Note on, A3 key =  57 ; velocity: 127
@5760 Channel: 9 Note on, C2 key =  36 ; velocity: 0
@5760 Channel: 9 Note on, A3 key =  57 ; velocity: 0
@5760 Channel: 9 Note on, C2 key =  36 ; velocity: 127
@5760 Channel: 9 Note on, A3 key =  57 ; velocity: 127
@5880 Channel: 9 Note on, C2 key =  36 ; velocity: 0
@5880 Channel: 9 Note on, A3 key =  57 ; velocity: 0
@5880 Channel: 9 Note on, D2 key =  38 ; velocity: 127
@5880 Channel: 9 Note on, F#2 key =  42 ; velocity: 127
@5940 Channel: 9 Note on, D2 key =  38 ; velocity: 0
@5940 Channel: 9 Note on, F#2 key =  42 ; velocity: 0
@5940 Channel: 9 Note on, F#2 key =  42 ; velocity: 127
@6000 Channel: 9 Note on, F#2 key =  42 ; velocity: 0
@6000 Channel: 9 Note on, F#2 key =  42 ; velocity: 127
@6060 Channel: 9 Note on, F#2 key =  42 ; velocity: 0
@6060 Channel: 9 Note on, C2 key =  36 ; velocity: 127
@6060 Channel: 9 Note on, F#2 key =  42 ; velocity: 127
@6120 Channel: 9 Note on, C2 key =  36 ; velocity: 0
@6120 Channel: 9 Note on, F#2 key =  42 ; velocity: 0
@6120 Channel: 9 Note on, D2 key =  38 ; velocity: 127
@6120 Channel: 9 Note on, F#2 key =  42 ; velocity: 127
@6180 Channel: 9 Note on, D2 key =  38 ; velocity: 0
@6180 Channel: 9 Note on, F#2 key =  42 ; velocity: 0
@6180 Channel: 9 Note on, C2 key =  36 ; velocity: 127
@6180 Channel: 9 Note on, F#2 key =  42 ; velocity: 127
@6240 Channel: 9 Note on, C2 key =  36 ; velocity: 0
@6240 Channel: 9 Note on, F#2 key =  42 ; velocity: 0
@6240 Channel: 9 Note on, F#2 key =  42 ; velocity: 127
@6300 Channel: 9 Note on, F#2 key =  42 ; velocity: 0
@6300 Channel: 9 Note on, C2 key =  36 ; velocity: 127
@6300 Channel: 9 Note on, F#2 key =  42 ; velocity: 127
@6360 Channel: 9 Note on, C2 key =  36 ; velocity: 0
@6360 Channel: 9 Note on, F#2 key =  42 ; velocity: 0
@6360 Channel: 9 Note on, D2 key =  38 ; velocity: 127
@6360 Channel: 9 Note on, F#2 key =  42 ; velocity: 127
@6420 Channel: 9 Note on, D2 key =  38 ; velocity: 0
@6420 Channel: 9 Note on, F#2 key =  42 ; velocity: 0
@6420 Channel: 9 Note on, F#2 key =  42 ; velocity: 127
@6480 Channel: 9 Note on, F#2 key =  42 ; velocity: 0
@6480 Channel: 9 Note on, C2 key =  36 ; velocity: 127
@6480 Channel: 9 Note on, F#2 key =  42 ; velocity: 127
@6540 Channel: 9 Note on, C2 key =  36 ; velocity: 0
@6540 Channel: 9 Note on, F#2 key =  42 ; velocity: 0
@6540 Channel: 9 Note on, C2 key =  36 ; velocity: 127
@6540 Channel: 9 Note on, F#2 key =  42 ; velocity: 127
@6560 Channel: 9 Note on, C2 key =  36 ; velocity: 0
@6560 Channel: 9 Note on, C2 key =  36 ; velocity: 127
@6580 Channel: 9 Note on, C2 key =  36 ; velocity: 0
@6580 Channel: 9 Note on, C2 key =  36 ; velocity: 127
@6600 Channel: 9 Note on, F#2 key =  42 ; velocity: 0
@6600 Channel: 9 Note on, C2 key =  36 ; velocity: 0
@6600 Channel: 9 Note on, D2 key =  38 ; velocity: 127
@6600 Channel: 9 Note on, F#2 key =  42 ; velocity: 127
@6660 Channel: 9 Note on, D2 key =  38 ; velocity: 0
@6660 Channel: 9 Note on, F#2 key =  42 ; velocity: 0
@6660 Channel: 9 Note on, C2 key =  36 ; velocity: 127
@6660 Channel: 9 Note on, A3 key =  57 ; velocity: 127
@6720 Channel: 9 Note on, C2 key =  36 ; velocity: 0
@6720 Channel: 9 Note on, A3 key =  57 ; velocity: 0
@6720 Channel: 9 Note on, C2 key =  36 ; velocity: 127
@6720 Channel: 9 Note on, A3 key =  57 ; velocity: 127
@6840 Channel: 9 Note on, C2 key =  36 ; velocity: 0
@6840 Channel: 9 Note on, A3 key =  57 ; velocity: 0
@6840 Channel: 9 Note on, D2 key =  38 ; velocity: 127
@6840 Channel: 9 Note on, F#2 key =  42 ; velocity: 127
@6900 Channel: 9 Note on, D2 key =  38 ; velocity: 0
@6900 Channel: 9 Note on, F#2 key =  42 ; velocity: 0
@6900 Channel: 9 Note on, F#2 key =  42 ; velocity: 127
@6960 Channel: 9 Note on, F#2 key =  42 ; velocity: 0
@6960 Channel: 9 Note on, F#2 key =  42 ; velocity: 127
@7020 Channel: 9 Note on, F#2 key =  42 ; velocity: 0
@7020 Channel: 9 Note on, C2 key =  36 ; velocity: 127
@7020 Channel: 9 Note on, F#2 key =  42 ; velocity: 127
@7080 Channel: 9 Note on, C2 key =  36 ; velocity: 0
@7080 Channel: 9 Note on, F#2 key =  42 ; velocity: 0
@7080 Channel: 9 Note on, D2 key =  38 ; velocity: 127
@7080 Channel: 9 Note on, F#2 key =  42 ; velocity: 127
@7140 Channel: 9 Note on, D2 key =  38 ; velocity: 0
@7140 Channel: 9 Note on, F#2 key =  42 ; velocity: 0
@7140 Channel: 9 Note on, C2 key =  36 ; velocity: 127
@7140 Channel: 9 Note on, F#2 key =  42 ; velocity: 127
@7200 Channel: 9 Note on, C2 key =  36 ; velocity: 0
@7200 Channel: 9 Note on, F#2 key =  42 ; velocity: 0
@7200 Channel: 9 Note on, F#2 key =  42 ; velocity: 127
@7260 Channel: 9 Note on, F#2 key =  42 ; velocity: 0
@7260 Channel: 9 Note on, C2 key =  36 ; velocity: 127
@7260 Channel: 9 Note on, F#2 key =  42 ; velocity: 127
@7320 Channel: 9 Note on, C2 key =  36 ; velocity: 0
@7320 Channel: 9 Note on, F#2 key =  42 ; velocity: 0
@7320 Channel: 9 Note on, D2 key =  38 ; velocity: 127
@7320 Channel: 9 Note on, F#2 key =  42 ; velocity: 127
@7380 Channel: 9 Note on, D2 key =  38 ; velocity: 0
@7380 Channel: 9 Note on, F#2 key =  42 ; velocity: 0
@7380 Channel: 9 Note on, F#2 key =  42 ; velocity: 127
@7440 Channel: 9 Note on, F#2 key =  42 ; velocity: 0
@7440 Channel: 9 Note on, C2 key =  36 ; velocity: 127
@7440 Channel: 9 Note on, F#2 key =  42 ; velocity: 127
@7500 Channel: 9 Note on, C2 key =  36 ; velocity: 0
@7500 Channel: 9 Note on, F#2 key =  42 ; velocity: 0
@7500 Channel: 9 Note on, C2 key =  36 ; velocity: 127
@7500 Channel: 9 Note on, F#2 key =  42 ; velocity: 127
@7520 Channel: 9 Note on, C2 key =  36 ; velocity: 0
@7520 Channel: 9 Note on, C2 key =  36 ; velocity: 127
@7540 Channel: 9 Note on, C2 key =  36 ; velocity: 0
@7540 Channel: 9 Note on, C2 key =  36 ; velocity: 127
@7560 Channel: 9 Note on, F#2 key =  42 ; velocity: 0
@7560 Channel: 9 Note on, C2 key =  36 ; velocity: 0
@7560 Channel: 9 Note on, D2 key =  38 ; velocity: 127
@7560 Channel: 9 Note on, F#2 key =  42 ; velocity: 127
@7620 Channel: 9 Note on, D2 key =  38 ; velocity: 0
@7620 Channel: 9 Note on, F#2 key =  42 ; velocity: 0
@7620 Channel: 9 Note on, C2 key =  36 ; velocity: 127
@7620 Channel: 9 Note on, A3 key =  57 ; velocity: 127
@7680 Channel: 9 Note on, C2 key =  36 ; velocity: 0
@7680 Channel: 9 Note on, A3 key =  57 ; velocity: 0
@7680 Channel: 9 Note on, C2 key =  36 ; velocity: 127
@7680 Channel: 9 Note on, A3 key =  57 ; velocity: 127
@7800 Channel: 9 Note on, C2 key =  36 ; velocity: 0
@7800 Channel: 9 Note on, A3 key =  57 ; velocity: 0
@8160 Channel: 9 Note on, C2 key =  36 ; velocity: 127
@8160 Channel: 9 Note on, A3 key =  57 ; velocity: 127
@8280 Channel: 9 Note on, C2 key =  36 ; velocity: 0
@8280 Channel: 9 Note on, A3 key =  57 ; velocity: 0
@10200 Channel: 9 Note on, C2 key =  36 ; velocity: 127
@10200 Channel: 9 Note on, A3 key =  57 ; velocity: 127
@10320 Channel: 9 Note on, C2 key =  36 ; velocity: 0
@10320 Channel: 9 Note on, A3 key =  57 ; velocity: 0
@10440 Channel: 9 Note on, C2 key =  36 ; velocity: 127
@10440 Channel: 9 Note on, A3 key =  57 ; velocity: 127
@10560 Channel: 9 Note on, C2 key =  36 ; velocity: 0
@10560 Channel: 9 Note on, A3 key =  57 ; velocity: 0
@10680 Channel: 9 Note on, C2 key =  36 ; velocity: 127
@10680 Channel: 9 Note on, A3 key =  57 ; velocity: 127
@10800 Channel: 9 Note on, C2 key =  36 ; velocity: 0
@10800 Channel: 9 Note on, A3 key =  57 ; velocity: 0
@10920 Channel: 9 Note on, A3 key =  57 ; velocity: 127
@10920 Channel: 9 Note on, C2 key =  36 ; velocity: 127
@11040 Channel: 9 Note on, A3 key =  57 ; velocity: 0
@11040 Channel: 9 Note on, C2 key =  36 ; velocity: 0
@11040 Channel: 9 Note on, C2 key =  36 ; velocity: 127
@11040 Channel: 9 Note on, F#2 key =  42 ; velocity: 127
@11100 Channel: 9 Note on, C2 key =  36 ; velocity: 0
@11100 Channel: 9 Note on, F#2 key =  42 ; velocity: 0
@11100 Channel: 9 Note on, C2 key =  36 ; velocity: 127
@11100 Channel: 9 Note on, F#2 key =  42 ; velocity: 127
@11160 Channel: 9 Note on, C2 key =  36 ; velocity: 0
@11160 Channel: 9 Note on, F#2 key =  42 ; velocity: 0
@11160 Channel: 9 Note on, C2 key =  36 ; velocity: 127
@11160 Channel: 9 Note on, F#2 key =  42 ; velocity: 127
@11220 Channel: 9 Note on, C2 key =  36 ; velocity: 0
@11220 Channel: 9 Note on, F#2 key =  42 ; velocity: 0
@11220 Channel: 9 Note on, C2 key =  36 ; velocity: 127
@11220 Channel: 9 Note on, F#2 key =  42 ; velocity: 127
@11280 Channel: 9 Note on, C2 key =  36 ; velocity: 0
@11280 Channel: 9 Note on, F#2 key =  42 ; velocity: 0
@11280 Channel: 9 Note on, C2 key =  36 ; velocity: 127
@11280 Channel: 9 Note on, F#2 key =  42 ; velocity: 127
@11340 Channel: 9 Note on, C2 key =  36 ; velocity: 0
@11340 Channel: 9 Note on, F#2 key =  42 ; velocity: 0
@11340 Channel: 9 Note on, C2 key =  36 ; velocity: 127
@11340 Channel: 9 Note on, F#2 key =  42 ; velocity: 127
@11400 Channel: 9 Note on, C2 key =  36 ; velocity: 0
@11400 Channel: 9 Note on, F#2 key =  42 ; velocity: 0
@11400 Channel: 9 Note on, C2 key =  36 ; velocity: 127
@11400 Channel: 9 Note on, F#2 key =  42 ; velocity: 127
@11460 Channel: 9 Note on, C2 key =  36 ; velocity: 0
@11460 Channel: 9 Note on, F#2 key =  42 ; velocity: 0
@11460 Channel: 9 Note on, C2 key =  36 ; velocity: 127
@11460 Channel: 9 Note on, F#2 key =  42 ; velocity: 127
@11520 Channel: 9 Note on, C2 key =  36 ; velocity: 0
@11520 Channel: 9 Note on, F#2 key =  42 ; velocity: 0
@11520 Channel: 9 Note on, C2 key =  36 ; velocity: 127
@11520 Channel: 9 Note on, D2 key =  38 ; velocity: 127
@11550 Channel: 9 Note on, D2 key =  38 ; velocity: 0
@11550 Channel: 9 Note on, D2 key =  38 ; velocity: 127
@11580 Channel: 9 Note on, D2 key =  38 ; velocity: 0
@11580 Channel: 9 Note on, D2 key =  38 ; velocity: 127
@11610 Channel: 9 Note on, D2 key =  38 ; velocity: 0
@11610 Channel: 9 Note on, D2 key =  38 ; velocity: 127
@11640 Channel: 9 Note on, C2 key =  36 ; velocity: 0
@11640 Channel: 9 Note on, D2 key =  38 ; velocity: 0
@11640 Channel: 9 Note on, C2 key =  36 ; velocity: 127
@11640 Channel: 9 Note on, D2 key =  38 ; velocity: 127
@11670 Channel: 9 Note on, D2 key =  38 ; velocity: 0
@11670 Channel: 9 Note on, D2 key =  38 ; velocity: 127
@11700 Channel: 9 Note on, D2 key =  38 ; velocity: 0
@11700 Channel: 9 Note on, D2 key =  38 ; velocity: 127
@11730 Channel: 9 Note on, D2 key =  38 ; velocity: 0
@11730 Channel: 9 Note on, D2 key =  38 ; velocity: 127
@11760 Channel: 9 Note on, C2 key =  36 ; velocity: 0
@11760 Channel: 9 Note on, D2 key =  38 ; velocity: 0
@11760 Channel: 9 Note on, C2 key =  36 ; velocity: 127
@11760 Channel: 9 Note on, D2 key =  38 ; velocity: 127
@11790 Channel: 9 Note on, D2 key =  38 ; velocity: 0
@11790 Channel: 9 Note on, D2 key =  38 ; velocity: 127
@11820 Channel: 9 Note on, D2 key =  38 ; velocity: 0
@11820 Channel: 9 Note on, D2 key =  38 ; velocity: 127
@11850 Channel: 9 Note on, D2 key =  38 ; velocity: 0
@11850 Channel: 9 Note on, D2 key =  38 ; velocity: 127
@11880 Channel: 9 Note on, C2 key =  36 ; velocity: 0
@11880 Channel: 9 Note on, D2 key =  38 ; velocity: 0
@11880 Channel: 9 Note on, C2 key =  36 ; velocity: 127
@11880 Channel: 9 Note on, D2 key =  38 ; velocity: 127
@11910 Channel: 9 Note on, D2 key =  38 ; velocity: 0
@11910 Channel: 9 Note on, D2 key =  38 ; velocity: 127
@11940 Channel: 9 Note on, D2 key =  38 ; velocity: 0
@11940 Channel: 9 Note on, D2 key =  38 ; velocity: 127
@11970 Channel: 9 Note on, D2 key =  38 ; velocity: 0
@11970 Channel: 9 Note on, D2 key =  38 ; velocity: 127
@12000 Channel: 9 Note on, C2 key =  36 ; velocity: 0
@12000 Channel: 9 Note on, D2 key =  38 ; velocity: 0
@12000 Channel: 9 Note on, C2 key =  36 ; velocity: 127
@12000 Channel: 9 Note on, A3 key =  57 ; velocity: 127
@12120 Channel: 9 Note on, C2 key =  36 ; velocity: 0
@12120 Channel: 9 Note on, A3 key =  57 ; velocity: 0
@12120 Channel: 9 Note on, D2 key =  38 ; velocity: 127
@12120 Channel: 9 Note on, A3 key =  57 ; velocity: 127
@12240 Channel: 9 Note on, D2 key =  38 ; velocity: 0
@12240 Channel: 9 Note on, A3 key =  57 ; velocity: 0
@12240 Channel: 9 Note on, C2 key =  36 ; velocity: 127
@12240 Channel: 9 Note on, F#2 key =  42 ; velocity: 127
@12300 Channel: 9 Note on, C2 key =  36 ; velocity: 0
@12300 Channel: 9 Note on, F#2 key =  42 ; velocity: 0
@12300 Channel: 9 Note on, C2 key =  36 ; velocity: 127
@12300 Channel: 9 Note on, F#2 key =  42 ; velocity: 127
@12320 Channel: 9 Note on, C2 key =  36 ; velocity: 0
@12320 Channel: 9 Note on, C2 key =  36 ; velocity: 127
@12340 Channel: 9 Note on, C2 key =  36 ; velocity: 0
@12340 Channel: 9 Note on, C2 key =  36 ; velocity: 127
@12360 Channel: 9 Note on, F#2 key =  42 ; velocity: 0
@12360 Channel: 9 Note on, C2 key =  36 ; velocity: 0
@12360 Channel: 9 Note on, D2 key =  38 ; velocity: 127
@12360 Channel: 9 Note on, F#2 key =  42 ; velocity: 127
@12420 Channel: 9 Note on, D2 key =  38 ; velocity: 0
@12420 Channel: 9 Note on, F#2 key =  42 ; velocity: 0
@12420 Channel: 9 Note on, C2 key =  36 ; velocity: 127
@12420 Channel: 9 Note on, F#2 key =  42 ; velocity: 127
@12480 Channel: 9 Note on, C2 key =  36 ; velocity: 0
@12480 Channel: 9 Note on, F#2 key =  42 ; velocity: 0
@12480 Channel: 9 Note on, F#2 key =  42 ; velocity: 127
@12480 Channel: 9 Note on, C2 key =  36 ; velocity: 127
@12540 Channel: 9 Note on, F#2 key =  42 ; velocity: 0
@12540 Channel: 9 Note on, F#2 key =  42 ; velocity: 127
@12600 Channel: 9 Note on, C2 key =  36 ; velocity: 0
@12600 Channel: 9 Note on, F#2 key =  42 ; velocity: 0
@12600 Channel: 9 Note on, D2 key =  38 ; velocity: 127
@12600 Channel: 9 Note on, F#2 key =  42 ; velocity: 127
@12660 Channel: 9 Note on, D2 key =  38 ; velocity: 0
@12660 Channel: 9 Note on, F#2 key =  42 ; velocity: 0
@12660 Channel: 9 Note on, F#2 key =  42 ; velocity: 127
@12720 Channel: 9 Note on, F#2 key =  42 ; velocity: 0
@12720 Channel: 9 Note on, C2 key =  36 ; velocity: 127
@12720 Channel: 9 Note on, F#2 key =  42 ; velocity: 127
@12780 Channel: 9 Note on, C2 key =  36 ; velocity: 0
@12780 Channel: 9 Note on, F#2 key =  42 ; velocity: 0
@12780 Channel: 9 Note on, C2 key =  36 ; velocity: 127
@12780 Channel: 9 Note on, F#2 key =  42 ; velocity: 127
@12800 Channel: 9 Note on, C2 key =  36 ; velocity: 0
@12800 Channel: 9 Note on, C2 key =  36 ; velocity: 127
@12820 Channel: 9 Note on, C2 key =  36 ; velocity: 0
@12820 Channel: 9 Note on, C2 key =  36 ; velocity: 127
@12840 Channel: 9 Note on, F#2 key =  42 ; velocity: 0
@12840 Channel: 9 Note on, C2 key =  36 ; velocity: 0
@12840 Channel: 9 Note on, D2 key =  38 ; velocity: 127
@12840 Channel: 9 Note on, F#2 key =  42 ; velocity: 127
@12900 Channel: 9 Note on, D2 key =  38 ; velocity: 0
@12900 Channel: 9 Note on, F#2 key =  42 ; velocity: 0
@12900 Channel: 9 Note on, C2 key =  36 ; velocity: 127
@12900 Channel: 9 Note on, F#2 key =  42 ; velocity: 127
@12960 Channel: 9 Note on, C2 key =  36 ; velocity: 0
@12960 Channel: 9 Note on, F#2 key =  42 ; velocity: 0
@12960 Channel: 9 Note on, F#2 key =  42 ; velocity: 127
@12960 Channel: 9 Note on, C2 key =  36 ; velocity: 127
@13020 Channel: 9 Note on, F#2 key =  42 ; velocity: 0
@13020 Channel: 9 Note on, F#2 key =  42 ; velocity: 127
@13080 Channel: 9 Note on, C2 key =  36 ; velocity: 0
@13080 Channel: 9 Note on, F#2 key =  42 ; velocity: 0
@13080 Channel: 9 Note on, D2 key =  38 ; velocity: 127
@13080 Channel: 9 Note on, F#2 key =  42 ; velocity: 127
@13140 Channel: 9 Note on, D2 key =  38 ; velocity: 0
@13140 Channel: 9 Note on, F#2 key =  42 ; velocity: 0
@13140 Channel: 9 Note on, F#2 key =  42 ; velocity: 127
@13200 Channel: 9 Note on, F#2 key =  42 ; velocity: 0
@13200 Channel: 9 Note on, C2 key =  36 ; velocity: 127
@13200 Channel: 9 Note on, F#2 key =  42 ; velocity: 127
@13260 Channel: 9 Note on, C2 key =  36 ; velocity: 0
@13260 Channel: 9 Note on, F#2 key =  42 ; velocity: 0
@13260 Channel: 9 Note on, C2 key =  36 ; velocity: 127
@13260 Channel: 9 Note on, F#2 key =  42 ; velocity: 127
@13280 Channel: 9 Note on, C2 key =  36 ; velocity: 0
@13280 Channel: 9 Note on, C2 key =  36 ; velocity: 127
@13300 Channel: 9 Note on, C2 key =  36 ; velocity: 0
@13300 Channel: 9 Note on, C2 key =  36 ; velocity: 127
@13320 Channel: 9 Note on, F#2 key =  42 ; velocity: 0
@13320 Channel: 9 Note on, C2 key =  36 ; velocity: 0
@13320 Channel: 9 Note on, D2 key =  38 ; velocity: 127
@13320 Channel: 9 Note on, F#2 key =  42 ; velocity: 127
@13380 Channel: 9 Note on, D2 key =  38 ; velocity: 0
@13380 Channel: 9 Note on, F#2 key =  42 ; velocity: 0
@13380 Channel: 9 Note on, F#2 key =  42 ; velocity: 127
@13440 Channel: 9 Note on, F#2 key =  42 ; velocity: 0
@13440 Channel: 9 Note on, C2 key =  36 ; velocity: 127
@13440 Channel: 9 Note on, F#2 key =  42 ; velocity: 127
@13500 Channel: 9 Note on, F#2 key =  42 ; velocity: 0
@13500 Channel: 9 Note on, F#2 key =  42 ; velocity: 127
@13555 Channel: 9 Note on, F#2 key =  42 ; velocity: 0
@13555 Channel: 9 Note on, D2 key =  38 ; velocity: 75
@13560 Channel: 9 Note on, C2 key =  36 ; velocity: 0
@13560 Channel: 9 Note on, D2 key =  38 ; velocity: 127
@13620 Channel: 9 Note on, D2 key =  38 ; velocity: 0
@13620 Channel: 9 Note on, D2 key =  38 ; velocity: 0
@13620 Channel: 9 Note on, D2 key =  38 ; velocity: 127
@13680 Channel: 9 Note on, D2 key =  38 ; velocity: 0
@13680 Channel: 9 Note on, A2 key =  45 ; velocity: 127
@13710 Channel: 9 Note on, A2 key =  45 ; velocity: 0
@13710 Channel: 9 Note on, A2 key =  45 ; velocity: 127
@13740 Channel: 9 Note on, A2 key =  45 ; velocity: 0
@13740 Channel: 9 Note on, A2 key =  45 ; velocity: 127
@13800 Channel: 9 Note on, A2 key =  45 ; velocity: 0
@13800 Channel: 9 Note on, B2 key =  47 ; velocity: 127
@13830 Channel: 9 Note on, B2 key =  47 ; velocity: 0
@13830 Channel: 9 Note on, B2 key =  47 ; velocity: 127
@13860 Channel: 9 Note on, B2 key =  47 ; velocity: 0
@13860 Channel: 9 Note on, B2 key =  47 ; velocity: 127
@13920 Channel: 9 Note on, B2 key =  47 ; velocity: 0
@13920 Channel: 9 Note on, C2 key =  36 ; velocity: 127
@13920 Channel: 9 Note on, A3 key =  57 ; velocity: 127
@14040 Channel: 9 Note on, C2 key =  36 ; velocity: 0
@14040 Channel: 9 Note on, A3 key =  57 ; velocity: 0
@14040 Channel: 9 Note on, F#2 key =  42 ; velocity: 127
@14040 Channel: 9 Note on, D2 key =  38 ; velocity: 127
@14100 Channel: 9 Note on, F#2 key =  42 ; velocity: 0
@14100 Channel: 9 Note on, D2 key =  38 ; velocity: 0
@14100 Channel: 9 Note on, F#2 key =  42 ; velocity: 127
@14160 Channel: 9 Note on, F#2 key =  42 ; velocity: 0
@14160 Channel: 9 Note on, C2 key =  36 ; velocity: 127
@14160 Channel: 9 Note on, F#2 key =  42 ; velocity: 127
@14220 Channel: 9 Note on, C2 key =  36 ; velocity: 0
@14220 Channel: 9 Note on, F#2 key =  42 ; velocity: 0
@14220 Channel: 9 Note on, C2 key =  36 ; velocity: 127
@14220 Channel: 9 Note on, F#2 key =  42 ; velocity: 127
@14240 Channel: 9 Note on, C2 key =  36 ; velocity: 0
@14240 Channel: 9 Note on, C2 key =  36 ; velocity: 127
@14260 Channel: 9 Note on, C2 key =  36 ; velocity: 0
@14260 Channel: 9 Note on, C2 key =  36 ; velocity: 127
@14280 Channel: 9 Note on, F#2 key =  42 ; velocity: 0
@14280 Channel: 9 Note on, C2 key =  36 ; velocity: 0
@14280 Channel: 9 Note on, D2 key =  38 ; velocity: 127
@14280 Channel: 9 Note on, F#2 key =  42 ; velocity: 127
@14340 Channel: 9 Note on, D2 key =  38 ; velocity: 0
@14340 Channel: 9 Note on, F#2 key =  42 ; velocity: 0
@14340 Channel: 9 Note on, C2 key =  36 ; velocity: 127
@14340 Channel: 9 Note on, F#2 key =  42 ; velocity: 127
@14400 Channel: 9 Note on, C2 key =  36 ; velocity: 0
@14400 Channel: 9 Note on, F#2 key =  42 ; velocity: 0
@14400 Channel: 9 Note on, F#2 key =  42 ; velocity: 127
@14400 Channel: 9 Note on, C2 key =  36 ; velocity: 127
@14460 Channel: 9 Note on, F#2 key =  42 ; velocity: 0
@14460 Channel: 9 Note on, F#2 key =  42 ; velocity: 127
@14520 Channel: 9 Note on, C2 key =  36 ; velocity: 0
@14520 Channel: 9 Note on, F#2 key =  42 ; velocity: 0
@14520 Channel: 9 Note on, D2 key =  38 ; velocity: 127
@14520 Channel: 9 Note on, F#2 key =  42 ; velocity: 127
@14580 Channel: 9 Note on, D2 key =  38 ; velocity: 0
@14580 Channel: 9 Note on, F#2 key =  42 ; velocity: 0
@14580 Channel: 9 Note on, F#2 key =  42 ; velocity: 127
@14640 Channel: 9 Note on, F#2 key =  42 ; velocity: 0
@14640 Channel: 9 Note on, C2 key =  36 ; velocity: 127
@14640 Channel: 9 Note on, F#2 key =  42 ; velocity: 127
@14700 Channel: 9 Note on, C2 key =  36 ; velocity: 0
@14700 Channel: 9 Note on, F#2 key =  42 ; velocity: 0
@14700 Channel: 9 Note on, C2 key =  36 ; velocity: 127
@14700 Channel: 9 Note on, F#2 key =  42 ; velocity: 127
@14720 Channel: 9 Note on, C2 key =  36 ; velocity: 0
@14720 Channel: 9 Note on, C2 key =  36 ; velocity: 127
@14740 Channel: 9 Note on, C2 key =  36 ; velocity: 0
@14740 Channel: 9 Note on, C2 key =  36 ; velocity: 127
@14760 Channel: 9 Note on, F#2 key =  42 ; velocity: 0
@14760 Channel: 9 Note on, C2 key =  36 ; velocity: 0
@14760 Channel: 9 Note on, D2 key =  38 ; velocity: 127
@14760 Channel: 9 Note on, F#2 key =  42 ; velocity: 127
@14820 Channel: 9 Note on, D2 key =  38 ; velocity: 0
@14820 Channel: 9 Note on, F#2 key =  42 ; velocity: 0
@14820 Channel: 9 Note on, C2 key =  36 ; velocity: 127
@14820 Channel: 9 Note on, F#2 key =  42 ; velocity: 127
@14880 Channel: 9 Note on, C2 key =  36 ; velocity: 0
@14880 Channel: 9 Note on, F#2 key =  42 ; velocity: 0
@14880 Channel: 9 Note on, C2 key =  36 ; velocity: 127
@14880 Channel: 9 Note on, F#2 key =  42 ; velocity: 127
@14940 Channel: 9 Note on, F#2 key =  42 ; velocity: 0
@14940 Channel: 9 Note on, F#2 key =  42 ; velocity: 127
@15000 Channel: 9 Note on, C2 key =  36 ; velocity: 0
@15000 Channel: 9 Note on, F#2 key =  42 ; velocity: 0
@15000 Channel: 9 Note on, D2 key =  38 ; velocity: 127
@15000 Channel: 9 Note on, A3 key =  57 ; velocity: 127
@15060 Channel: 9 Note on, D2 key =  38 ; velocity: 0
@15060 Channel: 9 Note on, A3 key =  57 ; velocity: 0
@15060 Channel: 9 Note on, F#2 key =  42 ; velocity: 127
@15120 Channel: 9 Note on, F#2 key =  42 ; velocity: 0
@15120 Channel: 9 Note on, C2 key =  36 ; velocity: 127
@15120 Channel: 9 Note on, F#2 key =  42 ; velocity: 127
@15180 Channel: 9 Note on, C2 key =  36 ; velocity: 0
@15180 Channel: 9 Note on, F#2 key =  42 ; velocity: 0
@15180 Channel: 9 Note on, C2 key =  36 ; velocity: 127
@15180 Channel: 9 Note on, F#2 key =  42 ; velocity: 127
@15200 Channel: 9 Note on, C2 key =  36 ; velocity: 0
@15200 Channel: 9 Note on, C2 key =  36 ; velocity: 127
@15220 Channel: 9 Note on, C2 key =  36 ; velocity: 0
@15220 Channel: 9 Note on, C2 key =  36 ; velocity: 127
@15240 Channel: 9 Note on, F#2 key =  42 ; velocity: 0
@15240 Channel: 9 Note on, C2 key =  36 ; velocity: 0
@15240 Channel: 9 Note on, A3 key =  57 ; velocity: 127
@15240 Channel: 9 Note on, D2 key =  38 ; velocity: 127
@15300 Channel: 9 Note on, A3 key =  57 ; velocity: 0
@15300 Channel: 9 Note on, D2 key =  38 ; velocity: 0
@15300 Channel: 9 Note on, F#2 key =  42 ; velocity: 127
@15360 Channel: 9 Note on, F#2 key =  42 ; velocity: 0
@15360 Channel: 9 Note on, F#2 key =  42 ; velocity: 127
@15360 Channel: 9 Note on, C2 key =  36 ; velocity: 127
@15420 Channel: 9 Note on, F#2 key =  42 ; velocity: 0
@15420 Channel: 9 Note on, C2 key =  36 ; velocity: 0
@15420 Channel: 9 Note on, F#2 key =  42 ; velocity: 127
@15420 Channel: 9 Note on, C2 key =  36 ; velocity: 127
@15440 Channel: 9 Note on, C2 key =  36 ; velocity: 0
@15440 Channel: 9 Note on, C2 key =  36 ; velocity: 127
@15460 Channel: 9 Note on, C2 key =  36 ; velocity: 0
@15460 Channel: 9 Note on, C2 key =  36 ; velocity: 127
@15480 Channel: 9 Note on, F#2 key =  42 ; velocity: 0
@15480 Channel: 9 Note on, C2 key =  36 ; velocity: 0
@15480 Channel: 9 Note on, D2 key =  38 ; velocity: 127
@15480 Channel: 9 Note on, A3 key =  57 ; velocity: 127
@15540 Channel: 9 Note on, D2 key =  38 ; velocity: 0
@15540 Channel: 9 Note on, A3 key =  57 ; velocity: 0
@15540 Channel: 9 Note on, F#2 key =  42 ; velocity: 127
@15570 Channel: 9 Note on, F#2 key =  42 ; velocity: 0
@15570 Channel: 9 Note on, D2 key =  38 ; velocity: 127
@15600 Channel: 9 Note on, D2 key =  38 ; velocity: 0
@15600 Channel: 9 Note on, C2 key =  36 ; velocity: 127
@15600 Channel: 9 Note on, A3 key =  57 ; velocity: 127
@15660 Channel: 9 Note on, A3 key =  57 ; velocity: 0
@15660 Channel: 9 Note on, D2 key =  38 ; velocity: 127
@15690 Channel: 9 Note on, D2 key =  38 ; velocity: 0
@15690 Channel: 9 Note on, D2 key =  38 ; velocity: 127
@15720 Channel: 9 Note on, C2 key =  36 ; velocity: 0
@15720 Channel: 9 Note on, D2 key =  38 ; velocity: 0
@15720 Channel: 9 Note on, D2 key =  38 ; velocity: 127
@15780 Channel: 9 Note on, D2 key =  38 ; velocity: 0
@15780 Channel: 9 Note on, D2 key =  38 ; velocity: 127
@15840 Channel: 9 Note on, D2 key =  38 ; velocity: 0
@15840 Channel: 9 Note on, C2 key =  36 ; velocity: 127
@15840 Channel: 9 Note on, A3 key =  57 ; velocity: 127
@15960 Channel: 9 Note on, C2 key =  36 ; velocity: 0
@15960 Channel: 9 Note on, A3 key =  57 ; velocity: 0
@15960 Channel: 9 Note on, D2 key =  38 ; velocity: 127
@15960 Channel: 9 Note on, F#2 key =  42 ; velocity: 127
@16020 Channel: 9 Note on, D2 key =  38 ; velocity: 0
@16020 Channel: 9 Note on, F#2 key =  42 ; velocity: 0
@16020 Channel: 9 Note on, F#2 key =  42 ; velocity: 127
@16080 Channel: 9 Note on, F#2 key =  42 ; velocity: 0
@16080 Channel: 9 Note on, F#2 key =  42 ; velocity: 127
@16080 Channel: 9 Note on, C2 key =  36 ; velocity: 127
@16140 Channel: 9 Note on, F#2 key =  42 ; velocity: 0
@16140 Channel: 9 Note on, F#2 key =  42 ; velocity: 127
@16200 Channel: 9 Note on, C2 key =  36 ; velocity: 0
@16200 Channel: 9 Note on, F#2 key =  42 ; velocity: 0
@16200 Channel: 9 Note on, D2 key =  38 ; velocity: 127
@16200 Channel: 9 Note on, F#2 key =  42 ; velocity: 127
@16260 Channel: 9 Note on, D2 key =  38 ; velocity: 0
@16260 Channel: 9 Note on, F#2 key =  42 ; velocity: 0
@16260 Channel: 9 Note on, F#2 key =  42 ; velocity: 127
@16320 Channel: 9 Note on, F#2 key =  42 ; velocity: 0
@16321 Channel: 9 Note on, F#2 key =  42 ; velocity: 127
@16321 Channel: 9 Note on, C2 key =  36 ; velocity: 127
@16381 Channel: 9 Note on, F#2 key =  42 ; velocity: 0
@16381 Channel: 9 Note on, F#2 key =  42 ; velocity: 127
@16441 Channel: 9 Note on, C2 key =  36 ; velocity: 0
@16441 Channel: 9 Note on, F#2 key =  42 ; velocity: 0
@16441 Channel: 9 Note on, D2 key =  38 ; velocity: 127
@16441 Channel: 9 Note on, F#2 key =  42 ; velocity: 127
@16501 Channel: 9 Note on, D2 key =  38 ; velocity: 0
@16501 Channel: 9 Note on, F#2 key =  42 ; velocity: 0
@16501 Channel: 9 Note on, F#2 key =  42 ; velocity: 127
@16561 Channel: 9 Note on, F#2 key =  42 ; velocity: 0
@16561 Channel: 9 Note on, C2 key =  36 ; velocity: 127
@16561 Channel: 9 Note on, F#2 key =  42 ; velocity: 127
@16621 Channel: 9 Note on, C2 key =  36 ; velocity: 0
@16621 Channel: 9 Note on, F#2 key =  42 ; velocity: 0
@16621 Channel: 9 Note on, C2 key =  36 ; velocity: 127
@16621 Channel: 9 Note on, F#2 key =  42 ; velocity: 127
@16641 Channel: 9 Note on, C2 key =  36 ; velocity: 0
@16641 Channel: 9 Note on, C2 key =  36 ; velocity: 127
@16661 Channel: 9 Note on, C2 key =  36 ; velocity: 0
@16661 Channel: 9 Note on, C2 key =  36 ; velocity: 127
@16681 Channel: 9 Note on, F#2 key =  42 ; velocity: 0
@16681 Channel: 9 Note on, C2 key =  36 ; velocity: 0
@16681 Channel: 9 Note on, D2 key =  38 ; velocity: 127
@16681 Channel: 9 Note on, F#2 key =  42 ; velocity: 127
@16741 Channel: 9 Note on, D2 key =  38 ; velocity: 0
@16741 Channel: 9 Note on, F#2 key =  42 ; velocity: 0
@16741 Channel: 9 Note on, C2 key =  36 ; velocity: 127
@16741 Channel: 9 Note on, F#2 key =  42 ; velocity: 127
@16800 Channel: 9 Note on, C2 key =  36 ; velocity: 127
@16800 Channel: 9 Note on, F#2 key =  42 ; velocity: 127
@16801 Channel: 9 Note on, C2 key =  36 ; velocity: 0
@16801 Channel: 9 Note on, F#2 key =  42 ; velocity: 0
@16860 Channel: 9 Note on, F#2 key =  42 ; velocity: 0
@16860 Channel: 9 Note on, F#2 key =  42 ; velocity: 127
@16920 Channel: 9 Note on, C2 key =  36 ; velocity: 0
@16920 Channel: 9 Note on, F#2 key =  42 ; velocity: 0
@16920 Channel: 9 Note on, D2 key =  38 ; velocity: 127
@16920 Channel: 9 Note on, F#2 key =  42 ; velocity: 127
@16980 Channel: 9 Note on, D2 key =  38 ; velocity: 0
@16980 Channel: 9 Note on, F#2 key =  42 ; velocity: 0
@16980 Channel: 9 Note on, F#2 key =  42 ; velocity: 127
@17040 Channel: 9 Note on, F#2 key =  42 ; velocity: 0
@17040 Channel: 9 Note on, C2 key =  36 ; velocity: 127
@17040 Channel: 9 Note on, F#2 key =  42 ; velocity: 127
@17100 Channel: 9 Note on, F#2 key =  42 ; velocity: 0
@17100 Channel: 9 Note on, F#2 key =  42 ; velocity: 127
@17160 Channel: 9 Note on, C2 key =  36 ; velocity: 0
@17160 Channel: 9 Note on, F#2 key =  42 ; velocity: 0
@17160 Channel: 9 Note on, B1 key =  35 ; velocity: 127
@17160 Channel: 9 Note on, F#2 key =  42 ; velocity: 127
@17220 Channel: 9 Note on, B1 key =  35 ; velocity: 0
@17220 Channel: 9 Note on, F#2 key =  42 ; velocity: 0
@17220 Channel: 9 Note on, F#2 key =  42 ; velocity: 127
@17280 Channel: 9 Note on, F#2 key =  42 ; velocity: 0
@17280 Channel: 9 Note on, F#2 key =  42 ; velocity: 127
@17280 Channel: 9 Note on, C2 key =  36 ; velocity: 127
@17340 Channel: 9 Note on, F#2 key =  42 ; velocity: 0
@17340 Channel: 9 Note on, F#2 key =  42 ; velocity: 127
@17400 Channel: 9 Note on, C2 key =  36 ; velocity: 0
@17400 Channel: 9 Note on, F#2 key =  42 ; velocity: 0
@17400 Channel: 9 Note on, D2 key =  38 ; velocity: 127
@17400 Channel: 9 Note on, F#2 key =  42 ; velocity: 127
@17460 Channel: 9 Note on, D2 key =  38 ; velocity: 0
@17460 Channel: 9 Note on, F#2 key =  42 ; velocity: 0
@17460 Channel: 9 Note on, F#2 key =  42 ; velocity: 127
@17520 Channel: 9 Note on, F#2 key =  42 ; velocity: 0
@17520 Channel: 9 Note on, C2 key =  36 ; velocity: 127
@17520 Channel: 9 Note on, F#2 key =  42 ; velocity: 127
@17580 Channel: 9 Note on, C2 key =  36 ; velocity: 0
@17580 Channel: 9 Note on, F#2 key =  42 ; velocity: 0
@17580 Channel: 9 Note on, C2 key =  36 ; velocity: 127
@17580 Channel: 9 Note on, F#2 key =  42 ; velocity: 127
@17600 Channel: 9 Note on, C2 key =  36 ; velocity: 0
@17600 Channel: 9 Note on, C2 key =  36 ; velocity: 127
@17620 Channel: 9 Note on, C2 key =  36 ; velocity: 0
@17620 Channel: 9 Note on, C2 key =  36 ; velocity: 127
@17640 Channel: 9 Note on, F#2 key =  42 ; velocity: 0
@17640 Channel: 9 Note on, C2 key =  36 ; velocity: 0
@17640 Channel: 9 Note on, D2 key =  38 ; velocity: 127
@17640 Channel: 9 Note on, F#2 key =  42 ; velocity: 127
@17700 Channel: 9 Note on, D2 key =  38 ; velocity: 0
@17700 Channel: 9 Note on, F#2 key =  42 ; velocity: 0
@17700 Channel: 9 Note on, C2 key =  36 ; velocity: 127
@17700 Channel: 9 Note on, F#2 key =  42 ; velocity: 127
@17760 Channel: 9 Note on, C2 key =  36 ; velocity: 0
@17760 Channel: 9 Note on, F#2 key =  42 ; velocity: 0
@17760 Channel: 9 Note on, F#2 key =  42 ; velocity: 127
@17760 Channel: 9 Note on, C2 key =  36 ; velocity: 127
@17820 Channel: 9 Note on, F#2 key =  42 ; velocity: 0
@17820 Channel: 9 Note on, F#2 key =  42 ; velocity: 127
@17880 Channel: 9 Note on, C2 key =  36 ; velocity: 0
@17880 Channel: 9 Note on, F#2 key =  42 ; velocity: 0
@17880 Channel: 9 Note on, A3 key =  57 ; velocity: 127
@17880 Channel: 9 Note on, D2 key =  38 ; velocity: 127
@17940 Channel: 9 Note on, A3 key =  57 ; velocity: 0
@17940 Channel: 9 Note on, D2 key =  38 ; velocity: 0
@17940 Channel: 9 Note on, F#2 key =  42 ; velocity: 127
@18000 Channel: 9 Note on, F#2 key =  42 ; velocity: 0
@18000 Channel: 9 Note on, F#2 key =  42 ; velocity: 127
@18000 Channel: 9 Note on, C2 key =  36 ; velocity: 127
@18060 Channel: 9 Note on, F#2 key =  42 ; velocity: 0
@18060 Channel: 9 Note on, F#2 key =  42 ; velocity: 127
@18120 Channel: 9 Note on, C2 key =  36 ; velocity: 0
@18120 Channel: 9 Note on, F#2 key =  42 ; velocity: 0
@18120 Channel: 9 Note on, D2 key =  38 ; velocity: 127
@18120 Channel: 9 Note on, F#2 key =  42 ; velocity: 127
@18180 Channel: 9 Note on, D2 key =  38 ; velocity: 0
@18180 Channel: 9 Note on, F#2 key =  42 ; velocity: 0
@18180 Channel: 9 Note on, F#2 key =  42 ; velocity: 127
@18240 Channel: 9 Note on, F#2 key =  42 ; velocity: 0
@18240 Channel: 9 Note on, F#2 key =  42 ; velocity: 127
@18240 Channel: 9 Note on, C2 key =  36 ; velocity: 127
@18300 Channel: 9 Note on, F#2 key =  42 ; velocity: 0
@18300 Channel: 9 Note on, F#2 key =  42 ; velocity: 127
@18360 Channel: 9 Note on, C2 key =  36 ; velocity: 0
@18360 Channel: 9 Note on, F#2 key =  42 ; velocity: 0
@18360 Channel: 9 Note on, D2 key =  38 ; velocity: 127
@18360 Channel: 9 Note on, F#2 key =  42 ; velocity: 127
@18420 Channel: 9 Note on, D2 key =  38 ; velocity: 0
@18420 Channel: 9 Note on, F#2 key =  42 ; velocity: 0
@18420 Channel: 9 Note on, F#2 key =  42 ; velocity: 127
@18480 Channel: 9 Note on, F#2 key =  42 ; velocity: 0
@18480 Channel: 9 Note on, C2 key =  36 ; velocity: 127
@18480 Channel: 9 Note on, F#2 key =  42 ; velocity: 127
@18540 Channel: 9 Note on, C2 key =  36 ; velocity: 0
@18540 Channel: 9 Note on, F#2 key =  42 ; velocity: 0
@18540 Channel: 9 Note on, C2 key =  36 ; velocity: 127
@18540 Channel: 9 Note on, F#2 key =  42 ; velocity: 127
@18560 Channel: 9 Note on, C2 key =  36 ; velocity: 0
@18560 Channel: 9 Note on, C2 key =  36 ; velocity: 127
@18580 Channel: 9 Note on, C2 key =  36 ; velocity: 0
@18580 Channel: 9 Note on, C2 key =  36 ; velocity: 127
@18600 Channel: 9 Note on, F#2 key =  42 ; velocity: 0
@18600 Channel: 9 Note on, C2 key =  36 ; velocity: 0
@18600 Channel: 9 Note on, D2 key =  38 ; velocity: 127
@18600 Channel: 9 Note on, F#2 key =  42 ; velocity: 127
@18660 Channel: 9 Note on, D2 key =  38 ; velocity: 0
@18660 Channel: 9 Note on, F#2 key =  42 ; velocity: 0
@18660 Channel: 9 Note on, C2 key =  36 ; velocity: 127
@18660 Channel: 9 Note on, F#2 key =  42 ; velocity: 127
@18720 Channel: 9 Note on, C2 key =  36 ; velocity: 0
@18720 Channel: 9 Note on, F#2 key =  42 ; velocity: 0
@18720 Channel: 9 Note on, C2 key =  36 ; velocity: 127
@18720 Channel: 9 Note on, F#2 key =  42 ; velocity: 127
@18780 Channel: 9 Note on, F#2 key =  42 ; velocity: 0
@18780 Channel: 9 Note on, F#2 key =  42 ; velocity: 127
@18840 Channel: 9 Note on, C2 key =  36 ; velocity: 0
@18840 Channel: 9 Note on, F#2 key =  42 ; velocity: 0
@18840 Channel: 9 Note on, D2 key =  38 ; velocity: 127
@18840 Channel: 9 Note on, A3 key =  57 ; velocity: 127
@18900 Channel: 9 Note on, D2 key =  38 ; velocity: 0
@18900 Channel: 9 Note on, A3 key =  57 ; velocity: 0
@18900 Channel: 9 Note on, F#2 key =  42 ; velocity: 127
@18960 Channel: 9 Note on, F#2 key =  42 ; velocity: 0
@18960 Channel: 9 Note on, C2 key =  36 ; velocity: 127
@18960 Channel: 9 Note on, F#2 key =  42 ; velocity: 127
@19020 Channel: 9 Note on, C2 key =  36 ; velocity: 0
@19020 Channel: 9 Note on, F#2 key =  42 ; velocity: 0
@19020 Channel: 9 Note on, C2 key =  36 ; velocity: 127
@19020 Channel: 9 Note on, F#2 key =  42 ; velocity: 127
@19040 Channel: 9 Note on, C2 key =  36 ; velocity: 0
@19040 Channel: 9 Note on, C2 key =  36 ; velocity: 127
@19060 Channel: 9 Note on, C2 key =  36 ; velocity: 0
@19060 Channel: 9 Note on, C2 key =  36 ; velocity: 127
@19080 Channel: 9 Note on, F#2 key =  42 ; velocity: 0
@19080 Channel: 9 Note on, C2 key =  36 ; velocity: 0
@19080 Channel: 9 Note on, A3 key =  57 ; velocity: 127
@19080 Channel: 9 Note on, D2 key =  38 ; velocity: 127
@19140 Channel: 9 Note on, A3 key =  57 ; velocity: 0
@19140 Channel: 9 Note on, D2 key =  38 ; velocity: 0
@19140 Channel: 9 Note on, F#2 key =  42 ; velocity: 127
@19200 Channel: 9 Note on, F#2 key =  42 ; velocity: 0
@19200 Channel: 9 Note on, F#2 key =  42 ; velocity: 127
@19200 Channel: 9 Note on, C2 key =  36 ; velocity: 127
@19260 Channel: 9 Note on, F#2 key =  42 ; velocity: 0
@19260 Channel: 9 Note on, C2 key =  36 ; velocity: 0
@19260 Channel: 9 Note on, F#2 key =  42 ; velocity: 127
@19260 Channel: 9 Note on, C2 key =  36 ; velocity: 127
@19280 Channel: 9 Note on, C2 key =  36 ; velocity: 0
@19280 Channel: 9 Note on, C2 key =  36 ; velocity: 127
@19300 Channel: 9 Note on, C2 key =  36 ; velocity: 0
@19300 Channel: 9 Note on, C2 key =  36 ; velocity: 127
@19320 Channel: 9 Note on, F#2 key =  42 ; velocity: 0
@19320 Channel: 9 Note on, C2 key =  36 ; velocity: 0
@19320 Channel: 9 Note on, D2 key =  38 ; velocity: 127
@19320 Channel: 9 Note on, A3 key =  57 ; velocity: 127
@19380 Channel: 9 Note on, D2 key =  38 ; velocity: 0
@19380 Channel: 9 Note on, A3 key =  57 ; velocity: 0
@19380 Channel: 9 Note on, D2 key =  38 ; velocity: 127
@19410 Channel: 9 Note on, D2 key =  38 ; velocity: 0
@19410 Channel: 9 Note on, D2 key =  38 ; velocity: 127
@19440 Channel: 9 Note on, D2 key =  38 ; velocity: 0
@19440 Channel: 9 Note on, C2 key =  36 ; velocity: 127
@19440 Channel: 9 Note on, A3 key =  57 ; velocity: 127
@19500 Channel: 9 Note on, A3 key =  57 ; velocity: 0
@19500 Channel: 9 Note on, D2 key =  38 ; velocity: 127
@19530 Channel: 9 Note on, D2 key =  38 ; velocity: 0
@19530 Channel: 9 Note on, D2 key =  38 ; velocity: 127
@19560 Channel: 9 Note on, C2 key =  36 ; velocity: 0
@19560 Channel: 9 Note on, D2 key =  38 ; velocity: 0
@19560 Channel: 9 Note on, A3 key =  57 ; velocity: 127
@19560 Channel: 9 Note on, D2 key =  38 ; velocity: 127
@19620 Channel: 9 Note on, A3 key =  57 ; velocity: 0
@19620 Channel: 9 Note on, D2 key =  38 ; velocity: 0
@19620 Channel: 9 Note on, A3 key =  57 ; velocity: 127
@19620 Channel: 9 Note on, D2 key =  38 ; velocity: 127
@19680 Channel: 9 Note on, A3 key =  57 ; velocity: 0
@19680 Channel: 9 Note on, D2 key =  38 ; velocity: 0
@19680 Channel: 9 Note on, C2 key =  36 ; velocity: 127
@19680 Channel: 9 Note on, A3 key =  57 ; velocity: 127
@19740 Channel: 9 Note on, A3 key =  57 ; velocity: 0
@19740 Channel: 9 Note on, F#2 key =  42 ; velocity: 127
@19800 Channel: 9 Note on, C2 key =  36 ; velocity: 0
@19800 Channel: 9 Note on, F#2 key =  42 ; velocity: 0
@19800 Channel: 9 Note on, D2 key =  38 ; velocity: 127
@19800 Channel: 9 Note on, F#2 key =  42 ; velocity: 127
@19860 Channel: 9 Note on, D2 key =  38 ; velocity: 0
@19860 Channel: 9 Note on, F#2 key =  42 ; velocity: 0
@19860 Channel: 9 Note on, F#2 key =  42 ; velocity: 127
@19920 Channel: 9 Note on, F#2 key =  42 ; velocity: 0
@19920 Channel: 9 Note on, C2 key =  36 ; velocity: 127
@19920 Channel: 9 Note on, F#2 key =  42 ; velocity: 127
@19980 Channel: 9 Note on, F#2 key =  42 ; velocity: 0
@19980 Channel: 9 Note on, F#2 key =  42 ; velocity: 127
@20040 Channel: 9 Note on, C2 key =  36 ; velocity: 0
@20040 Channel: 9 Note on, F#2 key =  42 ; velocity: 0
@20040 Channel: 9 Note on, D2 key =  38 ; velocity: 127
@20040 Channel: 9 Note on, F#2 key =  42 ; velocity: 127
@20100 Channel: 9 Note on, D2 key =  38 ; velocity: 0
@20100 Channel: 9 Note on, F#2 key =  42 ; velocity: 0
@20100 Channel: 9 Note on, F#2 key =  42 ; velocity: 127
@20160 Channel: 9 Note on, F#2 key =  42 ; velocity: 0
@20160 Channel: 9 Note on, C2 key =  36 ; velocity: 127
@20160 Channel: 9 Note on, F#2 key =  42 ; velocity: 127
@20220 Channel: 9 Note on, F#2 key =  42 ; velocity: 0
@20220 Channel: 9 Note on, F#2 key =  42 ; velocity: 127
@20280 Channel: 9 Note on, C2 key =  36 ; velocity: 0
@20280 Channel: 9 Note on, F#2 key =  42 ; velocity: 0
@20280 Channel: 9 Note on, F#2 key =  42 ; velocity: 127
@20340 Channel: 9 Note on, F#2 key =  42 ; velocity: 0
@20340 Channel: 9 Note on, D2 key =  38 ; velocity: 127
@20340 Channel: 9 Note on, F#2 key =  42 ; velocity: 127
@20400 Channel: 9 Note on, D2 key =  38 ; velocity: 0
@20400 Channel: 9 Note on, F#2 key =  42 ; velocity: 0
@20400 Channel: 9 Note on, C2 key =  36 ; velocity: 127
@20400 Channel: 9 Note on, F#2 key =  42 ; velocity: 127
@20460 Channel: 9 Note on, C2 key =  36 ; velocity: 0
@20460 Channel: 9 Note on, F#2 key =  42 ; velocity: 0
@20460 Channel: 9 Note on, C2 key =  36 ; velocity: 127
@20460 Channel: 9 Note on, F#2 key =  42 ; velocity: 127
@20480 Channel: 9 Note on, C2 key =  36 ; velocity: 0
@20480 Channel: 9 Note on, C2 key =  36 ; velocity: 127
@20500 Channel: 9 Note on, C2 key =  36 ; velocity: 0
@20500 Channel: 9 Note on, C2 key =  36 ; velocity: 127
@20520 Channel: 9 Note on, F#2 key =  42 ; velocity: 0
@20520 Channel: 9 Note on, C2 key =  36 ; velocity: 0
@20520 Channel: 9 Note on, D2 key =  38 ; velocity: 127
@20520 Channel: 9 Note on, F#2 key =  42 ; velocity: 127
@20580 Channel: 9 Note on, D2 key =  38 ; velocity: 0
@20580 Channel: 9 Note on, F#2 key =  42 ; velocity: 0
@20580 Channel: 9 Note on, C2 key =  36 ; velocity: 127
@20580 Channel: 9 Note on, F#2 key =  42 ; velocity: 127
@20640 Channel: 9 Note on, C2 key =  36 ; velocity: 0
@20640 Channel: 9 Note on, F#2 key =  42 ; velocity: 0
@20640 Channel: 9 Note on, F#2 key =  42 ; velocity: 127
@20640 Channel: 9 Note on, C2 key =  36 ; velocity: 127
@20700 Channel: 9 Note on, F#2 key =  42 ; velocity: 0
@20700 Channel: 9 Note on, F#2 key =  42 ; velocity: 127
@20760 Channel: 9 Note on, C2 key =  36 ; velocity: 0
@20760 Channel: 9 Note on, F#2 key =  42 ; velocity: 0
@20760 Channel: 9 Note on, F#2 key =  42 ; velocity: 127
@20820 Channel: 9 Note on, F#2 key =  42 ; velocity: 0
@20820 Channel: 9 Note on, D2 key =  38 ; velocity: 127
@20820 Channel: 9 Note on, F#2 key =  42 ; velocity: 127
@20880 Channel: 9 Note on, D2 key =  38 ; velocity: 0
@20880 Channel: 9 Note on, F#2 key =  42 ; velocity: 0
@20880 Channel: 9 Note on, F#2 key =  42 ; velocity: 127
@20880 Channel: 9 Note on, C2 key =  36 ; velocity: 127
@20940 Channel: 9 Note on, F#2 key =  42 ; velocity: 0
@20940 Channel: 9 Note on, F#2 key =  42 ; velocity: 127
@21000 Channel: 9 Note on, C2 key =  36 ; velocity: 0
@21000 Channel: 9 Note on, F#2 key =  42 ; velocity: 0
@21000 Channel: 9 Note on, D2 key =  38 ; velocity: 127
@21000 Channel: 9 Note on, F#2 key =  42 ; velocity: 127
@21060 Channel: 9 Note on, D2 key =  38 ; velocity: 0
@21060 Channel: 9 Note on, F#2 key =  42 ; velocity: 0
@21060 Channel: 9 Note on, F#2 key =  42 ; velocity: 127
@21120 Channel: 9 Note on, F#2 key =  42 ; velocity: 0
@21120 Channel: 9 Note on, C2 key =  36 ; velocity: 127
@21120 Channel: 9 Note on, F#2 key =  42 ; velocity: 127
@21180 Channel: 9 Note on, F#2 key =  42 ; velocity: 0
@21180 Channel: 9 Note on, F#2 key =  42 ; velocity: 127
@21240 Channel: 9 Note on, C2 key =  36 ; velocity: 0
@21240 Channel: 9 Note on, F#2 key =  42 ; velocity: 0
@21240 Channel: 9 Note on, F#2 key =  42 ; velocity: 127
@21300 Channel: 9 Note on, F#2 key =  42 ; velocity: 0
@21300 Channel: 9 Note on, D2 key =  38 ; velocity: 127
@21300 Channel: 9 Note on, F#2 key =  42 ; velocity: 127
@21360 Channel: 9 Note on, D2 key =  38 ; velocity: 0
@21360 Channel: 9 Note on, F#2 key =  42 ; velocity: 0
@21360 Channel: 9 Note on, C2 key =  36 ; velocity: 127
@21360 Channel: 9 Note on, F#2 key =  42 ; velocity: 127
@21420 Channel: 9 Note on, C2 key =  36 ; velocity: 0
@21420 Channel: 9 Note on, F#2 key =  42 ; velocity: 0
@21420 Channel: 9 Note on, C2 key =  36 ; velocity: 127
@21420 Channel: 9 Note on, F#2 key =  42 ; velocity: 127
@21440 Channel: 9 Note on, C2 key =  36 ; velocity: 0
@21440 Channel: 9 Note on, C2 key =  36 ; velocity: 127
@21460 Channel: 9 Note on, C2 key =  36 ; velocity: 0
@21460 Channel: 9 Note on, C2 key =  36 ; velocity: 127
@21480 Channel: 9 Note on, F#2 key =  42 ; velocity: 0
@21480 Channel: 9 Note on, C2 key =  36 ; velocity: 0
@21480 Channel: 9 Note on, D2 key =  38 ; velocity: 127
@21480 Channel: 9 Note on, F#2 key =  42 ; velocity: 127
@21540 Channel: 9 Note on, D2 key =  38 ; velocity: 0
@21540 Channel: 9 Note on, F#2 key =  42 ; velocity: 0
@21540 Channel: 9 Note on, C2 key =  36 ; velocity: 127
@21540 Channel: 9 Note on, F#2 key =  42 ; velocity: 127
@21600 Channel: 9 Note on, C2 key =  36 ; velocity: 0
@21600 Channel: 9 Note on, F#2 key =  42 ; velocity: 0
@21600 Channel: 9 Note on, F#2 key =  42 ; velocity: 127
@21600 Channel: 9 Note on, C2 key =  36 ; velocity: 127
@21660 Channel: 9 Note on, F#2 key =  42 ; velocity: 0
@21660 Channel: 9 Note on, F#2 key =  42 ; velocity: 127
@21720 Channel: 9 Note on, C2 key =  36 ; velocity: 0
@21720 Channel: 9 Note on, F#2 key =  42 ; velocity: 0
@21720 Channel: 9 Note on, A3 key =  57 ; velocity: 127
@21720 Channel: 9 Note on, D2 key =  38 ; velocity: 127
@21780 Channel: 9 Note on, A3 key =  57 ; velocity: 0
@21780 Channel: 9 Note on, D2 key =  38 ; velocity: 0
@21780 Channel: 9 Note on, F#2 key =  42 ; velocity: 127
@21840 Channel: 9 Note on, F#2 key =  42 ; velocity: 0
@21840 Channel: 9 Note on, F#2 key =  42 ; velocity: 127
@21840 Channel: 9 Note on, C2 key =  36 ; velocity: 127
@21900 Channel: 9 Note on, F#2 key =  42 ; velocity: 0
@21900 Channel: 9 Note on, F#2 key =  42 ; velocity: 127
@21960 Channel: 9 Note on, C2 key =  36 ; velocity: 0
@21960 Channel: 9 Note on, F#2 key =  42 ; velocity: 0
@21960 Channel: 9 Note on, D2 key =  38 ; velocity: 127
@21960 Channel: 9 Note on, F#2 key =  42 ; velocity: 127
@22020 Channel: 9 Note on, D2 key =  38 ; velocity: 0
@22020 Channel: 9 Note on, F#2 key =  42 ; velocity: 0
@22020 Channel: 9 Note on, F#2 key =  42 ; velocity: 127
@22080 Channel: 9 Note on, F#2 key =  42 ; velocity: 0
@22080 Channel: 9 Note on, C2 key =  36 ; velocity: 127
@22080 Channel: 9 Note on, F#2 key =  42 ; velocity: 127
@22140 Channel: 9 Note on, F#2 key =  42 ; velocity: 0
@22140 Channel: 9 Note on, F#2 key =  42 ; velocity: 127
@22200 Channel: 9 Note on, C2 key =  36 ; velocity: 0
@22200 Channel: 9 Note on, F#2 key =  42 ; velocity: 0
@22200 Channel: 9 Note on, F#2 key =  42 ; velocity: 127
@22260 Channel: 9 Note on, F#2 key =  42 ; velocity: 0
@22260 Channel: 9 Note on, D2 key =  38 ; velocity: 127
@22260 Channel: 9 Note on, F#2 key =  42 ; velocity: 127
@22320 Channel: 9 Note on, D2 key =  38 ; velocity: 0
@22320 Channel: 9 Note on, F#2 key =  42 ; velocity: 0
@22320 Channel: 9 Note on, C2 key =  36 ; velocity: 127
@22320 Channel: 9 Note on, F#2 key =  42 ; velocity: 127
@22380 Channel: 9 Note on, C2 key =  36 ; velocity: 0
@22380 Channel: 9 Note on, F#2 key =  42 ; velocity: 0
@22380 Channel: 9 Note on, C2 key =  36 ; velocity: 127
@22380 Channel: 9 Note on, F#2 key =  42 ; velocity: 127
@22400 Channel: 9 Note on, C2 key =  36 ; velocity: 0
@22400 Channel: 9 Note on, C2 key =  36 ; velocity: 127
@22420 Channel: 9 Note on, C2 key =  36 ; velocity: 0
@22420 Channel: 9 Note on, C2 key =  36 ; velocity: 127
@22440 Channel: 9 Note on, F#2 key =  42 ; velocity: 0
@22440 Channel: 9 Note on, C2 key =  36 ; velocity: 0
@22440 Channel: 9 Note on, D2 key =  38 ; velocity: 127
@22440 Channel: 9 Note on, F#2 key =  42 ; velocity: 127
@22500 Channel: 9 Note on, D2 key =  38 ; velocity: 0
@22500 Channel: 9 Note on, F#2 key =  42 ; velocity: 0
@22500 Channel: 9 Note on, C2 key =  36 ; velocity: 127
@22500 Channel: 9 Note on, F#2 key =  42 ; velocity: 127
@22560 Channel: 9 Note on, C2 key =  36 ; velocity: 0
@22560 Channel: 9 Note on, F#2 key =  42 ; velocity: 0
@22560 Channel: 9 Note on, C2 key =  36 ; velocity: 127
@22560 Channel: 9 Note on, F#2 key =  42 ; velocity: 127
@22620 Channel: 9 Note on, F#2 key =  42 ; velocity: 0
@22620 Channel: 9 Note on, F#2 key =  42 ; velocity: 127
@22680 Channel: 9 Note on, C2 key =  36 ; velocity: 0
@22680 Channel: 9 Note on, F#2 key =  42 ; velocity: 0
@22680 Channel: 9 Note on, F#2 key =  42 ; velocity: 127
@22740 Channel: 9 Note on, F#2 key =  42 ; velocity: 0
@22740 Channel: 9 Note on, A3 key =  57 ; velocity: 127
@22740 Channel: 9 Note on, D2 key =  38 ; velocity: 127
@22800 Channel: 9 Note on, A3 key =  57 ; velocity: 0
@22800 Channel: 9 Note on, D2 key =  38 ; velocity: 0
@22800 Channel: 9 Note on, C2 key =  36 ; velocity: 127
@22800 Channel: 9 Note on, F#2 key =  42 ; velocity: 127
@22860 Channel: 9 Note on, C2 key =  36 ; velocity: 0
@22860 Channel: 9 Note on, F#2 key =  42 ; velocity: 0
@22860 Channel: 9 Note on, C2 key =  36 ; velocity: 127
@22860 Channel: 9 Note on, F#2 key =  42 ; velocity: 127
@22880 Channel: 9 Note on, C2 key =  36 ; velocity: 0
@22880 Channel: 9 Note on, C2 key =  36 ; velocity: 127
@22900 Channel: 9 Note on, C2 key =  36 ; velocity: 0
@22900 Channel: 9 Note on, C2 key =  36 ; velocity: 127
@22920 Channel: 9 Note on, F#2 key =  42 ; velocity: 0
@22920 Channel: 9 Note on, C2 key =  36 ; velocity: 0
@22920 Channel: 9 Note on, A3 key =  57 ; velocity: 127
@22920 Channel: 9 Note on, D2 key =  38 ; velocity: 127
@22980 Channel: 9 Note on, A3 key =  57 ; velocity: 0
@22980 Channel: 9 Note on, D2 key =  38 ; velocity: 0
@22980 Channel: 9 Note on, F#2 key =  42 ; velocity: 127
@23040 Channel: 9 Note on, F#2 key =  42 ; velocity: 0
@23040 Channel: 9 Note on, F#2 key =  42 ; velocity: 127
@23040 Channel: 9 Note on, C2 key =  36 ; velocity: 127
@23100 Channel: 9 Note on, F#2 key =  42 ; velocity: 0
@23100 Channel: 9 Note on, C2 key =  36 ; velocity: 0
@23100 Channel: 9 Note on, F#2 key =  42 ; velocity: 127
@23100 Channel: 9 Note on, C2 key =  36 ; velocity: 127
@23120 Channel: 9 Note on, C2 key =  36 ; velocity: 0
@23120 Channel: 9 Note on, C2 key =  36 ; velocity: 127
@23140 Channel: 9 Note on, C2 key =  36 ; velocity: 0
@23140 Channel: 9 Note on, C2 key =  36 ; velocity: 127
@23160 Channel: 9 Note on, F#2 key =  42 ; velocity: 0
@23160 Channel: 9 Note on, C2 key =  36 ; velocity: 0
@23160 Channel: 9 Note on, D2 key =  38 ; velocity: 127
@23160 Channel: 9 Note on, A3 key =  57 ; velocity: 127
@23220 Channel: 9 Note on, D2 key =  38 ; velocity: 0
@23220 Channel: 9 Note on, A3 key =  57 ; velocity: 0
@23220 Channel: 9 Note on, D2 key =  38 ; velocity: 127
@23250 Channel: 9 Note on, D2 key =  38 ; velocity: 0
@23250 Channel: 9 Note on, D2 key =  38 ; velocity: 127
@23280 Channel: 9 Note on, D2 key =  38 ; velocity: 0
@23280 Channel: 9 Note on, A2 key =  45 ; velocity: 127
@23340 Channel: 9 Note on, A2 key =  45 ; velocity: 0
@23340 Channel: 9 Note on, A2 key =  45 ; velocity: 127
@23370 Channel: 9 Note on, A2 key =  45 ; velocity: 0
@23370 Channel: 9 Note on, A2 key =  45 ; velocity: 127
@23400 Channel: 9 Note on, A2 key =  45 ; velocity: 0
@23400 Channel: 9 Note on, B2 key =  47 ; velocity: 127
@23460 Channel: 9 Note on, B2 key =  47 ; velocity: 0
@23460 Channel: 9 Note on, B2 key =  47 ; velocity: 127
@23490 Channel: 9 Note on, B2 key =  47 ; velocity: 0
@23490 Channel: 9 Note on, B2 key =  47 ; velocity: 127
@23520 Channel: 9 Note on, B2 key =  47 ; velocity: 0
@23520 Channel: 9 Note on, A3 key =  57 ; velocity: 127
@23520 Channel: 9 Note on, C2 key =  36 ; velocity: 127
@23580 Channel: 9 Note on, A3 key =  57 ; velocity: 0
@23580 Channel: 9 Note on, B3 key =  59 ; velocity: 127
@23640 Channel: 9 Note on, C2 key =  36 ; velocity: 0
@23640 Channel: 9 Note on, B3 key =  59 ; velocity: 0
@23640 Channel: 9 Note on, D2 key =  38 ; velocity: 127
@23640 Channel: 9 Note on, B3 key =  59 ; velocity: 127
@23700 Channel: 9 Note on, D2 key =  38 ; velocity: 0
@23700 Channel: 9 Note on, B3 key =  59 ; velocity: 0
@23700 Channel: 9 Note on, B3 key =  59 ; velocity: 127
@23760 Channel: 9 Note on, B3 key =  59 ; velocity: 0
@23760 Channel: 9 Note on, B3 key =  59 ; velocity: 127
@23760 Channel: 9 Note on, C2 key =  36 ; velocity: 127
@23820 Channel: 9 Note on, B3 key =  59 ; velocity: 0
@23820 Channel: 9 Note on, A2 key =  45 ; velocity: 127
@23850 Channel: 9 Note on, A2 key =  45 ; velocity: 0
@23850 Channel: 9 Note on, A2 key =  45 ; velocity: 127
@23880 Channel: 9 Note on, C2 key =  36 ; velocity: 0
@23880 Channel: 9 Note on, A2 key =  45 ; velocity: 0
@23880 Channel: 9 Note on, A3 key =  57 ; velocity: 127
@23880 Channel: 9 Note on, C2 key =  36 ; velocity: 127
@23940 Channel: 9 Note on, A3 key =  57 ; velocity: 0
@23940 Channel: 9 Note on, C2 key =  36 ; velocity: 0
@23940 Channel: 9 Note on, A3 key =  57 ; velocity: 127
@23940 Channel: 9 Note on, C2 key =  36 ; velocity: 127
@24000 Channel: 9 Note on, A3 key =  57 ; velocity: 0
@24000 Channel: 9 Note on, C2 key =  36 ; velocity: 0
@24000 Channel: 9 Note on, A3 key =  57 ; velocity: 127
@24000 Channel: 9 Note on, C2 key =  36 ; velocity: 127
@24060 Channel: 9 Note on, A3 key =  57 ; velocity: 0
@24060 Channel: 9 Note on, B3 key =  59 ; velocity: 127
@24120 Channel: 9 Note on, C2 key =  36 ; velocity: 0
@24120 Channel: 9 Note on, B3 key =  59 ; velocity: 0
@24120 Channel: 9 Note on, D2 key =  38 ; velocity: 127
@24120 Channel: 9 Note on, B3 key =  59 ; velocity: 127
@24180 Channel: 9 Note on, D2 key =  38 ; velocity: 0
@24180 Channel: 9 Note on, B3 key =  59 ; velocity: 0
@24180 Channel: 9 Note on, B3 key =  59 ; velocity: 127
@24240 Channel: 9 Note on, B3 key =  59 ; velocity: 0
@24240 Channel: 9 Note on, B3 key =  59 ; velocity: 127
@24240 Channel: 9 Note on, C2 key =  36 ; velocity: 127
@24300 Channel: 9 Note on, B3 key =  59 ; velocity: 0
@24300 Channel: 9 Note on, A2 key =  45 ; velocity: 127
@24330 Channel: 9 Note on, A2 key =  45 ; velocity: 0
@24330 Channel: 9 Note on, A2 key =  45 ; velocity: 127
@24360 Channel: 9 Note on, C2 key =  36 ; velocity: 0
@24360 Channel: 9 Note on, A2 key =  45 ; velocity: 0
@24360 Channel: 9 Note on, A3 key =  57 ; velocity: 127
@24360 Channel: 9 Note on, C2 key =  36 ; velocity: 127
@24420 Channel: 9 Note on, A3 key =  57 ; velocity: 0
@24420 Channel: 9 Note on, C2 key =  36 ; velocity: 0
@24420 Channel: 9 Note on, A3 key =  57 ; velocity: 127
@24420 Channel: 9 Note on, C2 key =  36 ; velocity: 127
@24480 Channel: 9 Note on, A3 key =  57 ; velocity: 0
@24480 Channel: 9 Note on, C2 key =  36 ; velocity: 0
@24480 Channel: 9 Note on, A3 key =  57 ; velocity: 127
@24480 Channel: 9 Note on, C2 key =  36 ; velocity: 127
@24540 Channel: 9 Note on, A3 key =  57 ; velocity: 0
@24540 Channel: 9 Note on, B3 key =  59 ; velocity: 127
@24600 Channel: 9 Note on, C2 key =  36 ; velocity: 0
@24600 Channel: 9 Note on, B3 key =  59 ; velocity: 0
@24600 Channel: 9 Note on, D2 key =  38 ; velocity: 127
@24600 Channel: 9 Note on, B3 key =  59 ; velocity: 127
@24660 Channel: 9 Note on, D2 key =  38 ; velocity: 0
@24660 Channel: 9 Note on, B3 key =  59 ; velocity: 0
@24660 Channel: 9 Note on, B3 key =  59 ; velocity: 127
@24720 Channel: 9 Note on, B3 key =  59 ; velocity: 0
@24720 Channel: 9 Note on, B3 key =  59 ; velocity: 127
@24720 Channel: 9 Note on, C2 key =  36 ; velocity: 127
@24780 Channel: 9 Note on, B3 key =  59 ; velocity: 0
@24780 Channel: 9 Note on, A2 key =  45 ; velocity: 127
@24810 Channel: 9 Note on, A2 key =  45 ; velocity: 0
@24810 Channel: 9 Note on, A2 key =  45 ; velocity: 127
@24840 Channel: 9 Note on, C2 key =  36 ; velocity: 0
@24840 Channel: 9 Note on, A2 key =  45 ; velocity: 0
@24840 Channel: 9 Note on, A3 key =  57 ; velocity: 127
@24840 Channel: 9 Note on, C2 key =  36 ; velocity: 127
@24900 Channel: 9 Note on, A3 key =  57 ; velocity: 0
@24900 Channel: 9 Note on, C2 key =  36 ; velocity: 0
@24900 Channel: 9 Note on, A3 key =  57 ; velocity: 127
@24900 Channel: 9 Note on, C2 key =  36 ; velocity: 127
@24960 Channel: 9 Note on, A3 key =  57 ; velocity: 0
@24960 Channel: 9 Note on, C2 key =  36 ; velocity: 0
@24960 Channel: 9 Note on, A3 key =  57 ; velocity: 127
@24960 Channel: 9 Note on, C2 key =  36 ; velocity: 127
@25020 Channel: 9 Note on, A3 key =  57 ; velocity: 0
@25020 Channel: 9 Note on, B3 key =  59 ; velocity: 127
@25080 Channel: 9 Note on, C2 key =  36 ; velocity: 0
@25080 Channel: 9 Note on, B3 key =  59 ; velocity: 0
@25080 Channel: 9 Note on, D2 key =  38 ; velocity: 127
@25080 Channel: 9 Note on, B3 key =  59 ; velocity: 127
@25140 Channel: 9 Note on, D2 key =  38 ; velocity: 0
@25140 Channel: 9 Note on, B3 key =  59 ; velocity: 0
@25140 Channel: 9 Note on, B3 key =  59 ; velocity: 127
@25200 Channel: 9 Note on, B3 key =  59 ; velocity: 0
@25200 Channel: 9 Note on, C2 key =  36 ; velocity: 127
@25200 Channel: 9 Note on, B3 key =  59 ; velocity: 127
@25260 Channel: 9 Note on, C2 key =  36 ; velocity: 0
@25260 Channel: 9 Note on, B3 key =  59 ; velocity: 0
@25260 Channel: 9 Note on, B3 key =  59 ; velocity: 127
@25260 Channel: 9 Note on, C2 key =  36 ; velocity: 127
@25320 Channel: 9 Note on, B3 key =  59 ; velocity: 0
@25320 Channel: 9 Note on, C2 key =  36 ; velocity: 0
@25320 Channel: 9 Note on, A2 key =  45 ; velocity: 127
@25350 Channel: 9 Note on, A2 key =  45 ; velocity: 0
@25350 Channel: 9 Note on, A2 key =  45 ; velocity: 127
@25380 Channel: 9 Note on, A2 key =  45 ; velocity: 0
@25380 Channel: 9 Note on, A2 key =  45 ; velocity: 127
@25440 Channel: 9 Note on, A2 key =  45 ; velocity: 0
@25440 Channel: 9 Note on, A3 key =  57 ; velocity: 127
@25440 Channel: 9 Note on, C2 key =  36 ; velocity: 127
@25500 Channel: 9 Note on, A3 key =  57 ; velocity: 0
@25500 Channel: 9 Note on, B3 key =  59 ; velocity: 127
@25560 Channel: 9 Note on, C2 key =  36 ; velocity: 0
@25560 Channel: 9 Note on, B3 key =  59 ; velocity: 0
@25560 Channel: 9 Note on, D2 key =  38 ; velocity: 127
@25560 Channel: 9 Note on, B3 key =  59 ; velocity: 127
@25620 Channel: 9 Note on, D2 key =  38 ; velocity: 0
@25620 Channel: 9 Note on, B3 key =  59 ; velocity: 0
@25620 Channel: 9 Note on, B3 key =  59 ; velocity: 127
@25680 Channel: 9 Note on, B3 key =  59 ; velocity: 0
@25680 Channel: 9 Note on, B3 key =  59 ; velocity: 127
@25680 Channel: 9 Note on, C2 key =  36 ; velocity: 127
@25740 Channel: 9 Note on, B3 key =  59 ; velocity: 0
@25740 Channel: 9 Note on, A2 key =  45 ; velocity: 127
@25770 Channel: 9 Note on, A2 key =  45 ; velocity: 0
@25770 Channel: 9 Note on, A2 key =  45 ; velocity: 127
@25800 Channel: 9 Note on, C2 key =  36 ; velocity: 0
@25800 Channel: 9 Note on, A2 key =  45 ; velocity: 0
@25800 Channel: 9 Note on, A3 key =  57 ; velocity: 127
@25800 Channel: 9 Note on, C2 key =  36 ; velocity: 127
@25860 Channel: 9 Note on, A3 key =  57 ; velocity: 0
@25860 Channel: 9 Note on, C2 key =  36 ; velocity: 0
@25860 Channel: 9 Note on, A3 key =  57 ; velocity: 127
@25860 Channel: 9 Note on, C2 key =  36 ; velocity: 127
@25920 Channel: 9 Note on, A3 key =  57 ; velocity: 0
@25920 Channel: 9 Note on, C2 key =  36 ; velocity: 0
@25920 Channel: 9 Note on, A3 key =  57 ; velocity: 127
@25920 Channel: 9 Note on, C2 key =  36 ; velocity: 127
@25980 Channel: 9 Note on, A3 key =  57 ; velocity: 0
@25980 Channel: 9 Note on, B3 key =  59 ; velocity: 127
@26040 Channel: 9 Note on, C2 key =  36 ; velocity: 0
@26040 Channel: 9 Note on, B3 key =  59 ; velocity: 0
@26040 Channel: 9 Note on, D2 key =  38 ; velocity: 127
@26040 Channel: 9 Note on, B3 key =  59 ; velocity: 127
@26100 Channel: 9 Note on, D2 key =  38 ; velocity: 0
@26100 Channel: 9 Note on, B3 key =  59 ; velocity: 0
@26100 Channel: 9 Note on, B3 key =  59 ; velocity: 127
@26160 Channel: 9 Note on, B3 key =  59 ; velocity: 0
@26160 Channel: 9 Note on, B3 key =  59 ; velocity: 127
@26160 Channel: 9 Note on, C2 key =  36 ; velocity: 127
@26220 Channel: 9 Note on, B3 key =  59 ; velocity: 0
@26220 Channel: 9 Note on, A2 key =  45 ; velocity: 127
@26250 Channel: 9 Note on, A2 key =  45 ; velocity: 0
@26250 Channel: 9 Note on, A2 key =  45 ; velocity: 127
@26280 Channel: 9 Note on, C2 key =  36 ; velocity: 0
@26280 Channel: 9 Note on, A2 key =  45 ; velocity: 0
@26280 Channel: 9 Note on, A3 key =  57 ; velocity: 127
@26280 Channel: 9 Note on, C2 key =  36 ; velocity: 127
@26340 Channel: 9 Note on, A3 key =  57 ; velocity: 0
@26340 Channel: 9 Note on, C2 key =  36 ; velocity: 0
@26340 Channel: 9 Note on, A3 key =  57 ; velocity: 127
@26340 Channel: 9 Note on, C2 key =  36 ; velocity: 127
@26400 Channel: 9 Note on, A3 key =  57 ; velocity: 0
@26400 Channel: 9 Note on, C2 key =  36 ; velocity: 0
@26400 Channel: 9 Note on, A3 key =  57 ; velocity: 127
@26400 Channel: 9 Note on, C2 key =  36 ; velocity: 127
@26460 Channel: 9 Note on, A3 key =  57 ; velocity: 0
@26460 Channel: 9 Note on, B3 key =  59 ; velocity: 127
@26520 Channel: 9 Note on, C2 key =  36 ; velocity: 0
@26520 Channel: 9 Note on, B3 key =  59 ; velocity: 0
@26520 Channel: 9 Note on, D2 key =  38 ; velocity: 127
@26520 Channel: 9 Note on, B3 key =  59 ; velocity: 127
@26580 Channel: 9 Note on, D2 key =  38 ; velocity: 0
@26580 Channel: 9 Note on, B3 key =  59 ; velocity: 0
@26580 Channel: 9 Note on, B3 key =  59 ; velocity: 127
@26640 Channel: 9 Note on, B3 key =  59 ; velocity: 0
@26640 Channel: 9 Note on, B3 key =  59 ; velocity: 127
@26640 Channel: 9 Note on, C2 key =  36 ; velocity: 127
@26700 Channel: 9 Note on, B3 key =  59 ; velocity: 0
@26700 Channel: 9 Note on, A2 key =  45 ; velocity: 127
@26730 Channel: 9 Note on, A2 key =  45 ; velocity: 0
@26730 Channel: 9 Note on, A2 key =  45 ; velocity: 127
@26760 Channel: 9 Note on, C2 key =  36 ; velocity: 0
@26760 Channel: 9 Note on, A2 key =  45 ; velocity: 0
@26760 Channel: 9 Note on, A3 key =  57 ; velocity: 127
@26760 Channel: 9 Note on, C2 key =  36 ; velocity: 127
@26820 Channel: 9 Note on, A3 key =  57 ; velocity: 0
@26820 Channel: 9 Note on, C2 key =  36 ; velocity: 0
@26820 Channel: 9 Note on, A3 key =  57 ; velocity: 127
@26820 Channel: 9 Note on, C2 key =  36 ; velocity: 127
@26880 Channel: 9 Note on, A3 key =  57 ; velocity: 0
@26880 Channel: 9 Note on, C2 key =  36 ; velocity: 0
@26880 Channel: 9 Note on, C2 key =  36 ; velocity: 127
@26880 Channel: 9 Note on, A3 key =  57 ; velocity: 127
@26940 Channel: 9 Note on, A3 key =  57 ; velocity: 0
@26940 Channel: 9 Note on, D2 key =  38 ; velocity: 127
@26970 Channel: 9 Note on, D2 key =  38 ; velocity: 0
@26970 Channel: 9 Note on, D2 key =  38 ; velocity: 127
@27000 Channel: 9 Note on, C2 key =  36 ; velocity: 0
@27000 Channel: 9 Note on, D2 key =  38 ; velocity: 0
@27000 Channel: 9 Note on, D2 key =  38 ; velocity: 127
@27060 Channel: 9 Note on, D2 key =  38 ; velocity: 0
@27060 Channel: 9 Note on, D2 key =  38 ; velocity: 127
@27090 Channel: 9 Note on, D2 key =  38 ; velocity: 0
@27090 Channel: 9 Note on, D2 key =  38 ; velocity: 127
@27120 Channel: 9 Note on, D2 key =  38 ; velocity: 0
@27120 Channel: 9 Note on, D2 key =  38 ; velocity: 127
@27180 Channel: 9 Note on, D2 key =  38 ; velocity: 0
@27180 Channel: 9 Note on, D2 key =  38 ; velocity: 127
@27210 Channel: 9 Note on, D2 key =  38 ; velocity: 0
@27210 Channel: 9 Note on, D2 key =  38 ; velocity: 127
@27240 Channel: 9 Note on, D2 key =  38 ; velocity: 0
@27240 Channel: 9 Note on, D2 key =  38 ; velocity: 127
@27300 Channel: 9 Note on, D2 key =  38 ; velocity: 0
@27300 Channel: 9 Note on, D2 key =  38 ; velocity: 127
@27360 Channel: 9 Note on, D2 key =  38 ; velocity: 0
@27360 Channel: 9 Note on, A3 key =  57 ; velocity: 127
@27360 Channel: 9 Note on, C2 key =  36 ; velocity: 127
@27420 Channel: 9 Note on, A3 key =  57 ; velocity: 0
@27420 Channel: 9 Note on, D2 key =  38 ; velocity: 127
@27450 Channel: 9 Note on, D2 key =  38 ; velocity: 0
@27450 Channel: 9 Note on, D2 key =  38 ; velocity: 127
@27480 Channel: 9 Note on, C2 key =  36 ; velocity: 0
@27480 Channel: 9 Note on, D2 key =  38 ; velocity: 0
@27480 Channel: 9 Note on, D2 key =  38 ; velocity: 127
@27540 Channel: 9 Note on, D2 key =  38 ; velocity: 0
@27540 Channel: 9 Note on, D2 key =  38 ; velocity: 127
@27570 Channel: 9 Note on, D2 key =  38 ; velocity: 0
@27570 Channel: 9 Note on, D2 key =  38 ; velocity: 127
@27600 Channel: 9 Note on, D2 key =  38 ; velocity: 0
@27600 Channel: 9 Note on, A2 key =  45 ; velocity: 127
@27660 Channel: 9 Note on, A2 key =  45 ; velocity: 0
@27660 Channel: 9 Note on, A2 key =  45 ; velocity: 127
@27690 Channel: 9 Note on, A2 key =  45 ; velocity: 0
@27690 Channel: 9 Note on, A2 key =  45 ; velocity: 127
@27720 Channel: 9 Note on, A2 key =  45 ; velocity: 0
@27720 Channel: 9 Note on, B2 key =  47 ; velocity: 127
@27780 Channel: 9 Note on, B2 key =  47 ; velocity: 0
@27780 Channel: 9 Note on, B2 key =  47 ; velocity: 127
@27840 Channel: 9 Note on, B2 key =  47 ; velocity: 0
@27840 Channel: 9 Note on, A3 key =  57 ; velocity: 127
@27840 Channel: 9 Note on, C2 key =  36 ; velocity: 127
@27900 Channel: 9 Note on, A3 key =  57 ; velocity: 0
@27900 Channel: 9 Note on, F#2 key =  42 ; velocity: 127
@27960 Channel: 9 Note on, C2 key =  36 ; velocity: 0
@27960 Channel: 9 Note on, F#2 key =  42 ; velocity: 0
@27960 Channel: 9 Note on, D2 key =  38 ; velocity: 127
@27960 Channel: 9 Note on, F#2 key =  42 ; velocity: 127
@28020 Channel: 9 Note on, D2 key =  38 ; velocity: 0
@28020 Channel: 9 Note on, F#2 key =  42 ; velocity: 0
@28020 Channel: 9 Note on, F#2 key =  42 ; velocity: 127
@28080 Channel: 9 Note on, F#2 key =  42 ; velocity: 0
@28080 Channel: 9 Note on, C2 key =  36 ; velocity: 127
@28080 Channel: 9 Note on, F#2 key =  42 ; velocity: 127
@28140 Channel: 9 Note on, C2 key =  36 ; velocity: 0
@28140 Channel: 9 Note on, F#2 key =  42 ; velocity: 0
@28140 Channel: 9 Note on, C2 key =  36 ; velocity: 127
@28140 Channel: 9 Note on, F#2 key =  42 ; velocity: 127
@28160 Channel: 9 Note on, C2 key =  36 ; velocity: 0
@28160 Channel: 9 Note on, C2 key =  36 ; velocity: 127
@28180 Channel: 9 Note on, C2 key =  36 ; velocity: 0
@28180 Channel: 9 Note on, C2 key =  36 ; velocity: 127
@28200 Channel: 9 Note on, F#2 key =  42 ; velocity: 0
@28200 Channel: 9 Note on, C2 key =  36 ; velocity: 0
@28200 Channel: 9 Note on, D2 key =  38 ; velocity: 127
@28200 Channel: 9 Note on, F#2 key =  42 ; velocity: 127
@28260 Channel: 9 Note on, D2 key =  38 ; velocity: 0
@28260 Channel: 9 Note on, F#2 key =  42 ; velocity: 0
@28260 Channel: 9 Note on, F#2 key =  42 ; velocity: 127
@28320 Channel: 9 Note on, F#2 key =  42 ; velocity: 0
@28320 Channel: 9 Note on, C2 key =  36 ; velocity: 127
@28320 Channel: 9 Note on, A3 key =  57 ; velocity: 127
@28380 Channel: 9 Note on, A3 key =  57 ; velocity: 0
@28380 Channel: 9 Note on, F#2 key =  42 ; velocity: 127
@28440 Channel: 9 Note on, C2 key =  36 ; velocity: 0
@28440 Channel: 9 Note on, F#2 key =  42 ; velocity: 0
@28440 Channel: 9 Note on, D2 key =  38 ; velocity: 127
@28440 Channel: 9 Note on, F#2 key =  42 ; velocity: 127
@28500 Channel: 9 Note on, D2 key =  38 ; velocity: 0
@28500 Channel: 9 Note on, F#2 key =  42 ; velocity: 0
@28500 Channel: 9 Note on, F#2 key =  42 ; velocity: 127
@28560 Channel: 9 Note on, F#2 key =  42 ; velocity: 0
@28560 Channel: 9 Note on, D2 key =  38 ; velocity: 127
@28590 Channel: 9 Note on, D2 key =  38 ; velocity: 0
@28590 Channel: 9 Note on, D2 key =  38 ; velocity: 127
@28620 Channel: 9 Note on, D2 key =  38 ; velocity: 0
@28620 Channel: 9 Note on, D2 key =  38 ; velocity: 127
@28680 Channel: 9 Note on, D2 key =  38 ; velocity: 0
@28680 Channel: 9 Note on, A2 key =  45 ; velocity: 127
@28710 Channel: 9 Note on, A2 key =  45 ; velocity: 0
@28710 Channel: 9 Note on, A2 key =  45 ; velocity: 127
@28740 Channel: 9 Note on, A2 key =  45 ; velocity: 0
@28740 Channel: 9 Note on, A2 key =  45 ; velocity: 127
@28800 Channel: 9 Note on, A2 key =  45 ; velocity: 0
@28800 Channel: 9 Note on, A3 key =  57 ; velocity: 127
@28800 Channel: 9 Note on, C2 key =  36 ; velocity: 127
@28860 Channel: 9 Note on, A3 key =  57 ; velocity: 0
@28860 Channel: 9 Note on, F#2 key =  42 ; velocity: 127
@28920 Channel: 9 Note on, C2 key =  36 ; velocity: 0
@28920 Channel: 9 Note on, F#2 key =  42 ; velocity: 0
@28920 Channel: 9 Note on, D2 key =  38 ; velocity: 127
@28920 Channel: 9 Note on, F#2 key =  42 ; velocity: 127
@28980 Channel: 9 Note on, D2 key =  38 ; velocity: 0
@28980 Channel: 9 Note on, F#2 key =  42 ; velocity: 0
@28980 Channel: 9 Note on, F#2 key =  42 ; velocity: 127
@29040 Channel: 9 Note on, F#2 key =  42 ; velocity: 0
@29040 Channel: 9 Note on, F#2 key =  42 ; velocity: 127
@29040 Channel: 9 Note on, C2 key =  36 ; velocity: 127
@29100 Channel: 9 Note on, F#2 key =  42 ; velocity: 0
@29100 Channel: 9 Note on, F#2 key =  42 ; velocity: 127
@29160 Channel: 9 Note on, C2 key =  36 ; velocity: 0
@29160 Channel: 9 Note on, F#2 key =  42 ; velocity: 0
@29160 Channel: 9 Note on, D2 key =  38 ; velocity: 127
@29160 Channel: 9 Note on, F#2 key =  42 ; velocity: 127
@29220 Channel: 9 Note on, D2 key =  38 ; velocity: 0
@29220 Channel: 9 Note on, F#2 key =  42 ; velocity: 0
@29220 Channel: 9 Note on, F#2 key =  42 ; velocity: 127
@29280 Channel: 9 Note on, F#2 key =  42 ; velocity: 0
@29280 Channel: 9 Note on, C2 key =  36 ; velocity: 127
@29280 Channel: 9 Note on, F#2 key =  42 ; velocity: 127
@29340 Channel: 9 Note on, C2 key =  36 ; velocity: 0
@29340 Channel: 9 Note on, F#2 key =  42 ; velocity: 0
@29340 Channel: 9 Note on, C2 key =  36 ; velocity: 127
@29340 Channel: 9 Note on, F#2 key =  42 ; velocity: 127
@29360 Channel: 9 Note on, C2 key =  36 ; velocity: 0
@29360 Channel: 9 Note on, C2 key =  36 ; velocity: 127
@29380 Channel: 9 Note on, C2 key =  36 ; velocity: 0
@29380 Channel: 9 Note on, C2 key =  36 ; velocity: 127
@29400 Channel: 9 Note on, F#2 key =  42 ; velocity: 0
@29400 Channel: 9 Note on, C2 key =  36 ; velocity: 0
@29400 Channel: 9 Note on, D2 key =  38 ; velocity: 127
@29400 Channel: 9 Note on, F#2 key =  42 ; velocity: 127
@29460 Channel: 9 Note on, D2 key =  38 ; velocity: 0
@29460 Channel: 9 Note on, F#2 key =  42 ; velocity: 0
@29460 Channel: 9 Note on, C2 key =  36 ; velocity: 127
@29460 Channel: 9 Note on, F#2 key =  42 ; velocity: 127
@29480 Channel: 9 Note on, C2 key =  36 ; velocity: 0
@29480 Channel: 9 Note on, C2 key =  36 ; velocity: 127
@29500 Channel: 9 Note on, C2 key =  36 ; velocity: 0
@29500 Channel: 9 Note on, C2 key =  36 ; velocity: 127
@29520 Channel: 9 Note on, F#2 key =  42 ; velocity: 0
@29520 Channel: 9 Note on, C2 key =  36 ; velocity: 0
@29520 Channel: 9 Note on, D2 key =  38 ; velocity: 127
@29520 Channel: 9 Note on, F#2 key =  42 ; velocity: 127
@29580 Channel: 9 Note on, D2 key =  38 ; velocity: 0
@29580 Channel: 9 Note on, F#2 key =  42 ; velocity: 0
@29580 Channel: 9 Note on, C2 key =  36 ; velocity: 127
@29580 Channel: 9 Note on, F#2 key =  42 ; velocity: 127
@29600 Channel: 9 Note on, C2 key =  36 ; velocity: 0
@29600 Channel: 9 Note on, C2 key =  36 ; velocity: 127
@29620 Channel: 9 Note on, C2 key =  36 ; velocity: 0
@29620 Channel: 9 Note on, C2 key =  36 ; velocity: 127
@29640 Channel: 9 Note on, F#2 key =  42 ; velocity: 0
@29640 Channel: 9 Note on, C2 key =  36 ; velocity: 0
@29640 Channel: 9 Note on, D2 key =  38 ; velocity: 127
@29640 Channel: 9 Note on, F#2 key =  42 ; velocity: 127
@29700 Channel: 9 Note on, D2 key =  38 ; velocity: 0
@29700 Channel: 9 Note on, F#2 key =  42 ; velocity: 0
@29700 Channel: 9 Note on, C2 key =  36 ; velocity: 127
@29700 Channel: 9 Note on, F#2 key =  42 ; velocity: 127
@29760 Channel: 9 Note on, C2 key =  36 ; velocity: 0
@29760 Channel: 9 Note on, F#2 key =  42 ; velocity: 0
@29760 Channel: 9 Note on, A3 key =  57 ; velocity: 127
@29760 Channel: 9 Note on, C2 key =  36 ; velocity: 127
@29820 Channel: 9 Note on, A3 key =  57 ; velocity: 0
@29820 Channel: 9 Note on, F#2 key =  42 ; velocity: 127
@29880 Channel: 9 Note on, C2 key =  36 ; velocity: 0
@29880 Channel: 9 Note on, F#2 key =  42 ; velocity: 0
@29880 Channel: 9 Note on, D2 key =  38 ; velocity: 127
@29880 Channel: 9 Note on, F#2 key =  42 ; velocity: 127
@29940 Channel: 9 Note on, D2 key =  38 ; velocity: 0
@29940 Channel: 9 Note on, F#2 key =  42 ; velocity: 0
@29940 Channel: 9 Note on, F#2 key =  42 ; velocity: 127
@30000 Channel: 9 Note on, F#2 key =  42 ; velocity: 0
@30000 Channel: 9 Note on, F#2 key =  42 ; velocity: 127
@30000 Channel: 9 Note on, C2 key =  36 ; velocity: 127
@30060 Channel: 9 Note on, F#2 key =  42 ; velocity: 0
@30060 Channel: 9 Note on, C2 key =  36 ; velocity: 0
@30060 Channel: 9 Note on, F#2 key =  42 ; velocity: 127
@30060 Channel: 9 Note on, C2 key =  36 ; velocity: 127
@30080 Channel: 9 Note on, C2 key =  36 ; velocity: 0
@30080 Channel: 9 Note on, C2 key =  36 ; velocity: 127
@30100 Channel: 9 Note on, C2 key =  36 ; velocity: 0
@30100 Channel: 9 Note on, C2 key =  36 ; velocity: 127
@30120 Channel: 9 Note on, F#2 key =  42 ; velocity: 0
@30120 Channel: 9 Note on, C2 key =  36 ; velocity: 0
@30120 Channel: 9 Note on, D2 key =  38 ; velocity: 127
@30120 Channel: 9 Note on, F#2 key =  42 ; velocity: 127
@30180 Channel: 9 Note on, D2 key =  38 ; velocity: 0
@30180 Channel: 9 Note on, F#2 key =  42 ; velocity: 0
@30180 Channel: 9 Note on, F#2 key =  42 ; velocity: 127
@30180 Channel: 9 Note on, C2 key =  36 ; velocity: 127
@30240 Channel: 9 Note on, F#2 key =  42 ; velocity: 0
@30240 Channel: 9 Note on, C2 key =  36 ; velocity: 0
@30240 Channel: 9 Note on, C2 key =  36 ; velocity: 127
@30240 Channel: 9 Note on, A3 key =  57 ; velocity: 127
@30300 Channel: 9 Note on, A3 key =  57 ; velocity: 0
@30300 Channel: 9 Note on, F#2 key =  42 ; velocity: 127
@30360 Channel: 9 Note on, C2 key =  36 ; velocity: 0
@30360 Channel: 9 Note on, F#2 key =  42 ; velocity: 0
@30360 Channel: 9 Note on, D2 key =  38 ; velocity: 127
@30360 Channel: 9 Note on, F#2 key =  42 ; velocity: 127
@30420 Channel: 9 Note on, D2 key =  38 ; velocity: 0
@30420 Channel: 9 Note on, F#2 key =  42 ; velocity: 0
@30420 Channel: 9 Note on, F#2 key =  42 ; velocity: 127
@30480 Channel: 9 Note on, F#2 key =  42 ; velocity: 0
@30480 Channel: 9 Note on, A2 key =  45 ; velocity: 127
@30540 Channel: 9 Note on, A2 key =  45 ; velocity: 0
@30540 Channel: 9 Note on, A2 key =  45 ; velocity: 127
@30600 Channel: 9 Note on, A2 key =  45 ; velocity: 0
@30600 Channel: 9 Note on, B2 key =  47 ; velocity: 127
@30630 Channel: 9 Note on, B2 key =  47 ; velocity: 0
@30630 Channel: 9 Note on, B2 key =  47 ; velocity: 127
@30660 Channel: 9 Note on, B2 key =  47 ; velocity: 0
@30660 Channel: 9 Note on, B2 key =  47 ; velocity: 127
@30690 Channel: 9 Note on, B2 key =  47 ; velocity: 0
@30690 Channel: 9 Note on, B2 key =  47 ; velocity: 127
@30720 Channel: 9 Note on, B2 key =  47 ; velocity: 0
@30720 Channel: 9 Note on, A3 key =  57 ; velocity: 127
@30720 Channel: 9 Note on, C2 key =  36 ; velocity: 127
@30780 Channel: 9 Note on, A3 key =  57 ; velocity: 0
@30780 Channel: 9 Note on, F#2 key =  42 ; velocity: 127
@30840 Channel: 9 Note on, C2 key =  36 ; velocity: 0
@30840 Channel: 9 Note on, F#2 key =  42 ; velocity: 0
@30840 Channel: 9 Note on, D2 key =  38 ; velocity: 127
@30840 Channel: 9 Note on, F#2 key =  42 ; velocity: 127
@30900 Channel: 9 Note on, D2 key =  38 ; velocity: 0
@30900 Channel: 9 Note on, F#2 key =  42 ; velocity: 0
@30900 Channel: 9 Note on, F#2 key =  42 ; velocity: 127
@30960 Channel: 9 Note on, F#2 key =  42 ; velocity: 0
@30960 Channel: 9 Note on, F#2 key =  42 ; velocity: 127
@30960 Channel: 9 Note on, C2 key =  36 ; velocity: 127
@31020 Channel: 9 Note on, F#2 key =  42 ; velocity: 0
@31020 Channel: 9 Note on, F#2 key =  42 ; velocity: 127
@31080 Channel: 9 Note on, C2 key =  36 ; velocity: 0
@31080 Channel: 9 Note on, F#2 key =  42 ; velocity: 0
@31080 Channel: 9 Note on, D2 key =  38 ; velocity: 127
@31080 Channel: 9 Note on, F#2 key =  42 ; velocity: 127
@31140 Channel: 9 Note on, D2 key =  38 ; velocity: 0
@31140 Channel: 9 Note on, F#2 key =  42 ; velocity: 0
@31140 Channel: 9 Note on, F#2 key =  42 ; velocity: 127
@31200 Channel: 9 Note on, F#2 key =  42 ; velocity: 0
@31200 Channel: 9 Note on, D2 key =  38 ; velocity: 127
@31230 Channel: 9 Note on, D2 key =  38 ; velocity: 0
@31230 Channel: 9 Note on, D2 key =  38 ; velocity: 127
@31260 Channel: 9 Note on, D2 key =  38 ; velocity: 0
@31260 Channel: 9 Note on, F#2 key =  42 ; velocity: 127
@31320 Channel: 9 Note on, F#2 key =  42 ; velocity: 0
@31320 Channel: 9 Note on, D2 key =  38 ; velocity: 127
@31350 Channel: 9 Note on, D2 key =  38 ; velocity: 0
@31350 Channel: 9 Note on, D2 key =  38 ; velocity: 127
@31380 Channel: 9 Note on, D2 key =  38 ; velocity: 0
@31380 Channel: 9 Note on, F#2 key =  42 ; velocity: 127
@31440 Channel: 9 Note on, F#2 key =  42 ; velocity: 0
@31440 Channel: 9 Note on, D2 key =  38 ; velocity: 127
@31470 Channel: 9 Note on, D2 key =  38 ; velocity: 0
@31470 Channel: 9 Note on, D2 key =  38 ; velocity: 127
@31500 Channel: 9 Note on, D2 key =  38 ; velocity: 0
@31500 Channel: 9 Note on, F#2 key =  42 ; velocity: 127
@31555 Channel: 9 Note on, F#2 key =  42 ; velocity: 0
@31555 Channel: 9 Note on, D2 key =  38 ; velocity: 75
@31560 Channel: 9 Note on, D2 key =  38 ; velocity: 0
@31560 Channel: 9 Note on, D2 key =  38 ; velocity: 127
@31615 Channel: 9 Note on, D2 key =  38 ; velocity: 0
@31615 Channel: 9 Note on, D2 key =  38 ; velocity: 75
@31620 Channel: 9 Note on, D2 key =  38 ; velocity: 0
@31620 Channel: 9 Note on, D2 key =  38 ; velocity: 127
@31680 Channel: 9 Note on, D2 key =  38 ; velocity: 0
@31680 Channel: 9 Note on, A3 key =  57 ; velocity: 127
@31680 Channel: 9 Note on, C2 key =  36 ; velocity: 127
@31740 Channel: 9 Note on, A3 key =  57 ; velocity: 0
@31740 Channel: 9 Note on, F#2 key =  42 ; velocity: 127
@31800 Channel: 9 Note on, C2 key =  36 ; velocity: 0
@31800 Channel: 9 Note on, F#2 key =  42 ; velocity: 0
@31800 Channel: 9 Note on, D2 key =  38 ; velocity: 127
@31800 Channel: 9 Note on, F#2 key =  42 ; velocity: 127
@31860 Channel: 9 Note on, D2 key =  38 ; velocity: 0
@31860 Channel: 9 Note on, F#2 key =  42 ; velocity: 0
@31860 Channel: 9 Note on, F#2 key =  42 ; velocity: 127
@31920 Channel: 9 Note on, F#2 key =  42 ; velocity: 0
@31920 Channel: 9 Note on, F#2 key =  42 ; velocity: 127
@31920 Channel: 9 Note on, C2 key =  36 ; velocity: 127
@31980 Channel: 9 Note on, F#2 key =  42 ; velocity: 0
@31980 Channel: 9 Note on, C2 key =  36 ; velocity: 0
@31980 Channel: 9 Note on, F#2 key =  42 ; velocity: 127
@31980 Channel: 9 Note on, C2 key =  36 ; velocity: 127
@32000 Channel: 9 Note on, C2 key =  36 ; velocity: 0
@32000 Channel: 9 Note on, C2 key =  36 ; velocity: 127
@32020 Channel: 9 Note on, C2 key =  36 ; velocity: 0
@32020 Channel: 9 Note on, C2 key =  36 ; velocity: 127
@32040 Channel: 9 Note on, F#2 key =  42 ; velocity: 0
@32040 Channel: 9 Note on, C2 key =  36 ; velocity: 0
@32040 Channel: 9 Note on, D2 key =  38 ; velocity: 127
@32040 Channel: 9 Note on, A3 key =  57 ; velocity: 127
@32160 Channel: 9 Note on, D2 key =  38 ; velocity: 0
@32160 Channel: 9 Note on, A3 key =  57 ; velocity: 0
@32160 Channel: 9 Note on, C2 key =  36 ; velocity: 127
@32160 Channel: 9 Note on, A3 key =  57 ; velocity: 127
@32280 Channel: 9 Note on, C2 key =  36 ; velocity: 0
@32280 Channel: 9 Note on, A3 key =  57 ; velocity: 0
@32280 Channel: 9 Note on, D2 key =  38 ; velocity: 127
@32280 Channel: 9 Note on, F#2 key =  42 ; velocity: 127
@32340 Channel: 9 Note on, D2 key =  38 ; velocity: 0
@32340 Channel: 9 Note on, F#2 key =  42 ; velocity: 0
@32340 Channel: 9 Note on, F#2 key =  42 ; velocity: 127
@32400 Channel: 9 Note on, F#2 key =  42 ; velocity: 0
@32400 Channel: 9 Note on, C2 key =  36 ; velocity: 127
@32400 Channel: 9 Note on, A3 key =  57 ; velocity: 127
@32460 Channel: 9 Note on, C2 key =  36 ; velocity: 0
@32460 Channel: 9 Note on, A3 key =  57 ; velocity: 0
@32460 Channel: 9 Note on, C2 key =  36 ; velocity: 127
@32460 Channel: 9 Note on, A3 key =  57 ; velocity: 127
@32520 Channel: 9 Note on, C2 key =  36 ; velocity: 0
@32520 Channel: 9 Note on, A3 key =  57 ; velocity: 0
@32520 Channel: 9 Note on, C2 key =  36 ; velocity: 127
@32520 Channel: 9 Note on, A3 key =  57 ; velocity: 127
@32580 Channel: 9 Note on, C2 key =  36 ; velocity: 0
@32580 Channel: 9 Note on, A3 key =  57 ; velocity: 0
@32580 Channel: 9 Note on, C2 key =  36 ; velocity: 127
@32580 Channel: 9 Note on, A3 key =  57 ; velocity: 127
@32640 Channel: 9 Note on, C2 key =  36 ; velocity: 0
@32640 Channel: 9 Note on, A3 key =  57 ; velocity: 0
@32640 Channel: 9 Note on, A3 key =  57 ; velocity: 127
@32640 Channel: 9 Note on, C2 key =  36 ; velocity: 127
@32700 Channel: 9 Note on, A3 key =  57 ; velocity: 0
@32700 Channel: 9 Note on, F#2 key =  42 ; velocity: 127
@32760 Channel: 9 Note on, C2 key =  36 ; velocity: 0
@32760 Channel: 9 Note on, F#2 key =  42 ; velocity: 0
@32760 Channel: 9 Note on, D2 key =  38 ; velocity: 127
@32760 Channel: 9 Note on, F#2 key =  42 ; velocity: 127
@32820 Channel: 9 Note on, D2 key =  38 ; velocity: 0
@32820 Channel: 9 Note on, F#2 key =  42 ; velocity: 0
@32820 Channel: 9 Note on, F#2 key =  42 ; velocity: 127
@32880 Channel: 9 Note on, F#2 key =  42 ; velocity: 0
@32880 Channel: 9 Note on, F#2 key =  42 ; velocity: 127
@32880 Channel: 9 Note on, C2 key =  36 ; velocity: 127
@32940 Channel: 9 Note on, F#2 key =  42 ; velocity: 0
@32940 Channel: 9 Note on, F#2 key =  42 ; velocity: 127
@33000 Channel: 9 Note on, C2 key =  36 ; velocity: 0
@33000 Channel: 9 Note on, F#2 key =  42 ; velocity: 0
@33000 Channel: 9 Note on, D2 key =  38 ; velocity: 127
@33000 Channel: 9 Note on, F#2 key =  42 ; velocity: 127
@33060 Channel: 9 Note on, D2 key =  38 ; velocity: 0
@33060 Channel: 9 Note on, F#2 key =  42 ; velocity: 0
@33060 Channel: 9 Note on, F#2 key =  42 ; velocity: 127
@33120 Channel: 9 Note on, F#2 key =  42 ; velocity: 0
@33120 Channel: 9 Note on, C2 key =  36 ; velocity: 127
@33120 Channel: 9 Note on, F#2 key =  42 ; velocity: 127
@33180 Channel: 9 Note on, C2 key =  36 ; velocity: 0
@33180 Channel: 9 Note on, F#2 key =  42 ; velocity: 0
@33180 Channel: 9 Note on, C2 key =  36 ; velocity: 127
@33180 Channel: 9 Note on, F#2 key =  42 ; velocity: 127
@33200 Channel: 9 Note on, C2 key =  36 ; velocity: 0
@33200 Channel: 9 Note on, C2 key =  36 ; velocity: 127
@33220 Channel: 9 Note on, C2 key =  36 ; velocity: 0
@33220 Channel: 9 Note on, C2 key =  36 ; velocity: 127
@33240 Channel: 9 Note on, F#2 key =  42 ; velocity: 0
@33240 Channel: 9 Note on, C2 key =  36 ; velocity: 0
@33240 Channel: 9 Note on, D2 key =  38 ; velocity: 127
@33240 Channel: 9 Note on, F#2 key =  42 ; velocity: 127
@33300 Channel: 9 Note on, D2 key =  38 ; velocity: 0
@33300 Channel: 9 Note on, F#2 key =  42 ; velocity: 0
@33300 Channel: 9 Note on, C2 key =  36 ; velocity: 127
@33300 Channel: 9 Note on, F#2 key =  42 ; velocity: 127
@33320 Channel: 9 Note on, C2 key =  36 ; velocity: 0
@33320 Channel: 9 Note on, C2 key =  36 ; velocity: 127
@33340 Channel: 9 Note on, C2 key =  36 ; velocity: 0
@33340 Channel: 9 Note on, C2 key =  36 ; velocity: 127
@33360 Channel: 9 Note on, F#2 key =  42 ; velocity: 0
@33360 Channel: 9 Note on, C2 key =  36 ; velocity: 0
@33360 Channel: 9 Note on, D2 key =  38 ; velocity: 127
@33360 Channel: 9 Note on, F#2 key =  42 ; velocity: 127
@33420 Channel: 9 Note on, D2 key =  38 ; velocity: 0
@33420 Channel: 9 Note on, F#2 key =  42 ; velocity: 0
@33420 Channel: 9 Note on, C2 key =  36 ; velocity: 127
@33420 Channel: 9 Note on, F#2 key =  42 ; velocity: 127
@33440 Channel: 9 Note on, C2 key =  36 ; velocity: 0
@33440 Channel: 9 Note on, C2 key =  36 ; velocity: 127
@33460 Channel: 9 Note on, C2 key =  36 ; velocity: 0
@33460 Channel: 9 Note on, C2 key =  36 ; velocity: 127
@33480 Channel: 9 Note on, F#2 key =  42 ; velocity: 0
@33480 Channel: 9 Note on, C2 key =  36 ; velocity: 0
@33480 Channel: 9 Note on, D2 key =  38 ; velocity: 127
@33480 Channel: 9 Note on, F#2 key =  42 ; velocity: 127
@33540 Channel: 9 Note on, D2 key =  38 ; velocity: 0
@33540 Channel: 9 Note on, F#2 key =  42 ; velocity: 0
@33540 Channel: 9 Note on, A3 key =  57 ; velocity: 127
@33540 Channel: 9 Note on, C2 key =  36 ; velocity: 127
@33600 Channel: 9 Note on, A3 key =  57 ; velocity: 0
@33600 Channel: 9 Note on, C2 key =  36 ; velocity: 0
@33600 Channel: 9 Note on, A3 key =  57 ; velocity: 127
@33600 Channel: 9 Note on, C2 key =  36 ; velocity: 127
@33660 Channel: 9 Note on, A3 key =  57 ; velocity: 0
@33660 Channel: 9 Note on, F#2 key =  42 ; velocity: 127
@33720 Channel: 9 Note on, C2 key =  36 ; velocity: 0
@33720 Channel: 9 Note on, F#2 key =  42 ; velocity: 0
@33720 Channel: 9 Note on, D2 key =  38 ; velocity: 127
@33720 Channel: 9 Note on, F#2 key =  42 ; velocity: 127
@33780 Channel: 9 Note on, D2 key =  38 ; velocity: 0
@33780 Channel: 9 Note on, F#2 key =  42 ; velocity: 0
@33780 Channel: 9 Note on, F#2 key =  42 ; velocity: 127
@33840 Channel: 9 Note on, F#2 key =  42 ; velocity: 0
@33840 Channel: 9 Note on, F#2 key =  42 ; velocity: 127
@33840 Channel: 9 Note on, C2 key =  36 ; velocity: 127
@33900 Channel: 9 Note on, F#2 key =  42 ; velocity: 0
@33900 Channel: 9 Note on, C2 key =  36 ; velocity: 0
@33900 Channel: 9 Note on, F#2 key =  42 ; velocity: 127
@33900 Channel: 9 Note on, C2 key =  36 ; velocity: 127
@33920 Channel: 9 Note on, C2 key =  36 ; velocity: 0
@33920 Channel: 9 Note on, C2 key =  36 ; velocity: 127
@33940 Channel: 9 Note on, C2 key =  36 ; velocity: 0
@33940 Channel: 9 Note on, C2 key =  36 ; velocity: 127
@33960 Channel: 9 Note on, F#2 key =  42 ; velocity: 0
@33960 Channel: 9 Note on, C2 key =  36 ; velocity: 0
@33960 Channel: 9 Note on, D2 key =  38 ; velocity: 127
@33960 Channel: 9 Note on, A3 key =  57 ; velocity: 127
@34080 Channel: 9 Note on, D2 key =  38 ; velocity: 0
@34080 Channel: 9 Note on, A3 key =  57 ; velocity: 0
@34080 Channel: 9 Note on, C2 key =  36 ; velocity: 127
@34080 Channel: 9 Note on, A3 key =  57 ; velocity: 127
@34140 Channel: 9 Note on, A3 key =  57 ; velocity: 0
@34140 Channel: 9 Note on, F#2 key =  42 ; velocity: 127
@34200 Channel: 9 Note on, C2 key =  36 ; velocity: 0
@34200 Channel: 9 Note on, F#2 key =  42 ; velocity: 0
@34200 Channel: 9 Note on, D2 key =  38 ; velocity: 127
@34200 Channel: 9 Note on, F#2 key =  42 ; velocity: 127
@34260 Channel: 9 Note on, D2 key =  38 ; velocity: 0
@34260 Channel: 9 Note on, F#2 key =  42 ; velocity: 0
@34260 Channel: 9 Note on, F#2 key =  42 ; velocity: 127
@34315 Channel: 9 Note on, F#2 key =  42 ; velocity: 0
@34315 Channel: 9 Note on, D2 key =  38 ; velocity: 75
@34320 Channel: 9 Note on, D2 key =  38 ; velocity: 127
@34380 Channel: 9 Note on, D2 key =  38 ; velocity: 0
@34380 Channel: 9 Note on, D2 key =  38 ; velocity: 0
@34380 Channel: 9 Note on, D2 key =  38 ; velocity: 127
@34440 Channel: 9 Note on, D2 key =  38 ; velocity: 0
@34440 Channel: 9 Note on, A2 key =  45 ; velocity: 127
@34470 Channel: 9 Note on, A2 key =  45 ; velocity: 0
@34470 Channel: 9 Note on, A2 key =  45 ; velocity: 127
@34500 Channel: 9 Note on, A2 key =  45 ; velocity: 0
@34500 Channel: 9 Note on, A2 key =  45 ; velocity: 127
@34560 Channel: 9 Note on, A2 key =  45 ; velocity: 0
@34560 Channel: 9 Note on, A3 key =  57 ; velocity: 127
@34560 Channel: 9 Note on, C2 key =  36 ; velocity: 127
@34620 Channel: 9 Note on, A3 key =  57 ; velocity: 0
@34620 Channel: 9 Note on, F#2 key =  42 ; velocity: 127
@34680 Channel: 9 Note on, C2 key =  36 ; velocity: 0
@34680 Channel: 9 Note on, F#2 key =  42 ; velocity: 0
@34680 Channel: 9 Note on, D2 key =  38 ; velocity: 127
@34680 Channel: 9 Note on, F#2 key =  42 ; velocity: 127
@34740 Channel: 9 Note on, D2 key =  38 ; velocity: 0
@34740 Channel: 9 Note on, F#2 key =  42 ; velocity: 0
@34740 Channel: 9 Note on, F#2 key =  42 ; velocity: 127
@34800 Channel: 9 Note on, F#2 key =  42 ; velocity: 0
@34800 Channel: 9 Note on, C2 key =  36 ; velocity: 127
@34800 Channel: 9 Note on, F#2 key =  42 ; velocity: 127
@34860 Channel: 9 Note on, C2 key =  36 ; velocity: 0
@34860 Channel: 9 Note on, F#2 key =  42 ; velocity: 0
@34860 Channel: 9 Note on, C2 key =  36 ; velocity: 127
@34860 Channel: 9 Note on, F#2 key =  42 ; velocity: 127
@34880 Channel: 9 Note on, C2 key =  36 ; velocity: 0
@34880 Channel: 9 Note on, C2 key =  36 ; velocity: 127
@34900 Channel: 9 Note on, C2 key =  36 ; velocity: 0
@34900 Channel: 9 Note on, C2 key =  36 ; velocity: 127
@34920 Channel: 9 Note on, F#2 key =  42 ; velocity: 0
@34920 Channel: 9 Note on, C2 key =  36 ; velocity: 0
@34920 Channel: 9 Note on, D2 key =  38 ; velocity: 127
@34920 Channel: 9 Note on, F#2 key =  42 ; velocity: 127
@34980 Channel: 9 Note on, D2 key =  38 ; velocity: 0
@34980 Channel: 9 Note on, F#2 key =  42 ; velocity: 0
@34980 Channel: 9 Note on, C2 key =  36 ; velocity: 127
@34980 Channel: 9 Note on, F#2 key =  42 ; velocity: 127
@35040 Channel: 9 Note on, C2 key =  36 ; velocity: 0
@35040 Channel: 9 Note on, F#2 key =  42 ; velocity: 0
@35040 Channel: 9 Note on, F#2 key =  42 ; velocity: 127
@35040 Channel: 9 Note on, C2 key =  36 ; velocity: 127
@35100 Channel: 9 Note on, F#2 key =  42 ; velocity: 0
@35100 Channel: 9 Note on, F#2 key =  42 ; velocity: 127
@35160 Channel: 9 Note on, C2 key =  36 ; velocity: 0
@35160 Channel: 9 Note on, F#2 key =  42 ; velocity: 0
@35160 Channel: 9 Note on, D2 key =  38 ; velocity: 127
@35160 Channel: 9 Note on, F#2 key =  42 ; velocity: 127
@35220 Channel: 9 Note on, D2 key =  38 ; velocity: 0
@35220 Channel: 9 Note on, F#2 key =  42 ; velocity: 0
@35220 Channel: 9 Note on, F#2 key =  42 ; velocity: 127
@35280 Channel: 9 Note on, F#2 key =  42 ; velocity: 0
@35280 Channel: 9 Note on, C2 key =  36 ; velocity: 127
@35280 Channel: 9 Note on, F#2 key =  42 ; velocity: 127
@35340 Channel: 9 Note on, C2 key =  36 ; velocity: 0
@35340 Channel: 9 Note on, F#2 key =  42 ; velocity: 0
@35340 Channel: 9 Note on, C2 key =  36 ; velocity: 127
@35340 Channel: 9 Note on, F#2 key =  42 ; velocity: 127
@35360 Channel: 9 Note on, C2 key =  36 ; velocity: 0
@35360 Channel: 9 Note on, C2 key =  36 ; velocity: 127
@35380 Channel: 9 Note on, C2 key =  36 ; velocity: 0
@35380 Channel: 9 Note on, C2 key =  36 ; velocity: 127
@35400 Channel: 9 Note on, F#2 key =  42 ; velocity: 0
@35400 Channel: 9 Note on, C2 key =  36 ; velocity: 0
@35400 Channel: 9 Note on, D2 key =  38 ; velocity: 127
@35400 Channel: 9 Note on, F#2 key =  42 ; velocity: 127
@35460 Channel: 9 Note on, D2 key =  38 ; velocity: 0
@35460 Channel: 9 Note on, F#2 key =  42 ; velocity: 0
@35460 Channel: 9 Note on, C2 key =  36 ; velocity: 127
@35460 Channel: 9 Note on, F#2 key =  42 ; velocity: 127
@35520 Channel: 9 Note on, C2 key =  36 ; velocity: 0
@35520 Channel: 9 Note on, F#2 key =  42 ; velocity: 0
@35520 Channel: 9 Note on, F#2 key =  42 ; velocity: 127
@35520 Channel: 9 Note on, C2 key =  36 ; velocity: 127
@35580 Channel: 9 Note on, F#2 key =  42 ; velocity: 0
@35580 Channel: 9 Note on, F#2 key =  42 ; velocity: 127
@35640 Channel: 9 Note on, C2 key =  36 ; velocity: 0
@35640 Channel: 9 Note on, F#2 key =  42 ; velocity: 0
@35640 Channel: 9 Note on, D2 key =  38 ; velocity: 127
@35640 Channel: 9 Note on, F#2 key =  42 ; velocity: 127
@35700 Channel: 9 Note on, D2 key =  38 ; velocity: 0
@35700 Channel: 9 Note on, F#2 key =  42 ; velocity: 0
@35700 Channel: 9 Note on, F#2 key =  42 ; velocity: 127
@35760 Channel: 9 Note on, F#2 key =  42 ; velocity: 0
@35760 Channel: 9 Note on, C2 key =  36 ; velocity: 127
@35760 Channel: 9 Note on, F#2 key =  42 ; velocity: 127
@35820 Channel: 9 Note on, C2 key =  36 ; velocity: 0
@35820 Channel: 9 Note on, F#2 key =  42 ; velocity: 0
@35820 Channel: 9 Note on, C2 key =  36 ; velocity: 127
@35820 Channel: 9 Note on, F#2 key =  42 ; velocity: 127
@35840 Channel: 9 Note on, C2 key =  36 ; velocity: 0
@35840 Channel: 9 Note on, C2 key =  36 ; velocity: 127
@35860 Channel: 9 Note on, C2 key =  36 ; velocity: 0
@35860 Channel: 9 Note on, C2 key =  36 ; velocity: 127
@35880 Channel: 9 Note on, F#2 key =  42 ; velocity: 0
@35880 Channel: 9 Note on, C2 key =  36 ; velocity: 0
@35880 Channel: 9 Note on, D2 key =  38 ; velocity: 127
@35880 Channel: 9 Note on, F#2 key =  42 ; velocity: 127
@35940 Channel: 9 Note on, D2 key =  38 ; velocity: 0
@35940 Channel: 9 Note on, F#2 key =  42 ; velocity: 0
@35940 Channel: 9 Note on, F#2 key =  42 ; velocity: 127
@35995 Channel: 9 Note on, F#2 key =  42 ; velocity: 0
@35995 Channel: 9 Note on, D2 key =  38 ; velocity: 75
@36000 Channel: 9 Note on, D2 key =  38 ; velocity: 0
@36000 Channel: 9 Note on, D2 key =  38 ; velocity: 127
@36055 Channel: 9 Note on, D2 key =  38 ; velocity: 0
@36055 Channel: 9 Note on, D2 key =  38 ; velocity: 75
@36060 Channel: 9 Note on, D2 key =  38 ; velocity: 0
@36060 Channel: 9 Note on, D2 key =  38 ; velocity: 127
@36115 Channel: 9 Note on, D2 key =  38 ; velocity: 0
@36115 Channel: 9 Note on, A2 key =  45 ; velocity: 75
@36120 Channel: 9 Note on, A2 key =  45 ; velocity: 0
@36120 Channel: 9 Note on, A2 key =  45 ; velocity: 127
@36175 Channel: 9 Note on, A2 key =  45 ; velocity: 0
@36175 Channel: 9 Note on, A2 key =  45 ; velocity: 75
@36180 Channel: 9 Note on, A2 key =  45 ; velocity: 0
@36180 Channel: 9 Note on, A2 key =  45 ; velocity: 127
@36240 Channel: 9 Note on, A2 key =  45 ; velocity: 0
@36240 Channel: 9 Note on, C3 key =  48 ; velocity: 127
@36240 Channel: 9 Note on, B2 key =  47 ; velocity: 127
@36300 Channel: 9 Note on, C3 key =  48 ; velocity: 0
@36300 Channel: 9 Note on, B2 key =  47 ; velocity: 0
@36300 Channel: 9 Note on, C3 key =  48 ; velocity: 127
@36300 Channel: 9 Note on, B2 key =  47 ; velocity: 127
@36355 Channel: 9 Note on, C3 key =  48 ; velocity: 0
@36355 Channel: 9 Note on, B2 key =  47 ; velocity: 0
@36355 Channel: 9 Note on, D3 key =  50 ; velocity: 75
@36360 Channel: 9 Note on, D3 key =  50 ; velocity: 0
@36360 Channel: 9 Note on, D3 key =  50 ; velocity: 127
@36415 Channel: 9 Note on, D3 key =  50 ; velocity: 0
@36415 Channel: 9 Note on, D3 key =  50 ; velocity: 75
@36420 Channel: 9 Note on, D3 key =  50 ; velocity: 0
@36420 Channel: 9 Note on, D3 key =  50 ; velocity: 127
@36480 Channel: 9 Note on, D3 key =  50 ; velocity: 0
@36480 Channel: 9 Note on, A3 key =  57 ; velocity: 127
@36480 Channel: 9 Note on, C2 key =  36 ; velocity: 127
@36540 Channel: 9 Note on, A3 key =  57 ; velocity: 0
@36540 Channel: 9 Note on, F#2 key =  42 ; velocity: 127
@36600 Channel: 9 Note on, C2 key =  36 ; velocity: 0
@36600 Channel: 9 Note on, F#2 key =  42 ; velocity: 0
@36600 Channel: 9 Note on, D2 key =  38 ; velocity: 127
@36600 Channel: 9 Note on, F#2 key =  42 ; velocity: 127
@36660 Channel: 9 Note on, D2 key =  38 ; velocity: 0
@36660 Channel: 9 Note on, F#2 key =  42 ; velocity: 0
@36660 Channel: 9 Note on, F#2 key =  42 ; velocity: 127
@36720 Channel: 9 Note on, F#2 key =  42 ; velocity: 0
@36720 Channel: 9 Note on, C2 key =  36 ; velocity: 127
@36720 Channel: 9 Note on, F#2 key =  42 ; velocity: 127
@36780 Channel: 9 Note on, C2 key =  36 ; velocity: 0
@36780 Channel: 9 Note on, F#2 key =  42 ; velocity: 0
@36780 Channel: 9 Note on, C2 key =  36 ; velocity: 127
@36780 Channel: 9 Note on, F#2 key =  42 ; velocity: 127
@36800 Channel: 9 Note on, C2 key =  36 ; velocity: 0
@36800 Channel: 9 Note on, C2 key =  36 ; velocity: 127
@36820 Channel: 9 Note on, C2 key =  36 ; velocity: 0
@36820 Channel: 9 Note on, C2 key =  36 ; velocity: 127
@36840 Channel: 9 Note on, F#2 key =  42 ; velocity: 0
@36840 Channel: 9 Note on, C2 key =  36 ; velocity: 0
@36840 Channel: 9 Note on, D2 key =  38 ; velocity: 127
@36840 Channel: 9 Note on, F#2 key =  42 ; velocity: 127
@36900 Channel: 9 Note on, D2 key =  38 ; velocity: 0
@36900 Channel: 9 Note on, F#2 key =  42 ; velocity: 0
@36900 Channel: 9 Note on, C2 key =  36 ; velocity: 127
@36900 Channel: 9 Note on, F#2 key =  42 ; velocity: 127
@36960 Channel: 9 Note on, C2 key =  36 ; velocity: 0
@36960 Channel: 9 Note on, F#2 key =  42 ; velocity: 0
@36960 Channel: 9 Note on, F#2 key =  42 ; velocity: 127
@36960 Channel: 9 Note on, C2 key =  36 ; velocity: 127
@37020 Channel: 9 Note on, F#2 key =  42 ; velocity: 0
@37020 Channel: 9 Note on, F#2 key =  42 ; velocity: 127
@37080 Channel: 9 Note on, C2 key =  36 ; velocity: 0
@37080 Channel: 9 Note on, F#2 key =  42 ; velocity: 0
@37080 Channel: 9 Note on, D2 key =  38 ; velocity: 127
@37080 Channel: 9 Note on, F#2 key =  42 ; velocity: 127
@37140 Channel: 9 Note on, D2 key =  38 ; velocity: 0
@37140 Channel: 9 Note on, F#2 key =  42 ; velocity: 0
@37140 Channel: 9 Note on, F#2 key =  42 ; velocity: 127
@37200 Channel: 9 Note on, F#2 key =  42 ; velocity: 0
@37200 Channel: 9 Note on, C2 key =  36 ; velocity: 127
@37200 Channel: 9 Note on, F#2 key =  42 ; velocity: 127
@37260 Channel: 9 Note on, C2 key =  36 ; velocity: 0
@37260 Channel: 9 Note on, F#2 key =  42 ; velocity: 0
@37260 Channel: 9 Note on, C2 key =  36 ; velocity: 127
@37260 Channel: 9 Note on, F#2 key =  42 ; velocity: 127
@37280 Channel: 9 Note on, C2 key =  36 ; velocity: 0
@37280 Channel: 9 Note on, C2 key =  36 ; velocity: 127
@37300 Channel: 9 Note on, C2 key =  36 ; velocity: 0
@37300 Channel: 9 Note on, C2 key =  36 ; velocity: 127
@37320 Channel: 9 Note on, F#2 key =  42 ; velocity: 0
@37320 Channel: 9 Note on, C2 key =  36 ; velocity: 0
@37320 Channel: 9 Note on, D2 key =  38 ; velocity: 127
@37320 Channel: 9 Note on, F#2 key =  42 ; velocity: 127
@37380 Channel: 9 Note on, D2 key =  38 ; velocity: 0
@37380 Channel: 9 Note on, F#2 key =  42 ; velocity: 0
@37380 Channel: 9 Note on, C2 key =  36 ; velocity: 127
@37380 Channel: 9 Note on, F#2 key =  42 ; velocity: 127
@37440 Channel: 9 Note on, C2 key =  36 ; velocity: 0
@37440 Channel: 9 Note on, F#2 key =  42 ; velocity: 0
@37440 Channel: 9 Note on, F#2 key =  42 ; velocity: 127
@37440 Channel: 9 Note on, C2 key =  36 ; velocity: 127
@37500 Channel: 9 Note on, F#2 key =  42 ; velocity: 0
@37500 Channel: 9 Note on, F#2 key =  42 ; velocity: 127
@37560 Channel: 9 Note on, C2 key =  36 ; velocity: 0
@37560 Channel: 9 Note on, F#2 key =  42 ; velocity: 0
@37560 Channel: 9 Note on, A3 key =  57 ; velocity: 127
@37560 Channel: 9 Note on, D2 key =  38 ; velocity: 127
@37620 Channel: 9 Note on, A3 key =  57 ; velocity: 0
@37620 Channel: 9 Note on, D2 key =  38 ; velocity: 0
@37620 Channel: 9 Note on, F#2 key =  42 ; velocity: 127
@37680 Channel: 9 Note on, F#2 key =  42 ; velocity: 0
@37680 Channel: 9 Note on, C2 key =  36 ; velocity: 127
@37680 Channel: 9 Note on, F#2 key =  42 ; velocity: 127
@37740 Channel: 9 Note on, C2 key =  36 ; velocity: 0
@37740 Channel: 9 Note on, F#2 key =  42 ; velocity: 0
@37740 Channel: 9 Note on, C2 key =  36 ; velocity: 127
@37740 Channel: 9 Note on, F#2 key =  42 ; velocity: 127
@37760 Channel: 9 Note on, C2 key =  36 ; velocity: 0
@37760 Channel: 9 Note on, C2 key =  36 ; velocity: 127
@37780 Channel: 9 Note on, C2 key =  36 ; velocity: 0
@37780 Channel: 9 Note on, C2 key =  36 ; velocity: 127
@37800 Channel: 9 Note on, F#2 key =  42 ; velocity: 0
@37800 Channel: 9 Note on, C2 key =  36 ; velocity: 0
@37800 Channel: 9 Note on, A3 key =  57 ; velocity: 127
@37800 Channel: 9 Note on, D2 key =  38 ; velocity: 127
@37860 Channel: 9 Note on, A3 key =  57 ; velocity: 0
@37860 Channel: 9 Note on, D2 key =  38 ; velocity: 0
@37860 Channel: 9 Note on, F#2 key =  42 ; velocity: 127
@37920 Channel: 9 Note on, F#2 key =  42 ; velocity: 0
@37920 Channel: 9 Note on, C2 key =  36 ; velocity: 127
@37920 Channel: 9 Note on, F#2 key =  42 ; velocity: 127
@37980 Channel: 9 Note on, C2 key =  36 ; velocity: 0
@37980 Channel: 9 Note on, F#2 key =  42 ; velocity: 0
@37980 Channel: 9 Note on, C2 key =  36 ; velocity: 127
@37980 Channel: 9 Note on, F#2 key =  42 ; velocity: 127
@38000 Channel: 9 Note on, C2 key =  36 ; velocity: 0
@38000 Channel: 9 Note on, C2 key =  36 ; velocity: 127
@38020 Channel: 9 Note on, C2 key =  36 ; velocity: 0
@38020 Channel: 9 Note on, C2 key =  36 ; velocity: 127
@38040 Channel: 9 Note on, F#2 key =  42 ; velocity: 0
@38040 Channel: 9 Note on, C2 key =  36 ; velocity: 0
@38040 Channel: 9 Note on, D2 key =  38 ; velocity: 127
@38040 Channel: 9 Note on, A3 key =  57 ; velocity: 127
@38100 Channel: 9 Note on, D2 key =  38 ; velocity: 0
@38100 Channel: 9 Note on, A3 key =  57 ; velocity: 0
@38100 Channel: 9 Note on, D2 key =  38 ; velocity: 127
@38130 Channel: 9 Note on, D2 key =  38 ; velocity: 0
@38130 Channel: 9 Note on, D2 key =  38 ; velocity: 127
@38160 Channel: 9 Note on, D2 key =  38 ; velocity: 0
@38160 Channel: 9 Note on, C2 key =  36 ; velocity: 127
@38160 Channel: 9 Note on, A3 key =  57 ; velocity: 127
@38220 Channel: 9 Note on, A3 key =  57 ; velocity: 0
@38220 Channel: 9 Note on, D2 key =  38 ; velocity: 127
@38250 Channel: 9 Note on, D2 key =  38 ; velocity: 0
@38250 Channel: 9 Note on, D2 key =  38 ; velocity: 127
@38280 Channel: 9 Note on, C2 key =  36 ; velocity: 0
@38280 Channel: 9 Note on, D2 key =  38 ; velocity: 0
@38280 Channel: 9 Note on, C2 key =  36 ; velocity: 127
@38280 Channel: 9 Note on, A3 key =  57 ; velocity: 127
@38340 Channel: 9 Note on, C2 key =  36 ; velocity: 0
@38340 Channel: 9 Note on, A3 key =  57 ; velocity: 0
@38340 Channel: 9 Note on, C2 key =  36 ; velocity: 127
@38340 Channel: 9 Note on, A3 key =  57 ; velocity: 127
@38400 Channel: 9 Note on, C2 key =  36 ; velocity: 0
@38400 Channel: 9 Note on, A3 key =  57 ; velocity: 0
@38400 Channel: 9 Note on, C2 key =  36 ; velocity: 127
@38400 Channel: 9 Note on, A3 key =  57 ; velocity: 127
@38460 Channel: 9 Note on, A3 key =  57 ; velocity: 0
@38460 Channel: 9 Note on, F#2 key =  42 ; velocity: 127
@38520 Channel: 9 Note on, C2 key =  36 ; velocity: 0
@38520 Channel: 9 Note on, F#2 key =  42 ; velocity: 0
@38520 Channel: 9 Note on, D2 key =  38 ; velocity: 127
@38520 Channel: 9 Note on, F#2 key =  42 ; velocity: 127
@38580 Channel: 9 Note on, D2 key =  38 ; velocity: 0
@38580 Channel: 9 Note on, F#2 key =  42 ; velocity: 0
@38580 Channel: 9 Note on, F#2 key =  42 ; velocity: 127
@38640 Channel: 9 Note on, F#2 key =  42 ; velocity: 0
@38640 Channel: 9 Note on, C2 key =  36 ; velocity: 127
@38640 Channel: 9 Note on, F#2 key =  42 ; velocity: 127
@38700 Channel: 9 Note on, F#2 key =  42 ; velocity: 0
@38700 Channel: 9 Note on, F#2 key =  42 ; velocity: 127
@38760 Channel: 9 Note on, C2 key =  36 ; velocity: 0
@38760 Channel: 9 Note on, F#2 key =  42 ; velocity: 0
@38760 Channel: 9 Note on, D2 key =  38 ; velocity: 127
@38760 Channel: 9 Note on, F#2 key =  42 ; velocity: 127
@38820 Channel: 9 Note on, D2 key =  38 ; velocity: 0
@38820 Channel: 9 Note on, F#2 key =  42 ; velocity: 0
@38820 Channel: 9 Note on, F#2 key =  42 ; velocity: 127
@38880 Channel: 9 Note on, F#2 key =  42 ; velocity: 0
@38880 Channel: 9 Note on, C2 key =  36 ; velocity: 127
@38880 Channel: 9 Note on, F#2 key =  42 ; velocity: 127
@38940 Channel: 9 Note on, F#2 key =  42 ; velocity: 0
@38940 Channel: 9 Note on, F#2 key =  42 ; velocity: 127
@39000 Channel: 9 Note on, C2 key =  36 ; velocity: 0
@39000 Channel: 9 Note on, F#2 key =  42 ; velocity: 0
@39000 Channel: 9 Note on, F#2 key =  42 ; velocity: 127
@39060 Channel: 9 Note on, F#2 key =  42 ; velocity: 0
@39060 Channel: 9 Note on, D2 key =  38 ; velocity: 127
@39060 Channel: 9 Note on, F#2 key =  42 ; velocity: 127
@39120 Channel: 9 Note on, D2 key =  38 ; velocity: 0
@39120 Channel: 9 Note on, F#2 key =  42 ; velocity: 0
@39120 Channel: 9 Note on, C2 key =  36 ; velocity: 127
@39120 Channel: 9 Note on, F#2 key =  42 ; velocity: 127
@39180 Channel: 9 Note on, C2 key =  36 ; velocity: 0
@39180 Channel: 9 Note on, F#2 key =  42 ; velocity: 0
@39180 Channel: 9 Note on, C2 key =  36 ; velocity: 127
@39180 Channel: 9 Note on, F#2 key =  42 ; velocity: 127
@39200 Channel: 9 Note on, C2 key =  36 ; velocity: 0
@39200 Channel: 9 Note on, C2 key =  36 ; velocity: 127
@39220 Channel: 9 Note on, C2 key =  36 ; velocity: 0
@39220 Channel: 9 Note on, C2 key =  36 ; velocity: 127
@39240 Channel: 9 Note on, F#2 key =  42 ; velocity: 0
@39240 Channel: 9 Note on, C2 key =  36 ; velocity: 0
@39240 Channel: 9 Note on, D2 key =  38 ; velocity: 127
@39240 Channel: 9 Note on, F#2 key =  42 ; velocity: 127
@39300 Channel: 9 Note on, D2 key =  38 ; velocity: 0
@39300 Channel: 9 Note on, F#2 key =  42 ; velocity: 0
@39300 Channel: 9 Note on, C2 key =  36 ; velocity: 127
@39300 Channel: 9 Note on, F#2 key =  42 ; velocity: 127
@39360 Channel: 9 Note on, C2 key =  36 ; velocity: 0
@39360 Channel: 9 Note on, F#2 key =  42 ; velocity: 0
@39360 Channel: 9 Note on, F#2 key =  42 ; velocity: 127
@39360 Channel: 9 Note on, C2 key =  36 ; velocity: 127
@39420 Channel: 9 Note on, F#2 key =  42 ; velocity: 0
@39420 Channel: 9 Note on, F#2 key =  42 ; velocity: 127
@39480 Channel: 9 Note on, C2 key =  36 ; velocity: 0
@39480 Channel: 9 Note on, F#2 key =  42 ; velocity: 0
@39480 Channel: 9 Note on, F#2 key =  42 ; velocity: 127
@39540 Channel: 9 Note on, F#2 key =  42 ; velocity: 0
@39540 Channel: 9 Note on, D2 key =  38 ; velocity: 127
@39540 Channel: 9 Note on, F#2 key =  42 ; velocity: 127
@39600 Channel: 9 Note on, D2 key =  38 ; velocity: 0
@39600 Channel: 9 Note on, F#2 key =  42 ; velocity: 0
@39600 Channel: 9 Note on, F#2 key =  42 ; velocity: 127
@39600 Channel: 9 Note on, C2 key =  36 ; velocity: 127
@39660 Channel: 9 Note on, F#2 key =  42 ; velocity: 0
@39660 Channel: 9 Note on, F#2 key =  42 ; velocity: 127
@39720 Channel: 9 Note on, C2 key =  36 ; velocity: 0
@39720 Channel: 9 Note on, F#2 key =  42 ; velocity: 0
@39720 Channel: 9 Note on, D2 key =  38 ; velocity: 127
@39720 Channel: 9 Note on, F#2 key =  42 ; velocity: 127
@39780 Channel: 9 Note on, D2 key =  38 ; velocity: 0
@39780 Channel: 9 Note on, F#2 key =  42 ; velocity: 0
@39780 Channel: 9 Note on, F#2 key =  42 ; velocity: 127
@39840 Channel: 9 Note on, F#2 key =  42 ; velocity: 0
@39840 Channel: 9 Note on, C2 key =  36 ; velocity: 127
@39840 Channel: 9 Note on, F#2 key =  42 ; velocity: 127
@39900 Channel: 9 Note on, F#2 key =  42 ; velocity: 0
@39900 Channel: 9 Note on, F#2 key =  42 ; velocity: 127
@39960 Channel: 9 Note on, C2 key =  36 ; velocity: 0
@39960 Channel: 9 Note on, F#2 key =  42 ; velocity: 0
@39960 Channel: 9 Note on, F#2 key =  42 ; velocity: 127
@40020 Channel: 9 Note on, F#2 key =  42 ; velocity: 0
@40020 Channel: 9 Note on, D2 key =  38 ; velocity: 127
@40020 Channel: 9 Note on, F#2 key =  42 ; velocity: 127
@40080 Channel: 9 Note on, D2 key =  38 ; velocity: 0
@40080 Channel: 9 Note on, F#2 key =  42 ; velocity: 0
@40080 Channel: 9 Note on, C2 key =  36 ; velocity: 127
@40080 Channel: 9 Note on, F#2 key =  42 ; velocity: 127
@40140 Channel: 9 Note on, C2 key =  36 ; velocity: 0
@40140 Channel: 9 Note on, F#2 key =  42 ; velocity: 0
@40140 Channel: 9 Note on, C2 key =  36 ; velocity: 127
@40140 Channel: 9 Note on, F#2 key =  42 ; velocity: 127
@40160 Channel: 9 Note on, C2 key =  36 ; velocity: 0
@40160 Channel: 9 Note on, C2 key =  36 ; velocity: 127
@40180 Channel: 9 Note on, C2 key =  36 ; velocity: 0
@40180 Channel: 9 Note on, C2 key =  36 ; velocity: 127
@40200 Channel: 9 Note on, F#2 key =  42 ; velocity: 0
@40200 Channel: 9 Note on, C2 key =  36 ; velocity: 0
@40200 Channel: 9 Note on, D2 key =  38 ; velocity: 127
@40200 Channel: 9 Note on, F#2 key =  42 ; velocity: 127
@40260 Channel: 9 Note on, D2 key =  38 ; velocity: 0
@40260 Channel: 9 Note on, F#2 key =  42 ; velocity: 0
@40260 Channel: 9 Note on, C2 key =  36 ; velocity: 127
@40260 Channel: 9 Note on, F#2 key =  42 ; velocity: 127
@40320 Channel: 9 Note on, C2 key =  36 ; velocity: 0
@40320 Channel: 9 Note on, F#2 key =  42 ; velocity: 0
@40320 Channel: 9 Note on, F#2 key =  42 ; velocity: 127
@40320 Channel: 9 Note on, C2 key =  36 ; velocity: 127
@40380 Channel: 9 Note on, F#2 key =  42 ; velocity: 0
@40380 Channel: 9 Note on, F#2 key =  42 ; velocity: 127
@40440 Channel: 9 Note on, C2 key =  36 ; velocity: 0
@40440 Channel: 9 Note on, F#2 key =  42 ; velocity: 0
@40440 Channel: 9 Note on, A3 key =  57 ; velocity: 127
@40440 Channel: 9 Note on, D2 key =  38 ; velocity: 127
@40500 Channel: 9 Note on, A3 key =  57 ; velocity: 0
@40500 Channel: 9 Note on, D2 key =  38 ; velocity: 0
@40500 Channel: 9 Note on, F#2 key =  42 ; velocity: 127
@40560 Channel: 9 Note on, F#2 key =  42 ; velocity: 0
@40560 Channel: 9 Note on, F#2 key =  42 ; velocity: 127
@40560 Channel: 9 Note on, C2 key =  36 ; velocity: 127
@40620 Channel: 9 Note on, F#2 key =  42 ; velocity: 0
@40620 Channel: 9 Note on, F#2 key =  42 ; velocity: 127
@40680 Channel: 9 Note on, C2 key =  36 ; velocity: 0
@40680 Channel: 9 Note on, F#2 key =  42 ; velocity: 0
@40680 Channel: 9 Note on, D2 key =  38 ; velocity: 127
@40680 Channel: 9 Note on, F#2 key =  42 ; velocity: 127
@40740 Channel: 9 Note on, D2 key =  38 ; velocity: 0
@40740 Channel: 9 Note on, F#2 key =  42 ; velocity: 0
@40740 Channel: 9 Note on, F#2 key =  42 ; velocity: 127
@40800 Channel: 9 Note on, F#2 key =  42 ; velocity: 0
@40800 Channel: 9 Note on, C2 key =  36 ; velocity: 127
@40800 Channel: 9 Note on, F#2 key =  42 ; velocity: 127
@40860 Channel: 9 Note on, F#2 key =  42 ; velocity: 0
@40860 Channel: 9 Note on, F#2 key =  42 ; velocity: 127
@40920 Channel: 9 Note on, C2 key =  36 ; velocity: 0
@40920 Channel: 9 Note on, F#2 key =  42 ; velocity: 0
@40920 Channel: 9 Note on, F#2 key =  42 ; velocity: 127
@40980 Channel: 9 Note on, F#2 key =  42 ; velocity: 0
@40980 Channel: 9 Note on, D2 key =  38 ; velocity: 127
@40980 Channel: 9 Note on, F#2 key =  42 ; velocity: 127
@41040 Channel: 9 Note on, D2 key =  38 ; velocity: 0
@41040 Channel: 9 Note on, F#2 key =  42 ; velocity: 0
@41040 Channel: 9 Note on, C2 key =  36 ; velocity: 127
@41040 Channel: 9 Note on, F#2 key =  42 ; velocity: 127
@41100 Channel: 9 Note on, C2 key =  36 ; velocity: 0
@41100 Channel: 9 Note on, F#2 key =  42 ; velocity: 0
@41100 Channel: 9 Note on, C2 key =  36 ; velocity: 127
@41100 Channel: 9 Note on, F#2 key =  42 ; velocity: 127
@41120 Channel: 9 Note on, C2 key =  36 ; velocity: 0
@41120 Channel: 9 Note on, C2 key =  36 ; velocity: 127
@41140 Channel: 9 Note on, C2 key =  36 ; velocity: 0
@41140 Channel: 9 Note on, C2 key =  36 ; velocity: 127
@41160 Channel: 9 Note on, F#2 key =  42 ; velocity: 0
@41160 Channel: 9 Note on, C2 key =  36 ; velocity: 0
@41160 Channel: 9 Note on, D2 key =  38 ; velocity: 127
@41160 Channel: 9 Note on, F#2 key =  42 ; velocity: 127
@41220 Channel: 9 Note on, D2 key =  38 ; velocity: 0
@41220 Channel: 9 Note on, F#2 key =  42 ; velocity: 0
@41220 Channel: 9 Note on, C2 key =  36 ; velocity: 127
@41220 Channel: 9 Note on, F#2 key =  42 ; velocity: 127
@41280 Channel: 9 Note on, C2 key =  36 ; velocity: 0
@41280 Channel: 9 Note on, F#2 key =  42 ; velocity: 0
@41280 Channel: 9 Note on, C2 key =  36 ; velocity: 127
@41280 Channel: 9 Note on, F#2 key =  42 ; velocity: 127
@41340 Channel: 9 Note on, F#2 key =  42 ; velocity: 0
@41340 Channel: 9 Note on, F#2 key =  42 ; velocity: 127
@41400 Channel: 9 Note on, C2 key =  36 ; velocity: 0
@41400 Channel: 9 Note on, F#2 key =  42 ; velocity: 0
@41400 Channel: 9 Note on, F#2 key =  42 ; velocity: 127
@41460 Channel: 9 Note on, F#2 key =  42 ; velocity: 0
@41460 Channel: 9 Note on, A3 key =  57 ; velocity: 127
@41460 Channel: 9 Note on, D2 key =  38 ; velocity: 127
@41520 Channel: 9 Note on, A3 key =  57 ; velocity: 0
@41520 Channel: 9 Note on, D2 key =  38 ; velocity: 0
@41520 Channel: 9 Note on, C2 key =  36 ; velocity: 127
@41520 Channel: 9 Note on, F#2 key =  42 ; velocity: 127
@41580 Channel: 9 Note on, F#2 key =  42 ; velocity: 0
@41580 Channel: 9 Note on, F#2 key =  42 ; velocity: 127
@41640 Channel: 9 Note on, C2 key =  36 ; velocity: 0
@41640 Channel: 9 Note on, F#2 key =  42 ; velocity: 0
@41640 Channel: 9 Note on, A3 key =  57 ; velocity: 127
@41640 Channel: 9 Note on, D2 key =  38 ; velocity: 127
@41700 Channel: 9 Note on, A3 key =  57 ; velocity: 0
@41700 Channel: 9 Note on, D2 key =  38 ; velocity: 0
@41700 Channel: 9 Note on, F#2 key =  42 ; velocity: 127
@41760 Channel: 9 Note on, F#2 key =  42 ; velocity: 0
@41760 Channel: 9 Note on, F#2 key =  42 ; velocity: 127
@41760 Channel: 9 Note on, C2 key =  36 ; velocity: 127
@41820 Channel: 9 Note on, F#2 key =  42 ; velocity: 0
@41820 Channel: 9 Note on, C2 key =  36 ; velocity: 0
@41820 Channel: 9 Note on, F#2 key =  42 ; velocity: 127
@41820 Channel: 9 Note on, C2 key =  36 ; velocity: 127
@41840 Channel: 9 Note on, C2 key =  36 ; velocity: 0
@41840 Channel: 9 Note on, C2 key =  36 ; velocity: 127
@41860 Channel: 9 Note on, C2 key =  36 ; velocity: 0
@41860 Channel: 9 Note on, C2 key =  36 ; velocity: 127
@41880 Channel: 9 Note on, F#2 key =  42 ; velocity: 0
@41880 Channel: 9 Note on, C2 key =  36 ; velocity: 0
@41880 Channel: 9 Note on, D2 key =  38 ; velocity: 127
@41880 Channel: 9 Note on, A3 key =  57 ; velocity: 127
@41940 Channel: 9 Note on, D2 key =  38 ; velocity: 0
@41940 Channel: 9 Note on, A3 key =  57 ; velocity: 0
@41940 Channel: 9 Note on, D2 key =  38 ; velocity: 127
@41940 Channel: 9 Note on, A3 key =  57 ; velocity: 127
@42000 Channel: 9 Note on, D2 key =  38 ; velocity: 0
@42000 Channel: 9 Note on, A3 key =  57 ; velocity: 0
@42000 Channel: 9 Note on, A2 key =  45 ; velocity: 127
@42060 Channel: 9 Note on, A2 key =  45 ; velocity: 0
@42060 Channel: 9 Note on, A2 key =  45 ; velocity: 127
@42090 Channel: 9 Note on, A2 key =  45 ; velocity: 0
@42090 Channel: 9 Note on, A2 key =  45 ; velocity: 127
@42120 Channel: 9 Note on, A2 key =  45 ; velocity: 0
@42120 Channel: 9 Note on, B2 key =  47 ; velocity: 127
@42180 Channel: 9 Note on, B2 key =  47 ; velocity: 0
@42180 Channel: 9 Note on, B2 key =  47 ; velocity: 127
@42210 Channel: 9 Note on, B2 key =  47 ; velocity: 0
@42210 Channel: 9 Note on, B2 key =  47 ; velocity: 127
@42240 Channel: 9 Note on, B2 key =  47 ; velocity: 0
@42240 Channel: 9 Note on, A3 key =  57 ; velocity: 127
@42240 Channel: 9 Note on, C2 key =  36 ; velocity: 127
@42300 Channel: 9 Note on, A3 key =  57 ; velocity: 0
@42300 Channel: 9 Note on, B3 key =  59 ; velocity: 127
@42360 Channel: 9 Note on, C2 key =  36 ; velocity: 0
@42360 Channel: 9 Note on, B3 key =  59 ; velocity: 0
@42360 Channel: 9 Note on, D2 key =  38 ; velocity: 127
@42360 Channel: 9 Note on, B3 key =  59 ; velocity: 127
@42420 Channel: 9 Note on, D2 key =  38 ; velocity: 0
@42420 Channel: 9 Note on, B3 key =  59 ; velocity: 0
@42420 Channel: 9 Note on, B3 key =  59 ; velocity: 127
@42480 Channel: 9 Note on, B3 key =  59 ; velocity: 0
@42480 Channel: 9 Note on, B3 key =  59 ; velocity: 127
@42480 Channel: 9 Note on, C2 key =  36 ; velocity: 127
@42540 Channel: 9 Note on, B3 key =  59 ; velocity: 0
@42540 Channel: 9 Note on, A2 key =  45 ; velocity: 127
@42570 Channel: 9 Note on, A2 key =  45 ; velocity: 0
@42570 Channel: 9 Note on, A2 key =  45 ; velocity: 127
@42600 Channel: 9 Note on, C2 key =  36 ; velocity: 0
@42600 Channel: 9 Note on, A2 key =  45 ; velocity: 0
@42600 Channel: 9 Note on, A3 key =  57 ; velocity: 127
@42600 Channel: 9 Note on, C2 key =  36 ; velocity: 127
@42660 Channel: 9 Note on, A3 key =  57 ; velocity: 0
@42660 Channel: 9 Note on, C2 key =  36 ; velocity: 0
@42660 Channel: 9 Note on, A3 key =  57 ; velocity: 127
@42660 Channel: 9 Note on, C2 key =  36 ; velocity: 127
@42720 Channel: 9 Note on, A3 key =  57 ; velocity: 0
@42720 Channel: 9 Note on, C2 key =  36 ; velocity: 0
@42720 Channel: 9 Note on, A3 key =  57 ; velocity: 127
@42720 Channel: 9 Note on, C2 key =  36 ; velocity: 127
@42780 Channel: 9 Note on, A3 key =  57 ; velocity: 0
@42780 Channel: 9 Note on, B3 key =  59 ; velocity: 127
@42840 Channel: 9 Note on, C2 key =  36 ; velocity: 0
@42840 Channel: 9 Note on, B3 key =  59 ; velocity: 0
@42840 Channel: 9 Note on, D2 key =  38 ; velocity: 127
@42840 Channel: 9 Note on, B3 key =  59 ; velocity: 127
@42900 Channel: 9 Note on, D2 key =  38 ; velocity: 0
@42900 Channel: 9 Note on, B3 key =  59 ; velocity: 0
@42900 Channel: 9 Note on, B3 key =  59 ; velocity: 127
@42960 Channel: 9 Note on, B3 key =  59 ; velocity: 0
@42960 Channel: 9 Note on, B3 key =  59 ; velocity: 127
@42960 Channel: 9 Note on, C2 key =  36 ; velocity: 127
@43020 Channel: 9 Note on, B3 key =  59 ; velocity: 0
@43020 Channel: 9 Note on, A2 key =  45 ; velocity: 127
@43050 Channel: 9 Note on, A2 key =  45 ; velocity: 0
@43050 Channel: 9 Note on, A2 key =  45 ; velocity: 127
@43080 Channel: 9 Note on, C2 key =  36 ; velocity: 0
@43080 Channel: 9 Note on, A2 key =  45 ; velocity: 0
@43080 Channel: 9 Note on, A3 key =  57 ; velocity: 127
@43080 Channel: 9 Note on, C2 key =  36 ; velocity: 127
@43140 Channel: 9 Note on, A3 key =  57 ; velocity: 0
@43140 Channel: 9 Note on, C2 key =  36 ; velocity: 0
@43140 Channel: 9 Note on, A3 key =  57 ; velocity: 127
@43140 Channel: 9 Note on, C2 key =  36 ; velocity: 127
@43200 Channel: 9 Note on, A3 key =  57 ; velocity: 0
@43200 Channel: 9 Note on, C2 key =  36 ; velocity: 0
@43200 Channel: 9 Note on, A3 key =  57 ; velocity: 127
@43200 Channel: 9 Note on, C2 key =  36 ; velocity: 127
@43260 Channel: 9 Note on, A3 key =  57 ; velocity: 0
@43260 Channel: 9 Note on, B3 key =  59 ; velocity: 127
@43320 Channel: 9 Note on, C2 key =  36 ; velocity: 0
@43320 Channel: 9 Note on, B3 key =  59 ; velocity: 0
@43320 Channel: 9 Note on, D2 key =  38 ; velocity: 127
@43320 Channel: 9 Note on, B3 key =  59 ; velocity: 127
@43380 Channel: 9 Note on, D2 key =  38 ; velocity: 0
@43380 Channel: 9 Note on, B3 key =  59 ; velocity: 0
@43380 Channel: 9 Note on, B3 key =  59 ; velocity: 127
@43440 Channel: 9 Note on, B3 key =  59 ; velocity: 0
@43440 Channel: 9 Note on, B3 key =  59 ; velocity: 127
@43440 Channel: 9 Note on, C2 key =  36 ; velocity: 127
@43500 Channel: 9 Note on, B3 key =  59 ; velocity: 0
@43500 Channel: 9 Note on, A2 key =  45 ; velocity: 127
@43530 Channel: 9 Note on, A2 key =  45 ; velocity: 0
@43530 Channel: 9 Note on, A2 key =  45 ; velocity: 127
@43560 Channel: 9 Note on, C2 key =  36 ; velocity: 0
@43560 Channel: 9 Note on, A2 key =  45 ; velocity: 0
@43560 Channel: 9 Note on, A3 key =  57 ; velocity: 127
@43560 Channel: 9 Note on, C2 key =  36 ; velocity: 127
@43620 Channel: 9 Note on, A3 key =  57 ; velocity: 0
@43620 Channel: 9 Note on, C2 key =  36 ; velocity: 0
@43620 Channel: 9 Note on, A3 key =  57 ; velocity: 127
@43620 Channel: 9 Note on, C2 key =  36 ; velocity: 127
@43680 Channel: 9 Note on, A3 key =  57 ; velocity: 0
@43680 Channel: 9 Note on, C2 key =  36 ; velocity: 0
@43680 Channel: 9 Note on, A3 key =  57 ; velocity: 127
@43680 Channel: 9 Note on, C2 key =  36 ; velocity: 127
@43740 Channel: 9 Note on, A3 key =  57 ; velocity: 0
@43740 Channel: 9 Note on, B3 key =  59 ; velocity: 127
@43800 Channel: 9 Note on, C2 key =  36 ; velocity: 0
@43800 Channel: 9 Note on, B3 key =  59 ; velocity: 0
@43800 Channel: 9 Note on, D2 key =  38 ; velocity: 127
@43800 Channel: 9 Note on, B3 key =  59 ; velocity: 127
@43860 Channel: 9 Note on, D2 key =  38 ; velocity: 0
@43860 Channel: 9 Note on, B3 key =  59 ; velocity: 0
@43860 Channel: 9 Note on, B3 key =  59 ; velocity: 127
@43920 Channel: 9 Note on, B3 key =  59 ; velocity: 0
@43920 Channel: 9 Note on, C2 key =  36 ; velocity: 127
@43920 Channel: 9 Note on, B3 key =  59 ; velocity: 127
@43980 Channel: 9 Note on, C2 key =  36 ; velocity: 0
@43980 Channel: 9 Note on, B3 key =  59 ; velocity: 0
@43980 Channel: 9 Note on, B3 key =  59 ; velocity: 127
@43980 Channel: 9 Note on, C2 key =  36 ; velocity: 127
@44040 Channel: 9 Note on, B3 key =  59 ; velocity: 0
@44040 Channel: 9 Note on, C2 key =  36 ; velocity: 0
@44040 Channel: 9 Note on, A2 key =  45 ; velocity: 127
@44070 Channel: 9 Note on, A2 key =  45 ; velocity: 0
@44070 Channel: 9 Note on, A2 key =  45 ; velocity: 127
@44100 Channel: 9 Note on, A2 key =  45 ; velocity: 0
@44100 Channel: 9 Note on, A2 key =  45 ; velocity: 127
@44160 Channel: 9 Note on, A2 key =  45 ; velocity: 0
@44160 Channel: 9 Note on, A3 key =  57 ; velocity: 127
@44160 Channel: 9 Note on, C2 key =  36 ; velocity: 127
@44220 Channel: 9 Note on, A3 key =  57 ; velocity: 0
@44220 Channel: 9 Note on, B3 key =  59 ; velocity: 127
@44280 Channel: 9 Note on, C2 key =  36 ; velocity: 0
@44280 Channel: 9 Note on, B3 key =  59 ; velocity: 0
@44280 Channel: 9 Note on, D2 key =  38 ; velocity: 127
@44280 Channel: 9 Note on, B3 key =  59 ; velocity: 127
@44340 Channel: 9 Note on, D2 key =  38 ; velocity: 0
@44340 Channel: 9 Note on, B3 key =  59 ; velocity: 0
@44340 Channel: 9 Note on, B3 key =  59 ; velocity: 127
@44400 Channel: 9 Note on, B3 key =  59 ; velocity: 0
@44400 Channel: 9 Note on, B3 key =  59 ; velocity: 127
@44400 Channel: 9 Note on, C2 key =  36 ; velocity: 127
@44460 Channel: 9 Note on, B3 key =  59 ; velocity: 0
@44460 Channel: 9 Note on, A2 key =  45 ; velocity: 127
@44490 Channel: 9 Note on, A2 key =  45 ; velocity: 0
@44490 Channel: 9 Note on, A2 key =  45 ; velocity: 127
@44520 Channel: 9 Note on, C2 key =  36 ; velocity: 0
@44520 Channel: 9 Note on, A2 key =  45 ; velocity: 0
@44520 Channel: 9 Note on, A3 key =  57 ; velocity: 127
@44520 Channel: 9 Note on, C2 key =  36 ; velocity: 127
@44580 Channel: 9 Note on, A3 key =  57 ; velocity: 0
@44580 Channel: 9 Note on, C2 key =  36 ; velocity: 0
@44580 Channel: 9 Note on, A3 key =  57 ; velocity: 127
@44580 Channel: 9 Note on, C2 key =  36 ; velocity: 127
@44640 Channel: 9 Note on, A3 key =  57 ; velocity: 0
@44640 Channel: 9 Note on, C2 key =  36 ; velocity: 0
@44640 Channel: 9 Note on, A3 key =  57 ; velocity: 127
@44640 Channel: 9 Note on, C2 key =  36 ; velocity: 127
@44700 Channel: 9 Note on, A3 key =  57 ; velocity: 0
@44700 Channel: 9 Note on, B3 key =  59 ; velocity: 127
@44760 Channel: 9 Note on, C2 key =  36 ; velocity: 0
@44760 Channel: 9 Note on, B3 key =  59 ; velocity: 0
@44760 Channel: 9 Note on, D2 key =  38 ; velocity: 127
@44760 Channel: 9 Note on, B3 key =  59 ; velocity: 127
@44820 Channel: 9 Note on, D2 key =  38 ; velocity: 0
@44820 Channel: 9 Note on, B3 key =  59 ; velocity: 0
@44820 Channel: 9 Note on, B3 key =  59 ; velocity: 127
@44880 Channel: 9 Note on, B3 key =  59 ; velocity: 0
@44880 Channel: 9 Note on, B3 key =  59 ; velocity: 127
@44880 Channel: 9 Note on, C2 key =  36 ; velocity: 127
@44940 Channel: 9 Note on, B3 key =  59 ; velocity: 0
@44940 Channel: 9 Note on, A2 key =  45 ; velocity: 127
@44970 Channel: 9 Note on, A2 key =  45 ; velocity: 0
@44970 Channel: 9 Note on, A2 key =  45 ; velocity: 127
@45000 Channel: 9 Note on, C2 key =  36 ; velocity: 0
@45000 Channel: 9 Note on, A2 key =  45 ; velocity: 0
@45000 Channel: 9 Note on, A3 key =  57 ; velocity: 127
@45000 Channel: 9 Note on, C2 key =  36 ; velocity: 127
@45060 Channel: 9 Note on, A3 key =  57 ; velocity: 0
@45060 Channel: 9 Note on, C2 key =  36 ; velocity: 0
@45060 Channel: 9 Note on, A3 key =  57 ; velocity: 127
@45060 Channel: 9 Note on, C2 key =  36 ; velocity: 127
@45120 Channel: 9 Note on, A3 key =  57 ; velocity: 0
@45120 Channel: 9 Note on, C2 key =  36 ; velocity: 0
@45120 Channel: 9 Note on, A3 key =  57 ; velocity: 127
@45120 Channel: 9 Note on, C2 key =  36 ; velocity: 127
@45180 Channel: 9 Note on, A3 key =  57 ; velocity: 0
@45180 Channel: 9 Note on, B3 key =  59 ; velocity: 127
@45240 Channel: 9 Note on, C2 key =  36 ; velocity: 0
@45240 Channel: 9 Note on, B3 key =  59 ; velocity: 0
@45240 Channel: 9 Note on, D2 key =  38 ; velocity: 127
@45240 Channel: 9 Note on, B3 key =  59 ; velocity: 127
@45300 Channel: 9 Note on, D2 key =  38 ; velocity: 0
@45300 Channel: 9 Note on, B3 key =  59 ; velocity: 0
@45300 Channel: 9 Note on, B3 key =  59 ; velocity: 127
@45360 Channel: 9 Note on, B3 key =  59 ; velocity: 0
@45360 Channel: 9 Note on, B3 key =  59 ; velocity: 127
@45360 Channel: 9 Note on, C2 key =  36 ; velocity: 127
@45420 Channel: 9 Note on, B3 key =  59 ; velocity: 0
@45420 Channel: 9 Note on, A2 key =  45 ; velocity: 127
@45450 Channel: 9 Note on, A2 key =  45 ; velocity: 0
@45450 Channel: 9 Note on, A2 key =  45 ; velocity: 127
@45480 Channel: 9 Note on, C2 key =  36 ; velocity: 0
@45480 Channel: 9 Note on, A2 key =  45 ; velocity: 0
@45480 Channel: 9 Note on, A3 key =  57 ; velocity: 127
@45480 Channel: 9 Note on, C2 key =  36 ; velocity: 127
@45540 Channel: 9 Note on, A3 key =  57 ; velocity: 0
@45540 Channel: 9 Note on, C2 key =  36 ; velocity: 0
@45540 Channel: 9 Note on, A3 key =  57 ; velocity: 127
@45540 Channel: 9 Note on, C2 key =  36 ; velocity: 127
@45600 Channel: 9 Note on, A3 key =  57 ; velocity: 0
@45600 Channel: 9 Note on, C2 key =  36 ; velocity: 0
@45600 Channel: 9 Note on, C2 key =  36 ; velocity: 127
@45600 Channel: 9 Note on, A3 key =  57 ; velocity: 127
@45660 Channel: 9 Note on, A3 key =  57 ; velocity: 0
@45660 Channel: 9 Note on, D2 key =  38 ; velocity: 127
@45690 Channel: 9 Note on, D2 key =  38 ; velocity: 0
@45690 Channel: 9 Note on, D2 key =  38 ; velocity: 127
@45720 Channel: 9 Note on, C2 key =  36 ; velocity: 0
@45720 Channel: 9 Note on, D2 key =  38 ; velocity: 0
@45720 Channel: 9 Note on, D2 key =  38 ; velocity: 127
@45780 Channel: 9 Note on, D2 key =  38 ; velocity: 0
@45780 Channel: 9 Note on, D2 key =  38 ; velocity: 127
@45810 Channel: 9 Note on, D2 key =  38 ; velocity: 0
@45810 Channel: 9 Note on, D2 key =  38 ; velocity: 127
@45840 Channel: 9 Note on, D2 key =  38 ; velocity: 0
@45840 Channel: 9 Note on, D2 key =  38 ; velocity: 127
@45900 Channel: 9 Note on, D2 key =  38 ; velocity: 0
@45900 Channel: 9 Note on, D2 key =  38 ; velocity: 127
@45930 Channel: 9 Note on, D2 key =  38 ; velocity: 0
@45930 Channel: 9 Note on, D2 key =  38 ; velocity: 127
@45960 Channel: 9 Note on, D2 key =  38 ; velocity: 0
@45960 Channel: 9 Note on, D2 key =  38 ; velocity: 127
@46020 Channel: 9 Note on, D2 key =  38 ; velocity: 0
@46020 Channel: 9 Note on, D2 key =  38 ; velocity: 127
@46080 Channel: 9 Note on, D2 key =  38 ; velocity: 0
@46080 Channel: 9 Note on, A3 key =  57 ; velocity: 127
@46080 Channel: 9 Note on, C2 key =  36 ; velocity: 127
@46140 Channel: 9 Note on, A3 key =  57 ; velocity: 0
@46140 Channel: 9 Note on, D2 key =  38 ; velocity: 127
@46170 Channel: 9 Note on, D2 key =  38 ; velocity: 0
@46170 Channel: 9 Note on, D2 key =  38 ; velocity: 127
@46200 Channel: 9 Note on, C2 key =  36 ; velocity: 0
@46200 Channel: 9 Note on, D2 key =  38 ; velocity: 0
@46200 Channel: 9 Note on, D2 key =  38 ; velocity: 127
@46260 Channel: 9 Note on, D2 key =  38 ; velocity: 0
@46260 Channel: 9 Note on, D2 key =  38 ; velocity: 127
@46290 Channel: 9 Note on, D2 key =  38 ; velocity: 0
@46290 Channel: 9 Note on, D2 key =  38 ; velocity: 127
@46320 Channel: 9 Note on, D2 key =  38 ; velocity: 0
@46320 Channel: 9 Note on, A2 key =  45 ; velocity: 127
@46380 Channel: 9 Note on, A2 key =  45 ; velocity: 0
@46380 Channel: 9 Note on, A2 key =  45 ; velocity: 127
@46410 Channel: 9 Note on, A2 key =  45 ; velocity: 0
@46410 Channel: 9 Note on, A2 key =  45 ; velocity: 127
@46440 Channel: 9 Note on, A2 key =  45 ; velocity: 0
@46440 Channel: 9 Note on, B2 key =  47 ; velocity: 127
@46500 Channel: 9 Note on, B2 key =  47 ; velocity: 0
@46500 Channel: 9 Note on, B2 key =  47 ; velocity: 127
@46560 Channel: 9 Note on, B2 key =  47 ; velocity: 0
@46560 Channel: 9 Note on, A3 key =  57 ; velocity: 127
@46560 Channel: 9 Note on, C2 key =  36 ; velocity: 127
@46620 Channel: 9 Note on, A3 key =  57 ; velocity: 0
@46620 Channel: 9 Note on, F#2 key =  42 ; velocity: 127
@46680 Channel: 9 Note on, C2 key =  36 ; velocity: 0
@46680 Channel: 9 Note on, F#2 key =  42 ; velocity: 0
@46680 Channel: 9 Note on, D2 key =  38 ; velocity: 127
@46680 Channel: 9 Note on, F#2 key =  42 ; velocity: 127
@46740 Channel: 9 Note on, D2 key =  38 ; velocity: 0
@46740 Channel: 9 Note on, F#2 key =  42 ; velocity: 0
@46740 Channel: 9 Note on, F#2 key =  42 ; velocity: 127
@46800 Channel: 9 Note on, F#2 key =  42 ; velocity: 0
@46800 Channel: 9 Note on, C2 key =  36 ; velocity: 127
@46800 Channel: 9 Note on, F#2 key =  42 ; velocity: 127
@46860 Channel: 9 Note on, C2 key =  36 ; velocity: 0
@46860 Channel: 9 Note on, F#2 key =  42 ; velocity: 0
@46860 Channel: 9 Note on, C2 key =  36 ; velocity: 127
@46860 Channel: 9 Note on, F#2 key =  42 ; velocity: 127
@46880 Channel: 9 Note on, C2 key =  36 ; velocity: 0
@46880 Channel: 9 Note on, C2 key =  36 ; velocity: 127
@46900 Channel: 9 Note on, C2 key =  36 ; velocity: 0
@46900 Channel: 9 Note on, C2 key =  36 ; velocity: 127
@46920 Channel: 9 Note on, F#2 key =  42 ; velocity: 0
@46920 Channel: 9 Note on, C2 key =  36 ; velocity: 0
@46920 Channel: 9 Note on, D2 key =  38 ; velocity: 127
@46920 Channel: 9 Note on, F#2 key =  42 ; velocity: 127
@46980 Channel: 9 Note on, D2 key =  38 ; velocity: 0
@46980 Channel: 9 Note on, F#2 key =  42 ; velocity: 0
@46980 Channel: 9 Note on, F#2 key =  42 ; velocity: 127
@47040 Channel: 9 Note on, F#2 key =  42 ; velocity: 0
@47040 Channel: 9 Note on, C2 key =  36 ; velocity: 127
@47040 Channel: 9 Note on, A3 key =  57 ; velocity: 127
@47100 Channel: 9 Note on, A3 key =  57 ; velocity: 0
@47100 Channel: 9 Note on, F#2 key =  42 ; velocity: 127
@47160 Channel: 9 Note on, C2 key =  36 ; velocity: 0
@47160 Channel: 9 Note on, F#2 key =  42 ; velocity: 0
@47160 Channel: 9 Note on, D2 key =  38 ; velocity: 127
@47160 Channel: 9 Note on, F#2 key =  42 ; velocity: 127
@47220 Channel: 9 Note on, D2 key =  38 ; velocity: 0
@47220 Channel: 9 Note on, F#2 key =  42 ; velocity: 0
@47220 Channel: 9 Note on, F#2 key =  42 ; velocity: 127
@47280 Channel: 9 Note on, F#2 key =  42 ; velocity: 0
@47280 Channel: 9 Note on, D2 key =  38 ; velocity: 127
@47310 Channel: 9 Note on, D2 key =  38 ; velocity: 0
@47310 Channel: 9 Note on, D2 key =  38 ; velocity: 127
@47340 Channel: 9 Note on, D2 key =  38 ; velocity: 0
@47340 Channel: 9 Note on, D2 key =  38 ; velocity: 127
@47400 Channel: 9 Note on, D2 key =  38 ; velocity: 0
@47400 Channel: 9 Note on, A2 key =  45 ; velocity: 127
@47430 Channel: 9 Note on, A2 key =  45 ; velocity: 0
@47430 Channel: 9 Note on, A2 key =  45 ; velocity: 127
@47460 Channel: 9 Note on, A2 key =  45 ; velocity: 0
@47460 Channel: 9 Note on, A2 key =  45 ; velocity: 127
@47520 Channel: 9 Note on, A2 key =  45 ; velocity: 0
@47520 Channel: 9 Note on, A3 key =  57 ; velocity: 127
@47520 Channel: 9 Note on, C2 key =  36 ; velocity: 127
@47580 Channel: 9 Note on, A3 key =  57 ; velocity: 0
@47580 Channel: 9 Note on, F#2 key =  42 ; velocity: 127
@47640 Channel: 9 Note on, C2 key =  36 ; velocity: 0
@47640 Channel: 9 Note on, F#2 key =  42 ; velocity: 0
@47640 Channel: 9 Note on, D2 key =  38 ; velocity: 127
@47640 Channel: 9 Note on, F#2 key =  42 ; velocity: 127
@47700 Channel: 9 Note on, D2 key =  38 ; velocity: 0
@47700 Channel: 9 Note on, F#2 key =  42 ; velocity: 0
@47700 Channel: 9 Note on, F#2 key =  42 ; velocity: 127
@47760 Channel: 9 Note on, F#2 key =  42 ; velocity: 0
@47760 Channel: 9 Note on, F#2 key =  42 ; velocity: 127
@47760 Channel: 9 Note on, C2 key =  36 ; velocity: 127
@47820 Channel: 9 Note on, F#2 key =  42 ; velocity: 0
@47820 Channel: 9 Note on, F#2 key =  42 ; velocity: 127
@47880 Channel: 9 Note on, C2 key =  36 ; velocity: 0
@47880 Channel: 9 Note on, F#2 key =  42 ; velocity: 0
@47880 Channel: 9 Note on, D2 key =  38 ; velocity: 127
@47880 Channel: 9 Note on, F#2 key =  42 ; velocity: 127
@47940 Channel: 9 Note on, D2 key =  38 ; velocity: 0
@47940 Channel: 9 Note on, F#2 key =  42 ; velocity: 0
@47940 Channel: 9 Note on, F#2 key =  42 ; velocity: 127
@48000 Channel: 9 Note on, F#2 key =  42 ; velocity: 0
@48000 Channel: 9 Note on, C2 key =  36 ; velocity: 127
@48000 Channel: 9 Note on, F#2 key =  42 ; velocity: 127
@48060 Channel: 9 Note on, C2 key =  36 ; velocity: 0
@48060 Channel: 9 Note on, F#2 key =  42 ; velocity: 0
@48060 Channel: 9 Note on, C2 key =  36 ; velocity: 127
@48060 Channel: 9 Note on, F#2 key =  42 ; velocity: 127
@48080 Channel: 9 Note on, C2 key =  36 ; velocity: 0
@48080 Channel: 9 Note on, C2 key =  36 ; velocity: 127
@48100 Channel: 9 Note on, C2 key =  36 ; velocity: 0
@48100 Channel: 9 Note on, C2 key =  36 ; velocity: 127
@48120 Channel: 9 Note on, F#2 key =  42 ; velocity: 0
@48120 Channel: 9 Note on, C2 key =  36 ; velocity: 0
@48120 Channel: 9 Note on, D2 key =  38 ; velocity: 127
@48120 Channel: 9 Note on, F#2 key =  42 ; velocity: 127
@48180 Channel: 9 Note on, D2 key =  38 ; velocity: 0
@48180 Channel: 9 Note on, F#2 key =  42 ; velocity: 0
@48180 Channel: 9 Note on, C2 key =  36 ; velocity: 127
@48180 Channel: 9 Note on, F#2 key =  42 ; velocity: 127
@48200 Channel: 9 Note on, C2 key =  36 ; velocity: 0
@48200 Channel: 9 Note on, C2 key =  36 ; velocity: 127
@48220 Channel: 9 Note on, C2 key =  36 ; velocity: 0
@48220 Channel: 9 Note on, C2 key =  36 ; velocity: 127
@48240 Channel: 9 Note on, F#2 key =  42 ; velocity: 0
@48240 Channel: 9 Note on, C2 key =  36 ; velocity: 0
@48240 Channel: 9 Note on, D2 key =  38 ; velocity: 127
@48240 Channel: 9 Note on, F#2 key =  42 ; velocity: 127
@48300 Channel: 9 Note on, D2 key =  38 ; velocity: 0
@48300 Channel: 9 Note on, F#2 key =  42 ; velocity: 0
@48300 Channel: 9 Note on, C2 key =  36 ; velocity: 127
@48300 Channel: 9 Note on, F#2 key =  42 ; velocity: 127
@48320 Channel: 9 Note on, C2 key =  36 ; velocity: 0
@48320 Channel: 9 Note on, C2 key =  36 ; velocity: 127
@48340 Channel: 9 Note on, C2 key =  36 ; velocity: 0
@48340 Channel: 9 Note on, C2 key =  36 ; velocity: 127
@48360 Channel: 9 Note on, F#2 key =  42 ; velocity: 0
@48360 Channel: 9 Note on, C2 key =  36 ; velocity: 0
@48360 Channel: 9 Note on, D2 key =  38 ; velocity: 127
@48360 Channel: 9 Note on, F#2 key =  42 ; velocity: 127
@48420 Channel: 9 Note on, D2 key =  38 ; velocity: 0
@48420 Channel: 9 Note on, F#2 key =  42 ; velocity: 0
@48420 Channel: 9 Note on, C2 key =  36 ; velocity: 127
@48420 Channel: 9 Note on, F#2 key =  42 ; velocity: 127
@48480 Channel: 9 Note on, C2 key =  36 ; velocity: 0
@48480 Channel: 9 Note on, F#2 key =  42 ; velocity: 0
@48480 Channel: 9 Note on, A3 key =  57 ; velocity: 127
@48480 Channel: 9 Note on, C2 key =  36 ; velocity: 127
@48540 Channel: 9 Note on, A3 key =  57 ; velocity: 0
@48540 Channel: 9 Note on, F#2 key =  42 ; velocity: 127
@48600 Channel: 9 Note on, C2 key =  36 ; velocity: 0
@48600 Channel: 9 Note on, F#2 key =  42 ; velocity: 0
@48600 Channel: 9 Note on, D2 key =  38 ; velocity: 127
@48600 Channel: 9 Note on, F#2 key =  42 ; velocity: 127
@48660 Channel: 9 Note on, D2 key =  38 ; velocity: 0
@48660 Channel: 9 Note on, F#2 key =  42 ; velocity: 0
@48660 Channel: 9 Note on, F#2 key =  42 ; velocity: 127
@48720 Channel: 9 Note on, F#2 key =  42 ; velocity: 0
@48720 Channel: 9 Note on, F#2 key =  42 ; velocity: 127
@48720 Channel: 9 Note on, C2 key =  36 ; velocity: 127
@48780 Channel: 9 Note on, F#2 key =  42 ; velocity: 0
@48780 Channel: 9 Note on, C2 key =  36 ; velocity: 0
@48780 Channel: 9 Note on, F#2 key =  42 ; velocity: 127
@48780 Channel: 9 Note on, C2 key =  36 ; velocity: 127
@48800 Channel: 9 Note on, C2 key =  36 ; velocity: 0
@48800 Channel: 9 Note on, C2 key =  36 ; velocity: 127
@48820 Channel: 9 Note on, C2 key =  36 ; velocity: 0
@48820 Channel: 9 Note on, C2 key =  36 ; velocity: 127
@48840 Channel: 9 Note on, F#2 key =  42 ; velocity: 0
@48840 Channel: 9 Note on, C2 key =  36 ; velocity: 0
@48840 Channel: 9 Note on, D2 key =  38 ; velocity: 127
@48840 Channel: 9 Note on, F#2 key =  42 ; velocity: 127
@48900 Channel: 9 Note on, D2 key =  38 ; velocity: 0
@48900 Channel: 9 Note on, F#2 key =  42 ; velocity: 0
@48900 Channel: 9 Note on, F#2 key =  42 ; velocity: 127
@48900 Channel: 9 Note on, C2 key =  36 ; velocity: 127
@48960 Channel: 9 Note on, F#2 key =  42 ; velocity: 0
@48960 Channel: 9 Note on, C2 key =  36 ; velocity: 0
@48960 Channel: 9 Note on, C2 key =  36 ; velocity: 127
@48960 Channel: 9 Note on, A3 key =  57 ; velocity: 127
@49020 Channel: 9 Note on, A3 key =  57 ; velocity: 0
@49020 Channel: 9 Note on, F#2 key =  42 ; velocity: 127
@49080 Channel: 9 Note on, C2 key =  36 ; velocity: 0
@49080 Channel: 9 Note on, F#2 key =  42 ; velocity: 0
@49080 Channel: 9 Note on, D2 key =  38 ; velocity: 127
@49080 Channel: 9 Note on, F#2 key =  42 ; velocity: 127
@49140 Channel: 9 Note on, D2 key =  38 ; velocity: 0
@49140 Channel: 9 Note on, F#2 key =  42 ; velocity: 0
@49140 Channel: 9 Note on, F#2 key =  42 ; velocity: 127
@49200 Channel: 9 Note on, F#2 key =  42 ; velocity: 0
@49200 Channel: 9 Note on, A2 key =  45 ; velocity: 127
@49260 Channel: 9 Note on, A2 key =  45 ; velocity: 0
@49260 Channel: 9 Note on, A2 key =  45 ; velocity: 127
@49320 Channel: 9 Note on, A2 key =  45 ; velocity: 0
@49320 Channel: 9 Note on, B2 key =  47 ; velocity: 127
@49350 Channel: 9 Note on, B2 key =  47 ; velocity: 0
@49350 Channel: 9 Note on, B2 key =  47 ; velocity: 127
@49380 Channel: 9 Note on, B2 key =  47 ; velocity: 0
@49380 Channel: 9 Note on, B2 key =  47 ; velocity: 127
@49410 Channel: 9 Note on, B2 key =  47 ; velocity: 0
@49410 Channel: 9 Note on, B2 key =  47 ; velocity: 127
@49440 Channel: 9 Note on, B2 key =  47 ; velocity: 0
@49440 Channel: 9 Note on, A3 key =  57 ; velocity: 127
@49440 Channel: 9 Note on, C2 key =  36 ; velocity: 127
@49500 Channel: 9 Note on, A3 key =  57 ; velocity: 0
@49500 Channel: 9 Note on, F#2 key =  42 ; velocity: 127
@49560 Channel: 9 Note on, C2 key =  36 ; velocity: 0
@49560 Channel: 9 Note on, F#2 key =  42 ; velocity: 0
@49560 Channel: 9 Note on, D2 key =  38 ; velocity: 127
@49560 Channel: 9 Note on, F#2 key =  42 ; velocity: 127
@49620 Channel: 9 Note on, D2 key =  38 ; velocity: 0
@49620 Channel: 9 Note on, F#2 key =  42 ; velocity: 0
@49620 Channel: 9 Note on, F#2 key =  42 ; velocity: 127
@49680 Channel: 9 Note on, F#2 key =  42 ; velocity: 0
@49680 Channel: 9 Note on, F#2 key =  42 ; velocity: 127
@49680 Channel: 9 Note on, C2 key =  36 ; velocity: 127
@49740 Channel: 9 Note on, F#2 key =  42 ; velocity: 0
@49740 Channel: 9 Note on, F#2 key =  42 ; velocity: 127
@49800 Channel: 9 Note on, C2 key =  36 ; velocity: 0
@49800 Channel: 9 Note on, F#2 key =  42 ; velocity: 0
@49800 Channel: 9 Note on, D2 key =  38 ; velocity: 127
@49800 Channel: 9 Note on, F#2 key =  42 ; velocity: 127
@49860 Channel: 9 Note on, D2 key =  38 ; velocity: 0
@49860 Channel: 9 Note on, F#2 key =  42 ; velocity: 0
@49860 Channel: 9 Note on, F#2 key =  42 ; velocity: 127
@49920 Channel: 9 Note on, F#2 key =  42 ; velocity: 0
@49920 Channel: 9 Note on, D2 key =  38 ; velocity: 127
@49950 Channel: 9 Note on, D2 key =  38 ; velocity: 0
@49950 Channel: 9 Note on, D2 key =  38 ; velocity: 127
@49980 Channel: 9 Note on, D2 key =  38 ; velocity: 0
@49980 Channel: 9 Note on, F#2 key =  42 ; velocity: 127
@50040 Channel: 9 Note on, F#2 key =  42 ; velocity: 0
@50040 Channel: 9 Note on, D2 key =  38 ; velocity: 127
@50070 Channel: 9 Note on, D2 key =  38 ; velocity: 0
@50070 Channel: 9 Note on, D2 key =  38 ; velocity: 127
@50100 Channel: 9 Note on, D2 key =  38 ; velocity: 0
@50100 Channel: 9 Note on, F#2 key =  42 ; velocity: 127
@50160 Channel: 9 Note on, F#2 key =  42 ; velocity: 0
@50160 Channel: 9 Note on, D2 key =  38 ; velocity: 127
@50190 Channel: 9 Note on, D2 key =  38 ; velocity: 0
@50190 Channel: 9 Note on, D2 key =  38 ; velocity: 127
@50220 Channel: 9 Note on, D2 key =  38 ; velocity: 0
@50220 Channel: 9 Note on, F#2 key =  42 ; velocity: 127
@50275 Channel: 9 Note on, F#2 key =  42 ; velocity: 0
@50275 Channel: 9 Note on, D2 key =  38 ; velocity: 75
@50280 Channel: 9 Note on, D2 key =  38 ; velocity: 0
@50280 Channel: 9 Note on, D2 key =  38 ; velocity: 127
@50335 Channel: 9 Note on, D2 key =  38 ; velocity: 0
@50335 Channel: 9 Note on, D2 key =  38 ; velocity: 75
@50340 Channel: 9 Note on, D2 key =  38 ; velocity: 0
@50340 Channel: 9 Note on, D2 key =  38 ; velocity: 127
@50400 Channel: 9 Note on, D2 key =  38 ; velocity: 0
@50400 Channel: 9 Note on, A3 key =  57 ; velocity: 127
@50400 Channel: 9 Note on, C2 key =  36 ; velocity: 127
@50460 Channel: 9 Note on, A3 key =  57 ; velocity: 0
@50460 Channel: 9 Note on, F#2 key =  42 ; velocity: 127
@50520 Channel: 9 Note on, C2 key =  36 ; velocity: 0
@50520 Channel: 9 Note on, F#2 key =  42 ; velocity: 0
@50520 Channel: 9 Note on, D2 key =  38 ; velocity: 127
@50520 Channel: 9 Note on, F#2 key =  42 ; velocity: 127
@50580 Channel: 9 Note on, D2 key =  38 ; velocity: 0
@50580 Channel: 9 Note on, F#2 key =  42 ; velocity: 0
@50580 Channel: 9 Note on, F#2 key =  42 ; velocity: 127
@50640 Channel: 9 Note on, F#2 key =  42 ; velocity: 0
@50640 Channel: 9 Note on, F#2 key =  42 ; velocity: 127
@50640 Channel: 9 Note on, C2 key =  36 ; velocity: 127
@50700 Channel: 9 Note on, F#2 key =  42 ; velocity: 0
@50700 Channel: 9 Note on, C2 key =  36 ; velocity: 0
@50700 Channel: 9 Note on, F#2 key =  42 ; velocity: 127
@50700 Channel: 9 Note on, C2 key =  36 ; velocity: 127
@50720 Channel: 9 Note on, C2 key =  36 ; velocity: 0
@50720 Channel: 9 Note on, C2 key =  36 ; velocity: 127
@50740 Channel: 9 Note on, C2 key =  36 ; velocity: 0
@50740 Channel: 9 Note on, C2 key =  36 ; velocity: 127
@50760 Channel: 9 Note on, F#2 key =  42 ; velocity: 0
@50760 Channel: 9 Note on, C2 key =  36 ; velocity: 0
@50760 Channel: 9 Note on, D2 key =  38 ; velocity: 127
@50760 Channel: 9 Note on, A3 key =  57 ; velocity: 127
@50880 Channel: 9 Note on, D2 key =  38 ; velocity: 0
@50880 Channel: 9 Note on, A3 key =  57 ; velocity: 0
@50880 Channel: 9 Note on, C2 key =  36 ; velocity: 127
@50880 Channel: 9 Note on, A3 key =  57 ; velocity: 127
@51000 Channel: 9 Note on, C2 key =  36 ; velocity: 0
@51000 Channel: 9 Note on, A3 key =  57 ; velocity: 0
@51000 Channel: 9 Note on, D2 key =  38 ; velocity: 127
@51000 Channel: 9 Note on, F#2 key =  42 ; velocity: 127
@51060 Channel: 9 Note on, D2 key =  38 ; velocity: 0
@51060 Channel: 9 Note on, F#2 key =  42 ; velocity: 0
@51060 Channel: 9 Note on, F#2 key =  42 ; velocity: 127
@51120 Channel: 9 Note on, F#2 key =  42 ; velocity: 0
@51120 Channel: 9 Note on, C2 key =  36 ; velocity: 127
@51120 Channel: 9 Note on, A3 key =  57 ; velocity: 127
@51180 Channel: 9 Note on, C2 key =  36 ; velocity: 0
@51180 Channel: 9 Note on, A3 key =  57 ; velocity: 0
@51180 Channel: 9 Note on, C2 key =  36 ; velocity: 127
@51180 Channel: 9 Note on, A3 key =  57 ; velocity: 127
@51240 Channel: 9 Note on, C2 key =  36 ; velocity: 0
@51240 Channel: 9 Note on, A3 key =  57 ; velocity: 0
@51240 Channel: 9 Note on, C2 key =  36 ; velocity: 127
@51240 Channel: 9 Note on, A3 key =  57 ; velocity: 127
@51300 Channel: 9 Note on, C2 key =  36 ; velocity: 0
@51300 Channel: 9 Note on, A3 key =  57 ; velocity: 0
@51300 Channel: 9 Note on, C2 key =  36 ; velocity: 127
@51300 Channel: 9 Note on, A3 key =  57 ; velocity: 127
@51360 Channel: 9 Note on, C2 key =  36 ; velocity: 0
@51360 Channel: 9 Note on, A3 key =  57 ; velocity: 0
@51360 Channel: 9 Note on, A3 key =  57 ; velocity: 127
@51360 Channel: 9 Note on, C2 key =  36 ; velocity: 127
@51420 Channel: 9 Note on, A3 key =  57 ; velocity: 0
@51420 Channel: 9 Note on, F#2 key =  42 ; velocity: 127
@51480 Channel: 9 Note on, C2 key =  36 ; velocity: 0
@51480 Channel: 9 Note on, F#2 key =  42 ; velocity: 0
@51480 Channel: 9 Note on, D2 key =  38 ; velocity: 127
@51480 Channel: 9 Note on, F#2 key =  42 ; velocity: 127
@51540 Channel: 9 Note on, D2 key =  38 ; velocity: 0
@51540 Channel: 9 Note on, F#2 key =  42 ; velocity: 0
@51540 Channel: 9 Note on, F#2 key =  42 ; velocity: 127
@51600 Channel: 9 Note on, F#2 key =  42 ; velocity: 0
@51600 Channel: 9 Note on, F#2 key =  42 ; velocity: 127
@51600 Channel: 9 Note on, C2 key =  36 ; velocity: 127
@51660 Channel: 9 Note on, F#2 key =  42 ; velocity: 0
@51660 Channel: 9 Note on, F#2 key =  42 ; velocity: 127
@51720 Channel: 9 Note on, C2 key =  36 ; velocity: 0
@51720 Channel: 9 Note on, F#2 key =  42 ; velocity: 0
@51720 Channel: 9 Note on, D2 key =  38 ; velocity: 127
@51720 Channel: 9 Note on, F#2 key =  42 ; velocity: 127
@51780 Channel: 9 Note on, D2 key =  38 ; velocity: 0
@51780 Channel: 9 Note on, F#2 key =  42 ; velocity: 0
@51780 Channel: 9 Note on, F#2 key =  42 ; velocity: 127
@51840 Channel: 9 Note on, F#2 key =  42 ; velocity: 0
@51840 Channel: 9 Note on, C2 key =  36 ; velocity: 127
@51840 Channel: 9 Note on, F#2 key =  42 ; velocity: 127
@51900 Channel: 9 Note on, C2 key =  36 ; velocity: 0
@51900 Channel: 9 Note on, F#2 key =  42 ; velocity: 0
@51900 Channel: 9 Note on, C2 key =  36 ; velocity: 127
@51900 Channel: 9 Note on, F#2 key =  42 ; velocity: 127
@51920 Channel: 9 Note on, C2 key =  36 ; velocity: 0
@51920 Channel: 9 Note on, C2 key =  36 ; velocity: 127
@51940 Channel: 9 Note on, C2 key =  36 ; velocity: 0
@51940 Channel: 9 Note on, C2 key =  36 ; velocity: 127
@51960 Channel: 9 Note on, F#2 key =  42 ; velocity: 0
@51960 Channel: 9 Note on, C2 key =  36 ; velocity: 0
@51960 Channel: 9 Note on, D2 key =  38 ; velocity: 127
@51960 Channel: 9 Note on, F#2 key =  42 ; velocity: 127
@52020 Channel: 9 Note on, D2 key =  38 ; velocity: 0
@52020 Channel: 9 Note on, F#2 key =  42 ; velocity: 0
@52020 Channel: 9 Note on, C2 key =  36 ; velocity: 127
@52020 Channel: 9 Note on, F#2 key =  42 ; velocity: 127
@52040 Channel: 9 Note on, C2 key =  36 ; velocity: 0
@52040 Channel: 9 Note on, C2 key =  36 ; velocity: 127
@52060 Channel: 9 Note on, C2 key =  36 ; velocity: 0
@52060 Channel: 9 Note on, C2 key =  36 ; velocity: 127
@52080 Channel: 9 Note on, F#2 key =  42 ; velocity: 0
@52080 Channel: 9 Note on, C2 key =  36 ; velocity: 0
@52080 Channel: 9 Note on, D2 key =  38 ; velocity: 127
@52080 Channel: 9 Note on, F#2 key =  42 ; velocity: 127
@52140 Channel: 9 Note on, D2 key =  38 ; velocity: 0
@52140 Channel: 9 Note on, F#2 key =  42 ; velocity: 0
@52140 Channel: 9 Note on, C2 key =  36 ; velocity: 127
@52140 Channel: 9 Note on, F#2 key =  42 ; velocity: 127
@52160 Channel: 9 Note on, C2 key =  36 ; velocity: 0
@52160 Channel: 9 Note on, C2 key =  36 ; velocity: 127
@52180 Channel: 9 Note on, C2 key =  36 ; velocity: 0
@52180 Channel: 9 Note on, C2 key =  36 ; velocity: 127
@52200 Channel: 9 Note on, F#2 key =  42 ; velocity: 0
@52200 Channel: 9 Note on, C2 key =  36 ; velocity: 0
@52200 Channel: 9 Note on, D2 key =  38 ; velocity: 127
@52200 Channel: 9 Note on, F#2 key =  42 ; velocity: 127
@52260 Channel: 9 Note on, D2 key =  38 ; velocity: 0
@52260 Channel: 9 Note on, F#2 key =  42 ; velocity: 0
@52260 Channel: 9 Note on, A3 key =  57 ; velocity: 127
@52260 Channel: 9 Note on, C2 key =  36 ; velocity: 127
@52320 Channel: 9 Note on, A3 key =  57 ; velocity: 0
@52320 Channel: 9 Note on, C2 key =  36 ; velocity: 0
@52320 Channel: 9 Note on, C2 key =  36 ; velocity: 127
@52320 Channel: 9 Note on, A3 key =  57 ; velocity: 127
@52380 Channel: 9 Note on, A3 key =  57 ; velocity: 0
@52380 Channel: 9 Note on, F#2 key =  42 ; velocity: 127
@52440 Channel: 9 Note on, C2 key =  36 ; velocity: 0
@52440 Channel: 9 Note on, F#2 key =  42 ; velocity: 0
@52440 Channel: 9 Note on, D2 key =  38 ; velocity: 127
@52440 Channel: 9 Note on, F#2 key =  42 ; velocity: 127
@52500 Channel: 9 Note on, D2 key =  38 ; velocity: 0
@52500 Channel: 9 Note on, F#2 key =  42 ; velocity: 0
@52500 Channel: 9 Note on, F#2 key =  42 ; velocity: 127
@52560 Channel: 9 Note on, F#2 key =  42 ; velocity: 0
@52560 Channel: 9 Note on, C2 key =  36 ; velocity: 127
@52560 Channel: 9 Note on, F#2 key =  42 ; velocity: 127
@52620 Channel: 9 Note on, C2 key =  36 ; velocity: 0
@52620 Channel: 9 Note on, F#2 key =  42 ; velocity: 0
@52620 Channel: 9 Note on, C2 key =  36 ; velocity: 127
@52620 Channel: 9 Note on, F#2 key =  42 ; velocity: 127
@52640 Channel: 9 Note on, C2 key =  36 ; velocity: 0
@52640 Channel: 9 Note on, C2 key =  36 ; velocity: 127
@52660 Channel: 9 Note on, C2 key =  36 ; velocity: 0
@52660 Channel: 9 Note on, C2 key =  36 ; velocity: 127
@52680 Channel: 9 Note on, F#2 key =  42 ; velocity: 0
@52680 Channel: 9 Note on, C2 key =  36 ; velocity: 0
@52680 Channel: 9 Note on, D2 key =  38 ; velocity: 127
@52680 Channel: 9 Note on, F#2 key =  42 ; velocity: 127
@52740 Channel: 9 Note on, D2 key =  38 ; velocity: 0
@52740 Channel: 9 Note on, F#2 key =  42 ; velocity: 0
@52740 Channel: 9 Note on, F#2 key =  42 ; velocity: 127
@52800 Channel: 9 Note on, F#2 key =  42 ; velocity: 0
@52800 Channel: 9 Note on, A3 key =  57 ; velocity: 127
@52800 Channel: 9 Note on, C2 key =  36 ; velocity: 127
@52860 Channel: 9 Note on, A3 key =  57 ; velocity: 0
@52860 Channel: 9 Note on, F#2 key =  42 ; velocity: 127
@52920 Channel: 9 Note on, C2 key =  36 ; velocity: 0
@52920 Channel: 9 Note on, F#2 key =  42 ; velocity: 0
@52920 Channel: 9 Note on, D2 key =  38 ; velocity: 127
@52920 Channel: 9 Note on, F#2 key =  42 ; velocity: 127
@52980 Channel: 9 Note on, D2 key =  38 ; velocity: 0
@52980 Channel: 9 Note on, F#2 key =  42 ; velocity: 0
@52980 Channel: 9 Note on, F#2 key =  42 ; velocity: 127
@53040 Channel: 9 Note on, F#2 key =  42 ; velocity: 0
@53040 Channel: 9 Note on, D2 key =  38 ; velocity: 127
@53040 Channel: 9 Note on, A3 key =  57 ; velocity: 127
@53100 Channel: 9 Note on, C2 key =  36 ; velocity: 127
@53120 Channel: 9 Note on, C2 key =  36 ; velocity: 0
@53120 Channel: 9 Note on, C2 key =  36 ; velocity: 127
@53140 Channel: 9 Note on, C2 key =  36 ; velocity: 0
@53140 Channel: 9 Note on, C2 key =  36 ; velocity: 127
@53160 Channel: 9 Note on, D2 key =  38 ; velocity: 0
@53160 Channel: 9 Note on, A3 key =  57 ; velocity: 0
@53160 Channel: 9 Note on, C2 key =  36 ; velocity: 0
@53160 Channel: 9 Note on, D2 key =  38 ; velocity: 127
@53160 Channel: 9 Note on, A3 key =  57 ; velocity: 127
@53220 Channel: 9 Note on, C2 key =  36 ; velocity: 127
@53240 Channel: 9 Note on, C2 key =  36 ; velocity: 0
@53240 Channel: 9 Note on, C2 key =  36 ; velocity: 127
@53260 Channel: 9 Note on, C2 key =  36 ; velocity: 0
@53260 Channel: 9 Note on, C2 key =  36 ; velocity: 127
@53280 Channel: 9 Note on, D2 key =  38 ; velocity: 0
@53280 Channel: 9 Note on, A3 key =  57 ; velocity: 0
@53280 Channel: 9 Note on, C2 key =  36 ; velocity: 0
@53280 Channel: 9 Note on, D2 key =  38 ; velocity: 127
@53280 Channel: 9 Note on, A3 key =  57 ; velocity: 127
@53400 Channel: 9 Note on, D2 key =  38 ; velocity: 0
@53400 Channel: 9 Note on, A3 key =  57 ; velocity: 0
@53580 Channel: 9 Note on, C2 key =  36 ; velocity: 127
@53600 Channel: 9 Note on, C2 key =  36 ; velocity: 0
@53600 Channel: 9 Note on, C2 key =  36 ; velocity: 127
@53620 Channel: 9 Note on, C2 key =  36 ; velocity: 0
@53620 Channel: 9 Note on, C2 key =  36 ; velocity: 127
@53635 Channel: 9 Note on, D2 key =  38 ; velocity: 75
@53640 Channel: 9 Note on, C2 key =  36 ; velocity: 0
@53640 Channel: 9 Note on, D2 key =  38 ; velocity: 0
@53640 Channel: 9 Note on, D2 key =  38 ; velocity: 127
@53760 Channel: 9 Note on, D2 key =  38 ; velocity: 0
@53760 Channel: 9 Note on, C2 key =  36 ; velocity: 127
@53760 Channel: 9 Note on, A3 key =  57 ; velocity: 127
@53880 Channel: 9 Note on, C2 key =  36 ; velocity: 0
@53880 Channel: 9 Note on, A3 key =  57 ; velocity: 0
@53880 Channel: 9 Note on, F#2 key =  42 ; velocity: 127
@53880 Channel: 9 Note on, D2 key =  38 ; velocity: 127
@54000 Channel: 9 Note on, F#2 key =  42 ; velocity: 0
@54000 Channel: 9 Note on, D2 key =  38 ; velocity: 0
@54000 Channel: 9 Note on, C2 key =  36 ; velocity: 127
@54000 Channel: 9 Note on, F#2 key =  42 ; velocity: 127
@54060 Channel: 9 Note on, C2 key =  36 ; velocity: 0
@54060 Channel: 9 Note on, C2 key =  36 ; velocity: 127
@54120 Channel: 9 Note on, F#2 key =  42 ; velocity: 0
@54120 Channel: 9 Note on, C2 key =  36 ; velocity: 0
@54120 Channel: 9 Note on, D2 key =  38 ; velocity: 127
@54120 Channel: 9 Note on, F#2 key =  42 ; velocity: 127
@54240 Channel: 9 Note on, D2 key =  38 ; velocity: 0
@54240 Channel: 9 Note on, F#2 key =  42 ; velocity: 0
@54240 Channel: 9 Note on, C2 key =  36 ; velocity: 127
@54240 Channel: 9 Note on, F#2 key =  42 ; velocity: 127
@54300 Channel: 9 Note on, C2 key =  36 ; velocity: 0
@54300 Channel: 9 Note on, C2 key =  36 ; velocity: 127
@54360 Channel: 9 Note on, F#2 key =  42 ; velocity: 0
@54360 Channel: 9 Note on, C2 key =  36 ; velocity: 0
@54360 Channel: 9 Note on, D2 key =  38 ; velocity: 127
@54360 Channel: 9 Note on, F#2 key =  42 ; velocity: 127
@54480 Channel: 9 Note on, D2 key =  38 ; velocity: 0
@54480 Channel: 9 Note on, F#2 key =  42 ; velocity: 0
@54480 Channel: 9 Note on, C2 key =  36 ; velocity: 127
@54480 Channel: 9 Note on, F#2 key =  42 ; velocity: 127
@54540 Channel: 9 Note on, C2 key =  36 ; velocity: 0
@54540 Channel: 9 Note on, C2 key =  36 ; velocity: 127
@54600 Channel: 9 Note on, F#2 key =  42 ; velocity: 0
@54600 Channel: 9 Note on, C2 key =  36 ; velocity: 0
@54600 Channel: 9 Note on, D2 key =  38 ; velocity: 127
@54600 Channel: 9 Note on, F#2 key =  42 ; velocity: 127
@54720 Channel: 9 Note on, D2 key =  38 ; velocity: 0
@54720 Channel: 9 Note on, F#2 key =  42 ; velocity: 0
@54720 Channel: 9 Note on, C2 key =  36 ; velocity: 127
@54720 Channel: 9 Note on, F#2 key =  42 ; velocity: 127
@54780 Channel: 9 Note on, C2 key =  36 ; velocity: 0
@54780 Channel: 9 Note on, C2 key =  36 ; velocity: 127
@54840 Channel: 9 Note on, F#2 key =  42 ; velocity: 0
@54840 Channel: 9 Note on, C2 key =  36 ; velocity: 0
@54840 Channel: 9 Note on, D2 key =  38 ; velocity: 127
@54840 Channel: 9 Note on, F#2 key =  42 ; velocity: 127
@54960 Channel: 9 Note on, D2 key =  38 ; velocity: 0
@54960 Channel: 9 Note on, F#2 key =  42 ; velocity: 0
@54960 Channel: 9 Note on, C2 key =  36 ; velocity: 127
@54960 Channel: 9 Note on, F#2 key =  42 ; velocity: 127
@55020 Channel: 9 Note on, C2 key =  36 ; velocity: 0
@55020 Channel: 9 Note on, C2 key =  36 ; velocity: 127
@55080 Channel: 9 Note on, F#2 key =  42 ; velocity: 0
@55080 Channel: 9 Note on, C2 key =  36 ; velocity: 0
@55080 Channel: 9 Note on, D2 key =  38 ; velocity: 127
@55080 Channel: 9 Note on, F#2 key =  42 ; velocity: 127
@55200 Channel: 9 Note on, D2 key =  38 ; velocity: 0
@55200 Channel: 9 Note on, F#2 key =  42 ; velocity: 0
@55200 Channel: 9 Note on, C2 key =  36 ; velocity: 127
@55200 Channel: 9 Note on, F#2 key =  42 ; velocity: 127
@55260 Channel: 9 Note on, C2 key =  36 ; velocity: 0
@55260 Channel: 9 Note on, C2 key =  36 ; velocity: 127
@55320 Channel: 9 Note on, F#2 key =  42 ; velocity: 0
@55320 Channel: 9 Note on, C2 key =  36 ; velocity: 0
@55320 Channel: 9 Note on, D2 key =  38 ; velocity: 127
@55320 Channel: 9 Note on, F#2 key =  42 ; velocity: 127
@55440 Channel: 9 Note on, D2 key =  38 ; velocity: 0
@55440 Channel: 9 Note on, F#2 key =  42 ; velocity: 0
@55440 Channel: 9 Note on, C2 key =  36 ; velocity: 127
@55440 Channel: 9 Note on, F#2 key =  42 ; velocity: 127
@55500 Channel: 9 Note on, C2 key =  36 ; velocity: 0
@55500 Channel: 9 Note on, C2 key =  36 ; velocity: 127
@55560 Channel: 9 Note on, F#2 key =  42 ; velocity: 0
@55560 Channel: 9 Note on, C2 key =  36 ; velocity: 0
@55560 Channel: 9 Note on, D2 key =  38 ; velocity: 127
@55560 Channel: 9 Note on, F#2 key =  42 ; velocity: 127
@55680 Channel: 9 Note on, D2 key =  38 ; velocity: 0
@55680 Channel: 9 Note on, F#2 key =  42 ; velocity: 0
@55680 Channel: 9 Note on, C2 key =  36 ; velocity: 127
@55680 Channel: 9 Note on, A3 key =  57 ; velocity: 127
@55800 Channel: 9 Note on, C2 key =  36 ; velocity: 0
@55800 Channel: 9 Note on, A3 key =  57 ; velocity: 0
@55800 Channel: 9 Note on, F#2 key =  42 ; velocity: 127
@55800 Channel: 9 Note on, D2 key =  38 ; velocity: 127
@55920 Channel: 9 Note on, F#2 key =  42 ; velocity: 0
@55920 Channel: 9 Note on, D2 key =  38 ; velocity: 0
@55920 Channel: 9 Note on, C2 key =  36 ; velocity: 127
@55920 Channel: 9 Note on, F#2 key =  42 ; velocity: 127
@55980 Channel: 9 Note on, C2 key =  36 ; velocity: 0
@55980 Channel: 9 Note on, C2 key =  36 ; velocity: 127
@56040 Channel: 9 Note on, F#2 key =  42 ; velocity: 0
@56040 Channel: 9 Note on, C2 key =  36 ; velocity: 0
@56040 Channel: 9 Note on, D2 key =  38 ; velocity: 127
@56040 Channel: 9 Note on, F#2 key =  42 ; velocity: 127
@56160 Channel: 9 Note on, D2 key =  38 ; velocity: 0
@56160 Channel: 9 Note on, F#2 key =  42 ; velocity: 0
@56160 Channel: 9 Note on, C2 key =  36 ; velocity: 127
@56160 Channel: 9 Note on, F#2 key =  42 ; velocity: 127
@56220 Channel: 9 Note on, C2 key =  36 ; velocity: 0
@56220 Channel: 9 Note on, C2 key =  36 ; velocity: 127
@56280 Channel: 9 Note on, F#2 key =  42 ; velocity: 0
@56280 Channel: 9 Note on, C2 key =  36 ; velocity: 0
@56280 Channel: 9 Note on, D2 key =  38 ; velocity: 127
@56280 Channel: 9 Note on, F#2 key =  42 ; velocity: 127
@56400 Channel: 9 Note on, D2 key =  38 ; velocity: 0
@56400 Channel: 9 Note on, F#2 key =  42 ; velocity: 0
@56400 Channel: 9 Note on, C2 key =  36 ; velocity: 127
@56400 Channel: 9 Note on, F#2 key =  42 ; velocity: 127
@56460 Channel: 9 Note on, C2 key =  36 ; velocity: 0
@56460 Channel: 9 Note on, C2 key =  36 ; velocity: 127
@56520 Channel: 9 Note on, F#2 key =  42 ; velocity: 0
@56520 Channel: 9 Note on, C2 key =  36 ; velocity: 0
@56520 Channel: 9 Note on, D2 key =  38 ; velocity: 127
@56520 Channel: 9 Note on, F#2 key =  42 ; velocity: 127
@56640 Channel: 9 Note on, D2 key =  38 ; velocity: 0
@56640 Channel: 9 Note on, F#2 key =  42 ; velocity: 0
@56640 Channel: 9 Note on, C2 key =  36 ; velocity: 127
@56640 Channel: 9 Note on, F#2 key =  42 ; velocity: 127
@56700 Channel: 9 Note on, C2 key =  36 ; velocity: 0
@56700 Channel: 9 Note on, C2 key =  36 ; velocity: 127
@56760 Channel: 9 Note on, F#2 key =  42 ; velocity: 0
@56760 Channel: 9 Note on, C2 key =  36 ; velocity: 0
@56760 Channel: 9 Note on, D2 key =  38 ; velocity: 127
@56760 Channel: 9 Note on, F#2 key =  42 ; velocity: 127
@56880 Channel: 9 Note on, D2 key =  38 ; velocity: 0
@56880 Channel: 9 Note on, F#2 key =  42 ; velocity: 0
@56880 Channel: 9 Note on, C2 key =  36 ; velocity: 127
@56880 Channel: 9 Note on, F#2 key =  42 ; velocity: 127
@56940 Channel: 9 Note on, C2 key =  36 ; velocity: 0
@56940 Channel: 9 Note on, C2 key =  36 ; velocity: 127
@57000 Channel: 9 Note on, F#2 key =  42 ; velocity: 0
@57000 Channel: 9 Note on, C2 key =  36 ; velocity: 0
@57000 Channel: 9 Note on, D2 key =  38 ; velocity: 127
@57000 Channel: 9 Note on, F#2 key =  42 ; velocity: 127
@57120 Channel: 9 Note on, D2 key =  38 ; velocity: 0
@57120 Channel: 9 Note on, F#2 key =  42 ; velocity: 0
@57120 Channel: 9 Note on, F#2 key =  42 ; velocity: 127
@57120 Channel: 9 Note on, C2 key =  36 ; velocity: 127
@57180 Channel: 9 Note on, C2 key =  36 ; velocity: 0
@57180 Channel: 9 Note on, C2 key =  36 ; velocity: 127
@57240 Channel: 9 Note on, F#2 key =  42 ; velocity: 0
@57240 Channel: 9 Note on, C2 key =  36 ; velocity: 0
@57240 Channel: 9 Note on, D2 key =  38 ; velocity: 127
@57240 Channel: 9 Note on, A3 key =  57 ; velocity: 127
@57360 Channel: 9 Note on, D2 key =  38 ; velocity: 0
@57360 Channel: 9 Note on, A3 key =  57 ; velocity: 0
@57360 Channel: 9 Note on, F#2 key =  42 ; velocity: 127
@57360 Channel: 9 Note on, C2 key =  36 ; velocity: 127
@57420 Channel: 9 Note on, C2 key =  36 ; velocity: 0
@57420 Channel: 9 Note on, C2 key =  36 ; velocity: 127
@57480 Channel: 9 Note on, F#2 key =  42 ; velocity: 0
@57480 Channel: 9 Note on, C2 key =  36 ; velocity: 0
@57480 Channel: 9 Note on, D2 key =  38 ; velocity: 127
@57480 Channel: 9 Note on, A3 key =  57 ; velocity: 127
@57600 Channel: 9 Note on, D2 key =  38 ; velocity: 0
@57600 Channel: 9 Note on, A3 key =  57 ; velocity: 0
@57600 Channel: 9 Note on, C2 key =  36 ; velocity: 127
@57600 Channel: 9 Note on, F#2 key =  42 ; velocity: 127
@57660 Channel: 9 Note on, C2 key =  36 ; velocity: 0
@57660 Channel: 9 Note on, C2 key =  36 ; velocity: 127
@57720 Channel: 9 Note on, F#2 key =  42 ; velocity: 0
@57720 Channel: 9 Note on, C2 key =  36 ; velocity: 0
@57720 Channel: 9 Note on, D2 key =  38 ; velocity: 127
@57720 Channel: 9 Note on, F#2 key =  42 ; velocity: 127
@57840 Channel: 9 Note on, D2 key =  38 ; velocity: 0
@57840 Channel: 9 Note on, F#2 key =  42 ; velocity: 0
@57840 Channel: 9 Note on, C2 key =  36 ; velocity: 127
@57840 Channel: 9 Note on, F#2 key =  42 ; velocity: 127
@57900 Channel: 9 Note on, C2 key =  36 ; velocity: 0
@57900 Channel: 9 Note on, C2 key =  36 ; velocity: 127
@57960 Channel: 9 Note on, F#2 key =  42 ; velocity: 0
@57960 Channel: 9 Note on, C2 key =  36 ; velocity: 0
@57960 Channel: 9 Note on, D2 key =  38 ; velocity: 127
@57960 Channel: 9 Note on, F#2 key =  42 ; velocity: 127
@58080 Channel: 9 Note on, D2 key =  38 ; velocity: 0
@58080 Channel: 9 Note on, F#2 key =  42 ; velocity: 0
@58080 Channel: 9 Note on, C2 key =  36 ; velocity: 127
@58080 Channel: 9 Note on, F#2 key =  42 ; velocity: 127
@58140 Channel: 9 Note on, C2 key =  36 ; velocity: 0
@58140 Channel: 9 Note on, C2 key =  36 ; velocity: 127
@58200 Channel: 9 Note on, F#2 key =  42 ; velocity: 0
@58200 Channel: 9 Note on, C2 key =  36 ; velocity: 0
@58200 Channel: 9 Note on, D2 key =  38 ; velocity: 127
@58200 Channel: 9 Note on, F#2 key =  42 ; velocity: 127
@58320 Channel: 9 Note on, D2 key =  38 ; velocity: 0
@58320 Channel: 9 Note on, F#2 key =  42 ; velocity: 0
@58320 Channel: 9 Note on, C2 key =  36 ; velocity: 127
@58320 Channel: 9 Note on, F#2 key =  42 ; velocity: 127
@58380 Channel: 9 Note on, C2 key =  36 ; velocity: 0
@58380 Channel: 9 Note on, C2 key =  36 ; velocity: 127
@58440 Channel: 9 Note on, F#2 key =  42 ; velocity: 0
@58440 Channel: 9 Note on, C2 key =  36 ; velocity: 0
@58440 Channel: 9 Note on, D2 key =  38 ; velocity: 127
@58440 Channel: 9 Note on, F#2 key =  42 ; velocity: 127
@58560 Channel: 9 Note on, D2 key =  38 ; velocity: 0
@58560 Channel: 9 Note on, F#2 key =  42 ; velocity: 0
@58560 Channel: 9 Note on, C2 key =  36 ; velocity: 127
@58560 Channel: 9 Note on, F#2 key =  42 ; velocity: 127
@58620 Channel: 9 Note on, C2 key =  36 ; velocity: 0
@58620 Channel: 9 Note on, C2 key =  36 ; velocity: 127
@58680 Channel: 9 Note on, F#2 key =  42 ; velocity: 0
@58680 Channel: 9 Note on, C2 key =  36 ; velocity: 0
@58680 Channel: 9 Note on, D2 key =  38 ; velocity: 127
@58680 Channel: 9 Note on, F#2 key =  42 ; velocity: 127
@58800 Channel: 9 Note on, D2 key =  38 ; velocity: 0
@58800 Channel: 9 Note on, F#2 key =  42 ; velocity: 0
@58800 Channel: 9 Note on, C2 key =  36 ; velocity: 127
@58800 Channel: 9 Note on, F#2 key =  42 ; velocity: 127
@58860 Channel: 9 Note on, C2 key =  36 ; velocity: 0
@58860 Channel: 9 Note on, C2 key =  36 ; velocity: 127
@58920 Channel: 9 Note on, F#2 key =  42 ; velocity: 0
@58920 Channel: 9 Note on, C2 key =  36 ; velocity: 0
@58920 Channel: 9 Note on, D2 key =  38 ; velocity: 127
@58920 Channel: 9 Note on, F#2 key =  42 ; velocity: 127
@59040 Channel: 9 Note on, D2 key =  38 ; velocity: 0
@59040 Channel: 9 Note on, F#2 key =  42 ; velocity: 0
@59040 Channel: 9 Note on, D2 key =  38 ; velocity: 127
@59040 Channel: 9 Note on, C2 key =  36 ; velocity: 127
@59070 Channel: 9 Note on, D2 key =  38 ; velocity: 0
@59070 Channel: 9 Note on, D2 key =  38 ; velocity: 127
@59100 Channel: 9 Note on, D2 key =  38 ; velocity: 0
@59100 Channel: 9 Note on, D2 key =  38 ; velocity: 127
@59130 Channel: 9 Note on, D2 key =  38 ; velocity: 0
@59130 Channel: 9 Note on, D2 key =  38 ; velocity: 127
@59160 Channel: 9 Note on, C2 key =  36 ; velocity: 0
@59160 Channel: 9 Note on, D2 key =  38 ; velocity: 0
@59160 Channel: 9 Note on, D2 key =  38 ; velocity: 127
@59160 Channel: 9 Note on, C2 key =  36 ; velocity: 127
@59190 Channel: 9 Note on, D2 key =  38 ; velocity: 0
@59190 Channel: 9 Note on, D2 key =  38 ; velocity: 127
@59220 Channel: 9 Note on, D2 key =  38 ; velocity: 0
@59220 Channel: 9 Note on, D2 key =  38 ; velocity: 127
@59250 Channel: 9 Note on, D2 key =  38 ; velocity: 0
@59250 Channel: 9 Note on, D2 key =  38 ; velocity: 127
@59280 Channel: 9 Note on, C2 key =  36 ; velocity: 0
@59280 Channel: 9 Note on, D2 key =  38 ; velocity: 0
@59280 Channel: 9 Note on, D2 key =  38 ; velocity: 127
@59280 Channel: 9 Note on, C2 key =  36 ; velocity: 127
@59310 Channel: 9 Note on, D2 key =  38 ; velocity: 0
@59310 Channel: 9 Note on, D2 key =  38 ; velocity: 127
@59340 Channel: 9 Note on, D2 key =  38 ; velocity: 0
@59340 Channel: 9 Note on, D2 key =  38 ; velocity: 127
@59370 Channel: 9 Note on, D2 key =  38 ; velocity: 0
@59370 Channel: 9 Note on, D2 key =  38 ; velocity: 127
@59400 Channel: 9 Note on, C2 key =  36 ; velocity: 0
@59400 Channel: 9 Note on, D2 key =  38 ; velocity: 0
@59400 Channel: 9 Note on, D2 key =  38 ; velocity: 127
@59400 Channel: 9 Note on, C2 key =  36 ; velocity: 127
@59430 Channel: 9 Note on, D2 key =  38 ; velocity: 0
@59430 Channel: 9 Note on, D2 key =  38 ; velocity: 127
@59460 Channel: 9 Note on, D2 key =  38 ; velocity: 0
@59460 Channel: 9 Note on, D2 key =  38 ; velocity: 127
@59490 Channel: 9 Note on, D2 key =  38 ; velocity: 0
@59490 Channel: 9 Note on, D2 key =  38 ; velocity: 127
@59520 Channel: 9 Note on, C2 key =  36 ; velocity: 0
@59520 Channel: 9 Note on, D2 key =  38 ; velocity: 0
@59520 Channel: 9 Note on, C2 key =  36 ; velocity: 127
@59520 Channel: 9 Note on, A3 key =  57 ; velocity: 127
@59640 Channel: 9 Note on, C2 key =  36 ; velocity: 0
@59640 Channel: 9 Note on, A3 key =  57 ; velocity: 0
@59640 Channel: 9 Note on, F#2 key =  42 ; velocity: 127
@59640 Channel: 9 Note on, D2 key =  38 ; velocity: 127
@59760 Channel: 9 Note on, F#2 key =  42 ; velocity: 0
@59760 Channel: 9 Note on, D2 key =  38 ; velocity: 0
@59760 Channel: 9 Note on, C2 key =  36 ; velocity: 127
@59760 Channel: 9 Note on, F#2 key =  42 ; velocity: 127
@59820 Channel: 9 Note on, C2 key =  36 ; velocity: 0
@59820 Channel: 9 Note on, C2 key =  36 ; velocity: 127
@59880 Channel: 9 Note on, F#2 key =  42 ; velocity: 0
@59880 Channel: 9 Note on, C2 key =  36 ; velocity: 0
@59880 Channel: 9 Note on, D2 key =  38 ; velocity: 127
@59880 Channel: 9 Note on, F#2 key =  42 ; velocity: 127
@60000 Channel: 9 Note on, D2 key =  38 ; velocity: 0
@60000 Channel: 9 Note on, F#2 key =  42 ; velocity: 0
@60000 Channel: 9 Note on, C2 key =  36 ; velocity: 127
@60000 Channel: 9 Note on, F#2 key =  42 ; velocity: 127
@60060 Channel: 9 Note on, C2 key =  36 ; velocity: 0
@60060 Channel: 9 Note on, C2 key =  36 ; velocity: 127
@60120 Channel: 9 Note on, F#2 key =  42 ; velocity: 0
@60120 Channel: 9 Note on, C2 key =  36 ; velocity: 0
@60120 Channel: 9 Note on, D2 key =  38 ; velocity: 127
@60120 Channel: 9 Note on, F#2 key =  42 ; velocity: 127
@60240 Channel: 9 Note on, D2 key =  38 ; velocity: 0
@60240 Channel: 9 Note on, F#2 key =  42 ; velocity: 0
@60240 Channel: 9 Note on, C2 key =  36 ; velocity: 127
@60240 Channel: 9 Note on, F#2 key =  42 ; velocity: 127
@60300 Channel: 9 Note on, C2 key =  36 ; velocity: 0
@60300 Channel: 9 Note on, C2 key =  36 ; velocity: 127
@60360 Channel: 9 Note on, F#2 key =  42 ; velocity: 0
@60360 Channel: 9 Note on, C2 key =  36 ; velocity: 0
@60360 Channel: 9 Note on, D2 key =  38 ; velocity: 127
@60360 Channel: 9 Note on, F#2 key =  42 ; velocity: 127
@60480 Channel: 9 Note on, D2 key =  38 ; velocity: 0
@60480 Channel: 9 Note on, F#2 key =  42 ; velocity: 0
@60480 Channel: 9 Note on, C2 key =  36 ; velocity: 127
@60480 Channel: 9 Note on, F#2 key =  42 ; velocity: 127
@60540 Channel: 9 Note on, C2 key =  36 ; velocity: 0
@60540 Channel: 9 Note on, C2 key =  36 ; velocity: 127
@60600 Channel: 9 Note on, F#2 key =  42 ; velocity: 0
@60600 Channel: 9 Note on, C2 key =  36 ; velocity: 0
@60600 Channel: 9 Note on, D2 key =  38 ; velocity: 127
@60600 Channel: 9 Note on, F#2 key =  42 ; velocity: 127
@60720 Channel: 9 Note on, D2 key =  38 ; velocity: 0
@60720 Channel: 9 Note on, F#2 key =  42 ; velocity: 0
@60720 Channel: 9 Note on, C2 key =  36 ; velocity: 127
@60720 Channel: 9 Note on, F#2 key =  42 ; velocity: 127
@60780 Channel: 9 Note on, C2 key =  36 ; velocity: 0
@60780 Channel: 9 Note on, C2 key =  36 ; velocity: 127
@60840 Channel: 9 Note on, F#2 key =  42 ; velocity: 0
@60840 Channel: 9 Note on, C2 key =  36 ; velocity: 0
@60840 Channel: 9 Note on, D2 key =  38 ; velocity: 127
@60840 Channel: 9 Note on, F#2 key =  42 ; velocity: 127
@60960 Channel: 9 Note on, D2 key =  38 ; velocity: 0
@60960 Channel: 9 Note on, F#2 key =  42 ; velocity: 0
@60960 Channel: 9 Note on, C2 key =  36 ; velocity: 127
@60960 Channel: 9 Note on, F#2 key =  42 ; velocity: 127
@61020 Channel: 9 Note on, C2 key =  36 ; velocity: 0
@61020 Channel: 9 Note on, C2 key =  36 ; velocity: 127
@61080 Channel: 9 Note on, F#2 key =  42 ; velocity: 0
@61080 Channel: 9 Note on, C2 key =  36 ; velocity: 0
@61080 Channel: 9 Note on, A3 key =  57 ; velocity: 127
@61080 Channel: 9 Note on, D2 key =  38 ; velocity: 127
@61200 Channel: 9 Note on, A3 key =  57 ; velocity: 0
@61200 Channel: 9 Note on, D2 key =  38 ; velocity: 0
@61200 Channel: 9 Note on, C2 key =  36 ; velocity: 127
@61200 Channel: 9 Note on, F#2 key =  42 ; velocity: 127
@61260 Channel: 9 Note on, C2 key =  36 ; velocity: 0
@61260 Channel: 9 Note on, C2 key =  36 ; velocity: 127
@61320 Channel: 9 Note on, F#2 key =  42 ; velocity: 0
@61320 Channel: 9 Note on, C2 key =  36 ; velocity: 0
@61320 Channel: 9 Note on, A3 key =  57 ; velocity: 127
@61320 Channel: 9 Note on, D2 key =  38 ; velocity: 127
@61440 Channel: 9 Note on, A3 key =  57 ; velocity: 0
@61440 Channel: 9 Note on, D2 key =  38 ; velocity: 0
@61440 Channel: 9 Note on, C2 key =  36 ; velocity: 127
@61440 Channel: 9 Note on, F#2 key =  42 ; velocity: 127
@61500 Channel: 9 Note on, C2 key =  36 ; velocity: 0
@61500 Channel: 9 Note on, C2 key =  36 ; velocity: 127
@61560 Channel: 9 Note on, F#2 key =  42 ; velocity: 0
@61560 Channel: 9 Note on, C2 key =  36 ; velocity: 0
@61560 Channel: 9 Note on, D2 key =  38 ; velocity: 127
@61560 Channel: 9 Note on, F#2 key =  42 ; velocity: 127
@61680 Channel: 9 Note on, D2 key =  38 ; velocity: 0
@61680 Channel: 9 Note on, F#2 key =  42 ; velocity: 0
@61680 Channel: 9 Note on, C2 key =  36 ; velocity: 127
@61680 Channel: 9 Note on, F#2 key =  42 ; velocity: 127
@61740 Channel: 9 Note on, C2 key =  36 ; velocity: 0
@61740 Channel: 9 Note on, C2 key =  36 ; velocity: 127
@61800 Channel: 9 Note on, F#2 key =  42 ; velocity: 0
@61800 Channel: 9 Note on, C2 key =  36 ; velocity: 0
@61800 Channel: 9 Note on, D2 key =  38 ; velocity: 127
@61800 Channel: 9 Note on, F#2 key =  42 ; velocity: 127
@61920 Channel: 9 Note on, D2 key =  38 ; velocity: 0
@61920 Channel: 9 Note on, F#2 key =  42 ; velocity: 0
@61920 Channel: 9 Note on, C2 key =  36 ; velocity: 127
@61920 Channel: 9 Note on, F#2 key =  42 ; velocity: 127
@61980 Channel: 9 Note on, C2 key =  36 ; velocity: 0
@61980 Channel: 9 Note on, C2 key =  36 ; velocity: 127
@62040 Channel: 9 Note on, F#2 key =  42 ; velocity: 0
@62040 Channel: 9 Note on, C2 key =  36 ; velocity: 0
@62040 Channel: 9 Note on, D2 key =  38 ; velocity: 127
@62040 Channel: 9 Note on, F#2 key =  42 ; velocity: 127
@62160 Channel: 9 Note on, D2 key =  38 ; velocity: 0
@62160 Channel: 9 Note on, F#2 key =  42 ; velocity: 0
@62160 Channel: 9 Note on, C2 key =  36 ; velocity: 127
@62160 Channel: 9 Note on, F#2 key =  42 ; velocity: 127
@62220 Channel: 9 Note on, C2 key =  36 ; velocity: 0
@62220 Channel: 9 Note on, C2 key =  36 ; velocity: 127
@62280 Channel: 9 Note on, F#2 key =  42 ; velocity: 0
@62280 Channel: 9 Note on, C2 key =  36 ; velocity: 0
@62280 Channel: 9 Note on, D2 key =  38 ; velocity: 127
@62280 Channel: 9 Note on, F#2 key =  42 ; velocity: 127
@62400 Channel: 9 Note on, D2 key =  38 ; velocity: 0
@62400 Channel: 9 Note on, F#2 key =  42 ; velocity: 0
@62400 Channel: 9 Note on, C2 key =  36 ; velocity: 127
@62400 Channel: 9 Note on, F#2 key =  42 ; velocity: 127
@62460 Channel: 9 Note on, C2 key =  36 ; velocity: 0
@62460 Channel: 9 Note on, C2 key =  36 ; velocity: 127
@62520 Channel: 9 Note on, F#2 key =  42 ; velocity: 0
@62520 Channel: 9 Note on, C2 key =  36 ; velocity: 0
@62520 Channel: 9 Note on, D2 key =  38 ; velocity: 127
@62520 Channel: 9 Note on, F#2 key =  42 ; velocity: 127
@62640 Channel: 9 Note on, D2 key =  38 ; velocity: 0
@62640 Channel: 9 Note on, F#2 key =  42 ; velocity: 0
@62640 Channel: 9 Note on, C2 key =  36 ; velocity: 127
@62640 Channel: 9 Note on, F#2 key =  42 ; velocity: 127
@62700 Channel: 9 Note on, C2 key =  36 ; velocity: 0
@62700 Channel: 9 Note on, C2 key =  36 ; velocity: 127
@62760 Channel: 9 Note on, F#2 key =  42 ; velocity: 0
@62760 Channel: 9 Note on, C2 key =  36 ; velocity: 0
@62760 Channel: 9 Note on, D2 key =  38 ; velocity: 127
@62760 Channel: 9 Note on, F#2 key =  42 ; velocity: 127
@62880 Channel: 9 Note on, D2 key =  38 ; velocity: 0
@62880 Channel: 9 Note on, F#2 key =  42 ; velocity: 0
@62880 Channel: 9 Note on, D2 key =  38 ; velocity: 127
@62880 Channel: 9 Note on, C2 key =  36 ; velocity: 127
@62910 Channel: 9 Note on, D2 key =  38 ; velocity: 0
@62910 Channel: 9 Note on, D2 key =  38 ; velocity: 127
@62940 Channel: 9 Note on, D2 key =  38 ; velocity: 0
@62940 Channel: 9 Note on, D2 key =  38 ; velocity: 127
@62970 Channel: 9 Note on, D2 key =  38 ; velocity: 0
@62970 Channel: 9 Note on, D2 key =  38 ; velocity: 127
@63000 Channel: 9 Note on, C2 key =  36 ; velocity: 0
@63000 Channel: 9 Note on, D2 key =  38 ; velocity: 0
@63000 Channel: 9 Note on, A2 key =  45 ; velocity: 127
@63000 Channel: 9 Note on, C2 key =  36 ; velocity: 127
@63030 Channel: 9 Note on, A2 key =  45 ; velocity: 0
@63030 Channel: 9 Note on, A2 key =  45 ; velocity: 127
@63060 Channel: 9 Note on, A2 key =  45 ; velocity: 0
@63060 Channel: 9 Note on, A2 key =  45 ; velocity: 127
@63090 Channel: 9 Note on, A2 key =  45 ; velocity: 0
@63090 Channel: 9 Note on, A2 key =  45 ; velocity: 127
@63120 Channel: 9 Note on, C2 key =  36 ; velocity: 0
@63120 Channel: 9 Note on, A2 key =  45 ; velocity: 0
@63120 Channel: 9 Note on, B2 key =  47 ; velocity: 127
@63120 Channel: 9 Note on, C2 key =  36 ; velocity: 127
@63150 Channel: 9 Note on, B2 key =  47 ; velocity: 0
@63150 Channel: 9 Note on, B2 key =  47 ; velocity: 127
@63180 Channel: 9 Note on, B2 key =  47 ; velocity: 0
@63180 Channel: 9 Note on, B2 key =  47 ; velocity: 127
@63210 Channel: 9 Note on, B2 key =  47 ; velocity: 0
@63210 Channel: 9 Note on, B2 key =  47 ; velocity: 127
@63240 Channel: 9 Note on, C2 key =  36 ; velocity: 0
@63240 Channel: 9 Note on, B2 key =  47 ; velocity: 0
@63240 Channel: 9 Note on, C3 key =  48 ; velocity: 127
@63240 Channel: 9 Note on, C2 key =  36 ; velocity: 127
@63270 Channel: 9 Note on, C3 key =  48 ; velocity: 0
@63270 Channel: 9 Note on, C3 key =  48 ; velocity: 127
@63300 Channel: 9 Note on, C3 key =  48 ; velocity: 0
@63300 Channel: 9 Note on, C3 key =  48 ; velocity: 127
@63330 Channel: 9 Note on, C3 key =  48 ; velocity: 0
@63330 Channel: 9 Note on, C3 key =  48 ; velocity: 127
@63360 Channel: 9 Note on, C2 key =  36 ; velocity: 0
@63360 Channel: 9 Note on, C3 key =  48 ; velocity: 0
@63360 Channel: 9 Note on, C2 key =  36 ; velocity: 127
@63360 Channel: 9 Note on, A3 key =  57 ; velocity: 127
@63480 Channel: 9 Note on, C2 key =  36 ; velocity: 0
@63480 Channel: 9 Note on, A3 key =  57 ; velocity: 0
@63480 Channel: 9 Note on, D2 key =  38 ; velocity: 127
@63480 Channel: 9 Note on, F#2 key =  42 ; velocity: 127
@63600 Channel: 9 Note on, D2 key =  38 ; velocity: 0
@63600 Channel: 9 Note on, F#2 key =  42 ; velocity: 0
@63600 Channel: 9 Note on, C2 key =  36 ; velocity: 127
@63600 Channel: 9 Note on, F#2 key =  42 ; velocity: 127
@63660 Channel: 9 Note on, C2 key =  36 ; velocity: 0
@63660 Channel: 9 Note on, C2 key =  36 ; velocity: 127
@63720 Channel: 9 Note on, F#2 key =  42 ; velocity: 0
@63720 Channel: 9 Note on, C2 key =  36 ; velocity: 0
@63720 Channel: 9 Note on, D2 key =  38 ; velocity: 127
@63720 Channel: 9 Note on, F#2 key =  42 ; velocity: 127
@63840 Channel: 9 Note on, D2 key =  38 ; velocity: 0
@63840 Channel: 9 Note on, F#2 key =  42 ; velocity: 0
@63840 Channel: 9 Note on, C2 key =  36 ; velocity: 127
@63840 Channel: 9 Note on, A3 key =  57 ; velocity: 127
@63960 Channel: 9 Note on, C2 key =  36 ; velocity: 0
@63960 Channel: 9 Note on, A3 key =  57 ; velocity: 0
@63960 Channel: 9 Note on, D2 key =  38 ; velocity: 127
@63960 Channel: 9 Note on, F#2 key =  42 ; velocity: 127
@64020 Channel: 9 Note on, D2 key =  38 ; velocity: 0
@64020 Channel: 9 Note on, F#2 key =  42 ; velocity: 0
@64020 Channel: 9 Note on, A2 key =  45 ; velocity: 127
@64080 Channel: 9 Note on, A2 key =  45 ; velocity: 0
@64080 Channel: 9 Note on, B2 key =  47 ; velocity: 127
@64140 Channel: 9 Note on, B2 key =  47 ; velocity: 0
@64140 Channel: 9 Note on, B2 key =  47 ; velocity: 127
@64200 Channel: 9 Note on, B2 key =  47 ; velocity: 0
@64200 Channel: 9 Note on, B2 key =  47 ; velocity: 127
@64320 Channel: 9 Note on, B2 key =  47 ; velocity: 0
@64320 Channel: 9 Note on, C2 key =  36 ; velocity: 127
@64320 Channel: 9 Note on, A3 key =  57 ; velocity: 127
@64440 Channel: 9 Note on, C2 key =  36 ; velocity: 0
@64440 Channel: 9 Note on, A3 key =  57 ; velocity: 0
@64440 Channel: 9 Note on, D2 key =  38 ; velocity: 127
@64440 Channel: 9 Note on, F#2 key =  42 ; velocity: 127
@64560 Channel: 9 Note on, D2 key =  38 ; velocity: 0
@64560 Channel: 9 Note on, F#2 key =  42 ; velocity: 0
@64560 Channel: 9 Note on, C2 key =  36 ; velocity: 127
@64560 Channel: 9 Note on, F#2 key =  42 ; velocity: 127
@64620 Channel: 9 Note on, C2 key =  36 ; velocity: 0
@64620 Channel: 9 Note on, C2 key =  36 ; velocity: 127
@64680 Channel: 9 Note on, F#2 key =  42 ; velocity: 0
@64680 Channel: 9 Note on, C2 key =  36 ; velocity: 0
@64680 Channel: 9 Note on, D2 key =  38 ; velocity: 127
@64680 Channel: 9 Note on, F#2 key =  42 ; velocity: 127
@64800 Channel: 9 Note on, D2 key =  38 ; velocity: 0
@64800 Channel: 9 Note on, F#2 key =  42 ; velocity: 0
@64800 Channel: 9 Note on, F#2 key =  42 ; velocity: 127
@64800 Channel: 9 Note on, C2 key =  36 ; velocity: 127
@64860 Channel: 9 Note on, C2 key =  36 ; velocity: 0
@64860 Channel: 9 Note on, C2 key =  36 ; velocity: 127
@64920 Channel: 9 Note on, F#2 key =  42 ; velocity: 0
@64920 Channel: 9 Note on, C2 key =  36 ; velocity: 0
@64920 Channel: 9 Note on, D2 key =  38 ; velocity: 127
@64920 Channel: 9 Note on, F#2 key =  42 ; velocity: 127
@65040 Channel: 9 Note on, D2 key =  38 ; velocity: 0
@65040 Channel: 9 Note on, F#2 key =  42 ; velocity: 0
@65040 Channel: 9 Note on, F#2 key =  42 ; velocity: 127
@65040 Channel: 9 Note on, C2 key =  36 ; velocity: 127
@65100 Channel: 9 Note on, C2 key =  36 ; velocity: 0
@65100 Channel: 9 Note on, C2 key =  36 ; velocity: 127
@65160 Channel: 9 Note on, F#2 key =  42 ; velocity: 0
@65160 Channel: 9 Note on, C2 key =  36 ; velocity: 0
@65160 Channel: 9 Note on, D2 key =  38 ; velocity: 127
@65160 Channel: 9 Note on, F#2 key =  42 ; velocity: 127
@65280 Channel: 9 Note on, D2 key =  38 ; velocity: 0
@65280 Channel: 9 Note on, F#2 key =  42 ; velocity: 0
@65280 Channel: 9 Note on, C2 key =  36 ; velocity: 127
@65280 Channel: 9 Note on, A3 key =  57 ; velocity: 127
@65400 Channel: 9 Note on, C2 key =  36 ; velocity: 0
@65400 Channel: 9 Note on, A3 key =  57 ; velocity: 0
@65400 Channel: 9 Note on, D2 key =  38 ; velocity: 127
@65400 Channel: 9 Note on, F#2 key =  42 ; velocity: 127
@65520 Channel: 9 Note on, D2 key =  38 ; velocity: 0
@65520 Channel: 9 Note on, F#2 key =  42 ; velocity: 0
@65520 Channel: 9 Note on, C2 key =  36 ; velocity: 127
@65520 Channel: 9 Note on, F#2 key =  42 ; velocity: 127
@65580 Channel: 9 Note on, C2 key =  36 ; velocity: 0
@65580 Channel: 9 Note on, C2 key =  36 ; velocity: 127
@65640 Channel: 9 Note on, F#2 key =  42 ; velocity: 0
@65640 Channel: 9 Note on, C2 key =  36 ; velocity: 0
@65640 Channel: 9 Note on, D2 key =  38 ; velocity: 127
@65640 Channel: 9 Note on, F#2 key =  42 ; velocity: 127
@65760 Channel: 9 Note on, D2 key =  38 ; velocity: 0
@65760 Channel: 9 Note on, F#2 key =  42 ; velocity: 0
@65760 Channel: 9 Note on, C2 key =  36 ; velocity: 127
@65760 Channel: 9 Note on, A3 key =  57 ; velocity: 127
@65880 Channel: 9 Note on, C2 key =  36 ; velocity: 0
@65880 Channel: 9 Note on, A3 key =  57 ; velocity: 0
@65880 Channel: 9 Note on, D2 key =  38 ; velocity: 127
@65880 Channel: 9 Note on, F#2 key =  42 ; velocity: 127
@65940 Channel: 9 Note on, D2 key =  38 ; velocity: 0
@65940 Channel: 9 Note on, F#2 key =  42 ; velocity: 0
@65940 Channel: 9 Note on, A2 key =  45 ; velocity: 127
@66000 Channel: 9 Note on, A2 key =  45 ; velocity: 0
@66000 Channel: 9 Note on, B2 key =  47 ; velocity: 127
@66060 Channel: 9 Note on, B2 key =  47 ; velocity: 0
@66060 Channel: 9 Note on, B2 key =  47 ; velocity: 127
@66120 Channel: 9 Note on, B2 key =  47 ; velocity: 0
@66120 Channel: 9 Note on, B2 key =  47 ; velocity: 127
@66240 Channel: 9 Note on, B2 key =  47 ; velocity: 0
@66240 Channel: 9 Note on, C2 key =  36 ; velocity: 127
@66240 Channel: 9 Note on, A3 key =  57 ; velocity: 127
@66360 Channel: 9 Note on, C2 key =  36 ; velocity: 0
@66360 Channel: 9 Note on, A3 key =  57 ; velocity: 0
@66360 Channel: 9 Note on, D2 key =  38 ; velocity: 127
@66360 Channel: 9 Note on, F#2 key =  42 ; velocity: 127
@66480 Channel: 9 Note on, D2 key =  38 ; velocity: 0
@66480 Channel: 9 Note on, F#2 key =  42 ; velocity: 0
@66480 Channel: 9 Note on, C2 key =  36 ; velocity: 127
@66480 Channel: 9 Note on, F#2 key =  42 ; velocity: 127
@66540 Channel: 9 Note on, C2 key =  36 ; velocity: 0
@66540 Channel: 9 Note on, C2 key =  36 ; velocity: 127
@66600 Channel: 9 Note on, F#2 key =  42 ; velocity: 0
@66600 Channel: 9 Note on, C2 key =  36 ; velocity: 0
@66600 Channel: 9 Note on, D2 key =  38 ; velocity: 127
@66600 Channel: 9 Note on, F#2 key =  42 ; velocity: 127
@66720 Channel: 9 Note on, D2 key =  38 ; velocity: 0
@66720 Channel: 9 Note on, F#2 key =  42 ; velocity: 0
@66720 Channel: 9 Note on, F#2 key =  42 ; velocity: 127
@66720 Channel: 9 Note on, C2 key =  36 ; velocity: 127
@66780 Channel: 9 Note on, C2 key =  36 ; velocity: 0
@66780 Channel: 9 Note on, C2 key =  36 ; velocity: 127
@66840 Channel: 9 Note on, F#2 key =  42 ; velocity: 0
@66840 Channel: 9 Note on, C2 key =  36 ; velocity: 0
@66840 Channel: 9 Note on, D2 key =  38 ; velocity: 127
@66840 Channel: 9 Note on, F#2 key =  42 ; velocity: 127
@66960 Channel: 9 Note on, D2 key =  38 ; velocity: 0
@66960 Channel: 9 Note on, F#2 key =  42 ; velocity: 0
@66960 Channel: 9 Note on, F#2 key =  42 ; velocity: 127
@66960 Channel: 9 Note on, C2 key =  36 ; velocity: 127
@67020 Channel: 9 Note on, C2 key =  36 ; velocity: 0
@67020 Channel: 9 Note on, C2 key =  36 ; velocity: 127
@67080 Channel: 9 Note on, F#2 key =  42 ; velocity: 0
@67080 Channel: 9 Note on, C2 key =  36 ; velocity: 0
@67080 Channel: 9 Note on, D2 key =  38 ; velocity: 127
@67080 Channel: 9 Note on, F#2 key =  42 ; velocity: 127
@67200 Channel: 9 Note on, D2 key =  38 ; velocity: 0
@67200 Channel: 9 Note on, F#2 key =  42 ; velocity: 0
@67200 Channel: 9 Note on, C2 key =  36 ; velocity: 127
@67200 Channel: 9 Note on, A3 key =  57 ; velocity: 127
@67320 Channel: 9 Note on, C2 key =  36 ; velocity: 0
@67320 Channel: 9 Note on, A3 key =  57 ; velocity: 0
@67320 Channel: 9 Note on, D2 key =  38 ; velocity: 127
@67320 Channel: 9 Note on, F#2 key =  42 ; velocity: 127
@67440 Channel: 9 Note on, D2 key =  38 ; velocity: 0
@67440 Channel: 9 Note on, F#2 key =  42 ; velocity: 0
@67440 Channel: 9 Note on, C2 key =  36 ; velocity: 127
@67440 Channel: 9 Note on, F#2 key =  42 ; velocity: 127
@67500 Channel: 9 Note on, C2 key =  36 ; velocity: 0
@67500 Channel: 9 Note on, C2 key =  36 ; velocity: 127
@67560 Channel: 9 Note on, F#2 key =  42 ; velocity: 0
@67560 Channel: 9 Note on, C2 key =  36 ; velocity: 0
@67560 Channel: 9 Note on, D2 key =  38 ; velocity: 127
@67560 Channel: 9 Note on, F#2 key =  42 ; velocity: 127
@67680 Channel: 9 Note on, D2 key =  38 ; velocity: 0
@67680 Channel: 9 Note on, F#2 key =  42 ; velocity: 0
@67680 Channel: 9 Note on, C2 key =  36 ; velocity: 127
@67680 Channel: 9 Note on, A3 key =  57 ; velocity: 127
@67800 Channel: 9 Note on, C2 key =  36 ; velocity: 0
@67800 Channel: 9 Note on, A3 key =  57 ; velocity: 0
@67800 Channel: 9 Note on, D2 key =  38 ; velocity: 127
@67800 Channel: 9 Note on, F#2 key =  42 ; velocity: 127
@67860 Channel: 9 Note on, D2 key =  38 ; velocity: 0
@67860 Channel: 9 Note on, F#2 key =  42 ; velocity: 0
@67860 Channel: 9 Note on, A2 key =  45 ; velocity: 127
@67920 Channel: 9 Note on, A2 key =  45 ; velocity: 0
@67920 Channel: 9 Note on, B2 key =  47 ; velocity: 127
@67980 Channel: 9 Note on, B2 key =  47 ; velocity: 0
@67980 Channel: 9 Note on, B2 key =  47 ; velocity: 127
@68040 Channel: 9 Note on, B2 key =  47 ; velocity: 0
@68040 Channel: 9 Note on, B2 key =  47 ; velocity: 127
@68160 Channel: 9 Note on, B2 key =  47 ; velocity: 0
@68160 Channel: 9 Note on, C2 key =  36 ; velocity: 127
@68160 Channel: 9 Note on, A3 key =  57 ; velocity: 127
@68280 Channel: 9 Note on, C2 key =  36 ; velocity: 0
@68280 Channel: 9 Note on, A3 key =  57 ; velocity: 0
@68280 Channel: 9 Note on, D2 key =  38 ; velocity: 127
@68280 Channel: 9 Note on, F#2 key =  42 ; velocity: 127
@68400 Channel: 9 Note on, D2 key =  38 ; velocity: 0
@68400 Channel: 9 Note on, F#2 key =  42 ; velocity: 0
@68400 Channel: 9 Note on, C2 key =  36 ; velocity: 127
@68400 Channel: 9 Note on, F#2 key =  42 ; velocity: 127
@68460 Channel: 9 Note on, C2 key =  36 ; velocity: 0
@68460 Channel: 9 Note on, C2 key =  36 ; velocity: 127
@68520 Channel: 9 Note on, F#2 key =  42 ; velocity: 0
@68520 Channel: 9 Note on, C2 key =  36 ; velocity: 0
@68520 Channel: 9 Note on, D2 key =  38 ; velocity: 127
@68520 Channel: 9 Note on, F#2 key =  42 ; velocity: 127
@68640 Channel: 9 Note on, D2 key =  38 ; velocity: 0
@68640 Channel: 9 Note on, F#2 key =  42 ; velocity: 0
@68640 Channel: 9 Note on, F#2 key =  42 ; velocity: 127
@68640 Channel: 9 Note on, C2 key =  36 ; velocity: 127
@68700 Channel: 9 Note on, C2 key =  36 ; velocity: 0
@68700 Channel: 9 Note on, C2 key =  36 ; velocity: 127
@68760 Channel: 9 Note on, F#2 key =  42 ; velocity: 0
@68760 Channel: 9 Note on, C2 key =  36 ; velocity: 0
@68760 Channel: 9 Note on, D2 key =  38 ; velocity: 127
@68760 Channel: 9 Note on, F#2 key =  42 ; velocity: 127
@68880 Channel: 9 Note on, D2 key =  38 ; velocity: 0
@68880 Channel: 9 Note on, F#2 key =  42 ; velocity: 0
@68880 Channel: 9 Note on, F#2 key =  42 ; velocity: 127
@68880 Channel: 9 Note on, C2 key =  36 ; velocity: 127
@68940 Channel: 9 Note on, C2 key =  36 ; velocity: 0
@68940 Channel: 9 Note on, C2 key =  36 ; velocity: 127
@69000 Channel: 9 Note on, F#2 key =  42 ; velocity: 0
@69000 Channel: 9 Note on, C2 key =  36 ; velocity: 0
@69000 Channel: 9 Note on, D2 key =  38 ; velocity: 127
@69000 Channel: 9 Note on, F#2 key =  42 ; velocity: 127
@69120 Channel: 9 Note on, D2 key =  38 ; velocity: 0
@69120 Channel: 9 Note on, F#2 key =  42 ; velocity: 0
@69120 Channel: 9 Note on, C2 key =  36 ; velocity: 127
@69120 Channel: 9 Note on, A3 key =  57 ; velocity: 127
@69240 Channel: 9 Note on, C2 key =  36 ; velocity: 0
@69240 Channel: 9 Note on, A3 key =  57 ; velocity: 0
@69240 Channel: 9 Note on, D2 key =  38 ; velocity: 127
@69240 Channel: 9 Note on, F#2 key =  42 ; velocity: 127
@69360 Channel: 9 Note on, D2 key =  38 ; velocity: 0
@69360 Channel: 9 Note on, F#2 key =  42 ; velocity: 0
@69360 Channel: 9 Note on, C2 key =  36 ; velocity: 127
@69360 Channel: 9 Note on, F#2 key =  42 ; velocity: 127
@69420 Channel: 9 Note on, C2 key =  36 ; velocity: 0
@69420 Channel: 9 Note on, C2 key =  36 ; velocity: 127
@69480 Channel: 9 Note on, F#2 key =  42 ; velocity: 0
@69480 Channel: 9 Note on, C2 key =  36 ; velocity: 0
@69480 Channel: 9 Note on, D2 key =  38 ; velocity: 127
@69480 Channel: 9 Note on, F#2 key =  42 ; velocity: 127
@69600 Channel: 9 Note on, D2 key =  38 ; velocity: 0
@69600 Channel: 9 Note on, F#2 key =  42 ; velocity: 0
@69600 Channel: 9 Note on, C2 key =  36 ; velocity: 127
@69600 Channel: 9 Note on, A3 key =  57 ; velocity: 127
@69720 Channel: 9 Note on, C2 key =  36 ; velocity: 0
@69720 Channel: 9 Note on, A3 key =  57 ; velocity: 0
@69720 Channel: 9 Note on, D2 key =  38 ; velocity: 127
@69720 Channel: 9 Note on, F#2 key =  42 ; velocity: 127
@69780 Channel: 9 Note on, D2 key =  38 ; velocity: 0
@69780 Channel: 9 Note on, F#2 key =  42 ; velocity: 0
@69780 Channel: 9 Note on, A2 key =  45 ; velocity: 127
@69840 Channel: 9 Note on, A2 key =  45 ; velocity: 0
@69840 Channel: 9 Note on, B2 key =  47 ; velocity: 127
@69900 Channel: 9 Note on, B2 key =  47 ; velocity: 0
@69900 Channel: 9 Note on, B2 key =  47 ; velocity: 127
@69960 Channel: 9 Note on, B2 key =  47 ; velocity: 0
@69960 Channel: 9 Note on, B2 key =  47 ; velocity: 127
@70080 Channel: 9 Note on, B2 key =  47 ; velocity: 0
@70080 Channel: 9 Note on, C2 key =  36 ; velocity: 127
@70080 Channel: 9 Note on, A3 key =  57 ; velocity: 127
@70200 Channel: 9 Note on, C2 key =  36 ; velocity: 0
@70200 Channel: 9 Note on, A3 key =  57 ; velocity: 0
@70200 Channel: 9 Note on, D2 key =  38 ; velocity: 127
@70200 Channel: 9 Note on, F#2 key =  42 ; velocity: 127
@70320 Channel: 9 Note on, D2 key =  38 ; velocity: 0
@70320 Channel: 9 Note on, F#2 key =  42 ; velocity: 0
@70320 Channel: 9 Note on, C2 key =  36 ; velocity: 127
@70320 Channel: 9 Note on, F#2 key =  42 ; velocity: 127
@70380 Channel: 9 Note on, C2 key =  36 ; velocity: 0
@70380 Channel: 9 Note on, C2 key =  36 ; velocity: 127
@70440 Channel: 9 Note on, F#2 key =  42 ; velocity: 0
@70440 Channel: 9 Note on, C2 key =  36 ; velocity: 0
@70440 Channel: 9 Note on, D2 key =  38 ; velocity: 127
@70440 Channel: 9 Note on, F#2 key =  42 ; velocity: 127
@70560 Channel: 9 Note on, D2 key =  38 ; velocity: 0
@70560 Channel: 9 Note on, F#2 key =  42 ; velocity: 0
@70560 Channel: 9 Note on, F#2 key =  42 ; velocity: 127
@70560 Channel: 9 Note on, C2 key =  36 ; velocity: 127
@70680 Channel: 9 Note on, F#2 key =  42 ; velocity: 0
@70680 Channel: 9 Note on, C2 key =  36 ; velocity: 0
@70680 Channel: 9 Note on, D2 key =  38 ; velocity: 127
@70680 Channel: 9 Note on, F#2 key =  42 ; velocity: 127
@70800 Channel: 9 Note on, D2 key =  38 ; velocity: 0
@70800 Channel: 9 Note on, F#2 key =  42 ; velocity: 0
@70800 Channel: 9 Note on, F#2 key =  42 ; velocity: 127
@70800 Channel: 9 Note on, C2 key =  36 ; velocity: 127
@70860 Channel: 9 Note on, C2 key =  36 ; velocity: 0
@70860 Channel: 9 Note on, C2 key =  36 ; velocity: 127
@70920 Channel: 9 Note on, F#2 key =  42 ; velocity: 0
@70920 Channel: 9 Note on, C2 key =  36 ; velocity: 0
@70920 Channel: 9 Note on, D2 key =  38 ; velocity: 127
@70920 Channel: 9 Note on, F#2 key =  42 ; velocity: 127
@71040 Channel: 9 Note on, D2 key =  38 ; velocity: 0
@71040 Channel: 9 Note on, F#2 key =  42 ; velocity: 0
@71040 Channel: 9 Note on, C2 key =  36 ; velocity: 127
@71040 Channel: 9 Note on, F#2 key =  42 ; velocity: 127
@71160 Channel: 9 Note on, C2 key =  36 ; velocity: 0
@71160 Channel: 9 Note on, F#2 key =  42 ; velocity: 0
@71160 Channel: 9 Note on, D2 key =  38 ; velocity: 127
@71160 Channel: 9 Note on, F#2 key =  42 ; velocity: 127
@71280 Channel: 9 Note on, D2 key =  38 ; velocity: 0
@71280 Channel: 9 Note on, F#2 key =  42 ; velocity: 0
@71280 Channel: 9 Note on, F#2 key =  42 ; velocity: 127
@71280 Channel: 9 Note on, C2 key =  36 ; velocity: 127
@71340 Channel: 9 Note on, C2 key =  36 ; velocity: 0
@71340 Channel: 9 Note on, C2 key =  36 ; velocity: 127
@71400 Channel: 9 Note on, F#2 key =  42 ; velocity: 0
@71400 Channel: 9 Note on, C2 key =  36 ; velocity: 0
@71400 Channel: 9 Note on, D2 key =  38 ; velocity: 127
@71400 Channel: 9 Note on, F#2 key =  42 ; velocity: 127
@71520 Channel: 9 Note on, D2 key =  38 ; velocity: 0
@71520 Channel: 9 Note on, F#2 key =  42 ; velocity: 0
@71520 Channel: 9 Note on, F#2 key =  42 ; velocity: 127
@71520 Channel: 9 Note on, C2 key =  36 ; velocity: 127
@71580 Channel: 9 Note on, C2 key =  36 ; velocity: 0
@71580 Channel: 9 Note on, C2 key =  36 ; velocity: 127
@71610 Channel: 9 Note on, C2 key =  36 ; velocity: 0
@71610 Channel: 9 Note on, C2 key =  36 ; velocity: 127
@71640 Channel: 9 Note on, F#2 key =  42 ; velocity: 0
@71640 Channel: 9 Note on, C2 key =  36 ; velocity: 0
@71640 Channel: 9 Note on, D2 key =  38 ; velocity: 127
@71640 Channel: 9 Note on, A3 key =  57 ; velocity: 127
@71760 Channel: 9 Note on, D2 key =  38 ; velocity: 0
@71760 Channel: 9 Note on, A3 key =  57 ; velocity: 0
@71760 Channel: 9 Note on, F#2 key =  42 ; velocity: 127
@71820 Channel: 9 Note on, C2 key =  36 ; velocity: 127
@71840 Channel: 9 Note on, C2 key =  36 ; velocity: 0
@71840 Channel: 9 Note on, C2 key =  36 ; velocity: 127
@71860 Channel: 9 Note on, C2 key =  36 ; velocity: 0
@71860 Channel: 9 Note on, C2 key =  36 ; velocity: 127
@71880 Channel: 9 Note on, F#2 key =  42 ; velocity: 0
@71880 Channel: 9 Note on, C2 key =  36 ; velocity: 0
@71880 Channel: 9 Note on, D2 key =  38 ; velocity: 127
@71880 Channel: 9 Note on, A3 key =  57 ; velocity: 127
@72000 Channel: 9 Note on, D2 key =  38 ; velocity: 0
@72000 Channel: 9 Note on, A3 key =  57 ; velocity: 0
@72000 Channel: 9 Note on, A3 key =  57 ; velocity: 127
@72000 Channel: 9 Note on, C2 key =  36 ; velocity: 127
@72120 Channel: 9 Note on, A3 key =  57 ; velocity: 0
@72120 Channel: 9 Note on, C2 key =  36 ; velocity: 0
@72120 Channel: 9 Note on, D2 key =  38 ; velocity: 127
@72120 Channel: 9 Note on, F#2 key =  42 ; velocity: 127
@72240 Channel: 9 Note on, D2 key =  38 ; velocity: 0
@72240 Channel: 9 Note on, F#2 key =  42 ; velocity: 0
@72240 Channel: 9 Note on, C2 key =  36 ; velocity: 127
@72240 Channel: 9 Note on, F#2 key =  42 ; velocity: 127
@72300 Channel: 9 Note on, C2 key =  36 ; velocity: 0
@72300 Channel: 9 Note on, C2 key =  36 ; velocity: 127
@72360 Channel: 9 Note on, F#2 key =  42 ; velocity: 0
@72360 Channel: 9 Note on, C2 key =  36 ; velocity: 0
@72360 Channel: 9 Note on, D2 key =  38 ; velocity: 127
@72360 Channel: 9 Note on, F#2 key =  42 ; velocity: 127
@72480 Channel: 9 Note on, D2 key =  38 ; velocity: 0
@72480 Channel: 9 Note on, F#2 key =  42 ; velocity: 0
@72480 Channel: 9 Note on, C2 key =  36 ; velocity: 127
@72480 Channel: 9 Note on, F#2 key =  42 ; velocity: 127
@72600 Channel: 9 Note on, C2 key =  36 ; velocity: 0
@72600 Channel: 9 Note on, F#2 key =  42 ; velocity: 0
@72600 Channel: 9 Note on, D2 key =  38 ; velocity: 127
@72600 Channel: 9 Note on, F#2 key =  42 ; velocity: 127
@72720 Channel: 9 Note on, D2 key =  38 ; velocity: 0
@72720 Channel: 9 Note on, F#2 key =  42 ; velocity: 0
@72720 Channel: 9 Note on, F#2 key =  42 ; velocity: 127
@72720 Channel: 9 Note on, C2 key =  36 ; velocity: 127
@72780 Channel: 9 Note on, C2 key =  36 ; velocity: 0
@72780 Channel: 9 Note on, C2 key =  36 ; velocity: 127
@72840 Channel: 9 Note on, F#2 key =  42 ; velocity: 0
@72840 Channel: 9 Note on, C2 key =  36 ; velocity: 0
@72840 Channel: 9 Note on, D2 key =  38 ; velocity: 127
@72840 Channel: 9 Note on, F#2 key =  42 ; velocity: 127
@72960 Channel: 9 Note on, D2 key =  38 ; velocity: 0
@72960 Channel: 9 Note on, F#2 key =  42 ; velocity: 0
@72960 Channel: 9 Note on, C2 key =  36 ; velocity: 127
@72960 Channel: 9 Note on, F#2 key =  42 ; velocity: 127
@73080 Channel: 9 Note on, C2 key =  36 ; velocity: 0
@73080 Channel: 9 Note on, F#2 key =  42 ; velocity: 0
@73080 Channel: 9 Note on, D2 key =  38 ; velocity: 127
@73080 Channel: 9 Note on, F#2 key =  42 ; velocity: 127
@73200 Channel: 9 Note on, D2 key =  38 ; velocity: 0
@73200 Channel: 9 Note on, F#2 key =  42 ; velocity: 0
@73200 Channel: 9 Note on, F#2 key =  42 ; velocity: 127
@73200 Channel: 9 Note on, C2 key =  36 ; velocity: 127
@73260 Channel: 9 Note on, C2 key =  36 ; velocity: 0
@73260 Channel: 9 Note on, C2 key =  36 ; velocity: 127
@73290 Channel: 9 Note on, C2 key =  36 ; velocity: 0
@73290 Channel: 9 Note on, C2 key =  36 ; velocity: 127
@73320 Channel: 9 Note on, F#2 key =  42 ; velocity: 0
@73320 Channel: 9 Note on, C2 key =  36 ; velocity: 0
@73320 Channel: 9 Note on, D2 key =  38 ; velocity: 127
@73320 Channel: 9 Note on, F#2 key =  42 ; velocity: 127
@73440 Channel: 9 Note on, D2 key =  38 ; velocity: 0
@73440 Channel: 9 Note on, F#2 key =  42 ; velocity: 0
@73440 Channel: 9 Note on, F#2 key =  42 ; velocity: 127
@73440 Channel: 9 Note on, C2 key =  36 ; velocity: 127
@73500 Channel: 9 Note on, C2 key =  36 ; velocity: 0
@73500 Channel: 9 Note on, C2 key =  36 ; velocity: 127
@73530 Channel: 9 Note on, C2 key =  36 ; velocity: 0
@73530 Channel: 9 Note on, C2 key =  36 ; velocity: 127
@73560 Channel: 9 Note on, F#2 key =  42 ; velocity: 0
@73560 Channel: 9 Note on, C2 key =  36 ; velocity: 0
@73560 Channel: 9 Note on, D2 key =  38 ; velocity: 127
@73560 Channel: 9 Note on, A3 key =  57 ; velocity: 127
@73680 Channel: 9 Note on, D2 key =  38 ; velocity: 0
@73680 Channel: 9 Note on, A3 key =  57 ; velocity: 0
@73680 Channel: 9 Note on, F#2 key =  42 ; velocity: 127
@73740 Channel: 9 Note on, C2 key =  36 ; velocity: 127
@73760 Channel: 9 Note on, C2 key =  36 ; velocity: 0
@73760 Channel: 9 Note on, C2 key =  36 ; velocity: 127
@73780 Channel: 9 Note on, C2 key =  36 ; velocity: 0
@73780 Channel: 9 Note on, C2 key =  36 ; velocity: 127
@73800 Channel: 9 Note on, F#2 key =  42 ; velocity: 0
@73800 Channel: 9 Note on, C2 key =  36 ; velocity: 0
@73800 Channel: 9 Note on, D2 key =  38 ; velocity: 127
@73800 Channel: 9 Note on, A3 key =  57 ; velocity: 127
@73920 Channel: 9 Note on, D2 key =  38 ; velocity: 0
@73920 Channel: 9 Note on, A3 key =  57 ; velocity: 0
@73920 Channel: 9 Note on, A3 key =  57 ; velocity: 127
@73920 Channel: 9 Note on, C2 key =  36 ; velocity: 127
@74040 Channel: 9 Note on, A3 key =  57 ; velocity: 0
@74040 Channel: 9 Note on, C2 key =  36 ; velocity: 0
@74040 Channel: 9 Note on, D2 key =  38 ; velocity: 127
@74040 Channel: 9 Note on, F#2 key =  42 ; velocity: 127
@74160 Channel: 9 Note on, D2 key =  38 ; velocity: 0
@74160 Channel: 9 Note on, F#2 key =  42 ; velocity: 0
@74160 Channel: 9 Note on, C2 key =  36 ; velocity: 127
@74160 Channel: 9 Note on, F#2 key =  42 ; velocity: 127
@74220 Channel: 9 Note on, C2 key =  36 ; velocity: 0
@74220 Channel: 9 Note on, C2 key =  36 ; velocity: 127
@74280 Channel: 9 Note on, F#2 key =  42 ; velocity: 0
@74280 Channel: 9 Note on, C2 key =  36 ; velocity: 0
@74280 Channel: 9 Note on, D2 key =  38 ; velocity: 127
@74280 Channel: 9 Note on, F#2 key =  42 ; velocity: 127
@74400 Channel: 9 Note on, D2 key =  38 ; velocity: 0
@74400 Channel: 9 Note on, F#2 key =  42 ; velocity: 0
@74400 Channel: 9 Note on, C2 key =  36 ; velocity: 127
@74400 Channel: 9 Note on, F#2 key =  42 ; velocity: 127
@74520 Channel: 9 Note on, C2 key =  36 ; velocity: 0
@74520 Channel: 9 Note on, F#2 key =  42 ; velocity: 0
@74520 Channel: 9 Note on, D2 key =  38 ; velocity: 127
@74520 Channel: 9 Note on, F#2 key =  42 ; velocity: 127
@74640 Channel: 9 Note on, D2 key =  38 ; velocity: 0
@74640 Channel: 9 Note on, F#2 key =  42 ; velocity: 0
@74640 Channel: 9 Note on, F#2 key =  42 ; velocity: 127
@74640 Channel: 9 Note on, C2 key =  36 ; velocity: 127
@74700 Channel: 9 Note on, C2 key =  36 ; velocity: 0
@74700 Channel: 9 Note on, C2 key =  36 ; velocity: 127
@74760 Channel: 9 Note on, F#2 key =  42 ; velocity: 0
@74760 Channel: 9 Note on, C2 key =  36 ; velocity: 0
@74760 Channel: 9 Note on, D2 key =  38 ; velocity: 127
@74760 Channel: 9 Note on, F#2 key =  42 ; velocity: 127
@74880 Channel: 9 Note on, D2 key =  38 ; velocity: 0
@74880 Channel: 9 Note on, F#2 key =  42 ; velocity: 0
@74880 Channel: 9 Note on, C2 key =  36 ; velocity: 127
@74880 Channel: 9 Note on, F#2 key =  42 ; velocity: 127
@75000 Channel: 9 Note on, C2 key =  36 ; velocity: 0
@75000 Channel: 9 Note on, F#2 key =  42 ; velocity: 0
@75000 Channel: 9 Note on, D2 key =  38 ; velocity: 127
@75000 Channel: 9 Note on, F#2 key =  42 ; velocity: 127
@75120 Channel: 9 Note on, D2 key =  38 ; velocity: 0
@75120 Channel: 9 Note on, F#2 key =  42 ; velocity: 0
@75120 Channel: 9 Note on, F#2 key =  42 ; velocity: 127
@75120 Channel: 9 Note on, C2 key =  36 ; velocity: 127
@75180 Channel: 9 Note on, C2 key =  36 ; velocity: 0
@75180 Channel: 9 Note on, C2 key =  36 ; velocity: 127
@75240 Channel: 9 Note on, F#2 key =  42 ; velocity: 0
@75240 Channel: 9 Note on, C2 key =  36 ; velocity: 0
@75240 Channel: 9 Note on, D2 key =  38 ; velocity: 127
@75240 Channel: 9 Note on, F#2 key =  42 ; velocity: 127
@75360 Channel: 9 Note on, D2 key =  38 ; velocity: 0
@75360 Channel: 9 Note on, F#2 key =  42 ; velocity: 0
@75360 Channel: 9 Note on, F#2 key =  42 ; velocity: 127
@75360 Channel: 9 Note on, C2 key =  36 ; velocity: 127
@75420 Channel: 9 Note on, C2 key =  36 ; velocity: 0
@75420 Channel: 9 Note on, C2 key =  36 ; velocity: 127
@75450 Channel: 9 Note on, C2 key =  36 ; velocity: 0
@75450 Channel: 9 Note on, C2 key =  36 ; velocity: 127
@75480 Channel: 9 Note on, F#2 key =  42 ; velocity: 0
@75480 Channel: 9 Note on, C2 key =  36 ; velocity: 0
@75480 Channel: 9 Note on, D2 key =  38 ; velocity: 127
@75480 Channel: 9 Note on, A3 key =  57 ; velocity: 127
@75600 Channel: 9 Note on, D2 key =  38 ; velocity: 0
@75600 Channel: 9 Note on, A3 key =  57 ; velocity: 0
@75600 Channel: 9 Note on, F#2 key =  42 ; velocity: 127
@75660 Channel: 9 Note on, C2 key =  36 ; velocity: 127
@75680 Channel: 9 Note on, C2 key =  36 ; velocity: 0
@75680 Channel: 9 Note on, C2 key =  36 ; velocity: 127
@75700 Channel: 9 Note on, C2 key =  36 ; velocity: 0
@75700 Channel: 9 Note on, C2 key =  36 ; velocity: 127
@75720 Channel: 9 Note on, F#2 key =  42 ; velocity: 0
@75720 Channel: 9 Note on, C2 key =  36 ; velocity: 0
@75720 Channel: 9 Note on, D2 key =  38 ; velocity: 127
@75720 Channel: 9 Note on, A3 key =  57 ; velocity: 127
@75840 Channel: 9 Note on, D2 key =  38 ; velocity: 0
@75840 Channel: 9 Note on, A3 key =  57 ; velocity: 0
@75840 Channel: 9 Note on, A3 key =  57 ; velocity: 127
@75840 Channel: 9 Note on, C2 key =  36 ; velocity: 127
@75960 Channel: 9 Note on, A3 key =  57 ; velocity: 0
@75960 Channel: 9 Note on, C2 key =  36 ; velocity: 0
@75960 Channel: 9 Note on, D2 key =  38 ; velocity: 127
@75960 Channel: 9 Note on, F#2 key =  42 ; velocity: 127
@76080 Channel: 9 Note on, D2 key =  38 ; velocity: 0
@76080 Channel: 9 Note on, F#2 key =  42 ; velocity: 0
@76080 Channel: 9 Note on, C2 key =  36 ; velocity: 127
@76080 Channel: 9 Note on, F#2 key =  42 ; velocity: 127
@76140 Channel: 9 Note on, C2 key =  36 ; velocity: 0
@76140 Channel: 9 Note on, C2 key =  36 ; velocity: 127
@76200 Channel: 9 Note on, F#2 key =  42 ; velocity: 0
@76200 Channel: 9 Note on, C2 key =  36 ; velocity: 0
@76200 Channel: 9 Note on, D2 key =  38 ; velocity: 127
@76200 Channel: 9 Note on, F#2 key =  42 ; velocity: 127
@76320 Channel: 9 Note on, D2 key =  38 ; velocity: 0
@76320 Channel: 9 Note on, F#2 key =  42 ; velocity: 0
@76320 Channel: 9 Note on, C2 key =  36 ; velocity: 127
@76320 Channel: 9 Note on, F#2 key =  42 ; velocity: 127
@76440 Channel: 9 Note on, C2 key =  36 ; velocity: 0
@76440 Channel: 9 Note on, F#2 key =  42 ; velocity: 0
@76440 Channel: 9 Note on, D2 key =  38 ; velocity: 127
@76440 Channel: 9 Note on, F#2 key =  42 ; velocity: 127
@76560 Channel: 9 Note on, D2 key =  38 ; velocity: 0
@76560 Channel: 9 Note on, F#2 key =  42 ; velocity: 0
@76560 Channel: 9 Note on, F#2 key =  42 ; velocity: 127
@76560 Channel: 9 Note on, C2 key =  36 ; velocity: 127
@76620 Channel: 9 Note on, C2 key =  36 ; velocity: 0
@76620 Channel: 9 Note on, C2 key =  36 ; velocity: 127
@76680 Channel: 9 Note on, F#2 key =  42 ; velocity: 0
@76680 Channel: 9 Note on, C2 key =  36 ; velocity: 0
@76680 Channel: 9 Note on, D2 key =  38 ; velocity: 127
@76680 Channel: 9 Note on, F#2 key =  42 ; velocity: 127
@76800 Channel: 9 Note on, D2 key =  38 ; velocity: 0
@76800 Channel: 9 Note on, F#2 key =  42 ; velocity: 0
@76800 Channel: 9 Note on, C2 key =  36 ; velocity: 127
@76800 Channel: 9 Note on, F#2 key =  42 ; velocity: 127
@76920 Channel: 9 Note on, C2 key =  36 ; velocity: 0
@76920 Channel: 9 Note on, F#2 key =  42 ; velocity: 0
@76920 Channel: 9 Note on, D2 key =  38 ; velocity: 127
@76920 Channel: 9 Note on, F#2 key =  42 ; velocity: 127
@77040 Channel: 9 Note on, D2 key =  38 ; velocity: 0
@77040 Channel: 9 Note on, F#2 key =  42 ; velocity: 0
@77040 Channel: 9 Note on, C2 key =  36 ; velocity: 127
@77040 Channel: 9 Note on, F#2 key =  42 ; velocity: 127
@77100 Channel: 9 Note on, C2 key =  36 ; velocity: 0
@77100 Channel: 9 Note on, C2 key =  36 ; velocity: 127
@77160 Channel: 9 Note on, F#2 key =  42 ; velocity: 0
@77160 Channel: 9 Note on, C2 key =  36 ; velocity: 0
@77160 Channel: 9 Note on, D2 key =  38 ; velocity: 127
@77160 Channel: 9 Note on, F#2 key =  42 ; velocity: 127
@77280 Channel: 9 Note on, D2 key =  38 ; velocity: 0
@77280 Channel: 9 Note on, F#2 key =  42 ; velocity: 0
@77280 Channel: 9 Note on, C2 key =  36 ; velocity: 127
@77280 Channel: 9 Note on, A3 key =  57 ; velocity: 127
@77400 Channel: 9 Note on, C2 key =  36 ; velocity: 0
@77400 Channel: 9 Note on, A3 key =  57 ; velocity: 0
@77460 Channel: 9 Note on, D2 key =  38 ; velocity: 127
@77520 Channel: 9 Note on, D2 key =  38 ; velocity: 0
@77640 Channel: 9 Note on, D2 key =  38 ; velocity: 127
@77760 Channel: 9 Note on, D2 key =  38 ; velocity: 0
@77760 Channel: 9 Note on, C2 key =  36 ; velocity: 127
@77760 Channel: 9 Note on, A3 key =  57 ; velocity: 127
@77880 Channel: 9 Note on, C2 key =  36 ; velocity: 0
@77880 Channel: 9 Note on, A3 key =  57 ; velocity: 0
@77940 Channel: 9 Note on, D2 key =  38 ; velocity: 127
@78000 Channel: 9 Note on, D2 key =  38 ; velocity: 0
@78120 Channel: 9 Note on, D2 key =  38 ; velocity: 127
@78240 Channel: 9 Note on, D2 key =  38 ; velocity: 0
@78240 Channel: 9 Note on, C2 key =  36 ; velocity: 127
@78240 Channel: 9 Note on, A3 key =  57 ; velocity: 127
@78360 Channel: 9 Note on, C2 key =  36 ; velocity: 0
@78360 Channel: 9 Note on, A3 key =  57 ; velocity: 0
@78540 Channel: 9 Note on, C2 key =  36 ; velocity: 127
@78560 Channel: 9 Note on, C2 key =  36 ; velocity: 0
@78560 Channel: 9 Note on, C2 key =  36 ; velocity: 127
@78580 Channel: 9 Note on, C2 key =  36 ; velocity: 0
@78580 Channel: 9 Note on, C2 key =  36 ; velocity: 127
@78595 Channel: 9 Note on, D2 key =  38 ; velocity: 75
@78600 Channel: 9 Note on, C2 key =  36 ; velocity: 0
@78600 Channel: 9 Note on, D2 key =  38 ; velocity: 0
@78600 Channel: 9 Note on, D2 key =  38 ; velocity: 127
@78720 Channel: 9 Note on, D2 key =  38 ; velocity: 0
@78720 Channel: 9 Note on, C2 key =  36 ; velocity: 127
@78720 Channel: 9 Note on, A3 key =  57 ; velocity: 127
@78840 Channel: 9 Note on, C2 key =  36 ; velocity: 0
@78840 Channel: 9 Note on, A3 key =  57 ; velocity: 0
@79560 Channel: 9 Note on, C2 key =  36 ; velocity: 127
@79560 Channel: 9 Note on, D2 key =  38 ; velocity: 127
@79560 Channel: 9 Note on, F#2 key =  42 ; velocity: 127
@79620 Channel: 9 Note on, C2 key =  36 ; velocity: 0
@79620 Channel: 9 Note on, D2 key =  38 ; velocity: 0
@79620 Channel: 9 Note on, F#2 key =  42 ; velocity: 0
@79620 Channel: 9 Note on, F#2 key =  42 ; velocity: 127
@79620 Channel: 9 Note on, D2 key =  38 ; velocity: 127
@79620 Channel: 9 Note on, C2 key =  36 ; velocity: 127
@79680 Channel: 9 Note on, F#2 key =  42 ; velocity: 0
@79680 Channel: 9 Note on, D2 key =  38 ; velocity: 0
@79680 Channel: 9 Note on, C2 key =  36 ; velocity: 0
@79680 Channel: 9 Note on, C2 key =  36 ; velocity: 127
@79680 Channel: 9 Note on, D2 key =  38 ; velocity: 127
@79680 Channel: 9 Note on, F#2 key =  42 ; velocity: 127
@79800 Channel: 9 Note on, C2 key =  36 ; velocity: 0
@79800 Channel: 9 Note on, D2 key =  38 ; velocity: 0
@79800 Channel: 9 Note on, F#2 key =  42 ; velocity: 0
@80520 Channel: 9 Note on, C2 key =  36 ; velocity: 127
@80520 Channel: 9 Note on, D2 key =  38 ; velocity: 127
@80520 Channel: 9 Note on, F#2 key =  42 ; velocity: 127
@80580 Channel: 9 Note on, C2 key =  36 ; velocity: 0
@80580 Channel: 9 Note on, D2 key =  38 ; velocity: 0
@80580 Channel: 9 Note on, F#2 key =  42 ; velocity: 0
@80580 Channel: 9 Note on, F#2 key =  42 ; velocity: 127
@80580 Channel: 9 Note on, D2 key =  38 ; velocity: 127
@80580 Channel: 9 Note on, C2 key =  36 ; velocity: 127
@80640 Channel: 9 Note on, F#2 key =  42 ; velocity: 0
@80640 Channel: 9 Note on, D2 key =  38 ; velocity: 0
@80640 Channel: 9 Note on, C2 key =  36 ; velocity: 0
@80640 Channel: 9 Note on, C2 key =  36 ; velocity: 127
@80640 Channel: 9 Note on, D2 key =  38 ; velocity: 127
@80640 Channel: 9 Note on, F#2 key =  42 ; velocity: 127
@80760 Channel: 9 Note on, C2 key =  36 ; velocity: 0
@80760 Channel: 9 Note on, D2 key =  38 ; velocity: 0
@80760 Channel: 9 Note on, F#2 key =  42 ; velocity: 0
@81600 Channel: 9 Note on, D2 key =  38 ; velocity: 127
@81600 Channel: 9 Note on, F#2 key =  42 ; velocity: 127
@81600 Channel: 9 Note on, C2 key =  36 ; velocity: 127
@81660 Channel: 9 Note on, D2 key =  38 ; velocity: 0
@81660 Channel: 9 Note on, F#2 key =  42 ; velocity: 0
@81660 Channel: 9 Note on, C2 key =  36 ; velocity: 0
@81660 Channel: 9 Note on, F#2 key =  42 ; velocity: 127
@81660 Channel: 9 Note on, D2 key =  38 ; velocity: 127
@81660 Channel: 9 Note on, C2 key =  36 ; velocity: 127
@81720 Channel: 9 Note on, F#2 key =  42 ; velocity: 0
@81720 Channel: 9 Note on, D2 key =  38 ; velocity: 0
@81720 Channel: 9 Note on, C2 key =  36 ; velocity: 0
@81720 Channel: 9 Note on, D2 key =  38 ; velocity: 127
@81720 Channel: 9 Note on, F#2 key =  42 ; velocity: 127
@81720 Channel: 9 Note on, C2 key =  36 ; velocity: 127
@81780 Channel: 9 Note on, D2 key =  38 ; velocity: 0
@81780 Channel: 9 Note on, F#2 key =  42 ; velocity: 0
@81780 Channel: 9 Note on, C2 key =  36 ; velocity: 0
@81780 Channel: 9 Note on, F#2 key =  42 ; velocity: 127
@81780 Channel: 9 Note on, D2 key =  38 ; velocity: 127
@81780 Channel: 9 Note on, C2 key =  36 ; velocity: 127
@81840 Channel: 9 Note on, F#2 key =  42 ; velocity: 0
@81840 Channel: 9 Note on, D2 key =  38 ; velocity: 0
@81840 Channel: 9 Note on, C2 key =  36 ; velocity: 0
@81840 Channel: 9 Note on, D2 key =  38 ; velocity: 127
@81840 Channel: 9 Note on, F#2 key =  42 ; velocity: 127
@81840 Channel: 9 Note on, C2 key =  36 ; velocity: 127
@81900 Channel: 9 Note on, D2 key =  38 ; velocity: 0
@81900 Channel: 9 Note on, F#2 key =  42 ; velocity: 0
@81900 Channel: 9 Note on, C2 key =  36 ; velocity: 0
@81900 Channel: 9 Note on, F#2 key =  42 ; velocity: 127
@81900 Channel: 9 Note on, D2 key =  38 ; velocity: 127
@81900 Channel: 9 Note on, C2 key =  36 ; velocity: 127
@81960 Channel: 9 Note on, F#2 key =  42 ; velocity: 0
@81960 Channel: 9 Note on, D2 key =  38 ; velocity: 0
@81960 Channel: 9 Note on, C2 key =  36 ; velocity: 0
@81960 Channel: 9 Note on, D2 key =  38 ; velocity: 127
@81960 Channel: 9 Note on, F#2 key =  42 ; velocity: 127
@81960 Channel: 9 Note on, C2 key =  36 ; velocity: 127
@82020 Channel: 9 Note on, D2 key =  38 ; velocity: 0
@82020 Channel: 9 Note on, F#2 key =  42 ; velocity: 0
@82020 Channel: 9 Note on, C2 key =  36 ; velocity: 0
@82020 Channel: 9 Note on, F#2 key =  42 ; velocity: 127
@82020 Channel: 9 Note on, D2 key =  38 ; velocity: 127
@82020 Channel: 9 Note on, C2 key =  36 ; velocity: 127
@82080 Channel: 9 Note on, F#2 key =  42 ; velocity: 0
@82080 Channel: 9 Note on, D2 key =  38 ; velocity: 0
@82080 Channel: 9 Note on, C2 key =  36 ; velocity: 0
@82080 Channel: 9 Note on, D2 key =  38 ; velocity: 127
@82080 Channel: 9 Note on, F#2 key =  42 ; velocity: 127
@82080 Channel: 9 Note on, C2 key =  36 ; velocity: 127
@82140 Channel: 9 Note on, D2 key =  38 ; velocity: 0
@82140 Channel: 9 Note on, F#2 key =  42 ; velocity: 0
@82140 Channel: 9 Note on, C2 key =  36 ; velocity: 0
@82140 Channel: 9 Note on, F#2 key =  42 ; velocity: 127
@82140 Channel: 9 Note on, D2 key =  38 ; velocity: 127
@82140 Channel: 9 Note on, C2 key =  36 ; velocity: 127
@82200 Channel: 9 Note on, F#2 key =  42 ; velocity: 0
@82200 Channel: 9 Note on, D2 key =  38 ; velocity: 0
@82200 Channel: 9 Note on, C2 key =  36 ; velocity: 0
@82200 Channel: 9 Note on, C2 key =  36 ; velocity: 127
@82200 Channel: 9 Note on, D2 key =  38 ; velocity: 127
@82230 Channel: 9 Note on, D2 key =  38 ; velocity: 0
@82230 Channel: 9 Note on, D2 key =  38 ; velocity: 127
@82260 Channel: 9 Note on, D2 key =  38 ; velocity: 0
@82260 Channel: 9 Note on, D2 key =  38 ; velocity: 127
@82290 Channel: 9 Note on, D2 key =  38 ; velocity: 0
@82290 Channel: 9 Note on, D2 key =  38 ; velocity: 127
@82320 Channel: 9 Note on, C2 key =  36 ; velocity: 0
@82320 Channel: 9 Note on, D2 key =  38 ; velocity: 0
@82320 Channel: 9 Note on, C2 key =  36 ; velocity: 127
@82320 Channel: 9 Note on, D2 key =  38 ; velocity: 127
@82380 Channel: 9 Note on, D2 key =  38 ; velocity: 0
@82380 Channel: 9 Note on, D2 key =  38 ; velocity: 127
@82410 Channel: 9 Note on, D2 key =  38 ; velocity: 0
@82410 Channel: 9 Note on, D2 key =  38 ; velocity: 127
@82440 Channel: 9 Note on, C2 key =  36 ; velocity: 0
@82440 Channel: 9 Note on, D2 key =  38 ; velocity: 0
@82440 Channel: 9 Note on, A3 key =  57 ; velocity: 127
@82440 Channel: 9 Note on, C2 key =  36 ; velocity: 127
@82500 Channel: 9 Note on, A3 key =  57 ; velocity: 0
@82500 Channel: 9 Note on, C2 key =  36 ; velocity: 0
@82500 Channel: 9 Note on, A3 key =  57 ; velocity: 127
@82500 Channel: 9 Note on, C2 key =  36 ; velocity: 127
@82560 Channel: 9 Note on, A3 key =  57 ; velocity: 0
@82560 Channel: 9 Note on, C2 key =  36 ; velocity: 0
@82560 Channel: 9 Note on, C2 key =  36 ; velocity: 127
@82560 Channel: 9 Note on, A3 key =  57 ; velocity: 127
@82680 Channel: 9 Note on, C2 key =  36 ; velocity: 0
@82680 Channel: 9 Note on, A3 key =  57 ; velocity: 0
@82680 Channel: 9 Note on, D2 key =  38 ; velocity: 127
@82680 Channel: 9 Note on, F#2 key =  42 ; velocity: 127
@82740 Channel: 9 Note on, D2 key =  38 ; velocity: 0
@82740 Channel: 9 Note on, F#2 key =  42 ; velocity: 0
@82740 Channel: 9 Note on, F#2 key =  42 ; velocity: 127
@82800 Channel: 9 Note on, F#2 key =  42 ; velocity: 0
@82800 Channel: 9 Note on, F#2 key =  42 ; velocity: 127
@82860 Channel: 9 Note on, F#2 key =  42 ; velocity: 0
@82860 Channel: 9 Note on, C2 key =  36 ; velocity: 127
@82860 Channel: 9 Note on, F#2 key =  42 ; velocity: 127
@82920 Channel: 9 Note on, C2 key =  36 ; velocity: 0
@82920 Channel: 9 Note on, F#2 key =  42 ; velocity: 0
@82920 Channel: 9 Note on, D2 key =  38 ; velocity: 127
@82920 Channel: 9 Note on, F#2 key =  42 ; velocity: 127
@82980 Channel: 9 Note on, D2 key =  38 ; velocity: 0
@82980 Channel: 9 Note on, F#2 key =  42 ; velocity: 0
@82980 Channel: 9 Note on, C2 key =  36 ; velocity: 127
@82980 Channel: 9 Note on, F#2 key =  42 ; velocity: 127
@83040 Channel: 9 Note on, C2 key =  36 ; velocity: 0
@83040 Channel: 9 Note on, F#2 key =  42 ; velocity: 0
@83040 Channel: 9 Note on, F#2 key =  42 ; velocity: 127
@83100 Channel: 9 Note on, F#2 key =  42 ; velocity: 0
@83100 Channel: 9 Note on, C2 key =  36 ; velocity: 127
@83100 Channel: 9 Note on, F#2 key =  42 ; velocity: 127
@83160 Channel: 9 Note on, C2 key =  36 ; velocity: 0
@83160 Channel: 9 Note on, F#2 key =  42 ; velocity: 0
@83160 Channel: 9 Note on, D2 key =  38 ; velocity: 127
@83160 Channel: 9 Note on, F#2 key =  42 ; velocity: 127
@83220 Channel: 9 Note on, D2 key =  38 ; velocity: 0
@83220 Channel: 9 Note on, F#2 key =  42 ; velocity: 0
@83220 Channel: 9 Note on, F#2 key =  42 ; velocity: 127
@83280 Channel: 9 Note on, F#2 key =  42 ; velocity: 0
@83280 Channel: 9 Note on, C2 key =  36 ; velocity: 127
@83280 Channel: 9 Note on, F#2 key =  42 ; velocity: 127
@83340 Channel: 9 Note on, C2 key =  36 ; velocity: 0
@83340 Channel: 9 Note on, F#2 key =  42 ; velocity: 0
@83340 Channel: 9 Note on, C2 key =  36 ; velocity: 127
@83340 Channel: 9 Note on, F#2 key =  42 ; velocity: 127
@83360 Channel: 9 Note on, C2 key =  36 ; velocity: 0
@83360 Channel: 9 Note on, C2 key =  36 ; velocity: 127
@83380 Channel: 9 Note on, C2 key =  36 ; velocity: 0
@83380 Channel: 9 Note on, C2 key =  36 ; velocity: 127
@83400 Channel: 9 Note on, F#2 key =  42 ; velocity: 0
@83400 Channel: 9 Note on, C2 key =  36 ; velocity: 0
@83400 Channel: 9 Note on, D2 key =  38 ; velocity: 127
@83400 Channel: 9 Note on, F#2 key =  42 ; velocity: 127
@83460 Channel: 9 Note on, D2 key =  38 ; velocity: 0
@83460 Channel: 9 Note on, F#2 key =  42 ; velocity: 0
@83460 Channel: 9 Note on, C2 key =  36 ; velocity: 127
@83460 Channel: 9 Note on, A3 key =  57 ; velocity: 127
@83520 Channel: 9 Note on, C2 key =  36 ; velocity: 0
@83520 Channel: 9 Note on, A3 key =  57 ; velocity: 0
@83520 Channel: 9 Note on, C2 key =  36 ; velocity: 127
@83520 Channel: 9 Note on, A3 key =  57 ; velocity: 127
@83640 Channel: 9 Note on, C2 key =  36 ; velocity: 0
@83640 Channel: 9 Note on, A3 key =  57 ; velocity: 0
@83640 Channel: 9 Note on, D2 key =  38 ; velocity: 127
@83640 Channel: 9 Note on, F#2 key =  42 ; velocity: 127
@83700 Channel: 9 Note on, D2 key =  38 ; velocity: 0
@83700 Channel: 9 Note on, F#2 key =  42 ; velocity: 0
@83700 Channel: 9 Note on, F#2 key =  42 ; velocity: 127
@83760 Channel: 9 Note on, F#2 key =  42 ; velocity: 0
@83760 Channel: 9 Note on, F#2 key =  42 ; velocity: 127
@83820 Channel: 9 Note on, F#2 key =  42 ; velocity: 0
@83820 Channel: 9 Note on, C2 key =  36 ; velocity: 127
@83820 Channel: 9 Note on, F#2 key =  42 ; velocity: 127
@83880 Channel: 9 Note on, C2 key =  36 ; velocity: 0
@83880 Channel: 9 Note on, F#2 key =  42 ; velocity: 0
@83880 Channel: 9 Note on, D2 key =  38 ; velocity: 127
@83880 Channel: 9 Note on, F#2 key =  42 ; velocity: 127
@83940 Channel: 9 Note on, D2 key =  38 ; velocity: 0
@83940 Channel: 9 Note on, F#2 key =  42 ; velocity: 0
@83940 Channel: 9 Note on, C2 key =  36 ; velocity: 127
@83940 Channel: 9 Note on, F#2 key =  42 ; velocity: 127
@84000 Channel: 9 Note on, C2 key =  36 ; velocity: 0
@84000 Channel: 9 Note on, F#2 key =  42 ; velocity: 0
@84000 Channel: 9 Note on, F#2 key =  42 ; velocity: 127
@84060 Channel: 9 Note on, F#2 key =  42 ; velocity: 0
@84060 Channel: 9 Note on, C2 key =  36 ; velocity: 127
@84060 Channel: 9 Note on, F#2 key =  42 ; velocity: 127
@84120 Channel: 9 Note on, C2 key =  36 ; velocity: 0
@84120 Channel: 9 Note on, F#2 key =  42 ; velocity: 0
@84120 Channel: 9 Note on, D2 key =  38 ; velocity: 127
@84120 Channel: 9 Note on, F#2 key =  42 ; velocity: 127
@84180 Channel: 9 Note on, D2 key =  38 ; velocity: 0
@84180 Channel: 9 Note on, F#2 key =  42 ; velocity: 0
@84180 Channel: 9 Note on, F#2 key =  42 ; velocity: 127
@84240 Channel: 9 Note on, F#2 key =  42 ; velocity: 0
@84240 Channel: 9 Note on, C2 key =  36 ; velocity: 127
@84240 Channel: 9 Note on, F#2 key =  42 ; velocity: 127
@84300 Channel: 9 Note on, C2 key =  36 ; velocity: 0
@84300 Channel: 9 Note on, F#2 key =  42 ; velocity: 0
@84300 Channel: 9 Note on, C2 key =  36 ; velocity: 127
@84300 Channel: 9 Note on, F#2 key =  42 ; velocity: 127
@84320 Channel: 9 Note on, C2 key =  36 ; velocity: 0
@84320 Channel: 9 Note on, C2 key =  36 ; velocity: 127
@84340 Channel: 9 Note on, C2 key =  36 ; velocity: 0
@84340 Channel: 9 Note on, C2 key =  36 ; velocity: 127
@84360 Channel: 9 Note on, F#2 key =  42 ; velocity: 0
@84360 Channel: 9 Note on, C2 key =  36 ; velocity: 0
@84360 Channel: 9 Note on, D2 key =  38 ; velocity: 127
@84360 Channel: 9 Note on, F#2 key =  42 ; velocity: 127
@84420 Channel: 9 Note on, D2 key =  38 ; velocity: 0
@84420 Channel: 9 Note on, F#2 key =  42 ; velocity: 0
@84420 Channel: 9 Note on, C2 key =  36 ; velocity: 127
@84420 Channel: 9 Note on, A3 key =  57 ; velocity: 127
@84480 Channel: 9 Note on, C2 key =  36 ; velocity: 0
@84480 Channel: 9 Note on, A3 key =  57 ; velocity: 0
@84480 Channel: 9 Note on, C2 key =  36 ; velocity: 127
@84480 Channel: 9 Note on, A3 key =  57 ; velocity: 127
@84600 Channel: 9 Note on, C2 key =  36 ; velocity: 0
@84600 Channel: 9 Note on, A3 key =  57 ; velocity: 0
@84600 Channel: 9 Note on, D2 key =  38 ; velocity: 127
@84600 Channel: 9 Note on, F#2 key =  42 ; velocity: 127
@84660 Channel: 9 Note on, D2 key =  38 ; velocity: 0
@84660 Channel: 9 Note on, F#2 key =  42 ; velocity: 0
@84660 Channel: 9 Note on, F#2 key =  42 ; velocity: 127
@84720 Channel: 9 Note on, F#2 key =  42 ; velocity: 0
@84720 Channel: 9 Note on, F#2 key =  42 ; velocity: 127
@84780 Channel: 9 Note on, F#2 key =  42 ; velocity: 0
@84780 Channel: 9 Note on, C2 key =  36 ; velocity: 127
@84780 Channel: 9 Note on, F#2 key =  42 ; velocity: 127
@84840 Channel: 9 Note on, C2 key =  36 ; velocity: 0
@84840 Channel: 9 Note on, F#2 key =  42 ; velocity: 0
@84840 Channel: 9 Note on, D2 key =  38 ; velocity: 127
@84840 Channel: 9 Note on, F#2 key =  42 ; velocity: 127
@84900 Channel: 9 Note on, D2 key =  38 ; velocity: 0
@84900 Channel: 9 Note on, F#2 key =  42 ; velocity: 0
@84900 Channel: 9 Note on, C2 key =  36 ; velocity: 127
@84900 Channel: 9 Note on, F#2 key =  42 ; velocity: 127
@84960 Channel: 9 Note on, C2 key =  36 ; velocity: 0
@84960 Channel: 9 Note on, F#2 key =  42 ; velocity: 0
@84960 Channel: 9 Note on, F#2 key =  42 ; velocity: 127
@85020 Channel: 9 Note on, F#2 key =  42 ; velocity: 0
@85020 Channel: 9 Note on, C2 key =  36 ; velocity: 127
@85020 Channel: 9 Note on, F#2 key =  42 ; velocity: 127
@85080 Channel: 9 Note on, C2 key =  36 ; velocity: 0
@85080 Channel: 9 Note on, F#2 key =  42 ; velocity: 0
@85080 Channel: 9 Note on, D2 key =  38 ; velocity: 127
@85080 Channel: 9 Note on, F#2 key =  42 ; velocity: 127
@85140 Channel: 9 Note on, D2 key =  38 ; velocity: 0
@85140 Channel: 9 Note on, F#2 key =  42 ; velocity: 0
@85140 Channel: 9 Note on, F#2 key =  42 ; velocity: 127
@85200 Channel: 9 Note on, F#2 key =  42 ; velocity: 0
@85200 Channel: 9 Note on, C2 key =  36 ; velocity: 127
@85200 Channel: 9 Note on, F#2 key =  42 ; velocity: 127
@85260 Channel: 9 Note on, C2 key =  36 ; velocity: 0
@85260 Channel: 9 Note on, F#2 key =  42 ; velocity: 0
@85260 Channel: 9 Note on, C2 key =  36 ; velocity: 127
@85260 Channel: 9 Note on, F#2 key =  42 ; velocity: 127
@85280 Channel: 9 Note on, C2 key =  36 ; velocity: 0
@85280 Channel: 9 Note on, C2 key =  36 ; velocity: 127
@85300 Channel: 9 Note on, C2 key =  36 ; velocity: 0
@85300 Channel: 9 Note on, C2 key =  36 ; velocity: 127
@85320 Channel: 9 Note on, F#2 key =  42 ; velocity: 0
@85320 Channel: 9 Note on, C2 key =  36 ; velocity: 0
@85320 Channel: 9 Note on, D2 key =  38 ; velocity: 127
@85320 Channel: 9 Note on, F#2 key =  42 ; velocity: 127
@85380 Channel: 9 Note on, D2 key =  38 ; velocity: 0
@85380 Channel: 9 Note on, F#2 key =  42 ; velocity: 0
@85380 Channel: 9 Note on, C2 key =  36 ; velocity: 127
@85380 Channel: 9 Note on, A3 key =  57 ; velocity: 127
@85440 Channel: 9 Note on, C2 key =  36 ; velocity: 0
@85440 Channel: 9 Note on, A3 key =  57 ; velocity: 0
@85440 Channel: 9 Note on, C2 key =  36 ; velocity: 127
@85440 Channel: 9 Note on, A3 key =  57 ; velocity: 127
@85560 Channel: 9 Note on, C2 key =  36 ; velocity: 0
@85560 Channel: 9 Note on, A3 key =  57 ; velocity: 0
@85560 Channel: 9 Note on, D2 key =  38 ; velocity: 127
@85560 Channel: 9 Note on, F#2 key =  42 ; velocity: 127
@85620 Channel: 9 Note on, D2 key =  38 ; velocity: 0
@85620 Channel: 9 Note on, F#2 key =  42 ; velocity: 0
@85620 Channel: 9 Note on, F#2 key =  42 ; velocity: 127
@85680 Channel: 9 Note on, F#2 key =  42 ; velocity: 0
@85680 Channel: 9 Note on, F#2 key =  42 ; velocity: 127
@85740 Channel: 9 Note on, F#2 key =  42 ; velocity: 0
@85740 Channel: 9 Note on, C2 key =  36 ; velocity: 127
@85740 Channel: 9 Note on, F#2 key =  42 ; velocity: 127
@85800 Channel: 9 Note on, C2 key =  36 ; velocity: 0
@85800 Channel: 9 Note on, F#2 key =  42 ; velocity: 0
@85800 Channel: 9 Note on, D2 key =  38 ; velocity: 127
@85800 Channel: 9 Note on, F#2 key =  42 ; velocity: 127
@85860 Channel: 9 Note on, D2 key =  38 ; velocity: 0
@85860 Channel: 9 Note on, F#2 key =  42 ; velocity: 0
@85860 Channel: 9 Note on, C2 key =  36 ; velocity: 127
@85860 Channel: 9 Note on, F#2 key =  42 ; velocity: 127
@85920 Channel: 9 Note on, C2 key =  36 ; velocity: 0
@85920 Channel: 9 Note on, F#2 key =  42 ; velocity: 0
@85920 Channel: 9 Note on, F#2 key =  42 ; velocity: 127
@85980 Channel: 9 Note on, F#2 key =  42 ; velocity: 0
@85980 Channel: 9 Note on, C2 key =  36 ; velocity: 127
@85980 Channel: 9 Note on, F#2 key =  42 ; velocity: 127
@86040 Channel: 9 Note on, C2 key =  36 ; velocity: 0
@86040 Channel: 9 Note on, F#2 key =  42 ; velocity: 0
@86040 Channel: 9 Note on, D2 key =  38 ; velocity: 127
@86040 Channel: 9 Note on, F#2 key =  42 ; velocity: 127
@86100 Channel: 9 Note on, D2 key =  38 ; velocity: 0
@86100 Channel: 9 Note on, F#2 key =  42 ; velocity: 0
@86100 Channel: 9 Note on, F#2 key =  42 ; velocity: 127
@86160 Channel: 9 Note on, F#2 key =  42 ; velocity: 0
@86160 Channel: 9 Note on, C2 key =  36 ; velocity: 127
@86160 Channel: 9 Note on, F#2 key =  42 ; velocity: 127
@86220 Channel: 9 Note on, C2 key =  36 ; velocity: 0
@86220 Channel: 9 Note on, F#2 key =  42 ; velocity: 0
@86220 Channel: 9 Note on, C2 key =  36 ; velocity: 127
@86220 Channel: 9 Note on, F#2 key =  42 ; velocity: 127
@86240 Channel: 9 Note on, C2 key =  36 ; velocity: 0
@86240 Channel: 9 Note on, C2 key =  36 ; velocity: 127
@86260 Channel: 9 Note on, C2 key =  36 ; velocity: 0
@86260 Channel: 9 Note on, C2 key =  36 ; velocity: 127
@86280 Channel: 9 Note on, F#2 key =  42 ; velocity: 0
@86280 Channel: 9 Note on, C2 key =  36 ; velocity: 0
@86280 Channel: 9 Note on, D2 key =  38 ; velocity: 127
@86280 Channel: 9 Note on, F#2 key =  42 ; velocity: 127
@86340 Channel: 9 Note on, D2 key =  38 ; velocity: 0
@86340 Channel: 9 Note on, F#2 key =  42 ; velocity: 0
@86340 Channel: 9 Note on, C2 key =  36 ; velocity: 127
@86340 Channel: 9 Note on, A3 key =  57 ; velocity: 127
@86400 Channel: 9 Note on, C2 key =  36 ; velocity: 0
@86400 Channel: 9 Note on, A3 key =  57 ; velocity: 0
@86400 Channel: 9 Note on, C2 key =  36 ; velocity: 127
@86400 Channel: 9 Note on, A3 key =  57 ; velocity: 127
@86520 Channel: 9 Note on, C2 key =  36 ; velocity: 0
@86520 Channel: 9 Note on, A3 key =  57 ; velocity: 0
@86700 Channel: 9 Note on, C2 key =  36 ; velocity: 127
@86760 Channel: 9 Note on, C2 key =  36 ; velocity: 0
@86760 Channel: 9 Note on, A3 key =  57 ; velocity: 127
@86760 Channel: 9 Note on, D2 key =  38 ; velocity: 127
@86880 Channel: 9 Note on, A3 key =  57 ; velocity: 0
@86880 Channel: 9 Note on, D2 key =  38 ; velocity: 0
@86880 Channel: 9 Note on, A3 key =  57 ; velocity: 127
@86880 Channel: 9 Note on, C2 key =  36 ; velocity: 127
@87000 Channel: 9 Note on, A3 key =  57 ; velocity: 0
@87000 Channel: 9 Note on, C2 key =  36 ; velocity: 0
@87000 Channel: 9 Note on, D2 key =  38 ; velocity: 127
@87000 Channel: 9 Note on, F#2 key =  42 ; velocity: 127
@87060 Channel: 9 Note on, D2 key =  38 ; velocity: 0
@87060 Channel: 9 Note on, F#2 key =  42 ; velocity: 0
@87060 Channel: 9 Note on, F#2 key =  42 ; velocity: 127
@87120 Channel: 9 Note on, F#2 key =  42 ; velocity: 0
@87120 Channel: 9 Note on, C2 key =  36 ; velocity: 127
@87120 Channel: 9 Note on, F#2 key =  42 ; velocity: 127
@87180 Channel: 9 Note on, C2 key =  36 ; velocity: 0
@87180 Channel: 9 Note on, F#2 key =  42 ; velocity: 0
@87180 Channel: 9 Note on, C2 key =  36 ; velocity: 127
@87180 Channel: 9 Note on, F#2 key =  42 ; velocity: 127
@87200 Channel: 9 Note on, C2 key =  36 ; velocity: 0
@87200 Channel: 9 Note on, C2 key =  36 ; velocity: 127
@87220 Channel: 9 Note on, C2 key =  36 ; velocity: 0
@87220 Channel: 9 Note on, C2 key =  36 ; velocity: 127
@87240 Channel: 9 Note on, F#2 key =  42 ; velocity: 0
@87240 Channel: 9 Note on, C2 key =  36 ; velocity: 0
@87240 Channel: 9 Note on, D2 key =  38 ; velocity: 127
@87240 Channel: 9 Note on, F#2 key =  42 ; velocity: 127
@87300 Channel: 9 Note on, D2 key =  38 ; velocity: 0
@87300 Channel: 9 Note on, F#2 key =  42 ; velocity: 0
@87300 Channel: 9 Note on, C2 key =  36 ; velocity: 127
@87300 Channel: 9 Note on, A3 key =  57 ; velocity: 127
@87360 Channel: 9 Note on, C2 key =  36 ; velocity: 0
@87360 Channel: 9 Note on, A3 key =  57 ; velocity: 0
@87360 Channel: 9 Note on, C2 key =  36 ; velocity: 127
@87360 Channel: 9 Note on, F#2 key =  42 ; velocity: 127
@87420 Channel: 9 Note on, F#2 key =  42 ; velocity: 0
@87420 Channel: 9 Note on, F#2 key =  42 ; velocity: 127
@87480 Channel: 9 Note on, C2 key =  36 ; velocity: 0
@87480 Channel: 9 Note on, F#2 key =  42 ; velocity: 0
@87480 Channel: 9 Note on, D2 key =  38 ; velocity: 127
@87480 Channel: 9 Note on, F#2 key =  42 ; velocity: 127
@87540 Channel: 9 Note on, D2 key =  38 ; velocity: 0
@87540 Channel: 9 Note on, F#2 key =  42 ; velocity: 0
@87540 Channel: 9 Note on, F#2 key =  42 ; velocity: 127
@87600 Channel: 9 Note on, F#2 key =  42 ; velocity: 0
@87600 Channel: 9 Note on, C2 key =  36 ; velocity: 127
@87600 Channel: 9 Note on, F#2 key =  42 ; velocity: 127
@87660 Channel: 9 Note on, C2 key =  36 ; velocity: 0
@87660 Channel: 9 Note on, F#2 key =  42 ; velocity: 0
@87660 Channel: 9 Note on, C2 key =  36 ; velocity: 127
@87660 Channel: 9 Note on, F#2 key =  42 ; velocity: 127
@87680 Channel: 9 Note on, C2 key =  36 ; velocity: 0
@87680 Channel: 9 Note on, C2 key =  36 ; velocity: 127
@87700 Channel: 9 Note on, C2 key =  36 ; velocity: 0
@87700 Channel: 9 Note on, C2 key =  36 ; velocity: 127
@87720 Channel: 9 Note on, F#2 key =  42 ; velocity: 0
@87720 Channel: 9 Note on, C2 key =  36 ; velocity: 0
@87720 Channel: 9 Note on, D2 key =  38 ; velocity: 127
@87720 Channel: 9 Note on, F#2 key =  42 ; velocity: 127
@87780 Channel: 9 Note on, D2 key =  38 ; velocity: 0
@87780 Channel: 9 Note on, F#2 key =  42 ; velocity: 0
@87780 Channel: 9 Note on, F#2 key =  42 ; velocity: 127
@87780 Channel: 9 Note on, C2 key =  36 ; velocity: 127
@87840 Channel: 9 Note on, F#2 key =  42 ; velocity: 0
@87840 Channel: 9 Note on, C2 key =  36 ; velocity: 0
@87840 Channel: 9 Note on, C2 key =  36 ; velocity: 127
@87840 Channel: 9 Note on, F#2 key =  42 ; velocity: 127
@87900 Channel: 9 Note on, F#2 key =  42 ; velocity: 0
@87900 Channel: 9 Note on, F#2 key =  42 ; velocity: 127
@87960 Channel: 9 Note on, C2 key =  36 ; velocity: 0
@87960 Channel: 9 Note on, F#2 key =  42 ; velocity: 0
@87960 Channel: 9 Note on, D2 key =  38 ; velocity: 127
@87960 Channel: 9 Note on, F#2 key =  42 ; velocity: 127
@88020 Channel: 9 Note on, D2 key =  38 ; velocity: 0
@88020 Channel: 9 Note on, F#2 key =  42 ; velocity: 0
@88020 Channel: 9 Note on, F#2 key =  42 ; velocity: 127
@88080 Channel: 9 Note on, F#2 key =  42 ; velocity: 0
@88080 Channel: 9 Note on, C2 key =  36 ; velocity: 127
@88080 Channel: 9 Note on, F#2 key =  42 ; velocity: 127
@88140 Channel: 9 Note on, C2 key =  36 ; velocity: 0
@88140 Channel: 9 Note on, F#2 key =  42 ; velocity: 0
@88140 Channel: 9 Note on, C2 key =  36 ; velocity: 127
@88140 Channel: 9 Note on, F#2 key =  42 ; velocity: 127
@88160 Channel: 9 Note on, C2 key =  36 ; velocity: 0
@88160 Channel: 9 Note on, C2 key =  36 ; velocity: 127
@88180 Channel: 9 Note on, C2 key =  36 ; velocity: 0
@88180 Channel: 9 Note on, C2 key =  36 ; velocity: 127
@88200 Channel: 9 Note on, F#2 key =  42 ; velocity: 0
@88200 Channel: 9 Note on, C2 key =  36 ; velocity: 0
@88200 Channel: 9 Note on, D2 key =  38 ; velocity: 127
@88200 Channel: 9 Note on, F#2 key =  42 ; velocity: 127
@88260 Channel: 9 Note on, D2 key =  38 ; velocity: 0
@88260 Channel: 9 Note on, F#2 key =  42 ; velocity: 0
@88260 Channel: 9 Note on, F#2 key =  42 ; velocity: 127
@88315 Channel: 9 Note on, D2 key =  38 ; velocity: 75
@88320 Channel: 9 Note on, F#2 key =  42 ; velocity: 0
@88320 Channel: 9 Note on, D2 key =  38 ; velocity: 0
@88320 Channel: 9 Note on, D2 key =  38 ; velocity: 127
@88380 Channel: 9 Note on, D2 key =  38 ; velocity: 0
@88380 Channel: 9 Note on, A2 key =  45 ; velocity: 127
@88440 Channel: 9 Note on, A2 key =  45 ; velocity: 0
@88440 Channel: 9 Note on, B2 key =  47 ; velocity: 127
@88470 Channel: 9 Note on, B2 key =  47 ; velocity: 0
@88470 Channel: 9 Note on, B2 key =  47 ; velocity: 127
@88500 Channel: 9 Note on, B2 key =  47 ; velocity: 0
@88500 Channel: 9 Note on, B2 key =  47 ; velocity: 127
@88560 Channel: 9 Note on, B2 key =  47 ; velocity: 0
@88560 Channel: 9 Note on, C3 key =  48 ; velocity: 127
@88580 Channel: 9 Note on, C3 key =  48 ; velocity: 0
@88580 Channel: 9 Note on, B2 key =  47 ; velocity: 127
@88600 Channel: 9 Note on, B2 key =  47 ; velocity: 0
@88600 Channel: 9 Note on, B2 key =  47 ; velocity: 127
@88620 Channel: 9 Note on, B2 key =  47 ; velocity: 0
@88620 Channel: 9 Note on, B2 key =  47 ; velocity: 127
@88680 Channel: 9 Note on, B2 key =  47 ; velocity: 0
@88680 Channel: 9 Note on, G2 key =  43 ; velocity: 127
@88680 Channel: 9 Note on, C3 key =  48 ; velocity: 127
@88740 Channel: 9 Note on, G2 key =  43 ; velocity: 0
@88740 Channel: 9 Note on, C3 key =  48 ; velocity: 0
@88740 Channel: 9 Note on, G2 key =  43 ; velocity: 127
@88800 Channel: 9 Note on, G2 key =  43 ; velocity: 0
@88800 Channel: 9 Note on, A3 key =  57 ; velocity: 127
@88800 Channel: 9 Note on, C2 key =  36 ; velocity: 127
@88920 Channel: 9 Note on, A3 key =  57 ; velocity: 0
@88920 Channel: 9 Note on, C2 key =  36 ; velocity: 0
@88920 Channel: 9 Note on, D2 key =  38 ; velocity: 127
@88920 Channel: 9 Note on, F#2 key =  42 ; velocity: 127
@88980 Channel: 9 Note on, D2 key =  38 ; velocity: 0
@88980 Channel: 9 Note on, F#2 key =  42 ; velocity: 0
@88980 Channel: 9 Note on, F#2 key =  42 ; velocity: 127
@89040 Channel: 9 Note on, F#2 key =  42 ; velocity: 0
@89040 Channel: 9 Note on, C2 key =  36 ; velocity: 127
@89040 Channel: 9 Note on, F#2 key =  42 ; velocity: 127
@89100 Channel: 9 Note on, C2 key =  36 ; velocity: 0
@89100 Channel: 9 Note on, F#2 key =  42 ; velocity: 0
@89100 Channel: 9 Note on, C2 key =  36 ; velocity: 127
@89100 Channel: 9 Note on, F#2 key =  42 ; velocity: 127
@89120 Channel: 9 Note on, C2 key =  36 ; velocity: 0
@89120 Channel: 9 Note on, C2 key =  36 ; velocity: 127
@89140 Channel: 9 Note on, C2 key =  36 ; velocity: 0
@89140 Channel: 9 Note on, C2 key =  36 ; velocity: 127
@89160 Channel: 9 Note on, F#2 key =  42 ; velocity: 0
@89160 Channel: 9 Note on, C2 key =  36 ; velocity: 0
@89160 Channel: 9 Note on, D2 key =  38 ; velocity: 127
@89160 Channel: 9 Note on, F#2 key =  42 ; velocity: 127
@89220 Channel: 9 Note on, D2 key =  38 ; velocity: 0
@89220 Channel: 9 Note on, F#2 key =  42 ; velocity: 0
@89220 Channel: 9 Note on, F#2 key =  42 ; velocity: 127
@89220 Channel: 9 Note on, C2 key =  36 ; velocity: 127
@89280 Channel: 9 Note on, F#2 key =  42 ; velocity: 0
@89280 Channel: 9 Note on, C2 key =  36 ; velocity: 0
@89280 Channel: 9 Note on, C2 key =  36 ; velocity: 127
@89280 Channel: 9 Note on, F#2 key =  42 ; velocity: 127
@89340 Channel: 9 Note on, F#2 key =  42 ; velocity: 0
@89340 Channel: 9 Note on, F#2 key =  42 ; velocity: 127
@89400 Channel: 9 Note on, C2 key =  36 ; velocity: 0
@89400 Channel: 9 Note on, F#2 key =  42 ; velocity: 0
@89400 Channel: 9 Note on, D2 key =  38 ; velocity: 127
@89400 Channel: 9 Note on, F#2 key =  42 ; velocity: 127
@89460 Channel: 9 Note on, D2 key =  38 ; velocity: 0
@89460 Channel: 9 Note on, F#2 key =  42 ; velocity: 0
@89460 Channel: 9 Note on, F#2 key =  42 ; velocity: 127
@89520 Channel: 9 Note on, F#2 key =  42 ; velocity: 0
@89520 Channel: 9 Note on, C2 key =  36 ; velocity: 127
@89520 Channel: 9 Note on, F#2 key =  42 ; velocity: 127
@89580 Channel: 9 Note on, C2 key =  36 ; velocity: 0
@89580 Channel: 9 Note on, F#2 key =  42 ; velocity: 0
@89580 Channel: 9 Note on, C2 key =  36 ; velocity: 127
@89580 Channel: 9 Note on, F#2 key =  42 ; velocity: 127
@89600 Channel: 9 Note on, C2 key =  36 ; velocity: 0
@89600 Channel: 9 Note on, C2 key =  36 ; velocity: 127
@89620 Channel: 9 Note on, C2 key =  36 ; velocity: 0
@89620 Channel: 9 Note on, C2 key =  36 ; velocity: 127
@89640 Channel: 9 Note on, F#2 key =  42 ; velocity: 0
@89640 Channel: 9 Note on, C2 key =  36 ; velocity: 0
@89640 Channel: 9 Note on, D2 key =  38 ; velocity: 127
@89640 Channel: 9 Note on, F#2 key =  42 ; velocity: 127
@89700 Channel: 9 Note on, D2 key =  38 ; velocity: 0
@89700 Channel: 9 Note on, F#2 key =  42 ; velocity: 0
@89700 Channel: 9 Note on, F#2 key =  42 ; velocity: 127
@89700 Channel: 9 Note on, C2 key =  36 ; velocity: 127
@89760 Channel: 9 Note on, F#2 key =  42 ; velocity: 0
@89760 Channel: 9 Note on, C2 key =  36 ; velocity: 0
@89760 Channel: 9 Note on, C2 key =  36 ; velocity: 127
@89760 Channel: 9 Note on, F#2 key =  42 ; velocity: 127
@89820 Channel: 9 Note on, F#2 key =  42 ; velocity: 0
@89820 Channel: 9 Note on, F#2 key =  42 ; velocity: 127
@89880 Channel: 9 Note on, C2 key =  36 ; velocity: 0
@89880 Channel: 9 Note on, F#2 key =  42 ; velocity: 0
@89880 Channel: 9 Note on, A3 key =  57 ; velocity: 127
@89880 Channel: 9 Note on, D2 key =  38 ; velocity: 127
@89940 Channel: 9 Note on, A3 key =  57 ; velocity: 0
@89940 Channel: 9 Note on, D2 key =  38 ; velocity: 0
@89940 Channel: 9 Note on, F#2 key =  42 ; velocity: 127
@90000 Channel: 9 Note on, F#2 key =  42 ; velocity: 0
@90000 Channel: 9 Note on, C2 key =  36 ; velocity: 127
@90000 Channel: 9 Note on, F#2 key =  42 ; velocity: 127
@90060 Channel: 9 Note on, C2 key =  36 ; velocity: 0
@90060 Channel: 9 Note on, F#2 key =  42 ; velocity: 0
@90060 Channel: 9 Note on, C2 key =  36 ; velocity: 127
@90060 Channel: 9 Note on, F#2 key =  42 ; velocity: 127
@90080 Channel: 9 Note on, C2 key =  36 ; velocity: 0
@90080 Channel: 9 Note on, C2 key =  36 ; velocity: 127
@90100 Channel: 9 Note on, C2 key =  36 ; velocity: 0
@90100 Channel: 9 Note on, C2 key =  36 ; velocity: 127
@90120 Channel: 9 Note on, F#2 key =  42 ; velocity: 0
@90120 Channel: 9 Note on, C2 key =  36 ; velocity: 0
@90120 Channel: 9 Note on, A3 key =  57 ; velocity: 127
@90120 Channel: 9 Note on, D2 key =  38 ; velocity: 127
@90180 Channel: 9 Note on, A3 key =  57 ; velocity: 0
@90180 Channel: 9 Note on, D2 key =  38 ; velocity: 0
@90180 Channel: 9 Note on, F#2 key =  42 ; velocity: 127
@90240 Channel: 9 Note on, F#2 key =  42 ; velocity: 0
@90240 Channel: 9 Note on, C2 key =  36 ; velocity: 127
@90240 Channel: 9 Note on, F#2 key =  42 ; velocity: 127
@90300 Channel: 9 Note on, C2 key =  36 ; velocity: 0
@90300 Channel: 9 Note on, F#2 key =  42 ; velocity: 0
@90300 Channel: 9 Note on, C2 key =  36 ; velocity: 127
@90300 Channel: 9 Note on, F#2 key =  42 ; velocity: 127
@90330 Channel: 9 Note on, C2 key =  36 ; velocity: 0
@90330 Channel: 9 Note on, C2 key =  36 ; velocity: 127
@90360 Channel: 9 Note on, F#2 key =  42 ; velocity: 0
@90360 Channel: 9 Note on, C2 key =  36 ; velocity: 0
@90360 Channel: 9 Note on, D2 key =  38 ; velocity: 127
@90360 Channel: 9 Note on, A3 key =  57 ; velocity: 127
@90420 Channel: 9 Note on, D2 key =  38 ; velocity: 0
@90420 Channel: 9 Note on, A3 key =  57 ; velocity: 0
@90420 Channel: 9 Note on, D2 key =  38 ; velocity: 127
@90450 Channel: 9 Note on, D2 key =  38 ; velocity: 0
@90450 Channel: 9 Note on, D2 key =  38 ; velocity: 127
@90480 Channel: 9 Note on, D2 key =  38 ; velocity: 0
@90480 Channel: 9 Note on, F#2 key =  42 ; velocity: 127
@90540 Channel: 9 Note on, F#2 key =  42 ; velocity: 0
@90540 Channel: 9 Note on, D2 key =  38 ; velocity: 127
@90570 Channel: 9 Note on, D2 key =  38 ; velocity: 0
@90570 Channel: 9 Note on, D2 key =  38 ; velocity: 127
@90600 Channel: 9 Note on, D2 key =  38 ; velocity: 0
@90600 Channel: 9 Note on, A2 key =  45 ; velocity: 127
@90660 Channel: 9 Note on, A2 key =  45 ; velocity: 0
@90660 Channel: 9 Note on, A2 key =  45 ; velocity: 127
@90690 Channel: 9 Note on, A2 key =  45 ; velocity: 0
@90690 Channel: 9 Note on, A2 key =  45 ; velocity: 127
@90720 Channel: 9 Note on, A2 key =  45 ; velocity: 0
@90720 Channel: 9 Note on, C2 key =  36 ; velocity: 127
@90720 Channel: 9 Note on, A3 key =  57 ; velocity: 127
@90780 Channel: 9 Note on, A3 key =  57 ; velocity: 0
@90780 Channel: 9 Note on, F#2 key =  42 ; velocity: 127
@90840 Channel: 9 Note on, C2 key =  36 ; velocity: 0
@90840 Channel: 9 Note on, F#2 key =  42 ; velocity: 0
@90840 Channel: 9 Note on, D2 key =  38 ; velocity: 127
@90840 Channel: 9 Note on, F#2 key =  42 ; velocity: 127
@90900 Channel: 9 Note on, D2 key =  38 ; velocity: 0
@90900 Channel: 9 Note on, F#2 key =  42 ; velocity: 0
@90900 Channel: 9 Note on, F#2 key =  42 ; velocity: 127
@90960 Channel: 9 Note on, F#2 key =  42 ; velocity: 0
@90960 Channel: 9 Note on, C2 key =  36 ; velocity: 127
@90960 Channel: 9 Note on, F#2 key =  42 ; velocity: 127
@91020 Channel: 9 Note on, F#2 key =  42 ; velocity: 0
@91020 Channel: 9 Note on, F#2 key =  42 ; velocity: 127
@91080 Channel: 9 Note on, C2 key =  36 ; velocity: 0
@91080 Channel: 9 Note on, F#2 key =  42 ; velocity: 0
@91080 Channel: 9 Note on, D2 key =  38 ; velocity: 127
@91080 Channel: 9 Note on, F#2 key =  42 ; velocity: 127
@91140 Channel: 9 Note on, D2 key =  38 ; velocity: 0
@91140 Channel: 9 Note on, F#2 key =  42 ; velocity: 0
@91140 Channel: 9 Note on, F#2 key =  42 ; velocity: 127
@91200 Channel: 9 Note on, F#2 key =  42 ; velocity: 0
@91200 Channel: 9 Note on, C2 key =  36 ; velocity: 127
@91200 Channel: 9 Note on, F#2 key =  42 ; velocity: 127
@91260 Channel: 9 Note on, F#2 key =  42 ; velocity: 0
@91260 Channel: 9 Note on, F#2 key =  42 ; velocity: 127
@91320 Channel: 9 Note on, C2 key =  36 ; velocity: 0
@91320 Channel: 9 Note on, F#2 key =  42 ; velocity: 0
@91320 Channel: 9 Note on, F#2 key =  42 ; velocity: 127
@91380 Channel: 9 Note on, F#2 key =  42 ; velocity: 0
@91380 Channel: 9 Note on, D2 key =  38 ; velocity: 127
@91380 Channel: 9 Note on, F#2 key =  42 ; velocity: 127
@91440 Channel: 9 Note on, D2 key =  38 ; velocity: 0
@91440 Channel: 9 Note on, F#2 key =  42 ; velocity: 0
@91440 Channel: 9 Note on, C2 key =  36 ; velocity: 127
@91440 Channel: 9 Note on, F#2 key =  42 ; velocity: 127
@91500 Channel: 9 Note on, C2 key =  36 ; velocity: 0
@91500 Channel: 9 Note on, F#2 key =  42 ; velocity: 0
@91500 Channel: 9 Note on, C2 key =  36 ; velocity: 127
@91500 Channel: 9 Note on, F#2 key =  42 ; velocity: 127
@91520 Channel: 9 Note on, C2 key =  36 ; velocity: 0
@91520 Channel: 9 Note on, C2 key =  36 ; velocity: 127
@91540 Channel: 9 Note on, C2 key =  36 ; velocity: 0
@91540 Channel: 9 Note on, C2 key =  36 ; velocity: 127
@91560 Channel: 9 Note on, F#2 key =  42 ; velocity: 0
@91560 Channel: 9 Note on, C2 key =  36 ; velocity: 0
@91560 Channel: 9 Note on, D2 key =  38 ; velocity: 127
@91560 Channel: 9 Note on, F#2 key =  42 ; velocity: 127
@91620 Channel: 9 Note on, D2 key =  38 ; velocity: 0
@91620 Channel: 9 Note on, F#2 key =  42 ; velocity: 0
@91620 Channel: 9 Note on, C2 key =  36 ; velocity: 127
@91620 Channel: 9 Note on, F#2 key =  42 ; velocity: 127
@91680 Channel: 9 Note on, C2 key =  36 ; velocity: 0
@91680 Channel: 9 Note on, F#2 key =  42 ; velocity: 0
@91680 Channel: 9 Note on, F#2 key =  42 ; velocity: 127
@91680 Channel: 9 Note on, C2 key =  36 ; velocity: 127
@91740 Channel: 9 Note on, F#2 key =  42 ; velocity: 0
@91740 Channel: 9 Note on, F#2 key =  42 ; velocity: 127
@91800 Channel: 9 Note on, C2 key =  36 ; velocity: 0
@91800 Channel: 9 Note on, F#2 key =  42 ; velocity: 0
@91800 Channel: 9 Note on, F#2 key =  42 ; velocity: 127
@91860 Channel: 9 Note on, F#2 key =  42 ; velocity: 0
@91860 Channel: 9 Note on, D2 key =  38 ; velocity: 127
@91860 Channel: 9 Note on, F#2 key =  42 ; velocity: 127
@91920 Channel: 9 Note on, D2 key =  38 ; velocity: 0
@91920 Channel: 9 Note on, F#2 key =  42 ; velocity: 0
@91920 Channel: 9 Note on, F#2 key =  42 ; velocity: 127
@91920 Channel: 9 Note on, C2 key =  36 ; velocity: 127
@91980 Channel: 9 Note on, F#2 key =  42 ; velocity: 0
@91980 Channel: 9 Note on, F#2 key =  42 ; velocity: 127
@92040 Channel: 9 Note on, C2 key =  36 ; velocity: 0
@92040 Channel: 9 Note on, F#2 key =  42 ; velocity: 0
@92040 Channel: 9 Note on, D2 key =  38 ; velocity: 127
@92040 Channel: 9 Note on, F#2 key =  42 ; velocity: 127
@92100 Channel: 9 Note on, D2 key =  38 ; velocity: 0
@92100 Channel: 9 Note on, F#2 key =  42 ; velocity: 0
@92100 Channel: 9 Note on, F#2 key =  42 ; velocity: 127
@92160 Channel: 9 Note on, F#2 key =  42 ; velocity: 0
@92160 Channel: 9 Note on, C2 key =  36 ; velocity: 127
@92160 Channel: 9 Note on, F#2 key =  42 ; velocity: 127
@92220 Channel: 9 Note on, F#2 key =  42 ; velocity: 0
@92220 Channel: 9 Note on, F#2 key =  42 ; velocity: 127
@92280 Channel: 9 Note on, C2 key =  36 ; velocity: 0
@92280 Channel: 9 Note on, F#2 key =  42 ; velocity: 0
@92280 Channel: 9 Note on, F#2 key =  42 ; velocity: 127
@92340 Channel: 9 Note on, F#2 key =  42 ; velocity: 0
@92340 Channel: 9 Note on, D2 key =  38 ; velocity: 127
@92340 Channel: 9 Note on, F#2 key =  42 ; velocity: 127
@92400 Channel: 9 Note on, D2 key =  38 ; velocity: 0
@92400 Channel: 9 Note on, F#2 key =  42 ; velocity: 0
@92400 Channel: 9 Note on, C2 key =  36 ; velocity: 127
@92400 Channel: 9 Note on, F#2 key =  42 ; velocity: 127
@92460 Channel: 9 Note on, C2 key =  36 ; velocity: 0
@92460 Channel: 9 Note on, F#2 key =  42 ; velocity: 0
@92460 Channel: 9 Note on, C2 key =  36 ; velocity: 127
@92460 Channel: 9 Note on, F#2 key =  42 ; velocity: 127
@92480 Channel: 9 Note on, C2 key =  36 ; velocity: 0
@92480 Channel: 9 Note on, C2 key =  36 ; velocity: 127
@92500 Channel: 9 Note on, C2 key =  36 ; velocity: 0
@92500 Channel: 9 Note on, C2 key =  36 ; velocity: 127
@92520 Channel: 9 Note on, F#2 key =  42 ; velocity: 0
@92520 Channel: 9 Note on, C2 key =  36 ; velocity: 0
@92520 Channel: 9 Note on, D2 key =  38 ; velocity: 127
@92520 Channel: 9 Note on, F#2 key =  42 ; velocity: 127
@92580 Channel: 9 Note on, D2 key =  38 ; velocity: 0
@92580 Channel: 9 Note on, F#2 key =  42 ; velocity: 0
@92580 Channel: 9 Note on, C2 key =  36 ; velocity: 127
@92580 Channel: 9 Note on, F#2 key =  42 ; velocity: 127
@92640 Channel: 9 Note on, C2 key =  36 ; velocity: 0
@92640 Channel: 9 Note on, F#2 key =  42 ; velocity: 0
@92640 Channel: 9 Note on, F#2 key =  42 ; velocity: 127
@92640 Channel: 9 Note on, C2 key =  36 ; velocity: 127
@92700 Channel: 9 Note on, F#2 key =  42 ; velocity: 0
@92700 Channel: 9 Note on, F#2 key =  42 ; velocity: 127
@92760 Channel: 9 Note on, C2 key =  36 ; velocity: 0
@92760 Channel: 9 Note on, F#2 key =  42 ; velocity: 0
@92760 Channel: 9 Note on, A3 key =  57 ; velocity: 127
@92760 Channel: 9 Note on, D2 key =  38 ; velocity: 127
@92820 Channel: 9 Note on, A3 key =  57 ; velocity: 0
@92820 Channel: 9 Note on, D2 key =  38 ; velocity: 0
@92820 Channel: 9 Note on, F#2 key =  42 ; velocity: 127
@92880 Channel: 9 Note on, F#2 key =  42 ; velocity: 0
@92880 Channel: 9 Note on, F#2 key =  42 ; velocity: 127
@92880 Channel: 9 Note on, C2 key =  36 ; velocity: 127
@92940 Channel: 9 Note on, F#2 key =  42 ; velocity: 0
@92940 Channel: 9 Note on, F#2 key =  42 ; velocity: 127
@93000 Channel: 9 Note on, C2 key =  36 ; velocity: 0
@93000 Channel: 9 Note on, F#2 key =  42 ; velocity: 0
@93000 Channel: 9 Note on, D2 key =  38 ; velocity: 127
@93000 Channel: 9 Note on, F#2 key =  42 ; velocity: 127
@93060 Channel: 9 Note on, D2 key =  38 ; velocity: 0
@93060 Channel: 9 Note on, F#2 key =  42 ; velocity: 0
@93060 Channel: 9 Note on, F#2 key =  42 ; velocity: 127
@93120 Channel: 9 Note on, F#2 key =  42 ; velocity: 0
@93120 Channel: 9 Note on, C2 key =  36 ; velocity: 127
@93120 Channel: 9 Note on, F#2 key =  42 ; velocity: 127
@93180 Channel: 9 Note on, F#2 key =  42 ; velocity: 0
@93180 Channel: 9 Note on, F#2 key =  42 ; velocity: 127
@93240 Channel: 9 Note on, C2 key =  36 ; velocity: 0
@93240 Channel: 9 Note on, F#2 key =  42 ; velocity: 0
@93240 Channel: 9 Note on, F#2 key =  42 ; velocity: 127
@93300 Channel: 9 Note on, F#2 key =  42 ; velocity: 0
@93300 Channel: 9 Note on, D2 key =  38 ; velocity: 127
@93300 Channel: 9 Note on, F#2 key =  42 ; velocity: 127
@93360 Channel: 9 Note on, D2 key =  38 ; velocity: 0
@93360 Channel: 9 Note on, F#2 key =  42 ; velocity: 0
@93360 Channel: 9 Note on, C2 key =  36 ; velocity: 127
@93360 Channel: 9 Note on, F#2 key =  42 ; velocity: 127
@93420 Channel: 9 Note on, C2 key =  36 ; velocity: 0
@93420 Channel: 9 Note on, F#2 key =  42 ; velocity: 0
@93420 Channel: 9 Note on, C2 key =  36 ; velocity: 127
@93420 Channel: 9 Note on, F#2 key =  42 ; velocity: 127
@93440 Channel: 9 Note on, C2 key =  36 ; velocity: 0
@93440 Channel: 9 Note on, C2 key =  36 ; velocity: 127
@93460 Channel: 9 Note on, C2 key =  36 ; velocity: 0
@93460 Channel: 9 Note on, C2 key =  36 ; velocity: 127
@93480 Channel: 9 Note on, F#2 key =  42 ; velocity: 0
@93480 Channel: 9 Note on, C2 key =  36 ; velocity: 0
@93480 Channel: 9 Note on, D2 key =  38 ; velocity: 127
@93480 Channel: 9 Note on, F#2 key =  42 ; velocity: 127
@93540 Channel: 9 Note on, D2 key =  38 ; velocity: 0
@93540 Channel: 9 Note on, F#2 key =  42 ; velocity: 0
@93540 Channel: 9 Note on, C2 key =  36 ; velocity: 127
@93540 Channel: 9 Note on, F#2 key =  42 ; velocity: 127
@93600 Channel: 9 Note on, C2 key =  36 ; velocity: 0
@93600 Channel: 9 Note on, F#2 key =  42 ; velocity: 0
@93600 Channel: 9 Note on, C2 key =  36 ; velocity: 127
@93600 Channel: 9 Note on, F#2 key =  42 ; velocity: 127
@93660 Channel: 9 Note on, F#2 key =  42 ; velocity: 0
@93660 Channel: 9 Note on, F#2 key =  42 ; velocity: 127
@93720 Channel: 9 Note on, C2 key =  36 ; velocity: 0
@93720 Channel: 9 Note on, F#2 key =  42 ; velocity: 0
@93720 Channel: 9 Note on, F#2 key =  42 ; velocity: 127
@93780 Channel: 9 Note on, F#2 key =  42 ; velocity: 0
@93780 Channel: 9 Note on, A3 key =  57 ; velocity: 127
@93780 Channel: 9 Note on, D2 key =  38 ; velocity: 127
@93840 Channel: 9 Note on, A3 key =  57 ; velocity: 0
@93840 Channel: 9 Note on, D2 key =  38 ; velocity: 0
@93840 Channel: 9 Note on, C2 key =  36 ; velocity: 127
@93840 Channel: 9 Note on, F#2 key =  42 ; velocity: 127
@93900 Channel: 9 Note on, C2 key =  36 ; velocity: 0
@93900 Channel: 9 Note on, F#2 key =  42 ; velocity: 0
@93900 Channel: 9 Note on, C2 key =  36 ; velocity: 127
@93900 Channel: 9 Note on, F#2 key =  42 ; velocity: 127
@93920 Channel: 9 Note on, C2 key =  36 ; velocity: 0
@93920 Channel: 9 Note on, C2 key =  36 ; velocity: 127
@93940 Channel: 9 Note on, C2 key =  36 ; velocity: 0
@93940 Channel: 9 Note on, C2 key =  36 ; velocity: 127
@93960 Channel: 9 Note on, F#2 key =  42 ; velocity: 0
@93960 Channel: 9 Note on, C2 key =  36 ; velocity: 0
@93960 Channel: 9 Note on, A3 key =  57 ; velocity: 127
@93960 Channel: 9 Note on, D2 key =  38 ; velocity: 127
@94020 Channel: 9 Note on, A3 key =  57 ; velocity: 0
@94020 Channel: 9 Note on, D2 key =  38 ; velocity: 0
@94020 Channel: 9 Note on, F#2 key =  42 ; velocity: 127
@94080 Channel: 9 Note on, F#2 key =  42 ; velocity: 0
@94080 Channel: 9 Note on, F#2 key =  42 ; velocity: 127
@94080 Channel: 9 Note on, C2 key =  36 ; velocity: 127
@94140 Channel: 9 Note on, F#2 key =  42 ; velocity: 0
@94140 Channel: 9 Note on, C2 key =  36 ; velocity: 0
@94140 Channel: 9 Note on, F#2 key =  42 ; velocity: 127
@94140 Channel: 9 Note on, C2 key =  36 ; velocity: 127
@94160 Channel: 9 Note on, C2 key =  36 ; velocity: 0
@94160 Channel: 9 Note on, C2 key =  36 ; velocity: 127
@94180 Channel: 9 Note on, C2 key =  36 ; velocity: 0
@94180 Channel: 9 Note on, C2 key =  36 ; velocity: 127
@94200 Channel: 9 Note on, F#2 key =  42 ; velocity: 0
@94200 Channel: 9 Note on, C2 key =  36 ; velocity: 0
@94200 Channel: 9 Note on, D2 key =  38 ; velocity: 127
@94200 Channel: 9 Note on, A3 key =  57 ; velocity: 127
@94260 Channel: 9 Note on, D2 key =  38 ; velocity: 0
@94260 Channel: 9 Note on, A3 key =  57 ; velocity: 0
@94260 Channel: 9 Note on, D2 key =  38 ; velocity: 127
@94290 Channel: 9 Note on, D2 key =  38 ; velocity: 0
@94290 Channel: 9 Note on, D2 key =  38 ; velocity: 127
@94320 Channel: 9 Note on, D2 key =  38 ; velocity: 0
@94320 Channel: 9 Note on, A2 key =  45 ; velocity: 127
@94380 Channel: 9 Note on, A2 key =  45 ; velocity: 0
@94380 Channel: 9 Note on, A2 key =  45 ; velocity: 127
@94410 Channel: 9 Note on, A2 key =  45 ; velocity: 0
@94410 Channel: 9 Note on, A2 key =  45 ; velocity: 127
@94440 Channel: 9 Note on, A2 key =  45 ; velocity: 0
@94440 Channel: 9 Note on, B2 key =  47 ; velocity: 127
@94500 Channel: 9 Note on, B2 key =  47 ; velocity: 0
@94500 Channel: 9 Note on, B2 key =  47 ; velocity: 127
@94530 Channel: 9 Note on, B2 key =  47 ; velocity: 0
@94530 Channel: 9 Note on, B2 key =  47 ; velocity: 127
@94560 Channel: 9 Note on, B2 key =  47 ; velocity: 0
@94560 Channel: 9 Note on, A3 key =  57 ; velocity: 127
@94560 Channel: 9 Note on, C2 key =  36 ; velocity: 127
@94620 Channel: 9 Note on, A3 key =  57 ; velocity: 0
@94620 Channel: 9 Note on, B3 key =  59 ; velocity: 127
@94680 Channel: 9 Note on, C2 key =  36 ; velocity: 0
@94680 Channel: 9 Note on, B3 key =  59 ; velocity: 0
@94680 Channel: 9 Note on, D2 key =  38 ; velocity: 127
@94680 Channel: 9 Note on, B3 key =  59 ; velocity: 127
@94740 Channel: 9 Note on, D2 key =  38 ; velocity: 0
@94740 Channel: 9 Note on, B3 key =  59 ; velocity: 0
@94740 Channel: 9 Note on, B3 key =  59 ; velocity: 127
@94800 Channel: 9 Note on, B3 key =  59 ; velocity: 0
@94800 Channel: 9 Note on, B3 key =  59 ; velocity: 127
@94800 Channel: 9 Note on, C2 key =  36 ; velocity: 127
@94860 Channel: 9 Note on, B3 key =  59 ; velocity: 0
@94860 Channel: 9 Note on, A2 key =  45 ; velocity: 127
@94890 Channel: 9 Note on, A2 key =  45 ; velocity: 0
@94890 Channel: 9 Note on, A2 key =  45 ; velocity: 127
@94920 Channel: 9 Note on, C2 key =  36 ; velocity: 0
@94920 Channel: 9 Note on, A2 key =  45 ; velocity: 0
@94920 Channel: 9 Note on, A3 key =  57 ; velocity: 127
@94920 Channel: 9 Note on, C2 key =  36 ; velocity: 127
@94980 Channel: 9 Note on, A3 key =  57 ; velocity: 0
@94980 Channel: 9 Note on, C2 key =  36 ; velocity: 0
@94980 Channel: 9 Note on, A3 key =  57 ; velocity: 127
@94980 Channel: 9 Note on, C2 key =  36 ; velocity: 127
@95040 Channel: 9 Note on, A3 key =  57 ; velocity: 0
@95040 Channel: 9 Note on, C2 key =  36 ; velocity: 0
@95040 Channel: 9 Note on, A3 key =  57 ; velocity: 127
@95040 Channel: 9 Note on, C2 key =  36 ; velocity: 127
@95100 Channel: 9 Note on, A3 key =  57 ; velocity: 0
@95100 Channel: 9 Note on, B3 key =  59 ; velocity: 127
@95160 Channel: 9 Note on, C2 key =  36 ; velocity: 0
@95160 Channel: 9 Note on, B3 key =  59 ; velocity: 0
@95160 Channel: 9 Note on, D2 key =  38 ; velocity: 127
@95160 Channel: 9 Note on, B3 key =  59 ; velocity: 127
@95220 Channel: 9 Note on, D2 key =  38 ; velocity: 0
@95220 Channel: 9 Note on, B3 key =  59 ; velocity: 0
@95220 Channel: 9 Note on, B3 key =  59 ; velocity: 127
@95280 Channel: 9 Note on, B3 key =  59 ; velocity: 0
@95280 Channel: 9 Note on, B3 key =  59 ; velocity: 127
@95280 Channel: 9 Note on, C2 key =  36 ; velocity: 127
@95340 Channel: 9 Note on, B3 key =  59 ; velocity: 0
@95340 Channel: 9 Note on, A2 key =  45 ; velocity: 127
@95370 Channel: 9 Note on, A2 key =  45 ; velocity: 0
@95370 Channel: 9 Note on, A2 key =  45 ; velocity: 127
@95400 Channel: 9 Note on, C2 key =  36 ; velocity: 0
@95400 Channel: 9 Note on, A2 key =  45 ; velocity: 0
@95400 Channel: 9 Note on, A3 key =  57 ; velocity: 127
@95400 Channel: 9 Note on, C2 key =  36 ; velocity: 127
@95460 Channel: 9 Note on, A3 key =  57 ; velocity: 0
@95460 Channel: 9 Note on, C2 key =  36 ; velocity: 0
@95460 Channel: 9 Note on, A3 key =  57 ; velocity: 127
@95460 Channel: 9 Note on, C2 key =  36 ; velocity: 127
@95520 Channel: 9 Note on, A3 key =  57 ; velocity: 0
@95520 Channel: 9 Note on, C2 key =  36 ; velocity: 0
@95520 Channel: 9 Note on, A3 key =  57 ; velocity: 127
@95520 Channel: 9 Note on, C2 key =  36 ; velocity: 127
@95580 Channel: 9 Note on, A3 key =  57 ; velocity: 0
@95580 Channel: 9 Note on, B3 key =  59 ; velocity: 127
@95640 Channel: 9 Note on, C2 key =  36 ; velocity: 0
@95640 Channel: 9 Note on, B3 key =  59 ; velocity: 0
@95640 Channel: 9 Note on, D2 key =  38 ; velocity: 127
@95640 Channel: 9 Note on, B3 key =  59 ; velocity: 127
@95700 Channel: 9 Note on, D2 key =  38 ; velocity: 0
@95700 Channel: 9 Note on, B3 key =  59 ; velocity: 0
@95700 Channel: 9 Note on, B3 key =  59 ; velocity: 127
@95760 Channel: 9 Note on, B3 key =  59 ; velocity: 0
@95760 Channel: 9 Note on, B3 key =  59 ; velocity: 127
@95760 Channel: 9 Note on, C2 key =  36 ; velocity: 127
@95820 Channel: 9 Note on, B3 key =  59 ; velocity: 0
@95820 Channel: 9 Note on, A2 key =  45 ; velocity: 127
@95850 Channel: 9 Note on, A2 key =  45 ; velocity: 0
@95850 Channel: 9 Note on, A2 key =  45 ; velocity: 127
@95880 Channel: 9 Note on, C2 key =  36 ; velocity: 0
@95880 Channel: 9 Note on, A2 key =  45 ; velocity: 0
@95880 Channel: 9 Note on, A3 key =  57 ; velocity: 127
@95880 Channel: 9 Note on, C2 key =  36 ; velocity: 127
@95940 Channel: 9 Note on, A3 key =  57 ; velocity: 0
@95940 Channel: 9 Note on, C2 key =  36 ; velocity: 0
@95940 Channel: 9 Note on, A3 key =  57 ; velocity: 127
@95940 Channel: 9 Note on, C2 key =  36 ; velocity: 127
@96000 Channel: 9 Note on, A3 key =  57 ; velocity: 0
@96000 Channel: 9 Note on, C2 key =  36 ; velocity: 0
@96000 Channel: 9 Note on, A3 key =  57 ; velocity: 127
@96000 Channel: 9 Note on, C2 key =  36 ; velocity: 127
@96060 Channel: 9 Note on, A3 key =  57 ; velocity: 0
@96060 Channel: 9 Note on, B3 key =  59 ; velocity: 127
@96120 Channel: 9 Note on, C2 key =  36 ; velocity: 0
@96120 Channel: 9 Note on, B3 key =  59 ; velocity: 0
@96120 Channel: 9 Note on, D2 key =  38 ; velocity: 127
@96120 Channel: 9 Note on, B3 key =  59 ; velocity: 127
@96180 Channel: 9 Note on, D2 key =  38 ; velocity: 0
@96180 Channel: 9 Note on, B3 key =  59 ; velocity: 0
@96180 Channel: 9 Note on, B3 key =  59 ; velocity: 127
@96240 Channel: 9 Note on, B3 key =  59 ; velocity: 0
@96240 Channel: 9 Note on, C2 key =  36 ; velocity: 127
@96240 Channel: 9 Note on, B3 key =  59 ; velocity: 127
@96300 Channel: 9 Note on, C2 key =  36 ; velocity: 0
@96300 Channel: 9 Note on, B3 key =  59 ; velocity: 0
@96300 Channel: 9 Note on, B3 key =  59 ; velocity: 127
@96300 Channel: 9 Note on, C2 key =  36 ; velocity: 127
@96360 Channel: 9 Note on, B3 key =  59 ; velocity: 0
@96360 Channel: 9 Note on, C2 key =  36 ; velocity: 0
@96360 Channel: 9 Note on, A2 key =  45 ; velocity: 127
@96390 Channel: 9 Note on, A2 key =  45 ; velocity: 0
@96390 Channel: 9 Note on, A2 key =  45 ; velocity: 127
@96420 Channel: 9 Note on, A2 key =  45 ; velocity: 0
@96420 Channel: 9 Note on, A2 key =  45 ; velocity: 127
@96480 Channel: 9 Note on, A2 key =  45 ; velocity: 0
@96480 Channel: 9 Note on, A3 key =  57 ; velocity: 127
@96480 Channel: 9 Note on, C2 key =  36 ; velocity: 127
@96540 Channel: 9 Note on, A3 key =  57 ; velocity: 0
@96540 Channel: 9 Note on, B3 key =  59 ; velocity: 127
@96600 Channel: 9 Note on, C2 key =  36 ; velocity: 0
@96600 Channel: 9 Note on, B3 key =  59 ; velocity: 0
@96600 Channel: 9 Note on, D2 key =  38 ; velocity: 127
@96600 Channel: 9 Note on, B3 key =  59 ; velocity: 127
@96660 Channel: 9 Note on, D2 key =  38 ; velocity: 0
@96660 Channel: 9 Note on, B3 key =  59 ; velocity: 0
@96660 Channel: 9 Note on, B3 key =  59 ; velocity: 127
@96720 Channel: 9 Note on, B3 key =  59 ; velocity: 0
@96720 Channel: 9 Note on, B3 key =  59 ; velocity: 127
@96720 Channel: 9 Note on, C2 key =  36 ; velocity: 127
@96780 Channel: 9 Note on, B3 key =  59 ; velocity: 0
@96780 Channel: 9 Note on, A2 key =  45 ; velocity: 127
@96810 Channel: 9 Note on, A2 key =  45 ; velocity: 0
@96810 Channel: 9 Note on, A2 key =  45 ; velocity: 127
@96840 Channel: 9 Note on, C2 key =  36 ; velocity: 0
@96840 Channel: 9 Note on, A2 key =  45 ; velocity: 0
@96840 Channel: 9 Note on, A3 key =  57 ; velocity: 127
@96840 Channel: 9 Note on, C2 key =  36 ; velocity: 127
@96900 Channel: 9 Note on, A3 key =  57 ; velocity: 0
@96900 Channel: 9 Note on, C2 key =  36 ; velocity: 0
@96900 Channel: 9 Note on, A3 key =  57 ; velocity: 127
@96900 Channel: 9 Note on, C2 key =  36 ; velocity: 127
@96960 Channel: 9 Note on, A3 key =  57 ; velocity: 0
@96960 Channel: 9 Note on, C2 key =  36 ; velocity: 0
@96960 Channel: 9 Note on, A3 key =  57 ; velocity: 127
@96960 Channel: 9 Note on, C2 key =  36 ; velocity: 127
@97020 Channel: 9 Note on, A3 key =  57 ; velocity: 0
@97020 Channel: 9 Note on, B3 key =  59 ; velocity: 127
@97080 Channel: 9 Note on, C2 key =  36 ; velocity: 0
@97080 Channel: 9 Note on, B3 key =  59 ; velocity: 0
@97080 Channel: 9 Note on, D2 key =  38 ; velocity: 127
@97080 Channel: 9 Note on, B3 key =  59 ; velocity: 127
@97140 Channel: 9 Note on, D2 key =  38 ; velocity: 0
@97140 Channel: 9 Note on, B3 key =  59 ; velocity: 0
@97140 Channel: 9 Note on, B3 key =  59 ; velocity: 127
@97200 Channel: 9 Note on, B3 key =  59 ; velocity: 0
@97200 Channel: 9 Note on, B3 key =  59 ; velocity: 127
@97200 Channel: 9 Note on, C2 key =  36 ; velocity: 127
@97260 Channel: 9 Note on, B3 key =  59 ; velocity: 0
@97260 Channel: 9 Note on, A2 key =  45 ; velocity: 127
@97290 Channel: 9 Note on, A2 key =  45 ; velocity: 0
@97290 Channel: 9 Note on, A2 key =  45 ; velocity: 127
@97320 Channel: 9 Note on, C2 key =  36 ; velocity: 0
@97320 Channel: 9 Note on, A2 key =  45 ; velocity: 0
@97320 Channel: 9 Note on, A3 key =  57 ; velocity: 127
@97320 Channel: 9 Note on, C2 key =  36 ; velocity: 127
@97380 Channel: 9 Note on, A3 key =  57 ; velocity: 0
@97380 Channel: 9 Note on, C2 key =  36 ; velocity: 0
@97380 Channel: 9 Note on, A3 key =  57 ; velocity: 127
@97380 Channel: 9 Note on, C2 key =  36 ; velocity: 127
@97440 Channel: 9 Note on, A3 key =  57 ; velocity: 0
@97440 Channel: 9 Note on, C2 key =  36 ; velocity: 0
@97440 Channel: 9 Note on, A3 key =  57 ; velocity: 127
@97440 Channel: 9 Note on, C2 key =  36 ; velocity: 127
@97500 Channel: 9 Note on, A3 key =  57 ; velocity: 0
@97500 Channel: 9 Note on, B3 key =  59 ; velocity: 127
@97560 Channel: 9 Note on, C2 key =  36 ; velocity: 0
@97560 Channel: 9 Note on, B3 key =  59 ; velocity: 0
@97560 Channel: 9 Note on, D2 key =  38 ; velocity: 127
@97560 Channel: 9 Note on, B3 key =  59 ; velocity: 127
@97620 Channel: 9 Note on, D2 key =  38 ; velocity: 0
@97620 Channel: 9 Note on, B3 key =  59 ; velocity: 0
@97620 Channel: 9 Note on, B3 key =  59 ; velocity: 127
@97680 Channel: 9 Note on, B3 key =  59 ; velocity: 0
@97680 Channel: 9 Note on, B3 key =  59 ; velocity: 127
@97680 Channel: 9 Note on, C2 key =  36 ; velocity: 127
@97740 Channel: 9 Note on, B3 key =  59 ; velocity: 0
@97740 Channel: 9 Note on, A2 key =  45 ; velocity: 127
@97770 Channel: 9 Note on, A2 key =  45 ; velocity: 0
@97770 Channel: 9 Note on, A2 key =  45 ; velocity: 127
@97800 Channel: 9 Note on, C2 key =  36 ; velocity: 0
@97800 Channel: 9 Note on, A2 key =  45 ; velocity: 0
@97800 Channel: 9 Note on, A3 key =  57 ; velocity: 127
@97800 Channel: 9 Note on, C2 key =  36 ; velocity: 127
@97860 Channel: 9 Note on, A3 key =  57 ; velocity: 0
@97860 Channel: 9 Note on, C2 key =  36 ; velocity: 0
@97860 Channel: 9 Note on, A3 key =  57 ; velocity: 127
@97860 Channel: 9 Note on, C2 key =  36 ; velocity: 127
@97920 Channel: 9 Note on, A3 key =  57 ; velocity: 0
@97920 Channel: 9 Note on, C2 key =  36 ; velocity: 0
@97920 Channel: 9 Note on, C2 key =  36 ; velocity: 127
@97920 Channel: 9 Note on, A3 key =  57 ; velocity: 127
@97980 Channel: 9 Note on, A3 key =  57 ; velocity: 0
@97980 Channel: 9 Note on, D2 key =  38 ; velocity: 127
@98010 Channel: 9 Note on, D2 key =  38 ; velocity: 0
@98010 Channel: 9 Note on, D2 key =  38 ; velocity: 127
@98040 Channel: 9 Note on, C2 key =  36 ; velocity: 0
@98040 Channel: 9 Note on, D2 key =  38 ; velocity: 0
@98040 Channel: 9 Note on, D2 key =  38 ; velocity: 127
@98100 Channel: 9 Note on, D2 key =  38 ; velocity: 0
@98100 Channel: 9 Note on, D2 key =  38 ; velocity: 127
@98130 Channel: 9 Note on, D2 key =  38 ; velocity: 0
@98130 Channel: 9 Note on, D2 key =  38 ; velocity: 127
@98160 Channel: 9 Note on, D2 key =  38 ; velocity: 0
@98160 Channel: 9 Note on, D2 key =  38 ; velocity: 127
@98220 Channel: 9 Note on, D2 key =  38 ; velocity: 0
@98220 Channel: 9 Note on, D2 key =  38 ; velocity: 127
@98250 Channel: 9 Note on, D2 key =  38 ; velocity: 0
@98250 Channel: 9 Note on, D2 key =  38 ; velocity: 127
@98280 Channel: 9 Note on, D2 key =  38 ; velocity: 0
@98280 Channel: 9 Note on, D2 key =  38 ; velocity: 127
@98340 Channel: 9 Note on, D2 key =  38 ; velocity: 0
@98340 Channel: 9 Note on, D2 key =  38 ; velocity: 127
@98400 Channel: 9 Note on, D2 key =  38 ; velocity: 0
@98400 Channel: 9 Note on, A3 key =  57 ; velocity: 127
@98400 Channel: 9 Note on, C2 key =  36 ; velocity: 127
@98460 Channel: 9 Note on, A3 key =  57 ; velocity: 0
@98460 Channel: 9 Note on, D2 key =  38 ; velocity: 127
@98490 Channel: 9 Note on, D2 key =  38 ; velocity: 0
@98490 Channel: 9 Note on, D2 key =  38 ; velocity: 127
@98520 Channel: 9 Note on, C2 key =  36 ; velocity: 0
@98520 Channel: 9 Note on, D2 key =  38 ; velocity: 0
@98520 Channel: 9 Note on, D2 key =  38 ; velocity: 127
@98580 Channel: 9 Note on, D2 key =  38 ; velocity: 0
@98580 Channel: 9 Note on, D2 key =  38 ; velocity: 127
@98610 Channel: 9 Note on, D2 key =  38 ; velocity: 0
@98610 Channel: 9 Note on, D2 key =  38 ; velocity: 127
@98640 Channel: 9 Note on, D2 key =  38 ; velocity: 0
@98640 Channel: 9 Note on, A2 key =  45 ; velocity: 127
@98700 Channel: 9 Note on, A2 key =  45 ; velocity: 0
@98700 Channel: 9 Note on, A2 key =  45 ; velocity: 127
@98730 Channel: 9 Note on, A2 key =  45 ; velocity: 0
@98730 Channel: 9 Note on, A2 key =  45 ; velocity: 127
@98760 Channel: 9 Note on, A2 key =  45 ; velocity: 0
@98760 Channel: 9 Note on, B2 key =  47 ; velocity: 127
@98820 Channel: 9 Note on, B2 key =  47 ; velocity: 0
@98820 Channel: 9 Note on, B2 key =  47 ; velocity: 127
@98880 Channel: 9 Note on, B2 key =  47 ; velocity: 0
@98880 Channel: 9 Note on, A3 key =  57 ; velocity: 127
@98880 Channel: 9 Note on, C2 key =  36 ; velocity: 127
@98940 Channel: 9 Note on, A3 key =  57 ; velocity: 0
@98940 Channel: 9 Note on, F#2 key =  42 ; velocity: 127
@99000 Channel: 9 Note on, C2 key =  36 ; velocity: 0
@99000 Channel: 9 Note on, F#2 key =  42 ; velocity: 0
@99000 Channel: 9 Note on, D2 key =  38 ; velocity: 127
@99000 Channel: 9 Note on, F#2 key =  42 ; velocity: 127
@99060 Channel: 9 Note on, D2 key =  38 ; velocity: 0
@99060 Channel: 9 Note on, F#2 key =  42 ; velocity: 0
@99060 Channel: 9 Note on, F#2 key =  42 ; velocity: 127
@99120 Channel: 9 Note on, F#2 key =  42 ; velocity: 0
@99120 Channel: 9 Note on, C2 key =  36 ; velocity: 127
@99120 Channel: 9 Note on, F#2 key =  42 ; velocity: 127
@99180 Channel: 9 Note on, C2 key =  36 ; velocity: 0
@99180 Channel: 9 Note on, F#2 key =  42 ; velocity: 0
@99180 Channel: 9 Note on, C2 key =  36 ; velocity: 127
@99180 Channel: 9 Note on, F#2 key =  42 ; velocity: 127
@99200 Channel: 9 Note on, C2 key =  36 ; velocity: 0
@99200 Channel: 9 Note on, C2 key =  36 ; velocity: 127
@99220 Channel: 9 Note on, C2 key =  36 ; velocity: 0
@99220 Channel: 9 Note on, C2 key =  36 ; velocity: 127
@99240 Channel: 9 Note on, F#2 key =  42 ; velocity: 0
@99240 Channel: 9 Note on, C2 key =  36 ; velocity: 0
@99240 Channel: 9 Note on, D2 key =  38 ; velocity: 127
@99240 Channel: 9 Note on, F#2 key =  42 ; velocity: 127
@99300 Channel: 9 Note on, D2 key =  38 ; velocity: 0
@99300 Channel: 9 Note on, F#2 key =  42 ; velocity: 0
@99300 Channel: 9 Note on, F#2 key =  42 ; velocity: 127
@99360 Channel: 9 Note on, F#2 key =  42 ; velocity: 0
@99360 Channel: 9 Note on, C2 key =  36 ; velocity: 127
@99360 Channel: 9 Note on, A3 key =  57 ; velocity: 127
@99420 Channel: 9 Note on, A3 key =  57 ; velocity: 0
@99420 Channel: 9 Note on, F#2 key =  42 ; velocity: 127
@99480 Channel: 9 Note on, C2 key =  36 ; velocity: 0
@99480 Channel: 9 Note on, F#2 key =  42 ; velocity: 0
@99480 Channel: 9 Note on, D2 key =  38 ; velocity: 127
@99480 Channel: 9 Note on, F#2 key =  42 ; velocity: 127
@99540 Channel: 9 Note on, D2 key =  38 ; velocity: 0
@99540 Channel: 9 Note on, F#2 key =  42 ; velocity: 0
@99540 Channel: 9 Note on, F#2 key =  42 ; velocity: 127
@99600 Channel: 9 Note on, F#2 key =  42 ; velocity: 0
@99600 Channel: 9 Note on, D2 key =  38 ; velocity: 127
@99630 Channel: 9 Note on, D2 key =  38 ; velocity: 0
@99630 Channel: 9 Note on, D2 key =  38 ; velocity: 127
@99660 Channel: 9 Note on, D2 key =  38 ; velocity: 0
@99660 Channel: 9 Note on, D2 key =  38 ; velocity: 127
@99720 Channel: 9 Note on, D2 key =  38 ; velocity: 0
@99720 Channel: 9 Note on, A2 key =  45 ; velocity: 127
@99750 Channel: 9 Note on, A2 key =  45 ; velocity: 0
@99750 Channel: 9 Note on, A2 key =  45 ; velocity: 127
@99780 Channel: 9 Note on, A2 key =  45 ; velocity: 0
@99780 Channel: 9 Note on, A2 key =  45 ; velocity: 127
@99840 Channel: 9 Note on, A2 key =  45 ; velocity: 0
@99840 Channel: 9 Note on, A3 key =  57 ; velocity: 127
@99840 Channel: 9 Note on, C2 key =  36 ; velocity: 127
@99900 Channel: 9 Note on, A3 key =  57 ; velocity: 0
@99900 Channel: 9 Note on, F#2 key =  42 ; velocity: 127
@99960 Channel: 9 Note on, C2 key =  36 ; velocity: 0
@99960 Channel: 9 Note on, F#2 key =  42 ; velocity: 0
@99960 Channel: 9 Note on, D2 key =  38 ; velocity: 127
@99960 Channel: 9 Note on, F#2 key =  42 ; velocity: 127
@100020 Channel: 9 Note on, D2 key =  38 ; velocity: 0
@100020 Channel: 9 Note on, F#2 key =  42 ; velocity: 0
@100020 Channel: 9 Note on, F#2 key =  42 ; velocity: 127
@100080 Channel: 9 Note on, F#2 key =  42 ; velocity: 0
@100080 Channel: 9 Note on, F#2 key =  42 ; velocity: 127
@100080 Channel: 9 Note on, C2 key =  36 ; velocity: 127
@100140 Channel: 9 Note on, F#2 key =  42 ; velocity: 0
@100140 Channel: 9 Note on, F#2 key =  42 ; velocity: 127
@100200 Channel: 9 Note on, C2 key =  36 ; velocity: 0
@100200 Channel: 9 Note on, F#2 key =  42 ; velocity: 0
@100200 Channel: 9 Note on, D2 key =  38 ; velocity: 127
@100200 Channel: 9 Note on, F#2 key =  42 ; velocity: 127
@100260 Channel: 9 Note on, D2 key =  38 ; velocity: 0
@100260 Channel: 9 Note on, F#2 key =  42 ; velocity: 0
@100260 Channel: 9 Note on, F#2 key =  42 ; velocity: 127
@100320 Channel: 9 Note on, F#2 key =  42 ; velocity: 0
@100320 Channel: 9 Note on, C2 key =  36 ; velocity: 127
@100320 Channel: 9 Note on, F#2 key =  42 ; velocity: 127
@100380 Channel: 9 Note on, F#2 key =  42 ; velocity: 0
@100380 Channel: 9 Note on, F#2 key =  42 ; velocity: 127
@100440 Channel: 9 Note on, C2 key =  36 ; velocity: 0
@100440 Channel: 9 Note on, F#2 key =  42 ; velocity: 0
@100440 Channel: 9 Note on, D2 key =  38 ; velocity: 127
@100440 Channel: 9 Note on, F#2 key =  42 ; velocity: 127
@100500 Channel: 9 Note on, D2 key =  38 ; velocity: 0
@100500 Channel: 9 Note on, F#2 key =  42 ; velocity: 0
@100500 Channel: 9 Note on, C2 key =  36 ; velocity: 127
@100500 Channel: 9 Note on, F#2 key =  42 ; velocity: 127
@100520 Channel: 9 Note on, C2 key =  36 ; velocity: 0
@100520 Channel: 9 Note on, C2 key =  36 ; velocity: 127
@100540 Channel: 9 Note on, C2 key =  36 ; velocity: 0
@100540 Channel: 9 Note on, C2 key =  36 ; velocity: 127
@100560 Channel: 9 Note on, F#2 key =  42 ; velocity: 0
@100560 Channel: 9 Note on, C2 key =  36 ; velocity: 0
@100560 Channel: 9 Note on, D2 key =  38 ; velocity: 127
@100560 Channel: 9 Note on, F#2 key =  42 ; velocity: 127
@100620 Channel: 9 Note on, D2 key =  38 ; velocity: 0
@100620 Channel: 9 Note on, F#2 key =  42 ; velocity: 0
@100620 Channel: 9 Note on, C2 key =  36 ; velocity: 127
@100620 Channel: 9 Note on, F#2 key =  42 ; velocity: 127
@100640 Channel: 9 Note on, C2 key =  36 ; velocity: 0
@100640 Channel: 9 Note on, C2 key =  36 ; velocity: 127
@100660 Channel: 9 Note on, C2 key =  36 ; velocity: 0
@100660 Channel: 9 Note on, C2 key =  36 ; velocity: 127
@100680 Channel: 9 Note on, F#2 key =  42 ; velocity: 0
@100680 Channel: 9 Note on, C2 key =  36 ; velocity: 0
@100680 Channel: 9 Note on, D2 key =  38 ; velocity: 127
@100680 Channel: 9 Note on, F#2 key =  42 ; velocity: 127
@100740 Channel: 9 Note on, D2 key =  38 ; velocity: 0
@100740 Channel: 9 Note on, F#2 key =  42 ; velocity: 0
@100740 Channel: 9 Note on, C2 key =  36 ; velocity: 127
@100740 Channel: 9 Note on, F#2 key =  42 ; velocity: 127
@100800 Channel: 9 Note on, C2 key =  36 ; velocity: 0
@100800 Channel: 9 Note on, F#2 key =  42 ; velocity: 0
@100800 Channel: 9 Note on, A3 key =  57 ; velocity: 127
@100800 Channel: 9 Note on, C2 key =  36 ; velocity: 127
@100860 Channel: 9 Note on, A3 key =  57 ; velocity: 0
@100860 Channel: 9 Note on, F#2 key =  42 ; velocity: 127
@100920 Channel: 9 Note on, C2 key =  36 ; velocity: 0
@100920 Channel: 9 Note on, F#2 key =  42 ; velocity: 0
@100920 Channel: 9 Note on, D2 key =  38 ; velocity: 127
@100920 Channel: 9 Note on, F#2 key =  42 ; velocity: 127
@100980 Channel: 9 Note on, D2 key =  38 ; velocity: 0
@100980 Channel: 9 Note on, F#2 key =  42 ; velocity: 0
@100980 Channel: 9 Note on, F#2 key =  42 ; velocity: 127
@101040 Channel: 9 Note on, F#2 key =  42 ; velocity: 0
@101040 Channel: 9 Note on, F#2 key =  42 ; velocity: 127
@101040 Channel: 9 Note on, C2 key =  36 ; velocity: 127
@101100 Channel: 9 Note on, F#2 key =  42 ; velocity: 0
@101100 Channel: 9 Note on, C2 key =  36 ; velocity: 0
@101100 Channel: 9 Note on, F#2 key =  42 ; velocity: 127
@101100 Channel: 9 Note on, C2 key =  36 ; velocity: 127
@101120 Channel: 9 Note on, C2 key =  36 ; velocity: 0
@101120 Channel: 9 Note on, C2 key =  36 ; velocity: 127
@101140 Channel: 9 Note on, C2 key =  36 ; velocity: 0
@101140 Channel: 9 Note on, C2 key =  36 ; velocity: 127
@101160 Channel: 9 Note on, F#2 key =  42 ; velocity: 0
@101160 Channel: 9 Note on, C2 key =  36 ; velocity: 0
@101160 Channel: 9 Note on, D2 key =  38 ; velocity: 127
@101160 Channel: 9 Note on, F#2 key =  42 ; velocity: 127
@101220 Channel: 9 Note on, D2 key =  38 ; velocity: 0
@101220 Channel: 9 Note on, F#2 key =  42 ; velocity: 0
@101220 Channel: 9 Note on, F#2 key =  42 ; velocity: 127
@101220 Channel: 9 Note on, C2 key =  36 ; velocity: 127
@101280 Channel: 9 Note on, F#2 key =  42 ; velocity: 0
@101280 Channel: 9 Note on, C2 key =  36 ; velocity: 0
@101280 Channel: 9 Note on, C2 key =  36 ; velocity: 127
@101280 Channel: 9 Note on, A3 key =  57 ; velocity: 127
@101340 Channel: 9 Note on, A3 key =  57 ; velocity: 0
@101340 Channel: 9 Note on, F#2 key =  42 ; velocity: 127
@101400 Channel: 9 Note on, C2 key =  36 ; velocity: 0
@101400 Channel: 9 Note on, F#2 key =  42 ; velocity: 0
@101400 Channel: 9 Note on, D2 key =  38 ; velocity: 127
@101400 Channel: 9 Note on, F#2 key =  42 ; velocity: 127
@101460 Channel: 9 Note on, D2 key =  38 ; velocity: 0
@101460 Channel: 9 Note on, F#2 key =  42 ; velocity: 0
@101460 Channel: 9 Note on, F#2 key =  42 ; velocity: 127
@101520 Channel: 9 Note on, F#2 key =  42 ; velocity: 0
@101520 Channel: 9 Note on, A2 key =  45 ; velocity: 127
@101580 Channel: 9 Note on, A2 key =  45 ; velocity: 0
@101580 Channel: 9 Note on, A2 key =  45 ; velocity: 127
@101640 Channel: 9 Note on, A2 key =  45 ; velocity: 0
@101640 Channel: 9 Note on, B2 key =  47 ; velocity: 127
@101670 Channel: 9 Note on, B2 key =  47 ; velocity: 0
@101670 Channel: 9 Note on, B2 key =  47 ; velocity: 127
@101700 Channel: 9 Note on, B2 key =  47 ; velocity: 0
@101700 Channel: 9 Note on, B2 key =  47 ; velocity: 127
@101730 Channel: 9 Note on, B2 key =  47 ; velocity: 0
@101730 Channel: 9 Note on, B2 key =  47 ; velocity: 127
@101760 Channel: 9 Note on, B2 key =  47 ; velocity: 0
@101760 Channel: 9 Note on, A3 key =  57 ; velocity: 127
@101760 Channel: 9 Note on, C2 key =  36 ; velocity: 127
@101820 Channel: 9 Note on, A3 key =  57 ; velocity: 0
@101820 Channel: 9 Note on, F#2 key =  42 ; velocity: 127
@101880 Channel: 9 Note on, C2 key =  36 ; velocity: 0
@101880 Channel: 9 Note on, F#2 key =  42 ; velocity: 0
@101880 Channel: 9 Note on, D2 key =  38 ; velocity: 127
@101880 Channel: 9 Note on, F#2 key =  42 ; velocity: 127
@101940 Channel: 9 Note on, D2 key =  38 ; velocity: 0
@101940 Channel: 9 Note on, F#2 key =  42 ; velocity: 0
@101940 Channel: 9 Note on, F#2 key =  42 ; velocity: 127
@102000 Channel: 9 Note on, F#2 key =  42 ; velocity: 0
@102000 Channel: 9 Note on, F#2 key =  42 ; velocity: 127
@102000 Channel: 9 Note on, C2 key =  36 ; velocity: 127
@102060 Channel: 9 Note on, F#2 key =  42 ; velocity: 0
@102060 Channel: 9 Note on, F#2 key =  42 ; velocity: 127
@102120 Channel: 9 Note on, C2 key =  36 ; velocity: 0
@102120 Channel: 9 Note on, F#2 key =  42 ; velocity: 0
@102120 Channel: 9 Note on, D2 key =  38 ; velocity: 127
@102120 Channel: 9 Note on, F#2 key =  42 ; velocity: 127
@102180 Channel: 9 Note on, D2 key =  38 ; velocity: 0
@102180 Channel: 9 Note on, F#2 key =  42 ; velocity: 0
@102180 Channel: 9 Note on, F#2 key =  42 ; velocity: 127
@102240 Channel: 9 Note on, F#2 key =  42 ; velocity: 0
@102240 Channel: 9 Note on, D2 key =  38 ; velocity: 127
@102270 Channel: 9 Note on, D2 key =  38 ; velocity: 0
@102270 Channel: 9 Note on, D2 key =  38 ; velocity: 127
@102300 Channel: 9 Note on, D2 key =  38 ; velocity: 0
@102300 Channel: 9 Note on, F#2 key =  42 ; velocity: 127
@102360 Channel: 9 Note on, F#2 key =  42 ; velocity: 0
@102360 Channel: 9 Note on, D2 key =  38 ; velocity: 127
@102390 Channel: 9 Note on, D2 key =  38 ; velocity: 0
@102390 Channel: 9 Note on, D2 key =  38 ; velocity: 127
@102420 Channel: 9 Note on, D2 key =  38 ; velocity: 0
@102420 Channel: 9 Note on, F#2 key =  42 ; velocity: 127
@102480 Channel: 9 Note on, F#2 key =  42 ; velocity: 0
@102480 Channel: 9 Note on, D2 key =  38 ; velocity: 127
@102510 Channel: 9 Note on, D2 key =  38 ; velocity: 0
@102510 Channel: 9 Note on, D2 key =  38 ; velocity: 127
@102540 Channel: 9 Note on, D2 key =  38 ; velocity: 0
@102540 Channel: 9 Note on, F#2 key =  42 ; velocity: 127
@102595 Channel: 9 Note on, F#2 key =  42 ; velocity: 0
@102595 Channel: 9 Note on, D2 key =  38 ; velocity: 75
@102600 Channel: 9 Note on, D2 key =  38 ; velocity: 0
@102600 Channel: 9 Note on, D2 key =  38 ; velocity: 127
@102655 Channel: 9 Note on, D2 key =  38 ; velocity: 0
@102655 Channel: 9 Note on, D2 key =  38 ; velocity: 75
@102660 Channel: 9 Note on, D2 key =  38 ; velocity: 0
@102660 Channel: 9 Note on, D2 key =  38 ; velocity: 127
@102720 Channel: 9 Note on, D2 key =  38 ; velocity: 0
@102720 Channel: 9 Note on, A3 key =  57 ; velocity: 127
@102720 Channel: 9 Note on, C2 key =  36 ; velocity: 127
@102780 Channel: 9 Note on, A3 key =  57 ; velocity: 0
@102780 Channel: 9 Note on, F#2 key =  42 ; velocity: 127
@102840 Channel: 9 Note on, C2 key =  36 ; velocity: 0
@102840 Channel: 9 Note on, F#2 key =  42 ; velocity: 0
@102840 Channel: 9 Note on, D2 key =  38 ; velocity: 127
@102840 Channel: 9 Note on, F#2 key =  42 ; velocity: 127
@102900 Channel: 9 Note on, D2 key =  38 ; velocity: 0
@102900 Channel: 9 Note on, F#2 key =  42 ; velocity: 0
@102900 Channel: 9 Note on, F#2 key =  42 ; velocity: 127
@102960 Channel: 9 Note on, F#2 key =  42 ; velocity: 0
@102960 Channel: 9 Note on, F#2 key =  42 ; velocity: 127
@102960 Channel: 9 Note on, C2 key =  36 ; velocity: 127
@103020 Channel: 9 Note on, F#2 key =  42 ; velocity: 0
@103020 Channel: 9 Note on, C2 key =  36 ; velocity: 0
@103020 Channel: 9 Note on, F#2 key =  42 ; velocity: 127
@103020 Channel: 9 Note on, C2 key =  36 ; velocity: 127
@103040 Channel: 9 Note on, C2 key =  36 ; velocity: 0
@103040 Channel: 9 Note on, C2 key =  36 ; velocity: 127
@103060 Channel: 9 Note on, C2 key =  36 ; velocity: 0
@103060 Channel: 9 Note on, C2 key =  36 ; velocity: 127
@103080 Channel: 9 Note on, F#2 key =  42 ; velocity: 0
@103080 Channel: 9 Note on, C2 key =  36 ; velocity: 0
@103080 Channel: 9 Note on, D2 key =  38 ; velocity: 127
@103080 Channel: 9 Note on, A3 key =  57 ; velocity: 127
@103200 Channel: 9 Note on, D2 key =  38 ; velocity: 0
@103200 Channel: 9 Note on, A3 key =  57 ; velocity: 0
@103200 Channel: 9 Note on, C2 key =  36 ; velocity: 127
@103200 Channel: 9 Note on, A3 key =  57 ; velocity: 127
@103320 Channel: 9 Note on, C2 key =  36 ; velocity: 0
@103320 Channel: 9 Note on, A3 key =  57 ; velocity: 0
@103320 Channel: 9 Note on, D2 key =  38 ; velocity: 127
@103320 Channel: 9 Note on, F#2 key =  42 ; velocity: 127
@103380 Channel: 9 Note on, D2 key =  38 ; velocity: 0
@103380 Channel: 9 Note on, F#2 key =  42 ; velocity: 0
@103380 Channel: 9 Note on, F#2 key =  42 ; velocity: 127
@103440 Channel: 9 Note on, F#2 key =  42 ; velocity: 0
@103440 Channel: 9 Note on, C2 key =  36 ; velocity: 127
@103440 Channel: 9 Note on, A3 key =  57 ; velocity: 127
@103500 Channel: 9 Note on, C2 key =  36 ; velocity: 0
@103500 Channel: 9 Note on, A3 key =  57 ; velocity: 0
@103500 Channel: 9 Note on, C2 key =  36 ; velocity: 127
@103500 Channel: 9 Note on, A3 key =  57 ; velocity: 127
@103560 Channel: 9 Note on, C2 key =  36 ; velocity: 0
@103560 Channel: 9 Note on, A3 key =  57 ; velocity: 0
@103560 Channel: 9 Note on, C2 key =  36 ; velocity: 127
@103560 Channel: 9 Note on, A3 key =  57 ; velocity: 127
@103620 Channel: 9 Note on, C2 key =  36 ; velocity: 0
@103620 Channel: 9 Note on, A3 key =  57 ; velocity: 0
@103620 Channel: 9 Note on, C2 key =  36 ; velocity: 127
@103620 Channel: 9 Note on, A3 key =  57 ; velocity: 127
@103680 Channel: 9 Note on, C2 key =  36 ; velocity: 0
@103680 Channel: 9 Note on, A3 key =  57 ; velocity: 0
@103680 Channel: 9 Note on, A3 key =  57 ; velocity: 127
@103680 Channel: 9 Note on, C2 key =  36 ; velocity: 127
@103740 Channel: 9 Note on, A3 key =  57 ; velocity: 0
@103740 Channel: 9 Note on, F#2 key =  42 ; velocity: 127
@103800 Channel: 9 Note on, C2 key =  36 ; velocity: 0
@103800 Channel: 9 Note on, F#2 key =  42 ; velocity: 0
@103800 Channel: 9 Note on, D2 key =  38 ; velocity: 127
@103800 Channel: 9 Note on, F#2 key =  42 ; velocity: 127
@103860 Channel: 9 Note on, D2 key =  38 ; velocity: 0
@103860 Channel: 9 Note on, F#2 key =  42 ; velocity: 0
@103860 Channel: 9 Note on, F#2 key =  42 ; velocity: 127
@103920 Channel: 9 Note on, F#2 key =  42 ; velocity: 0
@103920 Channel: 9 Note on, F#2 key =  42 ; velocity: 127
@103920 Channel: 9 Note on, C2 key =  36 ; velocity: 127
@103980 Channel: 9 Note on, F#2 key =  42 ; velocity: 0
@103980 Channel: 9 Note on, F#2 key =  42 ; velocity: 127
@104040 Channel: 9 Note on, C2 key =  36 ; velocity: 0
@104040 Channel: 9 Note on, F#2 key =  42 ; velocity: 0
@104040 Channel: 9 Note on, D2 key =  38 ; velocity: 127
@104040 Channel: 9 Note on, F#2 key =  42 ; velocity: 127
@104100 Channel: 9 Note on, D2 key =  38 ; velocity: 0
@104100 Channel: 9 Note on, F#2 key =  42 ; velocity: 0
@104100 Channel: 9 Note on, F#2 key =  42 ; velocity: 127
@104160 Channel: 9 Note on, F#2 key =  42 ; velocity: 0
@104160 Channel: 9 Note on, C2 key =  36 ; velocity: 127
@104160 Channel: 9 Note on, F#2 key =  42 ; velocity: 127
@104220 Channel: 9 Note on, C2 key =  36 ; velocity: 0
@104220 Channel: 9 Note on, F#2 key =  42 ; velocity: 0
@104220 Channel: 9 Note on, C2 key =  36 ; velocity: 127
@104220 Channel: 9 Note on, F#2 key =  42 ; velocity: 127
@104240 Channel: 9 Note on, C2 key =  36 ; velocity: 0
@104240 Channel: 9 Note on, C2 key =  36 ; velocity: 127
@104260 Channel: 9 Note on, C2 key =  36 ; velocity: 0
@104260 Channel: 9 Note on, C2 key =  36 ; velocity: 127
@104280 Channel: 9 Note on, F#2 key =  42 ; velocity: 0
@104280 Channel: 9 Note on, C2 key =  36 ; velocity: 0
@104280 Channel: 9 Note on, D2 key =  38 ; velocity: 127
@104280 Channel: 9 Note on, F#2 key =  42 ; velocity: 127
@104340 Channel: 9 Note on, D2 key =  38 ; velocity: 0
@104340 Channel: 9 Note on, F#2 key =  42 ; velocity: 0
@104340 Channel: 9 Note on, C2 key =  36 ; velocity: 127
@104340 Channel: 9 Note on, F#2 key =  42 ; velocity: 127
@104360 Channel: 9 Note on, C2 key =  36 ; velocity: 0
@104360 Channel: 9 Note on, C2 key =  36 ; velocity: 127
@104380 Channel: 9 Note on, C2 key =  36 ; velocity: 0
@104380 Channel: 9 Note on, C2 key =  36 ; velocity: 127
@104400 Channel: 9 Note on, F#2 key =  42 ; velocity: 0
@104400 Channel: 9 Note on, C2 key =  36 ; velocity: 0
@104400 Channel: 9 Note on, D2 key =  38 ; velocity: 127
@104400 Channel: 9 Note on, F#2 key =  42 ; velocity: 127
@104460 Channel: 9 Note on, D2 key =  38 ; velocity: 0
@104460 Channel: 9 Note on, F#2 key =  42 ; velocity: 0
@104460 Channel: 9 Note on, C2 key =  36 ; velocity: 127
@104460 Channel: 9 Note on, F#2 key =  42 ; velocity: 127
@104480 Channel: 9 Note on, C2 key =  36 ; velocity: 0
@104480 Channel: 9 Note on, C2 key =  36 ; velocity: 127
@104500 Channel: 9 Note on, C2 key =  36 ; velocity: 0
@104500 Channel: 9 Note on, C2 key =  36 ; velocity: 127
@104520 Channel: 9 Note on, F#2 key =  42 ; velocity: 0
@104520 Channel: 9 Note on, C2 key =  36 ; velocity: 0
@104520 Channel: 9 Note on, D2 key =  38 ; velocity: 127
@104520 Channel: 9 Note on, F#2 key =  42 ; velocity: 127
@104580 Channel: 9 Note on, D2 key =  38 ; velocity: 0
@104580 Channel: 9 Note on, F#2 key =  42 ; velocity: 0
@104580 Channel: 9 Note on, A3 key =  57 ; velocity: 127
@104580 Channel: 9 Note on, C2 key =  36 ; velocity: 127
@104640 Channel: 9 Note on, A3 key =  57 ; velocity: 0
@104640 Channel: 9 Note on, C2 key =  36 ; velocity: 0
@104640 Channel: 9 Note on, C2 key =  36 ; velocity: 127
@104640 Channel: 9 Note on, A3 key =  57 ; velocity: 127
@104760 Channel: 9 Note on, C2 key =  36 ; velocity: 0
@104760 Channel: 9 Note on, A3 key =  57 ; velocity: 0
@104760 Channel: 9 Note on, D2 key =  38 ; velocity: 127
@104760 Channel: 9 Note on, F#2 key =  42 ; velocity: 127
@104820 Channel: 9 Note on, D2 key =  38 ; velocity: 0
@104820 Channel: 9 Note on, F#2 key =  42 ; velocity: 0
@104820 Channel: 9 Note on, F#2 key =  42 ; velocity: 127
@104880 Channel: 9 Note on, F#2 key =  42 ; velocity: 0
@104880 Channel: 9 Note on, F#2 key =  42 ; velocity: 127
@104880 Channel: 9 Note on, C2 key =  36 ; velocity: 127
@104940 Channel: 9 Note on, F#2 key =  42 ; velocity: 0
@104940 Channel: 9 Note on, C2 key =  36 ; velocity: 0
@104940 Channel: 9 Note on, F#2 key =  42 ; velocity: 127
@104940 Channel: 9 Note on, C2 key =  36 ; velocity: 127
@104960 Channel: 9 Note on, C2 key =  36 ; velocity: 0
@104960 Channel: 9 Note on, C2 key =  36 ; velocity: 127
@104980 Channel: 9 Note on, C2 key =  36 ; velocity: 0
@104980 Channel: 9 Note on, C2 key =  36 ; velocity: 127
@105000 Channel: 9 Note on, F#2 key =  42 ; velocity: 0
@105000 Channel: 9 Note on, C2 key =  36 ; velocity: 0
@105000 Channel: 9 Note on, D2 key =  38 ; velocity: 127
@105000 Channel: 9 Note on, A3 key =  57 ; velocity: 127
@105120 Channel: 9 Note on, D2 key =  38 ; velocity: 0
@105120 Channel: 9 Note on, A3 key =  57 ; velocity: 0
@105120 Channel: 9 Note on, C2 key =  36 ; velocity: 127
@105120 Channel: 9 Note on, A3 key =  57 ; velocity: 127
@105240 Channel: 9 Note on, C2 key =  36 ; velocity: 0
@105240 Channel: 9 Note on, A3 key =  57 ; velocity: 0
@105240 Channel: 9 Note on, F#2 key =  42 ; velocity: 127
@105240 Channel: 9 Note on, D2 key =  38 ; velocity: 127
@105300 Channel: 9 Note on, F#2 key =  42 ; velocity: 0
@105300 Channel: 9 Note on, D2 key =  38 ; velocity: 0
@105300 Channel: 9 Note on, F#2 key =  42 ; velocity: 127
@105355 Channel: 9 Note on, D2 key =  38 ; velocity: 75
@105360 Channel: 9 Note on, F#2 key =  42 ; velocity: 0
@105360 Channel: 9 Note on, D2 key =  38 ; velocity: 0
@105360 Channel: 9 Note on, D2 key =  38 ; velocity: 127
@105420 Channel: 9 Note on, D2 key =  38 ; velocity: 0
@105420 Channel: 9 Note on, D2 key =  38 ; velocity: 127
@105480 Channel: 9 Note on, D2 key =  38 ; velocity: 0
@105480 Channel: 9 Note on, A2 key =  45 ; velocity: 127
@105510 Channel: 9 Note on, A2 key =  45 ; velocity: 0
@105510 Channel: 9 Note on, A2 key =  45 ; velocity: 127
@105540 Channel: 9 Note on, A2 key =  45 ; velocity: 0
@105540 Channel: 9 Note on, A2 key =  45 ; velocity: 127
@105600 Channel: 9 Note on, A2 key =  45 ; velocity: 0
@105600 Channel: 9 Note on, C2 key =  36 ; velocity: 127
@105600 Channel: 9 Note on, A3 key =  57 ; velocity: 127
@105660 Channel: 9 Note on, A3 key =  57 ; velocity: 0
@105660 Channel: 9 Note on, F#2 key =  42 ; velocity: 127
@105720 Channel: 9 Note on, C2 key =  36 ; velocity: 0
@105720 Channel: 9 Note on, F#2 key =  42 ; velocity: 0
@105720 Channel: 9 Note on, D2 key =  38 ; velocity: 127
@105720 Channel: 9 Note on, F#2 key =  42 ; velocity: 127
@105780 Channel: 9 Note on, D2 key =  38 ; velocity: 0
@105780 Channel: 9 Note on, F#2 key =  42 ; velocity: 0
@105780 Channel: 9 Note on, F#2 key =  42 ; velocity: 127
@105840 Channel: 9 Note on, F#2 key =  42 ; velocity: 0
@105840 Channel: 9 Note on, C2 key =  36 ; velocity: 127
@105840 Channel: 9 Note on, F#2 key =  42 ; velocity: 127
@105900 Channel: 9 Note on, F#2 key =  42 ; velocity: 0
@105900 Channel: 9 Note on, F#2 key =  42 ; velocity: 127
@105960 Channel: 9 Note on, C2 key =  36 ; velocity: 0
@105960 Channel: 9 Note on, F#2 key =  42 ; velocity: 0
@105960 Channel: 9 Note on, D2 key =  38 ; velocity: 127
@105960 Channel: 9 Note on, F#2 key =  42 ; velocity: 127
@106020 Channel: 9 Note on, D2 key =  38 ; velocity: 0
@106020 Channel: 9 Note on, F#2 key =  42 ; velocity: 0
@106020 Channel: 9 Note on, F#2 key =  42 ; velocity: 127
@106080 Channel: 9 Note on, F#2 key =  42 ; velocity: 0
@106080 Channel: 9 Note on, F#2 key =  42 ; velocity: 127
@106080 Channel: 9 Note on, C2 key =  36 ; velocity: 127
@106140 Channel: 9 Note on, F#2 key =  42 ; velocity: 0
@106140 Channel: 9 Note on, F#2 key =  42 ; velocity: 127
@106200 Channel: 9 Note on, C2 key =  36 ; velocity: 0
@106200 Channel: 9 Note on, F#2 key =  42 ; velocity: 0
@106200 Channel: 9 Note on, D2 key =  38 ; velocity: 127
@106200 Channel: 9 Note on, F#2 key =  42 ; velocity: 127
@106260 Channel: 9 Note on, D2 key =  38 ; velocity: 0
@106260 Channel: 9 Note on, F#2 key =  42 ; velocity: 0
@106260 Channel: 9 Note on, F#2 key =  42 ; velocity: 127
@106320 Channel: 9 Note on, F#2 key =  42 ; velocity: 0
@106320 Channel: 9 Note on, F#2 key =  42 ; velocity: 127
@106320 Channel: 9 Note on, C2 key =  36 ; velocity: 127
@106380 Channel: 9 Note on, F#2 key =  42 ; velocity: 0
@106380 Channel: 9 Note on, D2 key =  38 ; velocity: 127
@106440 Channel: 9 Note on, C2 key =  36 ; velocity: 0
@106440 Channel: 9 Note on, D2 key =  38 ; velocity: 0
@106440 Channel: 9 Note on, D2 key =  38 ; velocity: 127
@106500 Channel: 9 Note on, D2 key =  38 ; velocity: 0
@106500 Channel: 9 Note on, A3 key =  57 ; velocity: 127
@106500 Channel: 9 Note on, C2 key =  36 ; velocity: 127
@106560 Channel: 9 Note on, A3 key =  57 ; velocity: 0
@106560 Channel: 9 Note on, C2 key =  36 ; velocity: 0
@106560 Channel: 9 Note on, C2 key =  36 ; velocity: 127
@106560 Channel: 9 Note on, A3 key =  57 ; velocity: 127
@106620 Channel: 9 Note on, A3 key =  57 ; velocity: 0
@106620 Channel: 9 Note on, F#2 key =  42 ; velocity: 127
@106680 Channel: 9 Note on, C2 key =  36 ; velocity: 0
@106680 Channel: 9 Note on, F#2 key =  42 ; velocity: 0
@106680 Channel: 9 Note on, F#2 key =  42 ; velocity: 127
@106740 Channel: 9 Note on, F#2 key =  42 ; velocity: 0
@106740 Channel: 9 Note on, C2 key =  36 ; velocity: 127
@106740 Channel: 9 Note on, F#2 key =  42 ; velocity: 127
@106800 Channel: 9 Note on, C2 key =  36 ; velocity: 0
@106800 Channel: 9 Note on, F#2 key =  42 ; velocity: 0
@106800 Channel: 9 Note on, F#2 key =  42 ; velocity: 127
@106800 Channel: 9 Note on, D2 key =  38 ; velocity: 127
@106860 Channel: 9 Note on, F#2 key =  42 ; velocity: 0
@106860 Channel: 9 Note on, D2 key =  38 ; velocity: 0
@106860 Channel: 9 Note on, F#2 key =  42 ; velocity: 127
@106920 Channel: 9 Note on, F#2 key =  42 ; velocity: 0
@106920 Channel: 9 Note on, F#2 key =  42 ; velocity: 127
@106980 Channel: 9 Note on, F#2 key =  42 ; velocity: 0
@106980 Channel: 9 Note on, C2 key =  36 ; velocity: 127
@106980 Channel: 9 Note on, F#2 key =  42 ; velocity: 127
@107040 Channel: 9 Note on, C2 key =  36 ; velocity: 0
@107040 Channel: 9 Note on, F#2 key =  42 ; velocity: 0
@107040 Channel: 9 Note on, F#2 key =  42 ; velocity: 127
@107040 Channel: 9 Note on, C2 key =  36 ; velocity: 127
@107100 Channel: 9 Note on, F#2 key =  42 ; velocity: 0
@107100 Channel: 9 Note on, F#2 key =  42 ; velocity: 127
@107160 Channel: 9 Note on, C2 key =  36 ; velocity: 0
@107160 Channel: 9 Note on, F#2 key =  42 ; velocity: 0
@107160 Channel: 9 Note on, F#2 key =  42 ; velocity: 127
@107220 Channel: 9 Note on, F#2 key =  42 ; velocity: 0
@107220 Channel: 9 Note on, F#2 key =  42 ; velocity: 127
@107220 Channel: 9 Note on, C2 key =  36 ; velocity: 127
@107240 Channel: 9 Note on, C2 key =  36 ; velocity: 0
@107240 Channel: 9 Note on, C2 key =  36 ; velocity: 127
@107260 Channel: 9 Note on, C2 key =  36 ; velocity: 0
@107260 Channel: 9 Note on, C2 key =  36 ; velocity: 127
@107280 Channel: 9 Note on, F#2 key =  42 ; velocity: 0
@107280 Channel: 9 Note on, C2 key =  36 ; velocity: 0
@107280 Channel: 9 Note on, D2 key =  38 ; velocity: 127
@107280 Channel: 9 Note on, F#2 key =  42 ; velocity: 127
@107340 Channel: 9 Note on, D2 key =  38 ; velocity: 0
@107340 Channel: 9 Note on, F#2 key =  42 ; velocity: 0
@107340 Channel: 9 Note on, F#2 key =  42 ; velocity: 127
@107340 Channel: 9 Note on, C2 key =  36 ; velocity: 127
@107400 Channel: 9 Note on, F#2 key =  42 ; velocity: 0
@107400 Channel: 9 Note on, C2 key =  36 ; velocity: 0
@107400 Channel: 9 Note on, F#2 key =  42 ; velocity: 127
@107460 Channel: 9 Note on, F#2 key =  42 ; velocity: 0
@107460 Channel: 9 Note on, F#2 key =  42 ; velocity: 127
@107460 Channel: 9 Note on, C2 key =  36 ; velocity: 127
@107520 Channel: 9 Note on, F#2 key =  42 ; velocity: 0
@107520 Channel: 9 Note on, C2 key =  36 ; velocity: 0
@107520 Channel: 9 Note on, F#2 key =  42 ; velocity: 127
@107520 Channel: 9 Note on, C2 key =  36 ; velocity: 127
@107580 Channel: 9 Note on, F#2 key =  42 ; velocity: 0
@107580 Channel: 9 Note on, F#2 key =  42 ; velocity: 127
@107640 Channel: 9 Note on, C2 key =  36 ; velocity: 0
@107640 Channel: 9 Note on, F#2 key =  42 ; velocity: 0
@107640 Channel: 9 Note on, F#2 key =  42 ; velocity: 127
@107700 Channel: 9 Note on, F#2 key =  42 ; velocity: 0
@107700 Channel: 9 Note on, C2 key =  36 ; velocity: 127
@107700 Channel: 9 Note on, F#2 key =  42 ; velocity: 127
@107760 Channel: 9 Note on, C2 key =  36 ; velocity: 0
@107760 Channel: 9 Note on, F#2 key =  42 ; velocity: 0
@107760 Channel: 9 Note on, F#2 key =  42 ; velocity: 127
@107760 Channel: 9 Note on, D2 key =  38 ; velocity: 127
@107820 Channel: 9 Note on, F#2 key =  42 ; velocity: 0
@107820 Channel: 9 Note on, D2 key =  38 ; velocity: 0
@107820 Channel: 9 Note on, F#2 key =  42 ; velocity: 127
@107880 Channel: 9 Note on, F#2 key =  42 ; velocity: 0
@107880 Channel: 9 Note on, F#2 key =  42 ; velocity: 127
@107940 Channel: 9 Note on, F#2 key =  42 ; velocity: 0
@107940 Channel: 9 Note on, C2 key =  36 ; velocity: 127
@107940 Channel: 9 Note on, F#2 key =  42 ; velocity: 127
@108000 Channel: 9 Note on, C2 key =  36 ; velocity: 0
@108000 Channel: 9 Note on, F#2 key =  42 ; velocity: 0
@108000 Channel: 9 Note on, F#2 key =  42 ; velocity: 127
@108000 Channel: 9 Note on, C2 key =  36 ; velocity: 127
@108060 Channel: 9 Note on, F#2 key =  42 ; velocity: 0
@108060 Channel: 9 Note on, F#2 key =  42 ; velocity: 127
@108120 Channel: 9 Note on, C2 key =  36 ; velocity: 0
@108120 Channel: 9 Note on, F#2 key =  42 ; velocity: 0
@108120 Channel: 9 Note on, F#2 key =  42 ; velocity: 127
@108180 Channel: 9 Note on, F#2 key =  42 ; velocity: 0
@108180 Channel: 9 Note on, F#2 key =  42 ; velocity: 127
@108180 Channel: 9 Note on, C2 key =  36 ; velocity: 127
@108200 Channel: 9 Note on, C2 key =  36 ; velocity: 0
@108200 Channel: 9 Note on, C2 key =  36 ; velocity: 127
@108220 Channel: 9 Note on, C2 key =  36 ; velocity: 0
@108220 Channel: 9 Note on, C2 key =  36 ; velocity: 127
@108240 Channel: 9 Note on, F#2 key =  42 ; velocity: 0
@108240 Channel: 9 Note on, C2 key =  36 ; velocity: 0
@108240 Channel: 9 Note on, D2 key =  38 ; velocity: 127
@108240 Channel: 9 Note on, F#2 key =  42 ; velocity: 127
@108300 Channel: 9 Note on, D2 key =  38 ; velocity: 0
@108300 Channel: 9 Note on, F#2 key =  42 ; velocity: 0
@108300 Channel: 9 Note on, F#2 key =  42 ; velocity: 127
@108300 Channel: 9 Note on, C2 key =  36 ; velocity: 127
@108360 Channel: 9 Note on, F#2 key =  42 ; velocity: 0
@108360 Channel: 9 Note on, C2 key =  36 ; velocity: 0
@108360 Channel: 9 Note on, F#2 key =  42 ; velocity: 127
@108420 Channel: 9 Note on, F#2 key =  42 ; velocity: 0
@108420 Channel: 9 Note on, F#2 key =  42 ; velocity: 127
@108420 Channel: 9 Note on, C2 key =  36 ; velocity: 127
@108480 Channel: 9 Note on, F#2 key =  42 ; velocity: 0
@108480 Channel: 9 Note on, C2 key =  36 ; velocity: 0
@108480 Channel: 9 Note on, F#2 key =  42 ; velocity: 127
@108480 Channel: 9 Note on, C2 key =  36 ; velocity: 127
@108540 Channel: 9 Note on, F#2 key =  42 ; velocity: 0
@108540 Channel: 9 Note on, F#2 key =  42 ; velocity: 127
@108600 Channel: 9 Note on, C2 key =  36 ; velocity: 0
@108600 Channel: 9 Note on, F#2 key =  42 ; velocity: 0
@108600 Channel: 9 Note on, F#2 key =  42 ; velocity: 127
@108660 Channel: 9 Note on, F#2 key =  42 ; velocity: 0
@108660 Channel: 9 Note on, C2 key =  36 ; velocity: 127
@108660 Channel: 9 Note on, F#2 key =  42 ; velocity: 127
@108720 Channel: 9 Note on, C2 key =  36 ; velocity: 0
@108720 Channel: 9 Note on, F#2 key =  42 ; velocity: 0
@108720 Channel: 9 Note on, F#2 key =  42 ; velocity: 127
@108720 Channel: 9 Note on, D2 key =  38 ; velocity: 127
@108780 Channel: 9 Note on, F#2 key =  42 ; velocity: 0
@108780 Channel: 9 Note on, D2 key =  38 ; velocity: 0
@108780 Channel: 9 Note on, F#2 key =  42 ; velocity: 127
@108840 Channel: 9 Note on, F#2 key =  42 ; velocity: 0
@108840 Channel: 9 Note on, F#2 key =  42 ; velocity: 127
@108900 Channel: 9 Note on, F#2 key =  42 ; velocity: 0
@108900 Channel: 9 Note on, C2 key =  36 ; velocity: 127
@108900 Channel: 9 Note on, F#2 key =  42 ; velocity: 127
@108960 Channel: 9 Note on, C2 key =  36 ; velocity: 0
@108960 Channel: 9 Note on, F#2 key =  42 ; velocity: 0
@108960 Channel: 9 Note on, F#2 key =  42 ; velocity: 127
@108960 Channel: 9 Note on, C2 key =  36 ; velocity: 127
@109020 Channel: 9 Note on, F#2 key =  42 ; velocity: 0
@109020 Channel: 9 Note on, F#2 key =  42 ; velocity: 127
@109080 Channel: 9 Note on, C2 key =  36 ; velocity: 0
@109080 Channel: 9 Note on, F#2 key =  42 ; velocity: 0
@109080 Channel: 9 Note on, F#2 key =  42 ; velocity: 127
@109140 Channel: 9 Note on, F#2 key =  42 ; velocity: 0
@109140 Channel: 9 Note on, F#2 key =  42 ; velocity: 127
@109140 Channel: 9 Note on, C2 key =  36 ; velocity: 127
@109160 Channel: 9 Note on, C2 key =  36 ; velocity: 0
@109160 Channel: 9 Note on, C2 key =  36 ; velocity: 127
@109180 Channel: 9 Note on, C2 key =  36 ; velocity: 0
@109180 Channel: 9 Note on, C2 key =  36 ; velocity: 127
@109200 Channel: 9 Note on, F#2 key =  42 ; velocity: 0
@109200 Channel: 9 Note on, C2 key =  36 ; velocity: 0
@109200 Channel: 9 Note on, D2 key =  38 ; velocity: 127
@109200 Channel: 9 Note on, F#2 key =  42 ; velocity: 127
@109260 Channel: 9 Note on, D2 key =  38 ; velocity: 0
@109260 Channel: 9 Note on, F#2 key =  42 ; velocity: 0
@109260 Channel: 9 Note on, F#2 key =  42 ; velocity: 127
@109260 Channel: 9 Note on, C2 key =  36 ; velocity: 127
@109320 Channel: 9 Note on, F#2 key =  42 ; velocity: 0
@109320 Channel: 9 Note on, C2 key =  36 ; velocity: 0
@109320 Channel: 9 Note on, F#2 key =  42 ; velocity: 127
@109380 Channel: 9 Note on, F#2 key =  42 ; velocity: 0
@109380 Channel: 9 Note on, F#2 key =  42 ; velocity: 127
@109380 Channel: 9 Note on, C2 key =  36 ; velocity: 127
@109440 Channel: 9 Note on, F#2 key =  42 ; velocity: 0
@109440 Channel: 9 Note on, C2 key =  36 ; velocity: 0
@109440 Channel: 9 Note on, F#2 key =  42 ; velocity: 127
@109440 Channel: 9 Note on, C2 key =  36 ; velocity: 127
@109500 Channel: 9 Note on, F#2 key =  42 ; velocity: 0
@109500 Channel: 9 Note on, F#2 key =  42 ; velocity: 127
@109560 Channel: 9 Note on, C2 key =  36 ; velocity: 0
@109560 Channel: 9 Note on, F#2 key =  42 ; velocity: 0
@109560 Channel: 9 Note on, F#2 key =  42 ; velocity: 127
@109620 Channel: 9 Note on, F#2 key =  42 ; velocity: 0
@109620 Channel: 9 Note on, C2 key =  36 ; velocity: 127
@109620 Channel: 9 Note on, F#2 key =  42 ; velocity: 127
@109680 Channel: 9 Note on, C2 key =  36 ; velocity: 0
@109680 Channel: 9 Note on, F#2 key =  42 ; velocity: 0
@109680 Channel: 9 Note on, F#2 key =  42 ; velocity: 127
@109680 Channel: 9 Note on, D2 key =  38 ; velocity: 127
@109740 Channel: 9 Note on, F#2 key =  42 ; velocity: 0
@109740 Channel: 9 Note on, D2 key =  38 ; velocity: 0
@109740 Channel: 9 Note on, F#2 key =  42 ; velocity: 127
@109800 Channel: 9 Note on, F#2 key =  42 ; velocity: 0
@109800 Channel: 9 Note on, F#2 key =  42 ; velocity: 127
@109860 Channel: 9 Note on, F#2 key =  42 ; velocity: 0
@109860 Channel: 9 Note on, C2 key =  36 ; velocity: 127
@109860 Channel: 9 Note on, F#2 key =  42 ; velocity: 127
@109920 Channel: 9 Note on, C2 key =  36 ; velocity: 0
@109920 Channel: 9 Note on, F#2 key =  42 ; velocity: 0
@109920 Channel: 9 Note on, F#2 key =  42 ; velocity: 127
@109920 Channel: 9 Note on, C2 key =  36 ; velocity: 127
@109980 Channel: 9 Note on, F#2 key =  42 ; velocity: 0
@109980 Channel: 9 Note on, F#2 key =  42 ; velocity: 127
@110040 Channel: 9 Note on, C2 key =  36 ; velocity: 0
@110040 Channel: 9 Note on, F#2 key =  42 ; velocity: 0
@110040 Channel: 9 Note on, F#2 key =  42 ; velocity: 127
@110100 Channel: 9 Note on, F#2 key =  42 ; velocity: 0
@110100 Channel: 9 Note on, F#2 key =  42 ; velocity: 127
@110100 Channel: 9 Note on, C2 key =  36 ; velocity: 127
@110120 Channel: 9 Note on, C2 key =  36 ; velocity: 0
@110120 Channel: 9 Note on, C2 key =  36 ; velocity: 127
@110140 Channel: 9 Note on, C2 key =  36 ; velocity: 0
@110140 Channel: 9 Note on, C2 key =  36 ; velocity: 127
@110160 Channel: 9 Note on, F#2 key =  42 ; velocity: 0
@110160 Channel: 9 Note on, C2 key =  36 ; velocity: 0
@110160 Channel: 9 Note on, D2 key =  38 ; velocity: 127
@110160 Channel: 9 Note on, F#2 key =  42 ; velocity: 127
@110220 Channel: 9 Note on, D2 key =  38 ; velocity: 0
@110220 Channel: 9 Note on, F#2 key =  42 ; velocity: 0
@110220 Channel: 9 Note on, F#2 key =  42 ; velocity: 127
@110220 Channel: 9 Note on, C2 key =  36 ; velocity: 127
@110250 Channel: 9 Note on, C2 key =  36 ; velocity: 0
@110250 Channel: 9 Note on, C2 key =  36 ; velocity: 127
@110280 Channel: 9 Note on, F#2 key =  42 ; velocity: 0
@110280 Channel: 9 Note on, C2 key =  36 ; velocity: 0
@110280 Channel: 9 Note on, F#2 key =  42 ; velocity: 127
@110340 Channel: 9 Note on, F#2 key =  42 ; velocity: 0
@110340 Channel: 9 Note on, F#2 key =  42 ; velocity: 127
@110340 Channel: 9 Note on, C2 key =  36 ; velocity: 127
@110400 Channel: 9 Note on, F#2 key =  42 ; velocity: 0
@110400 Channel: 9 Note on, C2 key =  36 ; velocity: 0
@110400 Channel: 9 Note on, C2 key =  36 ; velocity: 127
@110400 Channel: 9 Note on, F#2 key =  42 ; velocity: 127
@110460 Channel: 9 Note on, F#2 key =  42 ; velocity: 0
@110460 Channel: 9 Note on, F#2 key =  42 ; velocity: 127
@110520 Channel: 9 Note on, C2 key =  36 ; velocity: 0
@110520 Channel: 9 Note on, F#2 key =  42 ; velocity: 0
@110520 Channel: 9 Note on, D2 key =  38 ; velocity: 127
@110520 Channel: 9 Note on, A3 key =  57 ; velocity: 127
@110580 Channel: 9 Note on, D2 key =  38 ; velocity: 0
@110580 Channel: 9 Note on, A3 key =  57 ; velocity: 0
@110580 Channel: 9 Note on, C2 key =  36 ; velocity: 127
@110580 Channel: 9 Note on, F#2 key =  42 ; velocity: 127
@110640 Channel: 9 Note on, C2 key =  36 ; velocity: 0
@110640 Channel: 9 Note on, F#2 key =  42 ; velocity: 0
@110640 Channel: 9 Note on, C2 key =  36 ; velocity: 127
@110640 Channel: 9 Note on, F#2 key =  42 ; velocity: 127
@110700 Channel: 9 Note on, F#2 key =  42 ; velocity: 0
@110700 Channel: 9 Note on, F#2 key =  42 ; velocity: 127
@110760 Channel: 9 Note on, C2 key =  36 ; velocity: 0
@110760 Channel: 9 Note on, F#2 key =  42 ; velocity: 0
@110760 Channel: 9 Note on, A3 key =  57 ; velocity: 127
@110760 Channel: 9 Note on, D2 key =  38 ; velocity: 127
@110820 Channel: 9 Note on, A3 key =  57 ; velocity: 0
@110820 Channel: 9 Note on, D2 key =  38 ; velocity: 0
@110820 Channel: 9 Note on, C2 key =  36 ; velocity: 127
@110820 Channel: 9 Note on, F#2 key =  42 ; velocity: 127
@110880 Channel: 9 Note on, C2 key =  36 ; velocity: 0
@110880 Channel: 9 Note on, F#2 key =  42 ; velocity: 0
@110880 Channel: 9 Note on, F#2 key =  42 ; velocity: 127
@110880 Channel: 9 Note on, C2 key =  36 ; velocity: 127
@110940 Channel: 9 Note on, F#2 key =  42 ; velocity: 0
@110940 Channel: 9 Note on, F#2 key =  42 ; velocity: 127
@111000 Channel: 9 Note on, C2 key =  36 ; velocity: 0
@111000 Channel: 9 Note on, F#2 key =  42 ; velocity: 0
@111000 Channel: 9 Note on, D2 key =  38 ; velocity: 127
@111000 Channel: 9 Note on, F#2 key =  42 ; velocity: 127
@111060 Channel: 9 Note on, D2 key =  38 ; velocity: 0
@111060 Channel: 9 Note on, F#2 key =  42 ; velocity: 0
@111060 Channel: 9 Note on, F#2 key =  42 ; velocity: 127
@111120 Channel: 9 Note on, F#2 key =  42 ; velocity: 0
@111120 Channel: 9 Note on, F#2 key =  42 ; velocity: 127
@111120 Channel: 9 Note on, C2 key =  36 ; velocity: 127
@111180 Channel: 9 Note on, F#2 key =  42 ; velocity: 0
@111180 Channel: 9 Note on, F#2 key =  42 ; velocity: 127
@111240 Channel: 9 Note on, C2 key =  36 ; velocity: 0
@111240 Channel: 9 Note on, F#2 key =  42 ; velocity: 0
@111240 Channel: 9 Note on, D2 key =  38 ; velocity: 127
@111240 Channel: 9 Note on, F#2 key =  42 ; velocity: 127
@111300 Channel: 9 Note on, D2 key =  38 ; velocity: 0
@111300 Channel: 9 Note on, F#2 key =  42 ; velocity: 0
@111300 Channel: 9 Note on, F#2 key =  42 ; velocity: 127
@111300 Channel: 9 Note on, C2 key =  36 ; velocity: 127
@111360 Channel: 9 Note on, F#2 key =  42 ; velocity: 0
@111360 Channel: 9 Note on, C2 key =  36 ; velocity: 0
@111360 Channel: 9 Note on, C2 key =  36 ; velocity: 127
@111360 Channel: 9 Note on, F#2 key =  42 ; velocity: 127
@111420 Channel: 9 Note on, F#2 key =  42 ; velocity: 0
@111420 Channel: 9 Note on, F#2 key =  42 ; velocity: 127
@111480 Channel: 9 Note on, C2 key =  36 ; velocity: 0
@111480 Channel: 9 Note on, F#2 key =  42 ; velocity: 0
@111480 Channel: 9 Note on, D2 key =  38 ; velocity: 127
@111480 Channel: 9 Note on, A3 key =  57 ; velocity: 127
@111540 Channel: 9 Note on, D2 key =  38 ; velocity: 0
@111540 Channel: 9 Note on, A3 key =  57 ; velocity: 0
@111540 Channel: 9 Note on, C2 key =  36 ; velocity: 127
@111540 Channel: 9 Note on, F#2 key =  42 ; velocity: 127
@111600 Channel: 9 Note on, C2 key =  36 ; velocity: 0
@111600 Channel: 9 Note on, F#2 key =  42 ; velocity: 0
@111600 Channel: 9 Note on, C2 key =  36 ; velocity: 127
@111600 Channel: 9 Note on, F#2 key =  42 ; velocity: 127
@111660 Channel: 9 Note on, F#2 key =  42 ; velocity: 0
@111660 Channel: 9 Note on, F#2 key =  42 ; velocity: 127
@111720 Channel: 9 Note on, C2 key =  36 ; velocity: 0
@111720 Channel: 9 Note on, F#2 key =  42 ; velocity: 0
@111720 Channel: 9 Note on, A3 key =  57 ; velocity: 127
@111720 Channel: 9 Note on, D2 key =  38 ; velocity: 127
@111780 Channel: 9 Note on, A3 key =  57 ; velocity: 0
@111780 Channel: 9 Note on, D2 key =  38 ; velocity: 0
@111780 Channel: 9 Note on, C2 key =  36 ; velocity: 127
@111780 Channel: 9 Note on, F#2 key =  42 ; velocity: 127
@111840 Channel: 9 Note on, C2 key =  36 ; velocity: 0
@111840 Channel: 9 Note on, F#2 key =  42 ; velocity: 0
@111840 Channel: 9 Note on, F#2 key =  42 ; velocity: 127
@111840 Channel: 9 Note on, C2 key =  36 ; velocity: 127
@111900 Channel: 9 Note on, F#2 key =  42 ; velocity: 0
@111900 Channel: 9 Note on, F#2 key =  42 ; velocity: 127
@111960 Channel: 9 Note on, C2 key =  36 ; velocity: 0
@111960 Channel: 9 Note on, F#2 key =  42 ; velocity: 0
@111960 Channel: 9 Note on, D2 key =  38 ; velocity: 127
@111960 Channel: 9 Note on, F#2 key =  42 ; velocity: 127
@112020 Channel: 9 Note on, D2 key =  38 ; velocity: 0
@112020 Channel: 9 Note on, F#2 key =  42 ; velocity: 0
@112020 Channel: 9 Note on, F#2 key =  42 ; velocity: 127
@112080 Channel: 9 Note on, F#2 key =  42 ; velocity: 0
@112080 Channel: 9 Note on, F#2 key =  42 ; velocity: 127
@112080 Channel: 9 Note on, C2 key =  36 ; velocity: 127
@112140 Channel: 9 Note on, F#2 key =  42 ; velocity: 0
@112140 Channel: 9 Note on, F#2 key =  42 ; velocity: 127
@112200 Channel: 9 Note on, C2 key =  36 ; velocity: 0
@112200 Channel: 9 Note on, F#2 key =  42 ; velocity: 0
@112200 Channel: 9 Note on, D2 key =  38 ; velocity: 127
@112200 Channel: 9 Note on, F#2 key =  42 ; velocity: 127
@112260 Channel: 9 Note on, D2 key =  38 ; velocity: 0
@112260 Channel: 9 Note on, F#2 key =  42 ; velocity: 0
@112260 Channel: 9 Note on, F#2 key =  42 ; velocity: 127
@112260 Channel: 9 Note on, C2 key =  36 ; velocity: 127
@112320 Channel: 9 Note on, F#2 key =  42 ; velocity: 0
@112320 Channel: 9 Note on, C2 key =  36 ; velocity: 0
@112320 Channel: 9 Note on, C2 key =  36 ; velocity: 127
@112320 Channel: 9 Note on, F#2 key =  42 ; velocity: 127
@112380 Channel: 9 Note on, F#2 key =  42 ; velocity: 0
@112380 Channel: 9 Note on, F#2 key =  42 ; velocity: 127
@112440 Channel: 9 Note on, C2 key =  36 ; velocity: 0
@112440 Channel: 9 Note on, F#2 key =  42 ; velocity: 0
@112440 Channel: 9 Note on, D2 key =  38 ; velocity: 127
@112440 Channel: 9 Note on, A3 key =  57 ; velocity: 127
@112500 Channel: 9 Note on, D2 key =  38 ; velocity: 0
@112500 Channel: 9 Note on, A3 key =  57 ; velocity: 0
@112500 Channel: 9 Note on, C2 key =  36 ; velocity: 127
@112500 Channel: 9 Note on, F#2 key =  42 ; velocity: 127
@112560 Channel: 9 Note on, C2 key =  36 ; velocity: 0
@112560 Channel: 9 Note on, F#2 key =  42 ; velocity: 0
@112560 Channel: 9 Note on, C2 key =  36 ; velocity: 127
@112560 Channel: 9 Note on, F#2 key =  42 ; velocity: 127
@112620 Channel: 9 Note on, F#2 key =  42 ; velocity: 0
@112620 Channel: 9 Note on, F#2 key =  42 ; velocity: 127
@112680 Channel: 9 Note on, C2 key =  36 ; velocity: 0
@112680 Channel: 9 Note on, F#2 key =  42 ; velocity: 0
@112680 Channel: 9 Note on, A3 key =  57 ; velocity: 127
@112680 Channel: 9 Note on, D2 key =  38 ; velocity: 127
@112740 Channel: 9 Note on, A3 key =  57 ; velocity: 0
@112740 Channel: 9 Note on, D2 key =  38 ; velocity: 0
@112740 Channel: 9 Note on, C2 key =  36 ; velocity: 127
@112740 Channel: 9 Note on, F#2 key =  42 ; velocity: 127
@112800 Channel: 9 Note on, C2 key =  36 ; velocity: 0
@112800 Channel: 9 Note on, F#2 key =  42 ; velocity: 0
@112800 Channel: 9 Note on, F#2 key =  42 ; velocity: 127
@112800 Channel: 9 Note on, C2 key =  36 ; velocity: 127
@112860 Channel: 9 Note on, F#2 key =  42 ; velocity: 0
@112860 Channel: 9 Note on, F#2 key =  42 ; velocity: 127
@112920 Channel: 9 Note on, C2 key =  36 ; velocity: 0
@112920 Channel: 9 Note on, F#2 key =  42 ; velocity: 0
@112920 Channel: 9 Note on, D2 key =  38 ; velocity: 127
@112920 Channel: 9 Note on, F#2 key =  42 ; velocity: 127
@112980 Channel: 9 Note on, D2 key =  38 ; velocity: 0
@112980 Channel: 9 Note on, F#2 key =  42 ; velocity: 0
@112980 Channel: 9 Note on, F#2 key =  42 ; velocity: 127
@113040 Channel: 9 Note on, F#2 key =  42 ; velocity: 0
@113040 Channel: 9 Note on, F#2 key =  42 ; velocity: 127
@113040 Channel: 9 Note on, C2 key =  36 ; velocity: 127
@113100 Channel: 9 Note on, F#2 key =  42 ; velocity: 0
@113100 Channel: 9 Note on, F#2 key =  42 ; velocity: 127
@113160 Channel: 9 Note on, C2 key =  36 ; velocity: 0
@113160 Channel: 9 Note on, F#2 key =  42 ; velocity: 0
@113160 Channel: 9 Note on, D2 key =  38 ; velocity: 127
@113160 Channel: 9 Note on, F#2 key =  42 ; velocity: 127
@113220 Channel: 9 Note on, D2 key =  38 ; velocity: 0
@113220 Channel: 9 Note on, F#2 key =  42 ; velocity: 0
@113220 Channel: 9 Note on, F#2 key =  42 ; velocity: 127
@113220 Channel: 9 Note on, C2 key =  36 ; velocity: 127
@113280 Channel: 9 Note on, F#2 key =  42 ; velocity: 0
@113280 Channel: 9 Note on, C2 key =  36 ; velocity: 0
@113280 Channel: 9 Note on, C2 key =  36 ; velocity: 127
@113280 Channel: 9 Note on, F#2 key =  42 ; velocity: 127
@113340 Channel: 9 Note on, F#2 key =  42 ; velocity: 0
@113340 Channel: 9 Note on, F#2 key =  42 ; velocity: 127
@113400 Channel: 9 Note on, C2 key =  36 ; velocity: 0
@113400 Channel: 9 Note on, F#2 key =  42 ; velocity: 0
@113400 Channel: 9 Note on, D2 key =  38 ; velocity: 127
@113400 Channel: 9 Note on, A3 key =  57 ; velocity: 127
@113460 Channel: 9 Note on, D2 key =  38 ; velocity: 0
@113460 Channel: 9 Note on, A3 key =  57 ; velocity: 0
@113460 Channel: 9 Note on, C2 key =  36 ; velocity: 127
@113460 Channel: 9 Note on, F#2 key =  42 ; velocity: 127
@113520 Channel: 9 Note on, C2 key =  36 ; velocity: 0
@113520 Channel: 9 Note on, F#2 key =  42 ; velocity: 0
@113520 Channel: 9 Note on, C2 key =  36 ; velocity: 127
@113520 Channel: 9 Note on, F#2 key =  42 ; velocity: 127
@113580 Channel: 9 Note on, F#2 key =  42 ; velocity: 0
@113580 Channel: 9 Note on, F#2 key =  42 ; velocity: 127
@113640 Channel: 9 Note on, C2 key =  36 ; velocity: 0
@113640 Channel: 9 Note on, F#2 key =  42 ; velocity: 0
@113640 Channel: 9 Note on, A3 key =  57 ; velocity: 127
@113640 Channel: 9 Note on, D2 key =  38 ; velocity: 127
@113700 Channel: 9 Note on, A3 key =  57 ; velocity: 0
@113700 Channel: 9 Note on, D2 key =  38 ; velocity: 0
@113700 Channel: 9 Note on, F#2 key =  42 ; velocity: 127
@113760 Channel: 9 Note on, F#2 key =  42 ; velocity: 0
@113760 Channel: 9 Note on, A2 key =  45 ; velocity: 127
@113790 Channel: 9 Note on, A2 key =  45 ; velocity: 0
@113790 Channel: 9 Note on, A2 key =  45 ; velocity: 127
@113820 Channel: 9 Note on, A2 key =  45 ; velocity: 0
@113820 Channel: 9 Note on, A2 key =  45 ; velocity: 127
@113880 Channel: 9 Note on, A2 key =  45 ; velocity: 0
@113880 Channel: 9 Note on, B2 key =  47 ; velocity: 127
@113910 Channel: 9 Note on, B2 key =  47 ; velocity: 0
@113910 Channel: 9 Note on, B2 key =  47 ; velocity: 127
@113940 Channel: 9 Note on, B2 key =  47 ; velocity: 0
@113940 Channel: 9 Note on, B2 key =  47 ; velocity: 127
@114000 Channel: 9 Note on, B2 key =  47 ; velocity: 0
@114000 Channel: 9 Note on, C3 key =  48 ; velocity: 127
@114030 Channel: 9 Note on, C3 key =  48 ; velocity: 0
@114030 Channel: 9 Note on, C3 key =  48 ; velocity: 127
@114060 Channel: 9 Note on, C3 key =  48 ; velocity: 0
@114060 Channel: 9 Note on, C3 key =  48 ; velocity: 127
@114120 Channel: 9 Note on, C3 key =  48 ; velocity: 0
@114120 Channel: 9 Note on, D3 key =  50 ; velocity: 127
@114175 Channel: 9 Note on, D2 key =  38 ; velocity: 75
@114180 Channel: 9 Note on, D3 key =  50 ; velocity: 0
@114180 Channel: 9 Note on, D2 key =  38 ; velocity: 0
@114180 Channel: 9 Note on, D2 key =  38 ; velocity: 127
@114240 Channel: 9 Note on, D2 key =  38 ; velocity: 0
@114240 Channel: 9 Note on, C2 key =  36 ; velocity: 127
@114240 Channel: 9 Note on, A3 key =  57 ; velocity: 127
@114300 Channel: 9 Note on, A3 key =  57 ; velocity: 0
@114300 Channel: 9 Note on, F#2 key =  42 ; velocity: 127
@114360 Channel: 9 Note on, C2 key =  36 ; velocity: 0
@114360 Channel: 9 Note on, F#2 key =  42 ; velocity: 0
@114360 Channel: 9 Note on, F#2 key =  42 ; velocity: 127
@114420 Channel: 9 Note on, F#2 key =  42 ; velocity: 0
@114420 Channel: 9 Note on, C2 key =  36 ; velocity: 127
@114420 Channel: 9 Note on, F#2 key =  42 ; velocity: 127
@114480 Channel: 9 Note on, C2 key =  36 ; velocity: 0
@114480 Channel: 9 Note on, F#2 key =  42 ; velocity: 0
@114480 Channel: 9 Note on, F#2 key =  42 ; velocity: 127
@114480 Channel: 9 Note on, D2 key =  38 ; velocity: 127
@114540 Channel: 9 Note on, F#2 key =  42 ; velocity: 0
@114540 Channel: 9 Note on, D2 key =  38 ; velocity: 0
@114540 Channel: 9 Note on, F#2 key =  42 ; velocity: 127
@114600 Channel: 9 Note on, F#2 key =  42 ; velocity: 0
@114600 Channel: 9 Note on, F#2 key =  42 ; velocity: 127
@114660 Channel: 9 Note on, F#2 key =  42 ; velocity: 0
@114660 Channel: 9 Note on, C2 key =  36 ; velocity: 127
@114660 Channel: 9 Note on, F#2 key =  42 ; velocity: 127
@114720 Channel: 9 Note on, C2 key =  36 ; velocity: 0
@114720 Channel: 9 Note on, F#2 key =  42 ; velocity: 0
@114720 Channel: 9 Note on, C2 key =  36 ; velocity: 127
@114720 Channel: 9 Note on, F#2 key =  42 ; velocity: 127
@114780 Channel: 9 Note on, F#2 key =  42 ; velocity: 0
@114780 Channel: 9 Note on, F#2 key =  42 ; velocity: 127
@114840 Channel: 9 Note on, C2 key =  36 ; velocity: 0
@114840 Channel: 9 Note on, F#2 key =  42 ; velocity: 0
@114840 Channel: 9 Note on, F#2 key =  42 ; velocity: 127
@114900 Channel: 9 Note on, F#2 key =  42 ; velocity: 0
@114900 Channel: 9 Note on, C2 key =  36 ; velocity: 127
@114900 Channel: 9 Note on, F#2 key =  42 ; velocity: 127
@114960 Channel: 9 Note on, C2 key =  36 ; velocity: 0
@114960 Channel: 9 Note on, F#2 key =  42 ; velocity: 0
@114960 Channel: 9 Note on, F#2 key =  42 ; velocity: 127
@115020 Channel: 9 Note on, F#2 key =  42 ; velocity: 0
@115020 Channel: 9 Note on, C2 key =  36 ; velocity: 127
@115020 Channel: 9 Note on, F#2 key =  42 ; velocity: 127
@115080 Channel: 9 Note on, C2 key =  36 ; velocity: 0
@115080 Channel: 9 Note on, F#2 key =  42 ; velocity: 0
@115080 Channel: 9 Note on, D2 key =  38 ; velocity: 127
@115080 Channel: 9 Note on, F#2 key =  42 ; velocity: 127
@115140 Channel: 9 Note on, D2 key =  38 ; velocity: 0
@115140 Channel: 9 Note on, F#2 key =  42 ; velocity: 0
@115140 Channel: 9 Note on, C2 key =  36 ; velocity: 127
@115140 Channel: 9 Note on, F#2 key =  42 ; velocity: 127
@115200 Channel: 9 Note on, C2 key =  36 ; velocity: 0
@115200 Channel: 9 Note on, F#2 key =  42 ; velocity: 0
@115200 Channel: 9 Note on, F#2 key =  42 ; velocity: 127
@115200 Channel: 9 Note on, C2 key =  36 ; velocity: 127
@115260 Channel: 9 Note on, F#2 key =  42 ; velocity: 0
@115260 Channel: 9 Note on, F#2 key =  42 ; velocity: 127
@115320 Channel: 9 Note on, C2 key =  36 ; velocity: 0
@115320 Channel: 9 Note on, F#2 key =  42 ; velocity: 0
@115320 Channel: 9 Note on, F#2 key =  42 ; velocity: 127
@115380 Channel: 9 Note on, F#2 key =  42 ; velocity: 0
@115380 Channel: 9 Note on, F#2 key =  42 ; velocity: 127
@115380 Channel: 9 Note on, C2 key =  36 ; velocity: 127
@115400 Channel: 9 Note on, C2 key =  36 ; velocity: 0
@115400 Channel: 9 Note on, C2 key =  36 ; velocity: 127
@115420 Channel: 9 Note on, C2 key =  36 ; velocity: 0
@115420 Channel: 9 Note on, C2 key =  36 ; velocity: 127
@115440 Channel: 9 Note on, F#2 key =  42 ; velocity: 0
@115440 Channel: 9 Note on, C2 key =  36 ; velocity: 0
@115440 Channel: 9 Note on, A3 key =  57 ; velocity: 127
@115440 Channel: 9 Note on, D2 key =  38 ; velocity: 127
@115500 Channel: 9 Note on, A3 key =  57 ; velocity: 0
@115500 Channel: 9 Note on, D2 key =  38 ; velocity: 0
@115500 Channel: 9 Note on, F#2 key =  42 ; velocity: 127
@115560 Channel: 9 Note on, F#2 key =  42 ; velocity: 0
@115560 Channel: 9 Note on, F#2 key =  42 ; velocity: 127
@115620 Channel: 9 Note on, F#2 key =  42 ; velocity: 0
@115620 Channel: 9 Note on, F#2 key =  42 ; velocity: 127
@115620 Channel: 9 Note on, C2 key =  36 ; velocity: 127
@115680 Channel: 9 Note on, F#2 key =  42 ; velocity: 0
@115680 Channel: 9 Note on, C2 key =  36 ; velocity: 0
@115680 Channel: 9 Note on, F#2 key =  42 ; velocity: 127
@115680 Channel: 9 Note on, C2 key =  36 ; velocity: 127
@115740 Channel: 9 Note on, F#2 key =  42 ; velocity: 0
@115740 Channel: 9 Note on, F#2 key =  42 ; velocity: 127
@115800 Channel: 9 Note on, C2 key =  36 ; velocity: 0
@115800 Channel: 9 Note on, F#2 key =  42 ; velocity: 0
@115800 Channel: 9 Note on, F#2 key =  42 ; velocity: 127
@115860 Channel: 9 Note on, F#2 key =  42 ; velocity: 0
@115860 Channel: 9 Note on, C2 key =  36 ; velocity: 127
@115860 Channel: 9 Note on, F#2 key =  42 ; velocity: 127
@115920 Channel: 9 Note on, C2 key =  36 ; velocity: 0
@115920 Channel: 9 Note on, F#2 key =  42 ; velocity: 0
@115920 Channel: 9 Note on, F#2 key =  42 ; velocity: 127
@115980 Channel: 9 Note on, F#2 key =  42 ; velocity: 0
@115980 Channel: 9 Note on, C2 key =  36 ; velocity: 127
@115980 Channel: 9 Note on, F#2 key =  42 ; velocity: 127
@116040 Channel: 9 Note on, C2 key =  36 ; velocity: 0
@116040 Channel: 9 Note on, F#2 key =  42 ; velocity: 0
@116040 Channel: 9 Note on, F#2 key =  42 ; velocity: 127
@116040 Channel: 9 Note on, D2 key =  38 ; velocity: 127
@116100 Channel: 9 Note on, F#2 key =  42 ; velocity: 0
@116100 Channel: 9 Note on, D2 key =  38 ; velocity: 0
@116100 Channel: 9 Note on, C2 key =  36 ; velocity: 127
@116100 Channel: 9 Note on, F#2 key =  42 ; velocity: 127
@116160 Channel: 9 Note on, C2 key =  36 ; velocity: 0
@116160 Channel: 9 Note on, F#2 key =  42 ; velocity: 0
@116160 Channel: 9 Note on, F#2 key =  42 ; velocity: 127
@116160 Channel: 9 Note on, C2 key =  36 ; velocity: 127
@116220 Channel: 9 Note on, F#2 key =  42 ; velocity: 0
@116220 Channel: 9 Note on, F#2 key =  42 ; velocity: 127
@116280 Channel: 9 Note on, C2 key =  36 ; velocity: 0
@116280 Channel: 9 Note on, F#2 key =  42 ; velocity: 0
@116280 Channel: 9 Note on, F#2 key =  42 ; velocity: 127
@116340 Channel: 9 Note on, F#2 key =  42 ; velocity: 0
@116340 Channel: 9 Note on, F#2 key =  42 ; velocity: 127
@116340 Channel: 9 Note on, C2 key =  36 ; velocity: 127
@116360 Channel: 9 Note on, C2 key =  36 ; velocity: 0
@116360 Channel: 9 Note on, C2 key =  36 ; velocity: 127
@116380 Channel: 9 Note on, C2 key =  36 ; velocity: 0
@116380 Channel: 9 Note on, C2 key =  36 ; velocity: 127
@116400 Channel: 9 Note on, F#2 key =  42 ; velocity: 0
@116400 Channel: 9 Note on, C2 key =  36 ; velocity: 0
@116400 Channel: 9 Note on, A3 key =  57 ; velocity: 127
@116400 Channel: 9 Note on, D2 key =  38 ; velocity: 127
@116460 Channel: 9 Note on, A3 key =  57 ; velocity: 0
@116460 Channel: 9 Note on, D2 key =  38 ; velocity: 0
@116460 Channel: 9 Note on, F#2 key =  42 ; velocity: 127
@116520 Channel: 9 Note on, F#2 key =  42 ; velocity: 0
@116520 Channel: 9 Note on, F#2 key =  42 ; velocity: 127
@116580 Channel: 9 Note on, F#2 key =  42 ; velocity: 0
@116580 Channel: 9 Note on, F#2 key =  42 ; velocity: 127
@116580 Channel: 9 Note on, C2 key =  36 ; velocity: 127
@116640 Channel: 9 Note on, F#2 key =  42 ; velocity: 0
@116640 Channel: 9 Note on, C2 key =  36 ; velocity: 0
@116640 Channel: 9 Note on, F#2 key =  42 ; velocity: 127
@116640 Channel: 9 Note on, C2 key =  36 ; velocity: 127
@116700 Channel: 9 Note on, F#2 key =  42 ; velocity: 0
@116700 Channel: 9 Note on, F#2 key =  42 ; velocity: 127
@116760 Channel: 9 Note on, C2 key =  36 ; velocity: 0
@116760 Channel: 9 Note on, F#2 key =  42 ; velocity: 0
@116760 Channel: 9 Note on, F#2 key =  42 ; velocity: 127
@116820 Channel: 9 Note on, F#2 key =  42 ; velocity: 0
@116820 Channel: 9 Note on, C2 key =  36 ; velocity: 127
@116820 Channel: 9 Note on, F#2 key =  42 ; velocity: 127
@116880 Channel: 9 Note on, C2 key =  36 ; velocity: 0
@116880 Channel: 9 Note on, F#2 key =  42 ; velocity: 0
@116880 Channel: 9 Note on, F#2 key =  42 ; velocity: 127
@116940 Channel: 9 Note on, F#2 key =  42 ; velocity: 0
@116940 Channel: 9 Note on, C2 key =  36 ; velocity: 127
@116940 Channel: 9 Note on, F#2 key =  42 ; velocity: 127
@117000 Channel: 9 Note on, C2 key =  36 ; velocity: 0
@117000 Channel: 9 Note on, F#2 key =  42 ; velocity: 0
@117000 Channel: 9 Note on, F#2 key =  42 ; velocity: 127
@117000 Channel: 9 Note on, D2 key =  38 ; velocity: 127
@117060 Channel: 9 Note on, F#2 key =  42 ; velocity: 0
@117060 Channel: 9 Note on, D2 key =  38 ; velocity: 0
@117060 Channel: 9 Note on, C2 key =  36 ; velocity: 127
@117060 Channel: 9 Note on, F#2 key =  42 ; velocity: 127
@117120 Channel: 9 Note on, C2 key =  36 ; velocity: 0
@117120 Channel: 9 Note on, F#2 key =  42 ; velocity: 0
@117120 Channel: 9 Note on, F#2 key =  42 ; velocity: 127
@117120 Channel: 9 Note on, C2 key =  36 ; velocity: 127
@117180 Channel: 9 Note on, F#2 key =  42 ; velocity: 0
@117180 Channel: 9 Note on, F#2 key =  42 ; velocity: 127
@117240 Channel: 9 Note on, C2 key =  36 ; velocity: 0
@117240 Channel: 9 Note on, F#2 key =  42 ; velocity: 0
@117240 Channel: 9 Note on, F#2 key =  42 ; velocity: 127
@117300 Channel: 9 Note on, F#2 key =  42 ; velocity: 0
@117300 Channel: 9 Note on, F#2 key =  42 ; velocity: 127
@117300 Channel: 9 Note on, C2 key =  36 ; velocity: 127
@117320 Channel: 9 Note on, C2 key =  36 ; velocity: 0
@117320 Channel: 9 Note on, C2 key =  36 ; velocity: 127
@117340 Channel: 9 Note on, C2 key =  36 ; velocity: 0
@117340 Channel: 9 Note on, C2 key =  36 ; velocity: 127
@117360 Channel: 9 Note on, F#2 key =  42 ; velocity: 0
@117360 Channel: 9 Note on, C2 key =  36 ; velocity: 0
@117360 Channel: 9 Note on, A3 key =  57 ; velocity: 127
@117360 Channel: 9 Note on, D2 key =  38 ; velocity: 127
@117420 Channel: 9 Note on, A3 key =  57 ; velocity: 0
@117420 Channel: 9 Note on, D2 key =  38 ; velocity: 0
@117420 Channel: 9 Note on, F#2 key =  42 ; velocity: 127
@117480 Channel: 9 Note on, F#2 key =  42 ; velocity: 0
@117480 Channel: 9 Note on, F#2 key =  42 ; velocity: 127
@117540 Channel: 9 Note on, F#2 key =  42 ; velocity: 0
@117540 Channel: 9 Note on, F#2 key =  42 ; velocity: 127
@117540 Channel: 9 Note on, C2 key =  36 ; velocity: 127
@117560 Channel: 9 Note on, C2 key =  36 ; velocity: 0
@117560 Channel: 9 Note on, C2 key =  36 ; velocity: 127
@117580 Channel: 9 Note on, C2 key =  36 ; velocity: 0
@117580 Channel: 9 Note on, C2 key =  36 ; velocity: 127
@117600 Channel: 9 Note on, F#2 key =  42 ; velocity: 0
@117600 Channel: 9 Note on, C2 key =  36 ; velocity: 0
@117600 Channel: 9 Note on, D2 key =  38 ; velocity: 127
@117600 Channel: 9 Note on, A3 key =  57 ; velocity: 127
@117660 Channel: 9 Note on, D2 key =  38 ; velocity: 0
@117660 Channel: 9 Note on, A3 key =  57 ; velocity: 0
@117660 Channel: 9 Note on, D2 key =  38 ; velocity: 127
@117690 Channel: 9 Note on, D2 key =  38 ; velocity: 0
@117690 Channel: 9 Note on, D2 key =  38 ; velocity: 127
@117720 Channel: 9 Note on, D2 key =  38 ; velocity: 0
@117720 Channel: 9 Note on, C2 key =  36 ; velocity: 127
@117720 Channel: 9 Note on, A3 key =  57 ; velocity: 127
@117780 Channel: 9 Note on, A3 key =  57 ; velocity: 0
@117780 Channel: 9 Note on, A2 key =  45 ; velocity: 127
@117810 Channel: 9 Note on, A2 key =  45 ; velocity: 0
@117810 Channel: 9 Note on, A2 key =  45 ; velocity: 127
@117840 Channel: 9 Note on, C2 key =  36 ; velocity: 0
@117840 Channel: 9 Note on, A2 key =  45 ; velocity: 0
@117840 Channel: 9 Note on, C2 key =  36 ; velocity: 127
@117840 Channel: 9 Note on, A2 key =  45 ; velocity: 127
@117895 Channel: 9 Note on, D2 key =  38 ; velocity: 75
@117900 Channel: 9 Note on, A2 key =  45 ; velocity: 0
@117900 Channel: 9 Note on, D2 key =  38 ; velocity: 0
@117900 Channel: 9 Note on, D2 key =  38 ; velocity: 127
@117960 Channel: 9 Note on, C2 key =  36 ; velocity: 0
@117960 Channel: 9 Note on, D2 key =  38 ; velocity: 0
@117960 Channel: 9 Note on, C2 key =  36 ; velocity: 127
@117960 Channel: 9 Note on, A3 key =  57 ; velocity: 127
@118020 Channel: 9 Note on, C2 key =  36 ; velocity: 0
@118020 Channel: 9 Note on, A3 key =  57 ; velocity: 0
@118020 Channel: 9 Note on, C2 key =  36 ; velocity: 127
@118020 Channel: 9 Note on, A3 key =  57 ; velocity: 127
@118080 Channel: 9 Note on, C2 key =  36 ; velocity: 0
@118080 Channel: 9 Note on, A3 key =  57 ; velocity: 0
@118080 Channel: 9 Note on, A3 key =  57 ; velocity: 127
@118080 Channel: 9 Note on, C2 key =  36 ; velocity: 127
@118140 Channel: 9 Note on, A3 key =  57 ; velocity: 0
@118140 Channel: 9 Note on, F#2 key =  42 ; velocity: 127
@118200 Channel: 9 Note on, C2 key =  36 ; velocity: 0
@118200 Channel: 9 Note on, F#2 key =  42 ; velocity: 0
@118200 Channel: 9 Note on, D2 key =  38 ; velocity: 127
@118200 Channel: 9 Note on, F#2 key =  42 ; velocity: 127
@118260 Channel: 9 Note on, D2 key =  38 ; velocity: 0
@118260 Channel: 9 Note on, F#2 key =  42 ; velocity: 0
@118260 Channel: 9 Note on, F#2 key =  42 ; velocity: 127
@118260 Channel: 9 Note on, C2 key =  36 ; velocity: 127
@118320 Channel: 9 Note on, F#2 key =  42 ; velocity: 0
@118320 Channel: 9 Note on, C2 key =  36 ; velocity: 0
@118320 Channel: 9 Note on, F#2 key =  42 ; velocity: 127
@118320 Channel: 9 Note on, C2 key =  36 ; velocity: 127
@118380 Channel: 9 Note on, F#2 key =  42 ; velocity: 0
@118380 Channel: 9 Note on, F#2 key =  42 ; velocity: 127
@118440 Channel: 9 Note on, C2 key =  36 ; velocity: 0
@118440 Channel: 9 Note on, F#2 key =  42 ; velocity: 0
@118440 Channel: 9 Note on, D2 key =  38 ; velocity: 127
@118440 Channel: 9 Note on, F#2 key =  42 ; velocity: 127
@118500 Channel: 9 Note on, D2 key =  38 ; velocity: 0
@118500 Channel: 9 Note on, F#2 key =  42 ; velocity: 0
@118500 Channel: 9 Note on, F#2 key =  42 ; velocity: 127
@118500 Channel: 9 Note on, C2 key =  36 ; velocity: 127
@118560 Channel: 9 Note on, F#2 key =  42 ; velocity: 0
@118560 Channel: 9 Note on, C2 key =  36 ; velocity: 0
@118560 Channel: 9 Note on, F#2 key =  42 ; velocity: 127
@118560 Channel: 9 Note on, C2 key =  36 ; velocity: 127
@118620 Channel: 9 Note on, F#2 key =  42 ; velocity: 0
@118620 Channel: 9 Note on, F#2 key =  42 ; velocity: 127
@118680 Channel: 9 Note on, C2 key =  36 ; velocity: 0
@118680 Channel: 9 Note on, F#2 key =  42 ; velocity: 0
@118680 Channel: 9 Note on, D2 key =  38 ; velocity: 127
@118680 Channel: 9 Note on, F#2 key =  42 ; velocity: 127
@118740 Channel: 9 Note on, D2 key =  38 ; velocity: 0
@118740 Channel: 9 Note on, F#2 key =  42 ; velocity: 0
@118740 Channel: 9 Note on, F#2 key =  42 ; velocity: 127
@118800 Channel: 9 Note on, F#2 key =  42 ; velocity: 0
@118800 Channel: 9 Note on, F#2 key =  42 ; velocity: 127
@118800 Channel: 9 Note on, C2 key =  36 ; velocity: 127
@118860 Channel: 9 Note on, F#2 key =  42 ; velocity: 0
@118860 Channel: 9 Note on, C2 key =  36 ; velocity: 0
@118860 Channel: 9 Note on, F#2 key =  42 ; velocity: 127
@118860 Channel: 9 Note on, C2 key =  36 ; velocity: 127
@118880 Channel: 9 Note on, C2 key =  36 ; velocity: 0
@118880 Channel: 9 Note on, C2 key =  36 ; velocity: 127
@118900 Channel: 9 Note on, C2 key =  36 ; velocity: 0
@118900 Channel: 9 Note on, C2 key =  36 ; velocity: 127
@118920 Channel: 9 Note on, F#2 key =  42 ; velocity: 0
@118920 Channel: 9 Note on, C2 key =  36 ; velocity: 0
@118920 Channel: 9 Note on, A3 key =  57 ; velocity: 127
@118920 Channel: 9 Note on, D2 key =  38 ; velocity: 127
@119040 Channel: 9 Note on, A3 key =  57 ; velocity: 0
@119040 Channel: 9 Note on, D2 key =  38 ; velocity: 0
@119040 Channel: 9 Note on, A3 key =  57 ; velocity: 127
@119040 Channel: 9 Note on, C2 key =  36 ; velocity: 127
@119100 Channel: 9 Note on, A3 key =  57 ; velocity: 0
@119100 Channel: 9 Note on, F#2 key =  42 ; velocity: 127
@119160 Channel: 9 Note on, C2 key =  36 ; velocity: 0
@119160 Channel: 9 Note on, F#2 key =  42 ; velocity: 0
@119160 Channel: 9 Note on, D2 key =  38 ; velocity: 127
@119160 Channel: 9 Note on, F#2 key =  42 ; velocity: 127
@119220 Channel: 9 Note on, D2 key =  38 ; velocity: 0
@119220 Channel: 9 Note on, F#2 key =  42 ; velocity: 0
@119220 Channel: 9 Note on, F#2 key =  42 ; velocity: 127
@119220 Channel: 9 Note on, C2 key =  36 ; velocity: 127
@119280 Channel: 9 Note on, F#2 key =  42 ; velocity: 0
@119280 Channel: 9 Note on, C2 key =  36 ; velocity: 0
@119280 Channel: 9 Note on, F#2 key =  42 ; velocity: 127
@119280 Channel: 9 Note on, C2 key =  36 ; velocity: 127
@119340 Channel: 9 Note on, F#2 key =  42 ; velocity: 0
@119340 Channel: 9 Note on, F#2 key =  42 ; velocity: 127
@119400 Channel: 9 Note on, C2 key =  36 ; velocity: 0
@119400 Channel: 9 Note on, F#2 key =  42 ; velocity: 0
@119400 Channel: 9 Note on, D2 key =  38 ; velocity: 127
@119400 Channel: 9 Note on, F#2 key =  42 ; velocity: 127
@119460 Channel: 9 Note on, D2 key =  38 ; velocity: 0
@119460 Channel: 9 Note on, F#2 key =  42 ; velocity: 0
@119460 Channel: 9 Note on, F#2 key =  42 ; velocity: 127
@119460 Channel: 9 Note on, C2 key =  36 ; velocity: 127
@119520 Channel: 9 Note on, F#2 key =  42 ; velocity: 0
@119520 Channel: 9 Note on, C2 key =  36 ; velocity: 0
@119520 Channel: 9 Note on, F#2 key =  42 ; velocity: 127
@119520 Channel: 9 Note on, C2 key =  36 ; velocity: 127
@119580 Channel: 9 Note on, F#2 key =  42 ; velocity: 0
@119580 Channel: 9 Note on, F#2 key =  42 ; velocity: 127
@119640 Channel: 9 Note on, C2 key =  36 ; velocity: 0
@119640 Channel: 9 Note on, F#2 key =  42 ; velocity: 0
@119640 Channel: 9 Note on, D2 key =  38 ; velocity: 127
@119640 Channel: 9 Note on, F#2 key =  42 ; velocity: 127
@119700 Channel: 9 Note on, D2 key =  38 ; velocity: 0
@119700 Channel: 9 Note on, F#2 key =  42 ; velocity: 0
@119700 Channel: 9 Note on, F#2 key =  42 ; velocity: 127
@119760 Channel: 9 Note on, F#2 key =  42 ; velocity: 0
@119760 Channel: 9 Note on, F#2 key =  42 ; velocity: 127
@119760 Channel: 9 Note on, C2 key =  36 ; velocity: 127
@119820 Channel: 9 Note on, F#2 key =  42 ; velocity: 0
@119820 Channel: 9 Note on, C2 key =  36 ; velocity: 0
@119820 Channel: 9 Note on, F#2 key =  42 ; velocity: 127
@119820 Channel: 9 Note on, C2 key =  36 ; velocity: 127
@119840 Channel: 9 Note on, C2 key =  36 ; velocity: 0
@119840 Channel: 9 Note on, C2 key =  36 ; velocity: 127
@119860 Channel: 9 Note on, C2 key =  36 ; velocity: 0
@119860 Channel: 9 Note on, C2 key =  36 ; velocity: 127
@119880 Channel: 9 Note on, F#2 key =  42 ; velocity: 0
@119880 Channel: 9 Note on, C2 key =  36 ; velocity: 0
@119880 Channel: 9 Note on, A3 key =  57 ; velocity: 127
@119880 Channel: 9 Note on, D2 key =  38 ; velocity: 127
@120000 Channel: 9 Note on, A3 key =  57 ; velocity: 0
@120000 Channel: 9 Note on, D2 key =  38 ; velocity: 0
@120000 Channel: 9 Note on, A3 key =  57 ; velocity: 127
@120000 Channel: 9 Note on, C2 key =  36 ; velocity: 127
@120060 Channel: 9 Note on, A3 key =  57 ; velocity: 0
@120060 Channel: 9 Note on, F#2 key =  42 ; velocity: 127
@120120 Channel: 9 Note on, C2 key =  36 ; velocity: 0
@120120 Channel: 9 Note on, F#2 key =  42 ; velocity: 0
@120120 Channel: 9 Note on, D2 key =  38 ; velocity: 127
@120120 Channel: 9 Note on, F#2 key =  42 ; velocity: 127
@120180 Channel: 9 Note on, D2 key =  38 ; velocity: 0
@120180 Channel: 9 Note on, F#2 key =  42 ; velocity: 0
@120180 Channel: 9 Note on, F#2 key =  42 ; velocity: 127
@120180 Channel: 9 Note on, C2 key =  36 ; velocity: 127
@120240 Channel: 9 Note on, F#2 key =  42 ; velocity: 0
@120240 Channel: 9 Note on, C2 key =  36 ; velocity: 0
@120240 Channel: 9 Note on, F#2 key =  42 ; velocity: 127
@120240 Channel: 9 Note on, C2 key =  36 ; velocity: 127
@120300 Channel: 9 Note on, F#2 key =  42 ; velocity: 0
@120300 Channel: 9 Note on, F#2 key =  42 ; velocity: 127
@120360 Channel: 9 Note on, C2 key =  36 ; velocity: 0
@120360 Channel: 9 Note on, F#2 key =  42 ; velocity: 0
@120360 Channel: 9 Note on, D2 key =  38 ; velocity: 127
@120360 Channel: 9 Note on, F#2 key =  42 ; velocity: 127
@120420 Channel: 9 Note on, D2 key =  38 ; velocity: 0
@120420 Channel: 9 Note on, F#2 key =  42 ; velocity: 0
@120420 Channel: 9 Note on, F#2 key =  42 ; velocity: 127
@120420 Channel: 9 Note on, C2 key =  36 ; velocity: 127
@120480 Channel: 9 Note on, F#2 key =  42 ; velocity: 0
@120480 Channel: 9 Note on, C2 key =  36 ; velocity: 0
@120480 Channel: 9 Note on, F#2 key =  42 ; velocity: 127
@120480 Channel: 9 Note on, C2 key =  36 ; velocity: 127
@120540 Channel: 9 Note on, F#2 key =  42 ; velocity: 0
@120540 Channel: 9 Note on, F#2 key =  42 ; velocity: 127
@120600 Channel: 9 Note on, C2 key =  36 ; velocity: 0
@120600 Channel: 9 Note on, F#2 key =  42 ; velocity: 0
@120600 Channel: 9 Note on, D2 key =  38 ; velocity: 127
@120600 Channel: 9 Note on, F#2 key =  42 ; velocity: 127
@120660 Channel: 9 Note on, D2 key =  38 ; velocity: 0
@120660 Channel: 9 Note on, F#2 key =  42 ; velocity: 0
@120660 Channel: 9 Note on, F#2 key =  42 ; velocity: 127
@120720 Channel: 9 Note on, F#2 key =  42 ; velocity: 0
@120720 Channel: 9 Note on, F#2 key =  42 ; velocity: 127
@120720 Channel: 9 Note on, C2 key =  36 ; velocity: 127
@120780 Channel: 9 Note on, F#2 key =  42 ; velocity: 0
@120780 Channel: 9 Note on, C2 key =  36 ; velocity: 0
@120780 Channel: 9 Note on, F#2 key =  42 ; velocity: 127
@120780 Channel: 9 Note on, C2 key =  36 ; velocity: 127
@120800 Channel: 9 Note on, C2 key =  36 ; velocity: 0
@120800 Channel: 9 Note on, C2 key =  36 ; velocity: 127
@120820 Channel: 9 Note on, C2 key =  36 ; velocity: 0
@120820 Channel: 9 Note on, C2 key =  36 ; velocity: 127
@120840 Channel: 9 Note on, F#2 key =  42 ; velocity: 0
@120840 Channel: 9 Note on, C2 key =  36 ; velocity: 0
@120840 Channel: 9 Note on, A3 key =  57 ; velocity: 127
@120840 Channel: 9 Note on, D2 key =  38 ; velocity: 127
@120960 Channel: 9 Note on, A3 key =  57 ; velocity: 0
@120960 Channel: 9 Note on, D2 key =  38 ; velocity: 0
@120960 Channel: 9 Note on, C2 key =  36 ; velocity: 127
@120960 Channel: 9 Note on, A3 key =  57 ; velocity: 127
@121020 Channel: 9 Note on, A3 key =  57 ; velocity: 0
@121020 Channel: 9 Note on, F#2 key =  42 ; velocity: 127
@121080 Channel: 9 Note on, C2 key =  36 ; velocity: 0
@121080 Channel: 9 Note on, F#2 key =  42 ; velocity: 0
@121080 Channel: 9 Note on, D2 key =  38 ; velocity: 127
@121080 Channel: 9 Note on, F#2 key =  42 ; velocity: 127
@121140 Channel: 9 Note on, D2 key =  38 ; velocity: 0
@121140 Channel: 9 Note on, F#2 key =  42 ; velocity: 0
@121140 Channel: 9 Note on, C2 key =  36 ; velocity: 127
@121140 Channel: 9 Note on, F#2 key =  42 ; velocity: 127
@121200 Channel: 9 Note on, C2 key =  36 ; velocity: 0
@121200 Channel: 9 Note on, F#2 key =  42 ; velocity: 0
@121200 Channel: 9 Note on, C2 key =  36 ; velocity: 127
@121200 Channel: 9 Note on, F#2 key =  42 ; velocity: 127
@121260 Channel: 9 Note on, F#2 key =  42 ; velocity: 0
@121260 Channel: 9 Note on, F#2 key =  42 ; velocity: 127
@121320 Channel: 9 Note on, C2 key =  36 ; velocity: 0
@121320 Channel: 9 Note on, F#2 key =  42 ; velocity: 0
@121320 Channel: 9 Note on, D2 key =  38 ; velocity: 127
@121320 Channel: 9 Note on, F#2 key =  42 ; velocity: 127
@121380 Channel: 9 Note on, D2 key =  38 ; velocity: 0
@121380 Channel: 9 Note on, F#2 key =  42 ; velocity: 0
@121380 Channel: 9 Note on, C2 key =  36 ; velocity: 127
@121380 Channel: 9 Note on, F#2 key =  42 ; velocity: 127
@121440 Channel: 9 Note on, C2 key =  36 ; velocity: 0
@121440 Channel: 9 Note on, F#2 key =  42 ; velocity: 0
@121440 Channel: 9 Note on, F#2 key =  42 ; velocity: 127
@121440 Channel: 9 Note on, C2 key =  36 ; velocity: 127
@121500 Channel: 9 Note on, F#2 key =  42 ; velocity: 0
@121500 Channel: 9 Note on, F#2 key =  42 ; velocity: 127
@121560 Channel: 9 Note on, C2 key =  36 ; velocity: 0
@121560 Channel: 9 Note on, F#2 key =  42 ; velocity: 0
@121560 Channel: 9 Note on, D2 key =  38 ; velocity: 127
@121560 Channel: 9 Note on, F#2 key =  42 ; velocity: 127
@121620 Channel: 9 Note on, D2 key =  38 ; velocity: 0
@121620 Channel: 9 Note on, F#2 key =  42 ; velocity: 0
@121620 Channel: 9 Note on, F#2 key =  42 ; velocity: 127
@121680 Channel: 9 Note on, F#2 key =  42 ; velocity: 0
@121680 Channel: 9 Note on, F#2 key =  42 ; velocity: 127
@121680 Channel: 9 Note on, C2 key =  36 ; velocity: 127
@121740 Channel: 9 Note on, F#2 key =  42 ; velocity: 0
@121740 Channel: 9 Note on, C2 key =  36 ; velocity: 0
@121740 Channel: 9 Note on, F#2 key =  42 ; velocity: 127
@121740 Channel: 9 Note on, C2 key =  36 ; velocity: 127
@121760 Channel: 9 Note on, C2 key =  36 ; velocity: 0
@121760 Channel: 9 Note on, C2 key =  36 ; velocity: 127
@121780 Channel: 9 Note on, C2 key =  36 ; velocity: 0
@121780 Channel: 9 Note on, C2 key =  36 ; velocity: 127
@121800 Channel: 9 Note on, F#2 key =  42 ; velocity: 0
@121800 Channel: 9 Note on, C2 key =  36 ; velocity: 0
@121800 Channel: 9 Note on, D2 key =  38 ; velocity: 127
@121800 Channel: 9 Note on, F#2 key =  42 ; velocity: 127
@121860 Channel: 9 Note on, D2 key =  38 ; velocity: 0
@121860 Channel: 9 Note on, F#2 key =  42 ; velocity: 0
@121860 Channel: 9 Note on, F#2 key =  42 ; velocity: 127
@121920 Channel: 9 Note on, F#2 key =  42 ; velocity: 0
@121920 Channel: 9 Note on, F#2 key =  42 ; velocity: 127
@121920 Channel: 9 Note on, C2 key =  36 ; velocity: 127
@121980 Channel: 9 Note on, F#2 key =  42 ; velocity: 0
@121980 Channel: 9 Note on, C2 key =  36 ; velocity: 0
@121980 Channel: 9 Note on, F#2 key =  42 ; velocity: 127
@121980 Channel: 9 Note on, C2 key =  36 ; velocity: 127
@122000 Channel: 9 Note on, C2 key =  36 ; velocity: 0
@122000 Channel: 9 Note on, C2 key =  36 ; velocity: 127
@122020 Channel: 9 Note on, C2 key =  36 ; velocity: 0
@122020 Channel: 9 Note on, C2 key =  36 ; velocity: 127
@122040 Channel: 9 Note on, F#2 key =  42 ; velocity: 0
@122040 Channel: 9 Note on, C2 key =  36 ; velocity: 0
@122040 Channel: 9 Note on, D2 key =  38 ; velocity: 127
@122040 Channel: 9 Note on, A3 key =  57 ; velocity: 127
@122160 Channel: 9 Note on, D2 key =  38 ; velocity: 0
@122160 Channel: 9 Note on, A3 key =  57 ; velocity: 0
@122520 Channel: 9 Note on, C2 key =  36 ; velocity: 127
@122520 Channel: 9 Note on, A3 key =  57 ; velocity: 127
@122640 Channel: 9 Note on, C2 key =  36 ; velocity: 0
@122640 Channel: 9 Note on, A3 key =  57 ; velocity: 0
@123000 Channel: 9 Note on, A3 key =  57 ; velocity: 127
@123000 Channel: 9 Note on, C2 key =  36 ; velocity: 127
@123120 Channel: 9 Note on, A3 key =  57 ; velocity: 0
@123120 Channel: 9 Note on, C2 key =  36 ; velocity: 0
@123480 Channel: 9 Note on, F#2 key =  42 ; velocity: 127
@123480 Channel: 9 Note on, C2 key =  36 ; velocity: 127
@123540 Channel: 9 Note on, F#2 key =  42 ; velocity: 0
@123540 Channel: 9 Note on, C2 key =  36 ; velocity: 0
@123540 Channel: 9 Note on, F#2 key =  42 ; velocity: 127
@123540 Channel: 9 Note on, C2 key =  36 ; velocity: 127
@123600 Channel: 9 Note on, F#2 key =  42 ; velocity: 0
@123600 Channel: 9 Note on, C2 key =  36 ; velocity: 0
@123600 Channel: 9 Note on, F#2 key =  42 ; velocity: 127
@123600 Channel: 9 Note on, C2 key =  36 ; velocity: 127
@123660 Channel: 9 Note on, F#2 key =  42 ; velocity: 0
@123660 Channel: 9 Note on, D2 key =  38 ; velocity: 127
@123660 Channel: 9 Note on, F#2 key =  42 ; velocity: 127
@123720 Channel: 9 Note on, C2 key =  36 ; velocity: 0
@123720 Channel: 9 Note on, D2 key =  38 ; velocity: 0
@123720 Channel: 9 Note on, F#2 key =  42 ; velocity: 0
@123720 Channel: 9 Note on, C2 key =  36 ; velocity: 127
@123720 Channel: 9 Note on, D2 key =  38 ; velocity: 127
@123720 Channel: 9 Note on, A3 key =  57 ; velocity: 127
@123840 Channel: 9 Note on, C2 key =  36 ; velocity: 0
@123840 Channel: 9 Note on, D2 key =  38 ; velocity: 0
@123840 Channel: 9 Note on, A3 key =  57 ; velocity: 0
@123840 Other Message: class javax.sound.midi.Track$ImmutableEndOfTrack

Track 8: size = 3
@0 Other Message: class javax.sound.midi.MetaMessage

@0 Other Message: class javax.sound.midi.MetaMessage

@0 Other Message: class javax.sound.midi.Track$ImmutableEndOfTrack

Track 9: size = 3
@0 Other Message: class javax.sound.midi.MetaMessage

@0 Other Message: class javax.sound.midi.MetaMessage

@0 Other Message: class javax.sound.midi.Track$ImmutableEndOfTrack

Track 10: size = 3
@0 Other Message: class javax.sound.midi.MetaMessage

@0 Other Message: class javax.sound.midi.MetaMessage

@0 Other Message: class javax.sound.midi.Track$ImmutableEndOfTrack

Track 11: size = 3
@0 Other Message: class javax.sound.midi.MetaMessage

@0 Other Message: class javax.sound.midi.MetaMessage

@0 Other Message: class javax.sound.midi.Track$ImmutableEndOfTrack

Track 12: size = 3
@0 Other Message: class javax.sound.midi.MetaMessage

@0 Other Message: class javax.sound.midi.MetaMessage

@0 Other Message: class javax.sound.midi.Track$ImmutableEndOfTrack

Track 13: size = 3
@0 Other Message: class javax.sound.midi.MetaMessage

@0 Other Message: class javax.sound.midi.MetaMessage

@0 Other Message: class javax.sound.midi.Track$ImmutableEndOfTrack

